<?xml version="1.0" encoding="iso-8859-1"?>
<!-- Generator: Adobe Illustrator 19.0.0, SVG Export Plug-In . SVG Version: 6.00 Build 0)  -->
<svg version="1.1" id="Layer_1" xmlns="http://www.w3.org/2000/svg" xmlns:xlink="http://www.w3.org/1999/xlink" x="0px" y="0px"
	 viewBox="0 0 24 24" style="enable-background:new 0 0 24 24;" xml:space="preserve">
<g>
	<g>
		<g>
			<path style="fill:#FFD419;" d="M11.069,20.751c-0.67,0-1.292-0.333-1.664-0.891c-0.907-1.36-2.272-2.357-3.844-2.806
				l-3.782-1.081c-0.475-0.135-0.785-0.603-0.723-1.087c0.124-0.963,0.455-2.02,0.956-3.056c-0.001,0.002-0.003,0.003-0.004,0.003
				c-0.007,0-0.007-0.053-0.01-0.081L1.105,4.169c-0.021-0.183,0.06-0.362,0.21-0.468C1.401,3.641,1.502,3.61,1.602,3.61
				c0.076,0,0.153,0.018,0.224,0.053l5.173,2.588c1.625-0.997,3.298-1.494,4.996-1.494c1.713,0,3.397,0.505,5.007,1.503l5.169-2.595
				c0.07-0.035,0.147-0.053,0.224-0.053c0.101,0,0.201,0.031,0.287,0.091c0.15,0.105,0.23,0.285,0.21,0.467l-0.896,7.639
				l0.003,0.068c0.492,1.021,0.817,2.062,0.941,3.01c0.064,0.484-0.246,0.952-0.724,1.087l-3.78,1.081
				c-1.571,0.449-2.937,1.445-3.844,2.806c-0.371,0.557-0.993,0.89-1.663,0.89H11.069z"/>
		</g>
	</g>
	<g>
		<g>
			<path style="fill:#FBE158;" d="M3.419,6.697l1.784,0.892L5.099,7.696C4.612,8.143,4.155,8.629,3.721,9.161L3.718,9.162
				L3.419,6.697z"/>
		</g>
	</g>
	<g>
		<g>
			<path style="fill:#FBE158;" d="M20.277,9.161c-0.426-0.523-0.892-1.019-1.378-1.465l-0.105-0.109l1.786-0.89l-0.292,2.477
				L20.277,9.161z"/>
		</g>
	</g>
	<g>
		<g>
			<path style="fill:#FBE158;" d="M11.999,14.751c-2.104,0-3.896,1.303-4.635,3.143c0.8,0.511,1.507,1.166,2.041,1.967
				c0.372,0.557,0.994,0.89,1.664,0.89h1.859c0.67,0,1.292-0.333,1.664-0.891c0.534-0.801,1.24-1.456,2.041-1.967
				C15.895,16.054,14.103,14.751,11.999,14.751z"/>
		</g>
	</g>
	<g>
		<g>
			<g>
				<path style="fill:#E6BF17;" d="M21.999,11.877l-0.003-0.068l0.896-7.639c0.021-0.182-0.06-0.362-0.21-0.467
					c-0.086-0.06-0.187-0.091-0.287-0.091c-0.076,0-0.153,0.018-0.224,0.053l-1.774,0.891l-0.85,7.253l0.003,0.068
					c0.492,1.021,0.817,2.062,0.941,3.01c0.064,0.484-0.246,0.952-0.724,1.087l-3.78,1.081c-1.571,0.449-2.937,1.445-3.844,2.806
					c-0.316,0.474-0.816,0.771-1.369,0.854c0.098,0.015,0.194,0.037,0.295,0.037h1.859c0.67,0,1.292-0.333,1.664-0.891
					c0.907-1.36,2.272-2.357,3.844-2.806l3.78-1.081c0.478-0.135,0.788-0.604,0.724-1.087
					C22.817,13.939,22.491,12.898,21.999,11.877z"/>
			</g>
		</g>
	</g>
	<g id="Abra">
		<g>
			<g>
				<path style="fill:#31395A;" d="M3.711,9.667c-0.045,0-0.09-0.006-0.134-0.019c-0.194-0.056-0.34-0.216-0.362-0.415L2.923,6.756
					C2.901,6.573,2.982,6.394,3.131,6.288c0.151-0.105,0.35-0.12,0.511-0.038l1.784,0.892c0.143,0.071,0.242,0.206,0.27,0.363
					c0.026,0.157-0.023,0.317-0.134,0.432L5.458,8.044C4.967,8.496,4.52,8.971,4.108,9.477C4.011,9.597,3.861,9.667,3.711,9.667z"/>
			</g>
		</g>
		<g>
			<g>
				<path style="fill:#31395A;" d="M12.93,21.251h-1.86c-0.838,0-1.615-0.416-2.08-1.113c-0.842-1.262-2.107-2.186-3.565-2.602
					l-3.782-1.081c-0.71-0.204-1.175-0.905-1.081-1.632c0.125-0.972,0.448-2.03,0.936-3.07L0.504,3.309
					C0.483,3.126,0.563,2.947,0.713,2.841c0.152-0.105,0.349-0.119,0.511-0.038L6.978,5.68c3.239-1.896,6.794-1.9,10.039,0.003
					l5.76-2.88c0.163-0.083,0.359-0.068,0.511,0.038c0.15,0.105,0.23,0.285,0.209,0.468l-0.994,8.458
					c0.485,1.034,0.809,2.088,0.936,3.054c0.096,0.728-0.369,1.43-1.081,1.633l-3.781,1.081c-1.458,0.416-2.724,1.34-3.565,2.602
					C14.544,20.835,13.768,21.251,12.93,21.251z M1.603,4.112l0.892,7.58c0.012,0.095,0.009,0.271-0.032,0.356
					c-0.479,0.989-0.793,1.992-0.91,2.902c-0.031,0.241,0.125,0.474,0.364,0.542l3.782,1.081c1.685,0.481,3.148,1.55,4.122,3.009
					c0.28,0.418,0.746,0.668,1.249,0.668h1.859c0.503,0,0.969-0.25,1.248-0.668c0.974-1.459,2.438-2.528,4.122-3.009l3.781-1.081
					c0.239-0.068,0.396-0.301,0.364-0.542c-0.117-0.896-0.427-1.884-0.896-2.858c-0.033-0.067-0.05-0.142-0.05-0.217v-0.124
					l0.896-7.639l-5.111,2.556C17.12,6.78,16.909,6.79,16.738,6.685c-3.064-1.898-6.39-1.901-9.454-0.023
					c-0.146,0.1-0.34,0.12-0.509,0.037L1.603,4.112z"/>
			</g>
		</g>
		<g>
			<g>
				<circle style="fill:#31395A;" cx="9.999" cy="17.251" r="0.5"/>
			</g>
		</g>
		<g>
			<g>
				<circle style="fill:#31395A;" cx="13.999" cy="17.251" r="0.5"/>
			</g>
		</g>
		<g>
			<g>
				<path style="fill:#31395A;" d="M7.999,14.751c-0.15,0-0.299-0.067-0.397-0.196c-1.192-1.558-2.666-1.808-2.681-1.811
					c-0.273-0.043-0.459-0.299-0.416-0.572s0.305-0.459,0.572-0.415c0.076,0.012,1.886,0.318,3.319,2.189
					c0.167,0.219,0.126,0.533-0.094,0.701C8.212,14.717,8.106,14.751,7.999,14.751z"/>
			</g>
		</g>
		<g>
			<g>
				<path style="fill:#31395A;" d="M15.999,14.751c-0.106,0-0.213-0.034-0.304-0.103c-0.22-0.168-0.261-0.482-0.094-0.701
					c1.434-1.871,3.243-2.177,3.319-2.189c0.269-0.044,0.529,0.142,0.572,0.415s-0.143,0.529-0.416,0.572
					c-0.012,0.002-1.502,0.27-2.681,1.811C16.298,14.684,16.15,14.751,15.999,14.751z"/>
			</g>
		</g>
		<g>
			<g>
				<path style="fill:#31395A;" d="M20.289,9.674c-0.145,0-0.285-0.063-0.382-0.177l-0.011-0.013
					c-0.418-0.513-0.864-0.988-1.334-1.42l-0.125-0.127c-0.11-0.114-0.16-0.275-0.134-0.432c0.027-0.157,0.127-0.292,0.27-0.363
					l1.784-0.892c0.163-0.083,0.359-0.068,0.511,0.038c0.15,0.105,0.231,0.285,0.209,0.468l-0.292,2.477
					c-0.022,0.198-0.161,0.363-0.352,0.42C20.386,9.667,20.337,9.674,20.289,9.674z"/>
			</g>
		</g>
	</g>
</g>
</svg>
