<?xml version="1.0" encoding="iso-8859-1"?>
<!-- Generator: Adobe Illustrator 19.0.0, SVG Export Plug-In . SVG Version: 6.00 Build 0)  -->
<svg version="1.1" id="Layer_1" xmlns="http://www.w3.org/2000/svg" xmlns:xlink="http://www.w3.org/1999/xlink" x="0px" y="0px"
	 viewBox="0 0 24 24" style="enable-background:new 0 0 24 24;" xml:space="preserve">
<g>
	<g>
		<path style="fill:#93278F;" d="M22.976,5.327c-0.924-2.842-7.266-4.804-7.33-4.824c-2.417-0.736-5.564-0.549-7.297,0.002
			C8.087,0.588,1.92,2.575,1.025,5.327c-0.878,2.702,1.114,6.616,3.042,10.402c1.442,2.833,2.934,5.763,2.934,7.753
			c0,0.276,0.224,0.5,0.5,0.5h9c0.276,0,0.5-0.224,0.5-0.5c0-1.99,1.492-4.92,2.934-7.753C21.861,11.943,23.854,8.029,22.976,5.327z
			"/>
	</g>
	<g>
		<path style="fill:#852381;" d="M22.976,5.327c-0.924-2.842-7.266-4.804-7.33-4.824c-1.715-0.522-3.789-0.574-5.473-0.367
			c0.616,0.078,1.22,0.195,1.784,0.367c0.064,0.02,6.406,1.982,7.33,4.824c0.878,2.702-1.114,6.616-3.042,10.402
			c-1.442,2.833-2.934,5.763-2.934,7.753c0,0.276-0.224,0.5-0.5,0.5H16.5c0.276,0,0.5-0.224,0.5-0.5c0-1.99,1.492-4.92,2.934-7.753
			C21.861,11.943,23.854,8.029,22.976,5.327z"/>
	</g>
	<g>
		<path style="fill:#FF7BAC;" d="M12.017,16.482v-0.004c-0.006,0-0.017,0.004-0.017,0.004h-1c-0.489,0-0.904-0.35-0.985-0.831
			c-0.143-0.85-0.162-1.493-0.181-2.174c-0.014-0.464-0.033-0.946-0.093-1.486c-0.018-0.158,0.041-0.314,0.157-0.422
			c0.093-0.086,0.215-0.133,0.34-0.133c0.031,0,0.062,0.003,0.093,0.009c0.007,0.001,0.092,0.02,0.099,0.021L12,11.481h1.5
			c0.005-0.001,0.174-0.037,0.179-0.038c0.034-0.007,0.067-0.01,0.101-0.01c0.124,0,0.244,0.046,0.337,0.131
			c0.118,0.107,0.178,0.266,0.16,0.424c-0.061,0.542-0.08,1.023-0.093,1.488c-0.02,0.681-0.038,1.325-0.181,2.174
			c-0.082,0.481-0.496,0.831-0.986,0.831L12.017,16.482L12.017,16.482z"/>
	</g>
	<g>
		<path style="fill:#E66F9B;" d="M9.858,14.114c0.62-0.396,1.353-0.632,2.143-0.632c0.797,0,1.536,0.24,2.16,0.642
			c0.01-0.216,0.018-0.43,0.024-0.647c0.013-0.465,0.032-0.947,0.093-1.488c0.018-0.159-0.042-0.317-0.16-0.424
			c-0.093-0.085-0.213-0.131-0.337-0.131c-0.033,0-0.067,0.003-0.101,0.01c-0.005,0.001-0.174,0.037-0.179,0.038h-1.5l-1.57-0.015
			c-0.007-0.001-0.092-0.02-0.099-0.021c-0.031-0.006-0.062-0.009-0.093-0.009c-0.125,0-0.247,0.047-0.34,0.133
			c-0.116,0.107-0.175,0.264-0.157,0.422c0.06,0.54,0.079,1.022,0.093,1.486C9.84,13.691,9.847,13.901,9.858,14.114z"/>
	</g>
	<g id="Arbok">
		<g>
			<path style="fill:#31395A;" d="M16.5,23.982c-0.276,0-0.5-0.224-0.5-0.5c0-2.23,1.478-5.133,3.043-8.207
				c1.834-3.604,3.732-7.331,2.981-9.639c-0.534-1.641-4.222-3.43-6.67-4.176c-2.143-0.654-5.091-0.515-6.703-0.002
				C6.268,2.215,2.523,3.952,1.975,5.636c-0.75,2.308,1.147,6.034,2.981,9.639c1.565,3.073,3.043,5.977,3.043,8.207
				c0,0.276-0.224,0.5-0.5,0.5s-0.5-0.224-0.5-0.5c0-1.99-1.492-4.92-2.934-7.753c-1.927-3.786-3.92-7.7-3.042-10.402
				c0.895-2.752,7.062-4.739,7.324-4.822c1.732-0.551,4.88-0.738,7.297-0.002c0.064,0.02,6.406,1.982,7.33,4.824
				c0.878,2.702-1.114,6.616-3.042,10.402c-1.442,2.833-2.934,5.763-2.934,7.753C17,23.758,16.776,23.982,16.5,23.982z"/>
		</g>
		<g>
			<path style="fill:#31395A;" d="M12,11.982h-1.5c-0.663,0-1.236-0.457-1.459-1.164C8.909,10.4,8.335,9.253,8.087,8.772
				C6.632,7.207,3.935,4.803,2.642,4.916c-0.195,0.015-0.324,0.09-0.431,0.25C2.057,5.395,1.747,5.457,1.518,5.305
				c-0.23-0.153-0.292-0.463-0.139-0.693c0.276-0.414,0.686-0.654,1.185-0.693C2.61,3.915,2.657,3.914,2.705,3.914
				c2.195,0,5.756,3.789,6.163,4.23c0.03,0.033,0.056,0.069,0.076,0.109c0.087,0.168,0.861,1.666,1.05,2.264
				c0.071,0.225,0.242,0.466,0.506,0.466H12c0.276,0,0.5,0.224,0.5,0.5S12.276,11.982,12,11.982z"/>
		</g>
		<g>
			<path style="fill:#31395A;" d="M13.5,11.982H12c-0.276,0-0.5-0.224-0.5-0.5s0.224-0.5,0.5-0.5h1.5
				c0.265,0,0.435-0.241,0.506-0.466c0.189-0.598,0.962-2.096,1.05-2.264c0.021-0.04,0.046-0.076,0.076-0.109
				c0.416-0.451,4.122-4.424,6.304-4.225c0.5,0.039,0.909,0.279,1.185,0.693c0.153,0.23,0.091,0.54-0.139,0.693
				c-0.231,0.152-0.541,0.09-0.693-0.139c-0.107-0.16-0.236-0.235-0.431-0.251c-1.271-0.1-3.991,2.292-5.445,3.857
				c-0.248,0.48-0.821,1.627-0.954,2.046C14.736,11.525,14.163,11.982,13.5,11.982z"/>
		</g>
		<g>
			<path style="fill:#31395A;" d="M12,16.982h-1c-0.735,0-1.356-0.525-1.479-1.248c-0.148-0.882-0.168-1.574-0.188-2.242
				C9.31,12.67,9.288,11.893,9.029,10.78c-0.062-0.269,0.105-0.538,0.375-0.6c0.271-0.061,0.538,0.105,0.6,0.375
				c0.28,1.21,0.305,2.074,0.329,2.909c0.019,0.664,0.037,1.29,0.174,2.104c0.041,0.24,0.248,0.414,0.492,0.414h1
				c0.276,0,0.5,0.224,0.5,0.5S12.276,16.982,12,16.982z"/>
		</g>
		<g>
			<path style="fill:#31395A;" d="M13.017,16.982h-1c-0.276,0-0.5-0.224-0.5-0.5s0.224-0.5,0.5-0.5h1
				c0.245,0,0.452-0.174,0.493-0.414c0.137-0.814,0.155-1.441,0.174-2.105c0.024-0.835,0.049-1.698,0.329-2.909
				c0.063-0.269,0.331-0.437,0.6-0.375c0.269,0.063,0.437,0.331,0.375,0.6c-0.258,1.113-0.28,1.89-0.304,2.712
				c-0.019,0.668-0.039,1.36-0.188,2.242C14.374,16.457,13.752,16.982,13.017,16.982z"/>
		</g>
		<g>
			<path style="fill:#31395A;" d="M10.5,8.982c-0.162,0-0.32-0.078-0.417-0.223l-1-1.5c-0.153-0.23-0.091-0.54,0.139-0.693
				c0.229-0.153,0.54-0.091,0.693,0.139l1,1.5c0.153,0.23,0.091,0.54-0.139,0.693C10.692,8.955,10.596,8.982,10.5,8.982z"/>
		</g>
		<g>
			<path style="fill:#31395A;" d="M13.5,8.982c-0.095,0-0.191-0.027-0.277-0.084c-0.23-0.153-0.292-0.463-0.139-0.693l1-1.5
				c0.152-0.229,0.462-0.292,0.693-0.139c0.23,0.153,0.292,0.463,0.139,0.693l-1,1.5C13.82,8.904,13.662,8.982,13.5,8.982z"/>
		</g>
		<g>
			<path style="fill:#31395A;" d="M11,12.982c-0.276,0-0.5-0.224-0.5-0.5v-1c0-0.276,0.224-0.5,0.5-0.5s0.5,0.224,0.5,0.5v1
				C11.5,12.758,11.276,12.982,11,12.982z"/>
		</g>
		<g>
			<path style="fill:#31395A;" d="M11,16.482c-0.276,0-0.5-0.224-0.5-0.5v-1c0-0.276,0.224-0.5,0.5-0.5s0.5,0.224,0.5,0.5v1
				C11.5,16.258,11.276,16.482,11,16.482z"/>
		</g>
		<g>
			<path style="fill:#31395A;" d="M13,16.482c-0.276,0-0.5-0.224-0.5-0.5v-1c0-0.276,0.224-0.5,0.5-0.5s0.5,0.224,0.5,0.5v1
				C13.5,16.258,13.276,16.482,13,16.482z"/>
		</g>
		<g>
			<path style="fill:#31395A;" d="M13,12.982c-0.276,0-0.5-0.224-0.5-0.5v-1c0-0.276,0.224-0.5,0.5-0.5s0.5,0.224,0.5,0.5v1
				C13.5,12.758,13.276,12.982,13,12.982z"/>
		</g>
	</g>
</g>
</svg>
