<?xml version="1.0" encoding="iso-8859-1"?>
<!-- Generator: Adobe Illustrator 19.0.0, SVG Export Plug-In . SVG Version: 6.00 Build 0)  -->
<svg version="1.1" id="Layer_1" xmlns="http://www.w3.org/2000/svg" xmlns:xlink="http://www.w3.org/1999/xlink" x="0px" y="0px"
	 viewBox="0 0 24 24" style="enable-background:new 0 0 24 24;" xml:space="preserve">
<g>
	<g>
		<path style="fill:#E5DEED;" d="M8.496,23.499c-1.704,0-7-4.252-7-8l0.447-2.804c0.007-0.047,0.008-0.096,0.002-0.143L0.511,1.729
			c-0.037-0.31,0.061-0.626,0.269-0.86c0.208-0.235,0.508-0.37,0.822-0.37c0.456,0,0.869,0.287,1.028,0.713l1.887,4.797
			c0.06,0.153,0.192,0.268,0.354,0.304c0.037,0.009,0.074,0.013,0.111,0.013c0.125,0,0.246-0.046,0.34-0.133
			c2.596-2.403,6.054-2.663,7.42-2.663c0.134,0,0.36,0.006,0.366,0.006c0.205,0,0.39-0.125,0.465-0.317l0.788-2.004
			c0.161-0.43,0.572-0.713,1.028-0.713c0.314,0,0.614,0.135,0.821,0.37c0.209,0.235,0.307,0.548,0.27,0.86l-0.297,2.234
			c-0.029,0.222,0.092,0.436,0.297,0.525C16.937,4.692,17.404,5,17.897,5.326c0.874,0.578,1.772,1.171,2.599,1.171
			c1.108,0,2.924-1.918,3-2c0,1.407-0.536,2.75-1.51,3.78c-0.645,0.682-1.146,1.093-1.49,1.22c-0.566,0.21-1.125,0.239-1.645,0.239
			l-0.829-0.008c-0.771,0-1.668,0.059-2.526,0.77c-0.098,0.08-0.208,0.232-0.225,0.357l-0.225,1.695
			c-0.006,0.048-0.005,0.097,0.002,0.145l0.448,2.804c-0.004,1.57-1.038,3.553-2.845,5.362C11.023,22.49,9.227,23.499,8.496,23.499z
			"/>
	</g>
	<g>
		<g>
			<path style="fill:#CFC8D6;" d="M20.622,6.477c-0.256,0.661-0.636,1.274-1.136,1.803c-0.645,0.682-1.146,1.093-1.49,1.22
				c-0.566,0.21-1.125,0.239-1.645,0.239L15.522,9.73c-0.771,0-1.668,0.059-2.526,0.77c-0.098,0.08-0.208,0.232-0.225,0.357
				l-0.225,1.695c-0.006,0.048-0.005,0.097,0.002,0.145l0.448,2.802c-0.004,1.57-1.038,3.553-2.845,5.362
				c-1.011,1.011-2.085,1.783-2.93,2.223c0.512,0.266,0.956,0.415,1.275,0.415c0.731,0,2.527-1.009,4.155-2.638
				c1.807-1.809,2.841-3.792,2.845-5.362l-0.447-2.803c-0.007-0.048-0.008-0.096-0.002-0.145l0.225-1.695
				c0.017-0.125,0.127-0.277,0.225-0.357c0.858-0.71,1.755-0.77,2.526-0.77l0.829,0.008c0.52,0,1.078-0.029,1.645-0.239
				c0.345-0.127,0.846-0.538,1.49-1.22c0.974-1.03,1.51-2.373,1.51-3.78C23.423,4.578,21.737,6.35,20.622,6.477z"/>
		</g>
	</g>
	<g>
		<path style="fill:#5C6671;" d="M8.498,21.498c-0.039-0.037-0.084-0.066-0.133-0.089c-1.423-0.653-4.737-3.511-4.865-5.775
			l0.474-2.971c0,1.213,3.781,4.251,4.213,4.594c0.091,0.072,0.2,0.108,0.311,0.108c0.109,0,0.219-0.036,0.31-0.107
			c0.432-0.34,4.216-3.36,4.216-4.559l0.474,2.971c-0.137,2.422-3.808,5.389-4.996,5.83C8.5,21.499,8.499,21.498,8.498,21.498z"/>
	</g>
	<g>
		<path style="fill:#FABC3D;" d="M8.806,6.604c-0.179-0.139-0.43-0.14-0.61-0.001C7.089,7.455,3.474,10.345,3.474,11.8v0.363
			c0,1.468,3.61,4.375,4.717,5.232c0.09,0.07,0.197,0.104,0.306,0.104c0.107,0,0.215-0.035,0.305-0.104
			c1.107-0.852,4.722-3.742,4.722-5.197v-0.363C13.522,10.368,9.912,7.46,8.806,6.604z"/>
	</g>
	<g id="Arceus">
		<g>
			<path style="fill:#31395A;" d="M8.5,21.999c-0.128,0-0.25-0.049-0.343-0.136c-1.438-0.659-5.012-3.642-5.156-6.202
				c-0.002-0.036,0-0.072,0.005-0.107l0.474-2.971c0.041-0.257,0.275-0.441,0.533-0.42c0.261,0.021,0.461,0.238,0.461,0.499
				c0,0.621,2.026,2.616,4.023,4.202c1.998-1.576,4.025-3.555,4.025-4.167c0-0.261,0.2-0.478,0.461-0.499
				c0.252-0.02,0.492,0.162,0.533,0.42l0.474,2.971c0.005,0.035,0.007,0.071,0.005,0.107c-0.15,2.665-4.017,5.787-5.321,6.271
				C8.616,21.99,8.558,21.999,8.5,21.999z M4.003,15.656c0.16,1.964,3.229,4.691,4.533,5.283c1.342-0.659,4.3-3.32,4.457-5.248
				l-0.231-1.452c-1.122,1.417-3.174,3.051-3.961,3.656c-0.181,0.138-0.432,0.138-0.61-0.001c-0.786-0.608-2.837-2.253-3.958-3.68
				L4.003,15.656z"/>
		</g>
		<g>
			<path style="fill:#31395A;" d="M8.496,23.999c-1.877,0-7.5-4.419-7.5-8.5l0.453-2.881L0.015,1.796
				C-0.04,1.337,0.102,0.88,0.406,0.538c0.303-0.342,0.739-0.538,1.196-0.538c0.663,0,1.265,0.417,1.497,1.038L5.96,8.318
				c0.102,0.257-0.024,0.547-0.282,0.648C5.421,9.066,5.131,8.939,5.031,8.684L2.166,1.396c-0.153-0.41-0.732-0.51-1.012-0.194
				c-0.115,0.13-0.167,0.296-0.146,0.468l1.442,10.89c0.006,0.048,0.005,0.096-0.002,0.144L1.99,15.579
				c0.006,3.42,5.204,7.42,6.506,7.42s6.5-4,6.5-7.5l-0.452-2.796c-0.007-0.048-0.008-0.096-0.002-0.144l1.442-10.891
				c0.021-0.167-0.031-0.333-0.146-0.463c-0.28-0.315-0.862-0.208-1.008,0.186l-2.869,7.291c-0.102,0.257-0.395,0.381-0.647,0.282
				c-0.258-0.101-0.384-0.392-0.282-0.648l2.865-7.283c0.229-0.613,0.83-1.03,1.493-1.03c0.457,0,0.894,0.196,1.196,0.539
				c0.304,0.342,0.445,0.798,0.391,1.251l-1.434,10.824l0.447,2.803C15.996,19.58,10.373,23.999,8.496,23.999z"/>
		</g>
		<g>
			<circle style="fill:#31395A;" cx="6.496" cy="16.499" r="1"/>
		</g>
		<g>
			<circle style="fill:#31395A;" cx="10.496" cy="16.499" r="1"/>
		</g>
		<g>
			<path style="fill:#31395A;" d="M4.793,7.218c-0.12,0-0.241-0.043-0.337-0.13C4.252,6.902,4.237,6.586,4.423,6.382
				c3.456-3.797,8.826-3.345,9.051-3.324c0.275,0.026,0.477,0.269,0.452,0.544C13.9,3.877,13.649,4.08,13.382,4.054
				c-0.047-0.004-5.104-0.42-8.219,3C5.064,7.163,4.929,7.218,4.793,7.218z"/>
		</g>
		<g>
			<path style="fill:#31395A;" d="M15.298,11.16c-0.146,0-0.29-0.063-0.389-0.185c-0.174-0.215-0.141-0.53,0.074-0.704l0.198-0.161
				c1.1-0.91,2.25-0.892,3.26-0.877c0.662,0.008,1.281,0.019,1.881-0.203c0.123-0.046,0.497-0.244,1.301-1.095
				c0.573-0.607,0.979-1.333,1.195-2.116c-0.7,0.584-1.593,1.179-2.322,1.179c-0.977,0-1.939-0.636-2.87-1.251
				c-0.477-0.315-0.927-0.613-1.331-0.791l-0.372-0.16c-0.253-0.109-0.37-0.403-0.261-0.657c0.108-0.255,0.403-0.372,0.657-0.261
				l0.375,0.162c0.485,0.214,0.97,0.534,1.483,0.874c0.808,0.533,1.643,1.085,2.319,1.085c0.625,0,1.917-1.077,2.636-1.842
				c0.139-0.149,0.357-0.197,0.548-0.123c0.191,0.076,0.316,0.26,0.316,0.465c0,1.536-0.585,3-1.646,4.123
				c-0.707,0.749-1.256,1.189-1.68,1.346c-0.777,0.288-1.522,0.277-2.243,0.266c-0.959-0.015-1.792-0.027-2.612,0.651l-0.202,0.164
				C15.52,11.123,15.409,11.16,15.298,11.16z"/>
		</g>
	</g>
</g>
</svg>
