<?xml version="1.0" encoding="iso-8859-1"?>
<!-- Generator: Adobe Illustrator 19.0.0, SVG Export Plug-In . SVG Version: 6.00 Build 0)  -->
<svg version="1.1" id="Layer_1" xmlns="http://www.w3.org/2000/svg" xmlns:xlink="http://www.w3.org/1999/xlink" x="0px" y="0px"
	 viewBox="0 0 24 24" style="enable-background:new 0 0 24 24;" xml:space="preserve">
<g>
	<g>
		<path style="fill:#DF2C2C;" d="M15.194,20.507c-1.033,0-2.223-0.452-3.484-0.931c-1.404-0.534-2.822-1.074-4.137-1.074
			c-0.792,0.012-1.895,0.272-3.063,0.549c-1.188,0.28-2.515,0.579-3.225,0.579c-0.008,0-0.105-0.002-0.113-0.002
			c-0.198-0.01-0.372-0.136-0.442-0.322c-0.071-0.185-0.025-0.395,0.117-0.534c0.677-0.666,2.291-2.1,3.59-3.225
			c0.042-0.037,0.091-0.066,0.143-0.087c1.153-0.457,3.929-0.967,5.919-0.967c1.247,0,3.045,0.491,4.785,0.966
			c1.445,0.395,2.939,0.803,4.206,0.963c0.188,0.024,0.345,0.151,0.408,0.329s0.021,0.376-0.11,0.513
			c-0.894,0.934-3.102,3.117-4.288,3.229C15.4,20.503,15.298,20.507,15.194,20.507z"/>
	</g>
	<g>
		<path style="fill:#FFFFFF;" d="M19.96,16.471c-1.354-0.104-3.043-0.566-4.677-1.012c-1.819-0.497-3.538-0.966-4.784-0.966
			c-1.573,0-3.875,0.335-5.356,0.779c-0.047,0.014-0.095,0.021-0.144,0.021c-0.106,0-0.211-0.034-0.298-0.099
			c-0.127-0.095-0.202-0.243-0.202-0.401v-5.3c0-3.252,4.351-6,9.5-6c2.206,0,6.5,2.471,6.5,7v5.479c0,0.139-0.058,0.272-0.16,0.367
			c-0.093,0.086-0.214,0.133-0.34,0.133C19.986,16.473,19.974,16.472,19.96,16.471z"/>
	</g>
	<g>
		<path style="fill:#DF2C2C;" d="M20.999,16.299c-0.104,0-0.206-0.032-0.292-0.094c-0.13-0.094-0.208-0.245-0.208-0.406v-5.306
			c0-2.806-1.631-4.585-2.604-5.395c-0.186-0.155-0.234-0.422-0.114-0.633c0.091-0.159,0.259-0.251,0.434-0.251
			c0.057,0,0.114,0.009,0.169,0.029c3.06,1.1,5.115,3.209,5.115,5.25v5.64c0,0.215-0.138,0.406-0.342,0.474l-2,0.667
			C21.105,16.291,21.052,16.299,20.999,16.299z"/>
	</g>
	<g>
		<g>
			<path style="fill:#C92828;" d="M19.897,16.752c-0.063-0.178-0.221-0.305-0.408-0.329c-1.267-0.161-2.761-0.569-4.206-0.963
				c-1.739-0.475-3.538-0.966-4.785-0.966c-0.472,0-0.989,0.03-1.518,0.08c1.123,0.156,2.478,0.524,3.802,0.885
				c1.445,0.395,2.939,0.803,4.206,0.963c0.188,0.024,0.345,0.151,0.408,0.329s0.021,0.376-0.11,0.513
				c-0.742,0.775-2.384,2.396-3.601,2.993c0.529,0.148,1.036,0.25,1.508,0.25c0.104,0,0.206-0.004,0.305-0.014
				c1.187-0.112,3.394-2.295,4.288-3.229C19.918,17.128,19.96,16.93,19.897,16.752z"/>
		</g>
	</g>
	<g>
		<g>
			<path style="fill:#E6E6E6;" d="M13.999,3.493c-0.565,0-1.119,0.039-1.66,0.102c2.303,0.5,5.66,2.892,5.66,6.898v5.479
				c0,0.059-0.016,0.115-0.035,0.169c0.708,0.157,1.389,0.282,1.997,0.329c0.013,0.001,0.026,0.001,0.039,0.001
				c0.125,0,0.247-0.047,0.34-0.133c0.102-0.094,0.16-0.228,0.16-0.367v-5.479C20.499,5.964,16.205,3.493,13.999,3.493z"/>
		</g>
	</g>
	<g>
		<path style="fill:#C92828;" d="M18.384,4.243c-0.055-0.02-0.112-0.029-0.169-0.029c-0.175,0-0.343,0.092-0.434,0.251
			c-0.121,0.21-0.072,0.478,0.114,0.633c0.131,0.109,0.274,0.238,0.423,0.382c1.657,1.127,2.681,2.583,2.681,4.013v5.64
			c0,0.215-0.138,0.406-0.342,0.474l-0.158,0.053v0.14c0,0.161,0.077,0.312,0.208,0.406c0.086,0.062,0.189,0.094,0.292,0.094
			c0.053,0,0.106-0.008,0.158-0.026l2-0.667c0.204-0.068,0.342-0.259,0.342-0.474v-5.64C23.499,7.453,21.444,5.343,18.384,4.243z"/>
	</g>
	<g id="Ash_Hat">
		<g>
			<path style="fill:#31395A;" d="M4.499,15.993c-0.276,0-0.5-0.224-0.5-0.5v-6c0-0.276,0.224-0.5,0.5-0.5s0.5,0.224,0.5,0.5v6
				C4.999,15.77,4.775,15.993,4.499,15.993z"/>
		</g>
		<g>
			<path style="fill:#31395A;" d="M15.197,21.007c-1.129,0-2.38-0.476-3.697-0.976c-1.354-0.516-2.784-1.071-3.993-1.028
				c-0.662,0.01-1.791,0.277-2.881,0.535c-2.248,0.53-3.658,0.831-4.3,0.321C0.116,19.693,0,19.449,0,19.174
				c0-0.27,0-0.447,4.173-4.058c0.04-0.035,0.085-0.063,0.133-0.083c1.294-0.544,4.246-1.039,6.194-1.039
				c1.313,0,3.063,0.478,4.916,0.983c1.616,0.441,3.28,0.896,4.584,0.996v-5.479c0-4.206-3.963-6.5-6-6.5c-4.878,0-9,2.519-9,5.5
				c0,0.276-0.224,0.5-0.5,0.5S4,9.769,4,9.493c0-3.584,4.486-6.5,10-6.5c5.233,0,10,3.098,10,6.5v6
				c0,0.215-0.138,0.406-0.342,0.474l-2.874,0.958c-0.638,0.71-3.598,3.911-5.238,4.065C15.431,21.002,15.314,21.007,15.197,21.007z
				 M7.573,18.003c1.406,0,2.868,0.556,4.282,1.094c1.342,0.51,2.604,0.993,3.597,0.899c0.852-0.081,2.664-1.709,3.974-3.077
				c-1.299-0.165-2.806-0.576-4.274-0.977c-1.708-0.466-3.474-0.948-4.653-0.948c-1.939,0-4.629,0.494-5.735,0.932
				c-1.424,1.233-2.951,2.597-3.567,3.203c0.656,0.033,2.213-0.332,3.198-0.564c1.196-0.283,2.325-0.549,3.096-0.562
				C7.519,18.003,7.546,18.003,7.573,18.003z M18.215,4.714c1.568,1.307,2.784,3.3,2.784,5.779v5.306l2-0.667v-5.64
				C22.999,7.72,21.089,5.747,18.215,4.714z"/>
		</g>
		<g>
			<path style="fill:#31395A;" d="M14.499,12.993c-0.014,0-0.028,0-0.042-0.002l-6-0.5c-0.2-0.017-0.371-0.151-0.434-0.342
				c-0.063-0.19-0.005-0.4,0.146-0.533l3.296-2.884c0.591-0.518,1.49-0.488,2.048,0.068l0.338,0.339
				c0.195,0.195,0.195,0.512,0,0.707s-0.512,0.195-0.707,0l-0.338-0.338c-0.185-0.184-0.485-0.195-0.683-0.023l-2.409,2.107
				l4.825,0.402c0.275,0.022,0.479,0.264,0.457,0.54C14.976,12.796,14.757,12.993,14.499,12.993z"/>
		</g>
	</g>
</g>
</svg>
