<?xml version="1.0" encoding="iso-8859-1"?>
<!-- Generator: Adobe Illustrator 19.0.0, SVG Export Plug-In . SVG Version: 6.00 Build 0)  -->
<svg version="1.1" id="Layer_1" xmlns="http://www.w3.org/2000/svg" xmlns:xlink="http://www.w3.org/1999/xlink" x="0px" y="0px"
	 viewBox="0 0 24 24" style="enable-background:new 0 0 24 24;" xml:space="preserve">
<g>
	<g>
		<g>
			<path style="fill:#31395A;" d="M9.422,12.03c-0.002,0-0.304-0.072-0.304-0.072C9.079,11.949,9.039,11.944,9,11.944
				c-0.111,0-0.22,0.037-0.309,0.107C8.57,12.146,8.5,12.291,8.5,12.444v0.219c0,0.173,0.09,0.334,0.237,0.425
				c0.08,0.05,0.171,0.075,0.263,0.075c0.076,0,0.153-0.018,0.224-0.053l0.297-0.148c0.187-0.093,0.296-0.292,0.273-0.5
				C9.772,12.254,9.624,12.082,9.422,12.03z"/>
		</g>
		<g>
			<path style="fill:#31395A;" d="M3.91,13.626c-0.014-0.182-0.126-0.342-0.292-0.417c-0.066-0.03-0.137-0.045-0.207-0.045
				c-0.106,0-0.212,0.034-0.3,0.1l-1.15,0.863c-0.116,0.087-0.188,0.22-0.199,0.365c-0.01,0.145,0.043,0.287,0.146,0.389
				l0.593,0.592l-1.428,1.428c-0.123,0.123-0.173,0.3-0.133,0.468c0.039,0.169,0.164,0.305,0.328,0.359l1.938,0.646
				C3.258,18.392,3.311,18.4,3.364,18.4c0.095,0,0.189-0.027,0.271-0.08c0.128-0.082,0.211-0.217,0.227-0.368
				c0.056-0.531,0.123-1.013,0.13-1.062c0.103-0.72,0.103-1.45,0.004-2.136L3.91,13.626z"/>
		</g>
		<g>
			<path style="fill:#31395A;" d="M22.712,15.841L18.5,12.472l1.105-0.553c0.169-0.085,0.276-0.258,0.276-0.447
				s-0.107-0.362-0.276-0.447l-0.931-0.465c-0.07-0.035-0.146-0.053-0.224-0.053c-0.047,0-0.094,0.006-0.139,0.02l-1.451,0.42
				c-0.214,0.062-0.361,0.258-0.361,0.48v2.026c0,0.146,0.063,0.285,0.175,0.38c0.091,0.078,0.207,0.12,0.325,0.12
				c0.025,0,0.051-0.002,0.076-0.006c0.06-0.009,0.118-0.015,0.178-0.015c0.108,0,0.202,0.019,0.286,0.06
				c0.32,0.152,0.483,0.579,0.483,1.266c0,1.122-0.345,2.035-1.024,2.715c-0.07,0.071-0.162,0.14-0.271,0.206
				c-0.128,0.077-0.215,0.207-0.236,0.354L16.3,19.809c-0.025,0.166,0.034,0.332,0.158,0.444c0.093,0.084,0.213,0.13,0.336,0.13
				c0.04,0,0.081-0.005,0.121-0.015l2.98-0.745c0.147-0.037,0.27-0.138,0.333-0.276s0.061-0.297-0.007-0.433l-0.722-1.442
				l3.021-0.755c0.185-0.046,0.327-0.192,0.367-0.378C22.929,16.153,22.86,15.96,22.712,15.841z"/>
		</g>
	</g>
	<g>
		<path style="fill:#F8EEC0;" d="M9.154,23.528c-0.139,0-0.279-0.027-0.407-0.078l-4.035-1.837c-0.412-0.266-0.72-0.719-0.829-1.276
			c-0.067-0.343-0.098-0.745-0.098-1.306c0-0.68,0.204-2.125,0.206-2.14c0.103-0.721,0.103-1.451,0-2.169l-0.163-2.188
			c-0.012-0.148-0.088-0.284-0.209-0.37c-0.086-0.061-0.188-0.093-0.29-0.093c-0.031,0-0.062,0.003-0.093,0.009
			c0.15-0.04,0.301-0.081,0.452-0.123C4.592,11.71,5.434,11.481,6,11.472l0.128-0.001c0.993,0,2.163,0.285,3.196,0.536
			c1.016,0.248,1.975,0.481,2.817,0.481c0.122,0,0.241-0.005,0.356-0.016c1.005-0.095,2.977-0.933,3.778-1.289
			c0.096-0.043,0.176-0.115,0.229-0.206c0.045,0.012,0.091,0.019,0.136,0.019c0.043,0,0.087-0.006,0.13-0.019l0.021-0.006
			c-0.177,0.08-0.293,0.257-0.293,0.455v2.026c0,0.146,0.063,0.285,0.175,0.38c0.091,0.078,0.207,0.12,0.325,0.12
			c0.025,0,0.051-0.002,0.076-0.006c0.06-0.009,0.118-0.015,0.178-0.015c0.108,0,0.202,0.019,0.285,0.059
			c0.321,0.153,0.484,0.579,0.484,1.266c0,1.122-0.345,2.035-1.023,2.714c-0.071,0.072-0.163,0.141-0.272,0.207
			c-0.128,0.077-0.215,0.207-0.236,0.354l-0.42,2.804L9.499,23.47C9.387,23.509,9.271,23.528,9.154,23.528z"/>
	</g>
	<g>
		<g>
			<path style="fill:#E0D7AD;" d="M17.539,13.991c-0.083-0.04-0.177-0.059-0.285-0.059c-0.06,0-0.118,0.005-0.178,0.015
				c-0.025,0.004-0.051,0.006-0.076,0.006c-0.118,0-0.234-0.042-0.325-0.12c-0.111-0.095-0.175-0.234-0.175-0.38v-2.026
				c0-0.198,0.116-0.375,0.293-0.455l-0.021,0.006c-0.043,0.013-0.087,0.019-0.13,0.019c-0.045,0-0.091-0.007-0.136-0.019
				c-0.054,0.091-0.134,0.163-0.229,0.206c-0.438,0.194-1.225,0.531-2.013,0.813v1.457c0,0.146,0.063,0.285,0.175,0.38
				c0.091,0.078,0.207,0.12,0.325,0.12c0.025,0,0.051-0.002,0.076-0.006c0.06-0.009,0.118-0.015,0.178-0.015
				c0.108,0,0.202,0.019,0.285,0.059c0.321,0.153,0.484,0.579,0.484,1.266c0,1.122-0.345,2.035-1.023,2.714
				c-0.071,0.072-0.163,0.141-0.272,0.207c-0.128,0.077-0.215,0.207-0.236,0.354l-0.42,2.804l-5.677,1.844l0.59,0.268
				c0.128,0.051,0.269,0.078,0.407,0.078c0.117,0,0.232-0.019,0.346-0.056l6.571-2.135l0.42-2.804
				c0.021-0.147,0.108-0.277,0.236-0.354c0.109-0.066,0.201-0.135,0.272-0.207c0.679-0.679,1.023-1.592,1.023-2.714
				C18.023,14.57,17.86,14.144,17.539,13.991z"/>
		</g>
	</g>
	<g>
		<path style="fill:#FFFFFF;" d="M11,0.472c-4.486,0-7.5,2.585-7.5,5v4.245c0,0.161,0.077,0.312,0.208,0.406
			C3.794,10.185,3.896,10.217,4,10.217c0.054,0,0.107-0.009,0.16-0.026C5.22,9.834,7.051,9.472,8.5,9.472
			c1.011,0,2.378,0.352,3.827,0.725c1.368,0.351,2.585,0.649,3.631,0.736c0.015,0.001,0.028,0.002,0.042,0.002
			c0.125,0,0.246-0.047,0.339-0.132c0.103-0.095,0.161-0.229,0.161-0.368V5.472C16.5,1.731,12.723,0.472,11,0.472z"/>
	</g>
	<g>
		<path style="fill:#FF7BAC;" d="M9.5,21.472c-0.601,0-1.063-0.17-1.412-0.52C7.507,20.369,7.5,19.479,7.5,19.471l4,0.001
			c0,0.007-0.007,0.896-0.589,1.48C10.562,21.302,10.101,21.472,9.5,21.472z"/>
	</g>
	<g>
		<g>
			<path style="fill:#FFFFFF;" d="M11.5,17.472v-2c0-0.551,0.448-1,1-1s1,0.449,1,1v2H11.5z"/>
		</g>
		<g>
			<path style="fill:#FFFFFF;" d="M5.5,17.472v-2c0-0.551,0.448-1,1-1s1,0.449,1,1v2H5.5z"/>
		</g>
	</g>
	<g>
		<g>
			<path style="fill:#DF2C2C;" d="M16.38,2.117c-0.088-0.063-0.19-0.094-0.292-0.094c-0.128,0-0.256,0.049-0.353,0.145
				c-0.173,0.172-0.196,0.444-0.056,0.644c0.544,0.771,0.82,1.665,0.82,2.66v4.918c0,0.158,0.074,0.306,0.2,0.4
				c0.088,0.065,0.193,0.1,0.3,0.1c0.047,0,0.095-0.007,0.141-0.02l1-0.293c0.213-0.063,0.359-0.258,0.359-0.48V5.472
				C18.5,4.307,17.728,3.085,16.38,2.117z"/>
		</g>
		<g>
			<path style="fill:#DF2C2C;" d="M14.845,10.788c-0.804-0.151-1.675-0.375-2.525-0.594c-1.383-0.355-2.813-0.722-3.819-0.722
				c-1.6,0-3.729,0.443-4.725,0.861c0,0-0.322,0.143-0.343,0.155c-0.801,0.361-1.639,0.755-2.193,1.035
				c-0.219,0.11-0.325,0.363-0.251,0.596c0.065,0.211,0.261,0.35,0.477,0.35c0.023,0,0.047-0.001,0.07-0.005
				c0.614-0.088,1.584-0.353,2.166-0.512c0.892-0.243,1.733-0.473,2.39-0.482c1.031,0,2.147,0.271,3.233,0.535
				c1.016,0.248,1.975,0.481,2.817,0.481c0.122,0,0.241-0.005,0.358-0.016c0.508-0.048,1.327-0.292,2.436-0.728
				c0.208-0.082,0.336-0.291,0.315-0.512C15.229,11.01,15.064,10.829,14.845,10.788z"/>
		</g>
	</g>
	<g id="Ash">
		<g id="Ash_Hat_1_">
			<g>
				<path style="fill:#31395A;" d="M3.5,10.972c-0.276,0-0.5-0.224-0.5-0.5v-5c0-0.276,0.224-0.5,0.5-0.5S4,5.196,4,5.472v5
					C4,10.748,3.776,10.972,3.5,10.972z"/>
			</g>
			<g>
				<path style="fill:#31395A;" d="M18.5,5.972c-0.276,0-0.5-0.224-0.5-0.5c0-2.081-3.058-4.5-7-4.5c-4.188,0-7,2.327-7,4.5
					c0,0.276-0.224,0.5-0.5,0.5S3,5.748,3,5.472c0-2.981,3.663-5.5,8-5.5c4.579,0,8,2.904,8,5.5C19,5.748,18.776,5.972,18.5,5.972z"
					/>
			</g>
			<g>
				<path style="fill:#31395A;" d="M12.137,12.988c-0.894,0-1.887-0.242-2.931-0.496c-1.083-0.263-2.182-0.522-3.198-0.521
					c-0.503,0.008-1.354,0.24-2.179,0.465c-1.765,0.48-2.878,0.74-3.475,0.284C0.125,12.545,0,12.28,0,11.971
					c0-0.365,0-0.501,3.582-2.1c1.04-0.437,3.258-0.9,4.918-0.9c1.071,0,2.471,0.359,3.951,0.74c1.454,0.374,2.956,0.76,4.049,0.76
					c0.051,0,0.101,0.008,0.146,0.022L18,10.097V5.472c0-0.276,0.224-0.5,0.5-0.5s0.5,0.224,0.5,0.5v5
					c0,0.223-0.147,0.418-0.361,0.48l-1.81,0.524c-0.049,0.029-2.922,1.365-4.282,1.493C12.413,12.982,12.275,12.988,12.137,12.988z
					 M6.091,10.971c1.093,0,2.24,0.279,3.352,0.549c1.122,0.273,2.179,0.529,3.011,0.454c0.538-0.051,1.452-0.363,2.3-0.695
					c-0.818-0.153-1.692-0.378-2.551-0.599c-1.355-0.348-2.757-0.708-3.702-0.708c-1.518,0-3.6,0.431-4.521,0.818
					c-0.887,0.396-1.886,0.863-2.515,1.18c0.577-0.083,1.521-0.339,2.102-0.498c0.924-0.252,1.797-0.49,2.426-0.5
					C6.024,10.971,6.058,10.971,6.091,10.971z"/>
			</g>
			<g>
				<path style="fill:#31395A;" d="M16.5,11.472c-0.276,0-0.5-0.224-0.5-0.5v-5.5c0-3.367-3.434-4.5-5-4.5
					c-0.276,0-0.5-0.224-0.5-0.5s0.224-0.5,0.5-0.5c2.42,0,6,1.748,6,5.5v5.5C17,11.248,16.776,11.472,16.5,11.472z"/>
			</g>
			<g>
				<path style="fill:#31395A;" d="M11.5,7.972h-5c-0.208,0-0.395-0.129-0.468-0.323S6.013,7.235,6.169,7.097l2.62-2.311
					c0.521-0.453,1.306-0.426,1.79,0.059l0.274,0.273c0.195,0.195,0.195,0.512,0,0.707c-0.195,0.196-0.512,0.195-0.707,0.001
					L9.872,5.552C9.758,5.435,9.571,5.431,9.449,5.538L7.822,6.972H11.5c0.276,0,0.5,0.224,0.5,0.5S11.776,7.972,11.5,7.972z"/>
			</g>
		</g>
		<g>
			<path style="fill:#31395A;" d="M16.5,20.972c-0.225,0-0.429-0.151-0.485-0.379c-0.066-0.268,0.096-0.539,0.364-0.606l3.396-0.849
				l-0.722-1.442c-0.067-0.136-0.07-0.295-0.007-0.433s0.186-0.239,0.333-0.276l3.021-0.755l-4.212-3.369
				c-0.133-0.107-0.203-0.274-0.185-0.443c0.018-0.169,0.121-0.318,0.273-0.395l1.105-0.553l-1.105-0.553
				c-0.247-0.124-0.347-0.424-0.224-0.671c0.125-0.247,0.424-0.345,0.671-0.224l2,1c0.169,0.085,0.276,0.258,0.276,0.447
				s-0.107,0.362-0.276,0.447l-1.301,0.65l4.39,3.512c0.148,0.119,0.217,0.312,0.176,0.497c-0.04,0.186-0.183,0.333-0.367,0.378
				l-3.396,0.849l0.722,1.442c0.067,0.136,0.07,0.295,0.007,0.433s-0.186,0.239-0.333,0.276l-4,1
				C16.581,20.967,16.54,20.972,16.5,20.972z"/>
		</g>
		<g>
			<path style="fill:#31395A;" d="M16.5,14.472c-0.276,0-0.5-0.224-0.5-0.5v-3c0-0.276,0.224-0.5,0.5-0.5s0.5,0.224,0.5,0.5v3
				C17,14.248,16.776,14.472,16.5,14.472z"/>
		</g>
		<g>
			<path style="fill:#31395A;" d="M9.154,24.028c-0.201,0-0.403-0.038-0.593-0.114l-4.057-1.846
				c-0.599-0.378-0.98-0.962-1.112-1.635c-0.074-0.375-0.107-0.807-0.107-1.402c0-0.709,0.202-2.15,0.211-2.211
				c0.096-0.673,0.096-1.355,0-2.028l-0.209-2.783c-0.021-0.275,0.187-0.515,0.462-0.536c0.268-0.02,0.516,0.186,0.536,0.461
				l0.205,2.749c0.105,0.733,0.105,1.51-0.004,2.276c-0.002,0.013-0.201,1.431-0.201,2.07c0,0.528,0.027,0.9,0.088,1.209
				c0.079,0.402,0.307,0.758,0.609,0.953l3.972,1.802c0.109,0.043,0.253,0.046,0.388,0.003l6.281-2.04l0.383-2.56
				c0.041-0.274,0.298-0.462,0.568-0.421c0.272,0.041,0.461,0.295,0.42,0.569l-0.429,2.865c-0.027,0.188-0.159,0.343-0.34,0.402
				l-6.571,2.134C9.493,24.001,9.323,24.028,9.154,24.028z"/>
		</g>
		<g>
			<path style="fill:#31395A;" d="M16,18.972c-0.228,0-0.433-0.156-0.486-0.386c-0.063-0.268,0.104-0.537,0.372-0.601
				c0.2-0.047,0.583-0.188,0.761-0.367c0.59-0.59,0.877-1.362,0.877-2.361c0-0.568-0.124-0.779-0.198-0.814
				c-0.171-0.083-0.686,0.156-1.011,0.417c-0.216,0.175-0.529,0.139-0.703-0.075c-0.173-0.214-0.141-0.528,0.073-0.702
				c0.198-0.161,1.23-0.944,2.07-0.543c0.51,0.243,0.769,0.82,0.769,1.717c0,1.259-0.394,2.292-1.17,3.068
				c-0.438,0.438-1.16,0.615-1.24,0.634C16.075,18.968,16.037,18.972,16,18.972z"/>
		</g>
		<g>
			<path style="fill:#31395A;" d="M3.5,18.972c-0.053,0-0.105-0.008-0.158-0.026l-3-1c-0.164-0.055-0.289-0.19-0.328-0.359
				c-0.04-0.168,0.01-0.346,0.133-0.468l1.646-1.646l-0.646-0.646c-0.103-0.103-0.155-0.244-0.146-0.389
				c0.011-0.145,0.083-0.277,0.199-0.364l2-1.5c0.22-0.165,0.533-0.122,0.7,0.1c0.165,0.221,0.12,0.534-0.101,0.7L2.26,14.528
				l0.593,0.592c0.195,0.195,0.195,0.512,0,0.707l-1.428,1.428L3.657,18c0.262,0.087,0.403,0.37,0.316,0.632
				C3.904,18.84,3.709,18.972,3.5,18.972z"/>
		</g>
		<g>
			<path style="fill:#31395A;" d="M8.5,13.972c-0.092,0-0.183-0.025-0.263-0.075C8.09,13.806,8,13.645,8,13.472v-1.5
				c0-0.276,0.224-0.5,0.5-0.5s0.5,0.224,0.5,0.5v0.691l1.276-0.638c0.248-0.122,0.547-0.024,0.671,0.224
				c0.123,0.247,0.023,0.547-0.224,0.671l-2,1C8.653,13.954,8.576,13.972,8.5,13.972z"/>
		</g>
		<g>
			<path style="fill:#31395A;" d="M13.5,17.972h-2c-0.276,0-0.5-0.224-0.5-0.5v-2c0-0.827,0.673-1.5,1.5-1.5s1.5,0.673,1.5,1.5v2
				C14,17.748,13.776,17.972,13.5,17.972z M12,16.972h1v-1.5c0-0.276-0.225-0.5-0.5-0.5s-0.5,0.224-0.5,0.5V16.972z"/>
		</g>
		<g>
			<circle style="fill:#31395A;" cx="12" cy="16.472" r="0.5"/>
		</g>
		<g>
			<path style="fill:#31395A;" d="M7.5,17.972h-2c-0.276,0-0.5-0.224-0.5-0.5v-2c0-0.827,0.673-1.5,1.5-1.5s1.5,0.673,1.5,1.5v2
				C8,17.748,7.776,17.972,7.5,17.972z M6,16.972h1v-1.5c0-0.276-0.225-0.5-0.5-0.5S6,15.196,6,15.472V16.972z"/>
		</g>
		<g>
			<circle style="fill:#31395A;" cx="6" cy="16.472" r="0.5"/>
		</g>
		<g>
			<path style="fill:#31395A;" d="M9.5,21.972c-0.73,0-1.324-0.225-1.766-0.667C7.005,20.574,7,19.515,7,19.471
				c0.001-0.275,0.225-0.499,0.5-0.499h4c0.275,0,0.499,0.223,0.5,0.499c0,0.045-0.005,1.103-0.734,1.834
				C10.824,21.747,10.23,21.972,9.5,21.972z M8.075,19.972c0.13,0.445,0.481,1,1.425,1c0.461,0,0.808-0.122,1.058-0.373
				c0.187-0.187,0.294-0.421,0.356-0.627H8.075z"/>
		</g>
	</g>
</g>
</svg>
