<?xml version="1.0" encoding="iso-8859-1"?>
<!-- Generator: Adobe Illustrator 19.0.0, SVG Export Plug-In . SVG Version: 6.00 Build 0)  -->
<svg version="1.1" id="Layer_1" xmlns="http://www.w3.org/2000/svg" xmlns:xlink="http://www.w3.org/1999/xlink" x="0px" y="0px"
	 viewBox="0 0 24 24" style="enable-background:new 0 0 24 24;" xml:space="preserve">
<g>
	<g>
		<g>
			<path style="fill:#FF7BAC;" d="M9.281,20.365c-0.368-1.142-1.16-2.359-2.229-3.428c-1.504-1.504-3.298-2.438-4.683-2.438
				c-0.576,0-1.048,0.168-1.364,0.485C0.458,15.53,0.36,16.461,0.73,17.603c0.368,1.142,1.16,2.359,2.229,3.428
				c1.504,1.504,3.299,2.439,4.683,2.439c0.574,0,1.047-0.168,1.364-0.486C9.552,22.438,9.65,21.508,9.281,20.365z"/>
		</g>
	</g>
	<g>
		<g>
			<path style="fill:#FFD419;" d="M17.4,14.857c-0.438,0.052-5.579,0.741-8,4.477c-0.453-0.943-1.138-1.894-1.994-2.75
				c-0.893-0.894-1.857-1.57-2.787-2.008c3.318-2.378,4.487-7.855,4.54-8.111C9.868,3.298,12.739,1,15.99,1c3.859,0,7,3.14,7,7
				C22.99,11.312,20.64,14.194,17.4,14.857z"/>
		</g>
	</g>
	<g>
		<g>
			<path style="fill:#E6BF17;" d="M15.99,1c-0.424,0-0.841,0.043-1.248,0.118C18.005,1.711,20.49,4.568,20.49,8
				c0,3.312-2.35,6.194-5.59,6.857c-0.363,0.043-3.949,0.529-6.547,2.815c0.419,0.543,0.778,1.103,1.046,1.661
				c2.421-3.736,7.562-4.425,8-4.477C20.64,14.194,22.99,11.312,22.99,8C22.99,4.14,19.849,1,15.99,1z"/>
		</g>
	</g>
	<g>
		<g>
			<path style="fill:#C69C6D;" d="M21.109,19.38c0.594-1.188,0.689-2.535,0.27-3.794l-0.414-1.244
				c-0.046-0.138-0.149-0.249-0.283-0.304c-0.133-0.055-0.284-0.049-0.415,0.015l-2,1c-0.118,0.06-0.209,0.164-0.251,0.29
				c-0.042,0.126-0.032,0.264,0.027,0.382c0.557,1.111,0.557,2.439,0,3.553c-0.696,1.392-0.696,3.054,0,4.446
				C18.128,23.893,18.301,24,18.49,24l2-0.001c0.174,0,0.334-0.09,0.426-0.237c0.091-0.147,0.099-0.332,0.021-0.486
				c-0.557-1.112-0.557-2.439,0-3.551L21.109,19.38z"/>
		</g>
	</g>
	<g id="Bellsprout">
		<g>
			<g>
				<path style="fill:#31395A;" d="M7.64,23.974c-1.472,0-3.375-0.928-5.035-2.589l0,0l0,0c-1.123-1.124-1.958-2.412-2.352-3.628
					c-0.43-1.33-0.288-2.44,0.398-3.126c1.348-1.344,4.314-0.487,6.754,1.953c1.123,1.124,1.958,2.412,2.352,3.628
					c0.43,1.33,0.288,2.44-0.398,3.126C8.928,23.769,8.332,23.973,7.64,23.974z M2.37,14.999c-0.436,0-0.786,0.114-1.011,0.339
					c-0.401,0.401-0.457,1.171-0.153,2.112c0.345,1.068,1.093,2.214,2.106,3.228l0,0c2.148,2.148,4.538,2.754,5.34,1.953
					c0.401-0.401,0.457-1.171,0.153-2.112c-0.345-1.068-1.093-2.214-2.106-3.228C5.154,15.746,3.484,14.999,2.37,14.999z"/>
			</g>
		</g>
		<g>
			<g>
				
					<ellipse transform="matrix(0.7071 0.7071 -0.7071 0.7071 14.8967 2.0316)" style="fill:#31395A;" cx="4.996" cy="18.998" rx="3.443" ry="0.749"/>
			</g>
			<g>
				<path style="fill:#31395A;" d="M7.284,21.98c-0.953,0-2.474-1.403-3.17-2.099l0,0l0,0c-0.675-0.674-1.255-1.37-1.634-1.959
					c-0.333-0.518-0.724-1.259-0.271-1.711c0.802-0.798,2.833,1.067,3.671,1.905c0.675,0.674,1.255,1.37,1.634,1.959
					c0.333,0.518,0.724,1.259,0.271,1.711C7.649,21.922,7.478,21.98,7.284,21.98z M3.225,17.228
					c0.266,0.446,0.781,1.133,1.596,1.947l0,0c0.814,0.814,1.501,1.33,1.947,1.596c-0.266-0.446-0.781-1.133-1.596-1.947
					S3.672,17.493,3.225,17.228z"/>
			</g>
		</g>
		<g>
			<g>
				<path style="fill:#31395A;" d="M17.489,15.85c-0.232,0-0.44-0.164-0.489-0.4c-0.055-0.271,0.12-0.535,0.391-0.59
					c3.245-0.659,5.6-3.544,5.6-6.86c0-3.86-3.141-7-7-7c-3.253,0-6.126,2.301-6.832,5.471C9.099,6.74,8.837,6.91,8.562,6.85
					c-0.27-0.06-0.439-0.328-0.38-0.597C8.989,2.63,12.272,0,15.99,0c4.411,0,8,3.589,8,8c0,3.79-2.691,7.087-6.4,7.84
					C17.556,15.847,17.522,15.85,17.489,15.85z"/>
			</g>
		</g>
		<g>
			<g>
				<path style="fill:#31395A;" d="M3.506,15.172c-0.186,0-0.364-0.104-0.45-0.283c-0.12-0.249-0.016-0.548,0.233-0.667
					c3.572-1.724,4.878-7.896,4.891-7.958c0.056-0.271,0.326-0.441,0.591-0.389c0.271,0.056,0.444,0.32,0.39,0.59
					c-0.057,0.273-1.424,6.722-5.438,8.658C3.653,15.156,3.579,15.172,3.506,15.172z"/>
			</g>
		</g>
		<g>
			<g>
				<path style="fill:#31395A;" d="M9.322,20.998c-0.069,0-0.14-0.014-0.207-0.045c-0.251-0.114-0.362-0.411-0.248-0.662
					c2.127-4.673,8.306-5.409,8.568-5.438c0.265-0.032,0.521,0.167,0.552,0.441c0.03,0.274-0.167,0.521-0.441,0.553
					c-0.059,0.006-5.879,0.707-7.769,4.858C9.693,20.889,9.511,20.998,9.322,20.998z"/>
			</g>
		</g>
		<g>
			<g>
				<circle style="fill:#31395A;" cx="11.49" cy="7.5" r="1"/>
			</g>
		</g>
		<g>
			<g>
				<circle style="fill:#31395A;" cx="16.49" cy="8.5" r="1"/>
			</g>
		</g>
		<g>
			<g>
				<path style="fill:#31395A;" d="M20.49,23.999c-0.183,0-0.359-0.101-0.447-0.276c-0.696-1.392-0.696-3.054,0-4.445l0.172-0.344
					c0.475-0.949,0.551-2.025,0.215-3.031l-0.414-1.244c-0.087-0.262,0.055-0.545,0.316-0.632c0.262-0.085,0.545,0.054,0.633,0.317
					l0.414,1.244c0.42,1.259,0.324,2.606-0.27,3.794l-0.172,0.344c-0.557,1.112-0.557,2.439,0,3.551
					c0.123,0.247,0.023,0.547-0.224,0.671C20.642,23.982,20.565,23.999,20.49,23.999z"/>
			</g>
		</g>
		<g>
			<g>
				<path style="fill:#31395A;" d="M18.49,23.999c-0.183,0-0.359-0.101-0.447-0.276c-0.696-1.392-0.696-3.054,0-4.445
					c0.557-1.113,0.557-2.441,0-3.553l0.895-0.448c0.696,1.393,0.696,3.055,0,4.446c-0.557,1.113-0.557,2.441,0,3.553
					c0.123,0.247,0.023,0.547-0.224,0.671C18.642,23.982,18.565,23.999,18.49,23.999z"/>
			</g>
		</g>
	</g>
</g>
</svg>
