<?xml version="1.0" encoding="iso-8859-1"?>
<!-- Generator: Adobe Illustrator 19.0.0, SVG Export Plug-In . SVG Version: 6.00 Build 0)  -->
<svg version="1.1" id="Layer_1" xmlns="http://www.w3.org/2000/svg" xmlns:xlink="http://www.w3.org/1999/xlink" x="0px" y="0px"
	 viewBox="0 0 24 24" style="enable-background:new 0 0 24 24;" xml:space="preserve">
<g>
	<g>
		<g>
			<path style="fill:#6E9BBC;" d="M16.501,19.498c-0.685,0-1.397-0.153-2.121-0.455c-0.762-0.318-1.56-0.479-2.371-0.479
				s-1.607,0.161-2.367,0.478c-0.724,0.302-1.444,0.456-2.141,0.456c-2.445,0-4.693-3.947-4.716-3.987
				c-0.472,0.411-0.889,0.875-1.241,1.38c-0.095,0.135-0.249,0.213-0.41,0.213c-0.032,0-0.065-0.003-0.098-0.01
				c-0.195-0.039-0.349-0.189-0.391-0.383C0.547,16.268,0.5,15.872,0.5,15.501c0-2.335,0.563-5.118,1.586-7.835
				C0.852,4.993,0.578,2.158,0.519,1.062c-0.008-0.145,0.047-0.285,0.15-0.386c0.094-0.091,0.219-0.142,0.349-0.142
				c0.014,0,0.027,0,0.042,0.002c0.964,0.081,2.839,0.322,4.569,1.033C6.328,0.86,6.957,0.501,7.5,0.501
				c1.883,0,4.235,1.793,4.498,1.998c0.267-0.205,2.619-1.998,4.502-1.998c0.543,0,1.172,0.359,1.871,1.068
				c1.724-0.709,3.603-0.951,4.569-1.032c0.014-0.001,0.028-0.002,0.042-0.002c0.13,0,0.255,0.05,0.349,0.141
				c0.104,0.101,0.158,0.242,0.15,0.386c-0.06,1.095-0.333,3.93-1.567,6.603c1.022,2.718,1.586,5.5,1.586,7.835
				c0,0.371-0.047,0.767-0.145,1.21c-0.042,0.194-0.195,0.345-0.391,0.383c-0.032,0.007-0.065,0.01-0.098,0.01
				c-0.161,0-0.315-0.078-0.41-0.214c-0.354-0.507-0.775-0.975-1.252-1.39C21.184,15.542,18.967,19.498,16.501,19.498z"/>
		</g>
	</g>
	<g>
		<g>
			<path style="fill:#F4B186;" d="M12.001,23.501c-4.943,0-9.321-2.187-10.895-5.442c-0.068-0.142-0.066-0.307,0.006-0.447
				c0.316-0.614,0.724-1.175,1.212-1.669c0.094-0.095,0.223-0.148,0.355-0.148c0.017,0,0.034,0.001,0.051,0.002
				c0.15,0.016,0.286,0.098,0.368,0.225c0.68,1.045,2.467,3.476,4.402,3.476c0.697,0,1.417-0.153,2.141-0.456
				c0.76-0.317,1.557-0.478,2.368-0.478c0.813,0,1.609,0.161,2.37,0.479c0.724,0.302,1.438,0.455,2.121,0.455
				c1.951,0,3.722-2.434,4.393-3.48c0.082-0.127,0.218-0.211,0.368-0.227c0.018-0.002,0.035-0.003,0.053-0.003
				c0.133,0,0.261,0.053,0.355,0.148c0.489,0.495,0.9,1.059,1.22,1.677c0.072,0.14,0.074,0.306,0.006,0.447
				C21.322,21.314,16.943,23.501,12.001,23.501z"/>
		</g>
	</g>
	<g>
		<g>
			<path style="fill:#638CAA;" d="M21.915,7.666c1.234-2.673,1.508-5.508,1.567-6.603c0.008-0.145-0.047-0.285-0.15-0.386
				c-0.094-0.091-0.219-0.141-0.349-0.141c-0.014,0-0.028,0-0.042,0.002c-0.394,0.033-0.943,0.095-1.567,0.203
				c0.07,0.094,0.115,0.204,0.108,0.323c-0.06,1.095-0.333,3.93-1.567,6.603c1.022,2.718,1.586,5.5,1.586,7.835
				c0,0.088-0.012,0.182-0.017,0.273c0.36,0.346,0.693,0.715,0.974,1.117c0.095,0.136,0.249,0.214,0.41,0.214
				c0.032,0,0.065-0.003,0.098-0.01c0.195-0.039,0.349-0.189,0.391-0.383c0.098-0.443,0.145-0.839,0.145-1.21
				C23.501,13.166,22.938,10.383,21.915,7.666z"/>
		</g>
	</g>
	<g>
		<g>
			<path style="fill:#DCA079;" d="M22.89,17.612c-0.319-0.618-0.73-1.183-1.22-1.677c-0.095-0.095-0.223-0.148-0.355-0.148
				c-0.018,0-0.035,0.001-0.053,0.003c-0.15,0.016-0.286,0.1-0.368,0.227c-0.133,0.207-0.31,0.47-0.522,0.756
				c0.191,0.267,0.367,0.546,0.518,0.839c0.072,0.14,0.074,0.306,0.006,0.447c-1.466,3.033-5.37,5.137-9.895,5.409
				c0.331,0.02,0.664,0.032,1,0.032c4.942,0,9.321-2.187,10.895-5.441C22.964,17.918,22.962,17.752,22.89,17.612z"/>
		</g>
	</g>
	<g>
		<g>
			<g>
				<path style="fill:#FFFFFF;" d="M8.797,9.115C8.709,9.05,8.604,9.016,8.498,9.016c-0.075,0-0.15,0.017-0.221,0.051
					C8.109,9.15,8.001,9.32,7.998,9.507C7.997,9.579,7.972,9.655,7.917,9.746c-0.091,0.155-0.093,0.346-0.004,0.502
					C8.002,10.404,8.168,10.5,8.348,10.5h0.781c0.213,0,0.402-0.134,0.472-0.335s0.006-0.424-0.16-0.556
					C9.223,9.437,9.008,9.272,8.797,9.115z"/>
			</g>
		</g>
		<g>
			<g>
				<path style="fill:#FFFFFF;" d="M5.737,7.466c-0.052,0-0.19,0.02-0.24,0.036C5.45,7.517,5.406,7.539,5.366,7.567
					c-0.45,0.311-0.694,1.615-0.8,2.364c-0.021,0.144,0.022,0.289,0.118,0.398c0.095,0.109,0.232,0.172,0.377,0.172h1.593
					c0.18,0,0.346-0.097,0.435-0.253S7.176,9.9,7.084,9.746C7.027,9.65,7.001,9.573,7.001,9.501c0-0.202,0.122-0.383,0.311-0.46
					C7.487,8.969,7.605,8.805,7.62,8.617c0.015-0.188-0.077-0.368-0.238-0.466C6.372,7.537,5.96,7.466,5.737,7.466z"/>
			</g>
		</g>
		<g>
			<g>
				<path style="fill:#FFFFFF;" d="M18.609,7.554c-0.04-0.027-0.083-0.047-0.129-0.062c-0.049-0.015-0.184-0.034-0.234-0.034
					c-0.222,0-0.633,0.072-1.639,0.692c-0.16,0.099-0.252,0.28-0.235,0.468c0.016,0.188,0.137,0.351,0.313,0.421
					c0.192,0.077,0.316,0.258,0.316,0.461c0,0.071-0.026,0.149-0.083,0.245c-0.092,0.154-0.094,0.346-0.005,0.502
					s0.255,0.253,0.435,0.253h1.593c0.145,0,0.282-0.063,0.377-0.172c0.096-0.109,0.139-0.254,0.118-0.398
					C19.329,9.179,19.081,7.87,18.609,7.554z"/>
			</g>
		</g>
		<g>
			<g>
				<path style="fill:#FFFFFF;" d="M16.004,9.509c-0.002-0.188-0.109-0.36-0.279-0.443c-0.069-0.035-0.146-0.052-0.221-0.052
					c-0.106,0-0.212,0.034-0.3,0.1c-0.211,0.158-0.426,0.323-0.643,0.496c-0.166,0.132-0.23,0.355-0.16,0.556
					c0.07,0.201,0.259,0.335,0.472,0.335h0.781c0.18,0,0.346-0.096,0.435-0.252s0.087-0.348-0.004-0.502
					C16.03,9.654,16.005,9.579,16.004,9.509z"/>
			</g>
		</g>
	</g>
	<g id="Blastoise">
		<g>
			<g>
				<path style="fill:#31395A;" d="M20.783,5.615c-0.174,0-0.342-0.091-0.435-0.252c-0.004-0.007-0.007-0.014-0.011-0.021
					c-0.345-0.672-0.709-1.298-1.083-1.859c-0.071-0.104-0.104-0.232-0.084-0.361c0.027-0.182,0.151-0.335,0.325-0.396
					c0.53-0.189,1.113-0.346,1.732-0.467c0.165-0.031,0.324,0.019,0.442,0.13c0.117,0.113,0.172,0.275,0.147,0.436
					c-0.127,0.832-0.31,1.635-0.545,2.388c-0.028,0.141-0.116,0.269-0.252,0.342C20.945,5.595,20.864,5.615,20.783,5.615z
					 M20.437,3.474c0.062,0.101,0.124,0.204,0.185,0.308c0.028-0.125,0.056-0.252,0.081-0.38
					C20.612,3.425,20.523,3.449,20.437,3.474z"/>
			</g>
		</g>
		<g>
			<g>
				<path style="fill:#31395A;" d="M3.219,5.615c-0.062,0-0.123-0.011-0.184-0.035C2.875,5.517,2.764,5.379,2.73,5.221
					C2.494,4.464,2.31,3.658,2.183,2.825C2.159,2.664,2.213,2.502,2.33,2.389c0.118-0.112,0.278-0.161,0.442-0.13
					C3.391,2.38,3.974,2.536,4.504,2.726C4.678,2.788,4.803,2.94,4.83,3.122c0.021,0.135-0.015,0.27-0.095,0.375
					c-0.37,0.558-0.731,1.178-1.073,1.846C3.576,5.514,3.401,5.615,3.219,5.615z M3.3,3.402c0.025,0.128,0.053,0.254,0.08,0.38
					c0.062-0.104,0.124-0.207,0.186-0.308C3.479,3.449,3.39,3.425,3.3,3.402z"/>
			</g>
		</g>
		<g>
			<g>
				<path style="fill:#31395A;" d="M12.001,24.001c-6.617,0-12-3.813-12-8.5c0-2.338,0.548-5.106,1.546-7.817
					C-0.004,4.199,0,0.65,0.001,0.497c0.001-0.134,0.056-0.263,0.152-0.356C0.25,0.047,0.374-0.002,0.514,0
					c0.109,0.003,2.611,0.082,4.999,0.985C6.22,0.331,6.887,0,7.5,0c1.716,0,3.736,1.326,4.5,1.876C12.764,1.326,14.784,0,16.5,0
					c0.613,0,1.28,0.331,1.987,0.985c2.388-0.903,4.89-0.981,4.999-0.985c0.134-0.002,0.264,0.047,0.361,0.141
					c0.097,0.093,0.151,0.222,0.152,0.356C24,0.649,24.004,4.199,22.453,7.684c0.998,2.71,1.546,5.479,1.546,7.817
					C24.001,20.188,18.618,24.001,12.001,24.001z M1.019,1.035C1.081,2.158,1.351,4.88,2.541,7.456
					c0.056,0.122,0.061,0.26,0.014,0.386c-1.002,2.663-1.554,5.382-1.554,7.659c0,4.136,4.935,7.5,11,7.5s11-3.364,11-7.5
					c0-2.277-0.552-4.997-1.554-7.659c-0.047-0.125-0.042-0.264,0.014-0.386c1.19-2.577,1.461-5.298,1.522-6.421
					c-0.889,0.075-2.742,0.306-4.421,0.997c-0.188,0.076-0.403,0.034-0.547-0.111c-0.584-0.593-1.122-0.919-1.515-0.919
					c-1.77,0-4.166,1.874-4.19,1.893c-0.182,0.143-0.438,0.143-0.619,0c-0.024-0.019-2.421-1.893-4.19-1.893
					c-0.393,0-0.931,0.327-1.515,0.919c-0.145,0.145-0.36,0.188-0.547,0.111C3.756,1.34,1.906,1.109,1.019,1.035z"/>
			</g>
		</g>
		<g>
			<g>
				<path style="fill:#31395A;" d="M16.501,19.998c-0.75,0-1.528-0.166-2.313-0.494c-1.403-0.586-2.948-0.587-4.354,0
					c-0.785,0.328-1.57,0.494-2.333,0.494c-2.172,0-4.076-2.556-4.821-3.703c-0.535,0.542-0.949,1.125-1.234,1.738
					c-0.116,0.251-0.415,0.355-0.664,0.243c-0.25-0.117-0.358-0.414-0.242-0.665c0.417-0.897,1.063-1.73,1.917-2.477
					c0.113-0.099,0.267-0.142,0.414-0.116c0.148,0.025,0.277,0.117,0.351,0.248c0.584,1.038,2.49,3.732,4.28,3.732
					c0.63,0,1.285-0.14,1.948-0.417c1.65-0.689,3.471-0.689,5.123,0c0.662,0.276,1.312,0.417,1.929,0.417
					c1.805,0,3.692-2.699,4.268-3.738c0.073-0.132,0.202-0.224,0.351-0.25c0.149-0.028,0.301,0.016,0.415,0.115
					c0.861,0.75,1.51,1.586,1.928,2.487c0.116,0.25,0.008,0.548-0.243,0.664c-0.248,0.117-0.548,0.008-0.663-0.243
					c-0.286-0.615-0.702-1.2-1.241-1.744C20.576,17.439,18.689,19.998,16.501,19.998z"/>
			</g>
		</g>
		<g>
			<g>
				<path style="fill:#31395A;" d="M6.508,14.004c-0.202,0-0.393-0.123-0.468-0.324c-0.098-0.258,0.033-0.546,0.291-0.644
					c3.589-1.354,8.255-1.355,11.846-0.002c0.259,0.097,0.39,0.386,0.292,0.644c-0.097,0.258-0.388,0.389-0.644,0.292
					c-3.37-1.269-7.776-1.267-11.141,0.002C6.626,13.994,6.566,14.004,6.508,14.004z"/>
			</g>
		</g>
		<g>
			<g>
				<path style="fill:#31395A;" d="M10.501,16.001c-0.04,0-0.08-0.005-0.121-0.015l-2-0.5c-0.269-0.067-0.431-0.338-0.364-0.606
					c0.066-0.269,0.335-0.432,0.606-0.364l2,0.5c0.269,0.067,0.431,0.338,0.364,0.606C10.93,15.85,10.726,16.001,10.501,16.001z"/>
			</g>
		</g>
		<g>
			<g>
				<path style="fill:#31395A;" d="M13.501,16.001c-0.225,0-0.429-0.151-0.485-0.379c-0.066-0.268,0.096-0.539,0.364-0.606l2-0.5
					c0.265-0.069,0.539,0.095,0.606,0.364c0.066,0.268-0.096,0.539-0.364,0.606l-2,0.5C13.582,15.996,13.541,16.001,13.501,16.001z"
					/>
			</g>
		</g>
		<g>
			<g>
				<path style="fill:#31395A;" d="M10.501,11.001h-6c-0.141,0-0.274-0.059-0.369-0.163s-0.142-0.242-0.129-0.381
					c0.103-1.157,0.414-3.141,1.349-3.433c1.366-0.431,4.538,2.268,5.481,3.103c0.155,0.138,0.209,0.357,0.136,0.551
					C10.895,10.873,10.709,11.001,10.501,11.001z M5.062,10.001h4.067C7.547,8.74,6.046,7.851,5.65,7.978
					C5.46,8.11,5.201,9.01,5.062,10.001z"/>
			</g>
		</g>
		<g>
			<g>
				<path style="fill:#31395A;" d="M19.501,11.001h-6c-0.208,0-0.394-0.128-0.468-0.323c-0.073-0.194-0.02-0.414,0.136-0.551
					c0.942-0.835,4.108-3.535,5.481-3.103c0.935,0.292,1.246,2.276,1.349,3.433c0.013,0.14-0.034,0.278-0.129,0.381
					S19.642,11.001,19.501,11.001z M14.873,10.001h4.067c-0.14-0.991-0.401-1.893-0.609-2.032
					C17.934,7.844,16.451,8.742,14.873,10.001z"/>
			</g>
		</g>
		<g>
			<g>
				<circle style="fill:#31395A;" cx="7.501" cy="9.501" r="1"/>
			</g>
		</g>
		<g>
			<g>
				<circle style="fill:#31395A;" cx="16.501" cy="9.501" r="1"/>
			</g>
		</g>
	</g>
</g>
</svg>
