<?xml version="1.0" encoding="iso-8859-1"?>
<!-- Generator: Adobe Illustrator 19.0.0, SVG Export Plug-In . SVG Version: 6.00 Build 0)  -->
<svg version="1.1" id="Layer_1" xmlns="http://www.w3.org/2000/svg" xmlns:xlink="http://www.w3.org/1999/xlink" x="0px" y="0px"
	 viewBox="0 0 24 24" style="enable-background:new 0 0 24 24;" xml:space="preserve">
<g>
	<g>
		<path style="fill:#DF2C2C;" d="M12.001,23.5c-1.379,0-4.265-2.068-6.316-3.84c-0.092-0.079-0.208-0.122-0.327-0.122
			c-0.032,0-0.065,0.003-0.098,0.01L0.501,20.5l2.684-3.577c0.082-0.11,0.115-0.249,0.093-0.385
			c-0.023-0.135-0.102-0.255-0.216-0.332L0.501,14.5l1.745-1.745c0.152-0.152,0.19-0.385,0.094-0.577L0.501,8.5l3.173,0.828
			C3.716,9.339,3.758,9.344,3.8,9.344c0.151,0,0.297-0.069,0.394-0.191c0.123-0.156,0.141-0.371,0.047-0.546L1.608,3.731
			c-0.591-1.169-1.106-2.19-1.106-3.229L9.537,9.71c0.724,0.569,1.574,0.857,2.445,0.857c0.896,0,1.778-0.304,2.484-0.857
			l9.036-9.208c-0.001,1.012-0.641,2.361-1.267,3.547l-2.464,4.557c-0.095,0.175-0.077,0.39,0.046,0.546
			c0.097,0.123,0.242,0.191,0.394,0.191c0.042,0,0.084-0.005,0.126-0.016l3.164-0.826l-2.684,3.577
			c-0.082,0.11-0.115,0.249-0.093,0.385c0.023,0.135,0.102,0.255,0.216,0.332l2.561,1.707l-3.38,1.69
			c-0.144,0.072-0.244,0.208-0.27,0.367c-0.026,0.159,0.026,0.32,0.14,0.434l3.51,3.509l-4.766-0.953
			c-0.032-0.006-0.065-0.01-0.098-0.01c-0.115,0-0.228,0.04-0.318,0.114C16.17,21.427,13.225,23.5,12.001,23.5z"/>
	</g>
	<g>
		<g>
			<path style="fill:#FFFFFF;" d="M6.567,12.917c-0.088-0.162-0.258-0.262-0.44-0.262c-0.014,0-0.028,0-0.043,0.002
				c-0.198,0.017-0.367,0.15-0.431,0.339C5.51,13.419,5.18,14.462,5.192,15.01c0.006,0.272,0.228,0.49,0.5,0.49h1.431
				c0.176,0,0.339-0.093,0.43-0.244c0.09-0.151,0.094-0.339,0.011-0.494L6.567,12.917z"/>
		</g>
		<g>
			<path style="fill:#FFFFFF;" d="M18.351,12.999c-0.063-0.188-0.232-0.322-0.431-0.339c-0.015-0.001-0.028-0.002-0.043-0.002
				c-0.183,0-0.352,0.1-0.439,0.262l-0.997,1.842c-0.084,0.155-0.08,0.342,0.01,0.494c0.091,0.151,0.254,0.244,0.43,0.244h1.431
				c0.272,0,0.494-0.218,0.5-0.49C18.822,14.464,18.493,13.421,18.351,12.999z"/>
		</g>
	</g>
	<g>
		<g>
			<path style="fill:#C92828;" d="M2.143,4.722l4.893,4.986c0.724,0.569,1.574,0.857,2.445,0.857c0.428,0,0.852-0.074,1.256-0.207
				c-0.424-0.143-0.83-0.359-1.202-0.651L0.5,0.499c0,1.039,0.516,2.06,1.106,3.229L2.143,4.722z"/>
		</g>
		<g>
			<path style="fill:#C92828;" d="M23.501,8.5l-3.109,0.811l-2.075,2.765c-0.082,0.11-0.115,0.249-0.093,0.385
				c0.023,0.135,0.102,0.255,0.216,0.332l2.561,1.707l-3.38,1.69c-0.144,0.072-0.244,0.208-0.27,0.367
				c-0.026,0.159,0.026,0.32,0.14,0.434l2.885,2.884l3.125,0.625l-3.51-3.509c-0.113-0.114-0.166-0.275-0.14-0.434
				c0.025-0.159,0.126-0.295,0.27-0.367l3.38-1.69l-2.561-1.707c-0.114-0.076-0.192-0.196-0.216-0.332
				c-0.022-0.136,0.011-0.274,0.093-0.385L23.501,8.5z"/>
		</g>
		<g>
			<path style="fill:#C92828;" d="M0.876,9.25l0.298,0.078C1.216,9.339,1.258,9.344,1.3,9.344c0.151,0,0.297-0.069,0.394-0.191
				C1.767,9.061,1.79,8.949,1.788,8.836L0.501,8.5L0.876,9.25z"/>
		</g>
	</g>
	<g id="Blaziken">
		<g>
			<path style="fill:#31395A;" d="M12.001,24c-1.926,0-5.677-3.127-6.644-3.961l-4.759,0.952c-0.199,0.043-0.41-0.049-0.521-0.224
				c-0.11-0.175-0.102-0.401,0.022-0.566l2.684-3.577l-2.561-1.707c-0.125-0.083-0.205-0.218-0.221-0.367
				c-0.015-0.149,0.038-0.297,0.145-0.403l1.745-1.745L0.052,8.724c-0.088-0.175-0.064-0.386,0.059-0.539
				c0.124-0.152,0.323-0.219,0.515-0.169l4.266,1.113c0.268,0.07,0.428,0.343,0.357,0.61c-0.069,0.267-0.338,0.426-0.609,0.358
				L1.441,9.262l1.507,3.015c0.097,0.192,0.059,0.425-0.094,0.577l-1.568,1.569l2.492,1.662c0.114,0.076,0.192,0.196,0.216,0.332
				c0.022,0.136-0.011,0.274-0.093,0.384l-2.215,2.953l3.717-0.743c0.153-0.031,0.312,0.013,0.429,0.115
				c1.698,1.498,4.875,3.875,6.169,3.875c1.137,0,4.393-2.381,6.178-3.883c0.117-0.098,0.271-0.136,0.42-0.107l3.381,0.676
				l-2.832-2.833c-0.113-0.114-0.166-0.275-0.14-0.434c0.025-0.159,0.126-0.295,0.27-0.367l3.229-1.615l-2.283-1.522
				c-0.114-0.076-0.192-0.196-0.216-0.332c-0.022-0.136,0.011-0.274,0.093-0.384l2.142-2.855l-2.875,0.75
				c-0.271,0.07-0.54-0.091-0.609-0.357c-0.07-0.268,0.09-0.541,0.357-0.61l4.26-1.111c0.207-0.052,0.423,0.029,0.541,0.205
				c0.118,0.177,0.112,0.409-0.015,0.579l-2.684,3.577l2.561,1.707c0.148,0.099,0.232,0.269,0.222,0.447
				c-0.011,0.178-0.116,0.336-0.275,0.416l-3.38,1.69l3.51,3.509c0.156,0.156,0.191,0.395,0.087,0.589
				c-0.104,0.194-0.325,0.302-0.538,0.254l-4.766-0.953C17.646,20.856,13.727,24,12.001,24z"/>
		</g>
		<g>
			<path style="fill:#31395A;" d="M15.501,17c-0.081,0-0.162-0.02-0.238-0.06c-0.242-0.131-0.333-0.435-0.201-0.678l6.734-12.453
				c0.272-0.517,0.565-1.1,0.794-1.667l-7.768,7.916c-1.681,1.323-3.963,1.323-5.595,0.043L1.391,2.12
				c0.182,0.433,0.413,0.892,0.668,1.396l0.154,0.306L8.94,16.261c0.132,0.243,0.041,0.546-0.201,0.678
				c-0.243,0.129-0.547,0.042-0.678-0.202L1.166,3.967C0.54,2.728,0,1.658,0,0.5c0-0.203,0.123-0.386,0.311-0.463
				C0.5-0.04,0.714,0.005,0.857,0.15l9.035,9.208c1.223,0.951,2.996,0.95,4.265-0.043l8.987-9.165
				c0.142-0.145,0.357-0.19,0.546-0.113c0.188,0.077,0.311,0.26,0.311,0.463c0,1.122-0.669,2.541-1.323,3.781l-6.737,12.457
				C15.851,16.905,15.679,17,15.501,17z"/>
		</g>
		<g>
			<path style="fill:#31395A;" d="M7.954,16H5.501c-0.26,0-0.49-0.122-0.633-0.334c-0.481-0.718,0.235-2.746,0.705-3.891
				c0.106-0.255,0.401-0.376,0.652-0.272c0.256,0.105,0.378,0.397,0.273,0.652C6.026,13.304,5.682,14.537,5.691,15h2.262
				c0.276,0,0.5,0.224,0.5,0.5S8.23,16,7.954,16z"/>
		</g>
		<g>
			<path style="fill:#31395A;" d="M18.502,16h-2.453c-0.276,0-0.5-0.224-0.5-0.5s0.224-0.5,0.5-0.5h2.262
				c0.01-0.464-0.334-1.697-0.807-2.845c-0.104-0.255,0.018-0.547,0.272-0.652c0.258-0.103,0.548,0.017,0.653,0.272
				c0.47,1.145,1.187,3.172,0.705,3.891C18.992,15.878,18.762,16,18.502,16z"/>
		</g>
		<g>
			<path style="fill:#31395A;" d="M10.501,21c-0.128,0-0.256-0.049-0.354-0.146l-1-1c-0.195-0.195-0.195-0.512,0-0.707
				s0.512-0.195,0.707,0l1,1c0.195,0.195,0.195,0.512,0,0.707C10.757,20.951,10.629,21,10.501,21z"/>
		</g>
		<g>
			<path style="fill:#31395A;" d="M13.501,21c-0.128,0-0.256-0.049-0.354-0.146c-0.195-0.195-0.195-0.512,0-0.707l1-1
				c0.195-0.195,0.512-0.195,0.707,0s0.195,0.512,0,0.707l-1,1C13.757,20.951,13.629,21,13.501,21z"/>
		</g>
	</g>
</g>
</svg>
