<?xml version="1.0" encoding="iso-8859-1"?>
<!-- Generator: Adobe Illustrator 19.0.0, SVG Export Plug-In . SVG Version: 6.00 Build 0)  -->
<svg version="1.1" id="Layer_1" xmlns="http://www.w3.org/2000/svg" xmlns:xlink="http://www.w3.org/1999/xlink" x="0px" y="0px"
	 viewBox="0 0 24 24" style="enable-background:new 0 0 24 24;" xml:space="preserve">
<g>
	<g>
		<path style="fill:#A3D7D5;" d="M18.336,14.358l-0.188-0.517c0.515-1.859,0.206-3.576-0.023-4.433
			c-0.06-0.221-0.26-0.371-0.483-0.371c-0.022,0-0.045,0.001-0.068,0.005c-0.653,0.09-1.882,0.366-2.77,1.197
			c-0.9-0.482-1.843-0.727-2.803-0.727c-0.962,0-1.906,0.246-2.806,0.73c-0.887-0.832-2.114-1.109-2.768-1.2
			C6.404,9.039,6.38,9.037,6.358,9.037c-0.224,0-0.423,0.149-0.482,0.37c-0.227,0.837-0.534,2.507-0.062,4.287
			c0.009,0.034,0.029,0.059,0.046,0.09l-0.161,0.479C5.34,15.326,5,16.329,5,17.499c0,3.701,2.683,6,7,6s7-2.299,7-6
			C19,16.365,18.678,15.392,18.336,14.358z"/>
	</g>
	<g>
		<g>
			<path style="fill:#93C2C0;" d="M18.336,14.358l-0.188-0.517c0.515-1.859,0.206-3.576-0.023-4.433
				c-0.06-0.221-0.26-0.371-0.483-0.371c-0.022,0-0.045,0.001-0.068,0.005c-0.358,0.049-0.89,0.166-1.443,0.388
				c0.229,0.864,0.529,2.566,0.018,4.411l0.188,0.517c0.342,1.034,0.664,2.007,0.664,3.142c0,3.405-2.275,5.618-6,5.951
				c0.324,0.029,0.655,0.049,1,0.049c4.317,0,7-2.299,7-6C19,16.365,18.678,15.392,18.336,14.358z"/>
		</g>
	</g>
	<g>
		<path style="fill:#FFFFFF;" d="M8.018,16.869c-0.253-0.004-0.462-0.197-0.488-0.448c-0.017-0.156-0.029-0.286-0.029-0.42
			c0-1.297,0.862-2.408,1.422-2.494c0.025-0.004,0.051-0.006,0.076-0.006c0.015,0,0.029,0,0.045,0.002
			c0.573,0.051,1.457,1.147,1.457,2.498c0,0.134-0.013,0.266-0.026,0.397c-0.026,0.251-0.237,0.456-0.49,0.46
			c-0.003,0-0.006,0-0.009,0c-0.249,0-0.462-0.172-0.496-0.42C9.445,16.185,9.244,16,9.001,16s-0.443,0.184-0.479,0.438
			c-0.034,0.248-0.246,0.431-0.495,0.431C8.023,16.869,8.021,16.869,8.018,16.869z"/>
	</g>
	<g>
		<path style="fill:#72B254;" d="M19.292,7.451c-1.415-1.507-2.879-3.064-3.217-5.056c-0.03-0.177-0.153-0.325-0.322-0.386
			c-0.056-0.021-0.113-0.03-0.171-0.03c-0.116,0-0.231,0.041-0.323,0.119c-0.362,0.307-0.902,0.788-1.438,1.345
			c0.014-0.014,0.025-0.028,0.039-0.042c0.093-0.096,0.144-0.277,0.141-0.411c-0.014-0.636-1.276-1.838-1.663-2.192
			c-0.095-0.087-0.216-0.131-0.337-0.131s-0.242,0.044-0.338,0.131c-0.386,0.354-1.648,1.557-1.662,2.268
			c0,0.129,0.05,0.254,0.141,0.347c0.007,0.008,0.013,0.015,0.021,0.022c-0.53-0.551-1.062-1.028-1.42-1.334
			c-0.093-0.079-0.208-0.12-0.325-0.12c-0.057,0-0.114,0.01-0.17,0.03C8.079,2.072,7.956,2.219,7.926,2.396
			c-0.341,1.959-1.795,3.512-3.2,5.014c-1.831,1.956-3.724,3.979-3.724,7.091c0,5.682,3.535,7.733,5.643,8.45
			c0.053,0.018,0.107,0.027,0.161,0.027c0.181,0,0.353-0.098,0.441-0.265c0.115-0.216,0.057-0.484-0.138-0.632
			c-1.379-1.055-2.107-2.638-2.107-4.58c0-1.171,0.355-2.223,0.701-3.244l0.099-0.293c0.031-0.092,0.035-0.192,0.01-0.286
			c-0.629-2.393,0.157-4.587,0.192-4.676c0.017,0,1.714,0.063,2.956,1.039c0.089,0.071,0.198,0.107,0.309,0.107
			c0.073,0,0.147-0.016,0.216-0.049c0.652-0.312,1.346-0.5,2.06-0.56c0.259-0.021,0.458-0.238,0.458-0.498
			c0,0.26,0.199,0.477,0.459,0.499c0.712,0.058,1.404,0.246,2.058,0.557c0.068,0.032,0.142,0.048,0.215,0.048
			c0.11,0,0.219-0.036,0.309-0.107c1.227-0.963,2.892-1.034,2.959-1.039c0.034,0.092,0.818,2.281,0.194,4.668
			c-0.024,0.093-0.021,0.191,0.008,0.282l0.136,0.412c0.326,0.985,0.663,2.005,0.663,3.141c0,1.942-0.729,3.525-2.107,4.58
			c-0.194,0.148-0.253,0.417-0.138,0.632c0.089,0.167,0.261,0.265,0.441,0.265c0.054,0,0.108-0.009,0.161-0.027
			c2.107-0.717,5.643-2.769,5.643-8.45C23,11.397,21.115,9.392,19.292,7.451z"/>
	</g>
	<g>
		<path style="fill:#72B254;" d="M19.292,7.451c-1.415-1.507-2.879-3.064-3.217-5.056c-0.03-0.177-0.153-0.325-0.322-0.386
			c-0.056-0.021-0.113-0.03-0.171-0.03c-0.116,0-0.231,0.041-0.323,0.119c-0.362,0.307-0.902,0.788-1.438,1.345
			c0.014-0.014,0.025-0.028,0.039-0.042c0.093-0.096,0.144-0.277,0.141-0.411c-0.014-0.636-1.276-1.838-1.663-2.192
			c-0.095-0.087-0.216-0.131-0.337-0.131s-0.242,0.044-0.338,0.131c-0.386,0.354-1.648,1.557-1.662,2.268
			c0,0.129,0.05,0.254,0.141,0.347c0.007,0.008,0.013,0.015,0.021,0.022c-0.53-0.551-1.062-1.028-1.42-1.334
			c-0.093-0.079-0.208-0.12-0.325-0.12c-0.057,0-0.114,0.01-0.17,0.03C8.079,2.072,7.956,2.219,7.926,2.396
			c-0.341,1.959-1.795,3.512-3.2,5.014c-1.831,1.956-3.724,3.979-3.724,7.091c0,5.682,3.535,7.733,5.643,8.45
			c0.053,0.018,0.107,0.027,0.161,0.027c0.181,0,0.353-0.098,0.441-0.265c0.115-0.216,0.057-0.484-0.138-0.632
			c-1.379-1.055-2.107-2.638-2.107-4.58c0-1.171,0.355-2.223,0.701-3.244l0.099-0.293c0.031-0.092,0.035-0.192,0.01-0.286
			c-0.629-2.393,0.157-4.587,0.192-4.676c0.017,0,1.714,0.063,2.956,1.039c0.089,0.071,0.198,0.107,0.309,0.107
			c0.073,0,0.147-0.016,0.216-0.049c0.652-0.312,1.346-0.5,2.06-0.56c0.259-0.021,0.458-0.238,0.458-0.498
			c0,0.26,0.199,0.477,0.459,0.499c0.712,0.058,1.404,0.246,2.058,0.557c0.068,0.032,0.142,0.048,0.215,0.048
			c0.11,0,0.219-0.036,0.309-0.107c1.227-0.963,2.892-1.034,2.959-1.039c0.034,0.092,0.818,2.281,0.194,4.668
			c-0.024,0.093-0.021,0.191,0.008,0.282l0.136,0.412c0.326,0.985,0.663,2.005,0.663,3.141c0,1.942-0.729,3.525-2.107,4.58
			c-0.194,0.148-0.253,0.417-0.138,0.632c0.089,0.167,0.261,0.265,0.441,0.265c0.054,0,0.108-0.009,0.161-0.027
			c2.107-0.717,5.643-2.769,5.643-8.45C23,11.397,21.115,9.392,19.292,7.451z"/>
	</g>
	<g>
		<path style="fill:#FFFFFF;" d="M14.018,16.869c-0.253-0.004-0.462-0.197-0.488-0.448c-0.017-0.156-0.029-0.286-0.029-0.42
			c0-1.297,0.862-2.408,1.422-2.494c0.025-0.004,0.051-0.006,0.076-0.006c0.015,0,0.029,0,0.045,0.002
			c0.573,0.051,1.457,1.147,1.457,2.498c0,0.134-0.013,0.266-0.026,0.397c-0.026,0.251-0.237,0.456-0.49,0.46
			c-0.003,0-0.006,0-0.009,0c-0.249,0-0.462-0.172-0.496-0.42C15.445,16.185,15.244,16,15.001,16s-0.443,0.184-0.479,0.438
			c-0.034,0.248-0.246,0.431-0.495,0.431C14.023,16.869,14.021,16.869,14.018,16.869z"/>
	</g>
	<g>
		<g>
			<path style="fill:#67A14C;" d="M19.292,7.451c-1.415-1.507-2.879-3.064-3.217-5.056c-0.03-0.177-0.153-0.325-0.322-0.386
				c-0.056-0.021-0.113-0.03-0.171-0.03c-0.116,0-0.231,0.041-0.323,0.119c-0.353,0.299-0.875,0.765-1.398,1.304
				c0.575,1.526,1.764,2.807,2.931,4.05c1.823,1.941,3.708,3.947,3.708,7.049c0,3.57-1.396,5.705-2.956,6.978
				c-0.2,0.214-0.412,0.419-0.652,0.602c-0.194,0.148-0.253,0.417-0.138,0.632c0.089,0.167,0.261,0.265,0.441,0.265
				c0.054,0,0.108-0.009,0.161-0.027c2.107-0.717,5.643-2.769,5.643-8.45C23,11.397,21.115,9.392,19.292,7.451z"/>
		</g>
		<g>
			<path style="fill:#67A14C;" d="M7.661,3.435C7.654,3.427,7.648,3.42,7.64,3.413C7.637,3.409,7.635,3.404,7.632,3.401
				C7.631,3.402,7.631,3.404,7.63,3.405C7.641,3.415,7.651,3.424,7.661,3.435z"/>
		</g>
	</g>
	<g id="Bulbasaur">
		<g>
			<path style="fill:#31395A;" d="M14,24h-4c-4.383,0-9.5-2.488-9.5-9.5c0-3.309,2.05-5.5,3.859-7.433
				C5.974,5.341,7.5,3.711,7.5,1.5c0-0.19,0.108-0.364,0.278-0.448c0.171-0.084,0.375-0.064,0.525,0.051
				c0.332,0.254,2.651,2.066,3.692,3.856c1.038-1.802,3.369-3.606,3.702-3.858c0.15-0.115,0.354-0.134,0.524-0.049
				S16.5,1.31,16.5,1.5c0,2.248,1.533,3.88,3.156,5.608C21.458,9.026,23.5,11.199,23.5,14.5C23.5,21.512,18.383,24,14,24z
				 M8.416,2.481C8.05,4.587,6.548,6.192,5.089,7.751C3.324,9.637,1.5,11.586,1.5,14.501c0,6.274,4.579,8.5,8.5,8.5h4
				c3.921,0,8.5-2.226,8.5-8.5c0-2.905-1.816-4.838-3.572-6.707c-1.47-1.564-2.982-3.175-3.346-5.315
				C14.176,3.672,12.5,5.44,12.5,6.501c0,0.276-0.224,0.5-0.5,0.5s-0.5-0.224-0.5-0.5C11.5,5.456,9.822,3.683,8.416,2.481z"/>
		</g>
		<g>
			<path style="fill:#31395A;" d="M12,10c-0.276,0-0.5-0.224-0.5-0.5v-3C11.5,6.224,11.724,6,12,6s0.5,0.224,0.5,0.5v3
				C12.5,9.776,12.276,10,12,10z"/>
		</g>
		<g>
			<path style="fill:#31395A;" d="M10,3.773c-0.276,0-0.5-0.224-0.5-0.5V3c0-0.931,1.521-2.325,2.176-2.881
				c0.188-0.159,0.461-0.159,0.648,0C12.978,0.675,14.5,2.069,14.5,3v0.262c0,0.276-0.224,0.5-0.5,0.5s-0.5-0.224-0.5-0.5V3
				c-0.006-0.269-0.687-1.09-1.5-1.833C11.187,1.911,10.506,2.733,10.5,3v0.273C10.5,3.55,10.276,3.773,10,3.773z"/>
		</g>
		<g>
			<path style="fill:#31395A;" d="M12,24c-4.626,0-7.5-2.491-7.5-6.5c0-1.255,0.37-2.347,0.728-3.403l0.099-0.293
				c-0.675-2.566,0.169-4.879,0.205-4.978C5.607,8.625,5.82,8.485,6.017,8.501c0.081,0.002,1.888,0.075,3.25,1.146
				c1.773-0.848,3.693-0.846,5.465-0.003c1.363-1.071,3.172-1.14,3.253-1.143c0.223,0.005,0.41,0.125,0.484,0.325
				c0.036,0.099,0.878,2.405,0.208,4.967l0.134,0.408c0.339,1.024,0.689,2.083,0.689,3.3C19.5,21.509,16.626,24,12,24z
				 M6.298,13.566c0.06,0.117,0.077,0.253,0.036,0.377l-0.159,0.474C5.828,15.442,5.5,16.41,5.5,17.5c0,3.444,2.43,5.5,6.5,5.5
				s6.5-2.056,6.5-5.5c0-1.056-0.311-1.993-0.639-2.985l-0.182-0.553c-0.026-0.082-0.03-0.169-0.013-0.254
				c0.494-1.785,0.166-3.457-0.025-4.17c-0.579,0.08-1.705,0.327-2.495,1.067c-0.156,0.146-0.392,0.177-0.579,0.075
				c-1.66-0.89-3.475-0.891-5.135,0.003c-0.19,0.101-0.423,0.071-0.579-0.076c-0.79-0.741-1.916-0.989-2.495-1.07
				C6.169,10.24,5.845,11.862,6.298,13.566z"/>
		</g>
		<g>
			<path style="fill:#31395A;" d="M7.801,18.002c-0.184,0-0.359-0.102-0.447-0.276c-0.003-0.006-0.006-0.012-0.009-0.018l0,0
				C7.119,17.207,7,16.617,7,16c0-1.587,1.118-3,2-3c0.9,0,2,1.384,2,3c0,0.617-0.119,1.207-0.344,1.706
				C10.575,17.885,10.396,18,10.2,18H7.846C7.831,18.001,7.816,18.002,7.801,18.002z M8.146,17h1.71
				c0.094-0.305,0.145-0.649,0.145-1c0-1.16-0.745-1.977-1.002-2c-0.249,0.039-0.998,0.877-0.998,2C8,16.35,8.051,16.695,8.146,17z"
				/>
		</g>
		<g>
			<path style="fill:#31395A;" d="M13.801,18.002c-0.184,0-0.359-0.102-0.447-0.276c-0.003-0.006-0.006-0.012-0.009-0.018l0,0
				C13.119,17.207,13,16.617,13,16c0-1.587,1.118-3,2-3c0.9,0,2,1.384,2,3c0,0.617-0.119,1.207-0.344,1.706
				C16.575,17.885,16.396,18,16.2,18h-2.354C13.831,18.001,13.816,18.002,13.801,18.002z M14.146,17h1.71
				c0.094-0.305,0.145-0.649,0.145-1c0-1.16-0.745-1.977-1.002-2c-0.249,0.039-0.998,0.877-0.998,2
				C14,16.35,14.051,16.695,14.146,17z"/>
		</g>
		<g>
			<circle style="fill:#31395A;" cx="9" cy="16.5" r="1"/>
		</g>
		<g>
			<circle style="fill:#31395A;" cx="15" cy="16.5" r="1"/>
		</g>
		<g>
			<path style="fill:#31395A;" d="M12,21.5c-0.076,0-0.153-0.018-0.224-0.053L10.882,21H9.414c-0.395,0-0.781-0.16-1.061-0.439
				l-0.707-0.707c-0.195-0.195-0.195-0.512,0-0.707s0.512-0.195,0.707,0l0.707,0.707C9.153,19.947,9.282,20,9.414,20H11
				c0.077,0,0.154,0.018,0.224,0.053L12,20.441l0.776-0.388C12.845,20.018,12.922,20,13,20h1.586c0.132,0,0.261-0.053,0.354-0.146
				l0.707-0.707c0.195-0.195,0.512-0.195,0.707,0s0.195,0.512,0,0.707l-0.707,0.707C15.368,20.84,14.981,21,14.586,21h-1.468
				l-0.895,0.447C12.153,21.482,12.076,21.5,12,21.5z"/>
		</g>
	</g>
	<g>
		<path d="M8.146,17c-0.002-0.006-0.002-0.012-0.004-0.018C8.146,16.988,8.15,16.994,8.154,17H8.146z"/>
	</g>
	<g>
		<path d="M9.846,17c0.004-0.007,0.01-0.013,0.014-0.02C9.858,16.986,9.857,16.994,9.855,17H9.846z"/>
	</g>
	<g>
		<path d="M14.141,16.982c0.004,0.006,0.008,0.012,0.012,0.018h-0.008C14.144,16.994,14.143,16.988,14.141,16.982z"/>
	</g>
	<g>
		<path d="M15.846,17c0.004-0.007,0.01-0.013,0.014-0.02c-0.002,0.006-0.003,0.014-0.005,0.02H15.846z"/>
	</g>
</g>
</svg>
