<?xml version="1.0" encoding="iso-8859-1"?>
<!-- Generator: Adobe Illustrator 19.0.0, SVG Export Plug-In . SVG Version: 6.00 Build 0)  -->
<svg version="1.1" id="Layer_1" xmlns="http://www.w3.org/2000/svg" xmlns:xlink="http://www.w3.org/1999/xlink" x="0px" y="0px"
	 viewBox="0 0 24 24" style="enable-background:new 0 0 24 24;" xml:space="preserve">
<g>
	<g>
		<g>
			<path style="fill:#F4B186;" d="M22.512,13.532C22.26,13.219,22,12.897,22,12.5c0-6.505-4.579-12-10-12S2,5.995,2,12.5
				c0,0.415-0.262,0.733-0.516,1.042C1.235,13.846,1,14.132,1,14.5c0,5.634,5.593,9,11,9s11-3.366,11-9
				C23,14.138,22.752,13.83,22.512,13.532z"/>
		</g>
	</g>
	<g>
		<g>
			<path style="fill:#DCA079;" d="M22.512,13.532C22.26,13.219,22,12.897,22,12.5c0-6.505-4.579-12-10-12
				c-0.337,0-0.67,0.022-1,0.063c4.972,0.624,9,5.836,9,11.937c0,0.397,0.26,0.72,0.512,1.032C20.752,13.83,21,14.138,21,14.5
				c0,5.287-4.925,8.576-10,8.961c0.333,0.025,0.667,0.039,1,0.039c5.407,0,11-3.366,11-9C23,14.138,22.752,13.83,22.512,13.532z"/>
		</g>
	</g>
	<g>
		<g>
			<path style="fill:#FFFFFF;" d="M16,18.1c-0.167,0-0.323-0.083-0.416-0.223l-0.117-0.176c-0.096-0.143-0.11-0.325-0.04-0.481
				c0.07-0.157,0.216-0.267,0.386-0.291l0.261-0.037c0.022-0.003,0.046-0.005,0.068-0.005c0.171,0,0.331,0.087,0.424,0.234
				c0.104,0.167,0.102,0.379-0.008,0.542l-0.142,0.213C16.323,18.016,16.168,18.1,16,18.1L16,18.1z"/>
		</g>
	</g>
	<g>
		<g>
			<path style="fill:#FFFFFF;" d="M7.999,18.098c-0.167,0-0.323-0.084-0.416-0.224l-0.139-0.209
				c-0.108-0.164-0.111-0.376-0.006-0.543c0.093-0.146,0.253-0.233,0.423-0.233c0.023,0,0.322,0.041,0.322,0.041
				c0.171,0.023,0.317,0.133,0.388,0.29c0.07,0.157,0.056,0.339-0.04,0.482l-0.115,0.173C8.323,18.014,8.167,18.098,7.999,18.098
				C8,18.098,8,18.098,7.999,18.098z"/>
		</g>
	</g>
	<g>
		<g>
			<path style="fill:#FF7BAC;" d="M12,21.5c-2.939,0-6.803-1.331-8.338-4.251c-0.083-0.158-0.076-0.349,0.02-0.5
				c0.092-0.146,0.252-0.233,0.423-0.233c0.007,0,0.014,0,0.02,0c0.661,0.026,1.474,0.095,2.482,0.21
				c0.146,0.017,0.278,0.097,0.359,0.22L8,18.5l0.794-1.192c0.094-0.14,0.25-0.223,0.416-0.223c0.026,0,0.052,0.002,0.078,0.006
				c0.638,0.101,1.303,0.213,2.003,0.34c0.232,0.042,0.47,0.064,0.705,0.064c0.237,0,0.478-0.022,0.713-0.065
				c0.699-0.127,1.362-0.239,2-0.34c0.026-0.004,0.052-0.006,0.078-0.006c0.165,0,0.322,0.082,0.416,0.223L16,18.501l1.038-1.557
				c0.082-0.123,0.213-0.203,0.359-0.219c1-0.114,1.811-0.182,2.479-0.208c0.006,0,0.013,0,0.02,0c0.171,0,0.331,0.087,0.423,0.233
				c0.096,0.151,0.103,0.342,0.02,0.5C18.802,20.169,14.939,21.5,12,21.5z"/>
		</g>
	</g>
	<g>
		<g>
			<path style="fill:#E66F9B;" d="M20.318,16.749c-0.092-0.146-0.252-0.233-0.423-0.233c-0.007,0-0.014,0-0.02,0
				c-0.668,0.026-1.479,0.095-2.479,0.208c-0.146,0.017-0.277,0.097-0.359,0.219L16,18.5l-0.797-1.194
				c-0.094-0.141-0.251-0.223-0.416-0.223c-0.026,0-0.052,0.002-0.078,0.006c-0.638,0.101-1.301,0.213-2,0.34
				c-0.235,0.043-0.476,0.065-0.713,0.065c-0.235,0-0.473-0.022-0.705-0.064c-0.7-0.127-1.365-0.239-2.003-0.34
				c-0.026-0.004-0.052-0.006-0.078-0.006c-0.166,0-0.322,0.083-0.416,0.223L8,18.5l-1.034-1.554
				c-0.081-0.123-0.213-0.203-0.359-0.22c-1.009-0.115-1.821-0.184-2.482-0.21c-0.006,0-0.013,0-0.02,0
				c-0.171,0-0.331,0.087-0.423,0.233c-0.096,0.151-0.103,0.342-0.02,0.5c0.726,1.381,1.979,2.395,3.403,3.093
				C7.96,19.844,9.831,19.501,12,19.501s4.04,0.343,4.935,0.841c1.423-0.697,2.676-1.711,3.403-3.092
				C20.421,17.09,20.414,16.9,20.318,16.749z"/>
		</g>
	</g>
	<g>
		<g>
			<g>
				<path style="fill:#FFFFFF;" d="M8.45,8.974C8.423,8.969,8.395,8.967,8.369,8.967c-0.181,0-0.351,0.099-0.439,0.261
					C7.837,9.398,7.677,9.5,7.5,9.5C7.225,9.5,7,9.276,7,9s0.225-0.5,0.5-0.5c0.072,0,0.15,0.027,0.246,0.085
					c0.08,0.049,0.17,0.073,0.26,0.073c0.116,0,0.232-0.041,0.325-0.12c0.164-0.14,0.22-0.37,0.138-0.57C8.08,7.021,7.559,6.5,7,6.5
					c-1.103,0-2,2.019-2,4.5c0,0.745,0.081,1.477,0.233,2.116C5.287,13.341,5.488,13.5,5.719,13.5h2.56
					c0.231,0,0.433-0.159,0.486-0.385C8.918,12.469,8.999,11.737,8.999,11c0-0.546-0.047-1.091-0.139-1.618
					C8.825,9.172,8.66,9.008,8.45,8.974z"/>
			</g>
		</g>
		<g>
			<g>
				<path style="fill:#FFFFFF;" d="M17,6.5c-0.557,0-1.078,0.521-1.468,1.467c-0.083,0.199-0.027,0.429,0.136,0.569
					c0.093,0.08,0.209,0.121,0.326,0.121c0.089,0,0.178-0.023,0.257-0.071C16.35,8.527,16.428,8.5,16.5,8.5
					C16.775,8.5,17,8.724,17,9s-0.225,0.5-0.5,0.5c-0.177,0-0.337-0.101-0.429-0.271c-0.088-0.163-0.258-0.262-0.439-0.262
					c-0.026,0-0.053,0.002-0.08,0.006c-0.21,0.034-0.376,0.197-0.412,0.407C15.047,9.906,15,10.451,15,11
					c0,0.745,0.081,1.477,0.233,2.116c0.054,0.225,0.255,0.384,0.486,0.384h2.56c0.231,0,0.433-0.159,0.486-0.385
					c0.153-0.646,0.234-1.378,0.234-2.115C19,8.519,18.103,6.5,17,6.5z"/>
			</g>
		</g>
	</g>
	<g id="Charmander">
		<g>
			<g>
				<path style="fill:#31395A;" d="M12,24c-5.653,0-11.5-3.553-11.5-9.5c0-0.546,0.332-0.951,0.599-1.275
					C1.314,12.962,1.5,12.736,1.5,12.5C1.5,5.724,6.309,0,12,0c5.691,0,10.5,5.724,10.5,12.5c0,0.22,0.194,0.462,0.401,0.718
					c0.28,0.349,0.599,0.744,0.599,1.282C23.5,20.447,17.653,24,12,24z M12,1C6.851,1,2.5,6.267,2.5,12.5
					c0,0.593-0.349,1.018-0.629,1.359C1.672,14.102,1.5,14.312,1.5,14.5C1.5,19.821,6.839,23,12,23c5.161,0,10.5-3.179,10.5-8.5
					c0-0.185-0.184-0.413-0.378-0.654C21.845,13.502,21.5,13.073,21.5,12.5C21.5,6.267,17.149,1,12,1z"/>
			</g>
		</g>
		<g>
			<g>
				<path style="fill:#31395A;" d="M8.663,14L8.663,14H5.337c-0.221,0-0.415-0.145-0.479-0.356C4.62,12.853,4.5,11.964,4.5,11
					c0-2.851,1.075-5,2.5-5s2.5,2.149,2.5,5c0,0.943-0.124,1.857-0.357,2.643C9.079,13.855,8.885,14,8.663,14z M5.72,13h2.56
					c0.145-0.61,0.221-1.294,0.221-2c0-2.442-0.889-4-1.5-4s-1.5,1.558-1.5,4C5.5,11.711,5.575,12.395,5.72,13z"/>
			</g>
		</g>
		<g>
			<g>
				<path style="fill:#31395A;" d="M18.663,14L18.663,14h-3.326c-0.221,0-0.415-0.145-0.479-0.356C14.62,12.853,14.5,11.964,14.5,11
					c0-2.851,1.075-5,2.5-5s2.5,2.149,2.5,5c0,0.943-0.124,1.857-0.357,2.643C19.079,13.855,18.885,14,18.663,14z M15.72,13h2.56
					c0.145-0.61,0.221-1.294,0.221-2c0-2.442-0.889-4-1.5-4s-1.5,1.558-1.5,4C15.5,11.711,15.575,12.395,15.72,13z"/>
			</g>
		</g>
		<g>
			<g>
				<circle style="fill:#31395A;" cx="16.5" cy="9" r="1"/>
			</g>
		</g>
		<g>
			<g>
				<circle style="fill:#31395A;" cx="7.5" cy="9" r="1"/>
			</g>
		</g>
		<g>
			<g>
				<path style="fill:#31395A;" d="M12,22c-3.603,0-7.898-1.832-9.138-5.333c-0.054-0.153-0.03-0.323,0.063-0.456
					C3.019,16.078,3.171,16,3.333,16c1.899,0,4.605,0.316,8.045,0.939c0.41,0.075,0.828,0.074,1.24,0
					C16.045,16.315,18.752,16,20.665,16c0.162,0,0.314,0.079,0.408,0.211c0.094,0.132,0.117,0.302,0.063,0.456
					C19.898,20.168,15.603,22,12,22z M4.104,17.016C5.481,19.635,8.999,21,12,21s6.519-1.366,7.896-3.984
					c-1.789,0.071-4.171,0.375-7.097,0.907c-0.529,0.097-1.068,0.098-1.598,0.001C8.267,17.391,5.885,17.087,4.104,17.016z"/>
			</g>
		</g>
		<g>
			<g>
				<path style="fill:#31395A;" d="M8,19L8,19c-0.167,0-0.323-0.084-0.416-0.223l-1.177-1.769c-0.153-0.23-0.091-0.54,0.139-0.693
					c0.229-0.152,0.541-0.092,0.693,0.14L8,17.599l0.562-0.842c0.153-0.231,0.465-0.29,0.693-0.139
					c0.229,0.153,0.292,0.463,0.139,0.693l-0.978,1.467C8.323,18.917,8.167,19,8,19z"/>
			</g>
		</g>
		<g>
			<g>
				<path style="fill:#31395A;" d="M16,19c-0.167,0-0.323-0.083-0.416-0.222l-0.98-1.468c-0.153-0.23-0.091-0.541,0.139-0.694
					c0.228-0.152,0.538-0.091,0.693,0.138L16,17.6l0.766-1.148c0.154-0.231,0.465-0.291,0.693-0.139
					c0.229,0.153,0.292,0.464,0.139,0.693l-1.182,1.771C16.323,18.917,16.167,19,16,19z"/>
			</g>
		</g>
		<g>
			<g>
				<circle style="fill:#31395A;" cx="10" cy="15.5" r="0.5"/>
			</g>
		</g>
		<g>
			<g>
				<circle style="fill:#31395A;" cx="14" cy="15.5" r="0.5"/>
			</g>
		</g>
	</g>
</g>
</svg>
