<?xml version="1.0" encoding="iso-8859-1"?>
<!-- Generator: Adobe Illustrator 19.0.0, SVG Export Plug-In . SVG Version: 6.00 Build 0)  -->
<svg version="1.1" id="Layer_1" xmlns="http://www.w3.org/2000/svg" xmlns:xlink="http://www.w3.org/1999/xlink" x="0px" y="0px"
	 viewBox="0 0 24 24" style="enable-background:new 0 0 24 24;" xml:space="preserve">
<g>
	<g>
		<g>
			<path style="fill:#F8EEC0;" d="M16.118,23.5c-0.382,0-0.726-0.212-0.895-0.554l-0.654-1.307c-0.063-0.125-0.069-0.271-0.02-0.401
				c0.04-0.107,0.115-0.195,0.213-0.253c-0.839,0.332-1.789,0.512-2.764,0.512c-0.952,0-1.88-0.172-2.762-0.511
				c0.097,0.057,0.172,0.146,0.212,0.252c0.05,0.131,0.043,0.276-0.02,0.402l-0.653,1.307c-0.17,0.34-0.513,0.552-0.895,0.552H7.252
				c-0.394,0-0.744-0.265-0.961-0.726c-0.979-2.067-1.721-4.6-2.076-5.926c-0.049-0.183,0.01-0.377,0.151-0.503
				c0.093-0.083,0.212-0.126,0.332-0.126c0.063,0,0.126,0.012,0.186,0.036L5.5,16.5l-3.403-1.361
				C1.127,14.751,0.5,13.826,0.5,12.781c0-0.31,0.141-0.598,0.385-0.788c0.175-0.138,0.387-0.212,0.611-0.212
				c0.08,0,0.161,0.01,0.24,0.029l2.129,0.532c-0.214-0.063-0.36-0.261-0.357-0.486c0.012-0.817,0.108-1.606,0.287-2.344
				C3.74,9.7,3.582,9.841,3.388,9.868C3.364,9.871,3.34,9.873,3.317,9.873c-0.169,0-0.327-0.085-0.42-0.231
				C2.555,9.105,2.25,8.52,1.988,7.905C1.931,7.773,1.935,7.624,1.997,7.494C2.03,7.378,2.728,4.513,4.804,2.218
				c0.098-0.107,0.233-0.165,0.371-0.165c0.082,0,0.165,0.02,0.24,0.062C6.043,2.46,6.668,2.869,7.273,3.334
				c0.124,0.095,0.196,0.243,0.195,0.399S7.394,4.036,7.269,4.13L7.116,4.242C7.005,4.324,6.893,4.404,6.788,4.496
				c0.072-0.037,0.15-0.055,0.228-0.055c0.089,0,0.178,0.024,0.257,0.073c0.129,0.08,0.212,0.211,0.23,0.359
				c0.067-2.422,2.06-4.372,4.498-4.372c2.481,0,4.5,2.019,4.5,4.5v0.007c0.002-0.172,0.089-0.368,0.235-0.458
				c0.095-0.058,0.204-0.098,0.311-0.098c0.06,0,0.119,0.012,0.174,0.041c-0.106-0.083-0.489-0.364-0.489-0.364
				c-0.124-0.094-0.197-0.241-0.198-0.397s0.072-0.303,0.195-0.398c0.605-0.464,1.23-0.874,1.858-1.219
				c0.075-0.042,0.158-0.062,0.24-0.062c0.138,0,0.273,0.057,0.371,0.165c1.983,2.194,2.723,4.962,2.8,5.271
				c0.061,0.129,0.072,0.286,0.017,0.417c-0.261,0.613-0.566,1.196-0.908,1.734c-0.093,0.146-0.253,0.232-0.422,0.232
				c-0.025,0-0.051-0.002-0.077-0.006c-0.196-0.031-0.355-0.174-0.406-0.367c0.183,0.743,0.28,1.536,0.292,2.356
				c0.003,0.229-0.148,0.429-0.368,0.489l2.134-0.534c0.088-0.02,0.166-0.029,0.243-0.029c0.226,0,0.438,0.073,0.614,0.211
				c0.244,0.19,0.385,0.478,0.385,0.788c0,1.044-0.627,1.97-1.597,2.358L18.5,16.5l0.614-0.246c0.06-0.024,0.123-0.036,0.186-0.036
				c0.12,0,0.239,0.043,0.332,0.126c0.142,0.126,0.2,0.321,0.151,0.503c-0.355,1.325-1.097,3.856-2.076,5.927
				c-0.218,0.46-0.567,0.725-0.961,0.725L16.118,23.5L16.118,23.5z M7.498,5.039C7.5,6.643,8.827,7.982,10.466,8
				C8.835,7.981,7.512,6.654,7.5,5.021C7.499,5.028,7.499,5.034,7.498,5.039z M12,3.5c0.827,0,1.5,0.673,1.5,1.5
				C13.5,4.173,12.827,3.5,12,3.5S10.5,4.173,10.5,5C10.5,4.173,11.173,3.5,12,3.5z"/>
		</g>
	</g>
	<g>
		<g>
			<g>
				<path style="fill:#E0D7AD;" d="M1.508,11.854c0-0.025,0.004-0.048,0.005-0.072c-0.006,0-0.011-0.002-0.017-0.002
					c-0.225,0-0.437,0.074-0.611,0.212c-0.03,0.023-0.043,0.06-0.07,0.086l1.05,0.262C1.651,12.277,1.505,12.08,1.508,11.854z"/>
			</g>
		</g>
		<g>
			<g>
				<path style="fill:#E0D7AD;" d="M19.997,7.488c0.061,0.129,0.072,0.286,0.017,0.417c-0.261,0.613-0.566,1.196-0.908,1.734
					c-0.093,0.146-0.253,0.232-0.422,0.232c-0.025,0-0.051-0.002-0.077-0.006c-0.196-0.031-0.355-0.174-0.406-0.367
					c0.183,0.743,0.28,1.536,0.292,2.356c0.003,0.229-0.148,0.429-0.368,0.489l2.134-0.534c0.083-0.019,0.156-0.027,0.229-0.028
					c-0.016-0.795-0.11-1.564-0.287-2.284c0.051,0.192,0.21,0.336,0.406,0.367c0.026,0.004,0.052,0.006,0.077,0.006
					c0.169,0,0.329-0.086,0.422-0.232c0.342-0.538,0.647-1.122,0.908-1.734c0.056-0.131,0.044-0.288-0.017-0.417
					c-0.077-0.309-0.816-3.077-2.8-5.271c-0.098-0.107-0.233-0.165-0.371-0.165c-0.082,0-0.165,0.02-0.24,0.062
					c-0.327,0.18-0.653,0.379-0.976,0.592C19.283,4.803,19.926,7.202,19.997,7.488z"/>
			</g>
		</g>
		<g>
			<g>
				<path style="fill:#E0D7AD;" d="M23.115,11.993c-0.177-0.138-0.389-0.211-0.614-0.211c-0.077,0-0.155,0.009-0.243,0.029
					l-1.073,0.268c0.191,0.187,0.315,0.43,0.315,0.702c0,1.044-0.627,1.97-1.597,2.358L16.5,16.5l0.614-0.246
					c0.06-0.024,0.123-0.036,0.186-0.036c0.12,0,0.239,0.043,0.332,0.126c0.142,0.126,0.2,0.321,0.151,0.503
					c-0.355,1.325-1.097,3.856-2.076,5.927c-0.082,0.173-0.187,0.308-0.301,0.422c0.184,0.189,0.437,0.303,0.712,0.303h0.628
					c0.394,0,0.743-0.264,0.961-0.725c0.979-2.071,1.721-4.603,2.076-5.927c0.049-0.183-0.01-0.377-0.151-0.503
					c-0.093-0.083-0.212-0.126-0.332-0.126c-0.063,0-0.126,0.012-0.186,0.036L18.5,16.5l3.403-1.361
					c0.97-0.388,1.597-1.313,1.597-2.358C23.5,12.471,23.359,12.183,23.115,11.993z"/>
			</g>
		</g>
		<g>
			<g>
				<path style="fill:#E0D7AD;" d="M7.237,20.987c0.097,0.057,0.172,0.146,0.212,0.252c0.05,0.131,0.043,0.276-0.02,0.402
					l-0.653,1.307c-0.047,0.095-0.11,0.177-0.182,0.25c0.19,0.189,0.414,0.303,0.659,0.303h0.628c0.382,0,0.725-0.212,0.895-0.552
					l0.653-1.307c0.026-0.053,0.037-0.11,0.044-0.167C8.706,21.422,7.956,21.263,7.237,20.987z"/>
			</g>
		</g>
	</g>
	<g>
		<g>
			<path style="fill:#31395A;" d="M22.106,6.673c-0.209,0-0.396-0.13-0.469-0.327c-0.385-1.041-1.09-2.567-2.265-3.934
				c-0.103-0.119-0.144-0.28-0.109-0.434c0.033-0.153,0.138-0.282,0.28-0.348c1.487-0.678,2.74-0.952,3.354-1.055
				c0.027-0.004,0.055-0.007,0.082-0.007c0.122,0,0.24,0.044,0.333,0.127c0.113,0.101,0.174,0.248,0.166,0.399
				c-0.053,1.028-0.24,3.073-0.895,5.223c-0.063,0.206-0.249,0.348-0.464,0.354C22.116,6.673,22.111,6.673,22.106,6.673z"/>
		</g>
	</g>
	<g>
		<g>
			<path style="fill:#31395A;" d="M1.88,6.671C1.665,6.665,1.479,6.522,1.416,6.317C0.764,4.171,0.575,2.126,0.52,1.097
				C0.512,0.946,0.573,0.799,0.686,0.698c0.092-0.083,0.211-0.127,0.333-0.127c0.027,0,0.055,0.002,0.082,0.007
				C1.713,0.68,2.963,0.952,4.455,1.633c0.143,0.065,0.247,0.194,0.28,0.348c0.034,0.154-0.007,0.314-0.109,0.434
				C3.451,3.781,2.747,5.307,2.362,6.346C2.29,6.543,2.102,6.673,1.893,6.673C1.89,6.671,1.885,6.671,1.88,6.671z"/>
		</g>
	</g>
	<g id="Clefairy">
		<g>
			<g>
				<path style="fill:#31395A;" d="M6.786,4.996c-0.14,0-0.279-0.059-0.378-0.173C6.227,4.615,6.25,4.299,6.459,4.118
					c0.294-0.254,0.602-0.49,0.916-0.699c0.228-0.153,0.539-0.092,0.693,0.139c0.153,0.229,0.091,0.54-0.139,0.693
					C7.65,4.438,7.375,4.647,7.113,4.874C7.019,4.956,6.902,4.996,6.786,4.996z"/>
			</g>
		</g>
		<g>
			<g>
				<path style="fill:#31395A;" d="M3.503,12.751c-0.271,0-0.493-0.216-0.5-0.488L3,12c0-0.884,0.104-1.762,0.309-2.606
					c0.065-0.268,0.335-0.432,0.604-0.368C4.182,9.091,4.346,9.361,4.281,9.63C4.095,10.397,4,11.195,4,12l0.003,0.239
					c0.006,0.276-0.212,0.505-0.488,0.512C3.511,12.751,3.507,12.751,3.503,12.751z"/>
			</g>
		</g>
		<g>
			<g>
				<path style="fill:#31395A;" d="M12,22c-1.1,0-2.173-0.218-3.191-0.646c-0.254-0.107-0.374-0.4-0.267-0.655
					c0.108-0.255,0.402-0.372,0.655-0.267c1.797,0.758,3.835,0.754,5.631-0.011c0.256-0.108,0.549,0.01,0.656,0.264
					c0.108,0.254-0.01,0.548-0.264,0.656C14.192,21.778,13.109,22,12,22z"/>
			</g>
		</g>
		<g>
			<g>
				<path style="fill:#31395A;" d="M20.497,12.751c-0.004,0-0.008,0-0.012,0c-0.276-0.007-0.494-0.236-0.488-0.512L20,12
					c0-0.81-0.096-1.612-0.283-2.384c-0.065-0.268,0.099-0.539,0.367-0.604c0.265-0.067,0.538,0.099,0.604,0.368
					C20.895,10.229,21,11.11,21,12l-0.003,0.263C20.99,12.535,20.768,12.751,20.497,12.751z"/>
			</g>
		</g>
		<g>
			<g>
				<path style="fill:#31395A;" d="M17.217,4.999c-0.116,0-0.232-0.04-0.327-0.122c-0.265-0.229-0.54-0.439-0.82-0.626
					c-0.229-0.153-0.292-0.463-0.139-0.693c0.154-0.23,0.465-0.291,0.693-0.139c0.314,0.209,0.624,0.446,0.92,0.702
					c0.209,0.181,0.231,0.497,0.051,0.705C17.496,4.94,17.356,4.999,17.217,4.999z"/>
			</g>
		</g>
		<g>
			<g>
				<path style="fill:#31395A;" d="M16.501,6c-0.019,0-0.037-0.001-0.056-0.003c-0.274-0.031-0.473-0.278-0.442-0.552
					c0.01-0.086,0.005-0.169,0.002-0.255L16,5c0-2.206-1.794-4-4-4S8,2.794,8,5c0,0.276-0.224,0.5-0.5,0.5S7,5.276,7,5
					c0-2.757,2.243-5,5-5s5,2.243,5,5l0.004,0.153c0.005,0.135,0.008,0.267-0.007,0.402C16.969,5.811,16.752,6,16.501,6z"/>
			</g>
		</g>
		<g>
			<g>
				<path style="fill:#31395A;" d="M10.5,8.5C8.57,8.5,7,6.93,7,5c0-0.276,0.224-0.5,0.5-0.5S8,4.724,8,5c0,1.378,1.121,2.5,2.5,2.5
					S13,6.378,13,5c0-0.276,0.224-0.5,0.5-0.5S14,4.724,14,5C14,6.93,12.43,8.5,10.5,8.5z"/>
			</g>
		</g>
		<g>
			<g>
				<path style="fill:#31395A;" d="M13.5,5.5C13.224,5.5,13,5.276,13,5c0-0.551-0.448-1-1-1s-1,0.449-1,1c0,0.276-0.224,0.5-0.5,0.5
					S10,5.276,10,5c0-1.103,0.897-2,2-2s2,0.897,2,2C14,5.276,13.776,5.5,13.5,5.5z"/>
			</g>
		</g>
		<g>
			<g>
				<path style="fill:#31395A;" d="M3.5,11c-0.146,0-0.291-0.064-0.391-0.188C0.03,6.97,0,0.762,0,0.5
					c0-0.138,0.057-0.269,0.157-0.363s0.237-0.139,0.372-0.135c0.149,0.008,3.7,0.245,7.283,3.108
					c0.216,0.172,0.25,0.487,0.078,0.703C7.718,4.03,7.405,4.064,7.187,3.892C4.66,1.872,2.11,1.253,1.019,1.072
					c0.085,1.599,0.529,6.196,2.871,9.117c0.172,0.215,0.138,0.53-0.078,0.703C3.721,10.964,3.61,11,3.5,11z"/>
			</g>
		</g>
		<g>
			<g>
				<path style="fill:#31395A;" d="M20.5,11c-0.11,0-0.221-0.036-0.313-0.11c-0.216-0.173-0.25-0.487-0.078-0.703
					c2.346-2.926,2.788-7.52,2.871-9.117c-1.09,0.182-3.641,0.8-6.168,2.82c-0.217,0.173-0.53,0.138-0.703-0.079
					c-0.172-0.216-0.138-0.53,0.078-0.703C19.77,0.245,23.321,0.008,23.47,0c0.139-0.003,0.272,0.041,0.372,0.135
					C23.943,0.23,24,0.362,24,0.5c0,0.263-0.03,6.47-3.109,10.313C20.791,10.936,20.646,11,20.5,11z"/>
			</g>
		</g>
		<g>
			<g>
				<path style="fill:#31395A;" d="M9.5,12C9.224,12,9,11.776,9,11.5v-1C9,10.224,9.224,10,9.5,10s0.5,0.224,0.5,0.5v1
					C10,11.776,9.776,12,9.5,12z"/>
			</g>
		</g>
		<g>
			<g>
				<path style="fill:#31395A;" d="M14.5,12c-0.276,0-0.5-0.224-0.5-0.5v-1c0-0.276,0.224-0.5,0.5-0.5s0.5,0.224,0.5,0.5v1
					C15,11.776,14.776,12,14.5,12z"/>
			</g>
		</g>
		<g>
			<g>
				<path style="fill:#31395A;" d="M11.995,14.488c-0.641,0-1.279-0.196-1.797-0.59c-0.221-0.167-0.264-0.48-0.097-0.701
					c0.167-0.221,0.482-0.262,0.7-0.096c0.688,0.521,1.696,0.522,2.399-0.002c0.22-0.166,0.533-0.121,0.699,0.101
					c0.165,0.221,0.12,0.535-0.102,0.7C13.274,14.292,12.634,14.488,11.995,14.488z"/>
			</g>
		</g>
		<g>
			<g>
				<path style="fill:#31395A;" d="M22,8c-0.228,0-0.433-0.155-0.486-0.386c-0.008-0.03-0.735-3.041-2.874-5.268
					c-0.191-0.199-0.186-0.516,0.014-0.707c0.2-0.189,0.517-0.186,0.707,0.015c2.334,2.43,3.096,5.599,3.127,5.732
					c0.063,0.269-0.104,0.537-0.373,0.6C22.076,7.996,22.037,8,22,8z"/>
			</g>
		</g>
		<g>
			<g>
				<path style="fill:#31395A;" d="M2,8C1.963,8,1.925,7.996,1.886,7.987C1.617,7.924,1.45,7.655,1.513,7.386
					C1.544,7.252,2.306,4.084,4.64,1.654c0.191-0.2,0.508-0.204,0.707-0.015C5.546,1.83,5.552,2.147,5.361,2.346
					C3.215,4.581,2.495,7.584,2.488,7.614C2.433,7.844,2.228,8,2,8z"/>
			</g>
		</g>
		<g>
			<g>
				<path style="fill:#31395A;" d="M18.5,17c-0.198,0-0.386-0.119-0.464-0.314c-0.103-0.256,0.021-0.547,0.278-0.65l3.403-1.361
					c0.779-0.312,1.282-1.055,1.282-1.894c0-0.155-0.07-0.299-0.192-0.394c-0.121-0.095-0.273-0.126-0.429-0.091l-2.758,0.689
					c-0.268,0.065-0.54-0.096-0.606-0.364s0.096-0.539,0.364-0.606l2.758-0.689c0.451-0.113,0.919-0.014,1.286,0.273
					c0.367,0.286,0.577,0.717,0.577,1.182c0,1.25-0.75,2.358-1.911,2.822l-3.403,1.361C18.625,16.989,18.562,17,18.5,17z"/>
			</g>
		</g>
		<g>
			<g>
				<path style="fill:#31395A;" d="M5.5,17c-0.062,0-0.125-0.011-0.186-0.036l-3.403-1.361C0.75,15.139,0,14.031,0,12.781
					c0-0.465,0.21-0.896,0.577-1.182c0.367-0.287,0.835-0.386,1.286-0.273l2.758,0.689c0.269,0.067,0.431,0.338,0.364,0.606
					s-0.335,0.43-0.606,0.364l-2.758-0.689c-0.156-0.037-0.308-0.004-0.429,0.091C1.07,12.482,1,12.625,1,12.781
					c0,0.839,0.503,1.582,1.282,1.894l3.403,1.361c0.257,0.103,0.381,0.394,0.278,0.65C5.886,16.881,5.698,17,5.5,17z"/>
			</g>
		</g>
		<g>
			<g>
				<path style="fill:#31395A;" d="M7.882,24H7.254c-0.595,0-1.109-0.369-1.413-1.012c-1.394-2.944-2.29-6.714-2.327-6.874
					c-0.063-0.269,0.103-0.538,0.371-0.602c0.28-0.062,0.539,0.104,0.602,0.372c0.009,0.038,0.911,3.828,2.259,6.676
					c0.077,0.164,0.246,0.439,0.509,0.439h0.628c0.191,0,0.362-0.105,0.447-0.276l0.724-1.448c0.125-0.248,0.424-0.345,0.671-0.224
					c0.247,0.124,0.347,0.424,0.224,0.671l-0.724,1.447C8.969,23.682,8.454,24,7.882,24z"/>
			</g>
		</g>
		<g>
			<g>
				<path style="fill:#31395A;" d="M16.746,24h-0.628c-0.572,0-1.087-0.318-1.342-0.83l-0.724-1.447
					c-0.123-0.247-0.023-0.547,0.224-0.671c0.247-0.123,0.547-0.024,0.671,0.224l0.724,1.447c0.085,0.171,0.256,0.276,0.447,0.276
					h0.628c0.263,0,0.432-0.275,0.509-0.438c1.349-2.851,2.25-6.638,2.259-6.676c0.063-0.268,0.331-0.434,0.601-0.372
					c0.27,0.063,0.436,0.333,0.372,0.602c-0.037,0.159-0.934,3.929-2.327,6.874C17.855,23.631,17.341,24,16.746,24z"/>
			</g>
		</g>
	</g>
</g>
</svg>
