<?xml version="1.0" encoding="iso-8859-1"?>
<!-- Generator: Adobe Illustrator 19.0.0, SVG Export Plug-In . SVG Version: 6.00 Build 0)  -->
<svg version="1.1" id="Layer_1" xmlns="http://www.w3.org/2000/svg" xmlns:xlink="http://www.w3.org/1999/xlink" x="0px" y="0px"
	 viewBox="0 0 24 24" style="enable-background:new 0 0 24 24;" xml:space="preserve">
<g>
	<g>
		<path style="fill:#A67C52;" d="M12.5,20.5c-0.276,0-0.5-0.224-0.5-0.5v-5c0-2.481,2.019-4.5,4.5-4.5S21,12.519,21,15v5
			c0,0.276-0.224,0.5-0.5,0.5H12.5z"/>
	</g>
	<g>
		<path style="fill:#A67C52;" d="M12.5,12.531c-0.053,0-0.105-0.008-0.157-0.025C12.138,12.438,12,12.247,12,12.031V11
			c0-1.405-0.657-2.709-1.802-3.576C10.073,7.33,10,7.182,10,7.026V5c0-2.481,2.019-4.5,4.5-4.5S19,2.519,19,5v5.424
			c0,0.169-0.085,0.326-0.227,0.418c-0.083,0.054-0.178,0.082-0.273,0.082c-0.068,0-0.137-0.014-0.201-0.042
			C17.722,10.629,17.117,10.5,16.5,10.5c-1.421,0-2.733,0.667-3.599,1.83C12.805,12.458,12.655,12.531,12.5,12.531z"/>
	</g>
	<g>
		<path style="fill:#A67C52;" d="M3.5,20.5C3.224,20.5,3,20.276,3,20v-9c0-2.481,2.019-4.5,4.5-4.5S12,8.519,12,11v9
			c0,0.276-0.224,0.5-0.5,0.5H3.5z"/>
	</g>
	<g>
		<path style="fill:#96704A;" d="M16.5,10.5c-0.345,0-0.677,0.047-1,0.121c2,0.457,3.5,2.242,3.5,4.379v5c0,0.276-0.224,0.5-0.5,0.5
			h2c0.276,0,0.5-0.224,0.5-0.5v-5C21,12.519,18.981,10.5,16.5,10.5z"/>
	</g>
	<g>
		<g>
			<path style="fill:#96704A;" d="M14.5,0.5c-0.345,0-0.677,0.047-1,0.121C15.5,1.078,17,2.863,17,5v5.424
				c0,0.044-0.021,0.083-0.032,0.125c0.454,0.049,0.902,0.144,1.331,0.333c0.064,0.028,0.133,0.042,0.201,0.042
				c0.096,0,0.191-0.027,0.273-0.082C18.914,10.75,19,10.592,19,10.424V5C19,2.519,16.981,0.5,14.5,0.5z"/>
		</g>
	</g>
	<g>
		<path style="fill:#96704A;" d="M7.5,6.5c-0.345,0-0.677,0.047-1,0.121C8.5,7.078,10,8.863,10,11v9c0,0.276-0.224,0.5-0.5,0.5h2
			c0.276,0,0.5-0.224,0.5-0.5v-9C12,8.519,9.981,6.5,7.5,6.5z"/>
	</g>
	<g>
		<path style="fill:#5C6671;" d="M1.5,23.5C1.224,23.5,1,23.276,1,23v-0.5c0-1.103,0.897-2,2-2h18c1.103,0,2,0.897,2,2V23
			c0,0.276-0.224,0.5-0.5,0.5H1.5z"/>
	</g>
	<g>
		<path style="fill:#535C66;" d="M21,20.5h-2c1.103,0,2,0.897,2,2V23c0,0.276-0.224,0.5-0.5,0.5h2c0.276,0,0.5-0.224,0.5-0.5v-0.5
			C23,21.397,22.103,20.5,21,20.5z"/>
	</g>
	<g id="Dugtrio">
		<g>
			<path style="fill:#31395A;" d="M23,24H1c-0.276,0-0.5-0.224-0.5-0.5v-1C0.5,21.122,1.622,20,3,20h18c1.378,0,2.5,1.122,2.5,2.5v1
				C23.5,23.776,23.276,24,23,24z M1.5,23h21v-0.5c0-0.827-0.673-1.5-1.5-1.5H3c-0.827,0-1.5,0.673-1.5,1.5V23z"/>
		</g>
		<g>
			<path style="fill:#31395A;" d="M21,21h-9c-0.276,0-0.5-0.224-0.5-0.5V15c0-2.757,2.243-5,5-5s5,2.243,5,5v5.5
				C21.5,20.776,21.276,21,21,21z M12.5,20h8v-5c0-2.206-1.794-4-4-4s-4,1.794-4,4V20z"/>
		</g>
		<g>
			<path style="fill:#31395A;" d="M12,21H3c-0.276,0-0.5-0.224-0.5-0.5V11c0-2.757,2.243-5,5-5s5,2.243,5,5v9.5
				C12.5,20.776,12.276,21,12,21z M3.5,20h8v-9c0-2.206-1.794-4-4-4s-4,1.794-4,4V20z"/>
		</g>
		<g>
			<path style="fill:#31395A;" d="M19,11.758c-0.276,0-0.5-0.224-0.5-0.5V5c0-2.206-1.794-4-4-4s-4,1.794-4,4v2.259
				c0,0.276-0.224,0.5-0.5,0.5s-0.5-0.224-0.5-0.5V5c0-2.757,2.243-5,5-5s5,2.243,5,5v6.258C19.5,11.535,19.276,11.758,19,11.758z"
				/>
		</g>
		<g>
			<path style="fill:#FF7BAC;" d="M8,15c-0.869,0-1.5-0.42-1.5-1s0.631-1,1.5-1s1.5,0.42,1.5,1S8.869,15,8,15z"/>
		</g>
		<g>
			<path style="fill:#FF7BAC;" d="M17,19c-0.869,0-1.5-0.42-1.5-1s0.631-1,1.5-1s1.5,0.42,1.5,1S17.869,19,17,19z"/>
		</g>
		<g>
			<path style="fill:#FF7BAC;" d="M15,9c-0.869,0-1.5-0.42-1.5-1c0-0.58,0.631-1,1.5-1s1.5,0.42,1.5,1S15.869,9,15,9z"/>
		</g>
		<g>
			<path style="fill:#31395A;" d="M15,16c-0.276,0-0.5-0.224-0.5-0.5v-1c0-0.276,0.224-0.5,0.5-0.5s0.5,0.224,0.5,0.5v1
				C15.5,15.776,15.276,16,15,16z"/>
		</g>
		<g>
			<path style="fill:#31395A;" d="M10,12c-0.276,0-0.5-0.224-0.5-0.5v-1c0-0.276,0.224-0.5,0.5-0.5s0.5,0.224,0.5,0.5v1
				C10.5,11.776,10.276,12,10,12z"/>
		</g>
		<g>
			<path style="fill:#31395A;" d="M13,6c-0.276,0-0.5-0.224-0.5-0.5v-1C12.5,4.224,12.724,4,13,4s0.5,0.224,0.5,0.5v1
				C13.5,5.776,13.276,6,13,6z"/>
		</g>
		<g>
			<path style="fill:#31395A;" d="M17,6c-0.276,0-0.5-0.224-0.5-0.5v-1C16.5,4.224,16.724,4,17,4s0.5,0.224,0.5,0.5v1
				C17.5,5.776,17.276,6,17,6z"/>
		</g>
		<g>
			<path style="fill:#31395A;" d="M6,12c-0.276,0-0.5-0.224-0.5-0.5v-1C5.5,10.224,5.724,10,6,10s0.5,0.224,0.5,0.5v1
				C6.5,11.776,6.276,12,6,12z"/>
		</g>
		<g>
			<path style="fill:#31395A;" d="M19,16c-0.276,0-0.5-0.224-0.5-0.5v-1c0-0.276,0.224-0.5,0.5-0.5s0.5,0.224,0.5,0.5v1
				C19.5,15.776,19.276,16,19,16z"/>
		</g>
	</g>
</g>
</svg>
