<?xml version="1.0" encoding="iso-8859-1"?>
<!-- Generator: Adobe Illustrator 19.0.0, SVG Export Plug-In . SVG Version: 6.00 Build 0)  -->
<svg version="1.1" id="Layer_1" xmlns="http://www.w3.org/2000/svg" xmlns:xlink="http://www.w3.org/1999/xlink" x="0px" y="0px"
	 viewBox="0 0 24 24" style="enable-background:new 0 0 24 24;" xml:space="preserve">
<g>
	<g>
		<g>
			<path style="fill:#F8EEC0;" d="M10.5,23.383c-0.105,0-0.21-0.033-0.299-0.099c-0.599-0.447-2.134-1.661-3.027-2.988
				c0.044,0.106,0.051,0.226,0.017,0.338c-0.042,0.141-0.146,0.256-0.281,0.314c-0.479,0.206-0.887,0.362-1.136,0.454
				c-0.056,0.021-0.114,0.031-0.172,0.031c-0.119,0-0.235-0.042-0.328-0.123C4.811,20.908,2.5,18.809,2.5,16.999
				c0-2.052,1.392-3.84,3.385-4.347c0.041-0.011,0.083-0.016,0.124-0.016c0.106,0,0.211,0.034,0.298,0.099
				c0.121,0.09,0.195,0.229,0.201,0.38c0.038,0.894,0.644,1.639,1.507,1.854l1.758,0.44c0.236,0.059,0.481,0.088,0.727,0.088
				c0.246,0,0.491-0.03,0.728-0.089l1.757-0.439c0.863-0.216,1.469-0.961,1.507-1.855c0.006-0.151,0.08-0.291,0.201-0.38
				c0.087-0.064,0.192-0.099,0.298-0.099c0.041,0,0.083,0.005,0.124,0.016c1.993,0.507,3.385,2.295,3.385,4.347
				c0,2.018-1.943,3.707-2.779,4.339c-0.088,0.067-0.194,0.102-0.302,0.102c-0.058,0-0.116-0.01-0.172-0.03
				c-0.247-0.09-0.664-0.25-1.158-0.462c-0.135-0.059-0.238-0.174-0.281-0.315c-0.034-0.113-0.027-0.233,0.019-0.341
				c-0.894,1.327-2.429,2.543-3.028,2.99C10.71,23.35,10.605,23.383,10.5,23.383z"/>
		</g>
	</g>
	<g>
		<g>
			<path style="fill:#C69C6D;" d="M10.5,15.5c-0.246,0-0.49-0.03-0.727-0.089l-1.758-0.44C7.123,14.748,6.5,13.95,6.5,13.031V8.5
				c0-0.276,0.055-0.542,0.164-0.792C6.668,7.694,6.673,7.68,6.679,7.667C4.731,5.814,3.597,3.55,2.987,1.973
				c-0.082-0.21-0.012-0.45,0.17-0.583c0.088-0.065,0.192-0.097,0.296-0.097c0.11,0,0.22,0.036,0.311,0.108
				c1.301,1.032,3.093,2.755,4.237,5.1c0.01-0.048,0.018-0.097,0.042-0.141l0.199-0.373c0.066-0.125,0.182-0.215,0.319-0.25
				c0.04-0.01,0.081-0.015,0.122-0.015c0.098,0,0.194,0.029,0.277,0.084L10,6.5l0.247-0.494c0.064-0.128,0.18-0.223,0.319-0.26
				c0.042-0.011,0.085-0.017,0.128-0.017c0.098,0,0.194,0.029,0.277,0.084L12,6.5l0.19-0.379c0.072-0.144,0.208-0.244,0.367-0.27
				c0.027-0.004,0.054-0.006,0.08-0.006c0.131,0,0.259,0.052,0.354,0.146l0.478,0.478c0.009,0.007,0.018,0.014,0.025,0.02
				c0.023-0.007,0.043-0.013,0.061-0.018c3.244-1.745,5.329-2.462,6.506-2.756c0.041-0.01,0.081-0.015,0.121-0.015
				c0.18,0,0.351,0.098,0.439,0.262c0.109,0.201,0.068,0.449-0.099,0.604C19.548,5.471,17.713,6.887,14.5,8.5v4.531
				c0,0.919-0.623,1.717-1.515,1.94l-1.758,0.439C10.992,15.47,10.747,15.5,10.5,15.5z"/>
		</g>
	</g>
	<g>
		<g>
			<g>
				<path style="fill:#E0D7AD;" d="M5.515,14.971l1.758,0.44C7.509,15.47,7.754,15.499,8,15.499c0.246,0,0.491-0.03,0.728-0.089
					l0.522-0.131L8.015,14.97c-0.863-0.215-1.469-0.96-1.507-1.854c-0.006-0.151-0.08-0.291-0.201-0.38
					c-0.087-0.064-0.192-0.099-0.298-0.099c-0.041,0-0.083,0.005-0.124,0.016c-0.676,0.172-1.275,0.501-1.782,0.928
					C4.295,14.257,4.809,14.795,5.515,14.971z"/>
			</g>
		</g>
		<g>
			<g>
				<path style="fill:#E0D7AD;" d="M4.674,20.296c0.044,0.106,0.051,0.226,0.017,0.338c-0.01,0.032-0.032,0.056-0.048,0.085
					c0.283,0.283,0.515,0.49,0.631,0.591c0.093,0.081,0.209,0.123,0.328,0.123c0.001,0,0.002,0,0.003,0
					C5.266,21.074,4.94,20.692,4.674,20.296z"/>
			</g>
		</g>
		<g>
			<g>
				<path style="fill:#E0D7AD;" d="M15.115,12.653c-0.041-0.011-0.083-0.016-0.124-0.016c-0.106,0-0.211,0.034-0.298,0.099
					c-0.121,0.09-0.195,0.229-0.201,0.38c-0.007,0.163-0.052,0.314-0.095,0.464C15.384,14.413,16,15.644,16,17
					c0,1.582-1.19,2.954-2.109,3.781c0.052,0.071,0.116,0.132,0.198,0.168c0.495,0.212,0.911,0.372,1.158,0.462
					c0.056,0.021,0.114,0.03,0.172,0.03c0.107,0,0.214-0.035,0.302-0.102C16.556,20.707,18.5,19.017,18.5,17
					C18.5,14.948,17.108,13.16,15.115,12.653z"/>
			</g>
		</g>
	</g>
	<g>
		<g>
			<g>
				<path style="fill:#B38D62;" d="M20.621,3.962C20.532,3.798,20.362,3.7,20.182,3.7c-0.04,0-0.081,0.005-0.121,0.015
					c-0.479,0.12-1.116,0.315-1.912,0.615c-0.024,0.086-0.058,0.172-0.127,0.236C17.048,5.471,15.213,6.887,12,8.5v4.531
					c0,0.919-0.623,1.717-1.515,1.94L9.249,15.28l0.524,0.131C10.01,15.47,10.254,15.5,10.5,15.5c0.247,0,0.492-0.03,0.728-0.09
					l1.758-0.439c0.892-0.223,1.515-1.021,1.515-1.94V8.5c3.213-1.612,5.048-3.029,6.022-3.934
					C20.689,4.411,20.73,4.163,20.621,3.962z"/>
			</g>
		</g>
	</g>
	<g id="Eevee">
		<g>
			<g>
				<path style="fill:#31395A;" d="M10.5,24c-0.1,0-0.2-0.03-0.286-0.09C9.783,23.609,6,20.9,6,18.5C6,18.224,6.224,18,6.5,18
					S7,18.224,7,18.5c0,1.469,2.309,3.494,3.5,4.383c1.191-0.89,3.5-2.917,3.5-4.383c0-0.276,0.224-0.5,0.5-0.5s0.5,0.224,0.5,0.5
					c0,2.4-3.783,5.109-4.214,5.41C10.7,23.97,10.6,24,10.5,24z"/>
			</g>
		</g>
		<g>
			<g>
				<path style="fill:#31395A;" d="M5.5,22c-0.112,0-0.224-0.038-0.313-0.111C5.056,21.785,2,19.296,2,17
					c0-2.553,1.911-4.689,4.445-4.97c0.284-0.03,0.522,0.167,0.552,0.442s-0.167,0.522-0.442,0.552C4.528,13.249,3,14.958,3,17
					c0,1.388,1.717,3.165,2.602,3.933c0.334-0.123,0.956-0.362,1.661-0.689c0.25-0.116,0.548-0.007,0.664,0.243
					c0.116,0.25,0.007,0.548-0.243,0.664c-1.102,0.512-1.987,0.811-2.024,0.823C5.607,21.991,5.553,22,5.5,22z"/>
			</g>
		</g>
		<g>
			<g>
				<path style="fill:#31395A;" d="M15.5,22c-0.054,0-0.107-0.009-0.159-0.026c-0.037-0.013-0.923-0.312-2.024-0.823
					c-0.25-0.116-0.359-0.414-0.243-0.664c0.117-0.25,0.413-0.36,0.664-0.243c0.72,0.334,1.353,0.577,1.682,0.697
					C16.055,20.459,18,18.837,18,17c0-2.042-1.528-3.751-3.555-3.976c-0.274-0.03-0.472-0.278-0.442-0.552
					c0.031-0.274,0.274-0.47,0.552-0.442C17.089,12.311,19,14.447,19,17c0,2.721-3.09,4.827-3.221,4.915
					C15.695,21.971,15.598,22,15.5,22z"/>
			</g>
		</g>
		<g>
			<g>
				<path style="fill:#31395A;" d="M10.5,16c-0.286,0-0.571-0.035-0.849-0.104l-1.757-0.44C6.779,15.178,6,14.18,6,13.031V8.5
					c0-0.363,0.076-0.713,0.226-1.04C6.341,7.21,6.639,7.1,6.889,7.214C7.14,7.329,7.25,7.626,7.135,7.877
					C7.045,8.072,7,8.282,7,8.5v4.531c0,0.689,0.467,1.288,1.136,1.456l1.757,0.439c0.396,0.099,0.816,0.099,1.213,0l1.757-0.439
					c0.669-0.167,1.136-0.766,1.136-1.456V8.5c0-0.276,0.224-0.5,0.5-0.5s0.5,0.224,0.5,0.5v4.531c0,1.149-0.779,2.147-1.894,2.425
					l-1.757,0.439C11.071,15.965,10.786,16,10.5,16z"/>
			</g>
		</g>
		<g>
			<g>
				<path style="fill:#31395A;" d="M8.5,11C8.224,11,8,10.776,8,10.5v-1C8,9.224,8.224,9,8.5,9S9,9.224,9,9.5v1
					C9,10.776,8.776,11,8.5,11z"/>
			</g>
		</g>
		<g>
			<g>
				<path style="fill:#31395A;" d="M12.5,11c-0.276,0-0.5-0.224-0.5-0.5v-1C12,9.224,12.224,9,12.5,9S13,9.224,13,9.5v1
					C13,10.776,12.776,11,12.5,11z"/>
			</g>
		</g>
		<g>
			<g>
				<path style="fill:#31395A;" d="M6.681,8.169c-0.124,0-0.248-0.045-0.344-0.137c-3.256-3.088-4.281-7.24-4.323-7.415
					c-0.047-0.195,0.028-0.4,0.189-0.519c0.162-0.12,0.379-0.13,0.552-0.028c0.153,0.09,3.769,2.264,5.694,6.211
					c0.121,0.248,0.018,0.547-0.23,0.668c-0.247,0.123-0.548,0.019-0.668-0.23C6.427,4.416,4.638,2.732,3.452,1.791
					C4.007,3.225,5.11,5.49,7.025,7.306c0.2,0.19,0.208,0.506,0.019,0.707C6.945,8.117,6.813,8.169,6.681,8.169z"/>
			</g>
		</g>
		<g>
			<g>
				<path style="fill:#31395A;" d="M14.5,9c-0.183,0-0.359-0.101-0.447-0.276c-0.124-0.247-0.024-0.547,0.223-0.671
					c3.171-1.591,4.965-2.979,5.906-3.853c-1.172,0.292-3.225,1.006-6.444,2.74c-0.244,0.13-0.546,0.04-0.678-0.203
					c-0.131-0.243-0.04-0.546,0.203-0.678c5.902-3.18,8.057-3.082,8.286-3.057c0.173,0.017,0.325,0.123,0.401,0.279
					s0.065,0.341-0.028,0.488c-0.06,0.094-1.535,2.336-7.197,5.178C14.652,8.983,14.576,9,14.5,9z"/>
			</g>
		</g>
		<g>
			<g>
				<path style="fill:#31395A;" d="M12,7c-0.098,0-0.194-0.029-0.277-0.084L10.694,6.23l-0.247,0.494
					c-0.064,0.128-0.18,0.223-0.319,0.26C9.988,7.02,9.842,6.995,9.722,6.917L8.681,6.223L8.44,6.673
					C8.31,6.917,8.006,7.008,7.764,6.879C7.52,6.749,7.428,6.446,7.558,6.203l0.5-0.937c0.066-0.125,0.182-0.215,0.319-0.25
					C8.515,4.98,8.659,5.007,8.776,5.085l1.029,0.686l0.247-0.494c0.064-0.128,0.18-0.223,0.319-0.26
					c0.138-0.038,0.286-0.013,0.406,0.067l1.029,0.686l0.247-0.494c0.072-0.144,0.208-0.244,0.367-0.27
					c0.161-0.025,0.321,0.027,0.434,0.14l1,1c0.195,0.195,0.195,0.512,0,0.707s-0.512,0.195-0.707,0l-0.509-0.509l-0.19,0.379
					c-0.064,0.128-0.18,0.223-0.319,0.26C12.086,6.995,12.043,7,12,7z"/>
			</g>
		</g>
		<g>
			<g>
				<path style="fill:#31395A;" d="M9.758,13.504c-0.306,0-0.739-0.13-1.162-0.71c-0.163-0.223-0.114-0.536,0.109-0.698
					s0.536-0.114,0.698,0.109c0.164,0.225,0.285,0.313,0.356,0.299c0.095-0.003,0.246-0.155,0.312-0.263
					c0.091-0.148,0.253-0.24,0.427-0.24h0.001c0.174,0,0.336,0.089,0.427,0.237c0.066,0.105,0.223,0.258,0.32,0.261
					c0.061,0.013,0.189-0.073,0.348-0.293c0.161-0.224,0.473-0.275,0.698-0.112c0.224,0.162,0.274,0.474,0.112,0.698
					c-0.436,0.604-0.888,0.715-1.197,0.706c-0.284-0.011-0.521-0.128-0.704-0.268c-0.18,0.14-0.414,0.258-0.696,0.272
					C9.792,13.504,9.775,13.504,9.758,13.504z"/>
			</g>
		</g>
	</g>
</g>
</svg>
