<?xml version="1.0" encoding="iso-8859-1"?>
<!-- Generator: Adobe Illustrator 19.0.0, SVG Export Plug-In . SVG Version: 6.00 Build 0)  -->
<svg version="1.1" id="Layer_1" xmlns="http://www.w3.org/2000/svg" xmlns:xlink="http://www.w3.org/1999/xlink" x="0px" y="0px"
	 viewBox="0 0 24 24" style="enable-background:new 0 0 24 24;" xml:space="preserve">
<g>
	<g>
		<path style="fill:#93278F;" d="M23.346,16.173c-0.777-1.602-1.992-2.601-2.865-3.231c0.012-0.222,0.019-0.447,0.019-0.673
			c0-1.194-0.168-2.36-0.501-3.471c0.083,0.166,0.254,0.273,0.444,0.274h0.001c0.218,0,0.412-0.142,0.477-0.351l2.226-7.099
			c0.06-0.191,0-0.4-0.153-0.53c-0.092-0.079-0.208-0.119-0.324-0.119c-0.076,0-0.153,0.018-0.224,0.053l-5.67,2.835
			C16.607,3.946,16.5,4.119,16.5,4.308v-1c0-0.173-0.09-0.334-0.237-0.425c-0.08-0.05-0.171-0.075-0.263-0.075
			c-0.077,0-0.153,0.018-0.224,0.053L14.5,3.5V1.707c0-0.202-0.122-0.385-0.309-0.462C14.129,1.219,14.064,1.207,14,1.207
			c-0.13,0-0.258,0.051-0.354,0.146L11.5,3.5V2.151c0-0.22-0.144-0.415-0.355-0.479C11.097,1.657,11.048,1.651,11,1.651
			c-0.164,0-0.322,0.081-0.416,0.223L9.5,3.5L8.354,2.354C8.258,2.258,8.13,2.208,8,2.208c-0.064,0-0.129,0.012-0.191,0.038
			C7.622,2.323,7.5,2.506,7.5,2.708v1.544c0-0.19-0.108-0.365-0.279-0.449l-5.67-2.786C1.481,0.982,1.405,0.966,1.33,0.966
			c-0.117,0-0.233,0.042-0.326,0.121c-0.152,0.13-0.211,0.339-0.15,0.53L3.092,8.68c0.066,0.208,0.259,0.349,0.477,0.349
			c0,0,0.001,0,0.002,0c0.191-0.001,0.363-0.11,0.445-0.278C3.674,9.875,3.5,11.057,3.5,12.27c0,0.251,0.007,0.501,0.022,0.748
			c-0.882,0.556-2.097,1.555-2.874,3.156c-0.093,0.192-0.055,0.421,0.096,0.572l0.423,0.423c0.097,0.097,0.225,0.146,0.354,0.146
			c0.108,0,0.216-0.035,0.307-0.105c0.511-0.397,1.117-0.637,1.801-0.713c0.148-0.017,0.281-0.099,0.363-0.224
			c0.06-0.091,0.087-0.199,0.081-0.305c0.403,1.238,1.029,2.404,1.828,3.399c0.101,0.125,0.239,0.198,0.384,0.198
			c0.063,0,0.128-0.014,0.192-0.043c-0.096,0.094-0.936,0.995-0.979,3.469c-0.002,0.134,0.049,0.264,0.144,0.359
			c0.094,0.096,0.222,0.149,0.356,0.149h2.26c0.16,0,0.311-0.077,0.404-0.206c0.447-0.615,0.744-1.443,0.824-1.744
			c-0.068,0.257,0.078,0.523,0.332,0.604c0.708,0.225,1.442,0.339,2.182,0.339s1.474-0.114,2.182-0.339
			c0.253-0.081,0.382-0.409,0.315-0.666c0.014,0.052,0.289,1.051,0.841,1.807c0.094,0.129,0.244,0.206,0.404,0.206h2.261
			c0.134,0,0.263-0.054,0.356-0.149c0.094-0.096,0.146-0.225,0.144-0.359c-0.045-2.61-0.967-3.459-1.004-3.482
			c0.067,0.031,0.139,0.046,0.21,0.046c0.148,0,0.292-0.066,0.39-0.187c0.798-0.993,1.424-2.159,1.828-3.397
			c-0.006,0.106,0.021,0.212,0.08,0.303c0.082,0.125,0.215,0.207,0.363,0.224c0.682,0.077,1.287,0.316,1.797,0.713
			c0.091,0.07,0.199,0.105,0.307,0.105c0.128,0,0.256-0.049,0.354-0.146l0.423-0.423C23.401,16.595,23.439,16.365,23.346,16.173z"/>
	</g>
	<g>
		<g>
			<path style="fill:#852381;" d="M17.499,19.509c0.067,0.031,0.139,0.046,0.21,0.046c0.148,0,0.292-0.066,0.39-0.187
				c0.564-0.702,1.036-1.493,1.411-2.332c-0.452-0.289-0.965-0.474-1.536-0.538c-0.148-0.017-0.282-0.099-0.363-0.224
				c-0.059-0.09-0.086-0.197-0.08-0.303c-0.404,1.238-1.03,2.404-1.828,3.397c-0.097,0.121-0.242,0.187-0.39,0.187
				c-0.071,0-0.143-0.015-0.21-0.046c0.037,0.023,0.959,0.873,1.004,3.482c0.002,0.134-0.049,0.264-0.144,0.359
				c-0.076,0.077-0.177,0.118-0.283,0.135c0.021,0.003,0.04,0.015,0.062,0.015h2.261c0.134,0,0.263-0.054,0.356-0.149
				c0.094-0.096,0.146-0.225,0.144-0.359C18.458,20.381,17.536,19.532,17.499,19.509z"/>
		</g>
		<g>
			<path style="fill:#852381;" d="M23.346,16.173c-0.777-1.602-1.992-2.601-2.865-3.231c0.012-0.222,0.019-0.447,0.019-0.673
				c0-1.194-0.168-2.36-0.501-3.471c0.083,0.166,0.254,0.273,0.444,0.274h0.001c0.218,0,0.412-0.142,0.477-0.351l2.226-7.099
				c0.06-0.191,0-0.4-0.153-0.53c-0.092-0.079-0.208-0.119-0.324-0.119c-0.076,0-0.153,0.018-0.224,0.053l-1.789,0.895l-2.133,6.801
				c-0.065,0.208-0.259,0.351-0.477,0.351h-0.001c-0.19,0-0.361-0.108-0.444-0.274c0.333,1.11,0.501,2.276,0.501,3.471
				c0,0.226-0.006,0.451-0.019,0.673c0.873,0.63,2.088,1.629,2.865,3.231c0.069,0.142,0.044,0.295-0.023,0.431
				c0.457,0.121,0.874,0.321,1.24,0.606c0.091,0.07,0.199,0.105,0.307,0.105c0.128,0,0.256-0.049,0.354-0.146l0.423-0.423
				C23.401,16.595,23.439,16.365,23.346,16.173z"/>
		</g>
	</g>
	<g>
		<g>
			<path style="fill:#DF2C2C;" d="M9.159,9.146C9.065,9.052,8.938,9,8.805,9L8.504,9.007c0.11-0.195,0.076-0.44-0.083-0.598
				l-0.73-0.73C7.596,7.584,7.468,7.533,7.337,7.533c-0.042,0-0.083,0.005-0.125,0.016C7.041,7.593,6.906,7.724,6.857,7.894
				c-0.149,0.514-0.33,1.469,0.193,2.153c0.1,0.096,0.403,0.39,2.233,0.449c0.005,0,0.011,0,0.016,0
				c0.199,0,0.379-0.118,0.459-0.301c0.082-0.188,0.04-0.407-0.105-0.552L9.159,9.146z"/>
		</g>
		<g>
			<path style="fill:#DF2C2C;" d="M17.142,7.893c-0.049-0.169-0.185-0.3-0.356-0.344c-0.041-0.011-0.083-0.016-0.124-0.016
				c-0.131,0-0.259,0.051-0.354,0.146l-0.73,0.73C15.419,8.567,15.39,8.805,15.5,9h-0.306c-0.133,0-0.26,0.053-0.354,0.146
				l-0.495,0.495c-0.145,0.145-0.187,0.364-0.105,0.552c0.08,0.184,0.26,0.301,0.459,0.301c0.005,0,0.011,0,0.017,0
				c1.832-0.06,2.139-0.359,2.291-0.515C17.473,9.359,17.292,8.406,17.142,7.893z"/>
		</g>
	</g>
	<g>
		<path style="fill:#FFFFFF;" d="M16.94,12.995c-0.096-0.128-0.246-0.201-0.401-0.201c-0.043,0-0.087,0.006-0.131,0.018
			c-1.798,0.487-3.118,0.694-4.412,0.694s-2.611-0.208-4.405-0.694C7.548,12.8,7.504,12.794,7.46,12.794
			c-0.155,0-0.305,0.072-0.401,0.201c-0.123,0.164-0.132,0.387-0.024,0.562c0.679,1.099,2.227,2.943,4.964,2.943
			c2.738,0,4.286-1.844,4.965-2.943C17.073,13.382,17.063,13.16,16.94,12.995z"/>
	</g>
	<g id="Gengar">
		<g>
			<path style="fill:#31395A;" d="M6.256,20.312c-0.136,0-0.272-0.055-0.371-0.165c-1.12-1.237-1.962-2.8-2.437-4.519
				c-0.073-0.266,0.083-0.542,0.349-0.615c0.264-0.074,0.541,0.083,0.615,0.349c0.433,1.569,1.198,2.992,2.214,4.114
				c0.186,0.205,0.169,0.521-0.035,0.706C6.496,20.269,6.376,20.312,6.256,20.312z"/>
		</g>
		<g>
			<path style="fill:#31395A;" d="M12,23c-0.974,0-1.931-0.184-2.846-0.547c-0.257-0.102-0.382-0.393-0.281-0.649
				c0.102-0.257,0.396-0.381,0.649-0.281c1.596,0.633,3.36,0.633,4.956,0c0.254-0.101,0.547,0.023,0.649,0.281
				c0.102,0.256-0.024,0.547-0.281,0.649C13.931,22.816,12.974,23,12,23z"/>
		</g>
		<g>
			<path style="fill:#31395A;" d="M17.746,20.309c-0.12,0-0.24-0.042-0.335-0.129c-0.205-0.185-0.221-0.501-0.035-0.706
				c1.019-1.125,1.785-2.554,2.217-4.132c0.073-0.266,0.349-0.421,0.615-0.35c0.266,0.073,0.423,0.348,0.35,0.615
				c-0.474,1.728-1.317,3.298-2.441,4.539C18.018,20.253,17.882,20.309,17.746,20.309z"/>
		</g>
		<g>
			<path style="fill:#31395A;" d="M3.625,10.864c-0.212,0-0.409-0.136-0.477-0.349L0.023,0.651c-0.061-0.191-0.001-0.399,0.15-0.53
				c0.152-0.13,0.367-0.159,0.547-0.07l7,3.439c0.248,0.122,0.35,0.421,0.228,0.669C7.826,4.407,7.527,4.507,7.279,4.387L1.33,1.464
				l2.772,8.748c0.083,0.263-0.063,0.544-0.326,0.627C3.726,10.857,3.675,10.864,3.625,10.864z"/>
		</g>
		<g>
			<path style="fill:#31395A;" d="M20.385,10.934c-0.049,0-0.1-0.007-0.149-0.023c-0.264-0.083-0.41-0.363-0.328-0.626l2.763-8.811
				l-5.947,2.974c-0.247,0.122-0.547,0.023-0.671-0.224c-0.124-0.247-0.023-0.547,0.224-0.671l7-3.5
				c0.179-0.089,0.395-0.064,0.548,0.066c0.153,0.13,0.213,0.339,0.153,0.53l-3.115,9.934
				C20.795,10.797,20.598,10.934,20.385,10.934z"/>
		</g>
		<g>
			<path style="fill:#31395A;" d="M16.5,5C16.224,5,16,4.776,16,4.5V3.309l-1.276,0.638c-0.156,0.077-0.34,0.069-0.486-0.022
				C14.09,3.834,14,3.673,14,3.5V1.707l-2.146,2.146c-0.143,0.143-0.358,0.187-0.545,0.108C11.122,3.884,11,3.701,11,3.499V2.15
				L9.916,3.776c-0.083,0.125-0.218,0.206-0.367,0.22C9.398,4.01,9.252,3.958,9.146,3.852L8,2.707V4.5C8,4.776,7.776,5,7.5,5
				S7,4.776,7,4.5v-3c0-0.202,0.122-0.385,0.309-0.462c0.188-0.077,0.402-0.034,0.545,0.108l1.569,1.569l1.662-2.493
				c0.122-0.184,0.351-0.265,0.561-0.201C11.856,0.085,12,0.28,12,0.5v1.793l2.146-2.146c0.143-0.144,0.357-0.186,0.545-0.108
				C14.878,0.115,15,0.298,15,0.5v2.191l1.276-0.638c0.155-0.078,0.338-0.07,0.486,0.022C16.91,2.166,17,2.327,17,2.5v2
				C17,4.776,16.776,5,16.5,5z"/>
		</g>
		<g>
			<path style="fill:#31395A;" d="M9.681,11.007c-1.19,0-2.637-0.13-3.08-0.719C5.768,9.183,6.459,7.481,6.541,7.29
				c0.005-0.013,0.011-0.025,0.018-0.038L6.147,6.84c-0.195-0.195-0.195-0.512,0-0.707s0.512-0.195,0.707,0l4,4
				c0.14,0.14,0.184,0.35,0.113,0.534c-0.072,0.185-0.246,0.31-0.443,0.319C10.273,10.998,9.985,11.007,9.681,11.007z M7.338,8.033
				C7.196,8.52,7.08,9.263,7.399,9.687C7.563,9.846,8.35,9.965,9.3,9.996L7.338,8.033z"/>
		</g>
		<g>
			<path style="fill:#31395A;" d="M14.319,11.007c-0.305,0-0.592-0.008-0.842-0.02c-0.198-0.009-0.372-0.134-0.443-0.319
				s-0.027-0.394,0.113-0.534l4-4c0.195-0.195,0.512-0.195,0.707,0s0.195,0.512,0,0.707l-0.412,0.412
				c0.007,0.012,0.013,0.025,0.018,0.038c0.082,0.19,0.772,1.893-0.06,2.998C16.956,10.877,15.509,11.007,14.319,11.007z
				 M16.662,8.033L14.7,9.995c0.951-0.031,1.739-0.152,1.908-0.316C16.921,9.261,16.804,8.52,16.662,8.033z"/>
		</g>
		<g>
			<path style="fill:#31395A;" d="M12,17c-4.33,0-5.954-4.284-5.969-4.328c-0.065-0.178-0.025-0.377,0.105-0.515
				c0.129-0.139,0.326-0.192,0.507-0.137c4.402,1.314,6.305,1.314,10.714,0c0.182-0.055,0.378-0.002,0.507,0.137
				c0.13,0.138,0.17,0.337,0.105,0.515C17.954,12.716,16.33,17,12,17z M7.461,13.294C8.134,14.384,9.546,16,12,16
				s3.866-1.616,4.54-2.706C13.034,14.243,10.961,14.244,7.461,13.294z"/>
		</g>
		<g>
			<path style="fill:#31395A;" d="M18.5,24h-3c-0.146,0-0.284-0.063-0.379-0.174c-0.738-0.858-1.089-2.142-1.104-2.196
				c-0.072-0.266,0.086-0.54,0.353-0.612c0.264-0.072,0.541,0.085,0.613,0.352c0.002,0.01,0.261,0.948,0.759,1.63h2.261
				c-0.041-2.346-0.83-3.122-0.838-3.129c-0.197-0.187-0.213-0.501-0.03-0.703c0.182-0.202,0.488-0.223,0.694-0.045
				c0.128,0.112,1.253,1.185,1.172,4.39C18.993,23.784,18.771,24,18.5,24z"/>
		</g>
		<g>
			<path style="fill:#31395A;" d="M8.5,24h-3c-0.271,0-0.493-0.216-0.5-0.487c-0.082-3.206,1.043-4.278,1.172-4.39
				c0.208-0.181,0.523-0.159,0.706,0.049c0.181,0.208,0.159,0.524-0.049,0.706c-0.001,0.001-0.79,0.776-0.831,3.123h2.26
				c0.414-0.569,0.685-1.351,0.759-1.63c0.072-0.268,0.346-0.426,0.613-0.353c0.267,0.072,0.425,0.346,0.353,0.613
				c-0.015,0.054-0.366,1.338-1.104,2.196C8.784,23.937,8.646,24,8.5,24z"/>
		</g>
		<g>
			<path style="fill:#31395A;" d="M15.5,9.5H15c-0.276,0-0.5-0.224-0.5-0.5s0.224-0.5,0.5-0.5h0.5C15.776,8.5,16,8.724,16,9
				S15.776,9.5,15.5,9.5z"/>
		</g>
		<g>
			<path style="fill:#31395A;" d="M9,9.5H8.5C8.224,9.5,8,9.276,8,9s0.224-0.5,0.5-0.5H9c0.276,0,0.5,0.224,0.5,0.5S9.276,9.5,9,9.5
				z"/>
		</g>
		<g>
			<path style="fill:#31395A;" d="M1.5,18c-0.128,0-0.256-0.049-0.354-0.146l-1-1c-0.144-0.144-0.187-0.362-0.106-0.549
				c0.745-1.752,1.981-2.879,2.969-3.549C3.003,12.595,3,12.433,3,12.27c0-1.355,0.209-2.677,0.622-3.928
				C3.707,8.08,3.989,7.934,4.253,8.024C4.515,8.11,4.658,8.393,4.571,8.655C4.192,9.804,4,11.02,4,12.269
				c0,0.241,0.007,0.48,0.021,0.717c0.011,0.183-0.078,0.356-0.232,0.454c-0.844,0.532-1.97,1.466-2.69,2.952l0.423,0.423
				c1.057-0.821,2.234-0.863,2.718-0.843c0.276,0.014,0.489,0.248,0.475,0.524s-0.249,0.482-0.524,0.475
				c-0.519-0.026-1.511,0.055-2.338,0.882C1.756,17.951,1.628,18,1.5,18z"/>
		</g>
		<g>
			<path style="fill:#31395A;" d="M22.495,18c-0.128,0-0.256-0.049-0.354-0.146c-0.827-0.827-1.813-0.907-2.338-0.882
				c-0.279,0.004-0.511-0.199-0.524-0.475c-0.014-0.276,0.199-0.51,0.475-0.524c0.49-0.02,1.661,0.021,2.718,0.843l0.423-0.423
				c-0.721-1.486-1.847-2.42-2.691-2.952c-0.178-0.112-0.265-0.322-0.223-0.524C19.994,12.702,20,12.486,20,12.27
				c0-1.251-0.192-2.469-0.572-3.619c-0.087-0.262,0.056-0.545,0.318-0.631c0.264-0.09,0.544,0.056,0.631,0.318
				C20.791,9.589,21,10.912,21,12.27c0,0.164-0.003,0.327-0.009,0.489c0.987,0.67,2.22,1.797,2.964,3.546
				c0.08,0.188,0.038,0.405-0.106,0.549l-1,1C22.751,17.951,22.623,18,22.495,18z"/>
		</g>
	</g>
</g>
</svg>
