<?xml version="1.0" encoding="iso-8859-1"?>
<!-- Generator: Adobe Illustrator 19.0.0, SVG Export Plug-In . SVG Version: 6.00 Build 0)  -->
<svg version="1.1" id="Layer_1" xmlns="http://www.w3.org/2000/svg" xmlns:xlink="http://www.w3.org/1999/xlink" x="0px" y="0px"
	 viewBox="0 0 24 24" style="enable-background:new 0 0 24 24;" xml:space="preserve">
<g>
	<g>
		<g>
			<path style="fill:#6E9BBC;" d="M9.5,23.502c-0.552,0-1-0.446-1-0.994c0-0.211,0.03-0.565,0.077-0.977
				c0.015-0.134,0.054-0.626,0.054-0.626c0.016-0.173-0.06-0.341-0.198-0.445c-1.585-1.187-4.024-1.656-4.298-1.706
				C3.747,18.601,3.5,18.236,3.5,17.824v-0.323c0-0.551,0.448-1,1-1h0.354c0.355,0,0.646-0.29,0.646-0.646
				c0-0.822-0.493-1.551-1.257-1.857l-3.114-1.246C0.747,12.6,0.5,12.235,0.5,11.823v-0.602c0-0.431,0.274-0.812,0.684-0.949
				l2.087-0.696C3.413,9.529,3.526,9.421,3.58,9.281c0.077-0.2,0.286-0.714,0.572-1.169C4.225,7.995,4.248,7.854,4.214,7.72
				C4.179,7.587,4.091,7.473,3.971,7.407L1.002,5.775C0.693,5.605,0.501,5.28,0.501,4.928c0-0.321,0.159-0.621,0.425-0.801
				C1.087,4.018,1.275,3.96,1.468,3.96c0.123,0,0.244,0.023,0.358,0.069l3.986,1.595C5.872,5.648,5.935,5.66,5.998,5.66
				c0.113,0,0.226-0.039,0.316-0.113c1.27-1.039,2.8-1.708,4.425-1.937c0.219-0.031,0.392-0.201,0.425-0.419L11.5,1.002
				c0.05-0.295,0.249-0.5,0.495-0.503l0,0c0.265,0,0.444,0.184,0.505,0.503l0.337,2.191c0.033,0.218,0.206,0.388,0.425,0.419
				c1.629,0.229,3.159,0.899,4.425,1.937c0.091,0.075,0.204,0.113,0.317,0.113c0.063,0,0.126-0.012,0.186-0.036l3.984-1.594
				c0.115-0.046,0.235-0.07,0.358-0.07c0.193,0,0.382,0.058,0.543,0.167C23.341,4.309,23.5,4.608,23.5,4.93
				c0,0.352-0.192,0.677-0.501,0.847l-2.968,1.632c-0.12,0.066-0.208,0.179-0.243,0.313c-0.034,0.133-0.013,0.274,0.061,0.391
				c0.287,0.457,0.496,0.97,0.572,1.17c0.054,0.14,0.167,0.248,0.309,0.295l2.087,0.696c0.409,0.137,0.684,0.518,0.684,0.949v0.602
				c0,0.412-0.247,0.776-0.629,0.929L19.758,14c-0.764,0.306-1.257,1.035-1.257,1.857c0,0.356,0.29,0.646,0.646,0.646h0.354
				c0.552,0,1,0.449,1,1v0.323c0,0.412-0.247,0.776-0.629,0.929c-0.11,0.021-2.677,0.507-4.302,1.728
				c-0.139,0.104-0.214,0.271-0.198,0.444c0,0,0.037,0.475,0.052,0.608c0.047,0.41,0.077,0.764,0.077,0.975
				c0,0.548-0.448,0.994-1,0.994H9.5V23.502z"/>
		</g>
	</g>
	<g>
		<g>
			<g>
				<path style="fill:#638CAA;" d="M22.816,10.274l-2.087-0.696c-0.142-0.047-0.255-0.155-0.309-0.295
					c-0.076-0.2-0.285-0.713-0.572-1.17c-0.073-0.117-0.095-0.258-0.061-0.391c0.035-0.133,0.123-0.246,0.243-0.313l2.968-1.632
					c0.309-0.17,0.501-0.495,0.501-0.847c0-0.321-0.159-0.621-0.425-0.801c-0.161-0.109-0.35-0.167-0.543-0.167
					c-0.123,0-0.243,0.023-0.358,0.07l-0.857,0.343C21.43,4.536,21.5,4.727,21.5,4.93c0,0.352-0.192,0.677-0.501,0.847l-2.968,1.632
					c-0.12,0.066-0.208,0.179-0.243,0.313c-0.034,0.133-0.013,0.274,0.061,0.391c0.287,0.457,0.496,0.97,0.572,1.17
					c0.054,0.14,0.167,0.248,0.309,0.295l2.087,0.696c0.409,0.137,0.684,0.518,0.684,0.949v0.602c0,0.412-0.247,0.776-0.629,0.929
					L17.758,14c-0.764,0.306-1.257,1.035-1.257,1.857c0,0.356,0.29,0.646,0.646,0.646h0.354c0.552,0,1,0.449,1,1v0.323
					c0,0.412-0.247,0.776-0.629,0.929c-0.11,0.021-2.677,0.507-4.302,1.728c-0.139,0.104-0.214,0.271-0.198,0.444
					c0,0,0.037,0.475,0.052,0.608c0.047,0.41,0.077,0.764,0.077,0.975c0,0.548-0.448,0.994-1,0.994h2c0.552,0,1-0.446,1-0.994
					c0-0.211-0.03-0.565-0.077-0.975c-0.015-0.133-0.052-0.608-0.052-0.608c-0.016-0.172,0.06-0.34,0.198-0.444
					c1.625-1.22,4.191-1.707,4.302-1.728c0.382-0.152,0.629-0.517,0.629-0.929v-0.323c0-0.551-0.448-1-1-1h-0.354
					c-0.355,0-0.646-0.29-0.646-0.646c0-0.822,0.493-1.551,1.257-1.857l3.114-1.246c0.382-0.152,0.629-0.517,0.629-0.929v-0.602
					C23.5,10.792,23.226,10.411,22.816,10.274z"/>
			</g>
		</g>
	</g>
	<g>
		<g>
			<path style="fill:#0071BC;" d="M23.072,4.127c-0.163-0.108-0.35-0.165-0.539-0.165c-0.124,0-0.247,0.024-0.359,0.07L13.5,7.502
				l-1.015-6.57c-0.055-0.218-0.249-0.374-0.474-0.379c-0.004,0-0.008,0-0.012,0c-0.221,0-0.415,0.145-0.479,0.356
				c-0.007,0.022-0.019,0.077-0.022,0.1L10.5,7.502l-8.675-3.47c-0.115-0.046-0.236-0.07-0.359-0.07
				c-0.191,0-0.378,0.057-0.542,0.167C0.658,4.31,0.5,4.609,0.5,4.929c0,0.353,0.192,0.678,0.501,0.847l9.532,5.241
				c0.594,0.272,1.011,0.382,1.439,0.382c0.436,0,0.878-0.116,1.568-0.419l9.457-5.204c0.31-0.17,0.502-0.495,0.502-0.848
				C23.5,4.61,23.342,4.311,23.072,4.127z"/>
		</g>
	</g>
	<g>
		<g>
			<g>
				<path style="fill:#FFFFFF;" d="M18.297,9.06c-0.043-0.146-0.148-0.265-0.289-0.323c-0.062-0.025-0.127-0.038-0.191-0.038
					c-0.083,0-0.166,0.021-0.241,0.062l-2.333,1.283c-0.165,0.091-0.265,0.267-0.259,0.455c0.007,0.188,0.118,0.357,0.289,0.437
					c0.808,0.376,1.558,0.567,2.228,0.567c0.377,0,0.643-0.121,0.814-0.374C18.65,10.627,18.49,9.727,18.297,9.06z"/>
			</g>
		</g>
		<g>
			<g>
				<path style="fill:#FFFFFF;" d="M8.765,10.046l-2.33-1.281C6.36,8.724,6.277,8.703,6.194,8.703c-0.064,0-0.13,0.013-0.191,0.038
					c-0.14,0.058-0.246,0.177-0.289,0.322c-0.193,0.666-0.354,1.564-0.018,2.064c0.166,0.249,0.44,0.375,0.815,0.375
					c0.669,0,1.417-0.19,2.224-0.564c0.171-0.08,0.282-0.248,0.289-0.437C9.029,10.313,8.93,10.137,8.765,10.046z"/>
			</g>
		</g>
	</g>
	<g>
		<g>
			<path style="fill:#961E1E;" d="M14.213,13.549c-1.516,0.419-2.906,0.418-4.427-0.002C9.142,13.369,8.5,13.827,8.5,14.495
				c0,0.296,0.038,0.74,0.093,1.23c0.221,1.963,0.205,3.844-0.016,5.807C8.531,21.943,8.5,22.296,8.5,22.508
				c0,0.552,0.448,0.994,1,0.994h5c0.552,0,1-0.442,1-0.994c0-0.211-0.031-0.564-0.077-0.975c-0.221-1.963-0.236-3.844-0.016-5.808
				c0.055-0.489,0.093-0.933,0.093-1.228C15.5,13.828,14.858,13.371,14.213,13.549z"/>
		</g>
	</g>
	<g>
		<g>
			<path style="fill:#DF2C2C;" d="M10.592,21.502c0.205-1.97,0.211-3.853,0.017-5.741c0.468,0.068,0.932,0.101,1.396,0.101
				c0.463,0,0.923-0.033,1.388-0.1c-0.194,1.888-0.188,3.771,0.017,5.739h-2.818V21.502z"/>
		</g>
	</g>
	<g id="Gyarados">
		<g>
			<g>
				<path style="fill:#31395A;" d="M14.5,24.002h-5c-0.827,0-1.5-0.67-1.5-1.494c0-0.224,0.031-0.597,0.08-1.032
					c0.221-1.962,0.226-3.825,0.016-5.695C8.032,15.204,8,14.783,8,14.496c0-0.466,0.212-0.895,0.582-1.177
					c0.38-0.29,0.868-0.384,1.337-0.253c1.442,0.397,2.727,0.397,4.161,0.001l0,0c0.466-0.129,0.956-0.037,1.339,0.253
					C15.788,13.602,16,14.03,16,14.497c0,0.287-0.031,0.707-0.096,1.284c-0.21,1.87-0.205,3.733,0.016,5.696
					c0.049,0.434,0.08,0.807,0.08,1.031C16,23.332,15.327,24.002,14.5,24.002z M9.503,14.009c-0.114,0-0.224,0.036-0.315,0.105
					c-0.07,0.054-0.187,0.174-0.187,0.381c0,0.247,0.03,0.642,0.09,1.174c0.219,1.945,0.213,3.881-0.016,5.918
					c-0.045,0.388-0.074,0.721-0.074,0.92c0,0.272,0.225,0.494,0.5,0.494h5c0.275,0,0.5-0.222,0.5-0.494
					c0-0.199-0.029-0.532-0.074-0.918c-0.229-2.04-0.234-3.976-0.016-5.92c0.06-0.532,0.09-0.926,0.09-1.172
					c0-0.208-0.117-0.328-0.188-0.381c-0.13-0.099-0.298-0.13-0.467-0.085l0,0c-1.597,0.44-3.088,0.441-4.692-0.001
					C9.604,14.016,9.553,14.009,9.503,14.009z"/>
			</g>
		</g>
		<g>
			<g>
				<path style="fill:#31395A;" d="M11.967,11.899c-0.523,0-1.034-0.148-1.676-0.443L0.76,6.215C0.291,5.957,0,5.465,0,4.93
					c0-0.487,0.241-0.941,0.645-1.215s0.916-0.329,1.367-0.147l8.09,3.236l0.904-5.878c0.092-0.543,0.496-0.921,0.983-0.927
					c0.438-0.008,0.881,0.276,1.002,0.909l0.907,5.896l8.09-3.236c0.45-0.181,0.962-0.126,1.367,0.147
					C23.758,3.988,24,4.443,24,4.93c0,0.535-0.291,1.027-0.76,1.285l-9.499,5.225C13.039,11.747,12.497,11.899,11.967,11.899z
					 M1.466,4.462c-0.091,0-0.181,0.027-0.261,0.081C1.075,4.631,1,4.772,1,4.93C1,5.1,1.093,5.257,1.242,5.339l9.499,5.225
					c0.99,0.453,1.476,0.453,2.559-0.021l9.458-5.204C22.907,5.257,23,5.1,23,4.93c0-0.157-0.075-0.298-0.205-0.387
					c-0.133-0.088-0.29-0.106-0.436-0.047l-8.674,3.47c-0.142,0.056-0.302,0.045-0.434-0.03c-0.132-0.076-0.223-0.208-0.246-0.358
					l-1-6.5c-0.002-0.009-0.004-0.018-0.006-0.025c-0.003,0.01-0.005,0.021-0.007,0.033l-0.999,6.493
					c-0.023,0.15-0.114,0.282-0.246,0.358c-0.132,0.075-0.292,0.086-0.434,0.03l-8.674-3.47C1.583,4.474,1.524,4.462,1.466,4.462z"
					/>
			</g>
		</g>
		<g>
			<g>
				<path style="fill:#31395A;" d="M17.5,12.002c-1.663,0-3.266-1.052-3.333-1.097c-0.23-0.153-0.293-0.462-0.141-0.692
					c0.152-0.231,0.463-0.293,0.693-0.141c0.014,0.009,1.423,0.931,2.78,0.931c0.297,0,0.368-0.106,0.399-0.152
					c0.266-0.397,0-1.533-0.264-2.175c-0.105-0.255,0.017-0.547,0.271-0.652c0.257-0.104,0.548,0.016,0.652,0.271
					c0.144,0.348,0.827,2.131,0.171,3.112C18.549,11.678,18.187,12.002,17.5,12.002z"/>
			</g>
		</g>
		<g>
			<g>
				<path style="fill:#31395A;" d="M6.511,12.002c-0.688,0-1.049-0.324-1.23-0.597c-0.656-0.98,0.026-2.764,0.17-3.112
					c0.104-0.254,0.396-0.375,0.652-0.271C6.358,8.127,6.48,8.419,6.374,8.675c-0.263,0.642-0.529,1.777-0.263,2.175
					c0.03,0.045,0.103,0.152,0.399,0.152c1.357,0,2.767-0.921,2.78-0.931c0.229-0.151,0.54-0.09,0.693,0.141
					c0.152,0.23,0.09,0.54-0.141,0.692C9.776,10.95,8.174,12.002,6.511,12.002z"/>
			</g>
		</g>
		<g>
			<g>
				<path style="fill:#31395A;" d="M10.5,16.002c-0.276,0-0.5-0.224-0.5-0.5v-1.786c0-0.276,0.224-0.5,0.5-0.5s0.5,0.224,0.5,0.5
					v1.786C11,15.778,10.776,16.002,10.5,16.002z"/>
			</g>
		</g>
		<g>
			<g>
				<path style="fill:#31395A;" d="M13.5,16.002c-0.276,0-0.5-0.224-0.5-0.5v-1.786c0-0.276,0.224-0.5,0.5-0.5s0.5,0.224,0.5,0.5
					v1.786C14,15.778,13.776,16.002,13.5,16.002z"/>
			</g>
		</g>
		<g>
			<g>
				<path style="fill:#31395A;" d="M10.5,24.002c-0.276,0-0.5-0.224-0.5-0.5v-2c0-0.276,0.224-0.5,0.5-0.5s0.5,0.224,0.5,0.5v2
					C11,23.778,10.776,24.002,10.5,24.002z"/>
			</g>
		</g>
		<g>
			<g>
				<path style="fill:#31395A;" d="M13.5,24.002c-0.276,0-0.5-0.224-0.5-0.5v-2c0-0.276,0.224-0.5,0.5-0.5s0.5,0.224,0.5,0.5v2
					C14,23.778,13.776,24.002,13.5,24.002z"/>
			</g>
		</g>
		<g>
			<g>
				<path style="fill:#31395A;" d="M17.895,6.201c-0.116,0-0.233-0.04-0.328-0.123c-1.335-1.159-2.969-1.863-4.724-2.036
					c-0.275-0.027-0.476-0.272-0.449-0.546c0.027-0.275,0.276-0.47,0.547-0.449c1.963,0.193,3.789,0.98,5.282,2.276
					c0.208,0.181,0.23,0.497,0.05,0.705C18.173,6.143,18.034,6.201,17.895,6.201z"/>
			</g>
		</g>
		<g>
			<g>
				<path style="fill:#31395A;" d="M6.079,6.224c-0.139,0-0.277-0.058-0.377-0.171C5.52,5.845,5.542,5.529,5.75,5.347
					c1.498-1.309,3.333-2.104,5.307-2.299c0.27-0.021,0.519,0.174,0.547,0.448c0.026,0.275-0.174,0.52-0.449,0.547
					C9.39,4.217,7.749,4.928,6.409,6.1C6.313,6.183,6.196,6.224,6.079,6.224z"/>
			</g>
		</g>
		<g>
			<g>
				<path style="fill:#31395A;" d="M15.358,21.143c-0.143,0-0.285-0.061-0.384-0.18c-0.177-0.212-0.148-0.527,0.063-0.704
					c1.613-1.347,4.242-1.901,4.685-1.987c0.17-0.084,0.277-0.256,0.277-0.448v-0.323c0-0.276-0.225-0.5-0.5-0.5h-0.354
					c-0.632,0-1.146-0.514-1.146-1.146c0-1.028,0.616-1.939,1.571-2.321l3.114-1.246c0.191-0.076,0.314-0.259,0.314-0.464v-0.602
					c0-0.215-0.138-0.406-0.342-0.475L20.34,9.975c-0.149-0.049-0.266-0.167-0.316-0.315c-0.103-0.308-0.458-1.203-0.859-1.638
					c-0.188-0.203-0.175-0.519,0.028-0.707c0.203-0.187,0.52-0.174,0.706,0.029c0.473,0.512,0.83,1.349,0.987,1.759l2.087,0.696
					c0.613,0.205,1.025,0.776,1.025,1.423v0.602c0,0.617-0.37,1.164-0.943,1.393l-3.114,1.246c-0.572,0.229-0.942,0.776-0.942,1.393
					c0,0.081,0.065,0.146,0.146,0.146h0.354c0.827,0,1.5,0.673,1.5,1.5v0.323c0,0.617-0.37,1.164-0.943,1.393
					c-0.031,0.012-0.063,0.022-0.097,0.028c-0.027,0.005-2.758,0.509-4.281,1.781C15.585,21.105,15.472,21.143,15.358,21.143z"/>
			</g>
		</g>
		<g>
			<g>
				<path style="fill:#31395A;" d="M8.647,21.126c-0.113,0-0.227-0.038-0.32-0.116c-1.526-1.274-4.256-1.758-4.283-1.763
					c-0.034-0.006-0.068-0.016-0.101-0.028C3.37,18.99,3,18.443,3,17.826v-0.323c0-0.827,0.673-1.5,1.5-1.5h0.354
					c0.08,0,0.146-0.065,0.146-0.146c0-0.617-0.37-1.164-0.942-1.393l-3.114-1.246c-0.573-0.229-0.943-0.776-0.943-1.393v-0.602
					c0-0.646,0.412-1.218,1.025-1.423l2.087-0.696C3.27,8.694,3.628,7.857,4.1,7.345C4.288,7.142,4.604,7.13,4.806,7.316
					C5.009,7.504,5.022,7.82,4.834,8.023C4.431,8.461,4.077,9.353,3.975,9.66c-0.05,0.149-0.167,0.267-0.316,0.316l-2.316,0.772
					c-0.204,0.068-0.342,0.259-0.342,0.475v0.602c0,0.206,0.123,0.388,0.314,0.464l3.114,1.246C5.384,13.917,6,14.828,6,15.856
					c0,0.632-0.514,1.146-1.146,1.146H4.5c-0.275,0-0.5,0.224-0.5,0.5v0.323c0,0.192,0.107,0.363,0.276,0.447
					c0.449,0.084,3.079,0.624,4.691,1.97c0.212,0.177,0.24,0.492,0.063,0.704C8.933,21.064,8.79,21.126,8.647,21.126z"/>
			</g>
		</g>
		<g>
			<g>
				<path style="fill:#31395A;" d="M12,19.502c-0.063,0-0.127-0.012-0.186-0.035c-0.012-0.005-1.175-0.458-3.05-0.458
					c-0.276,0-0.5-0.224-0.5-0.5s0.224-0.5,0.5-0.5c1.647,0,2.796,0.318,3.23,0.462c0.438-0.154,1.604-0.497,3.252-0.497
					c0.276,0,0.5,0.224,0.5,0.5s-0.224,0.5-0.5,0.5c-1.859,0-3.041,0.485-3.053,0.49C12.133,19.489,12.066,19.502,12,19.502z"/>
			</g>
		</g>
		<g>
			<g>
				<circle style="fill:#31395A;" cx="7.5" cy="10.502" r="0.5"/>
			</g>
		</g>
		<g>
			<g>
				<circle style="fill:#31395A;" cx="16.5" cy="10.502" r="0.5"/>
			</g>
		</g>
	</g>
</g>
</svg>
