<?xml version="1.0" encoding="iso-8859-1"?>
<!-- Generator: Adobe Illustrator 19.0.0, SVG Export Plug-In . SVG Version: 6.00 Build 0)  -->
<svg version="1.1" id="Layer_1" xmlns="http://www.w3.org/2000/svg" xmlns:xlink="http://www.w3.org/1999/xlink" x="0px" y="0px"
	 viewBox="0 0 24 24" style="enable-background:new 0 0 24 24;" xml:space="preserve">
<g>
	<g>
		<g>
			<path style="fill:#F5ADEF;" d="M18.19,23.5c-0.45,0-0.938-0.047-1.409-0.136c-1.252-0.235-2.318-0.725-2.851-1.309
				c-0.12-0.131-0.161-0.315-0.108-0.484c0.04-0.129,0.129-0.235,0.246-0.296c-0.671,0.149-1.363,0.225-2.063,0.225
				c-0.697,0-1.389-0.075-2.062-0.223c0.115,0.061,0.204,0.166,0.244,0.293c0.053,0.17,0.012,0.354-0.108,0.486
				c-0.532,0.583-1.598,1.073-2.85,1.308C6.758,23.453,6.271,23.5,5.821,23.5c-0.407,0-0.778-0.037-1.104-0.109
				c-0.701-0.156-1.129-0.458-1.204-0.851c-0.073-0.397,0.215-0.834,0.812-1.234c0.589-0.396,1.446-0.72,2.352-0.89
				c0.242-0.046,0.482-0.08,0.716-0.103c-0.617-0.348-1.173-0.759-1.758-1.289c-0.145-0.131-0.199-0.334-0.141-0.521
				c-1.108,0.246-2.111,0.37-2.972,0.37c-0.524,0-0.988-0.045-1.379-0.135c-0.163-0.037-0.296-0.153-0.355-0.309
				s-0.038-0.331,0.059-0.467c0.491-0.695,1.35-1.685,2.655-2.456c-0.201-0.011-0.377-0.133-0.444-0.323
				c-0.369-1.037-0.556-2.105-0.556-3.177c0-0.794,0.094-1.566,0.278-2.299C2.703,9.869,2.544,9.98,2.36,9.992
				c-0.011,0-0.021,0.001-0.032,0.001c-0.203,0-0.387-0.123-0.464-0.313C0.73,6.872,0.537,3.387,0.507,2.019
				c-0.003-0.137,0.051-0.27,0.148-0.366c0.094-0.093,0.22-0.145,0.352-0.145c0.005,0,0.011,0,0.016,0
				c1.195,0.038,4.234,0.255,6.636,1.464c0.17,0.086,0.276,0.26,0.275,0.451c-0.002,0.19-0.11,0.363-0.282,0.446L7.528,3.931
				c0.09-0.044,0.183-0.087,0.275-0.13c0.066-0.031,0.139-0.046,0.21-0.046c0.09,0,0.18,0.024,0.259,0.072
				c0.142,0.086,0.232,0.237,0.24,0.403c0.094,1.84,1.375,5.271,3.49,5.271c1.103,0,2-0.897,2-2c0-0.173-0.007-0.4-0.062-0.626
				c-0.054-0.223,0.052-0.453,0.254-0.56c0.307-0.161,0.586-0.409,0.807-0.718c0.277-0.386,0.437-0.851,0.475-1.385
				c0.012-0.164,0.104-0.311,0.245-0.395c0.078-0.046,0.166-0.069,0.254-0.069c0.071,0,0.143,0.015,0.209,0.046
				c0.15,0.069,0.3,0.139,0.438,0.211c-0.085-0.044-0.174-0.089-0.266-0.133c-0.172-0.083-0.281-0.256-0.283-0.446
				s0.105-0.365,0.275-0.451c2.401-1.209,5.438-1.427,6.633-1.465c0.005,0,0.011,0,0.016,0c0.132,0,0.258,0.052,0.352,0.145
				c0.098,0.096,0.151,0.229,0.148,0.366c-0.03,1.367-0.224,4.849-1.355,7.657c-0.077,0.19-0.261,0.313-0.464,0.313
				c-0.011,0-0.021,0-0.032-0.001c-0.188-0.012-0.351-0.128-0.425-0.296c0.187,0.724,0.282,1.505,0.282,2.308
				c0,1.073-0.187,2.142-0.556,3.178c-0.067,0.189-0.241,0.32-0.442,0.332c1.368,0.8,2.248,1.876,2.65,2.446
				c0.097,0.136,0.118,0.312,0.059,0.468c-0.06,0.156-0.193,0.271-0.356,0.309c-0.393,0.089-0.855,0.134-1.378,0.134
				c-0.859,0-1.861-0.123-2.977-0.365c0.059,0.186,0.011,0.386-0.134,0.517c-0.603,0.547-1.178,0.97-1.756,1.292
				c0.237,0.026,0.479,0.06,0.726,0.107c0.906,0.171,1.763,0.495,2.351,0.89c0.597,0.4,0.885,0.837,0.812,1.23
				c-0.075,0.396-0.503,0.698-1.204,0.854C18.968,23.462,18.597,23.5,18.19,23.5z"/>
		</g>
	</g>
	<g>
		<g>
			<g>
				<path style="fill:#31395A;" d="M4.442,3.969C4.056,3.876,3.65,3.794,3.233,3.726C3.207,3.722,3.179,3.72,3.153,3.72
					c-0.127,0-0.251,0.049-0.345,0.138c-0.113,0.108-0.17,0.263-0.152,0.418C2.707,4.731,2.767,5.178,2.84,5.61
					c0.032,0.195,0.177,0.353,0.369,0.402C3.25,6.023,3.292,6.028,3.333,6.028c0.151,0,0.297-0.068,0.393-0.19
					c0.284-0.36,0.6-0.702,0.939-1.015C4.8,4.698,4.855,4.509,4.81,4.33C4.763,4.15,4.622,4.012,4.442,3.969z"/>
			</g>
		</g>
		<g>
			<g>
				<path style="fill:#31395A;" d="M21.139,3.857c-0.094-0.089-0.218-0.138-0.345-0.138c-0.026,0-0.054,0.002-0.08,0.006
					c-0.417,0.068-0.823,0.149-1.209,0.243c-0.18,0.043-0.32,0.182-0.367,0.36c-0.046,0.179,0.01,0.368,0.145,0.493
					c0.341,0.315,0.657,0.656,0.939,1.015c0.096,0.123,0.241,0.191,0.393,0.191c0.041,0,0.083-0.005,0.124-0.016
					c0.192-0.049,0.337-0.207,0.369-0.402c0.072-0.432,0.133-0.879,0.184-1.334C21.309,4.12,21.252,3.965,21.139,3.857z"/>
			</g>
		</g>
	</g>
	<g>
		<g>
			<path style="fill:#FF7BAC;" d="M12.001,19.5c-0.857,0-1.407-1.791-1.487-3.476c-0.007-0.137,0.043-0.27,0.137-0.369
				c0.095-0.099,0.226-0.155,0.362-0.155h1.977c0.137,0,0.268,0.056,0.362,0.155s0.144,0.232,0.137,0.369
				C13.408,17.709,12.858,19.5,12.001,19.5z"/>
		</g>
	</g>
	<g>
		<g>
			<path style="fill:#F5ADEF;" d="M12.001,9.5c-2.171,0-3.5-3.561-3.5-5.5c0-1.011,0.437-1.973,1.2-2.639
				c0.646-0.563,1.44-0.862,2.296-0.862c0.164,0,0.331,0.011,0.498,0.035c1.279,0.175,2.385,1.107,2.816,2.374
				c0.452,1.327,0,2.252-0.31,2.687c-0.321,0.449-0.763,0.767-1.212,0.871C13.676,6.49,13.586,6.5,13.5,6.5h-1c-0.552,0-1,0.449-1,1
				c0-0.551,0.448-1,1-1h0.955c0.232,0,0.435,0.16,0.487,0.387C13.981,7.057,14,7.252,14,7.5C14.001,8.603,13.104,9.5,12.001,9.5z"
				/>
		</g>
	</g>
	<g>
		<g>
			<g>
				<path style="fill:#DD9CD8;" d="M20.503,15.509c0.201-0.011,0.375-0.142,0.442-0.332c0.369-1.036,0.556-2.105,0.556-3.178
					c0-0.803-0.096-1.584-0.282-2.308c0.074,0.167,0.237,0.284,0.425,0.296c0.011,0,0.021,0.001,0.032,0.001
					c0.203,0,0.387-0.123,0.464-0.313c1.132-2.808,1.325-6.291,1.355-7.657c0.003-0.137-0.051-0.27-0.148-0.366
					c-0.094-0.093-0.22-0.145-0.352-0.145c-0.005,0-0.011,0-0.016,0c-0.467,0.015-1.221,0.06-2.104,0.178
					c0.08,0.093,0.128,0.209,0.126,0.332c-0.03,1.367-0.224,4.849-1.355,7.657c-0.077,0.19-0.261,0.313-0.464,0.313
					c-0.011,0-0.021,0-0.032-0.001c-0.188-0.012-0.351-0.128-0.425-0.296c0.187,0.724,0.282,1.505,0.282,2.308
					c0,1.073-0.187,2.142-0.556,3.178c-0.067,0.189-0.241,0.32-0.442,0.332c1.368,0.8,2.248,1.876,2.65,2.446
					c0.097,0.136,0.118,0.312,0.059,0.468c-0.06,0.156-0.193,0.271-0.356,0.309c-0.083,0.019-0.181,0.028-0.271,0.042
					c0.495,0.061,0.959,0.091,1.387,0.091c0.522,0,0.985-0.045,1.378-0.134c0.163-0.037,0.297-0.153,0.356-0.309
					c0.06-0.156,0.038-0.332-0.059-0.468C22.751,17.386,21.871,16.31,20.503,15.509z"/>
			</g>
		</g>
		<g>
			<g>
				<path style="fill:#DD9CD8;" d="M5.163,2.971c0.17,0.086,0.276,0.26,0.275,0.451c-0.002,0.19-0.11,0.363-0.282,0.446L5.032,3.93
					c0.09-0.044,0.183-0.087,0.275-0.13c0.066-0.031,0.139-0.046,0.21-0.046c0.09,0,0.18,0.024,0.259,0.072
					c0.142,0.086,0.232,0.237,0.24,0.403C6.11,6.069,7.391,9.5,9.506,9.5c0.47,0,0.897-0.17,1.239-0.442
					C9.387,8.076,8.584,5.668,8.51,4.229C8.502,4.063,8.411,3.912,8.27,3.826C8.191,3.778,8.101,3.754,8.011,3.754
					c-0.071,0-0.144,0.015-0.21,0.046C7.708,3.843,7.615,3.886,7.526,3.93L7.65,3.868c0.172-0.083,0.28-0.256,0.282-0.446
					c0.001-0.19-0.105-0.365-0.275-0.451c-2.401-1.209-5.44-1.427-6.636-1.464c-0.005,0-0.011,0-0.016,0
					c-0.132,0-0.258,0.052-0.352,0.145c-0.01,0.01-0.013,0.023-0.022,0.033C2.007,1.869,3.701,2.235,5.163,2.971z"/>
			</g>
		</g>
		<g>
			<g>
				<path style="fill:#DD9CD8;" d="M11.574,21.274c-0.269,0.06-0.543,0.099-0.817,0.135c0.208,0.027,0.418,0.043,0.628,0.057
					C11.432,21.387,11.492,21.317,11.574,21.274z"/>
			</g>
		</g>
		<g>
			<g>
				<path style="fill:#DD9CD8;" d="M3.027,18.839c-0.044-0.107-0.064-0.221-0.028-0.336c-0.556,0.124-1.086,0.216-1.584,0.277
					c0.332,0.056,0.694,0.092,1.107,0.092C2.678,18.873,2.861,18.847,3.027,18.839z"/>
			</g>
		</g>
		<g>
			<g>
				<path style="fill:#DD9CD8;" d="M10.131,21.466c-0.206,0.013-0.412,0.033-0.62,0.033c-0.697,0-1.389-0.075-2.062-0.223
					c0.115,0.061,0.204,0.166,0.244,0.293c0.053,0.17,0.012,0.354-0.108,0.486c-0.532,0.583-1.598,1.073-2.85,1.308
					c-0.024,0.005-0.049,0.006-0.073,0.01c0.02,0.005,0.034,0.012,0.054,0.016c0.326,0.072,0.697,0.109,1.104,0.109
					c0.45,0,0.938-0.047,1.408-0.136c1.252-0.235,2.317-0.725,2.85-1.308c0.12-0.131,0.161-0.316,0.108-0.486
					C10.175,21.531,10.151,21.499,10.131,21.466z"/>
			</g>
		</g>
		<g>
			<g>
				<path style="fill:#DD9CD8;" d="M19.688,21.305c-0.588-0.395-1.444-0.719-2.351-0.89c-0.246-0.047-0.488-0.081-0.726-0.107
					c0.578-0.322,1.153-0.744,1.756-1.292c0.056-0.051,0.085-0.118,0.111-0.185c-0.745-0.036-1.559-0.134-2.472-0.332
					c0.059,0.186,0.011,0.386-0.134,0.517c-0.603,0.547-1.178,0.97-1.756,1.292c0.237,0.026,0.479,0.06,0.726,0.107
					c0.906,0.171,1.763,0.495,2.351,0.89c0.597,0.4,0.885,0.837,0.812,1.23c-0.073,0.385-0.484,0.678-1.15,0.838
					c0.449,0.08,0.909,0.126,1.336,0.126c0.406,0,0.777-0.037,1.104-0.109c0.701-0.156,1.129-0.458,1.204-0.854
					C20.572,22.142,20.284,21.705,19.688,21.305z"/>
			</g>
		</g>
	</g>
	<g>
		<g>
			<path style="fill:#DD9CD8;" d="M15.312,2.908c-0.432-1.267-1.537-2.199-2.816-2.374c-0.167-0.023-0.334-0.035-0.498-0.035
				c-0.44,0-0.862,0.081-1.257,0.235c0.952,0.369,1.732,1.16,2.077,2.174c0.452,1.327,0,2.252-0.31,2.687
				c-0.321,0.449-0.763,0.767-1.212,0.871C11.183,6.49,11.093,6.5,11.007,6.5h-0.045c0.232,0,0.435,0.16,0.487,0.387
				c0.039,0.17,0.058,0.365,0.058,0.613c0,0.635-0.303,1.195-0.766,1.562c0.38,0.271,0.8,0.438,1.261,0.438c1.103,0,2-0.897,2-2
				c0-0.249-0.019-0.443-0.058-0.613C13.891,6.66,13.689,6.5,13.457,6.5h0.045c0.086,0,0.176-0.01,0.289-0.034
				c0.449-0.104,0.891-0.422,1.212-0.871C15.312,5.161,15.764,4.235,15.312,2.908z"/>
		</g>
	</g>
	<g>
		<g>
			<path style="fill:#E66F9B;" d="M12.001,17c0.485,0,0.934,0.144,1.318,0.383c0.088-0.437,0.148-0.9,0.17-1.359
				c0.007-0.137-0.043-0.27-0.137-0.369c-0.095-0.099-0.226-0.155-0.362-0.155h-1.977c-0.137,0-0.268,0.056-0.362,0.155
				s-0.144,0.232-0.137,0.369c0.022,0.459,0.081,0.923,0.17,1.359C11.067,17.144,11.516,17,12.001,17z"/>
		</g>
	</g>
	<g>
		<g>
			<g>
				<circle style="fill:#FFFFFF;" cx="7.001" cy="12" r="2.5"/>
			</g>
		</g>
		<g>
			<g>
				<circle style="fill:#FFFFFF;" cx="17.001" cy="12" r="2.5"/>
			</g>
		</g>
	</g>
	<g id="Jigglypuff">
		<g>
			<g>
				<path style="fill:#31395A;" d="M12.001,22c-0.892,0-1.775-0.118-2.629-0.35c-0.267-0.072-0.424-0.347-0.352-0.614
					c0.072-0.265,0.346-0.423,0.613-0.351c1.535,0.417,3.195,0.418,4.723,0.003c0.271-0.073,0.541,0.085,0.613,0.352
					s-0.085,0.542-0.352,0.613C13.77,21.884,12.89,22,12.001,22z"/>
			</g>
		</g>
		<g>
			<g>
				<path style="fill:#31395A;" d="M20.769,16.165c-0.064,0-0.13-0.012-0.193-0.039c-0.254-0.107-0.374-0.399-0.268-0.654
					c0.46-1.1,0.693-2.269,0.693-3.472c0-0.822-0.105-1.62-0.314-2.372c-0.074-0.266,0.081-0.542,0.348-0.616
					c0.271-0.072,0.541,0.083,0.615,0.348c0.233,0.84,0.351,1.727,0.351,2.64c0,1.337-0.26,2.635-0.771,3.858
					C21.149,16.05,20.964,16.165,20.769,16.165z"/>
			</g>
		</g>
		<g>
			<g>
				<path style="fill:#31395A;" d="M7.001,15c-1.654,0-3-1.346-3-3s1.346-3,3-3s3,1.346,3,3S8.655,15,7.001,15z M7.001,10
					c-1.103,0-2,0.897-2,2s0.897,2,2,2s2-0.897,2-2S8.104,10,7.001,10z"/>
			</g>
		</g>
		<g>
			<g>
				<path style="fill:#31395A;" d="M17.001,15c-1.654,0-3-1.346-3-3s1.346-3,3-3s3,1.346,3,3S18.655,15,17.001,15z M17.001,10
					c-1.103,0-2,0.897-2,2s0.897,2,2,2s2-0.897,2-2S18.104,10,17.001,10z"/>
			</g>
		</g>
		<g>
			<g>
				<path style="fill:#31395A;" d="M12.001,10c-2.588,0-4-3.963-4-6c0-1.156,0.5-2.254,1.371-3.015
					c0.871-0.76,2.031-1.104,3.19-0.947c1.465,0.201,2.729,1.264,3.223,2.708c0.383,1.124,0.246,2.269-0.378,3.14
					c-0.271,0.378-0.613,0.678-0.981,0.871c0.063,0.264,0.075,0.523,0.075,0.743C14.501,8.878,13.38,10,12.001,10z M11.997,1
					c-0.727,0-1.413,0.255-1.967,0.739C9.376,2.309,9.001,3.133,9.001,4c0,1.756,1.237,5,3,5c0.827,0,1.5-0.673,1.5-1.5
					c0-0.204-0.014-0.366-0.045-0.5h-0.955c-0.275,0-0.5,0.224-0.5,0.5S11.777,8,11.501,8s-0.5-0.224-0.5-0.5
					c0-0.827,0.673-1.5,1.5-1.5h1c0.05,0,0.104-0.006,0.16-0.018c0.005-0.001,0.01-0.002,0.016-0.003
					c0.282-0.065,0.637-0.281,0.918-0.674c0.254-0.355,0.624-1.119,0.243-2.235c-0.371-1.089-1.317-1.89-2.411-2.04
					C12.282,1.009,12.139,1,11.997,1z"/>
			</g>
		</g>
		<g>
			<g>
				<circle style="fill:#31395A;" cx="6.501" cy="11.5" r="1"/>
			</g>
		</g>
		<g>
			<g>
				<circle style="fill:#31395A;" cx="16.501" cy="11.5" r="1"/>
			</g>
		</g>
		<g>
			<g>
				<path style="fill:#31395A;" d="M3.069,7.296c-0.025,0-0.052-0.002-0.077-0.006c-0.203-0.032-0.365-0.184-0.41-0.384
					C2.361,5.93,2.192,4.813,2.095,3.677c-0.013-0.15,0.043-0.299,0.151-0.404c0.108-0.104,0.258-0.154,0.409-0.136
					C3.671,3.265,4.61,3.464,5.45,3.728c0.043,0.006,0.085,0.018,0.126,0.035C5.74,3.832,5.854,3.984,5.877,4.161
					C5.898,4.33,5.832,4.503,5.7,4.612C5.679,4.63,5.655,4.645,5.634,4.659C4.758,5.328,4.04,6.132,3.5,7.049
					C3.409,7.204,3.244,7.296,3.069,7.296z M3.153,4.22c0.05,0.446,0.109,0.885,0.18,1.308c0.3-0.38,0.631-0.739,0.992-1.073
					C3.951,4.364,3.558,4.285,3.153,4.22z"/>
			</g>
		</g>
		<g>
			<g>
				<path style="fill:#31395A;" d="M20.878,7.296c-0.175,0-0.34-0.092-0.431-0.246c-0.537-0.912-1.249-1.711-2.117-2.377
					c-0.02-0.011-0.039-0.023-0.058-0.037c-0.13-0.094-0.206-0.244-0.206-0.404V4.224c0-0.189,0.107-0.363,0.276-0.447
					c0.05-0.025,0.103-0.041,0.155-0.048c0.838-0.264,1.777-0.463,2.794-0.591c0.148-0.018,0.301,0.031,0.409,0.136
					s0.164,0.253,0.151,0.404c-0.099,1.136-0.267,2.252-0.487,3.229c-0.045,0.2-0.207,0.353-0.41,0.384
					C20.93,7.294,20.903,7.296,20.878,7.296z M19.622,4.455c0.361,0.334,0.692,0.692,0.992,1.073c0.07-0.423,0.13-0.862,0.18-1.308
					C20.39,4.286,19.996,4.364,19.622,4.455z"/>
			</g>
		</g>
		<g>
			<g>
				<path style="fill:#31395A;" d="M2.501,11.5c-0.171,0-0.339-0.088-0.432-0.248c-2.14-3.657-2.072-9.513-2.068-9.76
					C0.005,1.222,0.222,1.005,0.491,1c0.206,0.002,5.123-0.074,8.326,2.067c0.155,0.104,0.239,0.286,0.219,0.472
					C9.015,3.725,8.891,3.883,8.718,3.95C8.35,4.09,7.961,4.265,7.622,4.442C7.378,4.569,7.074,4.475,6.947,4.23
					C6.819,3.985,6.914,3.683,7.159,3.555c0.088-0.046,0.18-0.092,0.273-0.137C5.118,2.252,2.161,2.043,1.005,2.007
					c0.033,1.48,0.274,5.917,1.927,8.741c0.14,0.238,0.06,0.544-0.179,0.684C2.674,11.478,2.587,11.5,2.501,11.5z"/>
			</g>
		</g>
		<g>
			<g>
				<path style="fill:#31395A;" d="M21.5,11.5c-0.086,0-0.173-0.022-0.253-0.068c-0.238-0.14-0.318-0.446-0.179-0.684
					c1.652-2.824,1.894-7.26,1.927-8.74c-1.156,0.037-4.11,0.248-6.424,1.412c0.104,0.05,0.204,0.101,0.302,0.151
					c0.244,0.128,0.339,0.43,0.21,0.675c-0.128,0.246-0.432,0.339-0.675,0.211c-0.341-0.179-0.74-0.358-1.123-0.504
					c-0.175-0.067-0.298-0.225-0.319-0.411s0.063-0.368,0.219-0.472C18.386,0.929,23.298,1.001,23.51,1
					c0.269,0.005,0.486,0.223,0.49,0.492c0.004,0.248,0.071,6.104-2.068,9.76C21.839,11.412,21.671,11.5,21.5,11.5z"/>
			</g>
		</g>
		<g>
			<g>
				<path style="fill:#31395A;" d="M12.001,20c-1.313,0-2-2.264-2-4.5c0-0.276,0.224-0.5,0.5-0.5h3c0.276,0,0.5,0.224,0.5,0.5
					C14.001,17.736,13.314,20,12.001,20z M11.013,16c0.094,1.953,0.72,3,0.988,3s0.895-1.047,0.988-3H11.013z"/>
			</g>
		</g>
		<g>
			<g>
				<path style="fill:#31395A;" d="M18.188,24c-0.478,0-0.986-0.048-1.5-0.146c-1.721-0.324-3.575-1.24-3.58-2.486
					c-0.001-0.277,0.241-0.499,0.5-0.502c0.275,0,0.499,0.223,0.5,0.498c0.001,0.354,0.927,1.162,2.766,1.508
					c0.842,0.159,1.684,0.169,2.313,0.03c0.527-0.117,0.795-0.319,0.821-0.457c0.026-0.143-0.147-0.422-0.599-0.725
					c-0.534-0.358-1.323-0.655-2.165-0.813c-0.231-0.044-0.459-0.076-0.68-0.097c-0.205-0.02-0.377-0.163-0.433-0.36
					c-0.064-0.223,0.033-0.465,0.236-0.578c0.786-0.437,1.502-0.99,2.13-1.643c0.191-0.2,0.508-0.204,0.707-0.015
					c0.199,0.191,0.205,0.508,0.014,0.707c-0.393,0.409-0.816,0.783-1.269,1.118c0.778,0.197,1.48,0.492,2.017,0.852
					c1.044,0.701,1.089,1.391,1.023,1.74s-0.359,0.976-1.587,1.248C19.037,23.959,18.626,24,18.188,24z"/>
			</g>
		</g>
		<g>
			<g>
				<path style="fill:#31395A;" d="M21.485,19.368c-0.782,0-1.796-0.097-3.091-0.38c-0.27-0.059-0.44-0.325-0.382-0.595
					s0.324-0.443,0.595-0.382c2.242,0.488,3.516,0.374,4.138,0.232c-0.411-0.582-1.232-1.565-2.498-2.313
					c-0.238-0.141-0.317-0.447-0.177-0.685c0.142-0.238,0.45-0.315,0.685-0.176c2.16,1.276,3.147,3.12,3.188,3.198
					c0.118,0.224,0.05,0.501-0.159,0.645C23.69,18.977,23.056,19.368,21.485,19.368z"/>
			</g>
		</g>
		<g>
			<g>
				<path style="fill:#31395A;" d="M5.822,24c-0.437,0-0.848-0.041-1.215-0.122c-1.227-0.272-1.521-0.899-1.586-1.248
					C2.956,22.28,3,21.59,4.044,20.89c0.532-0.357,1.23-0.652,2.004-0.849c-0.451-0.334-0.874-0.707-1.266-1.115
					c-0.191-0.199-0.186-0.516,0.014-0.707c0.2-0.189,0.517-0.185,0.707,0.015c0.612,0.637,1.31,1.179,2.074,1.611
					c0.164,0.063,0.289,0.211,0.315,0.396c0.037,0.265-0.14,0.512-0.403,0.562c-0.017,0.003-0.033,0.006-0.05,0.007
					c-0.219,0.021-0.444,0.053-0.673,0.096c-0.843,0.158-1.631,0.455-2.165,0.813c-0.451,0.303-0.625,0.582-0.599,0.725
					c0.026,0.138,0.294,0.339,0.821,0.457c0.626,0.139,1.471,0.128,2.312-0.03c1.839-0.346,2.765-1.153,2.766-1.508
					c0.001-0.275,0.225-0.498,0.5-0.498c0.001,0,0.001,0,0.002,0c0.276,0.001,0.499,0.226,0.498,0.502
					c-0.005,1.246-1.859,2.163-3.58,2.486C6.809,23.952,6.3,24,5.822,24z"/>
			</g>
		</g>
		<g>
			<g>
				<path style="fill:#31395A;" d="M3.233,16.17c-0.195,0-0.381-0.115-0.461-0.307c-0.512-1.224-0.771-2.521-0.771-3.858
					c0-0.913,0.118-1.8,0.352-2.639C2.427,9.1,2.698,8.945,2.968,9.018c0.267,0.074,0.422,0.35,0.348,0.616
					c-0.209,0.751-0.314,1.55-0.314,2.372c0,1.203,0.233,2.372,0.693,3.472c0.106,0.255-0.014,0.548-0.268,0.654
					C3.363,16.158,3.298,16.17,3.233,16.17z"/>
			</g>
		</g>
		<g>
			<g>
				<path style="fill:#31395A;" d="M2.517,19.374c-1.57,0-2.205-0.391-2.299-0.457c-0.209-0.144-0.277-0.42-0.159-0.645
					c0.041-0.078,1.028-1.921,3.188-3.198c0.234-0.141,0.543-0.062,0.685,0.176c0.141,0.238,0.062,0.544-0.177,0.685
					c-1.274,0.753-2.092,1.735-2.501,2.314c0.616,0.141,1.892,0.257,4.141-0.233c0.273-0.063,0.536,0.112,0.595,0.382
					s-0.112,0.536-0.382,0.595C4.313,19.276,3.299,19.374,2.517,19.374z"/>
			</g>
		</g>
	</g>
</g>
</svg>
