<?xml version="1.0" encoding="iso-8859-1"?>
<!-- Generator: Adobe Illustrator 19.0.0, SVG Export Plug-In . SVG Version: 6.00 Build 0)  -->
<svg version="1.1" id="Layer_1" xmlns="http://www.w3.org/2000/svg" xmlns:xlink="http://www.w3.org/1999/xlink" x="0px" y="0px"
	 viewBox="0 0 24 24" style="enable-background:new 0 0 24 24;" xml:space="preserve">
<g>
	<g>
		<g>
			<path style="fill:#FF7BAC;" d="M20.347,10.304c-0.152,0-0.299-0.07-0.395-0.193c-0.447-0.575-0.99-1.104-1.612-1.571
				c-0.135-0.102-0.209-0.265-0.198-0.434c0.012-0.168,0.107-0.32,0.255-0.403c0.63-0.352,1.409-0.637,2.316-0.848
				c0.038-0.008,0.076-0.013,0.113-0.013c0.123,0,0.243,0.045,0.336,0.129c0.121,0.11,0.181,0.272,0.16,0.435
				c-0.117,0.905-0.283,1.756-0.493,2.528c-0.05,0.183-0.198,0.322-0.384,0.359C20.412,10.3,20.379,10.304,20.347,10.304z"/>
		</g>
	</g>
	<g>
		<g>
			<path style="fill:#F8EEC0;" d="M21.598,12.687c-0.206-0.011-0.386-0.147-0.45-0.344c-0.14-0.426-0.317-0.836-0.527-1.219
				c-0.068-0.123-0.081-0.269-0.036-0.402c0.516-1.521,0.733-3.163,0.817-4.007c-0.782,0.14-2.262,0.487-3.375,1.238
				c-0.084,0.057-0.182,0.085-0.279,0.085c-0.088,0-0.176-0.023-0.255-0.07c-0.302-0.179-0.618-0.34-0.946-0.49
				c-0.158-0.072-0.267-0.22-0.289-0.391c-0.021-0.171,0.046-0.342,0.18-0.451c2.059-1.68,5.252-2.039,6.528-2.116
				c0.011,0,0.021-0.001,0.03-0.001c0.129,0,0.254,0.05,0.347,0.14c0.101,0.097,0.156,0.232,0.153,0.372
				c-0.031,1.323-0.23,4.688-1.415,7.358c-0.08,0.182-0.26,0.297-0.457,0.297C21.615,12.687,21.606,12.687,21.598,12.687z"/>
		</g>
	</g>
	<g>
		<g>
			<path style="fill:#FFD419;" d="M11,7.5c-0.276,0-0.5-0.224-0.5-0.5V6c0-0.276,0.224-0.5,0.5-0.5h2c0.276,0,0.5,0.224,0.5,0.5v1
				c0,0.276-0.224,0.5-0.5,0.5H11z"/>
		</g>
	</g>
	<g>
		<g>
			<path style="fill:#FFD419;" d="M11,5.5c-0.276,0-0.5-0.224-0.5-0.5V4c0-0.276,0.224-0.5,0.5-0.5h2c0.276,0,0.5,0.224,0.5,0.5v1
				c0,0.276-0.224,0.5-0.5,0.5H11z"/>
		</g>
	</g>
	<g>
		<g>
			<path style="fill:#FFD419;" d="M11.5,9.5c-0.552,0-1-0.449-1-1V8c0-0.276,0.224-0.5,0.5-0.5h2c0.276,0,0.5,0.224,0.5,0.5v0.5
				c0,0.551-0.448,1-1,1H11.5z"/>
		</g>
	</g>
	<g>
		<g>
			<path style="fill:#FFD419;" d="M11,3.5c-0.276,0-0.5-0.224-0.5-0.5V2.5c0-0.551,0.448-1,1-1h1c0.552,0,1,0.449,1,1V3
				c0,0.276-0.224,0.5-0.5,0.5H11z"/>
		</g>
	</g>
	<g>
		<g>
			<path style="fill:#F8EEC0;" d="M2.377,12.687C2.18,12.687,2,12.571,1.92,12.39C0.735,9.719,0.536,6.354,0.505,5.032
				C0.502,4.892,0.558,4.758,0.658,4.66c0.093-0.09,0.218-0.14,0.347-0.14c0.01,0,0.02,0,0.03,0.001
				c1.273,0.076,4.458,0.435,6.526,2.116c0.134,0.109,0.202,0.28,0.181,0.452C7.72,7.261,7.611,7.409,7.453,7.481
				c-0.326,0.148-0.642,0.31-0.94,0.486c-0.079,0.047-0.167,0.07-0.255,0.07c-0.098,0-0.195-0.028-0.279-0.085
				c-1.115-0.75-2.591-1.097-3.371-1.236c0.084,0.841,0.301,2.477,0.814,3.997c0.045,0.133,0.032,0.279-0.036,0.402
				c-0.212,0.385-0.392,0.799-0.534,1.23c-0.064,0.196-0.243,0.333-0.45,0.343C2.394,12.687,2.385,12.687,2.377,12.687z"/>
		</g>
	</g>
	<g>
		<g>
			<path style="fill:#FF7BAC;" d="M3.66,10.294c-0.033,0-0.065-0.003-0.099-0.01c-0.186-0.038-0.334-0.177-0.384-0.359
				C2.969,9.158,2.804,8.311,2.686,7.406c-0.021-0.163,0.039-0.325,0.16-0.435c0.093-0.084,0.213-0.129,0.336-0.129
				c0.037,0,0.075,0.004,0.112,0.013c0.905,0.209,1.684,0.493,2.313,0.844c0.148,0.083,0.244,0.234,0.256,0.403
				S5.8,8.434,5.664,8.536c-0.62,0.466-1.162,0.993-1.609,1.566C3.958,10.225,3.813,10.294,3.66,10.294z"/>
		</g>
	</g>
	<g>
		<g>
			<path style="fill:#F8EEC0;" d="M12,22.5c-2.349,0-4.603-0.727-6.347-2.047L3.88,21.041c-0.052,0.017-0.104,0.025-0.157,0.025
				c-0.153,0-0.301-0.07-0.397-0.197c-0.13-0.17-0.137-0.403-0.019-0.581l1.193-1.79c-0.095,0.095-0.222,0.151-0.354,0.151
				c-0.015,0-0.029-0.001-0.045-0.002c-0.148-0.014-0.28-0.09-0.364-0.214c-0.228-0.338-0.406-0.644-0.546-0.934H2.152
				c-0.221,0-0.415-0.144-0.479-0.355s0.018-0.439,0.201-0.561L3.3,15.632c-0.079,0.048-0.169,0.072-0.259,0.072
				c-0.071,0-0.144-0.015-0.211-0.046c-0.158-0.074-0.267-0.224-0.286-0.398C2.516,15.007,2.5,14.753,2.5,14.499
				c0-3.096,2.069-5.853,5.401-7.196c0.061-0.024,0.124-0.036,0.187-0.036c0.164,0,0.323,0.081,0.418,0.226L8.5,5.151
				c0-0.22,0.145-0.415,0.355-0.479C8.903,4.657,8.952,4.651,9,4.651c0.164,0,0.321,0.081,0.416,0.223l1,1.5
				C10.471,6.456,10.5,6.553,10.5,6.651V8.5c0,0.551,0.448,1,1,1h1c0.552,0,1-0.449,1-1V6.651c0-0.099,0.029-0.195,0.084-0.277
				l1-1.5C14.679,4.732,14.836,4.651,15,4.651c0.048,0,0.097,0.007,0.145,0.021C15.356,4.736,15.5,4.93,15.5,5.151V7.5
				c0.096-0.146,0.255-0.231,0.419-0.231c0.061,0,0.121,0.012,0.18,0.035C19.431,8.647,21.5,11.405,21.5,14.5
				c0,0.254-0.016,0.508-0.044,0.761c-0.02,0.174-0.128,0.324-0.286,0.398c-0.067,0.031-0.14,0.046-0.211,0.046
				c-0.091,0-0.181-0.024-0.26-0.073l1.427,0.952c0.184,0.122,0.265,0.35,0.201,0.561S22.069,17.5,21.848,17.5h-1.039
				c-0.14,0.291-0.318,0.596-0.546,0.935c-0.084,0.125-0.219,0.205-0.367,0.219c-0.017,0.001-0.032,0.002-0.048,0.002
				c-0.133,0-0.261-0.053-0.354-0.147l1.199,1.781c0.118,0.178,0.111,0.411-0.019,0.581c-0.097,0.126-0.244,0.197-0.397,0.197
				c-0.053,0-0.105-0.008-0.157-0.025l-1.773-0.589C16.603,21.773,14.349,22.5,12,22.5z"/>
		</g>
	</g>
	<g>
		<g>
			<g>
				<path style="fill:#E0D7AD;" d="M23.342,4.66c-0.093-0.09-0.218-0.14-0.347-0.14c-0.01,0-0.02,0-0.03,0.001
					c-0.294,0.018-0.697,0.053-1.157,0.114c0.012,0.01,0.028,0.015,0.039,0.026C21.948,4.758,22.003,4.893,22,5.033
					c-0.028,1.203-0.205,4.091-1.126,6.613c0.101,0.227,0.194,0.459,0.272,0.698c0.064,0.197,0.244,0.333,0.45,0.344
					c0.009,0,0.018,0,0.025,0c0.197,0,0.377-0.116,0.457-0.297c1.185-2.67,1.384-6.035,1.415-7.358
					C23.498,4.892,23.442,4.757,23.342,4.66z"/>
			</g>
		</g>
	</g>
	<g>
		<g>
			<g>
				<path style="fill:#E0D7AD;" d="M7.562,6.636C5.494,4.955,2.309,4.596,1.036,4.52c-0.011,0-0.021-0.001-0.03-0.001
					c-0.113,0-0.219,0.044-0.307,0.114c1.534,0.201,3.778,0.709,5.37,2.002c0.134,0.109,0.202,0.28,0.181,0.452
					c-0.022,0.172-0.131,0.32-0.289,0.392C5.819,7.543,5.69,7.621,5.553,7.69C5.7,7.771,5.843,7.857,5.981,7.95
					C6.065,8.007,6.163,8.035,6.26,8.035c0.088,0,0.176-0.023,0.255-0.07c0.299-0.177,0.614-0.338,0.94-0.486
					c0.158-0.072,0.267-0.22,0.289-0.392C7.764,6.917,7.695,6.746,7.562,6.636z"/>
			</g>
		</g>
	</g>
	<g>
		<g>
			<g>
				<path style="fill:#E0D7AD;" d="M4.159,20.453L3.28,20.745c0.017,0.042,0.016,0.088,0.045,0.125
					c0.097,0.126,0.244,0.197,0.397,0.197c0.053,0,0.105-0.008,0.157-0.025l0.765-0.254C4.48,20.679,4.315,20.571,4.159,20.453z"/>
			</g>
		</g>
		<g>
			<g>
				<path style="fill:#E0D7AD;" d="M22.126,16.584l-1.427-0.952c0.079,0.049,0.169,0.073,0.26,0.073
					c0.071,0,0.144-0.015,0.211-0.046c0.158-0.074,0.267-0.224,0.286-0.398c0.028-0.253,0.044-0.507,0.044-0.761
					c0-3.096-2.069-5.853-5.401-7.196c-0.059-0.023-0.119-0.035-0.18-0.035c-0.164,0-0.323,0.085-0.419,0.231V5.151
					c0-0.22-0.145-0.415-0.355-0.479C15.097,4.657,15.048,4.651,15,4.651c-0.164,0-0.321,0.081-0.416,0.223l-0.578,0.867V7.5
					c0.096-0.146,0.255-0.231,0.419-0.231c0.061,0,0.121,0.012,0.18,0.035c3.332,1.343,5.401,4.101,5.401,7.196
					c0,0.254-0.016,0.508-0.044,0.761c-0.02,0.174-0.128,0.324-0.286,0.398c-0.067,0.031-0.14,0.046-0.211,0.046
					c-0.091,0-0.181-0.024-0.26-0.073l1.427,0.952c0.184,0.122,0.265,0.35,0.201,0.561S20.575,17.5,20.354,17.5h-1.039
					c-0.14,0.291-0.318,0.596-0.546,0.935c-0.084,0.125-0.219,0.205-0.367,0.219c-0.017,0.001-0.032,0.002-0.048,0.002
					c-0.133,0-0.261-0.053-0.354-0.147l1.199,1.781c0.092,0.139,0.086,0.305,0.026,0.455l0.895,0.297
					c0.052,0.017,0.104,0.025,0.157,0.025c0.153,0,0.301-0.07,0.397-0.197c0.13-0.17,0.137-0.403,0.019-0.581l-1.199-1.781
					c0.094,0.095,0.222,0.147,0.354,0.147c0.016,0,0.031-0.001,0.048-0.002c0.148-0.014,0.283-0.094,0.367-0.219
					c0.228-0.338,0.406-0.644,0.546-0.935h1.039c0.221,0,0.415-0.144,0.479-0.355S22.31,16.706,22.126,16.584z"/>
			</g>
		</g>
		<g>
			<g>
				<path style="fill:#E0D7AD;" d="M16.852,20.453c-1.558,1.179-3.524,1.881-5.6,2.018c0.248,0.016,0.497,0.029,0.747,0.029
					c2.138,0,4.193-0.608,5.861-1.712L16.852,20.453z"/>
			</g>
		</g>
	</g>
	<g>
		<g>
			<path style="fill:#FFFFFF;" d="M8,15.353c-0.093,0-0.186-0.026-0.266-0.077C7.588,15.185,7.5,15.025,7.5,14.853l0,0
				c0,0.172-0.089,0.332-0.234,0.423C7.185,15.327,7.093,15.353,7,15.353c-0.074,0-0.148-0.017-0.217-0.05
				c-0.775-0.374-1.668-1.197-1.923-1.441c-0.099-0.094-0.154-0.225-0.154-0.361s0.056-0.267,0.154-0.361
				c0.515-0.493,1.803-1.639,2.64-1.639c0.834,0,2.124,1.146,2.64,1.639c0.099,0.094,0.154,0.225,0.154,0.361
				s-0.056,0.267-0.154,0.361c-0.255,0.244-1.147,1.069-1.923,1.442C8.148,15.336,8.074,15.353,8,15.353z"/>
		</g>
	</g>
	<g>
		<g>
			<path style="fill:#FFFFFF;" d="M17,15.353c-0.093,0-0.186-0.026-0.266-0.077c-0.146-0.091-0.234-0.251-0.234-0.423l0,0
				c0,0.172-0.089,0.332-0.234,0.423c-0.081,0.051-0.173,0.077-0.266,0.077c-0.074,0-0.148-0.017-0.217-0.05
				c-0.775-0.374-1.668-1.197-1.923-1.441c-0.099-0.094-0.154-0.225-0.154-0.361s0.056-0.267,0.154-0.361
				c0.515-0.493,1.803-1.639,2.64-1.639c0.834,0,2.124,1.146,2.64,1.639c0.099,0.094,0.154,0.225,0.154,0.361
				s-0.056,0.267-0.154,0.361c-0.255,0.244-1.147,1.069-1.923,1.442C17.148,15.336,17.074,15.353,17,15.353z"/>
		</g>
	</g>
	<g id="Meowth">
		<g>
			<g>
				<path style="fill:#31395A;" d="M21.322,16.548c-0.037,0-0.075-0.004-0.113-0.013c-0.269-0.063-0.437-0.331-0.374-0.6
					C20.944,15.463,21,14.98,21,14.499c0-3.083-2.221-5.817-5.657-6.965c-0.262-0.087-0.403-0.371-0.316-0.632
					C15.116,6.64,15.4,6.501,15.66,6.586c3.852,1.286,6.341,4.393,6.341,7.913c0,0.557-0.064,1.116-0.19,1.661
					C21.756,16.392,21.55,16.548,21.322,16.548z"/>
			</g>
		</g>
		<g>
			<g>
				<path style="fill:#31395A;" d="M7.5,16c-1.256,0-3.021-1.796-3.363-2.156c-0.183-0.193-0.183-0.495,0-0.688
					C4.479,12.796,6.244,11,7.5,11c1.256,0,3.021,1.796,3.363,2.156c0.183,0.193,0.183,0.495,0,0.688C10.522,14.204,8.756,16,7.5,16
					z M5.206,13.5C5.947,14.208,6.976,15,7.5,15c0.525,0,1.554-0.792,2.294-1.5C9.053,12.792,8.024,12,7.5,12
					C6.975,12,5.946,12.792,5.206,13.5z"/>
			</g>
		</g>
		<g>
			<g>
				<path style="fill:#31395A;" d="M16.5,16c-1.256,0-3.021-1.796-3.363-2.156c-0.183-0.193-0.183-0.495,0-0.688
					C13.479,12.796,15.244,11,16.5,11s3.021,1.796,3.363,2.156c0.183,0.193,0.183,0.495,0,0.688C19.522,14.204,17.756,16,16.5,16z
					 M14.206,13.5c0.741,0.708,1.77,1.5,2.294,1.5c0.525,0,1.554-0.792,2.294-1.5c-0.741-0.708-1.77-1.5-2.294-1.5
					C15.975,12,14.946,12.792,14.206,13.5z"/>
			</g>
		</g>
		<g>
			<g>
				<path style="fill:#31395A;" d="M17,19c-0.869,0-4.23-0.8-5-0.985C11.229,18.201,7.858,19,7,19c-0.168,0-0.681,0-0.988-1.392
					c-0.06-0.27,0.11-0.536,0.38-0.596c0.279-0.062,0.537,0.111,0.597,0.38c0.048,0.215,0.127,0.457,0.191,0.597
					c0.835-0.081,3.199-0.61,4.702-0.975c0.078-0.019,0.158-0.019,0.236,0c1.5,0.365,3.862,0.895,4.702,0.976
					c0.064-0.14,0.144-0.383,0.191-0.598c0.06-0.269,0.318-0.442,0.597-0.38c0.27,0.06,0.439,0.326,0.38,0.596
					C17.681,19,17.168,19,17,19z"/>
			</g>
		</g>
		<g>
			<g>
				<path style="fill:#31395A;" d="M7.5,16C7.224,16,7,15.776,7,15.5v-2C7,13.224,7.224,13,7.5,13S8,13.224,8,13.5v2
					C8,15.776,7.776,16,7.5,16z"/>
			</g>
		</g>
		<g>
			<g>
				<path style="fill:#31395A;" d="M16.5,16c-0.276,0-0.5-0.224-0.5-0.5v-2c0-0.276,0.224-0.5,0.5-0.5s0.5,0.224,0.5,0.5v2
					C17,15.776,16.776,16,16.5,16z"/>
			</g>
		</g>
		<g>
			<g>
				<path style="fill:#31395A;" d="M9.5,21c-0.189,0-0.362-0.107-0.447-0.277L7.954,18.52c-0.123-0.247-0.023-0.547,0.224-0.67
					c0.249-0.125,0.548-0.023,0.671,0.224l0.603,1.208l0.657-1.634c0.103-0.257,0.394-0.379,0.65-0.277
					c0.256,0.103,0.381,0.394,0.277,0.65l-1.072,2.666C9.891,20.87,9.717,20.992,9.521,21C9.514,21,9.507,21,9.5,21z"/>
			</g>
		</g>
		<g>
			<g>
				<path style="fill:#31395A;" d="M14.5,21c-0.007,0-0.015,0-0.022,0c-0.196-0.009-0.37-0.132-0.442-0.315l-1.055-2.661
					c-0.102-0.256,0.023-0.547,0.28-0.649c0.256-0.102,0.547,0.024,0.649,0.281l0.644,1.624l0.604-1.204
					c0.124-0.249,0.426-0.346,0.672-0.222c0.247,0.124,0.346,0.424,0.223,0.671l-1.105,2.201C14.861,20.894,14.688,21,14.5,21z"/>
			</g>
		</g>
		<g>
			<g>
				<path style="fill:#31395A;" d="M12.5,10h-1C10.673,10,10,9.327,10,8.5v-6C10,1.673,10.673,1,11.5,1h1C13.327,1,14,1.673,14,2.5
					v6C14,9.327,13.327,10,12.5,10z M11.5,2C11.225,2,11,2.224,11,2.5v6C11,8.776,11.225,9,11.5,9h1C12.775,9,13,8.776,13,8.5v-6
					C13,2.224,12.775,2,12.5,2H11.5z"/>
			</g>
		</g>
		<g>
			<g>
				<path style="fill:#31395A;" d="M8.5,8C8.224,8,8,7.776,8,7.5v-4c0-0.22,0.145-0.415,0.355-0.479
					C8.569,2.958,8.793,3.04,8.916,3.222l2,3c0.153,0.23,0.091,0.54-0.139,0.693c-0.229,0.152-0.54,0.091-0.693-0.139L9,5.15v2.349
					C9,7.776,8.776,8,8.5,8z"/>
			</g>
		</g>
		<g>
			<g>
				<path style="fill:#31395A;" d="M15.5,8C15.224,8,15,7.776,15,7.5V5.151l-1.084,1.626c-0.154,0.23-0.466,0.291-0.693,0.139
					c-0.229-0.153-0.292-0.463-0.139-0.693l2-3c0.122-0.183,0.347-0.266,0.561-0.201C15.856,3.086,16,3.28,16,3.501v4
					C16,7.776,15.776,8,15.5,8z"/>
			</g>
		</g>
		<g>
			<g>
				<path style="fill:#31395A;" d="M13.5,8h-3C10.224,8,10,7.776,10,7.5S10.224,7,10.5,7h3C13.776,7,14,7.224,14,7.5
					S13.776,8,13.5,8z"/>
			</g>
		</g>
		<g>
			<g>
				<path style="fill:#31395A;" d="M13.5,6h-3C10.224,6,10,5.776,10,5.5S10.224,5,10.5,5h3C13.776,5,14,5.224,14,5.5
					S13.776,6,13.5,6z"/>
			</g>
		</g>
		<g>
			<g>
				<path style="fill:#31395A;" d="M13.5,4h-3C10.224,4,10,3.776,10,3.5S10.224,3,10.5,3h3C13.776,3,14,3.224,14,3.5
					S13.776,4,13.5,4z"/>
			</g>
		</g>
		<g>
			<g>
				<path style="fill:#31395A;" d="M3.49,11.432c-0.205,0-0.396-0.126-0.471-0.33C2.475,9.593,2.224,7.91,2.11,6.764
					C2.094,6.608,2.152,6.453,2.267,6.347s0.271-0.154,0.428-0.125C3.848,6.428,5.456,6.857,6.566,7.73
					C6.783,7.901,6.82,8.215,6.649,8.432C6.478,8.65,6.165,8.686,5.947,8.516C5.189,7.919,4.115,7.558,3.182,7.342
					c0.132,1.017,0.365,2.278,0.778,3.42c0.094,0.26-0.041,0.546-0.301,0.64C3.604,11.423,3.547,11.432,3.49,11.432z"/>
			</g>
		</g>
		<g>
			<g>
				<path style="fill:#31395A;" d="M20.52,11.432c-0.057,0-0.113-0.009-0.17-0.03c-0.26-0.093-0.395-0.38-0.301-0.64
					c0.412-1.143,0.646-2.404,0.777-3.42c-0.933,0.216-2.007,0.578-2.765,1.174c-0.217,0.169-0.531,0.133-0.702-0.084
					s-0.134-0.531,0.083-0.702c1.11-0.873,2.718-1.302,3.871-1.508c0.153-0.028,0.312,0.019,0.428,0.125
					c0.115,0.106,0.173,0.261,0.157,0.417c-0.114,1.146-0.364,2.828-0.908,4.337C20.916,11.306,20.725,11.432,20.52,11.432z"/>
			</g>
		</g>
		<g>
			<g>
				<path style="fill:#31395A;" d="M2.5,14c-0.167,0-0.331-0.084-0.426-0.238C-0.087,10.256-0.005,4.724,0,4.49
					C0.006,4.218,0.228,4,0.5,4c0.213,0,5.237,0.03,7.854,2.646l0.172,0.162c0.201,0.189,0.21,0.506,0.021,0.707
					c-0.188,0.2-0.507,0.209-0.706,0.021L7.658,7.364C5.771,5.478,2.301,5.097,1.006,5.02c0.033,1.431,0.277,5.551,1.921,8.218
					c0.145,0.235,0.071,0.543-0.163,0.688C2.681,13.976,2.59,14,2.5,14z"/>
			</g>
		</g>
		<g>
			<g>
				<path style="fill:#31395A;" d="M21.5,14c-0.09,0-0.181-0.024-0.263-0.074c-0.234-0.145-0.308-0.453-0.163-0.688
					c1.644-2.667,1.888-6.787,1.921-8.218c-1.296,0.078-4.768,0.46-6.642,2.333l-0.198,0.184c-0.201,0.188-0.518,0.177-0.706-0.026
					s-0.177-0.519,0.026-0.707l0.185-0.171c2.603-2.604,7.627-2.634,7.84-2.634c0.272,0,0.494,0.218,0.5,0.49
					c0.005,0.234,0.087,5.766-2.074,9.272C21.831,13.916,21.667,14,21.5,14z"/>
			</g>
		</g>
		<g>
			<g>
				<path style="fill:#31395A;" d="M19.844,19.515c-0.111,0-0.223-0.037-0.315-0.112c-0.214-0.174-0.247-0.489-0.072-0.704
					c0.36-0.444,0.665-0.921,0.903-1.417c0.083-0.173,0.258-0.283,0.45-0.283h1.039l-1.626-1.084
					c-0.229-0.153-0.292-0.463-0.139-0.693c0.154-0.23,0.466-0.291,0.693-0.139l3,2c0.184,0.122,0.265,0.35,0.201,0.561
					S23.721,18,23.5,18h-2.383c-0.247,0.464-0.544,0.91-0.886,1.331C20.133,19.452,19.989,19.515,19.844,19.515z"/>
			</g>
		</g>
		<g>
			<g>
				<path style="fill:#31395A;" d="M2.678,16.548c-0.228,0-0.434-0.156-0.487-0.387c-0.126-0.545-0.19-1.104-0.19-1.661
					c0-3.521,2.489-6.627,6.341-7.913c0.263-0.086,0.545,0.054,0.633,0.316C9.062,7.165,8.92,7.448,8.659,7.535
					C5.222,8.683,3.002,11.417,3.002,14.5c0,0.481,0.056,0.964,0.165,1.436c0.063,0.269-0.105,0.538-0.374,0.6
					C2.753,16.544,2.715,16.548,2.678,16.548z"/>
			</g>
		</g>
		<g>
			<g>
				<path style="fill:#31395A;" d="M4.156,19.515c-0.146,0-0.289-0.063-0.388-0.185c-0.342-0.42-0.639-0.867-0.886-1.331H0.499
					c-0.221,0-0.415-0.144-0.479-0.355s0.018-0.439,0.201-0.561l3-2c0.228-0.152,0.539-0.092,0.693,0.139
					c0.153,0.23,0.091,0.54-0.139,0.693L2.151,17H3.19c0.192,0,0.367,0.11,0.45,0.283c0.238,0.496,0.543,0.972,0.903,1.417
					c0.175,0.214,0.142,0.529-0.072,0.704C4.379,19.479,4.268,19.515,4.156,19.515z"/>
			</g>
		</g>
		<g>
			<g>
				<path style="fill:#31395A;" d="M12,23c-2.362,0-4.636-0.706-6.435-1.991l-2.908,0.966c-0.201,0.066-0.425-0.001-0.555-0.171
					s-0.137-0.403-0.019-0.581l2-3c0.154-0.23,0.465-0.291,0.693-0.139c0.229,0.153,0.292,0.463,0.139,0.693l-1.193,1.79
					l1.773-0.589c0.153-0.052,0.328-0.024,0.459,0.076C7.612,21.309,9.759,22,11.999,22s4.387-0.691,6.045-1.946
					c0.131-0.1,0.304-0.129,0.459-0.076l1.773,0.589l-1.193-1.79c-0.153-0.23-0.091-0.54,0.139-0.693
					c0.228-0.153,0.539-0.092,0.693,0.139l2,3c0.118,0.178,0.111,0.411-0.019,0.581s-0.354,0.237-0.555,0.171l-2.908-0.966
					C16.636,22.294,14.362,23,12,23z"/>
			</g>
		</g>
	</g>
	<g>
		<g>
			<path style="fill:#FFFFFF;" d="M9.451,19.282L9.14,18.66c0.204-0.042,0.409-0.086,0.613-0.13L9.451,19.282z"/>
		</g>
	</g>
	<g>
		<g>
			<path style="fill:#FFFFFF;" d="M14.554,19.279l-0.296-0.746c0.202,0.044,0.405,0.087,0.606,0.129L14.554,19.279z"/>
		</g>
	</g>
</g>
</svg>
