<?xml version="1.0" encoding="iso-8859-1"?>
<!-- Generator: Adobe Illustrator 19.0.0, SVG Export Plug-In . SVG Version: 6.00 Build 0)  -->
<svg version="1.1" id="Layer_1" xmlns="http://www.w3.org/2000/svg" xmlns:xlink="http://www.w3.org/1999/xlink" x="0px" y="0px"
	 viewBox="0 0 24 24" style="enable-background:new 0 0 24 24;" xml:space="preserve">
<g>
	<g>
		<path style="fill:#FF0000;" d="M3.486,9.773c-0.067,0-0.134-0.013-0.197-0.041C3.101,9.651,2.982,9.465,2.986,9.261
			c0.091-4.046,3.32-7.738,7.51-8.586c0.613-0.124,1.238-0.188,1.859-0.188c3.342,0,6.469,1.859,7.965,4.736
			c0.094,0.18,0.069,0.399-0.062,0.554c-0.097,0.114-0.237,0.177-0.381,0.177c-0.052,0-0.104-0.008-0.154-0.024
			c-0.484-0.157-1.117-0.26-1.881-0.305c-0.229-0.013-0.42-0.182-0.462-0.407c-0.002-0.011-0.014-0.092-0.015-0.103
			c-0.232-0.942-0.994-1.598-1.816-1.598c-0.126,0-0.252,0.016-0.375,0.046c-0.453,0.113-0.828,0.422-1.057,0.869
			c-0.141,0.276-0.212,0.593-0.212,0.945c0,0.248-0.181,0.458-0.425,0.495c-0.626,0.095-1.277,0.21-1.963,0.358
			c-2.37,0.513-4.562,1.323-6.172,2.28C4.716,8.885,4.209,9.26,3.838,9.628C3.743,9.723,3.615,9.773,3.486,9.773z"/>
	</g>
	<g>
		<path style="fill:#FFFFFF;" d="M15.771,7.489c-0.833,0-1.576-0.642-1.807-1.56c-0.13-0.519-0.076-1.05,0.152-1.497
			c0.229-0.447,0.605-0.756,1.058-0.87c0.123-0.031,0.25-0.047,0.378-0.047c0.832,0,1.575,0.641,1.806,1.559
			c0.269,1.07-0.274,2.132-1.209,2.367C16.025,7.473,15.899,7.489,15.771,7.489z"/>
	</g>
	<g>
		<path style="fill:#FFFFFF;" d="M6.497,12.457c-1.249,0-2.167-0.182-2.728-0.542c-0.333-0.212-0.539-0.49-0.611-0.824
			c-0.157-0.721,0.64-1.663,2.186-2.582c1.61-0.958,3.802-1.767,6.172-2.28c0.688-0.149,1.36-0.267,1.993-0.363
			c0.025-0.003,0.05-0.005,0.075-0.005c0.205,0,0.392,0.126,0.467,0.322c0.298,0.78,0.99,1.305,1.723,1.305
			c0.126,0,0.252-0.016,0.375-0.046c0.621-0.156,1.092-0.698,1.23-1.413c0.046-0.236,0.253-0.405,0.491-0.405
			c0.011,0,0.021,0,0.031,0.001c2.352,0.146,2.983,0.815,3.1,1.352c0.322,1.486-3.333,3.519-8.32,4.629
			C10.143,12.171,8.063,12.457,6.497,12.457z"/>
	</g>
	<g>
		<path style="fill:#DF2C2C;" d="M3.486,9.773c-0.067,0-0.134-0.013-0.197-0.041C3.101,9.651,2.982,9.465,2.986,9.261
			c0.091-4.046,3.32-7.738,7.51-8.586c0.613-0.124,1.238-0.188,1.859-0.188c3.342,0,6.469,1.859,7.965,4.736
			c0.094,0.18,0.069,0.399-0.062,0.554c-0.097,0.114-0.237,0.177-0.381,0.177c-0.052,0-0.104-0.008-0.154-0.024
			c-0.484-0.157-1.117-0.26-1.881-0.305c-0.229-0.013-0.42-0.182-0.462-0.407c-0.002-0.011-0.014-0.092-0.015-0.103
			c-0.232-0.942-0.994-1.598-1.816-1.598c-0.126,0-0.252,0.016-0.375,0.046c-0.453,0.113-0.828,0.422-1.057,0.869
			c-0.141,0.276-0.212,0.593-0.212,0.945c0,0.248-0.181,0.458-0.425,0.495c-0.626,0.095-1.277,0.21-1.963,0.358
			c-2.37,0.513-4.562,1.323-6.172,2.28C4.716,8.885,4.209,9.26,3.838,9.628C3.743,9.723,3.615,9.773,3.486,9.773z"/>
	</g>
	<g>
		<path style="fill:#5C6671;" d="M6.497,12.457c-1.249,0-2.167-0.182-2.728-0.542c-0.333-0.212-0.539-0.49-0.611-0.824
			c-0.157-0.721,0.64-1.663,2.186-2.582c1.61-0.958,3.802-1.767,6.172-2.28c0.688-0.149,1.36-0.267,1.993-0.363
			c0.025-0.003,0.05-0.005,0.075-0.005c0.205,0,0.392,0.126,0.467,0.322c0.298,0.78,0.99,1.305,1.723,1.305
			c0.126,0,0.252-0.016,0.375-0.046c0.621-0.156,1.092-0.698,1.23-1.413c0.046-0.236,0.253-0.405,0.491-0.405
			c0.011,0,0.021,0,0.031,0.001c2.352,0.146,2.983,0.815,3.1,1.352c0.322,1.486-3.333,3.519-8.32,4.629
			C10.143,12.171,8.063,12.457,6.497,12.457z"/>
	</g>
	<g>
		<g>
			<path style="fill:#C92828;" d="M20.32,5.224c-1.496-2.876-4.623-4.736-7.965-4.736c-0.41,0-0.821,0.038-1.23,0.092
				c2.844,0.404,5.387,2.136,6.691,4.643c0.066,0.127,0.053,0.267,0.006,0.397c0.007,0.001,0.013,0.004,0.02,0.005
				c0.764,0.045,1.396,0.147,1.881,0.305c0.051,0.017,0.103,0.024,0.154,0.024c0.145,0,0.285-0.063,0.381-0.177
				C20.389,5.623,20.414,5.404,20.32,5.224z"/>
		</g>
	</g>
	<g>
		<g>
			<path style="fill:#535C66;" d="M21.001,6.976c-0.116-0.536-0.748-1.206-3.1-1.352c-0.01,0-0.021-0.001-0.031-0.001
				c-0.221,0-0.409,0.148-0.473,0.358c0.755,0.278,1.028,0.662,1.1,0.994c0.322,1.486-3.333,3.519-8.32,4.629
				c-1.851,0.412-3.452,0.673-4.794,0.785c0.339,0.04,0.702,0.067,1.114,0.067c1.565,0,3.646-0.287,6.184-0.852
				C17.668,10.495,21.322,8.462,21.001,6.976z"/>
		</g>
	</g>
	<g>
		<path style="fill:#666666;" d="M15.553,20.609c-0.129,0-0.257-0.016-0.381-0.048c-0.743-0.187-1.265-0.93-1.268-1.807
			c-0.807-0.108-1.609-0.248-2.387-0.417c-2.383-0.516-4.598-1.298-6.236-2.201c-1.161-0.641-2.504-1.599-2.303-2.524
			c0.061-0.282,0.247-1.14,4.22-1.14c1.683,0,3.63,0.174,5.483,0.49c3.385,0.577,7.188,2.316,8.139,3.722
			c0.195,0.289,0.268,0.555,0.215,0.792c-0.188,0.868-1.592,1.44-3.664,1.493C17.131,19.953,16.372,20.609,15.553,20.609z"/>
	</g>
	<g>
		<path style="fill:#FFFFFF;" d="M12.43,23.511c-0.383,0-0.771-0.024-1.152-0.073c-4.124-0.526-7.494-3.715-8.196-7.755
			c-0.036-0.207,0.062-0.414,0.243-0.519c0.078-0.044,0.164-0.066,0.25-0.066c0.115,0,0.229,0.04,0.322,0.117
			c1.457,1.224,4.376,2.421,7.62,3.124c0.648,0.141,1.32,0.262,1.997,0.361c0.214,0.031,0.384,0.197,0.42,0.411
			c0.124,0.723,0.61,1.293,1.24,1.452c0.123,0.031,0.248,0.046,0.374,0.046c0.748,0,1.446-0.533,1.738-1.327
			c0.069-0.187,0.242-0.315,0.441-0.326c0.651-0.038,1.244-0.135,1.761-0.291c0.047-0.015,0.096-0.021,0.144-0.021
			c0.156,0,0.306,0.073,0.402,0.203c0.125,0.17,0.131,0.4,0.014,0.576C18.335,21.982,15.487,23.511,12.43,23.511z"/>
	</g>
	<g>
		<path style="fill:#5C6671;" d="M15.553,20.609c-0.129,0-0.257-0.016-0.381-0.048c-0.743-0.187-1.265-0.93-1.268-1.807
			c-0.807-0.108-1.609-0.248-2.387-0.417c-2.383-0.516-4.598-1.298-6.236-2.201c-1.161-0.641-2.504-1.599-2.303-2.524
			c0.061-0.282,0.247-1.14,4.22-1.14c1.683,0,3.63,0.174,5.483,0.49c3.385,0.577,7.188,2.316,8.139,3.722
			c0.195,0.289,0.268,0.555,0.215,0.792c-0.188,0.868-1.592,1.44-3.664,1.493C17.131,19.953,16.372,20.609,15.553,20.609z"/>
	</g>
	<g>
		<path style="fill:#FFFFFF;" d="M12.43,23.511c-0.383,0-0.771-0.024-1.152-0.073c-4.124-0.526-7.494-3.715-8.196-7.755
			c-0.036-0.207,0.062-0.414,0.243-0.519c0.078-0.044,0.164-0.066,0.25-0.066c0.115,0,0.229,0.04,0.322,0.117
			c1.457,1.224,4.376,2.421,7.62,3.124c0.648,0.141,1.32,0.262,1.997,0.361c0.214,0.031,0.384,0.197,0.42,0.411
			c0.124,0.723,0.61,1.293,1.24,1.452c0.123,0.031,0.248,0.046,0.374,0.046c0.748,0,1.446-0.533,1.738-1.327
			c0.069-0.187,0.242-0.315,0.441-0.326c0.651-0.038,1.244-0.135,1.761-0.291c0.047-0.015,0.096-0.021,0.144-0.021
			c0.156,0,0.306,0.073,0.402,0.203c0.125,0.17,0.131,0.4,0.014,0.576C18.335,21.982,15.487,23.511,12.43,23.511z"/>
	</g>
	<g>
		<path style="fill:#535C66;" d="M20.82,16.685c-0.951-1.406-4.753-3.145-8.139-3.722c-1.853-0.316-3.8-0.49-5.483-0.49
			c-0.464,0-0.872,0.013-1.239,0.034c1.338,0.064,2.771,0.22,4.152,0.456c3.385,0.577,7.188,2.316,8.139,3.722
			c0.195,0.289,0.268,0.555,0.215,0.792c-0.188,0.868-1.592,1.44-3.664,1.493c-0.095,0.388-0.272,0.722-0.5,0.988
			c0.221,0.294,0.518,0.515,0.871,0.604c0.125,0.032,0.252,0.048,0.381,0.048c0.818,0,1.578-0.656,1.818-1.639
			c2.072-0.053,3.476-0.625,3.664-1.493C21.087,17.24,21.015,16.974,20.82,16.685z"/>
	</g>
	<g>
		<g>
			<path style="fill:#E6E6E6;" d="M20.035,18.846c-0.096-0.13-0.246-0.203-0.402-0.203c-0.048,0-0.097,0.007-0.144,0.021
				c-0.518,0.156-1.11,0.253-1.761,0.291c-0.074,0.004-0.137,0.039-0.2,0.072c0.033,0.134,0.031,0.274-0.049,0.393
				c-1.473,2.2-3.784,3.631-6.344,3.992c0.048,0.007,0.095,0.018,0.143,0.024c0.381,0.048,0.769,0.073,1.152,0.073
				c3.057,0,5.904-1.529,7.618-4.089C20.166,19.246,20.16,19.016,20.035,18.846z"/>
		</g>
	</g>
	<g id="Open_Pokeball">
		<g>
			<path style="fill:#31395A;" d="M6.508,12.955c-1.359,0-2.364-0.206-3.008-0.618c-0.449-0.288-0.729-0.671-0.83-1.139
				C2.459,10.224,3.295,9.146,5.089,8.08c1.655-0.984,3.901-1.814,6.322-2.339c0.865-0.187,1.692-0.334,2.459-0.436
				c0.273-0.036,0.525,0.156,0.562,0.43c0.037,0.273-0.156,0.525-0.43,0.562c-0.73,0.097-1.552,0.243-2.379,0.422
				C9.304,7.221,7.165,8.01,5.6,8.94c-1.466,0.872-2.038,1.656-1.953,2.046c0.043,0.201,0.171,0.368,0.392,0.508
				c0.66,0.423,2.645,0.935,8.533-0.377c5.209-1.16,8.135-3.132,7.939-4.035c-0.094-0.437-0.954-0.924-3.083-0.983
				c-0.276-0.008-0.493-0.238-0.486-0.514c0.008-0.276,0.249-0.491,0.514-0.486c3.034,0.085,3.867,1.01,4.032,1.771
				c0.466,2.154-4.183,4.218-8.699,5.224C10.212,12.667,8.113,12.955,6.508,12.955z"/>
		</g>
		<g>
			<path style="fill:#31395A;" d="M3.139,11.492c-0.233,0-0.441-0.164-0.49-0.401C1.664,6.23,5.212,1.236,10.397,0.185
				c4.932-1,9.793,1.896,11.067,6.592c0.072,0.267-0.085,0.541-0.352,0.613c-0.266,0.075-0.541-0.085-0.613-0.352
				c-1.137-4.188-5.484-6.77-9.904-5.873c-4.653,0.942-7.843,5.397-6.966,9.727c0.055,0.271-0.12,0.534-0.391,0.589
				C3.205,11.489,3.171,11.492,3.139,11.492z"/>
		</g>
		<g>
			<path style="fill:#31395A;" d="M12.439,24.012c-0.405,0-0.813-0.025-1.224-0.078c-5.097-0.65-9.023-5.232-8.753-10.212
				c0.015-0.276,0.251-0.499,0.527-0.472c0.275,0.015,0.487,0.25,0.472,0.526c-0.242,4.468,3.293,8.58,7.881,9.166
				c3.935,0.5,7.711-1.748,9.175-5.473c0.102-0.257,0.393-0.381,0.648-0.282c0.257,0.101,0.383,0.391,0.282,0.648
				C19.968,21.599,16.371,24.012,12.439,24.012z"/>
		</g>
		<g>
			<path style="fill:#31395A;" d="M15.774,7.988c-1.034,0-2.005-0.784-2.295-1.937c-0.16-0.636-0.092-1.292,0.192-1.846
				c0.295-0.577,0.785-0.978,1.381-1.127c1.205-0.3,2.456,0.539,2.792,1.875l0,0c0.336,1.337-0.37,2.67-1.573,2.973
				C16.106,7.968,15.939,7.988,15.774,7.988z M15.553,4.016c-0.085,0-0.171,0.01-0.257,0.032c-0.312,0.078-0.572,0.296-0.734,0.612
				c-0.173,0.339-0.213,0.747-0.112,1.147c0.202,0.802,0.909,1.317,1.578,1.15c0.668-0.168,1.048-0.957,0.847-1.76
				C16.698,4.498,16.137,4.016,15.553,4.016z"/>
		</g>
		<g>
			<path style="fill:#31395A;" d="M15.548,21.108c-0.165,0-0.331-0.02-0.496-0.062c-0.836-0.21-1.456-0.943-1.611-1.853
				c-0.687-0.101-1.368-0.224-2.03-0.367c-4.665-1.01-9.376-3.218-8.922-5.32c0.576-2.659,10.176-1.055,10.276-1.037l0,0
				c3.559,0.606,7.437,2.408,8.469,3.935c0.273,0.405,0.371,0.801,0.29,1.177c-0.23,1.062-1.628,1.75-3.769,1.873
				C17.389,20.451,16.495,21.108,15.548,21.108z M7.198,12.973c-2.151,0-3.632,0.286-3.731,0.746
				c-0.195,0.899,2.959,3.005,8.156,4.131c0.764,0.166,1.553,0.303,2.347,0.409c0.248,0.033,0.433,0.244,0.434,0.494
				c0.002,0.648,0.369,1.192,0.892,1.324c0.665,0.17,1.376-0.348,1.578-1.15c0.046-0.228,0.251-0.45,0.484-0.457
				c2.039-0.052,3.082-0.607,3.188-1.1c0.021-0.096-0.029-0.239-0.141-0.405c-0.786-1.163-4.292-2.91-7.809-3.51l0,0
				C10.628,13.12,8.741,12.973,7.198,12.973z"/>
		</g>
	</g>
</g>
</svg>
