<?xml version="1.0" encoding="iso-8859-1"?>
<!-- Generator: Adobe Illustrator 19.0.0, SVG Export Plug-In . SVG Version: 6.00 Build 0)  -->
<svg version="1.1" id="Layer_1" xmlns="http://www.w3.org/2000/svg" xmlns:xlink="http://www.w3.org/1999/xlink" x="0px" y="0px"
	 viewBox="0 0 24 24" style="enable-background:new 0 0 24 24;" xml:space="preserve">
<g>
	<g>
		<path style="fill:#754C24;" d="M19.28,19.629c-0.074,0-0.147-0.016-0.216-0.049c-1.954-0.936-2.842-1.834-3.026-2.036
			c-0.02-0.017-0.067-0.069-0.074-0.08l-3.258-3.257c-0.177-0.177-0.435-0.278-0.707-0.278s-0.53,0.102-0.707,0.278l-3.257,3.256
			c-0.01,0.014-0.021,0.027-0.03,0.038c-0.014,0.014-0.029,0.029-0.046,0.044c-0.187,0.204-1.07,1.098-3.025,2.034
			c-0.068,0.033-0.142,0.049-0.216,0.049c-0.081,0-0.162-0.02-0.235-0.059c-0.141-0.075-0.236-0.212-0.26-0.37
			c-0.389-2.675-0.319-3.952-0.238-5.43L4,13.498c0.081-1.51,0.634-2.966,1.738-4.581C5.83,8.784,5.979,8.703,6.14,8.699
			c0.004,0,0.007,0,0.011,0c0.157,0,0.306,0.074,0.4,0.2l0.693,0.924c0.12,0.161,0.133,0.379,0.031,0.553
			c-1.354,2.312-1.092,2.917-1.058,2.978c0.067,0.119,0.189,0.144,0.281,0.144h3.468L7.612,6.937
			C7.549,6.763,7.587,6.569,7.71,6.432l0.615-0.679c0.413-0.452,0.829-0.909,1.229-1.367c0.095-0.109,0.232-0.172,0.377-0.172
			c0.004,0,0.007,0,0.011,0c0.147,0.003,0.287,0.072,0.38,0.188l1.677,2.096l1.676-2.094c0.093-0.116,0.232-0.184,0.38-0.188
			c0.004,0,0.007,0,0.011,0c0.145,0,0.282,0.063,0.377,0.171c0.391,0.449,0.799,0.895,1.203,1.338l0.638,0.702
			c0.124,0.138,0.165,0.336,0.102,0.51l-2.382,6.553l3.495,0.01c0.092,0,0.214-0.025,0.281-0.144
			c0.034-0.061,0.297-0.666-1.058-2.978c-0.102-0.174-0.089-0.392,0.032-0.553l0.692-0.922c0.094-0.126,0.242-0.2,0.399-0.2
			c0.004,0,0.007,0,0.011,0c0.161,0.003,0.311,0.084,0.401,0.217c1.105,1.615,1.659,3.069,1.74,4.579l0.015,0.271
			c0.081,1.478,0.15,2.754-0.238,5.429c-0.023,0.158-0.119,0.294-0.26,0.37C19.442,19.609,19.361,19.629,19.28,19.629z"/>
	</g>
	<g>
		<path style="fill:#FFFFFF;" d="M6.666,13.5c-0.144,0-0.28-0.062-0.375-0.169c-0.095-0.108-0.139-0.251-0.121-0.393
			c0.064-0.514,0.502-1.461,0.89-2.176c0.081-0.15,0.233-0.248,0.403-0.26c0.012-0.001,0.024-0.001,0.036-0.001
			c0.156,0,0.305,0.074,0.4,0.2l0.91,1.213c0.165,0.22,0.121,0.533-0.1,0.699c-0.078,0.059-0.21,0.189-0.21,0.387
			c0,0.276-0.224,0.5-0.5,0.5H6.666z"/>
	</g>
	<path style="fill:#FF7BAC;" d="M11.999,20.25c-0.215,0-0.428-0.071-0.599-0.199l-1.421-1.065c-0.19-0.143-0.254-0.4-0.151-0.615
		c0.084-0.177,0.262-0.285,0.451-0.285c0.04,0,0.081,0.005,0.121,0.015l1.599,0.4l1.598-0.399c0.04-0.01,0.081-0.015,0.121-0.015
		c0.189,0,0.367,0.108,0.451,0.285c0.103,0.215,0.039,0.472-0.151,0.615l-1.42,1.064C12.428,20.178,12.215,20.25,11.999,20.25z"/>
	<g>
		<path style="fill:#FF7BAC;" d="M11.999,18.484c-0.041,0-0.081-0.005-0.121-0.015l-3.022-0.755
			c-0.175-0.043-0.313-0.178-0.36-0.352c-0.049-0.173,0.001-0.359,0.128-0.487l2.669-2.668c0.188-0.189,0.44-0.293,0.707-0.293
			s0.519,0.104,0.707,0.293l2.669,2.668c0.127,0.127,0.177,0.313,0.128,0.487c-0.048,0.174-0.186,0.308-0.36,0.352l-3.022,0.755
			C12.08,18.479,12.04,18.484,11.999,18.484z"/>
	</g>
	<path style="fill:#FFFFFF;" d="M15.999,13.5c-0.276,0-0.5-0.224-0.5-0.5c0-0.198-0.132-0.328-0.211-0.387
		c-0.221-0.166-0.265-0.479-0.1-0.699l0.91-1.213c0.096-0.126,0.244-0.2,0.4-0.2c0.012,0,0.024,0,0.036,0.001
		c0.17,0.012,0.322,0.11,0.403,0.26c0.388,0.715,0.825,1.662,0.89,2.176c0.018,0.142-0.026,0.285-0.121,0.393
		c-0.095,0.107-0.231,0.169-0.375,0.169L15.999,13.5L15.999,13.5z"/>
	<path style="fill:#FBE158;" d="M11.999,6.2c-0.152,0-0.296-0.069-0.391-0.188l-1.412-1.765C10.05,4.063,10.05,3.803,10.198,3.62
		c0.599-0.739,1.042-1.393,1.355-2c0.086-0.166,0.258-0.27,0.444-0.27l0,0c0.188,0,0.358,0.104,0.444,0.271
		c0.312,0.604,0.755,1.258,1.355,2c0.147,0.183,0.148,0.443,0.002,0.627l-1.41,1.763C12.295,6.131,12.151,6.2,11.999,6.2z"/>
	<g>
		<path style="fill:#FBE158;" d="M8.378,11.005c-0.152,0-0.303-0.07-0.4-0.2L1.785,2.547C1.661,2.381,1.652,2.156,1.763,1.981
			c0.093-0.147,0.253-0.233,0.423-0.233c0.032,0,0.065,0.003,0.098,0.01l3.44,0.688C5.896,2.48,6.037,2.601,6.096,2.765l2.753,7.57
			c0.085,0.233-0.014,0.493-0.231,0.61C8.541,10.985,8.459,11.005,8.378,11.005z"/>
	</g>
	<path style="fill:#FBE158;" d="M15.62,11.005c-0.081,0-0.163-0.02-0.238-0.061c-0.218-0.118-0.316-0.377-0.231-0.61l2.753-7.57
		c0.06-0.164,0.2-0.285,0.372-0.319l3.44-0.688c0.032-0.007,0.065-0.01,0.098-0.01c0.17,0,0.33,0.086,0.423,0.233
		c0.11,0.175,0.102,0.401-0.022,0.566l-6.193,8.258C15.923,10.935,15.772,11.005,15.62,11.005z"/>
	<g>
		<path style="fill:#FBE158;" d="M5.407,23.5c-0.238,0-0.443-0.168-0.49-0.401c-0.221-1.1-0.395-2.038-0.531-2.86
			c-0.037-0.223,0.08-0.443,0.285-0.537c1.702-0.779,2.632-1.528,3.035-1.906c0.096-0.089,0.219-0.135,0.342-0.135
			c0.105,0,0.211,0.033,0.3,0.1l3.051,2.288c0.174,0.129,0.381,0.198,0.601,0.198s0.427-0.068,0.599-0.198l3.053-2.289
			c0.089-0.067,0.194-0.1,0.3-0.1c0.123,0,0.246,0.045,0.342,0.135c0.403,0.377,1.336,1.127,3.035,1.905
			c0.205,0.094,0.322,0.314,0.285,0.537c-0.137,0.822-0.311,1.761-0.531,2.86c-0.047,0.233-0.252,0.401-0.49,0.401H5.407V23.5z"/>
	</g>
	<g>
		<path style="fill:#6A4520;" d="M13.223,5.728l0.638,0.702c0.124,0.138,0.165,0.336,0.102,0.51l-2.382,6.553L13.499,15l2.886-8.061
			c0.063-0.174,0.022-0.372-0.102-0.51l-0.638-0.702c-0.404-0.443-0.813-0.889-1.203-1.338c-0.095-0.109-0.232-0.171-0.377-0.171
			c-0.004,0-0.007,0-0.011,0c-0.147,0.003-0.287,0.072-0.38,0.188l-0.772,0.965C13.01,5.489,13.115,5.609,13.223,5.728z"/>
		<path style="fill:#6A4520;" d="M20.014,13.771L19.999,13.5c-0.081-1.509-0.635-2.964-1.74-4.579
			c-0.091-0.133-0.24-0.214-0.401-0.217c-0.004,0-0.007,0-0.011,0c-0.157,0-0.306,0.074-0.399,0.2l-0.692,0.922
			c-0.121,0.161-0.134,0.379-0.032,0.553c1.354,2.312,1.092,2.917,1.058,2.978c-0.05,0.089-0.129,0.117-0.205,0.13
			c0,0.005,0.002,0.009,0.002,0.014l0.015,0.271c0.075,1.371,0.135,2.585-0.166,4.888c0.434,0.285,0.97,0.599,1.639,0.92
			c0.068,0.033,0.142,0.049,0.216,0.049c0.081,0,0.162-0.02,0.235-0.059c0.141-0.075,0.236-0.212,0.26-0.37
			C20.164,16.526,20.095,15.249,20.014,13.771z"/>
	</g>
	<g>
		<path style="fill:#E2CB4F;" d="M19.327,19.702c-1.699-0.778-2.632-1.528-3.035-1.905c-0.096-0.089-0.219-0.135-0.342-0.135
			c-0.105,0-0.211,0.033-0.3,0.1l-0.939,0.704c0.514,0.361,1.226,0.793,2.194,1.236c0.205,0.094,0.322,0.314,0.285,0.537
			c-0.137,0.822-0.311,1.761-0.531,2.86c-0.047,0.233-0.252,0.401-0.49,0.401h2.422c0.238,0,0.443-0.168,0.49-0.401
			c0.221-1.1,0.395-2.039,0.531-2.86C19.649,20.016,19.532,19.795,19.327,19.702z"/>
	</g>
	<g id="Pidgey">
		<g>
			<path style="fill:#31395A;" d="M11.999,24h-7c-0.237,0-0.442-0.167-0.49-0.4c-1.233-6.028-1.146-7.634-1.023-9.856l0.015-0.271
				C3.597,11.691,4.308,9.97,5.74,8.055c0.167-0.222,0.48-0.266,0.7-0.101c0.221,0.166,0.266,0.479,0.101,0.7
				c-1.309,1.75-1.957,3.298-2.042,4.874l-0.015,0.271c-0.114,2.099-0.198,3.628,0.924,9.202H12c0.276,0,0.5,0.224,0.5,0.5
				S12.275,24,11.999,24z"/>
		</g>
		<g>
			<path style="fill:#31395A;" d="M7.51,7.156c-0.119,0-0.238-0.042-0.333-0.127c-0.206-0.184-0.224-0.5-0.04-0.706
				c0.269-0.299,0.544-0.601,0.82-0.904c1.555-1.704,3.163-3.465,3.557-5.04c0.066-0.268,0.34-0.431,0.606-0.364
				c0.269,0.067,0.431,0.338,0.364,0.606c-0.455,1.82-2.15,3.676-3.789,5.472c-0.274,0.3-0.547,0.599-0.813,0.896
				C7.784,7.1,7.646,7.156,7.51,7.156z"/>
		</g>
		<g>
			<path style="fill:#31395A;" d="M18.999,24h-7c-0.276,0-0.5-0.224-0.5-0.5s0.224-0.5,0.5-0.5h6.592
				c1.122-5.574,1.038-7.103,0.924-9.202L19.5,13.527c-0.085-1.575-0.734-3.123-2.044-4.872c-0.165-0.221-0.12-0.535,0.101-0.7
				c0.221-0.165,0.533-0.121,0.7,0.101c1.434,1.915,2.146,3.636,2.241,5.417l0.015,0.271c0.122,2.223,0.21,3.829-1.023,9.856
				C19.441,23.833,19.236,24,18.999,24z"/>
		</g>
		<g>
			<path style="fill:#31395A;" d="M16.488,7.156c-0.137,0-0.273-0.056-0.373-0.167c-0.267-0.299-0.541-0.599-0.817-0.9
				c-1.639-1.793-3.334-3.647-3.784-5.469c-0.066-0.268,0.098-0.539,0.365-0.605s0.538,0.098,0.605,0.365
				c0.39,1.574,1.997,3.333,3.552,5.034c0.278,0.304,0.555,0.607,0.825,0.908c0.184,0.206,0.166,0.522-0.04,0.706
				C16.727,7.114,16.607,7.156,16.488,7.156z"/>
		</g>
		<g>
			<path style="fill:#31395A;" d="M11.999,19c-0.041,0-0.081-0.005-0.121-0.015l-4-1c-0.175-0.043-0.313-0.178-0.36-0.352
				c-0.049-0.173,0.001-0.359,0.128-0.487l3.293-3.293c0.566-0.566,1.555-0.566,2.121,0l3.293,3.293
				c0.127,0.127,0.177,0.313,0.128,0.487c-0.048,0.174-0.186,0.308-0.36,0.352l-4,1C12.08,18.995,12.04,19,11.999,19z M8.977,17.229
				l3.022,0.755l3.022-0.755l-2.669-2.668c-0.195-0.195-0.512-0.195-0.707,0L8.977,17.229z"/>
		</g>
		<g>
			<path style="fill:#31395A;" d="M11.999,20.748c-0.317,0-0.635-0.1-0.9-0.298L7.7,17.9c-0.221-0.166-0.266-0.479-0.101-0.7
				c0.167-0.221,0.48-0.264,0.7-0.1l3.4,2.55c0.178,0.133,0.423,0.133,0.599,0l3.401-2.55c0.22-0.165,0.533-0.122,0.7,0.1
				c0.165,0.221,0.12,0.534-0.101,0.7l-3.4,2.55C12.634,20.649,12.316,20.748,11.999,20.748z"/>
		</g>
		<g>
			<path style="fill:#31395A;" d="M4.323,20.364c-0.193,0-0.378-0.113-0.459-0.302c-0.109-0.253,0.008-0.548,0.261-0.657
				c2.537-1.092,3.478-2.209,3.486-2.221c0.177-0.213,0.49-0.244,0.703-0.07s0.246,0.486,0.074,0.7
				c-0.043,0.053-1.075,1.307-3.867,2.509C4.457,20.351,4.39,20.364,4.323,20.364z"/>
		</g>
		<g>
			<path style="fill:#31395A;" d="M19.678,20.365c-0.066,0-0.133-0.013-0.197-0.041c-2.795-1.203-3.828-2.458-3.871-2.511
				c-0.173-0.215-0.14-0.53,0.076-0.703c0.212-0.172,0.527-0.141,0.701,0.073c0.015,0.018,0.958,1.133,3.488,2.222
				c0.254,0.109,0.371,0.403,0.262,0.657C20.056,20.252,19.871,20.365,19.678,20.365z"/>
		</g>
		<g>
			<path style="fill:#31395A;" d="M9.999,14h-3.5c-0.313,0-0.574-0.145-0.717-0.398c-0.419-0.745,0.439-2.46,1.233-3.769
				c0.087-0.142,0.237-0.231,0.403-0.24c0.167-0.005,0.325,0.067,0.425,0.2l2.556,3.407c0.113,0.151,0.132,0.354,0.047,0.523
				S10.188,14,9.999,14z M6.666,13h2.333l-1.5-2C7.046,11.835,6.712,12.633,6.666,13z"/>
		</g>
		<g>
			<path style="fill:#31395A;" d="M9.999,14c-0.152,0-0.303-0.07-0.4-0.2l-9-12C0.475,1.634,0.466,1.409,0.577,1.234
				c0.11-0.175,0.319-0.266,0.521-0.224l5,1C6.27,2.044,6.411,2.165,6.47,2.329l4,11c0.085,0.233-0.014,0.493-0.231,0.611
				C10.162,13.98,10.08,14,9.999,14z M2.185,2.247l6.193,8.258l-2.753-7.57L2.185,2.247z"/>
		</g>
		<g>
			<path style="fill:#31395A;" d="M17.499,14h-3.5c-0.189,0-0.362-0.107-0.447-0.276s-0.066-0.372,0.047-0.523l2.556-3.407
				c0.1-0.133,0.26-0.207,0.425-0.2c0.166,0.008,0.316,0.098,0.403,0.24c0.794,1.308,1.652,3.023,1.233,3.769
				C18.073,13.855,17.812,14,17.499,14z M14.999,13h2.333c-0.046-0.367-0.38-1.165-0.833-2L14.999,13z"/>
		</g>
		<g>
			<path style="fill:#31395A;" d="M13.999,14c-0.081,0-0.163-0.02-0.238-0.06c-0.218-0.118-0.316-0.378-0.231-0.611l4-11
				c0.06-0.164,0.2-0.285,0.372-0.319l5-1c0.203-0.042,0.41,0.049,0.521,0.224c0.11,0.175,0.102,0.401-0.022,0.566l-9,12
				C14.302,13.93,14.151,14,13.999,14z M18.373,2.935l-2.753,7.57l6.193-8.258L18.373,2.935z"/>
		</g>
		<g>
			<path style="fill:#31395A;" d="M11.999,7c-0.152,0-0.296-0.069-0.391-0.188l-2-2.5C9.436,4.096,9.47,3.782,9.686,3.609
				c0.218-0.171,0.531-0.137,0.703,0.078l1.609,2.012l1.609-2.012c0.174-0.215,0.488-0.249,0.703-0.078
				c0.216,0.173,0.25,0.487,0.078,0.703l-2,2.5C12.295,6.931,12.151,7,11.999,7z"/>
		</g>
		<g>
			<path style="fill:#31395A;" d="M8.999,14c-0.552,0-1-0.449-1-1s0.448-1,1-1s1,0.449,1,1S9.551,14,8.999,14z M8.999,13h-0.5H8.999
				L8.999,13z"/>
		</g>
		<g>
			<path style="fill:#31395A;" d="M14.999,14c-0.552,0-1-0.449-1-1s0.448-1,1-1s1,0.449,1,1S15.551,14,14.999,14z M14.999,13h-0.5
				H14.999L14.999,13z"/>
		</g>
	</g>
</g>
</svg>
