<?xml version="1.0" encoding="iso-8859-1"?>
<!-- Generator: Adobe Illustrator 19.0.0, SVG Export Plug-In . SVG Version: 6.00 Build 0)  -->
<svg version="1.1" id="Layer_1" xmlns="http://www.w3.org/2000/svg" xmlns:xlink="http://www.w3.org/1999/xlink" x="0px" y="0px"
	 viewBox="0 0 24 24" style="enable-background:new 0 0 24 24;" xml:space="preserve">
<g>
	<g>
		<g>
			<path style="fill:#0071BC;" d="M11,11.5H6c-0.276,0-0.5,0.224-0.5,0.5v1c0,0.276,0.224,0.5,0.5,0.5h2.543
				c0.016,0.003,0.032,0.006,0.046,0.008c-0.004,0.009-0.009,0.02-0.013,0.031C8.036,14.442,7.053,15,6,15c-1.654,0-3-1.346-3-3
				s1.346-3,3-3c0.64,0,1.258,0.209,1.787,0.606c0.089,0.067,0.195,0.1,0.3,0.1c0.128,0,0.257-0.049,0.354-0.146l1.061-1.061
				c0.1-0.1,0.153-0.237,0.146-0.378C9.641,7.98,9.575,7.849,9.465,7.759C8.46,6.935,7.261,6.5,6.001,6.5
				c-3.033,0-5.5,2.467-5.5,5.5s2.467,5.5,5.5,5.5s5.5-2.467,5.5-5.5C11.5,11.724,11.276,11.5,11,11.5z"/>
		</g>
		<g>
			<path style="fill:#0071BC;" d="M18,6.5c-3.033,0-5.5,2.467-5.5,5.5s2.467,5.5,5.5,5.5s5.5-2.467,5.5-5.5S21.033,6.5,18,6.5z"/>
		</g>
	</g>
	<g>
		<g>
			<path style="fill:#0066AA;" d="M7.464,7.759C7.573,7.848,7.639,7.98,7.647,8.121C7.654,8.262,7.601,8.4,7.501,8.499L6.864,9.136
				c0.326,0.102,0.638,0.256,0.924,0.47c0.089,0.067,0.195,0.1,0.3,0.1c0.128,0,0.257-0.049,0.354-0.146l1.061-1.061
				c0.1-0.1,0.153-0.237,0.146-0.378C9.642,7.98,9.576,7.849,9.466,7.759C8.461,6.935,7.262,6.5,6.002,6.5
				c-0.345,0-0.681,0.036-1.008,0.097C5.885,6.765,6.727,7.155,7.464,7.759z"/>
		</g>
		<g>
			<path style="fill:#0066AA;" d="M11,11.5H9c0.276,0,0.5,0.224,0.5,0.5c0,2.691-1.944,4.932-4.5,5.404
				c0.325,0.06,0.658,0.096,1,0.096c3.033,0,5.5-2.467,5.5-5.5C11.5,11.724,11.276,11.5,11,11.5z"/>
		</g>
	</g>
	<g>
		<path style="fill:#0066AA;" d="M18,6.5c-0.342,0-0.675,0.036-1,0.096C19.556,7.068,21.5,9.31,21.5,12s-1.944,4.932-4.5,5.404
			c0.325,0.06,0.658,0.096,1,0.096c3.033,0,5.5-2.467,5.5-5.5S21.033,6.5,18,6.5z"/>
	</g>
	<g id="Pokemon_GO">
		<g>
			<path style="fill:#31395A;" d="M6,18c-3.309,0-6-2.691-6-6s2.691-6,6-6c1.603,0,3.109,0.624,4.242,1.757
				c0.195,0.195,0.195,0.512,0,0.707s-0.512,0.195-0.707,0C8.591,7.52,7.335,7,6,7c-2.757,0-5,2.243-5,5s2.243,5,5,5s5-2.243,5-5
				c0-0.153-0.007-0.304-0.021-0.454c-0.025-0.275,0.177-0.519,0.452-0.544c0.274-0.027,0.519,0.177,0.544,0.452
				c0.017,0.18,0.024,0.361,0.024,0.545C12,15.309,9.309,18,6,18z"/>
		</g>
		<g>
			<path style="fill:#31395A;" d="M6,15.5c-1.93,0-3.5-1.57-3.5-3.5S4.07,8.5,6,8.5c0.934,0,1.813,0.363,2.473,1.023
				c0.195,0.195,0.195,0.512,0,0.707s-0.512,0.195-0.707,0C7.294,9.759,6.667,9.5,6,9.5c-1.378,0-2.5,1.122-2.5,2.5
				s1.122,2.5,2.5,2.5c0.89,0,1.72-0.479,2.166-1.25c0.139-0.239,0.442-0.321,0.684-0.183c0.239,0.139,0.321,0.444,0.183,0.684
				C8.408,14.83,7.246,15.5,6,15.5z"/>
		</g>
		<g>
			<path style="fill:#31395A;" d="M8.121,10.379c-0.128,0-0.256-0.049-0.354-0.146c-0.195-0.195-0.195-0.512,0-0.707l1.768-1.768
				c0.195-0.195,0.512-0.195,0.707,0s0.195,0.512,0,0.707l-1.768,1.768C8.377,10.33,8.249,10.379,8.121,10.379z"/>
		</g>
		<g>
			<path style="fill:#31395A;" d="M8.599,14H5.5C5.224,14,5,13.776,5,13.5v-2C5,11.224,5.224,11,5.5,11h5.978
				c0.276,0,0.5,0.224,0.5,0.5s-0.224,0.5-0.5,0.5H6v1h2.599c0.276,0,0.5,0.224,0.5,0.5S8.875,14,8.599,14z"/>
		</g>
		<g>
			<path style="fill:#31395A;" d="M18,18c-3.309,0-6-2.691-6-6s2.691-6,6-6s6,2.691,6,6S21.309,18,18,18z M18,7
				c-2.757,0-5,2.243-5,5s2.243,5,5,5s5-2.243,5-5S20.757,7,18,7z"/>
		</g>
		<g>
			<path style="fill:#31395A;" d="M18,15.5c-1.93,0-3.5-1.57-3.5-3.5s1.57-3.5,3.5-3.5s3.5,1.57,3.5,3.5S19.93,15.5,18,15.5z
				 M18,9.5c-1.378,0-2.5,1.122-2.5,2.5s1.122,2.5,2.5,2.5s2.5-1.122,2.5-2.5S19.378,9.5,18,9.5z"/>
		</g>
		<g>
			<circle style="fill:#31395A;" cx="18" cy="12" r="1"/>
		</g>
		<g>
			<path style="fill:#31395A;" d="M20.5,12.5H19c-0.276,0-0.5-0.224-0.5-0.5s0.224-0.5,0.5-0.5h1.5c0.276,0,0.5,0.224,0.5,0.5
				S20.776,12.5,20.5,12.5z"/>
		</g>
		<g>
			<path style="fill:#31395A;" d="M17,12.5h-1.5c-0.276,0-0.5-0.224-0.5-0.5s0.224-0.5,0.5-0.5H17c0.276,0,0.5,0.224,0.5,0.5
				S17.276,12.5,17,12.5z"/>
		</g>
	</g>
	<g>
		<path style="fill:#DF2C2C;" d="M18,9.5c1.207,0,2.217,0.86,2.449,2H19c-0.048,0-0.091,0.015-0.135,0.027
			C18.695,11.218,18.377,11,18,11s-0.694,0.218-0.865,0.527C17.091,11.514,17.048,11.5,17,11.5h-1.449
			C15.783,10.36,16.793,9.5,18,9.5z"/>
	</g>
	<g>
		<path style="fill:#FFFFFF;" d="M18,14.5c-1.207,0-2.217-0.86-2.449-2H17c0.048,0,0.091-0.015,0.135-0.027
			C17.305,12.782,17.623,13,18,13s0.694-0.218,0.865-0.527C18.909,12.486,18.952,12.5,19,12.5h1.449
			C20.217,13.64,19.207,14.5,18,14.5z"/>
	</g>
</g>
</svg>
