<?xml version="1.0" encoding="iso-8859-1"?>
<!-- Generator: Adobe Illustrator 19.0.0, SVG Export Plug-In . SVG Version: 6.00 Build 0)  -->
<svg version="1.1" id="Layer_1" xmlns="http://www.w3.org/2000/svg" xmlns:xlink="http://www.w3.org/1999/xlink" x="0px" y="0px"
	 viewBox="0 0 24 24" style="enable-background:new 0 0 24 24;" xml:space="preserve">
<g>
	<g>
		<path style="fill:#DF2C2C;" d="M1.637,14.115c-0.063,0-0.125-0.012-0.185-0.035c-0.165-0.065-0.282-0.213-0.31-0.388
			c-0.096-0.62-0.143-1.173-0.143-1.691c0-6.065,4.935-11,11-11c5.439,0,10.004,3.904,10.853,9.283
			c0.029,0.186-0.047,0.371-0.199,0.482c-0.087,0.063-0.191,0.096-0.295,0.096c-0.077,0-0.153-0.018-0.225-0.053
			c-1.372-0.689-3.035-1.147-4.809-1.323c-0.213-0.021-0.39-0.176-0.438-0.385c-0.423-1.825-2.021-3.1-3.888-3.1
			c-2.165,0-3.916,1.701-3.986,3.872c-0.007,0.211-0.145,0.395-0.346,0.459c-2.288,0.739-4.487,1.942-6.725,3.678
			C1.854,14.079,1.747,14.115,1.637,14.115z"/>
	</g>
	<g>
		<path style="fill:#FFFFFF;" d="M12,23c-4.967,0-9.333-3.359-10.617-8.168c-0.051-0.191,0.016-0.395,0.17-0.519
			c2.282-1.832,4.531-3.108,6.876-3.902c0.052-0.018,0.106-0.026,0.16-0.026c0.087,0,0.173,0.022,0.25,0.067
			c0.125,0.072,0.212,0.194,0.24,0.335c0.373,1.862,2.021,3.214,3.92,3.214c2.2,0,3.994-1.791,3.999-3.991
			c0-0.142,0.061-0.278,0.167-0.372c0.092-0.082,0.21-0.127,0.333-0.127c0.019,0,0.038,0.001,0.056,0.003
			c1.902,0.215,3.625,0.729,4.984,1.487c0.24,0.031,0.421,0.216,0.434,0.458l0.01,0.164c0.008,0.125,0.017,0.251,0.017,0.379
			C23,18.065,18.065,23,12,23z"/>
	</g>
	<g>
		<path style="fill:#C92828;" d="M12,1c-0.423,0-0.839,0.029-1.25,0.076c4.878,0.553,8.782,4.294,9.589,9.09
			c0.768,0.491,1.687,0.832,2.627,1.151C22.611,5.562,17.844,1,12,1z"/>
	</g>
	<g>
		<path style="fill:#E6E6E6;" d="M20.339,10.166c0.1,0.597,0.161,1.208,0.161,1.834c0,5.652-4.264,10.303-9.75,10.924
			C11.161,22.971,11.577,23,12,23c6.075,0,11-4.925,11-11c0-0.231-0.021-0.456-0.034-0.683
			C22.026,10.998,21.107,10.657,20.339,10.166z"/>
	</g>
	<g>
		<path style="fill:#FFFFFF;" d="M13,14c-2.206,0-4-1.794-4-4s1.794-4,4-4s4,1.794,4,4S15.206,14,13,14z M13,9c-0.551,0-1,0.449-1,1
			s0.449,1,1,1s1-0.449,1-1S13.551,9,13,9z"/>
	</g>
	<g id="Pokeball">
		<g>
			<path style="fill:#31395A;" d="M12,23.5C5.659,23.5,0.5,18.341,0.5,12S5.659,0.5,12,0.5S23.5,5.659,23.5,12S18.341,23.5,12,23.5z
				 M12,1.5C6.21,1.5,1.5,6.21,1.5,12S6.21,22.5,12,22.5S22.5,17.79,22.5,12S17.79,1.5,12,1.5z"/>
		</g>
		<g>
			<path style="fill:#31395A;" d="M13,14.5c-2.481,0-4.5-2.019-4.5-4.5s2.019-4.5,4.5-4.5s4.5,2.019,4.5,4.5S15.481,14.5,13,14.5z
				 M13,6.5c-1.93,0-3.5,1.57-3.5,3.5s1.57,3.5,3.5,3.5s3.5-1.57,3.5-3.5S14.93,6.5,13,6.5z"/>
		</g>
		<g>
			<path style="fill:#31395A;" d="M13,11.5c-0.827,0-1.5-0.673-1.5-1.5s0.673-1.5,1.5-1.5s1.5,0.673,1.5,1.5S13.827,11.5,13,11.5z
				 M13,9.5c-0.276,0-0.5,0.224-0.5,0.5s0.224,0.5,0.5,0.5s0.5-0.224,0.5-0.5S13.276,9.5,13,9.5z"/>
		</g>
		<g>
			<path style="fill:#31395A;" d="M22.539,11.5c-0.083,0-0.166-0.021-0.243-0.063c-1.463-0.816-3.309-1.333-5.335-1.495
				c-0.275-0.022-0.48-0.263-0.458-0.539c0.022-0.274,0.256-0.473,0.539-0.458c2.168,0.173,4.154,0.733,5.743,1.619
				c0.241,0.134,0.328,0.439,0.193,0.68C22.884,11.408,22.714,11.5,22.539,11.5z"/>
		</g>
		<g>
			<path style="fill:#31395A;" d="M1.5,14.854c-0.146,0-0.291-0.063-0.39-0.186c-0.173-0.215-0.14-0.53,0.075-0.703
				c2.541-2.048,5.049-3.429,7.667-4.221c0.264-0.081,0.543,0.069,0.623,0.334c0.08,0.264-0.069,0.543-0.334,0.623
				c-2.493,0.754-4.89,2.077-7.329,4.042C1.721,14.817,1.61,14.854,1.5,14.854z"/>
		</g>
	</g>
	<g>
		<circle style="fill:#FFFFFF;" cx="13" cy="10" r="0.5"/>
	</g>
</g>
</svg>
