<?xml version="1.0" encoding="iso-8859-1"?>
<!-- Generator: Adobe Illustrator 19.0.0, SVG Export Plug-In . SVG Version: 6.00 Build 0)  -->
<svg version="1.1" id="Layer_1" xmlns="http://www.w3.org/2000/svg" xmlns:xlink="http://www.w3.org/1999/xlink" x="0px" y="0px"
	 viewBox="0 0 24 24" style="enable-background:new 0 0 24 24;" xml:space="preserve">
<g>
	<g>
		<g>
			<path style="fill:#FABC3D;" d="M12,23.5c-4.962,0-9-1.794-9-4c0-0.396,0.102-1.134,0.784-1.635
				c0.18-0.132,0.408-0.275,0.66-0.433c0.118-0.073,0.242-0.151,0.369-0.232c-0.079,0.047-0.168,0.071-0.257,0.071
				c-0.103,0-0.205-0.032-0.292-0.094C2.159,15.662,1,13.646,1,11.5c0-4.411,4.935-8,11-8s11,3.589,11,8
				c0,2.149-1.162,4.167-3.271,5.683c-0.087,0.063-0.189,0.094-0.292,0.094c-0.092,0-0.185-0.025-0.266-0.077
				c-0.145-0.091-0.291-0.186-0.435-0.284c0.273,0.187,0.545,0.354,0.788,0.502c0.282,0.173,0.512,0.315,0.692,0.447
				C20.898,18.36,21,19.102,21,19.5C21,21.706,16.962,23.5,12,23.5z"/>
		</g>
	</g>
	<g>
		<g>
			<g>
				<path style="fill:#E6E6E6;" d="M18.372,16.674c-0.205,0.174-0.416,0.346-0.643,0.509c-0.087,0.063-0.189,0.094-0.292,0.094
					c-0.086,0-0.17-0.027-0.248-0.071c0.111,0.07,0.232,0.15,0.335,0.213c0.282,0.173,0.512,0.315,0.692,0.447
					C18.898,18.361,19,19.103,19,19.501c0,2.055-3.507,3.752-8,3.974c0.329,0.016,0.662,0.026,1,0.026c4.962,0,9-1.794,9-4
					c0-0.398-0.102-1.14-0.784-1.635c-0.18-0.131-0.41-0.273-0.692-0.447c-0.103-0.063-0.223-0.144-0.335-0.213
					c0.077,0.044,0.162,0.071,0.248,0.071c0.103,0,0.205-0.031,0.292-0.094c0.077-0.055,0.143-0.116,0.217-0.172
					C19.327,16.974,18.52,17.087,18.372,16.674z"/>
			</g>
		</g>
	</g>
	<g>
		<g>
			<path style="fill:#E1AA37;" d="M23,11.5c0-4.411-4.935-8-11-8c-0.338,0-0.67,0.015-1,0.037c5.598,0.369,10,3.797,10,7.963
				c0,1.918-0.93,3.728-2.628,5.174c0.148,0.414,0.955,0.3,1.575,0.337C21.912,15.515,23,13.571,23,11.5z"/>
		</g>
	</g>
	<g>
		<g>
			<ellipse style="fill:#FFFFFF;" cx="7" cy="10" rx="3" ry="2.5"/>
		</g>
	</g>
	<g>
		<g>
			<ellipse style="fill:#FFFFFF;" cx="17" cy="10" rx="3" ry="2.5"/>
		</g>
	</g>
	<g>
		<g>
			<path style="fill:#FBE158;" d="M17,14.5c0,1.708,2.274,2.681,3.216,3.365C20.79,18.282,21,18.918,21,19.5c0,2.209-4.029,4-9,4
				s-9-1.791-9-4c0-0.583,0.212-1.216,0.784-1.635C4.722,17.176,7,16.167,7,14.5c0,0,1.417-2.5,5-2.5S17,14.5,17,14.5z"/>
		</g>
	</g>
	<g>
		<g>
			<path style="fill:#E2CB4F;" d="M20.216,17.865C19.275,17.181,17,16.209,17,14.5c0,0-1.417-2.5-5-2.5c-0.357,0-0.686,0.03-1,0.075
				c2.845,0.403,4,2.425,4,2.425c0,1.708,2.274,2.681,3.216,3.365C18.79,18.282,19,18.918,19,19.5c0,2.059-3.501,3.753-8,3.974
				c0.329,0.016,0.662,0.026,1,0.026c4.971,0,9-1.791,9-4C21,18.917,20.79,18.282,20.216,17.865z"/>
		</g>
	</g>
	<g id="Psyduck">
		<g>
			<g>
				<path style="fill:#31395A;" d="M19.542,17.824c-0.16,0-0.316-0.076-0.413-0.217c-0.156-0.228-0.098-0.539,0.13-0.695
					c2.09-1.432,3.241-3.353,3.241-5.411c0-4.136-4.71-7.5-10.5-7.5s-10.5,3.364-10.5,7.5c0,2.058,1.151,3.979,3.241,5.411
					c0.228,0.156,0.286,0.467,0.13,0.695c-0.157,0.227-0.466,0.286-0.695,0.13C1.84,16.137,0.5,13.864,0.5,11.501
					c0-4.687,5.159-8.5,11.5-8.5s11.5,3.813,11.5,8.5c0,2.363-1.34,4.636-3.676,6.236C19.738,17.795,19.639,17.824,19.542,17.824z"
					/>
			</g>
		</g>
		<g>
			<g>
				<path style="fill:#31395A;" d="M12,24c-5.327,0-9.5-1.977-9.5-4.5c0-0.834,0.36-1.577,0.988-2.038
					c0.195-0.143,0.445-0.3,0.721-0.472C5.176,16.386,6.5,15.558,6.5,14.5C6.5,14.224,6.724,14,7,14s0.5,0.224,0.5,0.5
					c0,1.612-1.662,2.651-2.761,3.338c-0.252,0.157-0.481,0.299-0.659,0.43C3.575,18.639,3.5,19.199,3.5,19.5
					c0,1.69,3.416,3.5,8.5,3.5s8.5-1.81,8.5-3.5c0-0.303-0.075-0.866-0.578-1.23c-0.178-0.13-0.408-0.27-0.66-0.425
					c-1.1-0.675-2.762-1.696-2.762-3.345c0-0.276,0.224-0.5,0.5-0.5s0.5,0.224,0.5,0.5c0,1.089,1.321,1.9,2.286,2.493
					c0.277,0.17,0.528,0.325,0.724,0.467c0.629,0.457,0.99,1.201,0.99,2.04C21.5,22.023,17.327,24,12,24z"/>
			</g>
		</g>
		<g>
			<g>
				<path style="fill:#31395A;" d="M11,15c-0.04,0-0.081-0.005-0.122-0.015l-2-0.5c-0.268-0.067-0.431-0.338-0.364-0.606
					c0.066-0.269,0.335-0.432,0.606-0.364l2,0.5c0.268,0.067,0.431,0.338,0.364,0.606C11.428,14.849,11.225,15,11,15z"/>
			</g>
		</g>
		<g>
			<g>
				<path style="fill:#31395A;" d="M13,15c-0.224,0-0.428-0.151-0.484-0.379c-0.067-0.268,0.096-0.539,0.364-0.606l2-0.5
					c0.267-0.067,0.539,0.095,0.606,0.364c0.067,0.268-0.096,0.539-0.364,0.606l-2,0.5C13.081,14.995,13.04,15,13,15z"/>
			</g>
		</g>
		<g>
			<g>
				<path style="fill:#31395A;" d="M7,13c-1.93,0-3.5-1.346-3.5-3S5.07,7,7,7s3.5,1.346,3.5,3S8.93,13,7,13z M7,8
					c-1.378,0-2.5,0.897-2.5,2s1.122,2,2.5,2s2.5-0.897,2.5-2S8.378,8,7,8z"/>
			</g>
		</g>
		<g>
			<g>
				<path style="fill:#31395A;" d="M17,13c-1.93,0-3.5-1.346-3.5-3s1.57-3,3.5-3s3.5,1.346,3.5,3S18.93,13,17,13z M17,8
					c-1.378,0-2.5,0.897-2.5,2s1.122,2,2.5,2s2.5-0.897,2.5-2S18.378,8,17,8z"/>
			</g>
		</g>
		<g>
			<g>
				<circle style="fill:#31395A;" cx="7" cy="10.5" r="0.5"/>
			</g>
		</g>
		<g>
			<g>
				<circle style="fill:#31395A;" cx="17" cy="10.5" r="0.5"/>
			</g>
		</g>
		<g>
			<g>
				<path style="fill:#31395A;" d="M12,4c-0.276,0-0.5-0.224-0.5-0.5v-3C11.5,0.224,11.724,0,12,0s0.5,0.224,0.5,0.5v3
					C12.5,3.776,12.276,4,12,4z"/>
			</g>
		</g>
		<g>
			<g>
				<path style="fill:#31395A;" d="M14,4c-0.052,0-0.105-0.008-0.158-0.026c-0.262-0.087-0.403-0.37-0.316-0.632l1-3
					c0.087-0.262,0.367-0.404,0.632-0.316c0.262,0.087,0.403,0.37,0.316,0.632l-1,3C14.404,3.868,14.209,4,14,4z"/>
			</g>
		</g>
		<g>
			<g>
				<path style="fill:#31395A;" d="M10,4C9.791,4,9.596,3.868,9.526,3.658l-1-3C8.439,0.396,8.58,0.113,8.842,0.026
					C9.106-0.062,9.387,0.08,9.474,0.342l1,3c0.087,0.262-0.054,0.545-0.316,0.632C10.105,3.992,10.052,4,10,4z"/>
			</g>
		</g>
	</g>
</g>
</svg>
