<?xml version="1.0" encoding="iso-8859-1"?>
<!-- Generator: Adobe Illustrator 19.0.0, SVG Export Plug-In . SVG Version: 6.00 Build 0)  -->
<svg version="1.1" id="Layer_1" xmlns="http://www.w3.org/2000/svg" xmlns:xlink="http://www.w3.org/1999/xlink" x="0px" y="0px"
	 viewBox="0 0 24 24" style="enable-background:new 0 0 24 24;" xml:space="preserve">
<g>
	<g>
		<path style="fill:#72B254;" d="M16.783,9.404c-0.127,0-0.25-0.048-0.342-0.136c-0.174-0.164-0.358-0.317-0.549-0.461
			c-0.22-0.166-0.265-0.479-0.099-0.699L21.35,0.7c0.094-0.126,0.243-0.2,0.4-0.2h0.941c0.173,0,0.334,0.09,0.425,0.237
			s0.1,0.332,0.022,0.486l-2.554,5.108c-0.052,0.104-0.139,0.187-0.245,0.233c-0.375,0.167-1.713,0.85-3.166,2.653
			c-0.087,0.108-0.216,0.176-0.354,0.186C16.806,9.404,16.794,9.404,16.783,9.404z"/>
	</g>
	<g>
		<path style="fill:#72B254;" d="M12,11.5c-1.378,0-2.5-1.122-2.5-2.5V8.35c0-0.211,0.133-0.4,0.333-0.471
			C10.541,7.628,11.269,7.5,12,7.5s1.46,0.127,2.167,0.379C14.365,7.95,14.5,8.139,14.5,8.35V9C14.5,10.378,13.377,11.5,12,11.5z"/>
	</g>
	<g>
		<path style="fill:#72B254;" d="M7.18,9.403c-0.139-0.01-0.267-0.077-0.354-0.186c-1.452-1.804-2.79-2.486-3.165-2.653
			C3.555,6.517,3.469,6.435,3.416,6.331L0.861,1.223C0.783,1.068,0.792,0.884,0.884,0.737S1.136,0.5,1.309,0.5H2.25
			c0.157,0,0.306,0.074,0.4,0.2l5.557,7.408c0.166,0.22,0.121,0.533-0.099,0.699c-0.191,0.145-0.375,0.298-0.55,0.461
			C7.465,9.355,7.343,9.403,7.216,9.403C7.204,9.404,7.192,9.404,7.18,9.403z"/>
	</g>
	<g>
		<path style="fill:#72B254;" d="M12,21.327c-0.115,0-0.229-0.04-0.323-0.118c-0.608-0.514-2.232-1.708-4.178-1.708
			c-0.03,0.005-0.06,0.008-0.09,0.008c-0.205,0-0.392-0.121-0.464-0.318C6.779,18.737,6.5,17.915,6.5,17.502
			c0-0.748-0.264-1.306-0.519-1.845C5.733,15.134,5.5,14.641,5.5,14.002c0-2.304,1.245-4.458,3.249-5.621
			C8.827,8.336,8.913,8.314,9,8.314c0.086,0,0.172,0.022,0.25,0.067C9.405,8.47,9.5,8.635,9.5,8.814V9c0,1.378,1.122,2.5,2.5,2.5
			s2.5-1.122,2.5-2.5V8.812c0-0.179,0.096-0.344,0.25-0.433c0.077-0.044,0.164-0.067,0.25-0.067c0.087,0,0.173,0.022,0.251,0.067
			C17.255,9.543,18.5,11.696,18.5,14c0,0.623-0.23,1.109-0.473,1.624c-0.26,0.548-0.527,1.111-0.527,1.876
			c0,0.407-0.283,1.233-0.452,1.689c-0.073,0.199-0.262,0.327-0.468,0.327c-0.027,0-0.097-0.007-0.104-0.007
			c-1.924,0-3.544,1.188-4.152,1.7C12.23,21.288,12.114,21.327,12,21.327z"/>
	</g>
	<g>
		<path style="fill:#72B254;" d="M1,22.935c-0.072,0-0.145-0.016-0.212-0.047C0.611,22.805,0.5,22.629,0.5,22.435v-0.764
			c0-0.111,0.037-0.219,0.104-0.306l4.516-5.831c0.095-0.123,0.242-0.194,0.396-0.194c0.016,0,0.033,0.001,0.049,0.002
			c0.171,0.017,0.322,0.12,0.398,0.274C6.236,16.192,6.5,16.751,6.5,17.499c0,0.127,0.032,0.321,0.094,0.577
			c0.045,0.186-0.02,0.381-0.167,0.503l-5.108,4.239C1.227,22.896,1.113,22.935,1,22.935z"/>
	</g>
	<g>
		<path style="fill:#72B254;" d="M10.042,23.5c-0.335,0-0.65-0.173-0.845-0.464c-0.264-0.396-0.424-0.834-0.594-1.297
			c-0.161-0.438-0.34-0.929-0.635-1.367c-0.113-0.168-0.114-0.388-0.002-0.556c0.094-0.141,0.251-0.223,0.417-0.223
			c0.032,0,0.065,0.003,0.097,0.01c2,0.396,3.458,1.835,3.519,1.896c0.017-0.014,1.511-1.49,3.511-1.893
			c0.033-0.006,0.066-0.01,0.099-0.01c0.165,0,0.321,0.082,0.415,0.222c0.113,0.168,0.113,0.388,0.001,0.556
			c-0.299,0.447-0.488,0.967-0.641,1.385c-0.16,0.439-0.326,0.894-0.581,1.277c-0.194,0.291-0.51,0.464-0.845,0.464L10.042,23.5
			L10.042,23.5z"/>
	</g>
	<g>
		<path style="fill:#72B254;" d="M23,22.931c-0.115,0-0.229-0.04-0.32-0.116l-5.104-4.262c-0.146-0.122-0.211-0.317-0.166-0.502
			c0.074-0.303,0.09-0.467,0.09-0.551c0-0.763,0.266-1.326,0.523-1.871c0.074-0.157,0.227-0.268,0.399-0.287
			c0.019-0.002,0.037-0.003,0.056-0.003c0.153,0,0.3,0.068,0.395,0.191l4.521,5.834c0.068,0.087,0.105,0.195,0.105,0.306v0.76
			c0,0.194-0.112,0.371-0.288,0.453C23.143,22.916,23.071,22.931,23,22.931z"/>
	</g>
	<g>
		<path style="fill:#67A14C;" d="M23.115,0.737C23.024,0.59,22.863,0.5,22.69,0.5h-0.941c-0.157,0-0.306,0.074-0.4,0.2l-0.174,0.232
			c0.014,0.099,0.008,0.2-0.038,0.292l-2.554,5.108c-0.052,0.104-0.139,0.187-0.245,0.233c-0.327,0.145-1.383,0.683-2.608,2.008
			c0.032,0.089,0.08,0.174,0.162,0.235c0.191,0.144,0.375,0.297,0.549,0.461c0.093,0.087,0.215,0.136,0.342,0.136
			c0.011,0,0.023,0,0.035-0.001c0.139-0.01,0.268-0.077,0.354-0.186c1.453-1.803,2.791-2.486,3.166-2.653
			c0.106-0.047,0.193-0.129,0.245-0.233l2.554-5.108C23.216,1.069,23.208,0.885,23.115,0.737z"/>
	</g>
	<g>
		<path style="fill:#67A14C;" d="M14.167,7.879C13.458,7.628,12.73,7.5,12,7.5c-0.334,0-0.668,0.034-1,0.087
			c0.393,0.063,0.784,0.155,1.167,0.292C12.365,7.95,12.5,8.139,12.5,8.35V9c0,1.023-0.619,1.901-1.5,2.288
			c0.307,0.135,0.644,0.212,1,0.212c1.378,0,2.5-1.122,2.5-2.5V8.35C14.5,8.139,14.366,7.95,14.167,7.879z"/>
	</g>
	<g>
		<path style="fill:#67A14C;" d="M8.207,8.108L2.65,0.7c-0.094-0.126-0.243-0.2-0.4-0.2H1.308c-0.173,0-0.334,0.09-0.425,0.237
			c-0.037,0.06-0.051,0.127-0.06,0.195l5.383,7.177C6.31,8.248,6.322,8.421,6.268,8.574c0.183,0.198,0.369,0.411,0.557,0.645
			c0.087,0.108,0.216,0.176,0.354,0.186c0.012,0,0.023,0.001,0.035,0.001c0.126,0,0.249-0.048,0.342-0.135
			c0.175-0.164,0.359-0.317,0.55-0.461C8.328,8.642,8.372,8.329,8.207,8.108z"/>
	</g>
	<g>
		<g>
			<path style="fill:#67A14C;" d="M15.25,8.379C15.172,8.334,15.086,8.312,15,8.312c-0.086,0-0.172,0.022-0.25,0.067
				c-0.155,0.089-0.25,0.254-0.25,0.433V9c0,0.104-0.018,0.204-0.031,0.305C15.743,10.52,16.5,12.211,16.5,14
				c0,0.623-0.23,1.109-0.473,1.624c-0.26,0.548-0.527,1.111-0.527,1.876c0,0.407-0.283,1.233-0.452,1.689
				c-0.073,0.199-0.262,0.327-0.468,0.327c-0.027,0-0.097-0.007-0.104-0.007c-1.419,0-2.668,0.645-3.473,1.19
				c0.285,0.194,0.517,0.375,0.676,0.509c0.093,0.079,0.208,0.118,0.323,0.118c0.114,0,0.229-0.039,0.322-0.117
				c0.608-0.512,2.228-1.7,4.152-1.7c0.008,0,0.078,0.007,0.104,0.007c0.206,0,0.395-0.128,0.468-0.327
				c0.169-0.457,0.452-1.283,0.452-1.689c0-0.766,0.267-1.329,0.527-1.876C18.269,15.109,18.5,14.623,18.5,14
				C18.5,11.696,17.254,9.542,15.25,8.379z"/>
		</g>
	</g>
	<g>
		<path style="fill:#67A14C;" d="M6.5,17.5c0-0.749-0.264-1.307-0.537-1.883c-0.077-0.154-0.227-0.257-0.398-0.274
			c-0.016-0.001-0.033-0.002-0.049-0.002c-0.154,0-0.3,0.071-0.396,0.194l-0.776,1.002c0.093,0.294,0.156,0.606,0.156,0.964
			c0,0.127,0.032,0.321,0.094,0.577c0.045,0.186-0.02,0.381-0.167,0.503L0.498,21.84v0.595c0,0.194,0.112,0.37,0.288,0.453
			c0.068,0.032,0.14,0.047,0.212,0.047c0.114,0,0.228-0.039,0.319-0.115l5.108-4.239c0.147-0.122,0.212-0.317,0.167-0.503
			C6.531,17.821,6.5,17.627,6.5,17.5z"/>
	</g>
	<g>
		<g>
			<path style="fill:#67A14C;" d="M16.023,19.817c-0.094-0.14-0.25-0.222-0.415-0.222c-0.033,0-0.066,0.003-0.099,0.01
				c-0.507,0.102-0.981,0.274-1.407,0.472c0.004,0.103-0.019,0.206-0.079,0.295c-0.299,0.447-0.488,0.967-0.641,1.385
				c-0.16,0.439-0.326,0.894-0.581,1.277c-0.194,0.291-0.51,0.464-0.845,0.464h2c0.335,0,0.65-0.173,0.845-0.464
				c0.255-0.383,0.421-0.838,0.581-1.277c0.152-0.418,0.342-0.938,0.641-1.385C16.137,20.205,16.136,19.985,16.023,19.817z"/>
		</g>
	</g>
	<g>
		<path style="fill:#67A14C;" d="M23.394,21.365l-4.521-5.834c-0.095-0.123-0.242-0.191-0.395-0.191
			c-0.019,0-0.038,0.001-0.056,0.003c-0.173,0.019-0.325,0.129-0.399,0.287c-0.136,0.287-0.271,0.582-0.371,0.906l3.743,4.829
			c0.068,0.087,0.105,0.195,0.105,0.306v0.159l1.18,0.985c0.091,0.077,0.206,0.116,0.32,0.116c0.072,0,0.144-0.016,0.212-0.047
			c0.176-0.083,0.288-0.259,0.288-0.453v-0.76C23.5,21.56,23.462,21.452,23.394,21.365z"/>
	</g>
	<g>
		<g>
			<path style="fill:#FFFFFF;" d="M9.724,15.95c-0.085-0.171-0.26-0.276-0.447-0.276c-0.021,0-0.042,0.001-0.063,0.004
				c-0.211,0.027-0.382,0.185-0.426,0.393l-0.05,0.239c-0.058,0.292,0.018,0.592,0.208,0.825c0.177,0.216,0.438,0.348,0.716,0.364
				c0.009,0,0.019,0.001,0.028,0.001c0.167,0,0.325-0.084,0.418-0.225c0.098-0.149,0.109-0.339,0.029-0.499L9.724,15.95z"/>
		</g>
		<g>
			<path style="fill:#FFFFFF;" d="M15.22,16.075c-0.038-0.212-0.208-0.376-0.421-0.407c-0.024-0.003-0.048-0.005-0.071-0.005
				c-0.188,0-0.362,0.105-0.447,0.276l-0.418,0.836c-0.08,0.16-0.068,0.349,0.029,0.499c0.093,0.141,0.25,0.225,0.418,0.225
				c0.009,0,0.019,0,0.028-0.001c0.278-0.016,0.539-0.148,0.716-0.364c0.19-0.232,0.266-0.535,0.209-0.82L15.22,16.075z"/>
		</g>
	</g>
	<g id="Rayquaza">
		<g>
			<path style="fill:#31395A;" d="M13.958,24h-3.916c-0.503,0-0.974-0.257-1.261-0.687c-0.298-0.447-0.477-0.935-0.649-1.406
				C7.836,21.1,7.58,20.403,6.802,19.932c-0.093-0.057-0.165-0.142-0.206-0.243c-0.1-0.251-0.598-1.538-0.598-2.188
				c0-0.636-0.229-1.12-0.472-1.633c-0.26-0.548-0.528-1.116-0.528-1.867c0-3.86,3.14-7,7-7s7,3.14,7,7
				c0,0.736-0.266,1.297-0.523,1.84c-0.245,0.519-0.477,1.008-0.477,1.66c0,0.641-0.503,1.933-0.604,2.185
				c-0.041,0.101-0.113,0.186-0.206,0.242c-0.778,0.47-1.049,1.214-1.337,2.002c-0.17,0.468-0.347,0.952-0.635,1.383
				C14.931,23.743,14.46,24,13.958,24z M7.47,19.171c0.963,0.65,1.301,1.573,1.601,2.392c0.16,0.436,0.31,0.848,0.542,1.195
				C9.713,22.909,9.874,23,10.042,23h3.916c0.167,0,0.328-0.09,0.429-0.242c0.221-0.332,0.37-0.74,0.527-1.171
				c0.304-0.832,0.646-1.77,1.611-2.421C16.738,18.607,17,17.803,17,17.5c0-0.877,0.305-1.521,0.574-2.088
				C17.802,14.929,18,14.511,18,14c0-3.309-2.691-6-6-6s-6,2.691-6,6c0,0.526,0.2,0.95,0.432,1.439C6.697,16.002,7,16.639,7,17.5
				C7,17.811,7.258,18.614,7.47,19.171z"/>
		</g>
		<g>
			<path style="fill:#31395A;" d="M10.5,18H9.72c-0.451,0-0.874-0.2-1.16-0.549s-0.399-0.803-0.311-1.245l0.31-1.469l-0.506-1.013
				c-0.124-0.247-0.023-0.547,0.224-0.671c0.248-0.124,0.547-0.024,0.671,0.224l0.583,1.166c0.001,0.002,0.003,0.005,0.004,0.008
				l1.414,2.827c0.078,0.155,0.069,0.339-0.022,0.486S10.672,18,10.5,18z M9.278,16.173l-0.049,0.234
				C9.2,16.549,9.237,16.7,9.332,16.817c0.089,0.109,0.218,0.174,0.357,0.182L9.278,16.173z"/>
		</g>
		<g>
			<path style="fill:#31395A;" d="M14.279,18H13.5c-0.173,0-0.334-0.09-0.425-0.237s-0.1-0.332-0.022-0.486l1.451-2.901
				c0.001-0.003,0.003-0.007,0.005-0.01l0.544-1.089c0.124-0.248,0.423-0.347,0.671-0.224c0.247,0.124,0.347,0.424,0.224,0.671
				l-0.473,0.945l0.278,1.546c0.087,0.433-0.026,0.887-0.313,1.235C15.153,17.8,14.731,18,14.279,18z M14.727,16.163l-0.418,0.836
				c0.139-0.008,0.268-0.073,0.357-0.182c0.095-0.116,0.133-0.268,0.104-0.415L14.727,16.163z"/>
		</g>
		<g>
			<path style="fill:#31395A;" d="M12,12c-1.654,0-3-1.346-3-3V8c0-0.276,0.224-0.5,0.5-0.5S10,7.724,10,8v1c0,1.103,0.897,2,2,2
				s2-0.897,2-2V8c0-0.276,0.224-0.5,0.5-0.5S15,7.724,15,8v1C15,10.654,13.653,12,12,12z"/>
		</g>
		<g>
			<path style="fill:#31395A;" d="M12,22L12,22c-0.134,0-0.261-0.053-0.355-0.147c-0.019-0.019-1.868-1.852-4.145-1.852
				c-0.276,0-0.5-0.224-0.5-0.5s0.224-0.5,0.5-0.5c2.083,0,3.789,1.225,4.501,1.827c0.714-0.601,2.425-1.827,4.499-1.827
				c0.276,0,0.5,0.224,0.5,0.5s-0.224,0.5-0.5,0.5c-2.267,0-4.127,1.834-4.146,1.853C12.26,21.947,12.133,22,12,22z"/>
		</g>
		<g>
			<path style="fill:#31395A;" d="M7.169,10.151c-0.153,0-0.305-0.07-0.403-0.203c-1.743-2.363-3.414-2.969-3.43-2.975
				C3.213,6.93,3.111,6.84,3.053,6.724l-3-6c-0.078-0.155-0.069-0.339,0.022-0.486S0.327,0,0.5,0h2c0.157,0,0.306,0.074,0.4,0.2l6,8
				c0.166,0.221,0.121,0.534-0.1,0.7C8.578,9.066,8.264,9.021,8.1,8.8L2.25,1H1.309l2.554,5.108C4.409,6.35,5.97,7.184,7.571,9.354
				c0.164,0.222,0.117,0.535-0.105,0.699C7.376,10.119,7.273,10.151,7.169,10.151z"/>
		</g>
		<g>
			<path style="fill:#31395A;" d="M16.83,10.151c-0.103,0-0.207-0.032-0.296-0.098c-0.222-0.164-0.27-0.477-0.105-0.699
				c1.602-2.17,3.163-3.004,3.709-3.246L22.692,1H21.75l-5.85,7.8c-0.165,0.222-0.479,0.266-0.7,0.1s-0.266-0.479-0.1-0.7l6-8
				c0.094-0.126,0.243-0.2,0.4-0.2h2c0.173,0,0.334,0.09,0.425,0.237s0.1,0.332,0.022,0.486l-3,6
				c-0.059,0.118-0.162,0.208-0.287,0.25c-0.014,0.005-1.685,0.611-3.428,2.974C17.134,10.081,16.983,10.151,16.83,10.151z"/>
		</g>
		<g>
			<path style="fill:#31395A;" d="M0.5,24c-0.072,0-0.145-0.016-0.212-0.047C0.111,23.87,0,23.694,0,23.5v-2
				c0-0.111,0.037-0.219,0.104-0.306l5.144-6.642c0.169-0.218,0.483-0.257,0.702-0.089c0.218,0.169,0.258,0.483,0.089,0.702
				l-5.04,6.507v0.764l5.354-4.443c0.212-0.178,0.527-0.147,0.704,0.065c0.176,0.212,0.147,0.528-0.065,0.704l-6.173,5.124
				C0.727,23.961,0.613,24,0.5,24z"/>
		</g>
		<g>
			<path style="fill:#31395A;" d="M23.5,24c-0.115,0-0.229-0.04-0.32-0.116l-6.169-5.151c-0.212-0.177-0.24-0.492-0.063-0.704
				c0.176-0.212,0.492-0.241,0.704-0.063L23,22.432v-0.76l-5.043-6.507c-0.169-0.218-0.129-0.532,0.089-0.701
				c0.218-0.17,0.533-0.129,0.701,0.089l5.148,6.642C23.963,21.282,24,21.39,24,21.501v2c0,0.194-0.112,0.371-0.288,0.453
				C23.643,23.984,23.571,24,23.5,24z"/>
		</g>
	</g>
</g>
</svg>
