<?xml version="1.0" encoding="iso-8859-1"?>
<!-- Generator: Adobe Illustrator 19.0.0, SVG Export Plug-In . SVG Version: 6.00 Build 0)  -->
<svg version="1.1" id="Layer_1" xmlns="http://www.w3.org/2000/svg" xmlns:xlink="http://www.w3.org/1999/xlink" x="0px" y="0px"
	 viewBox="0 0 24 24" style="enable-background:new 0 0 24 24;" xml:space="preserve">
<g>
	<g>
		<path style="fill:#47693B;" d="M22.225,16.053c-0.237-0.01-0.436-0.187-0.473-0.422c-0.666-4.246-2.69-6.767-6.188-7.707
			l-3.169,4.069c-0.095,0.122-0.24,0.193-0.395,0.193l0,0c-0.154,0-0.3-0.071-0.395-0.193L8.442,7.924
			c-3.502,0.942-5.528,3.462-6.196,7.705c-0.037,0.235-0.235,0.412-0.474,0.422c-0.007,0-0.014,0-0.021,0
			c-0.229,0-0.431-0.157-0.485-0.382c-0.178-0.728-0.268-1.458-0.268-2.169c0-1.888,0.574-3.708,1.666-5.295
			c-0.103,0.108-0.254,0.183-0.4,0.183c-0.025,0-0.051-0.002-0.076-0.007C1.992,8.342,1.813,8.227,1.771,8.032
			c-0.619-2.844-0.742-5.801-0.767-6.94C1.001,0.941,1.066,0.797,1.181,0.7c0.091-0.077,0.206-0.119,0.323-0.119
			c0.031,0,0.062,0.003,0.093,0.009c1.221,0.23,4.386,1.072,7.401,3.911C8.932,4.364,8.93,4.205,8.996,4.067s0.19-0.236,0.34-0.27
			c0.865-0.194,1.76-0.293,2.66-0.293c0.901,0,1.798,0.099,2.664,0.293c0.149,0.034,0.275,0.133,0.341,0.271
			C15.067,4.206,15.067,4.366,15,4.504c3.016-2.844,6.18-3.684,7.399-3.914c0.031-0.006,0.063-0.009,0.093-0.009
			c0.117,0,0.232,0.042,0.323,0.119c0.115,0.097,0.18,0.241,0.177,0.392c-0.024,1.139-0.147,4.095-0.767,6.941
			c-0.042,0.195-0.196,0.346-0.392,0.384c-0.032,0.006-0.064,0.009-0.097,0.009c-0.135,0-0.266-0.055-0.359-0.152
			c1.062,1.569,1.62,3.364,1.62,5.227c0,0.714-0.09,1.445-0.269,2.171c-0.055,0.224-0.256,0.381-0.485,0.381
			C22.239,16.053,22.232,16.053,22.225,16.053z"/>
	</g>
	<g>
		<path style="fill:#F8EEC0;" d="M12,23.501c-4.187,0-8.072-2.226-9.901-5.671c-0.044-0.083-0.063-0.176-0.058-0.27
			c0.377-5.354,2.306-8.385,6.068-9.54c0.048-0.015,0.098-0.022,0.146-0.022c0.151,0,0.299,0.069,0.395,0.193L12,12.5l3.355-4.31
			c0.097-0.124,0.243-0.193,0.395-0.193c0.049,0,0.098,0.007,0.146,0.021c3.762,1.146,5.688,4.178,6.063,9.543
			c0.006,0.093-0.014,0.187-0.058,0.269C20.071,21.276,16.186,23.501,12,23.501z"/>
	</g>
	<g>
		<g>
			<path style="fill:#394E45;" d="M21.38,8.274c0.094,0.098,0.225,0.152,0.359,0.152c0.032,0,0.064-0.003,0.097-0.009
				c0.195-0.039,0.35-0.189,0.392-0.384c0.619-2.846,0.742-5.802,0.767-6.941c0.003-0.151-0.062-0.295-0.177-0.392
				c-0.091-0.077-0.206-0.119-0.323-0.119c-0.03,0-0.062,0.003-0.093,0.009c-0.339,0.064-0.839,0.183-1.434,0.371
				c0.011,0.043,0.027,0.085,0.027,0.131c-0.024,1.139-0.147,4.095-0.767,6.941c-0.042,0.195-0.196,0.346-0.392,0.384
				c-0.032,0.006-0.064,0.009-0.097,0.009c-0.135,0-0.266-0.055-0.359-0.152c0.896,1.325,1.41,2.815,1.555,4.367
				c0.366,0.881,0.641,1.872,0.817,2.99c0.037,0.235,0.235,0.412,0.473,0.422c0.008,0,0.015,0,0.021,0
				c0.229,0,0.431-0.157,0.485-0.381c0.179-0.727,0.269-1.457,0.269-2.171C23,11.638,22.441,9.844,21.38,8.274z"/>
		</g>
	</g>
	<g>
		<g>
			<path style="fill:#E0D7AD;" d="M15.896,8.02c-0.048-0.015-0.097-0.021-0.146-0.021c-0.151,0-0.298,0.069-0.395,0.193
				l-0.239,0.307c2.958,1.404,4.51,4.318,4.841,9.065c0.006,0.093-0.014,0.187-0.058,0.269c-1.682,3.167-5.107,5.28-8.901,5.604
				c0.332,0.028,0.663,0.066,1,0.066c4.186,0,8.071-2.225,9.9-5.669c0.044-0.083,0.063-0.176,0.058-0.269
				C21.583,12.198,19.657,9.166,15.896,8.02z"/>
		</g>
	</g>
	<g id="Snorlax">
		<g>
			<path style="fill:#31395A;" d="M12,24.001c-6.341,0-11.5-4.71-11.5-10.5c0-2.172,0.72-4.256,2.081-6.027
				c0.169-0.219,0.483-0.26,0.701-0.092c0.219,0.168,0.26,0.482,0.092,0.701C2.148,9.678,1.5,11.551,1.5,13.501
				c0,5.238,4.71,9.5,10.5,9.5c5.79,0,10.5-4.262,10.5-9.5c0-1.957-0.652-3.836-1.888-5.435c-0.169-0.219-0.129-0.533,0.09-0.701
				c0.217-0.168,0.531-0.129,0.701,0.09c1.372,1.775,2.097,3.866,2.097,6.046C23.5,19.291,18.341,24.001,12,24.001z"/>
		</g>
		<g>
			<path style="fill:#31395A;" d="M8.474,4.526c-0.214,0-0.412-0.138-0.478-0.353C7.915,3.909,8.062,3.629,8.327,3.548
				c2.352-0.723,4.965-0.727,7.318-0.008c0.265,0.081,0.413,0.36,0.333,0.624c-0.081,0.263-0.363,0.414-0.624,0.332
				c-2.165-0.66-4.571-0.657-6.734,0.008C8.571,4.519,8.522,4.526,8.474,4.526z"/>
		</g>
		<g>
			<path style="fill:#31395A;" d="M10,16.001c-0.086,0-0.172-0.021-0.251-0.067c-2.327-1.35-4.634-0.946-4.657-0.941
				c-0.269,0.051-0.532-0.128-0.583-0.399s0.127-0.532,0.397-0.583c0.109-0.02,2.683-0.486,5.345,1.059
				c0.239,0.139,0.32,0.445,0.182,0.684C10.34,15.912,10.172,16.001,10,16.001z"/>
		</g>
		<g>
			<path style="fill:#31395A;" d="M14,16.072c-0.172,0-0.34-0.089-0.433-0.249c-0.139-0.239-0.058-0.545,0.182-0.684
				c2.662-1.545,5.235-1.079,5.345-1.059c0.271,0.051,0.448,0.312,0.397,0.583s-0.316,0.451-0.583,0.399
				c-0.023-0.004-2.33-0.409-4.657,0.941C14.172,16.051,14.086,16.072,14,16.072z"/>
		</g>
		<g>
			<path style="fill:#31395A;" d="M21.975,18.221c-0.262,0-0.482-0.204-0.499-0.468C21.14,12.471,19.37,9.6,15.75,8.498l-3.355,4.31
				C12.3,12.93,12.155,13.001,12,13.001l0,0c-0.154,0-0.3-0.071-0.395-0.193l-3.35-4.309c-3.576,1.098-5.401,4.049-5.732,9.254
				c-0.017,0.265-0.237,0.468-0.499,0.468c-0.01,0-0.021,0-0.032-0.001c-0.275-0.018-0.484-0.255-0.467-0.531
				c0.234-3.678,1.192-8.743,6.788-10.248c0.195-0.053,0.402,0.018,0.524,0.176l3.162,4.069l3.169-4.069
				c0.124-0.159,0.329-0.229,0.524-0.176c5.588,1.501,6.546,6.568,6.78,10.248c0.018,0.275-0.191,0.513-0.467,0.531
				C21.995,18.221,21.984,18.221,21.975,18.221z"/>
		</g>
		<g>
			<path style="fill:#31395A;" d="M12.066,20.974c-1.938,0-3.899-0.341-5.287-1.024c-0.248-0.122-0.35-0.422-0.228-0.669
				s0.421-0.347,0.669-0.228c2.498,1.229,7.227,1.233,9.546,0.007c0.241-0.128,0.546-0.036,0.676,0.208
				c0.129,0.244,0.035,0.547-0.209,0.676C15.935,20.63,14.012,20.974,12.066,20.974z"/>
		</g>
		<g>
			<path style="fill:#31395A;" d="M9.5,20.501c-0.209,0-0.404-0.132-0.475-0.342l-0.244-0.732l-0.428,0.428
				c-0.195,0.195-0.512,0.195-0.707,0s-0.195-0.512,0-0.707l1-1c0.123-0.122,0.3-0.171,0.469-0.133
				c0.168,0.04,0.305,0.164,0.359,0.329l0.5,1.5c0.087,0.262-0.055,0.545-0.316,0.632C9.605,20.493,9.553,20.501,9.5,20.501z"/>
		</g>
		<g>
			<path style="fill:#31395A;" d="M14.5,20.501c-0.053,0-0.105-0.008-0.158-0.026c-0.262-0.087-0.403-0.37-0.316-0.632l0.5-1.5
				c0.055-0.165,0.191-0.289,0.359-0.329c0.169-0.039,0.347,0.011,0.469,0.133l1,1c0.195,0.195,0.195,0.512,0,0.707
				s-0.512,0.195-0.707,0l-0.428-0.428l-0.244,0.732C14.904,20.369,14.709,20.501,14.5,20.501z"/>
		</g>
		<g>
			<path style="fill:#31395A;" d="M2,9.501c-0.222,0-0.424-0.148-0.483-0.372C0.47,5.172,0.498,0.686,0.5,0.497
				c0.001-0.139,0.06-0.271,0.162-0.364s0.243-0.141,0.376-0.13c0.174,0.013,4.305,0.369,8.305,4.134
				c0.201,0.189,0.211,0.506,0.021,0.707s-0.506,0.21-0.707,0.021c-2.91-2.74-5.941-3.556-7.151-3.784
				c0.028,1.339,0.18,4.775,0.978,7.792c0.07,0.267-0.089,0.541-0.355,0.611C2.085,9.496,2.042,9.501,2,9.501z"/>
		</g>
		<g>
			<path style="fill:#31395A;" d="M22,9.501c-0.042,0-0.085-0.005-0.128-0.017c-0.267-0.071-0.426-0.344-0.355-0.611
				c0.798-3.019,0.949-6.453,0.978-7.792c-1.21,0.228-4.241,1.043-7.151,3.783c-0.201,0.19-0.517,0.18-0.707-0.021
				c-0.189-0.201-0.18-0.518,0.021-0.707c3.999-3.766,8.131-4.122,8.305-4.135c0.139-0.01,0.274,0.037,0.376,0.13
				c0.103,0.093,0.161,0.225,0.162,0.364c0.002,0.189,0.029,4.675-1.017,8.632C22.424,9.353,22.222,9.501,22,9.501z"/>
		</g>
	</g>
</g>
</svg>
