<?xml version="1.0" encoding="iso-8859-1"?>
<!-- Generator: Adobe Illustrator 19.0.0, SVG Export Plug-In . SVG Version: 6.00 Build 0)  -->
<svg version="1.1" id="Layer_1" xmlns="http://www.w3.org/2000/svg" xmlns:xlink="http://www.w3.org/1999/xlink" x="0px" y="0px"
	 viewBox="0 0 24 24" style="enable-background:new 0 0 24 24;" xml:space="preserve">
<g>
	<g>
		<path style="fill:#A3D7D5;" d="M12,0.5c-6.296,0-11,6.863-11,13c0,6.908,5.524,10,11,10s11-3.092,11-10
			C23,7.363,18.296,0.5,12,0.5z"/>
	</g>
	<g>
		<path style="fill:#93C2C0;" d="M12,0.5c-0.339,0-0.671,0.029-1,0.068C16.786,1.246,21,7.694,21,13.5c0,6.487-4.872,9.608-10,9.964
			c0.333,0.023,0.666,0.036,1,0.036c5.476,0,11-3.092,11-10C23,7.363,18.296,0.5,12,0.5z"/>
	</g>
	<g>
		<g>
			<path style="fill:#FFFFFF;" d="M8.45,8.974C8.423,8.969,8.395,8.967,8.369,8.967c-0.181,0-0.351,0.099-0.439,0.261
				C7.837,9.398,7.677,9.5,7.5,9.5C7.225,9.5,7,9.276,7,9s0.225-0.5,0.5-0.5c0.072,0,0.15,0.027,0.246,0.085
				c0.08,0.049,0.17,0.073,0.26,0.073c0.116,0,0.232-0.041,0.325-0.12c0.164-0.14,0.22-0.37,0.138-0.57C8.08,7.021,7.559,6.5,7,6.5
				c-1.103,0-2,2.019-2,4.5c0,0.745,0.081,1.477,0.233,2.116C5.287,13.341,5.488,13.5,5.719,13.5h2.56
				c0.231,0,0.433-0.159,0.486-0.385C8.918,12.469,8.999,11.737,8.999,11c0-0.546-0.047-1.091-0.139-1.618
				C8.825,9.172,8.66,9.008,8.45,8.974z"/>
		</g>
		<g>
			<path style="fill:#FFFFFF;" d="M17,6.5c-0.557,0-1.078,0.521-1.468,1.467c-0.083,0.199-0.027,0.429,0.136,0.569
				c0.093,0.08,0.209,0.121,0.326,0.121c0.089,0,0.178-0.023,0.257-0.071C16.35,8.527,16.428,8.5,16.5,8.5C16.775,8.5,17,8.724,17,9
				s-0.225,0.5-0.5,0.5c-0.177,0-0.337-0.101-0.429-0.271c-0.088-0.163-0.258-0.262-0.439-0.262c-0.026,0-0.053,0.002-0.08,0.006
				c-0.21,0.034-0.376,0.197-0.412,0.407C15.047,9.906,15,10.451,15,11c0,0.745,0.081,1.477,0.233,2.116
				c0.054,0.225,0.255,0.384,0.486,0.384h2.56c0.231,0,0.433-0.159,0.486-0.385c0.153-0.646,0.234-1.378,0.234-2.115
				C19,8.519,18.103,6.5,17,6.5z"/>
		</g>
	</g>
	<g id="Squirtle">
		<g>
			<path style="fill:#31395A;" d="M12,24C5.229,24,0.5,19.682,0.5,13.5C0.5,7.127,5.418,0,12,0s11.5,7.127,11.5,13.5
				C23.5,19.682,18.771,24,12,24z M12,1C5.99,1,1.5,7.6,1.5,13.5C1.5,20.063,6.773,23,12,23s10.5-2.938,10.5-9.5
				C22.5,7.6,18.01,1,12,1z"/>
		</g>
		<g>
			<path style="fill:#31395A;" d="M8.663,14L8.663,14H5.337c-0.221,0-0.415-0.145-0.479-0.356C4.62,12.853,4.5,11.964,4.5,11
				c0-2.851,1.075-5,2.5-5s2.5,2.149,2.5,5c0,0.943-0.124,1.857-0.357,2.643C9.079,13.855,8.885,14,8.663,14z M5.72,13h2.56
				c0.145-0.61,0.221-1.294,0.221-2c0-2.442-0.889-4-1.5-4s-1.5,1.558-1.5,4C5.5,11.711,5.575,12.395,5.72,13z"/>
		</g>
		<g>
			<path style="fill:#31395A;" d="M18.663,14L18.663,14h-3.326c-0.221,0-0.415-0.145-0.479-0.356C14.62,12.853,14.5,11.964,14.5,11
				c0-2.851,1.075-5,2.5-5s2.5,2.149,2.5,5c0,0.943-0.124,1.857-0.357,2.643C19.079,13.855,18.885,14,18.663,14z M15.72,13h2.56
				c0.145-0.61,0.221-1.294,0.221-2c0-2.442-0.889-4-1.5-4s-1.5,1.558-1.5,4C15.5,11.711,15.575,12.395,15.72,13z"/>
		</g>
		<g>
			<path style="fill:#31395A;" d="M12,20.585c-0.384,0-0.769-0.146-1.061-0.438L9.793,19H6.828c-0.668,0-1.295-0.26-1.768-0.732
				l-0.414-0.414c-0.195-0.195-0.195-0.512,0-0.707s0.512-0.195,0.707,0l0.414,0.414C6.046,17.84,6.433,18,6.828,18H10
				c0.133,0,0.26,0.053,0.354,0.146l1.293,1.293c0.195,0.195,0.512,0.195,0.707,0l1.293-1.293C13.74,18.053,13.867,18,14,18h3.172
				c0.395,0,0.781-0.16,1.061-0.439l0.414-0.414c0.195-0.195,0.512-0.195,0.707,0s0.195,0.512,0,0.707l-0.414,0.414
				C18.467,18.74,17.84,19,17.172,19h-2.965l-1.146,1.146C12.769,20.439,12.384,20.585,12,20.585z"/>
		</g>
		<g>
			<path style="fill:#31395A;" d="M10,17c-0.128,0-0.256-0.049-0.354-0.146l-0.5-0.5c-0.195-0.195-0.195-0.512,0-0.707
				s0.512-0.195,0.707,0l0.5,0.5c0.195,0.195,0.195,0.512,0,0.707C10.256,16.951,10.128,17,10,17z"/>
		</g>
		<g>
			<path style="fill:#31395A;" d="M14,17c-0.128,0-0.256-0.049-0.354-0.146c-0.195-0.195-0.195-0.512,0-0.707l0.5-0.5
				c0.195-0.195,0.512-0.195,0.707,0s0.195,0.512,0,0.707l-0.5,0.5C14.256,16.951,14.128,17,14,17z"/>
		</g>
		<g>
			<circle style="fill:#31395A;" cx="16.5" cy="9" r="1"/>
		</g>
		<g>
			<circle style="fill:#31395A;" cx="7.5" cy="9" r="1"/>
		</g>
		<g>
			<path style="fill:#31395A;" d="M10,7C9.872,7,9.744,6.951,9.646,6.854l-1.5-1.5c-0.195-0.195-0.195-0.512,0-0.707
				s0.512-0.195,0.707,0l1.5,1.5c0.195,0.195,0.195,0.512,0,0.707C10.256,6.951,10.128,7,10,7z"/>
		</g>
		<g>
			<path style="fill:#31395A;" d="M14,7c-0.128,0-0.256-0.049-0.354-0.146c-0.195-0.195-0.195-0.512,0-0.707l1.5-1.5
				c0.195-0.195,0.512-0.195,0.707,0s0.195,0.512,0,0.707l-1.5,1.5C14.256,6.951,14.128,7,14,7z"/>
		</g>
	</g>
</g>
</svg>
