<?xml version="1.0" encoding="iso-8859-1"?>
<!-- Generator: Adobe Illustrator 19.0.0, SVG Export Plug-In . SVG Version: 6.00 Build 0)  -->
<svg version="1.1" id="Layer_1" xmlns="http://www.w3.org/2000/svg" xmlns:xlink="http://www.w3.org/1999/xlink" x="0px" y="0px"
	 viewBox="0 0 24 24" style="enable-background:new 0 0 24 24;" xml:space="preserve">
<g>
	<g>
		<path style="fill:#72B254;" d="M23.354,21.215c-0.585-4.593-2.761-7.604-2.855-7.732l2.505-9.184
			c0.06-0.218-0.035-0.45-0.231-0.564c-0.078-0.045-0.165-0.067-0.251-0.067c-0.129,0-0.257,0.05-0.354,0.146l-6.669,6.668
			l-3.028-8.651c-0.07-0.201-0.26-0.335-0.472-0.335s-0.402,0.134-0.472,0.335l-3.028,8.651L1.83,3.814
			C1.734,3.718,1.606,3.668,1.476,3.668c-0.086,0-0.173,0.022-0.251,0.067C1.029,3.849,0.934,4.081,0.994,4.299l2.504,9.185
			c-0.022,0.031-2.267,3.115-2.854,7.73c-0.073,0.575,0.104,1.154,0.487,1.589c0.38,0.432,0.927,0.68,1.5,0.68h18.736
			c0.573,0,1.12-0.248,1.5-0.679C23.25,22.368,23.428,21.789,23.354,21.215z"/>
	</g>
	<g>
		<g>
			<path style="fill:#FFFFFF;" d="M7.157,13.555c-0.096-0.12-0.24-0.188-0.391-0.188c-0.033,0-0.065,0.003-0.099,0.01
				c-0.183,0.037-0.331,0.173-0.382,0.353l-0.604,2.116c-0.043,0.151-0.013,0.313,0.082,0.438c0.094,0.125,0.242,0.199,0.399,0.199
				h2.296c0.192,0,0.367-0.11,0.451-0.283c0.083-0.173,0.06-0.379-0.06-0.529L7.157,13.555z"/>
		</g>
		<g>
			<path style="fill:#FFFFFF;" d="M18.317,15.846l-0.604-2.116c-0.052-0.18-0.199-0.316-0.382-0.353
				c-0.033-0.006-0.066-0.01-0.099-0.01c-0.15,0-0.294,0.068-0.391,0.188l-1.692,2.116c-0.12,0.15-0.143,0.356-0.06,0.529
				c0.083,0.173,0.258,0.283,0.451,0.283h2.296c0.157,0,0.305-0.074,0.399-0.199C18.33,16.159,18.36,15.997,18.317,15.846z"/>
		</g>
	</g>
	<g>
		<g>
			<path style="fill:#67A14C;" d="M13.127,10.483l1.757-1.757l-2.413-6.895c-0.07-0.201-0.26-0.335-0.472-0.335
				s-0.402,0.134-0.472,0.335L10.813,3.87L13.127,10.483z"/>
		</g>
		<g>
			<path style="fill:#67A14C;" d="M1.388,5.744l4.739,4.739l0.615-1.757L1.83,3.814C1.734,3.718,1.606,3.668,1.476,3.668
				c-0.086,0-0.173,0.022-0.251,0.067C1.029,3.849,0.934,4.081,0.994,4.299L1.388,5.744z"/>
		</g>
		<g>
			<path style="fill:#67A14C;" d="M23.354,21.215c-0.585-4.593-2.761-7.604-2.855-7.732l2.505-9.184
				c0.06-0.218-0.035-0.45-0.231-0.564c-0.078-0.045-0.165-0.067-0.251-0.067c-0.129,0-0.257,0.05-0.354,0.146l-1.93,1.93
				l-2.111,7.739c0.095,0.128,2.271,3.139,2.855,7.732c0.073,0.574-0.104,1.153-0.487,1.589c-0.38,0.432-0.927,0.679-1.5,0.679
				h2.372c0.573,0,1.12-0.248,1.5-0.679C23.25,22.368,23.428,21.789,23.354,21.215z"/>
		</g>
	</g>
	<g id="Tyranitar">
		<g>
			<path style="fill:#31395A;" d="M21.367,23.983H2.631c-0.717,0-1.4-0.31-1.875-0.849c-0.478-0.543-0.7-1.266-0.608-1.982
				c0.527-4.141,2.287-6.995,2.808-7.764L0.018,2.614c-0.06-0.219,0.035-0.45,0.231-0.564s0.445-0.081,0.604,0.079l7.438,7.438
				l3.237-9.249c0.141-0.401,0.804-0.401,0.944,0l3.237,9.249l7.438-7.438c0.16-0.16,0.409-0.193,0.604-0.079
				c0.196,0.114,0.291,0.345,0.231,0.564l-2.938,10.774c0.521,0.769,2.28,3.623,2.808,7.764l0,0c0.091,0.717-0.13,1.44-0.608,1.982
				C22.768,23.674,22.084,23.983,21.367,23.983z M1.477,4.168l2.505,9.184c0.041,0.147,0.01,0.306-0.081,0.429
				c-0.022,0.03-2.188,2.996-2.761,7.497c-0.055,0.433,0.079,0.868,0.367,1.195c0.285,0.324,0.695,0.51,1.125,0.51h18.736
				c0.43,0,0.839-0.186,1.125-0.509c0.288-0.328,0.422-0.763,0.367-1.196l0,0c-0.575-4.517-2.739-7.467-2.76-7.497
				c-0.092-0.123-0.122-0.282-0.082-0.43l2.505-9.184l-6.669,6.668c-0.122,0.122-0.297,0.173-0.465,0.134
				c-0.167-0.038-0.304-0.16-0.361-0.322L12,1.996l-3.028,8.651c-0.057,0.163-0.193,0.284-0.361,0.322
				c-0.17,0.038-0.344-0.013-0.465-0.134L1.477,4.168z"/>
		</g>
		<g>
			<path style="fill:#31395A;" d="M9.499,16.983h-4c-0.157,0-0.305-0.074-0.399-0.199c-0.094-0.125-0.125-0.288-0.082-0.438L6,12.91
				l-0.892-1.114c-0.172-0.216-0.137-0.53,0.078-0.703c0.217-0.173,0.53-0.136,0.703,0.078l4,5c0.12,0.15,0.143,0.356,0.06,0.529
				C9.866,16.873,9.691,16.983,9.499,16.983z M6.162,15.983h2.296l-1.692-2.116L6.162,15.983z"/>
		</g>
		<g>
			<path style="fill:#31395A;" d="M18.499,16.983h-4c-0.192,0-0.367-0.11-0.451-0.283c-0.083-0.173-0.06-0.379,0.06-0.529l4-5
				c0.173-0.214,0.487-0.25,0.703-0.078c0.215,0.173,0.25,0.487,0.078,0.703l-0.892,1.114l0.982,3.436
				c0.043,0.151,0.013,0.313-0.082,0.438C18.804,16.909,18.656,16.983,18.499,16.983z M15.54,15.983h2.296l-0.604-2.116
				L15.54,15.983z"/>
		</g>
		<g>
			<path style="fill:#31395A;" d="M10.499,20.983l-5.574-0.922c-0.164-0.026-0.323,0.026-0.436,0.14l-0.636,0.636
				c-0.195,0.195-0.512,0.195-0.707,0s-0.195-0.512,0-0.707l0.636-0.636c0.341-0.341,0.83-0.499,1.307-0.419l5.493,0.916
				l2.917-0.008l5.41-0.909c0.478-0.08,0.965,0.077,1.307,0.419l0.636,0.636c0.195,0.195,0.195,0.512,0,0.707s-0.512,0.195-0.707,0
				L19.509,20.2c-0.114-0.114-0.276-0.164-0.437-0.14l-5.492,0.916L10.499,20.983z"/>
		</g>
		<g>
			<path style="fill:#31395A;" d="M6.499,21.983c-0.167,0-0.323-0.083-0.416-0.223l-1-1.5c-0.153-0.23-0.091-0.54,0.139-0.693
				c0.23-0.153,0.54-0.092,0.693,0.139l0.584,0.876l0.584-0.876c0.152-0.23,0.463-0.292,0.693-0.139s0.292,0.463,0.139,0.693l-1,1.5
				C6.822,21.9,6.666,21.983,6.499,21.983z"/>
		</g>
		<g>
			<path style="fill:#31395A;" d="M17.499,21.983c-0.167,0-0.323-0.083-0.416-0.223l-1-1.5c-0.153-0.23-0.091-0.54,0.139-0.693
				c0.23-0.153,0.541-0.092,0.693,0.139l0.584,0.876l0.584-0.876c0.153-0.23,0.462-0.292,0.693-0.139
				c0.23,0.153,0.292,0.463,0.139,0.693l-1,1.5C17.822,21.9,17.666,21.983,17.499,21.983z"/>
		</g>
		<g>
			<circle style="fill:#31395A;" cx="10.499" cy="18.483" r="0.5"/>
		</g>
		<g>
			<circle style="fill:#31395A;" cx="13.499" cy="18.483" r="0.5"/>
		</g>
	</g>
</g>
</svg>
