<?xml version="1.0" encoding="iso-8859-1"?>
<!-- Generator: Adobe Illustrator 19.0.0, SVG Export Plug-In . SVG Version: 6.00 Build 0)  -->
<svg version="1.1" id="Layer_1" xmlns="http://www.w3.org/2000/svg" xmlns:xlink="http://www.w3.org/1999/xlink" x="0px" y="0px"
	 viewBox="0 0 24 24" style="enable-background:new 0 0 24 24;" xml:space="preserve">
<g>
	<g>
		<path style="fill:#93278F;" d="M1.026,17.116c-0.079,0-0.159-0.019-0.231-0.057c-0.174-0.091-0.279-0.275-0.268-0.471
			c0.103-1.836,0.538-5.676,2.302-10.759c0.07-0.202,0.26-0.336,0.472-0.336c0.007,0,0.015,0,0.022,0
			c0.221,0.01,0.409,0.164,0.462,0.378c0.474,1.894,1.67,4.747,4.683,7.597c0.017,0.012,0.033,0.023,0.045,0.034
			c0.137,0.116,0.201,0.297,0.167,0.473c-0.101,0.539-0.161,1.022-0.174,1.398c-0.005,0.145-0.072,0.281-0.185,0.372
			c-0.09,0.073-0.201,0.111-0.314,0.111c-0.029,0-0.059-0.002-0.088-0.008c-0.254-0.046-0.511-0.069-0.762-0.069
			c-0.948,0-1.758,0.321-2.41,0.956c-0.095,0.093-0.221,0.142-0.349,0.142c-0.072,0-0.145-0.016-0.212-0.047
			c-0.319-0.15-0.816-0.328-1.376-0.328c-0.191,0-0.379,0.021-0.558,0.063c-0.333,0.078-0.642,0.228-0.918,0.444
			C1.244,17.08,1.135,17.116,1.026,17.116z"/>
	</g>
	<g>
		<path style="fill:#93278F;" d="M22.977,17.116c-0.109,0-0.218-0.036-0.308-0.106c-0.276-0.216-0.585-0.366-0.918-0.444
			c-0.177-0.042-0.364-0.063-0.555-0.063c-0.563,0-1.062,0.178-1.38,0.327c-0.067,0.032-0.14,0.047-0.212,0.047
			c-0.127,0-0.253-0.049-0.349-0.142c-0.651-0.634-1.462-0.955-2.409-0.955c-0.253,0-0.512,0.023-0.769,0.07
			c-0.03,0.005-0.06,0.008-0.089,0.008c-0.113,0-0.225-0.039-0.314-0.111c-0.113-0.091-0.181-0.228-0.186-0.373
			c-0.017-0.521-0.108-0.98-0.195-1.362c-0.046-0.201,0.037-0.41,0.208-0.525c3.038-2.849,4.241-5.716,4.716-7.617
			c0.053-0.215,0.242-0.369,0.462-0.378c0.008,0,0.015,0,0.022,0c0.212,0,0.402,0.134,0.472,0.336
			c1.764,5.083,2.199,8.922,2.302,10.759c0.011,0.196-0.094,0.38-0.268,0.471C23.135,17.097,23.056,17.116,22.977,17.116z"/>
	</g>
	<g>
		<path style="fill:#0071BC;" d="M12.001,20c-1.93,0-3.5-2.011-3.5-4.483c0-0.935,0.345-2.344,0.417-2.63
			c0.001-0.021,0.004-0.042,0.007-0.057c-0.022-0.078-0.424-1.448-0.424-2.244c0-0.372,0.055-0.737,0.164-1.086
			C8.554,9.487,8.452,9.449,8.372,9.37C6.957,7.982,6.607,6.403,6.525,5.586c-0.015-0.153,0.04-0.304,0.15-0.41
			c0.094-0.09,0.219-0.14,0.347-0.14c0.023,0,0.045,0.001,0.068,0.005c0.712,0.098,2.078,0.45,3.23,1.697
			c0.101,0.109,0.148,0.258,0.128,0.406c-0.02,0.147-0.104,0.278-0.23,0.357c0.518-0.32,1.14-0.493,1.784-0.493
			c0.635,0,1.25,0.169,1.778,0.489c-0.125-0.08-0.208-0.209-0.228-0.356c-0.019-0.147,0.027-0.294,0.127-0.403
			c1.157-1.256,2.521-1.604,3.23-1.699c0.022-0.003,0.044-0.004,0.066-0.004c0.129,0,0.254,0.05,0.349,0.142
			c0.11,0.106,0.165,0.258,0.148,0.411c-0.086,0.819-0.439,2.399-1.839,3.778c-0.081,0.079-0.186,0.129-0.298,0.141
			c0.109,0.342,0.165,0.708,0.165,1.081c0,0.799-0.182,1.402-0.434,2.237c0.031,0.33,0.107,0.658,0.186,1
			c0.122,0.527,0.248,1.071,0.248,1.694C15.501,17.989,13.931,20,12.001,20z"/>
	</g>
	<g>
		<g>
			<path style="fill:#0066AA;" d="M17.474,5.587c0.016-0.152-0.039-0.304-0.148-0.411c-0.094-0.091-0.219-0.142-0.349-0.142
				c-0.022,0-0.044,0.001-0.066,0.004c-0.45,0.06-1.163,0.224-1.919,0.654c-0.104,0.843-0.479,2.347-1.825,3.671
				c-0.081,0.079-0.186,0.129-0.298,0.141c0.109,0.342,0.165,0.708,0.165,1.081c0,0.799-0.182,1.402-0.434,2.237
				c0.031,0.33,0.107,0.658,0.186,1c0.122,0.527,0.248,1.071,0.248,1.694c0,1.914-0.946,3.539-2.266,4.181
				c0.385,0.187,0.798,0.302,1.234,0.302c1.93,0,3.5-2.011,3.5-4.483c0-0.623-0.126-1.167-0.248-1.694
				c-0.079-0.342-0.155-0.67-0.186-1c0.252-0.835,0.434-1.438,0.434-2.237c0-0.373-0.055-0.739-0.165-1.081
				c0.112-0.012,0.217-0.062,0.298-0.141C17.035,7.986,17.388,6.406,17.474,5.587z"/>
		</g>
	</g>
	<g id="Zubat">
		<g>
			<path style="fill:#31395A;" d="M12.001,20.5c-2.206,0-4-2.235-4-4.983c0-1.083,0.427-2.732,0.445-2.802
				c0.069-0.267,0.345-0.426,0.61-0.357c0.268,0.07,0.427,0.343,0.358,0.61c-0.004,0.016-0.413,1.596-0.413,2.55
				c0,2.196,1.346,3.983,3,3.983s3-1.787,3-3.983c0-0.566-0.12-1.082-0.235-1.582c-0.083-0.362-0.163-0.71-0.199-1.055
				c-0.007-0.066,0.001-0.133,0.021-0.197c0.25-0.827,0.414-1.371,0.414-2.097c0-0.322-0.048-0.639-0.142-0.942
				c-0.082-0.264,0.065-0.544,0.329-0.626c0.267-0.082,0.544,0.065,0.626,0.329c0.124,0.4,0.187,0.816,0.187,1.239
				c0,0.866-0.188,1.497-0.428,2.291c0.037,0.272,0.101,0.548,0.167,0.833c0.122,0.528,0.261,1.126,0.261,1.807
				C16.001,18.265,14.207,20.5,12.001,20.5z"/>
		</g>
		<g>
			<path style="fill:#31395A;" d="M10.203,8.009c-0.168,0-0.332-0.084-0.426-0.238C9.632,7.536,9.706,7.228,9.941,7.083
				c1.233-0.759,2.86-0.764,4.099-0.014c0.236,0.143,0.312,0.451,0.168,0.687s-0.451,0.311-0.687,0.168
				c-0.923-0.56-2.136-0.556-3.057,0.01C10.383,7.985,10.292,8.009,10.203,8.009z"/>
		</g>
		<g>
			<path style="fill:#31395A;" d="M8.931,13.341c-0.167,0-0.329-0.083-0.423-0.233l0,0c-0.001-0.001-0.001-0.002-0.002-0.004
				c-0.001-0.001-0.001-0.002-0.001-0.002s0-0.001-0.001-0.001l0,0c0,0,0-0.001-0.001-0.001c0,0,0,0,0-0.001c0,0,0,0,0-0.001
				l-0.001-0.001c0-0.001,0-0.001-0.001-0.002c0-0.001-0.001-0.002-0.002-0.004c0,0,0-0.001-0.001-0.001l0,0
				c0,0,0-0.001-0.001-0.001c0,0,0-0.001-0.001-0.002l0,0c-0.001-0.002-0.002-0.005-0.004-0.007c-0.016-0.03-0.03-0.064-0.04-0.096
				c-0.018-0.062-0.448-1.508-0.448-2.395c0-0.422,0.063-0.837,0.186-1.235C8.272,9.09,8.55,8.943,8.816,9.025
				C9.08,9.107,9.227,9.387,9.145,9.651c-0.094,0.301-0.141,0.617-0.141,0.938c0,0.603,0.281,1.683,0.399,2.083
				c0.083,0.225-0.006,0.483-0.222,0.606C9.1,13.32,9.015,13.341,8.931,13.341z"/>
		</g>
		<g>
			<path style="fill:#31395A;" d="M23.501,18.5c-0.175,0-0.341-0.092-0.432-0.248c-0.385-0.661-0.865-1.063-1.426-1.197
				c-0.946-0.227-1.86,0.358-1.869,0.364c-0.211,0.137-0.491,0.097-0.654-0.094c-1.369-1.604-3.358-0.888-3.443-0.856
				c-0.262,0.095-0.547-0.034-0.644-0.292c-0.097-0.258,0.031-0.545,0.289-0.644c0.105-0.04,2.472-0.914,4.28,0.845
				c0.473-0.222,1.336-0.515,2.261-0.299c0.405,0.095,0.777,0.274,1.112,0.537c-0.105-1.887-0.546-5.641-2.275-10.623
				c-0.474,1.898-1.698,4.895-4.858,7.871c-0.201,0.189-0.517,0.181-0.707-0.021c-0.189-0.201-0.18-0.518,0.021-0.707
				c4.788-4.508,4.843-9.09,4.843-9.136c0-0.241,0.171-0.447,0.408-0.491c0.237-0.045,0.471,0.085,0.558,0.31
				c3.314,8.524,3.046,13.981,3.033,14.209c-0.012,0.22-0.168,0.406-0.382,0.458C23.579,18.496,23.54,18.5,23.501,18.5z"/>
		</g>
		<g>
			<path style="fill:#31395A;" d="M19.501,15.5c-0.274,0-0.497-0.221-0.5-0.495c-0.029-2.868-0.94-4.767-0.949-4.785
				c-0.121-0.248-0.018-0.547,0.229-0.669c0.249-0.12,0.547-0.019,0.668,0.228c0.042,0.084,1.019,2.106,1.051,5.215
				c0.003,0.276-0.219,0.502-0.495,0.505C19.505,15.5,19.503,15.5,19.501,15.5z"/>
		</g>
		<g>
			<path style="fill:#31395A;" d="M0.501,18.5c-0.039,0-0.078-0.004-0.117-0.014c-0.214-0.052-0.37-0.238-0.382-0.458
				C-0.011,17.8-0.279,12.343,3.035,3.819c0.087-0.224,0.322-0.354,0.557-0.31C3.828,3.553,4,3.759,4.001,3.999
				c0,0.046,0.077,4.649,4.843,9.137c0.201,0.189,0.21,0.505,0.021,0.707c-0.188,0.202-0.505,0.21-0.707,0.021
				C4.998,10.888,3.774,7.891,3.3,5.993c-1.729,4.981-2.169,8.736-2.275,10.623c0.335-0.262,0.707-0.441,1.112-0.537
				c0.928-0.218,1.788,0.077,2.261,0.299c1.809-1.759,4.176-0.885,4.28-0.845c0.257,0.098,0.386,0.386,0.289,0.644
				c-0.097,0.258-0.384,0.386-0.644,0.292C8.24,16.438,6.25,15.721,4.88,17.325c-0.164,0.191-0.443,0.233-0.655,0.093
				c-0.007-0.004-0.921-0.59-1.867-0.363c-0.561,0.134-1.041,0.537-1.426,1.197C0.842,18.408,0.676,18.5,0.501,18.5z"/>
		</g>
		<g>
			<path style="fill:#31395A;" d="M4.501,15.5c-0.001,0-0.003,0-0.005,0c-0.276-0.003-0.498-0.229-0.495-0.505
				c0.032-3.109,1.01-5.131,1.051-5.215C5.174,9.532,5.471,9.43,5.72,9.552c0.248,0.122,0.35,0.421,0.229,0.669
				C5.94,10.24,5.029,12.138,5,15.006C4.998,15.279,4.775,15.5,4.501,15.5z"/>
		</g>
		<g>
			<circle style="fill:#31395A;" cx="10.501" cy="10" r="0.5"/>
		</g>
		<g>
			<circle style="fill:#31395A;" cx="13.501" cy="10" r="0.5"/>
		</g>
		<g>
			<path style="fill:#31395A;" d="M13.501,13.5h-3c-0.155,0-0.302-0.072-0.396-0.195c-0.095-0.123-0.127-0.283-0.087-0.433
				c0.125-0.475,0.702-1.372,1.983-1.372c1.333,0,1.884,0.912,1.989,1.394c0.032,0.148-0.004,0.302-0.1,0.42
				C13.796,13.432,13.653,13.5,13.501,13.5z"/>
		</g>
		<g>
			<path style="fill:#31395A;" d="M8.629,10.123c-0.117,0-0.235-0.041-0.33-0.124c-2.43-2.13-2.304-4.91-2.297-5.027
				C6.016,4.715,6.224,4.511,6.481,4.5c0.118-0.005,2.812-0.082,4.661,2.445c0.163,0.223,0.115,0.536-0.108,0.699
				c-0.223,0.164-0.536,0.115-0.699-0.108c-1.097-1.499-2.558-1.896-3.313-2c0.081,0.802,0.437,2.397,1.937,3.711
				c0.208,0.182,0.229,0.498,0.046,0.706C8.906,10.065,8.767,10.123,8.629,10.123z"/>
		</g>
		<g>
			<path style="fill:#31395A;" d="M15.371,10.124c-0.139,0-0.277-0.058-0.376-0.17c-0.182-0.208-0.161-0.523,0.046-0.706
				c1.492-1.307,1.851-2.912,1.935-3.713c-0.757,0.102-2.209,0.496-3.312,2.002c-0.162,0.223-0.477,0.271-0.699,0.108
				c-0.223-0.163-0.271-0.476-0.108-0.699c1.85-2.525,4.546-2.449,4.661-2.445c0.257,0.01,0.465,0.214,0.479,0.472
				C18.004,5.09,18.13,7.87,15.7,10C15.606,10.083,15.488,10.124,15.371,10.124z"/>
		</g>
	</g>
</g>
</svg>
