<?xml version="1.0" encoding="iso-8859-1"?>
<!-- Generator: Adobe Illustrator 19.0.0, SVG Export Plug-In . SVG Version: 6.00 Build 0)  -->
<svg version="1.1" id="Layer_1" xmlns="http://www.w3.org/2000/svg" xmlns:xlink="http://www.w3.org/1999/xlink" x="0px" y="0px"
	 viewBox="0 0 24 24" style="enable-background:new 0 0 24 24;" xml:space="preserve">
<g>
	<g>
		<path d="M3.711,9.667c-0.045,0-0.09-0.006-0.134-0.019c-0.194-0.056-0.34-0.216-0.362-0.415L2.923,6.756
			C2.901,6.573,2.982,6.394,3.131,6.288c0.151-0.105,0.35-0.12,0.511-0.038l1.784,0.892c0.143,0.071,0.242,0.206,0.27,0.363
			c0.026,0.157-0.023,0.317-0.134,0.432L5.458,8.044C4.967,8.496,4.52,8.971,4.108,9.477C4.011,9.597,3.861,9.667,3.711,9.667z"/>
	</g>
	<g>
		<path d="M12.93,21.251h-1.86c-0.838,0-1.615-0.416-2.08-1.113c-0.842-1.262-2.107-2.186-3.565-2.602l-3.782-1.081
			c-0.71-0.204-1.175-0.905-1.081-1.632c0.125-0.972,0.448-2.03,0.936-3.07L0.504,3.309C0.483,3.126,0.563,2.947,0.713,2.841
			c0.152-0.105,0.349-0.119,0.511-0.038L6.978,5.68c3.239-1.896,6.794-1.9,10.039,0.003l5.76-2.88
			c0.163-0.083,0.359-0.068,0.511,0.038c0.15,0.105,0.23,0.285,0.209,0.468l-0.994,8.458c0.485,1.034,0.809,2.088,0.936,3.054
			c0.096,0.728-0.369,1.43-1.081,1.633l-3.781,1.081c-1.458,0.416-2.724,1.34-3.565,2.602C14.544,20.835,13.768,21.251,12.93,21.251
			z M1.603,4.112l0.892,7.58c0.012,0.095,0.009,0.271-0.032,0.356c-0.479,0.989-0.793,1.992-0.91,2.902
			c-0.031,0.241,0.125,0.474,0.364,0.542l3.782,1.081c1.685,0.481,3.148,1.55,4.122,3.009c0.28,0.418,0.746,0.668,1.249,0.668h1.859
			c0.503,0,0.969-0.25,1.248-0.668c0.974-1.459,2.438-2.528,4.122-3.009l3.781-1.081c0.239-0.068,0.396-0.301,0.364-0.542
			c-0.117-0.896-0.427-1.884-0.896-2.858c-0.033-0.067-0.05-0.142-0.05-0.217v-0.124l0.896-7.639l-5.111,2.556
			C17.12,6.78,16.909,6.79,16.738,6.685c-3.064-1.898-6.39-1.901-9.454-0.023c-0.146,0.1-0.34,0.12-0.509,0.037L1.603,4.112z"/>
	</g>
	<g>
		<circle cx="9.999" cy="17.251" r="0.5"/>
	</g>
	<g>
		<circle cx="13.999" cy="17.251" r="0.5"/>
	</g>
	<g>
		<path d="M7.999,14.751c-0.15,0-0.299-0.067-0.397-0.196c-1.192-1.558-2.666-1.808-2.681-1.811
			c-0.273-0.043-0.459-0.299-0.416-0.572s0.305-0.459,0.572-0.415c0.076,0.012,1.886,0.318,3.319,2.189
			c0.167,0.219,0.126,0.533-0.094,0.701C8.212,14.717,8.106,14.751,7.999,14.751z"/>
	</g>
	<g>
		<path d="M15.999,14.751c-0.106,0-0.213-0.034-0.304-0.103c-0.22-0.168-0.261-0.482-0.094-0.701
			c1.434-1.871,3.243-2.177,3.319-2.189c0.269-0.044,0.529,0.142,0.572,0.415s-0.143,0.529-0.416,0.572
			c-0.012,0.002-1.502,0.27-2.681,1.811C16.298,14.684,16.15,14.751,15.999,14.751z"/>
	</g>
	<g>
		<path d="M20.289,9.674c-0.145,0-0.285-0.063-0.382-0.177l-0.011-0.013c-0.418-0.513-0.864-0.988-1.334-1.42l-0.125-0.127
			c-0.11-0.114-0.16-0.275-0.134-0.432c0.027-0.157,0.127-0.292,0.27-0.363l1.784-0.892c0.163-0.083,0.359-0.068,0.511,0.038
			c0.15,0.105,0.231,0.285,0.209,0.468l-0.292,2.477c-0.022,0.198-0.161,0.363-0.352,0.42C20.386,9.667,20.337,9.674,20.289,9.674z"
			/>
	</g>
</g>
</svg>
