<?xml version="1.0" encoding="iso-8859-1"?>
<!-- Generator: Adobe Illustrator 19.0.0, SVG Export Plug-In . SVG Version: 6.00 Build 0)  -->
<svg version="1.1" id="Layer_1" xmlns="http://www.w3.org/2000/svg" xmlns:xlink="http://www.w3.org/1999/xlink" x="0px" y="0px"
	 viewBox="0 0 24 24" style="enable-background:new 0 0 24 24;" xml:space="preserve">
<g id="Arbok">
	<g>
		<path d="M16.501,23.982c-0.276,0-0.5-0.224-0.5-0.5c0-2.23,1.478-5.133,3.043-8.207c1.834-3.604,3.732-7.331,2.981-9.639
			c-0.534-1.641-4.222-3.43-6.67-4.176c-2.143-0.654-5.091-0.515-6.703-0.002C6.269,2.215,2.524,3.952,1.976,5.636
			c-0.75,2.308,1.147,6.034,2.981,9.639C6.522,18.348,8,21.252,8,23.482c0,0.276-0.224,0.5-0.5,0.5S7,23.758,7,23.482
			c0-1.99-1.492-4.92-2.934-7.753c-1.927-3.786-3.92-7.7-3.042-10.402c0.895-2.752,7.062-4.739,7.324-4.822
			c1.732-0.551,4.88-0.738,7.297-0.002c0.064,0.02,6.406,1.982,7.33,4.824c0.878,2.702-1.114,6.616-3.042,10.402
			c-1.442,2.833-2.934,5.763-2.934,7.753C17.001,23.758,16.777,23.982,16.501,23.982z"/>
	</g>
	<g>
		<path d="M12.001,11.982h-1.5c-0.663,0-1.236-0.457-1.459-1.164C8.91,10.4,8.336,9.253,8.088,8.772
			C6.633,7.207,3.936,4.803,2.643,4.916c-0.195,0.015-0.324,0.09-0.431,0.25C2.058,5.395,1.748,5.457,1.519,5.305
			C1.289,5.152,1.227,4.842,1.38,4.612c0.276-0.414,0.686-0.654,1.185-0.693c0.046-0.004,0.093-0.005,0.141-0.005
			c2.195,0,5.756,3.789,6.163,4.23c0.03,0.033,0.056,0.069,0.076,0.109c0.087,0.168,0.861,1.666,1.05,2.264
			c0.071,0.225,0.242,0.466,0.506,0.466h1.5c0.276,0,0.5,0.224,0.5,0.5S12.277,11.982,12.001,11.982z"/>
	</g>
	<g>
		<path d="M13.501,11.982h-1.5c-0.276,0-0.5-0.224-0.5-0.5s0.224-0.5,0.5-0.5h1.5c0.265,0,0.435-0.241,0.506-0.466
			c0.189-0.598,0.962-2.096,1.05-2.264c0.021-0.04,0.046-0.076,0.076-0.109c0.416-0.451,4.122-4.424,6.304-4.225
			c0.5,0.039,0.909,0.279,1.185,0.693c0.153,0.23,0.091,0.54-0.139,0.693c-0.231,0.152-0.541,0.09-0.693-0.139
			c-0.107-0.16-0.236-0.235-0.431-0.251c-1.271-0.1-3.991,2.292-5.445,3.857c-0.248,0.48-0.821,1.627-0.954,2.046
			C14.737,11.525,14.164,11.982,13.501,11.982z"/>
	</g>
	<g>
		<path d="M12.001,16.982h-1c-0.735,0-1.356-0.525-1.479-1.248c-0.148-0.882-0.168-1.574-0.188-2.242
			C9.311,12.67,9.288,11.893,9.03,10.78c-0.062-0.269,0.105-0.538,0.375-0.6c0.271-0.061,0.538,0.105,0.6,0.375
			c0.28,1.21,0.305,2.074,0.329,2.909c0.019,0.664,0.037,1.29,0.174,2.104c0.041,0.24,0.248,0.414,0.492,0.414h1
			c0.276,0,0.5,0.224,0.5,0.5S12.277,16.982,12.001,16.982z"/>
	</g>
	<g>
		<path d="M13.018,16.982h-1c-0.276,0-0.5-0.224-0.5-0.5s0.224-0.5,0.5-0.5h1c0.245,0,0.452-0.174,0.493-0.414
			c0.137-0.814,0.155-1.441,0.174-2.105c0.024-0.835,0.049-1.698,0.329-2.909c0.063-0.269,0.331-0.437,0.6-0.375
			c0.269,0.063,0.437,0.331,0.375,0.6c-0.258,1.113-0.28,1.89-0.304,2.712c-0.019,0.668-0.039,1.36-0.188,2.242
			C14.375,16.457,13.753,16.982,13.018,16.982z"/>
	</g>
	<g>
		<path d="M10.501,8.982c-0.162,0-0.32-0.078-0.417-0.223l-1-1.5c-0.153-0.23-0.091-0.54,0.139-0.693
			c0.229-0.153,0.54-0.091,0.693,0.139l1,1.5c0.153,0.23,0.091,0.54-0.139,0.693C10.693,8.955,10.597,8.982,10.501,8.982z"/>
	</g>
	<g>
		<path d="M13.501,8.982c-0.095,0-0.191-0.027-0.277-0.084c-0.23-0.153-0.292-0.463-0.139-0.693l1-1.5
			c0.152-0.229,0.462-0.292,0.693-0.139c0.23,0.153,0.292,0.463,0.139,0.693l-1,1.5C13.821,8.904,13.662,8.982,13.501,8.982z"/>
	</g>
	<g>
		<path d="M11.001,12.982c-0.276,0-0.5-0.224-0.5-0.5v-1c0-0.276,0.224-0.5,0.5-0.5s0.5,0.224,0.5,0.5v1
			C11.501,12.758,11.277,12.982,11.001,12.982z"/>
	</g>
	<g>
		<path d="M11.001,16.482c-0.276,0-0.5-0.224-0.5-0.5v-1c0-0.276,0.224-0.5,0.5-0.5s0.5,0.224,0.5,0.5v1
			C11.501,16.258,11.277,16.482,11.001,16.482z"/>
	</g>
	<g>
		<path d="M13.001,16.482c-0.276,0-0.5-0.224-0.5-0.5v-1c0-0.276,0.224-0.5,0.5-0.5s0.5,0.224,0.5,0.5v1
			C13.501,16.258,13.277,16.482,13.001,16.482z"/>
	</g>
	<g>
		<path d="M13.001,12.982c-0.276,0-0.5-0.224-0.5-0.5v-1c0-0.276,0.224-0.5,0.5-0.5s0.5,0.224,0.5,0.5v1
			C13.501,12.758,13.277,12.982,13.001,12.982z"/>
	</g>
</g>
</svg>
