<?xml version="1.0" encoding="iso-8859-1"?>
<!-- Generator: Adobe Illustrator 19.0.0, SVG Export Plug-In . SVG Version: 6.00 Build 0)  -->
<svg version="1.1" id="Layer_1" xmlns="http://www.w3.org/2000/svg" xmlns:xlink="http://www.w3.org/1999/xlink" x="0px" y="0px"
	 viewBox="0 0 24 24" style="enable-background:new 0 0 24 24;" xml:space="preserve">
<g id="Ash_Hat">
	<g>
		<path d="M4.499,15.993c-0.276,0-0.5-0.224-0.5-0.5v-6c0-0.276,0.224-0.5,0.5-0.5s0.5,0.224,0.5,0.5v6
			C4.999,15.77,4.775,15.993,4.499,15.993z"/>
	</g>
	<g>
		<path d="M15.197,21.007c-1.129,0-2.38-0.476-3.697-0.976c-1.354-0.516-2.784-1.071-3.993-1.028
			c-0.662,0.01-1.791,0.277-2.881,0.535c-2.248,0.53-3.658,0.831-4.3,0.321C0.116,19.693,0,19.449,0,19.174
			c0-0.27,0-0.447,4.173-4.058c0.04-0.035,0.085-0.063,0.133-0.083c1.294-0.544,4.246-1.039,6.194-1.039
			c1.313,0,3.063,0.478,4.916,0.983c1.616,0.441,3.28,0.896,4.584,0.996v-5.479c0-4.206-3.963-6.5-6-6.5c-4.878,0-9,2.519-9,5.5
			c0,0.276-0.224,0.5-0.5,0.5S4,9.769,4,9.493c0-3.584,4.486-6.5,10-6.5c5.233,0,10,3.098,10,6.5v6c0,0.215-0.138,0.406-0.342,0.474
			l-2.874,0.958c-0.638,0.71-3.598,3.911-5.238,4.065C15.431,21.002,15.314,21.007,15.197,21.007z M7.573,18.003
			c1.406,0,2.868,0.556,4.282,1.094c1.342,0.51,2.604,0.993,3.597,0.899c0.852-0.081,2.664-1.709,3.974-3.077
			c-1.299-0.165-2.806-0.576-4.274-0.977c-1.708-0.466-3.474-0.948-4.653-0.948c-1.939,0-4.629,0.494-5.735,0.932
			c-1.424,1.233-2.951,2.597-3.567,3.203c0.656,0.033,2.213-0.332,3.198-0.564c1.196-0.283,2.325-0.549,3.096-0.562
			C7.519,18.003,7.546,18.003,7.573,18.003z M18.215,4.714c1.568,1.307,2.784,3.3,2.784,5.779v5.306l2-0.667v-5.64
			C22.999,7.72,21.089,5.747,18.215,4.714z"/>
	</g>
	<g>
		<path d="M14.499,12.993c-0.014,0-0.028,0-0.042-0.002l-6-0.5c-0.2-0.017-0.371-0.151-0.434-0.342
			c-0.063-0.19-0.005-0.4,0.146-0.533l3.296-2.884c0.591-0.518,1.49-0.488,2.048,0.068l0.338,0.339c0.195,0.195,0.195,0.512,0,0.707
			s-0.512,0.195-0.707,0l-0.338-0.338c-0.185-0.184-0.485-0.195-0.683-0.023l-2.409,2.107l4.825,0.402
			c0.275,0.022,0.479,0.264,0.457,0.54C14.976,12.796,14.757,12.993,14.499,12.993z"/>
	</g>
</g>
</svg>
