<?xml version="1.0" encoding="iso-8859-1"?>
<!-- Generator: Adobe Illustrator 19.0.0, SVG Export Plug-In . SVG Version: 6.00 Build 0)  -->
<svg version="1.1" id="Layer_1" xmlns="http://www.w3.org/2000/svg" xmlns:xlink="http://www.w3.org/1999/xlink" x="0px" y="0px"
	 viewBox="0 0 24 24" style="enable-background:new 0 0 24 24;" xml:space="preserve">
<g id="Ash">
	<g id="Ash_Hat_1_">
		<g>
			<path d="M3.5,10.972c-0.276,0-0.5-0.224-0.5-0.5v-5c0-0.276,0.224-0.5,0.5-0.5S4,5.196,4,5.472v5
				C4,10.748,3.776,10.972,3.5,10.972z"/>
		</g>
		<g>
			<path d="M18.5,5.972c-0.276,0-0.5-0.224-0.5-0.5c0-2.081-3.058-4.5-7-4.5c-4.188,0-7,2.327-7,4.5c0,0.276-0.224,0.5-0.5,0.5
				S3,5.748,3,5.472c0-2.981,3.663-5.5,8-5.5c4.579,0,8,2.904,8,5.5C19,5.748,18.776,5.972,18.5,5.972z"/>
		</g>
		<g>
			<path d="M12.137,12.988c-0.894,0-1.887-0.242-2.931-0.496c-1.083-0.263-2.182-0.522-3.198-0.521
				c-0.503,0.008-1.354,0.24-2.179,0.465c-1.765,0.48-2.878,0.74-3.475,0.284C0.125,12.545,0,12.28,0,11.971
				c0-0.365,0-0.501,3.582-2.1c1.04-0.437,3.258-0.9,4.918-0.9c1.071,0,2.471,0.359,3.951,0.74c1.454,0.374,2.956,0.76,4.049,0.76
				c0.051,0,0.101,0.008,0.146,0.022L18,10.097V5.472c0-0.276,0.224-0.5,0.5-0.5s0.5,0.224,0.5,0.5v5
				c0,0.223-0.147,0.418-0.361,0.48l-1.81,0.524c-0.049,0.029-2.922,1.365-4.282,1.493C12.413,12.982,12.275,12.988,12.137,12.988z
				 M6.091,10.971c1.093,0,2.24,0.279,3.352,0.549c1.122,0.273,2.179,0.529,3.011,0.454c0.538-0.051,1.452-0.363,2.3-0.695
				c-0.818-0.153-1.692-0.378-2.551-0.599c-1.355-0.348-2.757-0.708-3.702-0.708c-1.518,0-3.6,0.431-4.521,0.818
				c-0.887,0.396-1.886,0.863-2.515,1.18c0.577-0.083,1.521-0.339,2.102-0.498c0.924-0.252,1.797-0.49,2.426-0.5
				C6.024,10.971,6.058,10.971,6.091,10.971z"/>
		</g>
		<g>
			<path d="M16.5,11.472c-0.276,0-0.5-0.224-0.5-0.5v-5.5c0-3.367-3.434-4.5-5-4.5c-0.276,0-0.5-0.224-0.5-0.5s0.224-0.5,0.5-0.5
				c2.42,0,6,1.748,6,5.5v5.5C17,11.248,16.776,11.472,16.5,11.472z"/>
		</g>
		<g>
			<path d="M11.5,7.972h-5c-0.208,0-0.395-0.129-0.468-0.323S6.013,7.235,6.169,7.097l2.62-2.311
				c0.521-0.453,1.306-0.426,1.79,0.059l0.274,0.273c0.195,0.195,0.195,0.512,0,0.707c-0.195,0.196-0.512,0.195-0.707,0.001
				L9.872,5.552C9.758,5.435,9.571,5.431,9.449,5.538L7.822,6.972H11.5c0.276,0,0.5,0.224,0.5,0.5S11.776,7.972,11.5,7.972z"/>
		</g>
	</g>
	<g>
		<path d="M16.5,20.972c-0.225,0-0.429-0.151-0.485-0.379c-0.066-0.268,0.096-0.539,0.364-0.606l3.396-0.849l-0.722-1.442
			c-0.067-0.136-0.07-0.295-0.007-0.433s0.186-0.239,0.333-0.276l3.021-0.755l-4.212-3.369c-0.133-0.107-0.203-0.274-0.185-0.443
			c0.018-0.169,0.121-0.318,0.273-0.395l1.105-0.553l-1.105-0.553c-0.247-0.124-0.347-0.424-0.224-0.671
			c0.125-0.247,0.424-0.345,0.671-0.224l2,1c0.169,0.085,0.276,0.258,0.276,0.447s-0.107,0.362-0.276,0.447l-1.301,0.65l4.39,3.512
			c0.148,0.119,0.217,0.312,0.176,0.497c-0.04,0.186-0.183,0.333-0.367,0.378l-3.396,0.849l0.722,1.442
			c0.067,0.136,0.07,0.295,0.007,0.433s-0.186,0.239-0.333,0.276l-4,1C16.581,20.967,16.54,20.972,16.5,20.972z"/>
	</g>
	<g>
		<path d="M16.5,14.472c-0.276,0-0.5-0.224-0.5-0.5v-3c0-0.276,0.224-0.5,0.5-0.5s0.5,0.224,0.5,0.5v3
			C17,14.248,16.776,14.472,16.5,14.472z"/>
	</g>
	<g>
		<path d="M9.154,24.028c-0.201,0-0.403-0.038-0.593-0.114l-4.057-1.846c-0.599-0.378-0.98-0.962-1.112-1.635
			c-0.074-0.375-0.107-0.807-0.107-1.402c0-0.709,0.202-2.15,0.211-2.211c0.096-0.673,0.096-1.355,0-2.028l-0.209-2.783
			c-0.021-0.275,0.187-0.515,0.462-0.536c0.268-0.02,0.516,0.186,0.536,0.461l0.205,2.749c0.105,0.733,0.105,1.51-0.004,2.276
			c-0.002,0.013-0.201,1.431-0.201,2.07c0,0.528,0.027,0.9,0.088,1.209c0.079,0.402,0.307,0.758,0.609,0.953l3.972,1.802
			c0.109,0.043,0.253,0.046,0.388,0.003l6.281-2.04l0.383-2.56c0.041-0.274,0.298-0.462,0.568-0.421
			c0.272,0.041,0.461,0.295,0.42,0.569l-0.429,2.865c-0.027,0.188-0.159,0.343-0.34,0.402l-6.571,2.134
			C9.493,24.001,9.323,24.028,9.154,24.028z"/>
	</g>
	<g>
		<path d="M16,18.972c-0.228,0-0.433-0.156-0.486-0.386c-0.063-0.268,0.104-0.537,0.372-0.601c0.2-0.047,0.583-0.188,0.761-0.367
			c0.59-0.59,0.877-1.362,0.877-2.361c0-0.568-0.124-0.779-0.198-0.814c-0.171-0.083-0.686,0.156-1.011,0.417
			c-0.216,0.175-0.529,0.139-0.703-0.075c-0.173-0.214-0.141-0.528,0.073-0.702c0.198-0.161,1.23-0.944,2.07-0.543
			c0.51,0.243,0.769,0.82,0.769,1.717c0,1.259-0.394,2.292-1.17,3.068c-0.438,0.438-1.16,0.615-1.24,0.634
			C16.075,18.968,16.037,18.972,16,18.972z"/>
	</g>
	<g>
		<path d="M3.5,18.972c-0.053,0-0.105-0.008-0.158-0.026l-3-1c-0.164-0.055-0.289-0.19-0.328-0.359
			c-0.04-0.168,0.01-0.346,0.133-0.468l1.646-1.646l-0.646-0.646c-0.103-0.103-0.155-0.244-0.146-0.389
			c0.011-0.145,0.083-0.277,0.199-0.364l2-1.5c0.22-0.165,0.533-0.122,0.7,0.1c0.165,0.221,0.12,0.534-0.101,0.7L2.26,14.528
			l0.593,0.592c0.195,0.195,0.195,0.512,0,0.707l-1.428,1.428L3.657,18c0.262,0.087,0.403,0.37,0.316,0.632
			C3.904,18.84,3.709,18.972,3.5,18.972z"/>
	</g>
	<g>
		<path d="M8.5,13.972c-0.092,0-0.183-0.025-0.263-0.075C8.09,13.806,8,13.645,8,13.472v-1.5c0-0.276,0.224-0.5,0.5-0.5
			s0.5,0.224,0.5,0.5v0.691l1.276-0.638c0.248-0.122,0.547-0.024,0.671,0.224c0.123,0.247,0.023,0.547-0.224,0.671l-2,1
			C8.653,13.954,8.576,13.972,8.5,13.972z"/>
	</g>
	<g>
		<path d="M13.5,17.972h-2c-0.276,0-0.5-0.224-0.5-0.5v-2c0-0.827,0.673-1.5,1.5-1.5s1.5,0.673,1.5,1.5v2
			C14,17.748,13.776,17.972,13.5,17.972z M12,16.972h1v-1.5c0-0.276-0.225-0.5-0.5-0.5s-0.5,0.224-0.5,0.5V16.972z"/>
	</g>
	<g>
		<circle cx="12" cy="16.472" r="0.5"/>
	</g>
	<g>
		<path d="M7.5,17.972h-2c-0.276,0-0.5-0.224-0.5-0.5v-2c0-0.827,0.673-1.5,1.5-1.5s1.5,0.673,1.5,1.5v2
			C8,17.748,7.776,17.972,7.5,17.972z M6,16.972h1v-1.5c0-0.276-0.225-0.5-0.5-0.5S6,15.196,6,15.472V16.972z"/>
	</g>
	<g>
		<circle cx="6" cy="16.472" r="0.5"/>
	</g>
	<g>
		<path d="M9.5,21.972c-0.73,0-1.324-0.225-1.766-0.667C7.005,20.574,7,19.515,7,19.471c0.001-0.275,0.225-0.499,0.5-0.499h4
			c0.275,0,0.499,0.223,0.5,0.499c0,0.045-0.005,1.103-0.734,1.834C10.824,21.747,10.23,21.972,9.5,21.972z M8.075,19.972
			c0.13,0.445,0.481,1,1.425,1c0.461,0,0.808-0.122,1.058-0.373c0.187-0.187,0.294-0.421,0.356-0.627H8.075z"/>
	</g>
</g>
</svg>
