<?xml version="1.0" encoding="iso-8859-1"?>
<!-- Generator: Adobe Illustrator 19.0.0, SVG Export Plug-In . SVG Version: 6.00 Build 0)  -->
<svg version="1.1" id="Layer_1" xmlns="http://www.w3.org/2000/svg" xmlns:xlink="http://www.w3.org/1999/xlink" x="0px" y="0px"
	 viewBox="0 0 24 24" style="enable-background:new 0 0 24 24;" xml:space="preserve">
<g id="Bellsprout">
	<g>
		<path d="M7.64,23.975c-1.472,0-3.375-0.928-5.035-2.589l0,0l0,0c-1.123-1.124-1.958-2.412-2.352-3.628
			c-0.43-1.33-0.288-2.44,0.398-3.126c1.348-1.344,4.314-0.487,6.754,1.953c1.123,1.124,1.958,2.412,2.352,3.628
			c0.43,1.33,0.288,2.44-0.398,3.126C8.928,23.77,8.332,23.974,7.64,23.975z M2.37,14.999c-0.436,0-0.786,0.114-1.011,0.339
			c-0.401,0.401-0.457,1.171-0.153,2.112c0.345,1.068,1.093,2.214,2.106,3.228l0,0c2.148,2.148,4.538,2.754,5.34,1.953
			c0.401-0.401,0.457-1.171,0.153-2.112c-0.345-1.068-1.093-2.214-2.106-3.228C5.154,15.747,3.484,14.999,2.37,14.999z"/>
	</g>
	<g>
		<path d="M7.284,21.98c-0.953,0-2.474-1.403-3.17-2.099l0,0l0,0c-0.675-0.674-1.255-1.37-1.634-1.959
			c-0.333-0.518-0.724-1.259-0.271-1.711c0.802-0.798,2.833,1.067,3.671,1.905c0.675,0.674,1.255,1.37,1.634,1.959
			c0.333,0.518,0.724,1.259,0.271,1.711C7.649,21.923,7.478,21.98,7.284,21.98z M3.225,17.229c0.266,0.446,0.781,1.133,1.596,1.947
			l0,0c0.814,0.814,1.501,1.33,1.947,1.596c-0.266-0.446-0.781-1.133-1.596-1.947S3.672,17.493,3.225,17.229z"/>
	</g>
	<g>
		<path d="M17.489,15.851c-0.232,0-0.44-0.164-0.489-0.4c-0.055-0.271,0.12-0.535,0.391-0.59c3.245-0.659,5.6-3.544,5.6-6.86
			c0-3.86-3.141-7-7-7c-3.253,0-6.126,2.301-6.832,5.471c-0.06,0.269-0.322,0.439-0.597,0.379c-0.27-0.06-0.439-0.328-0.38-0.597
			c0.807-3.623,4.09-6.253,7.808-6.253c4.411,0,8,3.589,8,8c0,3.79-2.691,7.087-6.4,7.84C17.556,15.848,17.522,15.851,17.489,15.851
			z"/>
	</g>
	<g>
		<path d="M3.506,15.173c-0.186,0-0.364-0.104-0.45-0.283c-0.12-0.249-0.016-0.548,0.233-0.667c3.572-1.724,4.878-7.896,4.891-7.958
			c0.056-0.271,0.326-0.441,0.591-0.389c0.271,0.056,0.444,0.32,0.39,0.59c-0.057,0.273-1.424,6.722-5.438,8.658
			C3.653,15.157,3.579,15.173,3.506,15.173z"/>
	</g>
	<g>
		<path d="M9.322,20.999c-0.069,0-0.14-0.014-0.207-0.045c-0.251-0.114-0.362-0.411-0.248-0.662
			c2.127-4.673,8.306-5.409,8.568-5.438c0.265-0.032,0.521,0.167,0.552,0.441c0.03,0.274-0.167,0.521-0.441,0.553
			c-0.059,0.006-5.879,0.707-7.769,4.858C9.693,20.89,9.511,20.999,9.322,20.999z"/>
	</g>
	<g>
		<circle cx="11.49" cy="7.501" r="1"/>
	</g>
	<g>
		<circle cx="16.49" cy="8.501" r="1"/>
	</g>
	<g>
		<path d="M20.49,23.999c-0.183,0-0.359-0.101-0.447-0.276c-0.696-1.392-0.696-3.054,0-4.445l0.172-0.344
			c0.475-0.949,0.551-2.025,0.215-3.031l-0.414-1.244c-0.087-0.262,0.055-0.545,0.316-0.632c0.262-0.085,0.545,0.054,0.633,0.317
			l0.414,1.244c0.42,1.259,0.324,2.606-0.27,3.794l-0.172,0.344c-0.557,1.112-0.557,2.439,0,3.551
			c0.123,0.247,0.023,0.547-0.224,0.671C20.642,23.982,20.565,23.999,20.49,23.999z"/>
	</g>
	<g>
		<path d="M18.49,23.999c-0.183,0-0.359-0.101-0.447-0.276c-0.696-1.392-0.696-3.054,0-4.445c0.557-1.113,0.557-2.441,0-3.553
			l0.895-0.448c0.696,1.393,0.696,3.055,0,4.446c-0.557,1.113-0.557,2.441,0,3.553c0.123,0.247,0.023,0.547-0.224,0.671
			C18.642,23.982,18.565,23.999,18.49,23.999z"/>
	</g>
</g>
</svg>
