<?xml version="1.0" encoding="iso-8859-1"?>
<!-- Generator: Adobe Illustrator 19.0.0, SVG Export Plug-In . SVG Version: 6.00 Build 0)  -->
<svg version="1.1" id="Layer_1" xmlns="http://www.w3.org/2000/svg" xmlns:xlink="http://www.w3.org/1999/xlink" x="0px" y="0px"
	 viewBox="0 0 24 24" style="enable-background:new 0 0 24 24;" xml:space="preserve">
<g id="Blastoise">
	<g>
		<path d="M20.783,5.615c-0.174,0-0.342-0.091-0.435-0.252c-0.004-0.007-0.007-0.014-0.011-0.021
			c-0.345-0.672-0.709-1.298-1.083-1.859c-0.071-0.104-0.104-0.232-0.084-0.361c0.027-0.182,0.151-0.335,0.325-0.396
			c0.53-0.189,1.113-0.346,1.732-0.467c0.165-0.031,0.324,0.019,0.442,0.13c0.117,0.113,0.172,0.275,0.147,0.436
			c-0.127,0.832-0.31,1.635-0.545,2.388c-0.028,0.141-0.116,0.269-0.252,0.342C20.945,5.595,20.864,5.615,20.783,5.615z
			 M20.437,3.474c0.062,0.101,0.124,0.204,0.185,0.308c0.028-0.125,0.056-0.252,0.081-0.38C20.612,3.425,20.523,3.449,20.437,3.474z
			"/>
	</g>
	<g>
		<path d="M3.219,5.615c-0.062,0-0.123-0.011-0.184-0.035C2.875,5.517,2.764,5.379,2.73,5.221C2.494,4.464,2.31,3.658,2.183,2.825
			C2.159,2.664,2.213,2.502,2.33,2.389c0.118-0.112,0.278-0.161,0.442-0.13C3.391,2.38,3.974,2.536,4.504,2.726
			C4.678,2.788,4.803,2.94,4.83,3.122c0.021,0.135-0.015,0.27-0.095,0.375c-0.37,0.558-0.731,1.178-1.073,1.846
			C3.576,5.514,3.401,5.615,3.219,5.615z M3.3,3.402c0.025,0.128,0.053,0.254,0.08,0.38c0.062-0.104,0.124-0.207,0.186-0.308
			C3.479,3.449,3.39,3.425,3.3,3.402z"/>
	</g>
	<g>
		<path d="M12.001,24.001c-6.617,0-12-3.813-12-8.5c0-2.338,0.548-5.106,1.546-7.817C-0.004,4.199,0,0.65,0.001,0.497
			c0.001-0.134,0.056-0.263,0.152-0.356C0.25,0.047,0.374-0.002,0.514,0c0.109,0.003,2.611,0.082,4.999,0.985
			C6.22,0.331,6.887,0,7.5,0c1.716,0,3.736,1.326,4.5,1.876C12.764,1.326,14.784,0,16.5,0c0.613,0,1.28,0.331,1.987,0.985
			c2.388-0.903,4.89-0.981,4.999-0.985c0.134-0.002,0.264,0.047,0.361,0.141c0.097,0.093,0.151,0.222,0.152,0.356
			C24,0.649,24.004,4.199,22.453,7.684c0.998,2.71,1.546,5.479,1.546,7.817C24.001,20.188,18.618,24.001,12.001,24.001z
			 M1.019,1.035C1.081,2.158,1.351,4.88,2.541,7.456c0.056,0.122,0.061,0.26,0.014,0.386c-1.002,2.663-1.554,5.382-1.554,7.659
			c0,4.136,4.935,7.5,11,7.5s11-3.364,11-7.5c0-2.277-0.552-4.997-1.554-7.659c-0.047-0.125-0.042-0.264,0.014-0.386
			c1.19-2.577,1.461-5.298,1.522-6.421c-0.889,0.075-2.742,0.306-4.421,0.997c-0.188,0.076-0.403,0.034-0.547-0.111
			c-0.584-0.593-1.122-0.919-1.515-0.919c-1.77,0-4.166,1.874-4.19,1.893c-0.182,0.143-0.438,0.143-0.619,0
			c-0.024-0.019-2.421-1.893-4.19-1.893c-0.393,0-0.931,0.327-1.515,0.919c-0.145,0.145-0.36,0.188-0.547,0.111
			C3.756,1.34,1.906,1.109,1.019,1.035z"/>
	</g>
	<g>
		<path d="M16.501,19.998c-0.75,0-1.528-0.166-2.313-0.494c-1.403-0.586-2.948-0.587-4.354,0c-0.785,0.328-1.57,0.494-2.333,0.494
			c-2.172,0-4.076-2.556-4.821-3.703c-0.535,0.542-0.949,1.125-1.234,1.738c-0.116,0.251-0.415,0.355-0.664,0.243
			c-0.25-0.117-0.358-0.414-0.242-0.665c0.417-0.897,1.063-1.73,1.917-2.477c0.113-0.099,0.267-0.142,0.414-0.116
			c0.148,0.025,0.277,0.117,0.351,0.248c0.584,1.038,2.49,3.732,4.28,3.732c0.63,0,1.285-0.14,1.948-0.417
			c1.65-0.689,3.471-0.689,5.123,0c0.662,0.276,1.312,0.417,1.929,0.417c1.805,0,3.692-2.699,4.268-3.738
			c0.073-0.132,0.202-0.224,0.351-0.25c0.149-0.028,0.301,0.016,0.415,0.115c0.861,0.75,1.51,1.586,1.928,2.487
			c0.116,0.25,0.008,0.548-0.243,0.664c-0.248,0.117-0.548,0.008-0.663-0.243c-0.286-0.615-0.702-1.2-1.241-1.744
			C20.576,17.439,18.689,19.998,16.501,19.998z"/>
	</g>
	<g>
		<path d="M6.508,14.004c-0.202,0-0.393-0.123-0.468-0.324c-0.098-0.258,0.033-0.546,0.291-0.644
			c3.589-1.354,8.255-1.355,11.846-0.002c0.259,0.097,0.39,0.386,0.292,0.644c-0.097,0.258-0.388,0.389-0.644,0.292
			c-3.37-1.269-7.776-1.267-11.141,0.002C6.626,13.994,6.566,14.004,6.508,14.004z"/>
	</g>
	<g>
		<path d="M10.501,16.001c-0.04,0-0.08-0.005-0.121-0.015l-2-0.5c-0.269-0.067-0.431-0.338-0.364-0.606
			c0.066-0.269,0.335-0.432,0.606-0.364l2,0.5c0.269,0.067,0.431,0.338,0.364,0.606C10.93,15.85,10.726,16.001,10.501,16.001z"/>
	</g>
	<g>
		<path d="M13.501,16.001c-0.225,0-0.429-0.151-0.485-0.379c-0.066-0.268,0.096-0.539,0.364-0.606l2-0.5
			c0.265-0.069,0.539,0.095,0.606,0.364c0.066,0.268-0.096,0.539-0.364,0.606l-2,0.5C13.582,15.996,13.541,16.001,13.501,16.001z"/>
	</g>
	<g>
		<path d="M10.501,11.001h-6c-0.141,0-0.274-0.059-0.369-0.163s-0.142-0.242-0.129-0.381c0.103-1.157,0.414-3.141,1.349-3.433
			c1.366-0.431,4.538,2.268,5.481,3.103c0.155,0.138,0.209,0.357,0.136,0.551C10.895,10.873,10.709,11.001,10.501,11.001z
			 M5.062,10.001h4.067C7.547,8.74,6.046,7.851,5.65,7.978C5.46,8.11,5.201,9.01,5.062,10.001z"/>
	</g>
	<g>
		<path d="M19.501,11.001h-6c-0.208,0-0.394-0.128-0.468-0.323c-0.073-0.194-0.02-0.414,0.136-0.551
			c0.942-0.835,4.108-3.535,5.481-3.103c0.935,0.292,1.246,2.276,1.349,3.433c0.013,0.14-0.034,0.278-0.129,0.381
			S19.642,11.001,19.501,11.001z M14.873,10.001h4.067c-0.14-0.991-0.401-1.893-0.609-2.032
			C17.934,7.844,16.451,8.742,14.873,10.001z"/>
	</g>
	<g>
		<circle cx="7.501" cy="9.501" r="1"/>
	</g>
	<g>
		<circle cx="16.501" cy="9.501" r="1"/>
	</g>
</g>
</svg>
