<?xml version="1.0" encoding="iso-8859-1"?>
<!-- Generator: Adobe Illustrator 19.0.0, SVG Export Plug-In . SVG Version: 6.00 Build 0)  -->
<svg version="1.1" id="Layer_1" xmlns="http://www.w3.org/2000/svg" xmlns:xlink="http://www.w3.org/1999/xlink" x="0px" y="0px"
	 viewBox="0 0 24 24" style="enable-background:new 0 0 24 24;" xml:space="preserve">
<g id="Blaziken">
	<g>
		<path d="M12,24c-1.926,0-5.677-3.127-6.644-3.961l-4.759,0.952c-0.199,0.043-0.41-0.049-0.521-0.224
			c-0.11-0.175-0.102-0.401,0.022-0.566l2.684-3.577l-2.561-1.707C0.096,14.834,0.016,14.699,0,14.55
			c-0.015-0.149,0.038-0.297,0.145-0.403l1.745-1.745L0.051,8.724C-0.037,8.549-0.013,8.338,0.11,8.185
			c0.124-0.152,0.323-0.219,0.515-0.169l4.266,1.113c0.268,0.07,0.428,0.343,0.357,0.61c-0.069,0.267-0.338,0.426-0.609,0.358
			L1.44,9.262l1.507,3.015c0.097,0.192,0.059,0.425-0.094,0.577l-1.568,1.569l2.492,1.662c0.114,0.076,0.192,0.196,0.216,0.332
			c0.022,0.136-0.011,0.274-0.093,0.384l-2.215,2.953l3.717-0.743c0.153-0.031,0.312,0.013,0.429,0.115
			c1.698,1.498,4.875,3.875,6.169,3.875c1.137,0,4.393-2.381,6.178-3.883c0.117-0.098,0.271-0.136,0.42-0.107l3.717,0.743L20.1,16.8
			c-0.082-0.11-0.115-0.249-0.093-0.384c0.023-0.135,0.102-0.255,0.216-0.332l2.492-1.662l-1.568-1.569
			c-0.152-0.152-0.19-0.385-0.094-0.577l1.507-3.014l-3.193,0.833c-0.271,0.07-0.54-0.091-0.609-0.357
			c-0.07-0.268,0.09-0.541,0.357-0.61l4.26-1.111c0.19-0.05,0.391,0.017,0.515,0.169c0.123,0.152,0.146,0.363,0.059,0.539
			l-1.839,3.678l1.745,1.745c0.106,0.106,0.159,0.254,0.145,0.403c-0.016,0.149-0.096,0.284-0.221,0.367l-2.561,1.707l2.684,3.577
			c0.124,0.166,0.133,0.391,0.022,0.566c-0.11,0.175-0.317,0.267-0.521,0.224l-4.766-0.953C17.645,20.856,13.726,24,12,24z"/>
	</g>
	<g>
		<path d="M15.5,17c-0.081,0-0.162-0.02-0.238-0.06c-0.242-0.131-0.333-0.435-0.201-0.678l6.734-12.453
			c0.272-0.517,0.565-1.1,0.794-1.667l-7.768,7.916c-1.681,1.323-3.963,1.323-5.595,0.043L1.39,2.12
			c0.182,0.433,0.413,0.892,0.668,1.396l0.154,0.306l6.727,12.439c0.132,0.243,0.041,0.546-0.201,0.678
			c-0.243,0.129-0.547,0.042-0.678-0.202L1.165,3.967C0.539,2.728-0.001,1.658-0.001,0.5c0-0.203,0.123-0.386,0.311-0.463
			C0.499-0.04,0.713,0.005,0.856,0.15l9.035,9.208c1.223,0.951,2.996,0.95,4.265-0.043l8.987-9.165
			c0.142-0.145,0.357-0.19,0.546-0.113C23.877,0.114,24,0.297,24,0.5c0,1.122-0.669,2.541-1.323,3.781L15.94,16.738
			C15.85,16.905,15.678,17,15.5,17z"/>
	</g>
	<g>
		<path d="M7.953,16H5.5c-0.26,0-0.49-0.122-0.633-0.334c-0.481-0.718,0.235-2.746,0.705-3.891c0.106-0.255,0.401-0.376,0.652-0.272
			c0.256,0.105,0.378,0.397,0.273,0.652C6.025,13.304,5.681,14.537,5.69,15h2.262c0.276,0,0.5,0.224,0.5,0.5S8.229,16,7.953,16z"/>
	</g>
	<g>
		<path d="M18.501,16h-2.453c-0.276,0-0.5-0.224-0.5-0.5s0.224-0.5,0.5-0.5h2.262c0.01-0.464-0.334-1.697-0.807-2.845
			c-0.104-0.255,0.018-0.547,0.272-0.652c0.258-0.103,0.548,0.017,0.653,0.272c0.47,1.145,1.187,3.172,0.705,3.891
			C18.991,15.878,18.761,16,18.501,16z"/>
	</g>
	<g>
		<path d="M10.5,21c-0.128,0-0.256-0.049-0.354-0.146l-1-1c-0.195-0.195-0.195-0.512,0-0.707s0.512-0.195,0.707,0l1,1
			c0.195,0.195,0.195,0.512,0,0.707C10.756,20.951,10.628,21,10.5,21z"/>
	</g>
	<g>
		<path d="M13.5,21c-0.128,0-0.256-0.049-0.354-0.146c-0.195-0.195-0.195-0.512,0-0.707l1-1c0.195-0.195,0.512-0.195,0.707,0
			s0.195,0.512,0,0.707l-1,1C13.756,20.951,13.628,21,13.5,21z"/>
	</g>
</g>
</svg>
