<?xml version="1.0" encoding="iso-8859-1"?>
<!-- Generator: Adobe Illustrator 19.0.0, SVG Export Plug-In . SVG Version: 6.00 Build 0)  -->
<svg version="1.1" id="Layer_1" xmlns="http://www.w3.org/2000/svg" xmlns:xlink="http://www.w3.org/1999/xlink" x="0px" y="0px"
	 viewBox="0 0 24 24" style="enable-background:new 0 0 24 24;" xml:space="preserve">
<g id="Bulbasaur">
	<g>
		<path d="M14,24h-4c-4.383,0-9.5-2.488-9.5-9.5c0-3.309,2.05-5.5,3.859-7.433C5.974,5.341,7.5,3.711,7.5,1.5
			c0-0.19,0.108-0.364,0.278-0.448c0.171-0.084,0.375-0.064,0.525,0.051c0.332,0.254,2.651,2.066,3.692,3.856
			c1.038-1.802,3.369-3.606,3.702-3.858c0.15-0.115,0.354-0.134,0.524-0.049S16.5,1.31,16.5,1.5c0,2.248,1.533,3.88,3.156,5.608
			C21.458,9.026,23.5,11.199,23.5,14.5C23.5,21.512,18.383,24,14,24z M8.416,2.481C8.05,4.587,6.548,6.192,5.089,7.751
			C3.324,9.637,1.5,11.586,1.5,14.501c0,6.274,4.579,8.5,8.5,8.5h4c3.921,0,8.5-2.226,8.5-8.5c0-2.905-1.816-4.838-3.572-6.707
			c-1.47-1.564-2.982-3.175-3.346-5.315C14.176,3.672,12.5,5.44,12.5,6.501c0,0.276-0.224,0.5-0.5,0.5s-0.5-0.224-0.5-0.5
			C11.5,5.456,9.822,3.683,8.416,2.481z"/>
	</g>
	<g>
		<path d="M12,10c-0.276,0-0.5-0.224-0.5-0.5v-3C11.5,6.224,11.724,6,12,6s0.5,0.224,0.5,0.5v3C12.5,9.776,12.276,10,12,10z"/>
	</g>
	<g>
		<path d="M10,3.773c-0.276,0-0.5-0.224-0.5-0.5V3c0-0.931,1.521-2.325,2.176-2.881c0.188-0.159,0.461-0.159,0.648,0
			C12.978,0.675,14.5,2.069,14.5,3v0.262c0,0.276-0.224,0.5-0.5,0.5s-0.5-0.224-0.5-0.5V3c-0.006-0.269-0.687-1.09-1.5-1.833
			C11.187,1.911,10.506,2.733,10.5,3v0.273C10.5,3.55,10.276,3.773,10,3.773z"/>
	</g>
	<g>
		<path d="M12,24c-4.626,0-7.5-2.491-7.5-6.5c0-1.255,0.37-2.347,0.728-3.403l0.099-0.293c-0.675-2.566,0.169-4.879,0.205-4.978
			C5.607,8.625,5.82,8.485,6.017,8.501c0.081,0.002,1.888,0.075,3.25,1.146c1.773-0.848,3.693-0.846,5.465-0.003
			c1.363-1.071,3.172-1.14,3.253-1.143c0.223,0.005,0.41,0.125,0.484,0.325c0.036,0.099,0.878,2.405,0.208,4.967l0.134,0.408
			c0.339,1.024,0.689,2.083,0.689,3.3C19.5,21.509,16.626,24,12,24z M6.298,13.566c0.06,0.117,0.077,0.253,0.036,0.377l-0.159,0.474
			C5.828,15.442,5.5,16.41,5.5,17.5c0,3.444,2.43,5.5,6.5,5.5s6.5-2.056,6.5-5.5c0-1.056-0.311-1.993-0.639-2.985l-0.182-0.553
			c-0.026-0.082-0.03-0.169-0.013-0.254c0.494-1.785,0.166-3.457-0.025-4.17c-0.579,0.08-1.705,0.327-2.495,1.067
			c-0.156,0.146-0.392,0.177-0.579,0.075c-1.66-0.89-3.475-0.891-5.135,0.003c-0.19,0.101-0.423,0.071-0.579-0.076
			c-0.79-0.741-1.916-0.989-2.495-1.07C6.169,10.24,5.845,11.862,6.298,13.566z"/>
	</g>
	<g>
		<path d="M7.801,18.002c-0.184,0-0.359-0.102-0.447-0.276c-0.003-0.006-0.006-0.012-0.009-0.018l0,0C7.119,17.207,7,16.617,7,16
			c0-1.587,1.118-3,2-3c0.9,0,2,1.384,2,3c0,0.617-0.119,1.207-0.344,1.706C10.575,17.885,10.396,18,10.2,18H7.846
			C7.831,18.001,7.816,18.002,7.801,18.002z M8.146,17h1.71c0.094-0.305,0.145-0.649,0.145-1c0-1.16-0.745-1.977-1.002-2
			c-0.249,0.039-0.998,0.877-0.998,2C8,16.35,8.051,16.695,8.146,17z"/>
	</g>
	<g>
		<path d="M13.801,18.002c-0.184,0-0.359-0.102-0.447-0.276c-0.003-0.006-0.006-0.012-0.009-0.018l0,0
			C13.119,17.207,13,16.617,13,16c0-1.587,1.118-3,2-3c0.9,0,2,1.384,2,3c0,0.617-0.119,1.207-0.344,1.706
			C16.575,17.885,16.396,18,16.2,18h-2.354C13.831,18.001,13.816,18.002,13.801,18.002z M14.146,17h1.71
			c0.094-0.305,0.145-0.649,0.145-1c0-1.16-0.745-1.977-1.002-2c-0.249,0.039-0.998,0.877-0.998,2C14,16.35,14.051,16.695,14.146,17
			z"/>
	</g>
	<g>
		<circle cx="9" cy="16.5" r="1"/>
	</g>
	<g>
		<circle cx="15" cy="16.5" r="1"/>
	</g>
	<g>
		<path d="M12,21.5c-0.076,0-0.153-0.018-0.224-0.053L10.882,21H9.414c-0.395,0-0.781-0.16-1.061-0.439l-0.707-0.707
			c-0.195-0.195-0.195-0.512,0-0.707s0.512-0.195,0.707,0l0.707,0.707C9.153,19.947,9.282,20,9.414,20H11
			c0.077,0,0.154,0.018,0.224,0.053L12,20.441l0.776-0.388C12.845,20.018,12.922,20,13,20h1.586c0.132,0,0.261-0.053,0.354-0.146
			l0.707-0.707c0.195-0.195,0.512-0.195,0.707,0s0.195,0.512,0,0.707l-0.707,0.707C15.368,20.84,14.981,21,14.586,21h-1.468
			l-0.895,0.447C12.153,21.482,12.076,21.5,12,21.5z"/>
	</g>
</g>
</svg>
