<?xml version="1.0" encoding="iso-8859-1"?>
<!-- Generator: Adobe Illustrator 19.0.0, SVG Export Plug-In . SVG Version: 6.00 Build 0)  -->
<svg version="1.1" id="Layer_1" xmlns="http://www.w3.org/2000/svg" xmlns:xlink="http://www.w3.org/1999/xlink" x="0px" y="0px"
	 viewBox="0 0 24 24" style="enable-background:new 0 0 24 24;" xml:space="preserve">
<g id="Charmander">
	<g>
		<path d="M12,24c-5.653,0-11.5-3.553-11.5-9.5c0-0.546,0.332-0.951,0.599-1.275C1.314,12.962,1.5,12.736,1.5,12.5
			C1.5,5.724,6.309,0,12,0c5.691,0,10.5,5.724,10.5,12.5c0,0.22,0.194,0.462,0.401,0.718c0.28,0.349,0.599,0.744,0.599,1.282
			C23.5,20.447,17.653,24,12,24z M12,1C6.851,1,2.5,6.267,2.5,12.5c0,0.593-0.349,1.018-0.629,1.359
			C1.672,14.102,1.5,14.312,1.5,14.5C1.5,19.821,6.839,23,12,23c5.161,0,10.5-3.179,10.5-8.5c0-0.185-0.184-0.413-0.378-0.654
			C21.845,13.502,21.5,13.073,21.5,12.5C21.5,6.267,17.149,1,12,1z"/>
	</g>
	<g>
		<path d="M8.663,14L8.663,14H5.337c-0.221,0-0.415-0.145-0.479-0.356C4.62,12.853,4.5,11.964,4.5,11c0-2.851,1.075-5,2.5-5
			s2.5,2.149,2.5,5c0,0.943-0.124,1.857-0.357,2.643C9.079,13.855,8.885,14,8.663,14z M5.72,13h2.56c0.145-0.61,0.221-1.294,0.221-2
			c0-2.442-0.889-4-1.5-4s-1.5,1.558-1.5,4C5.5,11.711,5.575,12.395,5.72,13z"/>
	</g>
	<g>
		<path d="M18.663,14L18.663,14h-3.326c-0.221,0-0.415-0.145-0.479-0.356C14.62,12.853,14.5,11.964,14.5,11c0-2.851,1.075-5,2.5-5
			s2.5,2.149,2.5,5c0,0.943-0.124,1.857-0.357,2.643C19.079,13.855,18.885,14,18.663,14z M15.72,13h2.56
			c0.145-0.61,0.221-1.294,0.221-2c0-2.442-0.889-4-1.5-4s-1.5,1.558-1.5,4C15.5,11.711,15.575,12.395,15.72,13z"/>
	</g>
	<g>
		<circle cx="16.5" cy="9" r="1"/>
	</g>
	<g>
		<circle cx="7.5" cy="9" r="1"/>
	</g>
	<g>
		<path d="M12,22c-3.603,0-7.898-1.832-9.138-5.333c-0.054-0.153-0.03-0.323,0.063-0.456C3.019,16.078,3.171,16,3.333,16
			c1.899,0,4.605,0.316,8.045,0.939c0.41,0.075,0.828,0.074,1.24,0C16.045,16.315,18.752,16,20.665,16
			c0.162,0,0.314,0.079,0.408,0.211c0.094,0.132,0.117,0.302,0.063,0.456C19.898,20.168,15.603,22,12,22z M4.104,17.016
			C5.481,19.635,8.999,21,12,21s6.519-1.366,7.896-3.984c-1.789,0.071-4.171,0.375-7.097,0.907
			c-0.529,0.097-1.068,0.098-1.598,0.001C8.267,17.391,5.885,17.087,4.104,17.016z"/>
	</g>
	<g>
		<path d="M8,19L8,19c-0.167,0-0.323-0.084-0.416-0.223l-1.177-1.769c-0.153-0.23-0.091-0.54,0.139-0.693
			c0.229-0.152,0.541-0.092,0.693,0.14L8,17.599l0.562-0.842c0.153-0.231,0.465-0.29,0.693-0.139
			c0.229,0.153,0.292,0.463,0.139,0.693l-0.978,1.467C8.323,18.917,8.167,19,8,19z"/>
	</g>
	<g>
		<path d="M16,19c-0.167,0-0.323-0.083-0.416-0.222l-0.98-1.468c-0.153-0.23-0.091-0.541,0.139-0.694
			c0.228-0.152,0.538-0.091,0.693,0.138L16,17.6l0.766-1.148c0.154-0.231,0.465-0.291,0.693-0.139
			c0.229,0.153,0.292,0.464,0.139,0.693l-1.182,1.771C16.323,18.917,16.167,19,16,19z"/>
	</g>
	<g>
		<circle cx="10" cy="15.5" r="0.5"/>
	</g>
	<g>
		<circle cx="14" cy="15.5" r="0.5"/>
	</g>
</g>
</svg>
