<?xml version="1.0" encoding="iso-8859-1"?>
<!-- Generator: Adobe Illustrator 19.0.0, SVG Export Plug-In . SVG Version: 6.00 Build 0)  -->
<svg version="1.1" id="Layer_1" xmlns="http://www.w3.org/2000/svg" xmlns:xlink="http://www.w3.org/1999/xlink" x="0px" y="0px"
	 viewBox="0 0 24 24" style="enable-background:new 0 0 24 24;" xml:space="preserve">
<g id="Charizard">
	<g>
		<path d="M14.501,23.996c-0.613,0-0.981-0.14-1.306-0.263c-0.327-0.125-0.608-0.231-1.197-0.231c-0.577,0-0.858,0.106-1.185,0.23
			s-0.698,0.265-1.313,0.265c-1.151,0-1.48-1.721-1.514-1.917l-0.835-3.257C7.132,18.73,7.107,18.67,7.07,18.615l-1.43-2.146
			c-0.37-0.555-0.502-1.222-0.371-1.877l0.819-5.074l-1.709-7.69C4.28,1.382,4.387,0.921,4.673,0.565
			c0.286-0.357,0.713-0.562,1.17-0.562c0.695,0,1.236,0.357,1.473,0.909l2.611,6.091h4.147l2.611-6.091
			c0.237-0.552,0.778-0.909,1.378-0.909c0.552,0,0.979,0.205,1.265,0.562c0.286,0.356,0.393,0.817,0.293,1.264l-1.708,7.689
			l0.822,5.093c0.127,0.636-0.004,1.303-0.375,1.859l-1.43,2.145c-0.037,0.056-0.062,0.116-0.075,0.181l-0.85,3.325
			C15.981,22.274,15.652,23.996,14.501,23.996z M11.998,22.501c0.772,0,1.187,0.158,1.552,0.296
			c0.292,0.111,0.521,0.198,0.951,0.198c0.164,0,0.436-0.559,0.529-1.087l0.852-3.335c0.032-0.168,0.108-0.351,0.218-0.516
			l1.429-2.144c0.222-0.333,0.301-0.733,0.223-1.126l-0.841-5.206c-0.01-0.063-0.008-0.126,0.005-0.188l1.729-7.783
			c0.033-0.149-0.002-0.302-0.098-0.421c-0.095-0.119-0.238-0.188-0.39-0.188c-0.294,0-0.475,0.119-0.554,0.303l-2.741,6.394
			c-0.079,0.184-0.259,0.303-0.459,0.303H9.597c-0.2,0-0.381-0.119-0.459-0.303L6.397,1.304C6.318,1.12,6.138,1.001,5.938,1.001
			c-0.247,0-0.389,0.068-0.484,0.188c-0.095,0.119-0.131,0.272-0.098,0.42l1.73,7.784C7.1,9.455,7.102,9.518,7.091,9.581
			l-0.837,5.188c-0.082,0.412-0.003,0.812,0.219,1.145l1.43,2.145c0.11,0.165,0.186,0.347,0.224,0.543l0.837,3.269
			c0.101,0.567,0.373,1.126,0.537,1.126c0.432,0,0.664-0.088,0.958-0.2C10.824,22.658,11.237,22.501,11.998,22.501z"/>
	</g>
	<g>
		<path d="M10.997,21.501c-0.075,0-0.151-0.017-0.223-0.053l-1-0.5c-0.247-0.124-0.347-0.424-0.224-0.671
			c0.124-0.247,0.423-0.346,0.671-0.224l1,0.5c0.247,0.124,0.347,0.424,0.224,0.671C11.357,21.4,11.181,21.501,10.997,21.501z"/>
	</g>
	<g>
		<path d="M12.998,21.501c-0.184,0-0.36-0.101-0.448-0.276c-0.124-0.247-0.023-0.547,0.224-0.671l1-0.5
			c0.248-0.123,0.547-0.023,0.671,0.224s0.023,0.547-0.224,0.671l-1,0.5C13.149,21.484,13.073,21.501,12.998,21.501z"/>
	</g>
	<g>
		<path d="M9.998,16.001h-2c-0.154,0-0.299-0.071-0.394-0.192c-0.095-0.121-0.128-0.279-0.091-0.429l0.492-1.967l-0.423-0.634
			c-0.153-0.23-0.091-0.54,0.139-0.693c0.229-0.154,0.54-0.091,0.693,0.139l2,3c0.102,0.153,0.112,0.351,0.025,0.513
			S10.182,16.001,9.998,16.001z"/>
	</g>
	<g>
		<path d="M15.998,16.001h-2c-0.185,0-0.354-0.102-0.441-0.264s-0.077-0.36,0.025-0.513l2-3c0.152-0.23,0.462-0.292,0.693-0.139
			c0.23,0.153,0.292,0.463,0.139,0.693l-0.423,0.634l0.492,1.967c0.038,0.149,0.004,0.308-0.091,0.429
			C16.297,15.93,16.151,16.001,15.998,16.001z"/>
	</g>
</g>
</svg>
