<?xml version="1.0" encoding="iso-8859-1"?>
<!-- Generator: Adobe Illustrator 19.0.0, SVG Export Plug-In . SVG Version: 6.00 Build 0)  -->
<svg version="1.1" id="Layer_1" xmlns="http://www.w3.org/2000/svg" xmlns:xlink="http://www.w3.org/1999/xlink" x="0px" y="0px"
	 viewBox="0 0 24 24" style="enable-background:new 0 0 24 24;" xml:space="preserve">
<g id="Clefairy">
	<g>
		<path d="M6.786,4.996c-0.14,0-0.279-0.059-0.378-0.173C6.227,4.615,6.25,4.299,6.459,4.118c0.294-0.254,0.602-0.49,0.916-0.699
			c0.228-0.153,0.539-0.092,0.693,0.139c0.153,0.229,0.091,0.54-0.139,0.693C7.65,4.438,7.375,4.647,7.113,4.874
			C7.019,4.956,6.902,4.996,6.786,4.996z"/>
	</g>
	<g>
		<path d="M3.503,12.751c-0.271,0-0.493-0.216-0.5-0.488L3,12c0-0.884,0.104-1.762,0.309-2.606c0.065-0.268,0.335-0.432,0.604-0.368
			C4.182,9.091,4.346,9.361,4.281,9.63C4.095,10.397,4,11.195,4,12l0.003,0.239c0.006,0.276-0.212,0.505-0.488,0.512
			C3.511,12.751,3.507,12.751,3.503,12.751z"/>
	</g>
	<g>
		<path d="M12,22c-1.1,0-2.173-0.218-3.191-0.646c-0.254-0.107-0.374-0.4-0.267-0.655c0.108-0.255,0.402-0.372,0.655-0.267
			c1.797,0.758,3.835,0.754,5.631-0.011c0.256-0.108,0.549,0.01,0.656,0.264c0.108,0.254-0.01,0.548-0.264,0.656
			C14.192,21.778,13.109,22,12,22z"/>
	</g>
	<g>
		<path d="M20.497,12.751c-0.004,0-0.008,0-0.012,0c-0.276-0.007-0.494-0.236-0.488-0.512L20,12c0-0.81-0.096-1.612-0.283-2.384
			c-0.065-0.268,0.099-0.539,0.367-0.604c0.265-0.067,0.538,0.099,0.604,0.368C20.895,10.229,21,11.11,21,12l-0.003,0.263
			C20.99,12.535,20.768,12.751,20.497,12.751z"/>
	</g>
	<g>
		<path d="M17.217,4.999c-0.116,0-0.232-0.04-0.327-0.122c-0.265-0.229-0.54-0.439-0.82-0.626c-0.229-0.153-0.292-0.463-0.139-0.693
			c0.154-0.23,0.465-0.291,0.693-0.139c0.314,0.209,0.624,0.446,0.92,0.702c0.209,0.181,0.231,0.497,0.051,0.705
			C17.496,4.94,17.356,4.999,17.217,4.999z"/>
	</g>
	<g>
		<path d="M16.501,6c-0.019,0-0.037-0.001-0.056-0.003c-0.274-0.031-0.473-0.278-0.442-0.552c0.01-0.086,0.005-0.169,0.002-0.255
			L16,5c0-2.206-1.794-4-4-4S8,2.794,8,5c0,0.276-0.224,0.5-0.5,0.5S7,5.276,7,5c0-2.757,2.243-5,5-5s5,2.243,5,5l0.004,0.153
			c0.005,0.135,0.008,0.267-0.007,0.402C16.969,5.811,16.752,6,16.501,6z"/>
	</g>
	<g>
		<path d="M10.5,8.5C8.57,8.5,7,6.93,7,5c0-0.276,0.224-0.5,0.5-0.5S8,4.724,8,5c0,1.378,1.121,2.5,2.5,2.5S13,6.378,13,5
			c0-0.276,0.224-0.5,0.5-0.5S14,4.724,14,5C14,6.93,12.43,8.5,10.5,8.5z"/>
	</g>
	<g>
		<path d="M13.5,5.5C13.224,5.5,13,5.276,13,5c0-0.551-0.448-1-1-1s-1,0.449-1,1c0,0.276-0.224,0.5-0.5,0.5S10,5.276,10,5
			c0-1.103,0.897-2,2-2s2,0.897,2,2C14,5.276,13.776,5.5,13.5,5.5z"/>
	</g>
	<g>
		<path d="M3.5,11c-0.146,0-0.291-0.064-0.391-0.188C0.03,6.97,0,0.762,0,0.5c0-0.138,0.057-0.269,0.157-0.363
			s0.237-0.139,0.372-0.135c0.149,0.008,3.7,0.245,7.283,3.108c0.216,0.172,0.25,0.487,0.078,0.703
			C7.718,4.03,7.405,4.064,7.187,3.892C4.66,1.872,2.11,1.253,1.019,1.072c0.085,1.599,0.529,6.196,2.871,9.117
			c0.172,0.215,0.138,0.53-0.078,0.703C3.721,10.964,3.61,11,3.5,11z"/>
	</g>
	<g>
		<path d="M20.5,11c-0.11,0-0.221-0.036-0.313-0.11c-0.216-0.173-0.25-0.487-0.078-0.703c2.346-2.926,2.788-7.52,2.871-9.117
			c-1.09,0.182-3.641,0.8-6.168,2.82c-0.217,0.173-0.53,0.138-0.703-0.079c-0.172-0.216-0.138-0.53,0.078-0.703
			C19.77,0.245,23.321,0.008,23.47,0c0.139-0.003,0.272,0.041,0.372,0.135C23.943,0.23,24,0.362,24,0.5
			c0,0.263-0.03,6.47-3.109,10.313C20.791,10.936,20.646,11,20.5,11z"/>
	</g>
	<g>
		<path d="M9.5,12C9.224,12,9,11.776,9,11.5v-1C9,10.224,9.224,10,9.5,10s0.5,0.224,0.5,0.5v1C10,11.776,9.776,12,9.5,12z"/>
	</g>
	<g>
		<path d="M14.5,12c-0.276,0-0.5-0.224-0.5-0.5v-1c0-0.276,0.224-0.5,0.5-0.5s0.5,0.224,0.5,0.5v1C15,11.776,14.776,12,14.5,12z"/>
	</g>
	<g>
		<path d="M11.995,14.488c-0.641,0-1.279-0.196-1.797-0.59c-0.221-0.167-0.264-0.48-0.097-0.701c0.167-0.221,0.482-0.262,0.7-0.096
			c0.688,0.521,1.696,0.522,2.399-0.002c0.22-0.166,0.533-0.121,0.699,0.101c0.165,0.221,0.12,0.535-0.102,0.7
			C13.274,14.292,12.634,14.488,11.995,14.488z"/>
	</g>
	<g>
		<path d="M22,8c-0.228,0-0.433-0.155-0.486-0.386c-0.008-0.03-0.735-3.041-2.874-5.268c-0.191-0.199-0.186-0.516,0.014-0.707
			c0.2-0.189,0.517-0.186,0.707,0.015c2.334,2.43,3.096,5.599,3.127,5.732c0.063,0.269-0.104,0.537-0.373,0.6
			C22.076,7.996,22.037,8,22,8z"/>
	</g>
	<g>
		<path d="M2,8C1.963,8,1.925,7.996,1.886,7.987C1.617,7.924,1.45,7.655,1.513,7.386C1.544,7.252,2.306,4.084,4.64,1.654
			c0.191-0.2,0.508-0.204,0.707-0.015C5.546,1.83,5.552,2.147,5.361,2.346C3.215,4.581,2.495,7.584,2.488,7.614
			C2.433,7.844,2.228,8,2,8z"/>
	</g>
	<g>
		<path d="M18.5,17c-0.198,0-0.386-0.119-0.464-0.314c-0.103-0.256,0.021-0.547,0.278-0.65l3.403-1.361
			c0.779-0.312,1.282-1.055,1.282-1.894c0-0.155-0.07-0.299-0.192-0.394c-0.121-0.095-0.273-0.126-0.429-0.091l-2.758,0.689
			c-0.268,0.065-0.54-0.096-0.606-0.364s0.096-0.539,0.364-0.606l2.758-0.689c0.451-0.113,0.919-0.014,1.286,0.273
			c0.367,0.286,0.577,0.717,0.577,1.182c0,1.25-0.75,2.358-1.911,2.822l-3.403,1.361C18.625,16.989,18.562,17,18.5,17z"/>
	</g>
	<g>
		<path d="M5.5,17c-0.062,0-0.125-0.011-0.186-0.036l-3.403-1.361C0.75,15.139,0,14.031,0,12.781c0-0.465,0.21-0.896,0.577-1.182
			c0.367-0.287,0.835-0.386,1.286-0.273l2.758,0.689c0.269,0.067,0.431,0.338,0.364,0.606s-0.335,0.43-0.606,0.364l-2.758-0.689
			c-0.156-0.037-0.308-0.004-0.429,0.091C1.07,12.482,1,12.625,1,12.781c0,0.839,0.503,1.582,1.282,1.894l3.403,1.361
			c0.257,0.103,0.381,0.394,0.278,0.65C5.886,16.881,5.698,17,5.5,17z"/>
	</g>
	<g>
		<path d="M7.882,24H7.254c-0.595,0-1.109-0.369-1.413-1.012c-1.394-2.944-2.29-6.714-2.327-6.874
			c-0.063-0.269,0.103-0.538,0.371-0.602c0.28-0.062,0.539,0.104,0.602,0.372c0.009,0.038,0.911,3.828,2.259,6.676
			c0.077,0.164,0.246,0.439,0.509,0.439h0.628c0.191,0,0.362-0.105,0.447-0.276l0.724-1.448c0.125-0.248,0.424-0.345,0.671-0.224
			c0.247,0.124,0.347,0.424,0.224,0.671l-0.724,1.447C8.969,23.682,8.454,24,7.882,24z"/>
	</g>
	<g>
		<path d="M16.746,24h-0.628c-0.572,0-1.087-0.318-1.342-0.83l-0.724-1.447c-0.123-0.247-0.023-0.547,0.224-0.671
			c0.247-0.123,0.547-0.024,0.671,0.224l0.724,1.447c0.085,0.171,0.256,0.276,0.447,0.276h0.628c0.263,0,0.432-0.275,0.509-0.438
			c1.349-2.851,2.25-6.638,2.259-6.676c0.063-0.268,0.331-0.434,0.601-0.372c0.27,0.063,0.436,0.333,0.372,0.602
			c-0.037,0.159-0.934,3.929-2.327,6.874C17.855,23.631,17.341,24,16.746,24z"/>
	</g>
</g>
</svg>
