<?xml version="1.0" encoding="iso-8859-1"?>
<!-- Generator: Adobe Illustrator 19.0.0, SVG Export Plug-In . SVG Version: 6.00 Build 0)  -->
<svg version="1.1" id="Layer_1" xmlns="http://www.w3.org/2000/svg" xmlns:xlink="http://www.w3.org/1999/xlink" x="0px" y="0px"
	 viewBox="0 0 24 24" style="enable-background:new 0 0 24 24;" xml:space="preserve">
<g id="Dugtrio">
	<g>
		<path d="M23,24H1c-0.276,0-0.5-0.224-0.5-0.5v-1C0.5,21.122,1.622,20,3,20h18c1.378,0,2.5,1.122,2.5,2.5v1
			C23.5,23.776,23.276,24,23,24z M1.5,23h21v-0.5c0-0.827-0.673-1.5-1.5-1.5H3c-0.827,0-1.5,0.673-1.5,1.5V23z"/>
	</g>
	<g>
		<path d="M21,21h-9c-0.276,0-0.5-0.224-0.5-0.5V15c0-2.757,2.243-5,5-5s5,2.243,5,5v5.5C21.5,20.776,21.276,21,21,21z M12.5,20h8
			v-5c0-2.206-1.794-4-4-4s-4,1.794-4,4V20z"/>
	</g>
	<g>
		<path d="M12,21H3c-0.276,0-0.5-0.224-0.5-0.5V11c0-2.757,2.243-5,5-5s5,2.243,5,5v9.5C12.5,20.776,12.276,21,12,21z M3.5,20h8v-9
			c0-2.206-1.794-4-4-4s-4,1.794-4,4V20z"/>
	</g>
	<g>
		<path d="M19,11.758c-0.276,0-0.5-0.224-0.5-0.5V5c0-2.206-1.794-4-4-4s-4,1.794-4,4v2.259c0,0.276-0.224,0.5-0.5,0.5
			s-0.5-0.224-0.5-0.5V5c0-2.757,2.243-5,5-5s5,2.243,5,5v6.258C19.5,11.535,19.276,11.758,19,11.758z"/>
	</g>
	<g>
		<path d="M8,15c-0.869,0-1.5-0.42-1.5-1s0.631-1,1.5-1s1.5,0.42,1.5,1S8.869,15,8,15z"/>
	</g>
	<g>
		<path d="M17,19c-0.869,0-1.5-0.42-1.5-1s0.631-1,1.5-1s1.5,0.42,1.5,1S17.869,19,17,19z"/>
	</g>
	<g>
		<path d="M15,9c-0.869,0-1.5-0.42-1.5-1c0-0.58,0.631-1,1.5-1s1.5,0.42,1.5,1S15.869,9,15,9z"/>
	</g>
	<g>
		<path d="M15,16c-0.276,0-0.5-0.224-0.5-0.5v-1c0-0.276,0.224-0.5,0.5-0.5s0.5,0.224,0.5,0.5v1C15.5,15.776,15.276,16,15,16z"/>
	</g>
	<g>
		<path d="M10,12c-0.276,0-0.5-0.224-0.5-0.5v-1c0-0.276,0.224-0.5,0.5-0.5s0.5,0.224,0.5,0.5v1C10.5,11.776,10.276,12,10,12z"/>
	</g>
	<g>
		<path d="M13,6c-0.276,0-0.5-0.224-0.5-0.5v-1C12.5,4.224,12.724,4,13,4s0.5,0.224,0.5,0.5v1C13.5,5.776,13.276,6,13,6z"/>
	</g>
	<g>
		<path d="M17,6c-0.276,0-0.5-0.224-0.5-0.5v-1C16.5,4.224,16.724,4,17,4s0.5,0.224,0.5,0.5v1C17.5,5.776,17.276,6,17,6z"/>
	</g>
	<g>
		<path d="M6,12c-0.276,0-0.5-0.224-0.5-0.5v-1C5.5,10.224,5.724,10,6,10s0.5,0.224,0.5,0.5v1C6.5,11.776,6.276,12,6,12z"/>
	</g>
	<g>
		<path d="M19,16c-0.276,0-0.5-0.224-0.5-0.5v-1c0-0.276,0.224-0.5,0.5-0.5s0.5,0.224,0.5,0.5v1C19.5,15.776,19.276,16,19,16z"/>
	</g>
</g>
</svg>
