<?xml version="1.0" encoding="iso-8859-1"?>
<!-- Generator: Adobe Illustrator 19.0.0, SVG Export Plug-In . SVG Version: 6.00 Build 0)  -->
<svg version="1.1" id="Layer_1" xmlns="http://www.w3.org/2000/svg" xmlns:xlink="http://www.w3.org/1999/xlink" x="0px" y="0px"
	 viewBox="0 0 24 24" style="enable-background:new 0 0 24 24;" xml:space="preserve">
<g id="Eevee">
	<g>
		<path d="M10.5,24c-0.1,0-0.2-0.03-0.286-0.09C9.783,23.609,6,20.9,6,18.5C6,18.224,6.224,18,6.5,18S7,18.224,7,18.5
			c0,1.469,2.309,3.494,3.5,4.383c1.191-0.89,3.5-2.917,3.5-4.383c0-0.276,0.224-0.5,0.5-0.5s0.5,0.224,0.5,0.5
			c0,2.4-3.783,5.109-4.214,5.41C10.7,23.97,10.6,24,10.5,24z"/>
	</g>
	<g>
		<path d="M5.5,22c-0.112,0-0.224-0.038-0.313-0.111C5.056,21.785,2,19.296,2,17c0-2.553,1.911-4.689,4.445-4.97
			c0.284-0.03,0.522,0.167,0.552,0.442s-0.167,0.522-0.442,0.552C4.528,13.249,3,14.958,3,17c0,1.388,1.717,3.165,2.602,3.933
			c0.334-0.123,0.956-0.362,1.661-0.689c0.25-0.116,0.548-0.007,0.664,0.243c0.116,0.25,0.007,0.548-0.243,0.664
			c-1.102,0.512-1.987,0.811-2.024,0.823C5.607,21.991,5.553,22,5.5,22z"/>
	</g>
	<g>
		<path d="M15.5,22c-0.054,0-0.107-0.009-0.159-0.026c-0.037-0.013-0.923-0.312-2.024-0.823c-0.25-0.116-0.359-0.414-0.243-0.664
			c0.117-0.25,0.413-0.36,0.664-0.243c0.72,0.334,1.353,0.577,1.682,0.697C16.055,20.459,18,18.837,18,17
			c0-2.042-1.528-3.751-3.555-3.976c-0.274-0.03-0.472-0.278-0.442-0.552c0.031-0.274,0.274-0.47,0.552-0.442
			C17.089,12.311,19,14.447,19,17c0,2.721-3.09,4.827-3.221,4.915C15.695,21.971,15.598,22,15.5,22z"/>
	</g>
	<g>
		<path d="M10.5,16c-0.286,0-0.571-0.035-0.849-0.104l-1.757-0.44C6.779,15.178,6,14.18,6,13.031V8.5
			c0-0.363,0.076-0.713,0.226-1.04C6.341,7.21,6.639,7.1,6.889,7.214C7.14,7.329,7.25,7.626,7.135,7.877C7.045,8.072,7,8.282,7,8.5
			v4.531c0,0.689,0.467,1.288,1.136,1.456l1.757,0.439c0.396,0.099,0.816,0.099,1.213,0l1.757-0.439
			c0.669-0.167,1.136-0.766,1.136-1.456V8.5c0-0.276,0.224-0.5,0.5-0.5s0.5,0.224,0.5,0.5v4.531c0,1.149-0.779,2.147-1.894,2.425
			l-1.757,0.439C11.071,15.965,10.786,16,10.5,16z"/>
	</g>
	<g>
		<path d="M8.5,11C8.224,11,8,10.776,8,10.5v-1C8,9.224,8.224,9,8.5,9S9,9.224,9,9.5v1C9,10.776,8.776,11,8.5,11z"/>
	</g>
	<g>
		<path d="M12.5,11c-0.276,0-0.5-0.224-0.5-0.5v-1C12,9.224,12.224,9,12.5,9S13,9.224,13,9.5v1C13,10.776,12.776,11,12.5,11z"/>
	</g>
	<g>
		<path d="M6.681,8.169c-0.124,0-0.248-0.045-0.344-0.137c-3.256-3.088-4.281-7.24-4.323-7.415c-0.047-0.195,0.028-0.4,0.189-0.519
			c0.162-0.12,0.379-0.13,0.552-0.028c0.153,0.09,3.769,2.264,5.694,6.211c0.121,0.248,0.018,0.547-0.23,0.668
			c-0.247,0.123-0.548,0.019-0.668-0.23C6.427,4.416,4.638,2.732,3.452,1.791C4.007,3.225,5.11,5.49,7.025,7.306
			c0.2,0.19,0.208,0.506,0.019,0.707C6.945,8.117,6.813,8.169,6.681,8.169z"/>
	</g>
	<g>
		<path d="M14.5,9c-0.183,0-0.359-0.101-0.447-0.276c-0.124-0.247-0.024-0.547,0.223-0.671c3.171-1.591,4.965-2.979,5.906-3.853
			c-1.172,0.292-3.225,1.006-6.444,2.74c-0.244,0.13-0.546,0.04-0.678-0.203c-0.131-0.243-0.04-0.546,0.203-0.678
			c5.902-3.18,8.057-3.082,8.286-3.057c0.173,0.017,0.325,0.123,0.401,0.279s0.065,0.341-0.028,0.488
			c-0.06,0.094-1.535,2.336-7.197,5.178C14.652,8.983,14.576,9,14.5,9z"/>
	</g>
	<g>
		<path d="M12,7c-0.098,0-0.194-0.029-0.277-0.084L10.694,6.23l-0.247,0.494c-0.064,0.128-0.18,0.223-0.319,0.26
			C9.988,7.02,9.842,6.995,9.722,6.917L8.681,6.223L8.44,6.673C8.31,6.917,8.006,7.008,7.764,6.879
			C7.52,6.749,7.428,6.446,7.558,6.203l0.5-0.937c0.066-0.125,0.182-0.215,0.319-0.25C8.515,4.98,8.659,5.007,8.776,5.085
			l1.029,0.686l0.247-0.494c0.064-0.128,0.18-0.223,0.319-0.26c0.138-0.038,0.286-0.013,0.406,0.067l1.029,0.686l0.247-0.494
			c0.072-0.144,0.208-0.244,0.367-0.27c0.161-0.025,0.321,0.027,0.434,0.14l1,1c0.195,0.195,0.195,0.512,0,0.707
			s-0.512,0.195-0.707,0l-0.509-0.509l-0.19,0.379c-0.064,0.128-0.18,0.223-0.319,0.26C12.086,6.995,12.043,7,12,7z"/>
	</g>
	<g>
		<path d="M9.758,13.504c-0.306,0-0.739-0.13-1.162-0.71c-0.163-0.223-0.114-0.536,0.109-0.698s0.536-0.114,0.698,0.109
			c0.164,0.225,0.285,0.313,0.356,0.299c0.095-0.003,0.246-0.155,0.312-0.263c0.091-0.148,0.253-0.24,0.427-0.24h0.001
			c0.174,0,0.336,0.089,0.427,0.237c0.066,0.105,0.223,0.258,0.32,0.261c0.061,0.013,0.189-0.073,0.348-0.293
			c0.161-0.224,0.473-0.275,0.698-0.112c0.224,0.162,0.274,0.474,0.112,0.698c-0.436,0.604-0.888,0.715-1.197,0.706
			c-0.284-0.011-0.521-0.128-0.704-0.268c-0.18,0.14-0.414,0.258-0.696,0.272C9.792,13.504,9.775,13.504,9.758,13.504z"/>
	</g>
</g>
</svg>
