<?xml version="1.0" encoding="iso-8859-1"?>
<!-- Generator: Adobe Illustrator 19.0.0, SVG Export Plug-In . SVG Version: 6.00 Build 0)  -->
<svg version="1.1" id="Layer_1" xmlns="http://www.w3.org/2000/svg" xmlns:xlink="http://www.w3.org/1999/xlink" x="0px" y="0px"
	 viewBox="0 0 24 24" style="enable-background:new 0 0 24 24;" xml:space="preserve">
<g id="Gyarados">
	<g>
		<path d="M14.5,24.002h-5c-0.827,0-1.5-0.67-1.5-1.494c0-0.224,0.031-0.597,0.08-1.032c0.221-1.962,0.226-3.825,0.016-5.695
			C8.032,15.204,8,14.783,8,14.496c0-0.466,0.212-0.895,0.582-1.177c0.38-0.29,0.868-0.384,1.337-0.253
			c1.442,0.397,2.727,0.397,4.161,0.001l0,0c0.466-0.129,0.956-0.037,1.339,0.253C15.788,13.602,16,14.03,16,14.497
			c0,0.287-0.031,0.707-0.096,1.284c-0.21,1.87-0.205,3.733,0.016,5.696c0.049,0.434,0.08,0.807,0.08,1.031
			C16,23.332,15.327,24.002,14.5,24.002z M9.503,14.009c-0.114,0-0.224,0.036-0.315,0.105c-0.07,0.054-0.187,0.174-0.187,0.381
			c0,0.247,0.03,0.642,0.09,1.174c0.219,1.945,0.213,3.881-0.016,5.918c-0.045,0.388-0.074,0.721-0.074,0.92
			c0,0.272,0.225,0.494,0.5,0.494h5c0.275,0,0.5-0.222,0.5-0.494c0-0.199-0.029-0.532-0.074-0.918
			c-0.229-2.04-0.234-3.976-0.016-5.92c0.06-0.532,0.09-0.926,0.09-1.172c0-0.208-0.117-0.328-0.188-0.381
			c-0.13-0.099-0.298-0.13-0.467-0.085l0,0c-1.597,0.44-3.088,0.441-4.692-0.001C9.604,14.016,9.553,14.009,9.503,14.009z"/>
	</g>
	<g>
		<path d="M11.967,11.899c-0.523,0-1.034-0.148-1.676-0.443L0.76,6.215C0.291,5.957,0,5.465,0,4.93c0-0.487,0.241-0.941,0.645-1.215
			s0.916-0.329,1.367-0.147l8.09,3.236l0.904-5.878c0.092-0.543,0.496-0.921,0.983-0.927c0.438-0.008,0.881,0.276,1.002,0.909
			l0.907,5.896l8.09-3.236c0.45-0.181,0.962-0.126,1.367,0.147C23.758,3.988,24,4.443,24,4.93c0,0.535-0.291,1.027-0.76,1.285
			l-9.499,5.225C13.039,11.747,12.497,11.899,11.967,11.899z M1.466,4.462c-0.091,0-0.181,0.027-0.261,0.081
			C1.075,4.631,1,4.772,1,4.93C1,5.1,1.093,5.257,1.242,5.339l9.499,5.225c0.99,0.453,1.476,0.453,2.559-0.021l9.458-5.204
			C22.907,5.257,23,5.1,23,4.93c0-0.157-0.075-0.298-0.205-0.387c-0.133-0.088-0.29-0.106-0.436-0.047l-8.674,3.47
			c-0.142,0.056-0.302,0.045-0.434-0.03c-0.132-0.076-0.223-0.208-0.246-0.358l-1-6.5c-0.002-0.009-0.004-0.018-0.006-0.025
			c-0.003,0.01-0.005,0.021-0.007,0.033l-0.999,6.493c-0.023,0.15-0.114,0.282-0.246,0.358c-0.132,0.075-0.292,0.086-0.434,0.03
			l-8.674-3.47C1.583,4.474,1.524,4.462,1.466,4.462z"/>
	</g>
	<g>
		<path d="M17.5,12.002c-1.663,0-3.266-1.052-3.333-1.097c-0.23-0.153-0.293-0.462-0.141-0.692c0.152-0.231,0.463-0.293,0.693-0.141
			c0.014,0.009,1.423,0.931,2.78,0.931c0.297,0,0.368-0.106,0.399-0.152c0.266-0.397,0-1.533-0.264-2.175
			c-0.105-0.255,0.017-0.547,0.271-0.652c0.257-0.104,0.548,0.016,0.652,0.271c0.144,0.348,0.827,2.131,0.171,3.112
			C18.549,11.678,18.187,12.002,17.5,12.002z"/>
	</g>
	<g>
		<path d="M6.511,12.002c-0.688,0-1.049-0.324-1.23-0.597c-0.656-0.98,0.026-2.764,0.17-3.112c0.104-0.254,0.396-0.375,0.652-0.271
			C6.358,8.127,6.48,8.419,6.374,8.675c-0.263,0.642-0.529,1.777-0.263,2.175c0.03,0.045,0.103,0.152,0.399,0.152
			c1.357,0,2.767-0.921,2.78-0.931c0.229-0.151,0.54-0.09,0.693,0.141c0.152,0.23,0.09,0.54-0.141,0.692
			C9.776,10.95,8.174,12.002,6.511,12.002z"/>
	</g>
	<g>
		<path d="M10.5,16.002c-0.276,0-0.5-0.224-0.5-0.5v-1.786c0-0.276,0.224-0.5,0.5-0.5s0.5,0.224,0.5,0.5v1.786
			C11,15.778,10.776,16.002,10.5,16.002z"/>
	</g>
	<g>
		<path d="M13.5,16.002c-0.276,0-0.5-0.224-0.5-0.5v-1.786c0-0.276,0.224-0.5,0.5-0.5s0.5,0.224,0.5,0.5v1.786
			C14,15.778,13.776,16.002,13.5,16.002z"/>
	</g>
	<g>
		<path d="M10.5,24.002c-0.276,0-0.5-0.224-0.5-0.5v-2c0-0.276,0.224-0.5,0.5-0.5s0.5,0.224,0.5,0.5v2
			C11,23.778,10.776,24.002,10.5,24.002z"/>
	</g>
	<g>
		<path d="M13.5,24.002c-0.276,0-0.5-0.224-0.5-0.5v-2c0-0.276,0.224-0.5,0.5-0.5s0.5,0.224,0.5,0.5v2
			C14,23.778,13.776,24.002,13.5,24.002z"/>
	</g>
	<g>
		<path d="M17.895,6.201c-0.116,0-0.233-0.04-0.328-0.123c-1.335-1.159-2.969-1.863-4.724-2.036
			c-0.275-0.027-0.476-0.272-0.449-0.546c0.027-0.275,0.276-0.47,0.547-0.449c1.963,0.193,3.789,0.98,5.282,2.276
			c0.208,0.181,0.23,0.497,0.05,0.705C18.173,6.143,18.034,6.201,17.895,6.201z"/>
	</g>
	<g>
		<path d="M6.079,6.224c-0.139,0-0.277-0.058-0.377-0.171C5.52,5.845,5.542,5.529,5.75,5.347c1.498-1.309,3.333-2.104,5.307-2.299
			c0.27-0.021,0.519,0.174,0.547,0.448c0.026,0.275-0.174,0.52-0.449,0.547C9.39,4.217,7.749,4.928,6.409,6.1
			C6.313,6.183,6.196,6.224,6.079,6.224z"/>
	</g>
	<g>
		<path d="M15.358,21.143c-0.143,0-0.285-0.061-0.384-0.18c-0.177-0.212-0.148-0.527,0.063-0.704
			c1.613-1.347,4.242-1.901,4.685-1.987c0.17-0.084,0.277-0.256,0.277-0.448v-0.323c0-0.276-0.225-0.5-0.5-0.5h-0.354
			c-0.632,0-1.146-0.514-1.146-1.146c0-1.028,0.616-1.939,1.571-2.321l3.114-1.246c0.191-0.076,0.314-0.259,0.314-0.464v-0.602
			c0-0.215-0.138-0.406-0.342-0.475L20.34,9.975c-0.149-0.049-0.266-0.167-0.316-0.315c-0.103-0.308-0.458-1.203-0.859-1.638
			c-0.188-0.203-0.175-0.519,0.028-0.707c0.203-0.187,0.52-0.174,0.706,0.029c0.473,0.512,0.83,1.349,0.987,1.759l2.087,0.696
			c0.613,0.205,1.025,0.776,1.025,1.423v0.602c0,0.617-0.37,1.164-0.943,1.393l-3.114,1.246c-0.572,0.229-0.942,0.776-0.942,1.393
			c0,0.081,0.065,0.146,0.146,0.146h0.354c0.827,0,1.5,0.673,1.5,1.5v0.323c0,0.617-0.37,1.164-0.943,1.393
			c-0.031,0.012-0.063,0.022-0.097,0.028c-0.027,0.005-2.758,0.509-4.281,1.781C15.585,21.105,15.472,21.143,15.358,21.143z"/>
	</g>
	<g>
		<path d="M8.647,21.126c-0.113,0-0.227-0.038-0.32-0.116c-1.526-1.274-4.256-1.758-4.283-1.763
			c-0.034-0.006-0.068-0.016-0.101-0.028C3.37,18.99,3,18.443,3,17.826v-0.323c0-0.827,0.673-1.5,1.5-1.5h0.354
			c0.08,0,0.146-0.065,0.146-0.146c0-0.617-0.37-1.164-0.942-1.393l-3.114-1.246c-0.573-0.229-0.943-0.776-0.943-1.393v-0.602
			c0-0.646,0.412-1.218,1.025-1.423l2.087-0.696C3.27,8.694,3.628,7.857,4.1,7.345C4.288,7.142,4.604,7.13,4.806,7.316
			C5.009,7.504,5.022,7.82,4.834,8.023C4.431,8.461,4.077,9.353,3.975,9.66c-0.05,0.149-0.167,0.267-0.316,0.316l-2.316,0.772
			c-0.204,0.068-0.342,0.259-0.342,0.475v0.602c0,0.206,0.123,0.388,0.314,0.464l3.114,1.246C5.384,13.917,6,14.828,6,15.856
			c0,0.632-0.514,1.146-1.146,1.146H4.5c-0.275,0-0.5,0.224-0.5,0.5v0.323c0,0.192,0.107,0.363,0.276,0.447
			c0.449,0.084,3.079,0.624,4.691,1.97c0.212,0.177,0.24,0.492,0.063,0.704C8.933,21.064,8.79,21.126,8.647,21.126z"/>
	</g>
	<g>
		<path d="M12,19.502c-0.063,0-0.127-0.012-0.186-0.035c-0.012-0.005-1.175-0.458-3.05-0.458c-0.276,0-0.5-0.224-0.5-0.5
			s0.224-0.5,0.5-0.5c1.647,0,2.796,0.318,3.23,0.462c0.438-0.154,1.604-0.497,3.252-0.497c0.276,0,0.5,0.224,0.5,0.5
			s-0.224,0.5-0.5,0.5c-1.859,0-3.041,0.485-3.053,0.49C12.133,19.489,12.066,19.502,12,19.502z"/>
	</g>
	<g>
		<circle cx="7.5" cy="10.502" r="0.5"/>
	</g>
	<g>
		<circle cx="16.5" cy="10.502" r="0.5"/>
	</g>
</g>
</svg>
