<?xml version="1.0" encoding="iso-8859-1"?>
<!-- Generator: Adobe Illustrator 19.0.0, SVG Export Plug-In . SVG Version: 6.00 Build 0)  -->
<svg version="1.1" id="Layer_1" xmlns="http://www.w3.org/2000/svg" xmlns:xlink="http://www.w3.org/1999/xlink" x="0px" y="0px"
	 viewBox="0 0 24 24" style="enable-background:new 0 0 24 24;" xml:space="preserve">
<g id="Jigglypuff">
	<g>
		<path d="M12.001,22c-0.892,0-1.775-0.118-2.629-0.35c-0.267-0.072-0.424-0.347-0.352-0.614c0.072-0.265,0.346-0.423,0.613-0.351
			c1.535,0.417,3.195,0.418,4.723,0.003c0.271-0.073,0.541,0.085,0.613,0.352s-0.085,0.542-0.352,0.613
			C13.77,21.884,12.89,22,12.001,22z"/>
	</g>
	<g>
		<path d="M20.769,16.165c-0.064,0-0.13-0.012-0.193-0.039c-0.254-0.107-0.374-0.399-0.268-0.654c0.46-1.1,0.693-2.269,0.693-3.472
			c0-0.822-0.105-1.62-0.314-2.372c-0.074-0.266,0.081-0.542,0.348-0.616c0.271-0.072,0.541,0.083,0.615,0.348
			c0.233,0.84,0.351,1.727,0.351,2.64c0,1.337-0.26,2.635-0.771,3.858C21.149,16.05,20.964,16.165,20.769,16.165z"/>
	</g>
	<g>
		<path d="M7.001,15c-1.654,0-3-1.346-3-3s1.346-3,3-3s3,1.346,3,3S8.655,15,7.001,15z M7.001,10c-1.103,0-2,0.897-2,2s0.897,2,2,2
			s2-0.897,2-2S8.104,10,7.001,10z"/>
	</g>
	<g>
		<path d="M17.001,15c-1.654,0-3-1.346-3-3s1.346-3,3-3s3,1.346,3,3S18.655,15,17.001,15z M17.001,10c-1.103,0-2,0.897-2,2
			s0.897,2,2,2s2-0.897,2-2S18.104,10,17.001,10z"/>
	</g>
	<g>
		<path d="M12.001,10c-2.588,0-4-3.963-4-6c0-1.156,0.5-2.254,1.371-3.015c0.871-0.76,2.031-1.104,3.19-0.947
			c1.465,0.201,2.729,1.264,3.223,2.708c0.383,1.124,0.246,2.269-0.378,3.14c-0.271,0.378-0.613,0.678-0.981,0.871
			c0.063,0.264,0.075,0.523,0.075,0.743C14.501,8.878,13.38,10,12.001,10z M11.997,1c-0.727,0-1.413,0.255-1.967,0.739
			C9.376,2.309,9.001,3.133,9.001,4c0,1.756,1.237,5,3,5c0.827,0,1.5-0.673,1.5-1.5c0-0.204-0.014-0.366-0.045-0.5h-0.955
			c-0.275,0-0.5,0.224-0.5,0.5S11.777,8,11.501,8s-0.5-0.224-0.5-0.5c0-0.827,0.673-1.5,1.5-1.5h1c0.05,0,0.104-0.006,0.16-0.018
			c0.005-0.001,0.01-0.002,0.016-0.003c0.282-0.065,0.637-0.281,0.918-0.674c0.254-0.355,0.624-1.119,0.243-2.235
			c-0.371-1.089-1.317-1.89-2.411-2.04C12.282,1.009,12.139,1,11.997,1z"/>
	</g>
	<g>
		<circle cx="6.501" cy="11.5" r="1"/>
	</g>
	<g>
		<circle cx="16.501" cy="11.5" r="1"/>
	</g>
	<g>
		<path d="M3.069,7.296c-0.025,0-0.052-0.002-0.077-0.006c-0.203-0.032-0.365-0.184-0.41-0.384C2.361,5.93,2.192,4.813,2.095,3.677
			c-0.013-0.15,0.043-0.299,0.151-0.404c0.108-0.104,0.258-0.154,0.409-0.136C3.671,3.265,4.61,3.464,5.45,3.728
			c0.043,0.006,0.085,0.018,0.126,0.035C5.74,3.832,5.854,3.984,5.877,4.161C5.898,4.33,5.832,4.503,5.7,4.612
			C5.679,4.63,5.655,4.645,5.634,4.659C4.758,5.328,4.04,6.132,3.5,7.049C3.409,7.204,3.244,7.296,3.069,7.296z M3.153,4.22
			c0.05,0.446,0.109,0.885,0.18,1.308c0.3-0.38,0.631-0.739,0.992-1.073C3.951,4.364,3.558,4.285,3.153,4.22z"/>
	</g>
	<g>
		<path d="M20.878,7.296c-0.175,0-0.34-0.092-0.431-0.246c-0.537-0.912-1.249-1.711-2.117-2.377
			c-0.02-0.011-0.039-0.023-0.058-0.037c-0.13-0.094-0.206-0.244-0.206-0.404V4.224c0-0.189,0.107-0.363,0.276-0.447
			c0.05-0.025,0.103-0.041,0.155-0.048c0.838-0.264,1.777-0.463,2.794-0.591c0.148-0.018,0.301,0.031,0.409,0.136
			c0.108,0.105,0.164,0.253,0.151,0.404c-0.099,1.136-0.267,2.252-0.487,3.229c-0.045,0.2-0.207,0.353-0.41,0.384
			C20.93,7.294,20.903,7.296,20.878,7.296z M19.622,4.455c0.361,0.334,0.692,0.692,0.992,1.073c0.07-0.423,0.13-0.862,0.18-1.308
			C20.39,4.286,19.996,4.364,19.622,4.455z"/>
	</g>
	<g>
		<path d="M2.501,11.5c-0.171,0-0.339-0.088-0.432-0.248c-2.14-3.657-2.072-9.513-2.068-9.76C0.005,1.222,0.222,1.005,0.491,1
			c0.206,0.002,5.123-0.074,8.326,2.067c0.155,0.104,0.239,0.286,0.219,0.472C9.015,3.725,8.891,3.883,8.718,3.95
			C8.35,4.09,7.961,4.265,7.622,4.442C7.378,4.569,7.074,4.475,6.947,4.23C6.819,3.985,6.914,3.683,7.159,3.555
			c0.088-0.046,0.18-0.092,0.273-0.137C5.118,2.252,2.161,2.043,1.005,2.007c0.033,1.48,0.274,5.917,1.927,8.741
			c0.14,0.238,0.06,0.544-0.179,0.684C2.674,11.478,2.587,11.5,2.501,11.5z"/>
	</g>
	<g>
		<path d="M21.5,11.5c-0.086,0-0.173-0.022-0.253-0.068c-0.238-0.14-0.318-0.446-0.179-0.684c1.652-2.824,1.894-7.26,1.927-8.74
			c-1.156,0.037-4.11,0.248-6.424,1.412c0.104,0.05,0.204,0.101,0.302,0.151c0.244,0.128,0.339,0.43,0.21,0.675
			c-0.128,0.246-0.432,0.339-0.675,0.211c-0.341-0.179-0.74-0.358-1.123-0.504c-0.175-0.067-0.298-0.225-0.319-0.411
			s0.063-0.368,0.219-0.472C18.386,0.929,23.298,1.001,23.51,1c0.269,0.005,0.486,0.223,0.49,0.492
			c0.004,0.248,0.071,6.104-2.068,9.76C21.839,11.412,21.671,11.5,21.5,11.5z"/>
	</g>
	<g>
		<path d="M12.001,20c-1.313,0-2-2.264-2-4.5c0-0.276,0.224-0.5,0.5-0.5h3c0.276,0,0.5,0.224,0.5,0.5
			C14.001,17.736,13.314,20,12.001,20z M11.013,16c0.094,1.953,0.72,3,0.988,3s0.895-1.047,0.988-3H11.013z"/>
	</g>
	<g>
		<path d="M18.188,24c-0.478,0-0.986-0.048-1.5-0.146c-1.721-0.324-3.575-1.24-3.58-2.486c-0.001-0.277,0.241-0.499,0.5-0.502
			c0.275,0,0.499,0.223,0.5,0.498c0.001,0.354,0.927,1.162,2.766,1.508c0.842,0.159,1.684,0.169,2.313,0.03
			c0.527-0.117,0.795-0.319,0.821-0.457c0.026-0.143-0.147-0.422-0.599-0.725c-0.534-0.358-1.323-0.655-2.165-0.813
			c-0.231-0.044-0.459-0.076-0.68-0.097c-0.205-0.02-0.377-0.163-0.433-0.36c-0.064-0.223,0.033-0.465,0.236-0.578
			c0.786-0.437,1.502-0.99,2.13-1.643c0.191-0.2,0.508-0.204,0.707-0.015c0.199,0.191,0.205,0.508,0.014,0.707
			c-0.393,0.409-0.816,0.783-1.269,1.118c0.778,0.197,1.48,0.492,2.017,0.852c1.044,0.701,1.089,1.391,1.023,1.74
			s-0.359,0.976-1.587,1.248C19.037,23.959,18.626,24,18.188,24z"/>
	</g>
	<g>
		<path d="M21.485,19.368c-0.782,0-1.796-0.097-3.091-0.38c-0.27-0.059-0.44-0.325-0.382-0.595s0.324-0.443,0.595-0.382
			c2.242,0.488,3.516,0.374,4.138,0.232c-0.411-0.582-1.232-1.565-2.498-2.313c-0.238-0.141-0.317-0.447-0.177-0.685
			c0.142-0.238,0.45-0.315,0.685-0.176c2.16,1.276,3.147,3.12,3.188,3.198c0.118,0.224,0.05,0.501-0.159,0.645
			C23.69,18.977,23.056,19.368,21.485,19.368z"/>
	</g>
	<g>
		<path d="M5.822,24c-0.437,0-0.848-0.041-1.215-0.122c-1.227-0.272-1.521-0.899-1.586-1.248C2.956,22.28,3,21.59,4.044,20.89
			c0.532-0.357,1.23-0.652,2.004-0.849c-0.451-0.334-0.874-0.707-1.266-1.115c-0.191-0.199-0.186-0.516,0.014-0.707
			c0.2-0.189,0.517-0.185,0.707,0.015c0.612,0.637,1.31,1.179,2.074,1.611c0.164,0.063,0.289,0.211,0.315,0.396
			c0.037,0.265-0.14,0.512-0.403,0.562c-0.017,0.003-0.033,0.006-0.05,0.007c-0.219,0.021-0.444,0.053-0.673,0.096
			c-0.843,0.158-1.631,0.455-2.165,0.813c-0.451,0.303-0.625,0.582-0.599,0.725c0.026,0.138,0.294,0.339,0.821,0.457
			c0.626,0.139,1.471,0.128,2.312-0.03c1.839-0.346,2.765-1.153,2.766-1.508c0.001-0.275,0.225-0.498,0.5-0.498
			c0.001,0,0.001,0,0.002,0c0.276,0.001,0.499,0.226,0.498,0.502c-0.005,1.246-1.859,2.163-3.58,2.486C6.809,23.952,6.3,24,5.822,24
			z"/>
	</g>
	<g>
		<path d="M3.233,16.17c-0.195,0-0.381-0.115-0.461-0.307c-0.512-1.224-0.771-2.521-0.771-3.858c0-0.913,0.118-1.8,0.352-2.639
			C2.427,9.1,2.698,8.945,2.968,9.018c0.267,0.074,0.422,0.35,0.348,0.616c-0.209,0.751-0.314,1.55-0.314,2.372
			c0,1.203,0.233,2.372,0.693,3.472c0.106,0.255-0.014,0.548-0.268,0.654C3.363,16.158,3.298,16.17,3.233,16.17z"/>
	</g>
	<g>
		<path d="M2.517,19.374c-1.57,0-2.205-0.391-2.299-0.457c-0.209-0.144-0.277-0.42-0.159-0.645c0.041-0.078,1.028-1.921,3.188-3.198
			c0.234-0.141,0.543-0.062,0.685,0.176c0.141,0.238,0.062,0.544-0.177,0.685c-1.274,0.753-2.092,1.735-2.501,2.314
			c0.616,0.141,1.892,0.257,4.141-0.233c0.273-0.063,0.536,0.112,0.595,0.382s-0.112,0.536-0.382,0.595
			C4.313,19.276,3.299,19.374,2.517,19.374z"/>
	</g>
</g>
</svg>
