<?xml version="1.0" encoding="iso-8859-1"?>
<!-- Generator: Adobe Illustrator 19.0.0, SVG Export Plug-In . SVG Version: 6.00 Build 0)  -->
<svg version="1.1" id="Layer_1" xmlns="http://www.w3.org/2000/svg" xmlns:xlink="http://www.w3.org/1999/xlink" x="0px" y="0px"
	 viewBox="0 0 24 24" style="enable-background:new 0 0 24 24;" xml:space="preserve">
<g id="Mewtwo">
	<g>
		<path d="M6.865,4.887c-0.143,0-0.284-0.06-0.382-0.177C6.305,4.499,6.331,4.182,6.542,4.005C8.074,2.712,10.012,2,12,2
			s3.926,0.712,5.458,2.004c0.211,0.178,0.238,0.494,0.06,0.705c-0.179,0.21-0.494,0.238-0.705,0.06
			C15.461,3.627,13.752,2.999,12,2.999S8.538,3.627,7.187,4.768C7.093,4.849,6.979,4.887,6.865,4.887z"/>
	</g>
	<g>
		<path d="M9.001,22c-0.184,0-0.36-0.101-0.448-0.276l-1.5-3c-0.124-0.247-0.023-0.547,0.224-0.671
			c0.247-0.123,0.547-0.023,0.671,0.224l1.5,3c0.124,0.247,0.023,0.547-0.224,0.671C9.152,21.983,9.076,22,9.001,22z"/>
	</g>
	<g>
		<path d="M15,22c-0.075,0-0.151-0.017-0.223-0.053c-0.247-0.124-0.347-0.424-0.224-0.671l1.5-3
			c0.124-0.247,0.424-0.346,0.671-0.224c0.247,0.124,0.347,0.424,0.224,0.671l-1.5,3C15.359,21.899,15.183,22,15,22z"/>
	</g>
	<g>
		<path d="M10,15H7c-0.214,0-0.405-0.137-0.474-0.339c-0.027-0.081-0.651-1.964-0.03-3.739L5.609,9.813
			C5.437,9.597,5.472,9.283,5.687,9.11c0.216-0.172,0.53-0.137,0.703,0.078l4,5c0.12,0.15,0.143,0.356,0.06,0.529
			C10.367,14.89,10.192,15,10,15z M7.382,14h1.577l-1.68-2.101C7.145,12.742,7.28,13.558,7.382,14z"/>
	</g>
	<g>
		<path d="M17,15h-3c-0.192,0-0.367-0.11-0.451-0.283c-0.083-0.173-0.06-0.379,0.06-0.529l4-5c0.173-0.214,0.487-0.25,0.703-0.078
			c0.215,0.173,0.25,0.487,0.078,0.703l-0.886,1.108c0.622,1.775-0.002,3.658-0.03,3.739C17.405,14.863,17.214,15,17,15z M15.041,14
			h1.577c0.103-0.442,0.237-1.258,0.103-2.101L15.041,14z"/>
	</g>
	<g>
		<path d="M14,15c-0.827,0-1.5-0.673-1.5-1.5v-2c0-0.276,0.224-0.5,0.5-0.5s0.5,0.224,0.5,0.5v2c0,0.276,0.224,0.5,0.5,0.5
			s0.5,0.224,0.5,0.5S14.276,15,14,15z"/>
	</g>
	<g>
		<path d="M10,15c-0.276,0-0.5-0.224-0.5-0.5S9.724,14,10,14s0.5-0.224,0.5-0.5v-2c0-0.276,0.224-0.5,0.5-0.5s0.5,0.224,0.5,0.5v2
			C11.5,14.327,10.827,15,10,15z"/>
	</g>
	<g>
		<circle cx="11" cy="21.5" r="0.5"/>
	</g>
	<g>
		<circle cx="13" cy="21.5" r="0.5"/>
	</g>
	<g>
		<path d="M13.382,24h-2.764c-0.572,0-1.086-0.318-1.342-0.829l-0.674-1.349l-3.539-2.831c-0.019-0.006-1.751-1.069-1.551-2.771
			c0.334-2.846,0.205-3.737,0.091-4.523C3.55,11.332,3.5,10.987,3.5,10.5c0-1.116,0.175-2.201,0.493-3.072L3.501,1.039
			C3.482,0.795,3.642,0.575,3.878,0.516l2-0.5c0.131-0.033,0.27-0.011,0.384,0.06C6.377,0.147,6.458,0.26,6.488,0.392l1,4.5
			c0.06,0.27-0.11,0.537-0.38,0.597c-0.266,0.059-0.537-0.11-0.597-0.38L5.622,1.11L4.53,1.383l0.468,6.079
			c0.006,0.075-0.005,0.149-0.032,0.219C4.67,8.446,4.5,9.473,4.5,10.5c0,0.415,0.043,0.71,0.093,1.054
			c0.117,0.805,0.263,1.807-0.087,4.784c-0.124,1.05,1.116,1.827,1.128,1.834l3.679,2.937c0.056,0.045,0.103,0.103,0.135,0.167
			l0.724,1.447c0.085,0.17,0.256,0.276,0.447,0.276h2.764c0.19,0,0.362-0.106,0.447-0.276l0.724-1.447
			c0.032-0.064,0.079-0.122,0.135-0.167l3.625-2.899c0.066-0.045,1.307-0.815,1.183-1.872c-0.351-2.977-0.205-3.979-0.088-4.785
			c0.05-0.343,0.093-0.639,0.093-1.053c0-1.021-0.17-2.049-0.467-2.82c-0.026-0.069-0.038-0.144-0.032-0.218l0.468-6.079
			L18.379,1.11L17.49,5.109c-0.06,0.27-0.327,0.44-0.597,0.38c-0.27-0.06-0.439-0.327-0.38-0.597l1-4.5
			c0.029-0.132,0.111-0.246,0.226-0.317s0.253-0.093,0.384-0.06l2,0.5c0.237,0.059,0.396,0.28,0.377,0.523l-0.492,6.39
			c0.314,0.866,0.493,1.978,0.493,3.071c0,0.486-0.05,0.832-0.103,1.197c-0.114,0.787-0.244,1.678,0.091,4.524
			c0.2,1.701-1.532,2.764-1.606,2.808l-3.484,2.793l-0.675,1.349C14.468,23.682,13.954,24,13.382,24z"/>
	</g>
</g>
</svg>
