<?xml version="1.0" encoding="iso-8859-1"?>
<!-- Generator: Adobe Illustrator 19.0.0, SVG Export Plug-In . SVG Version: 6.00 Build 0)  -->
<svg version="1.1" id="Layer_1" xmlns="http://www.w3.org/2000/svg" xmlns:xlink="http://www.w3.org/1999/xlink" x="0px" y="0px"
	 viewBox="0 0 24 24" style="enable-background:new 0 0 24 24;" xml:space="preserve">
<g id="Meowth">
	<g>
		<path d="M21.322,16.548c-0.037,0-0.075-0.004-0.113-0.013c-0.269-0.063-0.437-0.331-0.374-0.6C20.944,15.463,21,14.98,21,14.499
			c0-3.083-2.221-5.817-5.657-6.965c-0.262-0.087-0.403-0.371-0.316-0.632C15.116,6.64,15.4,6.501,15.66,6.586
			c3.852,1.286,6.341,4.393,6.341,7.913c0,0.557-0.064,1.116-0.19,1.661C21.756,16.392,21.55,16.548,21.322,16.548z"/>
	</g>
	<g>
		<path d="M7.5,16c-1.256,0-3.021-1.796-3.363-2.156c-0.183-0.193-0.183-0.495,0-0.688C4.479,12.796,6.244,11,7.5,11
			c1.256,0,3.021,1.796,3.363,2.156c0.183,0.193,0.183,0.495,0,0.688C10.522,14.204,8.756,16,7.5,16z M5.206,13.5
			C5.947,14.208,6.976,15,7.5,15c0.525,0,1.554-0.792,2.294-1.5C9.053,12.792,8.024,12,7.5,12C6.975,12,5.946,12.792,5.206,13.5z"/>
	</g>
	<g>
		<path d="M16.5,16c-1.256,0-3.021-1.796-3.363-2.156c-0.183-0.193-0.183-0.495,0-0.688C13.479,12.796,15.244,11,16.5,11
			s3.021,1.796,3.363,2.156c0.183,0.193,0.183,0.495,0,0.688C19.522,14.204,17.756,16,16.5,16z M14.206,13.5
			c0.741,0.708,1.77,1.5,2.294,1.5c0.525,0,1.554-0.792,2.294-1.5c-0.741-0.708-1.77-1.5-2.294-1.5
			C15.975,12,14.946,12.792,14.206,13.5z"/>
	</g>
	<g>
		<path d="M17,19c-0.869,0-4.23-0.8-5-0.985C11.229,18.201,7.858,19,7,19c-0.168,0-0.681,0-0.988-1.392
			c-0.06-0.27,0.11-0.536,0.38-0.596c0.279-0.062,0.537,0.111,0.597,0.38c0.048,0.215,0.127,0.457,0.191,0.597
			c0.835-0.081,3.199-0.61,4.702-0.975c0.078-0.019,0.158-0.019,0.236,0c1.5,0.365,3.862,0.895,4.702,0.976
			c0.064-0.14,0.144-0.383,0.191-0.598c0.06-0.269,0.318-0.442,0.597-0.38c0.27,0.06,0.439,0.326,0.38,0.596
			C17.681,19,17.168,19,17,19z"/>
	</g>
	<g>
		<path d="M7.5,16C7.224,16,7,15.776,7,15.5v-2C7,13.224,7.224,13,7.5,13S8,13.224,8,13.5v2C8,15.776,7.776,16,7.5,16z"/>
	</g>
	<g>
		<path d="M16.5,16c-0.276,0-0.5-0.224-0.5-0.5v-2c0-0.276,0.224-0.5,0.5-0.5s0.5,0.224,0.5,0.5v2C17,15.776,16.776,16,16.5,16z"/>
	</g>
	<g>
		<path d="M9.5,21c-0.189,0-0.362-0.107-0.447-0.277L7.954,18.52c-0.123-0.247-0.023-0.547,0.224-0.67
			c0.249-0.125,0.548-0.023,0.671,0.224l0.603,1.208l0.657-1.634c0.103-0.257,0.394-0.379,0.65-0.277
			c0.256,0.103,0.381,0.394,0.277,0.65l-1.072,2.666C9.891,20.87,9.717,20.992,9.521,21C9.514,21,9.507,21,9.5,21z"/>
	</g>
	<g>
		<path d="M14.5,21c-0.007,0-0.015,0-0.022,0c-0.196-0.009-0.37-0.132-0.442-0.315l-1.055-2.661
			c-0.102-0.256,0.023-0.547,0.28-0.649c0.256-0.102,0.547,0.024,0.649,0.281l0.644,1.624l0.604-1.204
			c0.124-0.249,0.426-0.346,0.672-0.222c0.247,0.124,0.346,0.424,0.223,0.671l-1.105,2.201C14.861,20.894,14.688,21,14.5,21z"/>
	</g>
	<g>
		<path d="M12.5,10h-1C10.673,10,10,9.327,10,8.5v-6C10,1.673,10.673,1,11.5,1h1C13.327,1,14,1.673,14,2.5v6
			C14,9.327,13.327,10,12.5,10z M11.5,2C11.225,2,11,2.224,11,2.5v6C11,8.776,11.225,9,11.5,9h1C12.775,9,13,8.776,13,8.5v-6
			C13,2.224,12.775,2,12.5,2H11.5z"/>
	</g>
	<g>
		<path d="M8.5,8C8.224,8,8,7.776,8,7.5v-4c0-0.22,0.145-0.415,0.355-0.479C8.569,2.958,8.793,3.04,8.916,3.222l2,3
			c0.153,0.23,0.091,0.54-0.139,0.693c-0.229,0.152-0.54,0.091-0.693-0.139L9,5.15v2.349C9,7.776,8.776,8,8.5,8z"/>
	</g>
	<g>
		<path d="M15.5,8C15.224,8,15,7.776,15,7.5V5.151l-1.084,1.626c-0.154,0.23-0.466,0.291-0.693,0.139
			c-0.229-0.153-0.292-0.463-0.139-0.693l2-3c0.122-0.183,0.347-0.266,0.561-0.201C15.856,3.086,16,3.28,16,3.501v4
			C16,7.776,15.776,8,15.5,8z"/>
	</g>
	<g>
		<path d="M13.5,8h-3C10.224,8,10,7.776,10,7.5S10.224,7,10.5,7h3C13.776,7,14,7.224,14,7.5S13.776,8,13.5,8z"/>
	</g>
	<g>
		<path d="M13.5,6h-3C10.224,6,10,5.776,10,5.5S10.224,5,10.5,5h3C13.776,5,14,5.224,14,5.5S13.776,6,13.5,6z"/>
	</g>
	<g>
		<path d="M13.5,4h-3C10.224,4,10,3.776,10,3.5S10.224,3,10.5,3h3C13.776,3,14,3.224,14,3.5S13.776,4,13.5,4z"/>
	</g>
	<g>
		<path d="M3.49,11.432c-0.205,0-0.396-0.126-0.471-0.33C2.475,9.593,2.224,7.91,2.11,6.764C2.094,6.608,2.152,6.453,2.267,6.347
			s0.271-0.154,0.428-0.125C3.848,6.428,5.456,6.857,6.566,7.73C6.783,7.901,6.82,8.215,6.649,8.432
			C6.478,8.65,6.165,8.686,5.947,8.516C5.189,7.919,4.115,7.558,3.182,7.342c0.132,1.017,0.365,2.278,0.778,3.42
			c0.094,0.26-0.041,0.546-0.301,0.64C3.604,11.423,3.547,11.432,3.49,11.432z"/>
	</g>
	<g>
		<path d="M20.52,11.432c-0.057,0-0.113-0.009-0.17-0.03c-0.26-0.093-0.395-0.38-0.301-0.64c0.412-1.143,0.646-2.404,0.777-3.42
			c-0.933,0.216-2.007,0.578-2.765,1.174c-0.217,0.169-0.531,0.133-0.702-0.084s-0.134-0.531,0.083-0.702
			c1.11-0.873,2.718-1.302,3.871-1.508c0.153-0.028,0.312,0.019,0.428,0.125c0.115,0.106,0.173,0.261,0.157,0.417
			c-0.114,1.146-0.364,2.828-0.908,4.337C20.916,11.306,20.725,11.432,20.52,11.432z"/>
	</g>
	<g>
		<path d="M2.5,14c-0.167,0-0.331-0.084-0.426-0.238C-0.087,10.256-0.005,4.724,0,4.49C0.006,4.218,0.228,4,0.5,4
			c0.213,0,5.237,0.03,7.854,2.646l0.172,0.162c0.201,0.189,0.21,0.506,0.021,0.707c-0.188,0.2-0.507,0.209-0.706,0.021L7.658,7.364
			C5.771,5.478,2.301,5.097,1.006,5.02c0.033,1.431,0.277,5.551,1.921,8.218c0.145,0.235,0.071,0.543-0.163,0.688
			C2.681,13.976,2.59,14,2.5,14z"/>
	</g>
	<g>
		<path d="M21.5,14c-0.09,0-0.181-0.024-0.263-0.074c-0.234-0.145-0.308-0.453-0.163-0.688c1.644-2.667,1.888-6.787,1.921-8.218
			c-1.296,0.078-4.768,0.46-6.642,2.333l-0.198,0.184c-0.201,0.188-0.518,0.177-0.706-0.026s-0.177-0.519,0.026-0.707l0.185-0.171
			c2.603-2.604,7.627-2.634,7.84-2.634c0.272,0,0.494,0.218,0.5,0.49c0.005,0.234,0.087,5.766-2.074,9.272
			C21.831,13.916,21.667,14,21.5,14z"/>
	</g>
	<g>
		<path d="M19.844,19.515c-0.111,0-0.223-0.037-0.315-0.112c-0.214-0.174-0.247-0.489-0.072-0.704
			c0.36-0.444,0.665-0.921,0.903-1.417c0.083-0.173,0.258-0.283,0.45-0.283h1.039l-1.626-1.084
			c-0.229-0.153-0.292-0.463-0.139-0.693c0.154-0.23,0.466-0.291,0.693-0.139l3,2c0.184,0.122,0.265,0.35,0.201,0.561
			S23.721,18,23.5,18h-2.383c-0.247,0.464-0.544,0.91-0.886,1.331C20.133,19.452,19.989,19.515,19.844,19.515z"/>
	</g>
	<g>
		<path d="M2.678,16.548c-0.228,0-0.434-0.156-0.487-0.387c-0.126-0.545-0.19-1.104-0.19-1.661c0-3.521,2.489-6.627,6.341-7.913
			c0.263-0.086,0.545,0.054,0.633,0.316C9.062,7.165,8.92,7.448,8.659,7.535C5.222,8.683,3.002,11.417,3.002,14.5
			c0,0.481,0.056,0.964,0.165,1.436c0.063,0.269-0.105,0.538-0.374,0.6C2.753,16.544,2.715,16.548,2.678,16.548z"/>
	</g>
	<g>
		<path d="M4.156,19.515c-0.146,0-0.289-0.063-0.388-0.185c-0.342-0.42-0.639-0.867-0.886-1.331H0.499
			c-0.221,0-0.415-0.144-0.479-0.355s0.018-0.439,0.201-0.561l3-2c0.228-0.152,0.539-0.092,0.693,0.139
			c0.153,0.23,0.091,0.54-0.139,0.693L2.151,17H3.19c0.192,0,0.367,0.11,0.45,0.283c0.238,0.496,0.543,0.972,0.903,1.417
			c0.175,0.214,0.142,0.529-0.072,0.704C4.379,19.479,4.268,19.515,4.156,19.515z"/>
	</g>
	<g>
		<path d="M12,23c-2.362,0-4.636-0.706-6.435-1.991l-2.908,0.966c-0.201,0.066-0.425-0.001-0.555-0.171s-0.137-0.403-0.019-0.581
			l2-3c0.154-0.23,0.465-0.291,0.693-0.139c0.229,0.153,0.292,0.463,0.139,0.693l-1.193,1.79l1.773-0.589
			c0.153-0.052,0.328-0.024,0.459,0.076C7.612,21.309,9.759,22,11.999,22s4.387-0.691,6.045-1.946
			c0.131-0.1,0.304-0.129,0.459-0.076l1.773,0.589l-1.193-1.79c-0.153-0.23-0.091-0.54,0.139-0.693
			c0.228-0.153,0.539-0.092,0.693,0.139l2,3c0.118,0.178,0.111,0.411-0.019,0.581s-0.354,0.237-0.555,0.171l-2.908-0.966
			C16.636,22.294,14.362,23,12,23z"/>
	</g>
</g>
</svg>
