<?xml version="1.0" encoding="iso-8859-1"?>
<!-- Generator: Adobe Illustrator 19.0.0, SVG Export Plug-In . SVG Version: 6.00 Build 0)  -->
<svg version="1.1" id="Layer_1" xmlns="http://www.w3.org/2000/svg" xmlns:xlink="http://www.w3.org/1999/xlink" x="0px" y="0px"
	 viewBox="0 0 24 24" style="enable-background:new 0 0 24 24;" xml:space="preserve">
<g id="Open_Pokeball">
	<g>
		<path d="M6.508,12.955c-1.359,0-2.364-0.206-3.008-0.618c-0.449-0.288-0.729-0.671-0.83-1.139
			C2.459,10.224,3.295,9.146,5.089,8.08c1.655-0.984,3.901-1.814,6.322-2.339c0.865-0.187,1.692-0.334,2.459-0.436
			c0.273-0.036,0.525,0.156,0.562,0.43c0.037,0.273-0.156,0.525-0.43,0.562c-0.73,0.097-1.552,0.243-2.379,0.422
			C9.304,7.221,7.165,8.01,5.6,8.94c-1.466,0.872-2.038,1.656-1.953,2.046c0.043,0.201,0.171,0.368,0.392,0.508
			c0.66,0.423,2.645,0.935,8.533-0.377c5.209-1.16,8.135-3.132,7.939-4.035c-0.094-0.437-0.954-0.924-3.083-0.983
			c-0.276-0.008-0.493-0.238-0.486-0.514c0.008-0.276,0.249-0.491,0.514-0.486c3.034,0.085,3.867,1.01,4.032,1.771
			c0.466,2.154-4.183,4.218-8.699,5.224C10.212,12.667,8.113,12.955,6.508,12.955z"/>
	</g>
	<g>
		<path d="M3.139,11.492c-0.233,0-0.441-0.164-0.49-0.401C1.664,6.23,5.212,1.236,10.397,0.185c4.932-1,9.793,1.896,11.067,6.592
			c0.072,0.267-0.085,0.541-0.352,0.613c-0.266,0.075-0.541-0.085-0.613-0.352c-1.137-4.188-5.484-6.77-9.904-5.873
			c-4.653,0.942-7.843,5.397-6.966,9.727c0.055,0.271-0.12,0.534-0.391,0.589C3.205,11.489,3.171,11.492,3.139,11.492z"/>
	</g>
	<g>
		<path d="M12.439,24.012c-0.405,0-0.813-0.025-1.224-0.078c-5.097-0.65-9.023-5.232-8.753-10.212
			c0.015-0.276,0.251-0.499,0.527-0.472c0.275,0.015,0.487,0.25,0.472,0.526c-0.242,4.468,3.293,8.58,7.881,9.166
			c3.935,0.5,7.711-1.748,9.175-5.473c0.102-0.257,0.393-0.381,0.648-0.282c0.257,0.101,0.383,0.391,0.282,0.648
			C19.968,21.599,16.371,24.012,12.439,24.012z"/>
	</g>
	<g>
		<path d="M15.774,7.988c-1.034,0-2.005-0.784-2.295-1.937c-0.16-0.636-0.092-1.292,0.192-1.846
			c0.295-0.577,0.785-0.978,1.381-1.127c1.205-0.3,2.456,0.539,2.792,1.875l0,0c0.336,1.337-0.37,2.67-1.573,2.973
			C16.106,7.968,15.939,7.988,15.774,7.988z M15.553,4.016c-0.085,0-0.171,0.01-0.257,0.032c-0.312,0.078-0.572,0.296-0.734,0.612
			c-0.173,0.339-0.213,0.747-0.112,1.147c0.202,0.802,0.909,1.317,1.578,1.15c0.668-0.168,1.048-0.957,0.847-1.76
			C16.698,4.498,16.137,4.016,15.553,4.016z"/>
	</g>
	<g>
		<path d="M15.548,21.108c-0.165,0-0.331-0.02-0.496-0.062c-0.836-0.21-1.456-0.943-1.611-1.853
			c-0.687-0.101-1.368-0.224-2.03-0.367c-4.665-1.01-9.376-3.218-8.922-5.32c0.576-2.659,10.176-1.055,10.276-1.037l0,0
			c3.559,0.606,7.437,2.408,8.469,3.935c0.273,0.405,0.371,0.801,0.29,1.177c-0.23,1.062-1.628,1.75-3.769,1.873
			C17.389,20.451,16.495,21.108,15.548,21.108z M7.198,12.973c-2.151,0-3.632,0.286-3.731,0.746
			c-0.195,0.899,2.959,3.005,8.156,4.131c0.764,0.166,1.553,0.303,2.347,0.409c0.248,0.033,0.433,0.244,0.434,0.494
			c0.002,0.648,0.369,1.192,0.892,1.324c0.665,0.17,1.376-0.348,1.578-1.15c0.046-0.228,0.251-0.45,0.484-0.457
			c2.039-0.052,3.082-0.607,3.188-1.1c0.021-0.096-0.029-0.239-0.141-0.405c-0.786-1.163-4.292-2.91-7.809-3.51l0,0
			C10.628,13.12,8.741,12.973,7.198,12.973z"/>
	</g>
</g>
</svg>
