<?xml version="1.0" encoding="iso-8859-1"?>
<!-- Generator: Adobe Illustrator 19.0.0, SVG Export Plug-In . SVG Version: 6.00 Build 0)  -->
<svg version="1.1" id="Layer_1" xmlns="http://www.w3.org/2000/svg" xmlns:xlink="http://www.w3.org/1999/xlink" x="0px" y="0px"
	 viewBox="0 0 24 24" style="enable-background:new 0 0 24 24;" xml:space="preserve">
<g id="Pidgey">
	<g>
		<path d="M11.999,24h-7c-0.237,0-0.442-0.167-0.49-0.4c-1.233-6.028-1.146-7.634-1.023-9.856l0.015-0.271
			C3.597,11.691,4.308,9.97,5.74,8.055c0.167-0.222,0.48-0.266,0.7-0.101c0.221,0.166,0.266,0.479,0.101,0.7
			c-1.309,1.75-1.957,3.298-2.042,4.874l-0.015,0.271c-0.114,2.099-0.198,3.628,0.924,9.202H12c0.276,0,0.5,0.224,0.5,0.5
			S12.275,24,11.999,24z"/>
	</g>
	<g>
		<path d="M7.51,7.156c-0.119,0-0.238-0.042-0.333-0.127c-0.206-0.184-0.224-0.5-0.04-0.706c0.269-0.299,0.544-0.601,0.82-0.904
			c1.555-1.704,3.163-3.465,3.557-5.04c0.066-0.268,0.34-0.431,0.606-0.364c0.269,0.067,0.431,0.338,0.364,0.606
			c-0.455,1.82-2.15,3.676-3.789,5.472c-0.274,0.3-0.547,0.599-0.813,0.896C7.784,7.1,7.646,7.156,7.51,7.156z"/>
	</g>
	<g>
		<path d="M18.999,24h-7c-0.276,0-0.5-0.224-0.5-0.5s0.224-0.5,0.5-0.5h6.592c1.122-5.574,1.038-7.103,0.924-9.202L19.5,13.527
			c-0.085-1.575-0.734-3.123-2.044-4.872c-0.165-0.221-0.12-0.535,0.101-0.7c0.221-0.165,0.533-0.121,0.7,0.101
			c1.434,1.915,2.146,3.636,2.241,5.417l0.015,0.271c0.122,2.223,0.21,3.829-1.023,9.856C19.441,23.833,19.236,24,18.999,24z"/>
	</g>
	<g>
		<path d="M16.488,7.156c-0.137,0-0.273-0.056-0.373-0.167c-0.267-0.299-0.541-0.599-0.817-0.9
			c-1.639-1.793-3.334-3.647-3.784-5.469c-0.066-0.268,0.098-0.539,0.365-0.605s0.538,0.098,0.605,0.365
			c0.39,1.574,1.997,3.333,3.552,5.034c0.278,0.304,0.555,0.607,0.825,0.908c0.184,0.206,0.166,0.522-0.04,0.706
			C16.727,7.114,16.607,7.156,16.488,7.156z"/>
	</g>
	<g>
		<path d="M11.999,19c-0.041,0-0.081-0.005-0.121-0.015l-4-1c-0.175-0.043-0.313-0.178-0.36-0.352
			c-0.049-0.173,0.001-0.359,0.128-0.487l3.293-3.293c0.566-0.566,1.555-0.566,2.121,0l3.293,3.293
			c0.127,0.127,0.177,0.313,0.128,0.487c-0.048,0.174-0.186,0.308-0.36,0.352l-4,1C12.08,18.995,12.04,19,11.999,19z M8.977,17.229
			l3.022,0.755l3.022-0.755l-2.669-2.668c-0.195-0.195-0.512-0.195-0.707,0L8.977,17.229z"/>
	</g>
	<g>
		<path d="M11.999,20.748c-0.317,0-0.635-0.1-0.9-0.298L7.7,17.9c-0.221-0.166-0.266-0.479-0.101-0.7
			c0.167-0.221,0.48-0.264,0.7-0.1l3.4,2.55c0.178,0.133,0.423,0.133,0.599,0l3.401-2.55c0.22-0.165,0.533-0.122,0.7,0.1
			c0.165,0.221,0.12,0.534-0.101,0.7l-3.4,2.55C12.634,20.649,12.316,20.748,11.999,20.748z"/>
	</g>
	<g>
		<path d="M4.323,20.364c-0.193,0-0.378-0.113-0.459-0.302c-0.109-0.253,0.008-0.548,0.261-0.657
			c2.537-1.092,3.478-2.209,3.486-2.221c0.177-0.213,0.49-0.244,0.703-0.07s0.246,0.486,0.074,0.7
			c-0.043,0.053-1.075,1.307-3.867,2.509C4.457,20.351,4.39,20.364,4.323,20.364z"/>
	</g>
	<g>
		<path d="M19.678,20.365c-0.066,0-0.133-0.013-0.197-0.041c-2.795-1.203-3.828-2.458-3.871-2.511
			c-0.173-0.215-0.14-0.53,0.076-0.703c0.212-0.172,0.527-0.141,0.701,0.073c0.015,0.018,0.958,1.133,3.488,2.222
			c0.254,0.109,0.371,0.403,0.262,0.657C20.056,20.252,19.871,20.365,19.678,20.365z"/>
	</g>
	<g>
		<path d="M9.999,14h-3.5c-0.313,0-0.574-0.145-0.717-0.398c-0.419-0.745,0.439-2.46,1.233-3.769
			c0.087-0.142,0.237-0.231,0.403-0.24c0.167-0.005,0.325,0.067,0.425,0.2l2.556,3.407c0.113,0.151,0.132,0.354,0.047,0.523
			S10.188,14,9.999,14z M6.666,13h2.333l-1.5-2C7.046,11.835,6.712,12.633,6.666,13z"/>
	</g>
	<g>
		<path d="M9.999,14c-0.152,0-0.303-0.07-0.4-0.2l-9-12C0.475,1.634,0.466,1.409,0.577,1.234c0.11-0.175,0.319-0.266,0.521-0.224
			l5,1C6.27,2.044,6.411,2.165,6.47,2.329l4,11c0.085,0.233-0.014,0.493-0.231,0.611C10.162,13.98,10.08,14,9.999,14z M2.185,2.247
			l6.193,8.258l-2.753-7.57L2.185,2.247z"/>
	</g>
	<g>
		<path d="M17.499,14h-3.5c-0.189,0-0.362-0.107-0.447-0.276s-0.066-0.372,0.047-0.523l2.556-3.407c0.1-0.133,0.26-0.207,0.425-0.2
			c0.166,0.008,0.316,0.098,0.403,0.24c0.794,1.308,1.652,3.023,1.233,3.769C18.073,13.855,17.811,14,17.499,14z M14.999,13h2.333
			c-0.046-0.367-0.38-1.165-0.833-2L14.999,13z"/>
	</g>
	<g>
		<path d="M13.999,14c-0.081,0-0.163-0.02-0.238-0.06c-0.218-0.118-0.316-0.378-0.231-0.611l4-11c0.06-0.164,0.2-0.285,0.372-0.319
			l5-1c0.203-0.042,0.41,0.049,0.521,0.224c0.11,0.175,0.102,0.401-0.022,0.566l-9,12C14.302,13.93,14.151,14,13.999,14z
			 M18.373,2.935l-2.753,7.57l6.193-8.258L18.373,2.935z"/>
	</g>
	<g>
		<path d="M11.999,7c-0.152,0-0.296-0.069-0.391-0.188l-2-2.5C9.436,4.096,9.47,3.782,9.686,3.609
			c0.218-0.171,0.531-0.137,0.703,0.078l1.609,2.012l1.609-2.012c0.174-0.215,0.488-0.249,0.703-0.078
			c0.216,0.173,0.25,0.487,0.078,0.703l-2,2.5C12.295,6.931,12.151,7,11.999,7z"/>
	</g>
	<g>
		<path d="M8.999,14c-0.552,0-1-0.449-1-1s0.448-1,1-1s1,0.449,1,1S9.551,14,8.999,14z M8.999,13h-0.5H8.999L8.999,13z"/>
	</g>
	<g>
		<path d="M14.999,14c-0.552,0-1-0.449-1-1s0.448-1,1-1s1,0.449,1,1S15.551,14,14.999,14z M14.999,13h-0.5H14.999L14.999,13z"/>
	</g>
</g>
</svg>
