<?xml version="1.0" encoding="iso-8859-1"?>
<!-- Generator: Adobe Illustrator 19.0.0, SVG Export Plug-In . SVG Version: 6.00 Build 0)  -->
<svg version="1.1" id="Layer_1" xmlns="http://www.w3.org/2000/svg" xmlns:xlink="http://www.w3.org/1999/xlink" x="0px" y="0px"
	 viewBox="0 0 24 24" style="enable-background:new 0 0 24 24;" xml:space="preserve">
<g id="Pikachu">
	<g>
		<path d="M12,24c-5.005,0-8.5-2.262-8.5-5.5c0-0.661,0.236-1.4,0.486-2.183C4.239,15.527,4.5,14.71,4.5,14v-0.5
			c0-1.558,0.562-2.992,1.623-4.146c0.188-0.203,0.505-0.216,0.707-0.03c0.203,0.187,0.217,0.503,0.03,0.707
			C5.97,10.998,5.5,12.197,5.5,13.5V14c0,0.866-0.285,1.758-0.561,2.622C4.713,17.328,4.5,17.995,4.5,18.5
			c0,2.607,3.154,4.5,7.5,4.5c0.276,0,0.5,0.224,0.5,0.5S12.276,24,12,24z"/>
	</g>
	<g>
		<path d="M12,24c-0.276,0-0.5-0.224-0.5-0.5S11.724,23,12,23c4.346,0,7.5-1.893,7.5-4.5c0-0.5-0.21-1.154-0.433-1.847
			C18.788,15.788,18.5,14.893,18.5,14v-0.5c0-1.305-0.471-2.505-1.362-3.473c-0.187-0.203-0.174-0.52,0.029-0.707
			c0.204-0.186,0.519-0.174,0.707,0.029c1.048,1.139,1.626,2.613,1.626,4.151V14c0,0.736,0.264,1.555,0.519,2.347
			c0.247,0.769,0.481,1.496,0.481,2.153C20.5,21.738,17.005,24,12,24z"/>
	</g>
	<g>
		<path d="M15.5,17c-1.103,0-2-0.897-2-2s0.897-2,2-2s2,0.897,2,2S16.603,17,15.5,17z M15.5,14c-0.551,0-1,0.449-1,1s0.449,1,1,1
			c0.551,0,1-0.449,1-1S16.051,14,15.5,14z"/>
	</g>
	<g>
		<circle cx="12" cy="16.5" r="0.5"/>
	</g>
	<g>
		<circle cx="15" cy="14.5" r="0.5"/>
	</g>
	<g>
		<path d="M8.5,17c-1.103,0-2-0.897-2-2s0.897-2,2-2s2,0.897,2,2S9.603,17,8.5,17z M8.5,14c-0.551,0-1,0.449-1,1s0.449,1,1,1
			s1-0.449,1-1S9.051,14,8.5,14z"/>
	</g>
	<g>
		<circle cx="9" cy="14.5" r="0.5"/>
	</g>
	<g>
		<path d="M16.634,23.164c-0.137,0-0.274-0.056-0.373-0.167C15.771,22.447,15.5,21.738,15.5,21c0-1.654,1.346-3,3-3
			c0.638,0,1.248,0.198,1.763,0.572c0.223,0.162,0.273,0.475,0.11,0.698c-0.163,0.223-0.475,0.272-0.698,0.11
			C19.332,19.132,18.925,19,18.5,19c-1.103,0-2,0.897-2,2c0,0.492,0.18,0.965,0.507,1.331c0.184,0.206,0.166,0.522-0.04,0.706
			C16.872,23.122,16.753,23.164,16.634,23.164z"/>
	</g>
	<g>
		<path d="M7.365,23.166c-0.119,0-0.238-0.042-0.333-0.127c-0.206-0.184-0.224-0.5-0.04-0.706C7.319,21.965,7.5,21.492,7.5,21
			c0-1.103-0.897-2-2-2c-0.425,0-0.832,0.132-1.175,0.381c-0.223,0.162-0.536,0.114-0.698-0.11c-0.163-0.224-0.113-0.536,0.11-0.698
			C4.252,18.198,4.862,18,5.5,18c1.654,0,3,1.346,3,3c0,0.738-0.271,1.448-0.762,1.999C7.639,23.109,7.502,23.166,7.365,23.166z"/>
	</g>
	<g>
		<path d="M13,20c-0.384,0-0.734-0.145-1-0.383C11.734,19.856,11.384,20,11,20c-0.827,0-1.5-0.673-1.5-1.5
			c0-0.276,0.224-0.5,0.5-0.5s0.5,0.224,0.5,0.5S10.724,19,11,19s0.5-0.224,0.5-0.5S11.724,18,12,18s0.5,0.224,0.5,0.5
			S12.724,19,13,19s0.5-0.224,0.5-0.5S13.724,18,14,18s0.5,0.224,0.5,0.5C14.5,19.327,13.827,20,13,20z"/>
	</g>
	<g>
		<path d="M6.109,10.655c-0.118,0-0.235-0.041-0.331-0.125C0.667,6.031,0.504,0.733,0.5,0.509C0.497,0.337,0.582,0.175,0.726,0.081
			C0.87-0.014,1.053-0.027,1.209,0.045C1.394,0.13,5.656,2.143,8.46,7.706C9.518,7.243,10.731,6.999,12,6.999
			c0.276,0,0.5,0.224,0.5,0.5s-0.224,0.5-0.5,0.5c-1.297,0-2.521,0.282-3.54,0.814C8.338,8.876,8.198,8.886,8.069,8.844
			C7.94,8.801,7.834,8.707,7.776,8.584C5.834,4.48,2.994,2.296,1.61,1.419C1.894,3.078,2.9,6.662,6.439,9.777
			c0.207,0.183,0.227,0.499,0.045,0.706C6.385,10.597,6.248,10.655,6.109,10.655z"/>
	</g>
	<g>
		<path d="M3,7C2.735,7,2.515,6.792,2.501,6.525c-0.017-0.339-0.146-3.35,0.651-4.556c0.152-0.231,0.462-0.294,0.693-0.141
			c0.23,0.152,0.293,0.462,0.141,0.693C3.521,3.225,3.441,5.32,3.5,6.475C3.514,6.751,3.302,6.986,3.026,7C3.017,7,3.008,7,3,7z"/>
	</g>
	<g>
		<path d="M17.891,10.655c-0.139,0-0.276-0.057-0.375-0.169c-0.182-0.208-0.162-0.523,0.045-0.706
			c3.551-3.125,4.552-6.701,4.832-8.357c-1.385,0.88-4.232,3.072-6.168,7.164c-0.059,0.123-0.164,0.217-0.293,0.26
			c-0.131,0.042-0.271,0.032-0.391-0.031C14.521,8.283,13.298,8,12,8c-0.276,0-0.5-0.224-0.5-0.5S11.724,7,12,7
			c1.269,0,2.481,0.243,3.54,0.707c2.804-5.563,7.066-7.576,7.251-7.661c0.155-0.073,0.337-0.06,0.483,0.036
			c0.144,0.094,0.229,0.256,0.226,0.428c-0.004,0.224-0.167,5.522-5.278,10.021C18.126,10.615,18.009,10.655,17.891,10.655z"/>
	</g>
	<g>
		<path d="M21,7c-0.009,0-0.017,0-0.026,0c-0.275-0.014-0.488-0.249-0.474-0.525c0.058-1.155-0.023-3.25-0.487-3.953
			c-0.152-0.23-0.089-0.541,0.141-0.693c0.229-0.153,0.54-0.09,0.693,0.141c0.797,1.207,0.669,4.216,0.652,4.555
			C21.486,6.792,21.265,7,21,7z"/>
	</g>
</g>
</svg>
