<?xml version="1.0" encoding="iso-8859-1"?>
<!-- Generator: Adobe Illustrator 19.0.0, SVG Export Plug-In . SVG Version: 6.00 Build 0)  -->
<svg version="1.1" id="Layer_1" xmlns="http://www.w3.org/2000/svg" xmlns:xlink="http://www.w3.org/1999/xlink" x="0px" y="0px"
	 viewBox="0 0 24 24" style="enable-background:new 0 0 24 24;" xml:space="preserve">
<g id="Pokemon_GO">
	<g>
		<path d="M6,18c-3.309,0-6-2.691-6-6s2.691-6,6-6c1.603,0,3.109,0.624,4.242,1.757c0.195,0.195,0.195,0.512,0,0.707
			s-0.512,0.195-0.707,0C8.591,7.52,7.335,7,6,7c-2.757,0-5,2.243-5,5s2.243,5,5,5s5-2.243,5-5c0-0.153-0.007-0.304-0.021-0.454
			c-0.025-0.275,0.177-0.519,0.452-0.544c0.274-0.027,0.519,0.177,0.544,0.452c0.017,0.18,0.024,0.361,0.024,0.545
			C12,15.309,9.309,18,6,18z"/>
	</g>
	<g>
		<path d="M6,15.5c-1.93,0-3.5-1.57-3.5-3.5S4.07,8.5,6,8.5c0.934,0,1.812,0.363,2.473,1.023c0.195,0.195,0.195,0.512,0,0.707
			s-0.512,0.195-0.707,0C7.294,9.759,6.667,9.5,6,9.5c-1.378,0-2.5,1.122-2.5,2.5s1.122,2.5,2.5,2.5c0.89,0,1.72-0.479,2.166-1.25
			c0.139-0.239,0.442-0.321,0.684-0.183c0.239,0.139,0.321,0.444,0.183,0.684C8.408,14.83,7.246,15.5,6,15.5z"/>
	</g>
	<g>
		<path d="M8.121,10.379c-0.128,0-0.256-0.049-0.354-0.146c-0.195-0.195-0.195-0.512,0-0.707l1.768-1.768
			c0.195-0.195,0.512-0.195,0.707,0s0.195,0.512,0,0.707l-1.768,1.768C8.377,10.33,8.249,10.379,8.121,10.379z"/>
	</g>
	<g>
		<path d="M8.599,14H5.5C5.224,14,5,13.776,5,13.5v-2C5,11.224,5.224,11,5.5,11h5.978c0.276,0,0.5,0.224,0.5,0.5s-0.224,0.5-0.5,0.5
			H6v1h2.599c0.276,0,0.5,0.224,0.5,0.5S8.875,14,8.599,14z"/>
	</g>
	<g>
		<path d="M18,18c-3.309,0-6-2.691-6-6s2.691-6,6-6s6,2.691,6,6S21.309,18,18,18z M18,7c-2.757,0-5,2.243-5,5s2.243,5,5,5
			s5-2.243,5-5S20.757,7,18,7z"/>
	</g>
	<g>
		<path d="M18,15.5c-1.93,0-3.5-1.57-3.5-3.5s1.57-3.5,3.5-3.5s3.5,1.57,3.5,3.5S19.93,15.5,18,15.5z M18,9.5
			c-1.378,0-2.5,1.122-2.5,2.5s1.122,2.5,2.5,2.5s2.5-1.122,2.5-2.5S19.378,9.5,18,9.5z"/>
	</g>
	<g>
		<circle cx="18" cy="12" r="1"/>
	</g>
	<g>
		<path d="M20.5,12.5H19c-0.276,0-0.5-0.224-0.5-0.5s0.224-0.5,0.5-0.5h1.5c0.276,0,0.5,0.224,0.5,0.5S20.776,12.5,20.5,12.5z"/>
	</g>
	<g>
		<path d="M17,12.5h-1.5c-0.276,0-0.5-0.224-0.5-0.5s0.224-0.5,0.5-0.5H17c0.276,0,0.5,0.224,0.5,0.5S17.276,12.5,17,12.5z"/>
	</g>
</g>
</svg>
