<?xml version="1.0" encoding="iso-8859-1"?>
<!-- Generator: Adobe Illustrator 19.0.0, SVG Export Plug-In . SVG Version: 6.00 Build 0)  -->
<svg version="1.1" id="Layer_1" xmlns="http://www.w3.org/2000/svg" xmlns:xlink="http://www.w3.org/1999/xlink" x="0px" y="0px"
	 viewBox="0 0 24 24" style="enable-background:new 0 0 24 24;" xml:space="preserve">
<g id="Pokeball">
	<g>
		<path d="M12,23.5C5.659,23.5,0.5,18.341,0.5,12S5.659,0.5,12,0.5S23.5,5.659,23.5,12S18.341,23.5,12,23.5z M12,1.5
			C6.21,1.5,1.5,6.21,1.5,12S6.21,22.5,12,22.5S22.5,17.79,22.5,12S17.79,1.5,12,1.5z"/>
	</g>
	<g>
		<path d="M13,14.5c-2.481,0-4.5-2.019-4.5-4.5s2.019-4.5,4.5-4.5s4.5,2.019,4.5,4.5S15.481,14.5,13,14.5z M13,6.5
			c-1.93,0-3.5,1.57-3.5,3.5s1.57,3.5,3.5,3.5s3.5-1.57,3.5-3.5S14.93,6.5,13,6.5z"/>
	</g>
	<g>
		<path d="M13,11.5c-0.827,0-1.5-0.673-1.5-1.5s0.673-1.5,1.5-1.5s1.5,0.673,1.5,1.5S13.827,11.5,13,11.5z M13,9.5
			c-0.276,0-0.5,0.224-0.5,0.5s0.224,0.5,0.5,0.5s0.5-0.224,0.5-0.5S13.276,9.5,13,9.5z"/>
	</g>
	<g>
		<path d="M22.539,11.5c-0.083,0-0.166-0.021-0.243-0.063c-1.463-0.816-3.309-1.333-5.335-1.495
			c-0.275-0.022-0.48-0.263-0.458-0.539c0.022-0.274,0.256-0.473,0.539-0.458c2.168,0.173,4.154,0.733,5.743,1.619
			c0.241,0.134,0.328,0.439,0.193,0.68C22.884,11.408,22.714,11.5,22.539,11.5z"/>
	</g>
	<g>
		<path d="M1.5,14.854c-0.146,0-0.291-0.063-0.39-0.186c-0.173-0.215-0.14-0.53,0.075-0.703c2.541-2.048,5.049-3.429,7.667-4.221
			c0.264-0.081,0.543,0.069,0.623,0.334c0.08,0.264-0.069,0.543-0.334,0.623c-2.493,0.754-4.89,2.077-7.329,4.042
			C1.721,14.817,1.61,14.854,1.5,14.854z"/>
	</g>
</g>
</svg>
