<?xml version="1.0" encoding="iso-8859-1"?>
<!-- Generator: Adobe Illustrator 19.0.0, SVG Export Plug-In . SVG Version: 6.00 Build 0)  -->
<svg version="1.1" id="Layer_1" xmlns="http://www.w3.org/2000/svg" xmlns:xlink="http://www.w3.org/1999/xlink" x="0px" y="0px"
	 viewBox="0 0 24 24" style="enable-background:new 0 0 24 24;" xml:space="preserve">
<g id="Rayquaza">
	<g>
		<path d="M13.958,24h-3.916c-0.503,0-0.974-0.257-1.261-0.687c-0.298-0.447-0.477-0.935-0.649-1.406
			C7.836,21.1,7.58,20.403,6.802,19.932c-0.093-0.057-0.165-0.142-0.206-0.243c-0.1-0.251-0.598-1.538-0.598-2.188
			c0-0.636-0.229-1.12-0.472-1.633c-0.26-0.548-0.528-1.116-0.528-1.867c0-3.86,3.14-7,7-7s7,3.14,7,7
			c0,0.736-0.266,1.297-0.523,1.84c-0.245,0.519-0.477,1.008-0.477,1.66c0,0.641-0.503,1.933-0.604,2.185
			c-0.041,0.101-0.113,0.186-0.206,0.242c-0.778,0.47-1.049,1.214-1.337,2.002c-0.17,0.468-0.347,0.952-0.635,1.383
			C14.931,23.743,14.46,24,13.958,24z M7.47,19.171c0.963,0.65,1.301,1.573,1.601,2.392c0.16,0.436,0.31,0.848,0.542,1.195
			C9.713,22.909,9.874,23,10.042,23h3.916c0.167,0,0.328-0.09,0.429-0.242c0.221-0.332,0.37-0.74,0.527-1.171
			c0.304-0.832,0.646-1.77,1.611-2.421C16.738,18.607,17,17.803,17,17.5c0-0.877,0.305-1.521,0.574-2.088
			C17.802,14.929,18,14.511,18,14c0-3.309-2.691-6-6-6s-6,2.691-6,6c0,0.526,0.2,0.95,0.432,1.439C6.697,16.002,7,16.639,7,17.5
			C7,17.811,7.258,18.614,7.47,19.171z"/>
	</g>
	<g>
		<path d="M10.5,18H9.72c-0.451,0-0.874-0.2-1.16-0.549s-0.399-0.803-0.311-1.245l0.31-1.469l-0.506-1.013
			c-0.124-0.247-0.023-0.547,0.224-0.671c0.248-0.124,0.547-0.024,0.671,0.224l0.583,1.166c0.001,0.002,0.003,0.005,0.004,0.008
			l1.414,2.827c0.078,0.155,0.069,0.339-0.022,0.486S10.672,18,10.5,18z M9.278,16.173l-0.049,0.234
			C9.2,16.549,9.237,16.7,9.332,16.817c0.089,0.109,0.218,0.174,0.357,0.182L9.278,16.173z"/>
	</g>
	<g>
		<path d="M14.279,18H13.5c-0.173,0-0.334-0.09-0.425-0.237s-0.1-0.332-0.022-0.486l1.451-2.901c0.001-0.003,0.003-0.007,0.005-0.01
			l0.544-1.089c0.124-0.248,0.423-0.347,0.671-0.224c0.247,0.124,0.347,0.424,0.224,0.671l-0.473,0.945l0.278,1.546
			c0.087,0.433-0.026,0.887-0.313,1.235C15.153,17.8,14.731,18,14.279,18z M14.727,16.163l-0.418,0.836
			c0.139-0.008,0.268-0.073,0.357-0.182c0.095-0.116,0.133-0.268,0.104-0.415L14.727,16.163z"/>
	</g>
	<g>
		<path d="M12,12c-1.654,0-3-1.346-3-3V8c0-0.276,0.224-0.5,0.5-0.5S10,7.724,10,8v1c0,1.103,0.897,2,2,2s2-0.897,2-2V8
			c0-0.276,0.224-0.5,0.5-0.5S15,7.724,15,8v1C15,10.654,13.653,12,12,12z"/>
	</g>
	<g>
		<path d="M12,22L12,22c-0.134,0-0.261-0.053-0.355-0.147c-0.019-0.019-1.868-1.852-4.145-1.852c-0.276,0-0.5-0.224-0.5-0.5
			s0.224-0.5,0.5-0.5c2.083,0,3.789,1.225,4.501,1.827c0.714-0.601,2.425-1.827,4.499-1.827c0.276,0,0.5,0.224,0.5,0.5
			s-0.224,0.5-0.5,0.5c-2.267,0-4.127,1.834-4.146,1.853C12.26,21.947,12.133,22,12,22z"/>
	</g>
	<g>
		<path d="M7.169,10.151c-0.153,0-0.305-0.07-0.403-0.203c-1.743-2.363-3.414-2.969-3.43-2.975C3.213,6.93,3.111,6.84,3.053,6.724
			l-3-6c-0.078-0.155-0.069-0.339,0.022-0.486S0.327,0,0.5,0h2c0.157,0,0.306,0.074,0.4,0.2l6,8c0.166,0.221,0.121,0.534-0.1,0.7
			C8.578,9.066,8.264,9.021,8.1,8.8L2.25,1H1.309l2.554,5.108C4.409,6.35,5.97,7.184,7.571,9.354
			c0.164,0.222,0.117,0.535-0.105,0.699C7.376,10.119,7.273,10.151,7.169,10.151z"/>
	</g>
	<g>
		<path d="M16.83,10.151c-0.103,0-0.207-0.032-0.296-0.098c-0.222-0.164-0.27-0.477-0.105-0.699c1.602-2.17,3.163-3.004,3.709-3.246
			L22.692,1H21.75l-5.85,7.8c-0.165,0.222-0.479,0.266-0.7,0.1s-0.266-0.479-0.1-0.7l6-8c0.094-0.126,0.243-0.2,0.4-0.2h2
			c0.173,0,0.334,0.09,0.425,0.237s0.1,0.332,0.022,0.486l-3,6c-0.059,0.118-0.162,0.208-0.287,0.25
			c-0.014,0.005-1.685,0.611-3.428,2.974C17.134,10.081,16.983,10.151,16.83,10.151z"/>
	</g>
	<g>
		<path d="M0.5,24c-0.072,0-0.145-0.016-0.212-0.047C0.111,23.87,0,23.694,0,23.5v-2c0-0.111,0.037-0.219,0.104-0.306l5.144-6.642
			c0.169-0.218,0.483-0.257,0.702-0.089c0.218,0.169,0.258,0.483,0.089,0.702l-5.04,6.507v0.764l5.354-4.443
			c0.212-0.178,0.527-0.147,0.704,0.065c0.176,0.212,0.147,0.528-0.065,0.704l-6.173,5.124C0.727,23.961,0.613,24,0.5,24z"/>
	</g>
	<g>
		<path d="M23.5,24c-0.115,0-0.229-0.04-0.32-0.116l-6.169-5.151c-0.212-0.177-0.24-0.492-0.063-0.704
			c0.176-0.212,0.492-0.241,0.704-0.063L23,22.432v-0.76l-5.043-6.507c-0.169-0.218-0.129-0.532,0.089-0.701
			c0.218-0.17,0.533-0.129,0.701,0.089l5.148,6.642C23.963,21.282,24,21.39,24,21.501v2c0,0.194-0.112,0.371-0.288,0.453
			C23.643,23.984,23.571,24,23.5,24z"/>
	</g>
</g>
</svg>
