<?xml version="1.0" encoding="iso-8859-1"?>
<!-- Generator: Adobe Illustrator 19.0.0, SVG Export Plug-In . SVG Version: 6.00 Build 0)  -->
<svg version="1.1" id="Layer_1" xmlns="http://www.w3.org/2000/svg" xmlns:xlink="http://www.w3.org/1999/xlink" x="0px" y="0px"
	 viewBox="0 0 24 24" style="enable-background:new 0 0 24 24;" xml:space="preserve">
<g id="Squirtle">
	<g>
		<path d="M12,24C5.229,24,0.5,19.682,0.5,13.5C0.5,7.127,5.418,0,12,0s11.5,7.127,11.5,13.5C23.5,19.682,18.771,24,12,24z M12,1
			C5.99,1,1.5,7.6,1.5,13.5C1.5,20.063,6.773,23,12,23s10.5-2.938,10.5-9.5C22.5,7.6,18.01,1,12,1z"/>
	</g>
	<g>
		<path d="M8.663,14L8.663,14H5.337c-0.221,0-0.415-0.145-0.479-0.356C4.62,12.853,4.5,11.964,4.5,11c0-2.851,1.075-5,2.5-5
			s2.5,2.149,2.5,5c0,0.943-0.124,1.857-0.357,2.643C9.079,13.855,8.885,14,8.663,14z M5.72,13h2.56c0.145-0.61,0.221-1.294,0.221-2
			c0-2.442-0.889-4-1.5-4s-1.5,1.558-1.5,4C5.5,11.711,5.575,12.395,5.72,13z"/>
	</g>
	<g>
		<path d="M18.663,14L18.663,14h-3.326c-0.221,0-0.415-0.145-0.479-0.356C14.62,12.853,14.5,11.964,14.5,11c0-2.851,1.075-5,2.5-5
			s2.5,2.149,2.5,5c0,0.943-0.124,1.857-0.357,2.643C19.079,13.855,18.885,14,18.663,14z M15.72,13h2.56
			c0.145-0.61,0.221-1.294,0.221-2c0-2.442-0.889-4-1.5-4s-1.5,1.558-1.5,4C15.5,11.711,15.575,12.395,15.72,13z"/>
	</g>
	<g>
		<path d="M12,20.585c-0.384,0-0.769-0.146-1.061-0.438L9.793,19H6.828c-0.668,0-1.295-0.26-1.768-0.732l-0.414-0.414
			c-0.195-0.195-0.195-0.512,0-0.707s0.512-0.195,0.707,0l0.414,0.414C6.046,17.84,6.433,18,6.828,18H10
			c0.133,0,0.26,0.053,0.354,0.146l1.293,1.293c0.195,0.195,0.512,0.195,0.707,0l1.293-1.293C13.74,18.053,13.867,18,14,18h3.172
			c0.395,0,0.781-0.16,1.061-0.439l0.414-0.414c0.195-0.195,0.512-0.195,0.707,0s0.195,0.512,0,0.707l-0.414,0.414
			C18.467,18.74,17.84,19,17.172,19h-2.965l-1.146,1.146C12.769,20.439,12.384,20.585,12,20.585z"/>
	</g>
	<g>
		<path d="M10,17c-0.128,0-0.256-0.049-0.354-0.146l-0.5-0.5c-0.195-0.195-0.195-0.512,0-0.707s0.512-0.195,0.707,0l0.5,0.5
			c0.195,0.195,0.195,0.512,0,0.707C10.256,16.951,10.128,17,10,17z"/>
	</g>
	<g>
		<path d="M14,17c-0.128,0-0.256-0.049-0.354-0.146c-0.195-0.195-0.195-0.512,0-0.707l0.5-0.5c0.195-0.195,0.512-0.195,0.707,0
			s0.195,0.512,0,0.707l-0.5,0.5C14.256,16.951,14.128,17,14,17z"/>
	</g>
	<g>
		<circle cx="16.5" cy="9" r="1"/>
	</g>
	<g>
		<circle cx="7.5" cy="9" r="1"/>
	</g>
	<g>
		<path d="M10,7C9.872,7,9.744,6.951,9.646,6.854l-1.5-1.5c-0.195-0.195-0.195-0.512,0-0.707s0.512-0.195,0.707,0l1.5,1.5
			c0.195,0.195,0.195,0.512,0,0.707C10.256,6.951,10.128,7,10,7z"/>
	</g>
	<g>
		<path d="M14,7c-0.128,0-0.256-0.049-0.354-0.146c-0.195-0.195-0.195-0.512,0-0.707l1.5-1.5c0.195-0.195,0.512-0.195,0.707,0
			s0.195,0.512,0,0.707l-1.5,1.5C14.256,6.951,14.128,7,14,7z"/>
	</g>
</g>
</svg>
