<?xml version="1.0" encoding="iso-8859-1"?>
<!-- Generator: Adobe Illustrator 19.0.0, SVG Export Plug-In . SVG Version: 6.00 Build 0)  -->
<svg version="1.1" id="Layer_1" xmlns="http://www.w3.org/2000/svg" xmlns:xlink="http://www.w3.org/1999/xlink" x="0px" y="0px"
	 viewBox="0 0 24 24" style="enable-background:new 0 0 24 24;" xml:space="preserve">
<g>
	<path d="M23.496,3.309c0.021-0.183-0.059-0.362-0.209-0.468c-0.151-0.106-0.348-0.121-0.511-0.038l-5.76,2.88
		c-3.245-1.904-6.8-1.899-10.039-0.003L1.225,2.803C1.061,2.722,0.867,2.736,0.712,2.841c-0.15,0.105-0.23,0.285-0.209,0.468
		l0.993,8.444c-0.487,1.04-0.811,2.098-0.936,3.07c-0.094,0.727,0.371,1.428,1.081,1.632l3.782,1.081
		c1.458,0.416,2.724,1.34,3.565,2.602c0.465,0.697,1.242,1.113,2.08,1.113h1.859c0.838,0,1.615-0.416,2.08-1.113
		c0.842-1.262,2.107-2.186,3.565-2.602l3.781-1.081c0.712-0.204,1.177-0.906,1.081-1.633c-0.127-0.966-0.45-2.02-0.936-3.054
		L23.496,3.309z M3.712,9.666c-0.045,0-0.09-0.006-0.134-0.019c-0.194-0.056-0.34-0.216-0.362-0.415L2.923,6.755
		c-0.021-0.183,0.06-0.362,0.21-0.468c0.151-0.105,0.349-0.12,0.511-0.038l1.784,0.892c0.143,0.071,0.242,0.206,0.27,0.363
		c0.026,0.157-0.023,0.317-0.134,0.432L5.459,8.043C4.97,8.495,4.522,8.97,4.11,9.476C4.014,9.596,3.863,9.666,3.712,9.666z
		 M8.306,14.647c-0.091,0.069-0.198,0.103-0.304,0.103c-0.15,0-0.299-0.067-0.397-0.196c-1.192-1.558-2.666-1.808-2.681-1.811
		c-0.273-0.043-0.459-0.299-0.416-0.572c0.043-0.273,0.305-0.459,0.572-0.415c0.076,0.012,1.886,0.318,3.319,2.189
		C8.566,14.165,8.524,14.479,8.306,14.647z M10.001,17.75c-0.276,0-0.5-0.224-0.5-0.5s0.224-0.5,0.5-0.5s0.5,0.224,0.5,0.5
		S10.277,17.75,10.001,17.75z M14.001,17.75c-0.276,0-0.5-0.224-0.5-0.5s0.224-0.5,0.5-0.5s0.5,0.224,0.5,0.5
		S14.277,17.75,14.001,17.75z M19.079,12.744c-0.012,0.002-1.502,0.27-2.681,1.811c-0.098,0.128-0.247,0.195-0.397,0.195
		c-0.106,0-0.213-0.034-0.304-0.103c-0.22-0.168-0.261-0.482-0.094-0.701c1.434-1.871,3.243-2.177,3.319-2.189
		c0.269-0.044,0.529,0.142,0.572,0.415C19.537,12.444,19.352,12.701,19.079,12.744z M20.785,9.231
		c-0.022,0.198-0.161,0.363-0.352,0.42c-0.048,0.015-0.097,0.021-0.145,0.021c-0.145,0-0.285-0.063-0.382-0.177l-0.011-0.013
		c-0.418-0.514-0.864-0.989-1.334-1.42l-0.125-0.127c-0.11-0.114-0.16-0.275-0.134-0.432c0.027-0.157,0.127-0.292,0.27-0.363
		l1.784-0.892c0.163-0.083,0.359-0.068,0.511,0.038c0.15,0.105,0.231,0.285,0.209,0.468L20.785,9.231z"/>
</g>
</svg>
