<?xml version="1.0" encoding="iso-8859-1"?>
<!-- Generator: Adobe Illustrator 19.0.0, SVG Export Plug-In . SVG Version: 6.00 Build 0)  -->
<svg version="1.1" id="Layer_1" xmlns="http://www.w3.org/2000/svg" xmlns:xlink="http://www.w3.org/1999/xlink" x="0px" y="0px"
	 viewBox="0 0 24 24" style="enable-background:new 0 0 24 24;" xml:space="preserve">
<g>
	<path d="M23.123,5.972c-0.356-0.096-0.64-0.17-0.723-0.181c-1.234,0.002-4.09,2.231-5.217,3.631
		c-0.265,0.33-0.754,1.284-0.926,1.757c-0.381,1.048-1.31,1.733-2.391,1.791c-0.078,0.83-0.143,1.31-0.36,2.597
		c-0.001,0.007-0.005,0.012-0.007,0.019v-0.605c0-0.276-0.224-0.5-0.5-0.5s-0.5,0.224-0.5,0.5v1h-1v-1c0-0.276-0.224-0.5-0.5-0.5
		s-0.5,0.224-0.5,0.5v0.532c-0.128-0.782-0.152-1.359-0.173-1.914c-0.008-0.202-0.018-0.409-0.031-0.623
		c-1.107-0.024-2.061-0.73-2.439-1.818c-0.165-0.474-0.633-1.431-0.888-1.762C5.922,8.038,3.176,5.792,2.02,5.792
		C1.902,5.805,1.431,5.909,0.867,6.041c-0.378,2.652,1.434,6.222,3.198,9.687c1.442,2.833,2.934,5.763,2.934,7.752
		c0,0.276,0.224,0.5,0.5,0.5h9c0.276,0,0.5-0.224,0.5-0.5c0-1.99,1.491-4.919,2.934-7.752C21.713,12.233,23.543,8.63,23.123,5.972z"
		/>
	<path d="M2.026,4.782c0.005,0,0.011,0,0.016,0c1.644,0,4.43,2.451,5.532,3.743c0.073,0.086,0.139,0.167,0.197,0.242
		C7.85,8.869,7.94,9.01,8.035,9.171c0.012,0.021,0.024,0.043,0.037,0.065c0.079,0.137,0.159,0.286,0.237,0.441
		c0.023,0.045,0.044,0.086,0.066,0.131c0.08,0.162,0.157,0.324,0.225,0.479c0.006,0.013,0.011,0.024,0.016,0.037
		c0.078,0.179,0.145,0.346,0.193,0.483c0.057,0.165,0.138,0.314,0.233,0.448c0.068,0.095,0.152,0.174,0.236,0.252
		c0.028,0.026,0.052,0.058,0.081,0.083c0.237,0.187,0.521,0.304,0.828,0.338c0.001,0.008,0.003,0.017,0.004,0.025
		c0.055,0.006,0.106,0.03,0.163,0.03h0.147v0.5c0,0.276,0.224,0.5,0.5,0.5s0.5-0.224,0.5-0.5v-0.5h1v0.5c0,0.276,0.224,0.5,0.5,0.5
		s0.5-0.224,0.5-0.5v-0.5h0.221c0.241,0,0.464-0.067,0.673-0.16c-0.138,0.059-0.284,0.101-0.436,0.123c0,0,0.293-0.09,0.431-0.149
		c0.004-0.002,0.008-0.004,0.012-0.006c0.129-0.057,0.25-0.13,0.361-0.217c0.035-0.028,0.064-0.063,0.096-0.094
		c0.078-0.072,0.155-0.144,0.218-0.231c0.094-0.131,0.177-0.275,0.235-0.435c0.207-0.57,0.736-1.606,1.083-2.037
		c1.091-1.355,4.201-3.993,6.007-3.993h0.001h0.001c0.007,0,0.015,0,0.022,0c0.006,0,0.01,0.003,0.016,0.003
		c0.064,0.004,0.144,0.015,0.296,0.05c-0.195-0.354-0.475-0.691-0.804-1.012c-2.061-2.008-6.243-3.307-6.295-3.323
		c-1.035-0.315-2.292-0.482-3.635-0.482c-1.348,0-2.677,0.177-3.646,0.484c-0.21,0.067-4.2,1.361-6.232,3.288
		c-0.383,0.363-0.705,0.747-0.91,1.152c0.466-0.098,0.797-0.161,0.807-0.161C2.023,4.782,2.024,4.782,2.026,4.782z M13.082,8.186
		l0.998-1.497c0.152-0.229,0.461-0.291,0.692-0.138c0.229,0.153,0.291,0.462,0.138,0.692L13.912,8.74
		c-0.096,0.144-0.254,0.222-0.416,0.222c-0.095,0-0.191-0.027-0.276-0.084C12.99,8.724,12.929,8.415,13.082,8.186z M9.229,6.551
		C9.458,6.398,9.767,6.46,9.921,6.689l0.998,1.497c0.153,0.229,0.091,0.539-0.138,0.692c-0.085,0.057-0.181,0.084-0.276,0.084
		c-0.161,0-0.32-0.078-0.416-0.222L9.091,7.243C8.937,7.013,8.999,6.704,9.229,6.551z"/>
</g>
</svg>
