<?xml version="1.0" encoding="iso-8859-1"?>
<!-- Generator: Adobe Illustrator 19.0.0, SVG Export Plug-In . SVG Version: 6.00 Build 0)  -->
<svg version="1.1" id="Layer_1" xmlns="http://www.w3.org/2000/svg" xmlns:xlink="http://www.w3.org/1999/xlink" x="0px" y="0px"
	 viewBox="0 0 24 24" style="enable-background:new 0 0 24 24;" xml:space="preserve">
<g>
	<path d="M23.68,4.035c-0.19-0.075-0.409-0.026-0.548,0.123C22.413,4.923,21.121,6,20.496,6c-0.676,0-1.511-0.552-2.318-1.085
		c-0.19-0.126-0.373-0.242-0.557-0.358l-0.343,2.592C17.244,7.4,17.03,7.584,16.783,7.584c-0.022,0-0.044-0.001-0.066-0.004
		c-0.274-0.036-0.467-0.288-0.431-0.561l0.395-2.982l0.297-2.24c0.055-0.454-0.087-0.91-0.391-1.251
		c-0.303-0.342-0.739-0.539-1.196-0.539c-0.663,0-1.265,0.417-1.493,1.03l-0.789,2.006h-0.003L11.03,8.319
		c-0.077,0.197-0.266,0.317-0.465,0.317c-0.061,0-0.123-0.011-0.183-0.035C10.124,8.5,9.998,8.209,10.1,7.953l1.924-4.891
		c-1.539,0.09-4.05,0.51-6.228,2.107l1.095,2.784C6.993,8.21,6.867,8.5,6.609,8.601c-0.06,0.023-0.122,0.035-0.183,0.035
		c-0.199,0-0.388-0.12-0.465-0.317L4.982,5.83L3.559,2.211L3.101,1.047V1.046L3.098,1.039C2.867,0.417,2.266,0,1.602,0
		C1.145,0,0.708,0.196,0.406,0.538C0.102,0.88-0.039,1.336,0.015,1.795l1.434,10.823L0.996,15.5c0,4.081,5.623,8.5,7.5,8.5
		s7.5-4.419,7.494-8.579l-0.447-2.803l0.224-1.695l0.047-0.038c0.663-0.548,1.314-0.655,2.217-0.655l0.809,0.008
		c0.572,0,1.19-0.033,1.83-0.27c0.424-0.157,0.973-0.597,1.68-1.346C23.411,7.5,23.996,6.036,23.996,4.5
		C23.996,4.295,23.871,4.111,23.68,4.035z M8.674,21.969C8.616,21.99,8.558,22,8.5,22c-0.128,0-0.25-0.049-0.343-0.136
		c-1.438-0.659-5.012-3.642-5.156-6.202c-0.002-0.036,0-0.072,0.005-0.107l0.474-2.971c0.041-0.257,0.275-0.441,0.533-0.42
		c0.261,0.021,0.461,0.238,0.461,0.499c0,0.406,0.872,1.402,2.031,2.484C6.206,15.321,5.996,15.631,5.996,16c0,0.551,0.448,1,1,1
		c0.413,0,0.768-0.252,0.92-0.609c0.193,0.16,0.387,0.321,0.581,0.475c0.194-0.153,0.388-0.313,0.581-0.472
		C9.231,16.75,9.584,17,9.996,17c0.552,0,1-0.449,1-1c0-0.365-0.206-0.671-0.499-0.846c1.156-1.072,2.025-2.056,2.025-2.455
		c0-0.261,0.2-0.478,0.461-0.499c0.252-0.02,0.492,0.162,0.533,0.42l0.474,2.971c0.005,0.035,0.007,0.071,0.005,0.107
		C13.845,18.363,9.978,21.485,8.674,21.969z"/>
</g>
</svg>
