<?xml version="1.0" encoding="iso-8859-1"?>
<!-- Generator: Adobe Illustrator 19.0.0, SVG Export Plug-In . SVG Version: 6.00 Build 0)  -->
<svg version="1.1" id="Layer_1" xmlns="http://www.w3.org/2000/svg" xmlns:xlink="http://www.w3.org/1999/xlink" x="0px" y="0px"
	 viewBox="0 0 24 24" style="enable-background:new 0 0 24 24;" xml:space="preserve">
<g>
	<path d="M6.5,7.973h5c0.276,0,0.5-0.224,0.5-0.5s-0.224-0.5-0.5-0.5H7.822l1.627-1.434c0.122-0.107,0.309-0.103,0.423,0.014
		l0.274,0.274c0.195,0.194,0.512,0.195,0.707-0.001c0.195-0.195,0.195-0.512,0-0.707l-0.274-0.273
		c-0.484-0.485-1.27-0.512-1.79-0.059l-2.62,2.311C6.014,7.236,5.959,7.454,6.032,7.65S6.292,7.973,6.5,7.973z"/>
	<path d="M23.812,16.082l-4.39-3.512l1.301-0.65c0.169-0.085,0.276-0.258,0.276-0.447c0-0.189-0.107-0.362-0.276-0.447L19,10.164
		V5.473c0-1.922-1.859-3.935-4.521-4.896C13.367,0.176,12.196-0.027,11-0.027c-4.337,0-8,2.519-8,5.5v4.664
		c-2.991,1.359-3,1.47-3,1.836c0,0.231,0.089,0.988,1.227,0.988c0.565,0,1.326-0.182,2.103-0.389l0.009,0.123L1.23,14.052
		c-0.127,0.082-0.211,0.217-0.227,0.367c-0.017,0.15,0.036,0.3,0.144,0.407l0.646,0.646l-1.646,1.646
		c-0.113,0.113-0.165,0.273-0.141,0.431c0.024,0.158,0.123,0.294,0.265,0.367l3.022,1.56c0.013,0.377,0.045,0.683,0.1,0.957
		c0.132,0.673,0.514,1.257,1.112,1.635l4.057,1.846c0.189,0.076,0.392,0.114,0.593,0.114c0.169,0,0.339-0.027,0.5-0.081l6.571-2.134
		c0.181-0.059,0.313-0.214,0.34-0.402l0.068-0.458l3.987-0.997c0.147-0.037,0.27-0.138,0.333-0.276s0.061-0.297-0.007-0.433
		l-0.722-1.442l3.396-0.849c0.185-0.046,0.327-0.192,0.367-0.378C24.029,16.394,23.961,16.201,23.812,16.082z M4.015,9.715
		C4.01,9.717,4.005,9.718,4,9.72V5.473h0c0-2.173,2.812-4.5,7-4.5c1.053,0,2.084,0.175,3.065,0.519
		c0.049,0.037,0.098,0.078,0.148,0.119c0.057,0.046,0.114,0.09,0.171,0.141c0.057,0.051,0.114,0.109,0.171,0.165
		c0.058,0.056,0.115,0.109,0.172,0.17c0.057,0.061,0.111,0.13,0.167,0.197c0.055,0.065,0.11,0.127,0.163,0.197
		c0.055,0.073,0.104,0.154,0.156,0.233c0.049,0.074,0.1,0.144,0.146,0.223c0.05,0.087,0.093,0.183,0.139,0.276
		c0.04,0.081,0.084,0.158,0.12,0.245c0.044,0.105,0.078,0.221,0.116,0.333c0.029,0.086,0.063,0.167,0.087,0.257
		c0.036,0.133,0.059,0.279,0.085,0.423c0.015,0.081,0.036,0.155,0.047,0.239c0.031,0.233,0.048,0.479,0.048,0.738v4.991
		c-0.083-0.007-0.16-0.008-0.245-0.018c-0.113-0.013-0.228-0.028-0.346-0.046c-0.194-0.029-0.393-0.064-0.598-0.104
		c-0.119-0.023-0.237-0.045-0.359-0.071c-0.229-0.049-0.463-0.103-0.699-0.16c-0.103-0.025-0.203-0.047-0.307-0.073
		c-0.33-0.082-0.663-0.166-0.994-0.251c-1.48-0.381-2.88-0.74-3.951-0.74c-0.196,0-0.401,0.007-0.61,0.02
		C7.82,9,7.747,9.007,7.675,9.013c-0.14,0.01-0.28,0.021-0.422,0.036c-0.086,0.009-0.172,0.02-0.259,0.031
		C6.862,9.096,6.732,9.113,6.6,9.132C6.51,9.145,6.422,9.159,6.333,9.173C6.204,9.194,6.078,9.215,5.951,9.238
		C5.862,9.254,5.776,9.27,5.688,9.288C5.563,9.313,5.441,9.339,5.32,9.365C5.238,9.383,5.158,9.401,5.078,9.419
		C4.952,9.449,4.833,9.48,4.714,9.511C4.648,9.527,4.579,9.545,4.516,9.563c-0.142,0.04-0.273,0.08-0.4,0.121
		C4.084,9.694,4.047,9.704,4.015,9.715z M16.647,17.619c-0.178,0.178-0.561,0.319-0.761,0.367c-0.268,0.063-0.435,0.333-0.372,0.601
		c0.047,0.203,0.214,0.341,0.408,0.373l-0.299,1.999l-6.281,2.039c-0.135,0.043-0.278,0.041-0.388-0.003l-3.972-1.802
		c-0.303-0.195-0.53-0.551-0.609-0.953c-0.056-0.286-0.082-0.631-0.086-1.098v-0.002l-0.002-0.11c0-0.639,0.199-2.057,0.201-2.07
		c0.109-0.767,0.109-1.543,0.004-2.276l-0.132-1.768l-0.045-0.609c0.663-0.176,1.306-0.329,1.777-0.335
		c0.604,0,1.254,0.106,1.91,0.245v1.256c0,0.173,0.09,0.334,0.237,0.425c0.08,0.05,0.171,0.075,0.263,0.075
		c0.076,0,0.153-0.018,0.224-0.053l2-1c0.036-0.018,0.061-0.046,0.09-0.07c0.459,0.083,0.903,0.139,1.325,0.139c0,0,0,0,0.001,0
		c0.139,0,0.275-0.006,0.407-0.019c0.898-0.085,2.42-0.68,3.453-1.122v2.011c-0.15,0.096-0.263,0.183-0.315,0.225
		c-0.214,0.174-0.246,0.488-0.073,0.702c0.174,0.214,0.487,0.25,0.703,0.075c0.322-0.259,0.829-0.495,1.004-0.418l0.049,0.047
		c0.014,0.018,0.031,0.044,0.048,0.079c0.001,0.001,0.001,0.003,0.002,0.004c0.015,0.032,0.03,0.076,0.045,0.127
		c0.007,0.025,0.012,0.057,0.018,0.087c0.009,0.042,0.018,0.082,0.024,0.135c0.011,0.096,0.019,0.204,0.019,0.336
		C17.524,16.257,17.237,17.03,16.647,17.619z"/>
	<path d="M12.5,13.973c-0.827,0-1.5,0.673-1.5,1.5v2c0,0.276,0.224,0.5,0.5,0.5h2c0.276,0,0.5-0.224,0.5-0.5v-2
		C14,14.646,13.327,13.973,12.5,13.973z M13,16.973h-1c0.276,0,0.5-0.224,0.5-0.5s-0.224-0.5-0.5-0.5v-0.5
		c0-0.276,0.225-0.5,0.5-0.5c0.275,0,0.5,0.224,0.5,0.5V16.973z"/>
	<path d="M8,17.473v-2c0-0.827-0.673-1.5-1.5-1.5c-0.827,0-1.5,0.673-1.5,1.5v2c0,0.276,0.224,0.5,0.5,0.5h2
		C7.776,17.973,8,17.749,8,17.473z M7,16.973H6c0.276,0,0.5-0.224,0.5-0.5s-0.224-0.5-0.5-0.5v-0.5c0-0.276,0.225-0.5,0.5-0.5
		c0.275,0,0.5,0.224,0.5,0.5V16.973z"/>
	<path d="M11.5,18.973h-4c-0.275,0-0.499,0.223-0.5,0.499c0,0.045,0.005,1.103,0.734,1.834c0.441,0.442,1.035,0.667,1.766,0.667
		s1.324-0.225,1.766-0.667C11.995,20.574,12,19.516,12,19.472C11.999,19.196,11.775,18.973,11.5,18.973z"/>
</g>
</svg>
