<?xml version="1.0" encoding="iso-8859-1"?>
<!-- Generator: Adobe Illustrator 19.0.0, SVG Export Plug-In . SVG Version: 6.00 Build 0)  -->
<svg version="1.1" id="Layer_1" xmlns="http://www.w3.org/2000/svg" xmlns:xlink="http://www.w3.org/1999/xlink" x="0px" y="0px"
	 viewBox="0 0 24 24" style="enable-background:new 0 0 24 24;" xml:space="preserve">
<g>
	<path d="M22.454,7.684c1.549-3.486,1.545-7.035,1.544-7.187c-0.001-0.134-0.056-0.263-0.152-0.356
		C23.748,0.047,23.618-0.002,23.485,0c-0.109,0.003-2.611,0.082-4.999,0.985C17.779,0.331,17.112,0,16.499,0
		c-1.716,0-3.736,1.326-4.5,1.876C11.235,1.326,9.215,0,7.499,0c-0.613,0-1.28,0.331-1.987,0.985C3.124,0.082,0.622,0.004,0.513,0
		C0.372-0.002,0.248,0.047,0.152,0.141C0.055,0.234,0.001,0.363,0,0.497c-0.001,0.152-0.005,3.702,1.546,7.187
		C0.548,10.394,0,13.163,0,15.501c0,0.634,0.108,1.285,0.32,1.936v0.001c1.266,3.864,6.068,6.563,11.68,6.563
		s10.415-2.699,11.68-6.564c0.213-0.651,0.32-1.302,0.32-1.936C24,13.163,23.452,10.395,22.454,7.684z M19.493,2.725
		c0.53-0.189,1.113-0.346,1.732-0.467c0.165-0.031,0.324,0.019,0.442,0.13c0.117,0.113,0.172,0.275,0.147,0.436
		c-0.121,0.796-0.295,1.566-0.516,2.292c0,0.275-0.224,0.499-0.5,0.499c-0.032,0-0.064-0.003-0.096-0.009
		c-0.089-0.013-0.173-0.051-0.242-0.107c-0.045-0.035-0.085-0.081-0.116-0.136L20.342,5.36c-0.006-0.01-0.012-0.021-0.017-0.032
		c-0.342-0.667-0.704-1.288-1.075-1.844c-0.071-0.104-0.104-0.232-0.084-0.361C19.195,2.939,19.319,2.786,19.493,2.725z
		 M13.166,10.126c0.595-0.527,3.637-3.155,5.124-3.155c0.128,0,0.248,0.018,0.357,0.052c0.935,0.292,1.246,2.276,1.349,3.433
		c0.013,0.14-0.034,0.278-0.129,0.381C19.772,10.94,19.639,11,19.498,11h-6c-0.208,0-0.394-0.128-0.468-0.323
		C12.957,10.483,13.011,10.264,13.166,10.126z M18.174,13.033c0.259,0.097,0.39,0.386,0.292,0.644
		c-0.097,0.258-0.388,0.389-0.644,0.292c-3.37-1.269-7.776-1.267-11.141,0.002c-0.059,0.022-0.118,0.032-0.177,0.032
		c-0.202,0-0.393-0.123-0.468-0.324c-0.098-0.258,0.033-0.546,0.291-0.644C9.917,11.681,14.583,11.681,18.174,13.033z
		 M15.619,15.485l-2,0.5C13.579,15.995,13.538,16,13.498,16c-0.225,0-0.429-0.151-0.485-0.379c-0.067-0.267,0.095-0.539,0.364-0.606
		l2-0.5c0.265-0.069,0.539,0.095,0.606,0.364C16.049,15.147,15.887,15.418,15.619,15.485z M10.983,15.621
		c-0.057,0.228-0.261,0.379-0.485,0.379c-0.04,0-0.08-0.005-0.121-0.015l-2-0.5c-0.269-0.067-0.431-0.339-0.364-0.606
		c0.066-0.269,0.335-0.432,0.606-0.364l2,0.5C10.888,15.082,11.05,15.353,10.983,15.621z M5.349,7.023
		c0.109-0.034,0.229-0.052,0.357-0.052c1.433,0,4.307,2.438,5.048,3.088c0.157,0.084,0.264,0.25,0.264,0.441
		c0,0.276-0.224,0.5-0.5,0.5c-0.004,0-0.012,0.001-0.02,0h-6c-0.141,0-0.274-0.059-0.369-0.163C4.034,10.733,3.987,10.595,4,10.456
		C4.102,9.299,4.414,7.315,5.349,7.023z M2.328,2.388c0.118-0.112,0.278-0.161,0.442-0.13c0.619,0.121,1.202,0.277,1.732,0.467
		C4.675,2.787,4.801,2.938,4.828,3.12c0.021,0.135-0.015,0.27-0.095,0.376C4.363,4.053,4.002,4.674,3.66,5.342
		C3.572,5.513,3.397,5.614,3.215,5.614c-0.062,0-0.123-0.011-0.183-0.035C2.871,5.516,2.761,5.378,2.726,5.22
		C2.49,4.464,2.306,3.657,2.179,2.824C2.156,2.663,2.211,2.5,2.328,2.388z M11.998,23c-4.985,0-9.405-2.358-10.646-5.641
		c0.074-0.11,0.151-0.218,0.233-0.325c0.047-0.061,0.09-0.123,0.14-0.183c0.164-0.198,0.341-0.391,0.534-0.577
		c0.764,1.131,2.762,3.723,5.035,3.723c0.791,0,1.605-0.165,2.423-0.491c1.465-0.584,3.119-0.585,4.582,0
		c0.817,0.326,1.626,0.491,2.403,0.491c2.29,0,4.27-2.594,5.027-3.73c0.195,0.187,0.372,0.382,0.538,0.581
		c0.05,0.06,0.094,0.123,0.141,0.185c0.083,0.107,0.16,0.216,0.235,0.326C21.403,20.642,16.983,23,11.998,23z"/>
	<circle cx="7.498" cy="9.5" r="1"/>
	<circle cx="16.498" cy="9.5" r="1"/>
</g>
</svg>
