<?xml version="1.0" encoding="iso-8859-1"?>
<!-- Generator: Adobe Illustrator 19.0.0, SVG Export Plug-In . SVG Version: 6.00 Build 0)  -->
<svg version="1.1" id="Layer_1" xmlns="http://www.w3.org/2000/svg" xmlns:xlink="http://www.w3.org/1999/xlink" x="0px" y="0px"
	 viewBox="0 0 24 24" style="enable-background:new 0 0 24 24;" xml:space="preserve">
<g>
	<path d="M20.346,16.638l3.38-1.69c0.159-0.08,0.265-0.238,0.275-0.416c0.011-0.178-0.073-0.349-0.222-0.447l-2.561-1.707
		l2.684-3.577c0.125-0.17,0.131-0.402,0.013-0.579c-0.118-0.176-0.334-0.257-0.541-0.205L20.21,8.842l2.467-4.561
		C23.331,3.041,24,1.622,24,0.5c0-0.203-0.123-0.386-0.311-0.463c-0.188-0.077-0.404-0.032-0.546,0.113l-8.987,9.165
		c-1.269,0.994-3.042,0.995-4.265,0.043L0.856,0.15C0.713,0.005,0.5-0.04,0.31,0.037C0.122,0.114-0.001,0.297-0.001,0.5
		c0,1.139,0.521,2.189,1.31,3.779l2.455,4.555L0.625,8.015C0.434,7.965,0.234,8.032,0.11,8.184
		c-0.123,0.152-0.146,0.363-0.059,0.539l1.839,3.678l-1.745,1.745C0.039,14.252-0.014,14.4,0,14.549
		c0.016,0.149,0.096,0.284,0.221,0.367l2.561,1.707L0.1,20.201c-0.124,0.166-0.133,0.391-0.022,0.566
		c0.11,0.175,0.321,0.267,0.521,0.224l4.759-0.952C6.325,20.873,10.076,24,12.002,24c1.726,0,5.645-3.144,6.637-3.963l4.766,0.953
		c0.213,0.047,0.435-0.06,0.538-0.254c0.104-0.194,0.069-0.434-0.087-0.589L20.346,16.638z M5.257,15.501
		c0.01-0.095,0.038-0.223,0.073-0.363c0.009-0.036,0.018-0.071,0.028-0.109c0.039-0.145,0.087-0.303,0.146-0.48
		c0.01-0.031,0.023-0.066,0.034-0.098c0.054-0.156,0.115-0.323,0.181-0.496c0.022-0.057,0.043-0.114,0.066-0.173
		c0.08-0.204,0.167-0.416,0.26-0.633c0.005-0.013,0.011-0.025,0.017-0.038l1.292,2.39H5.257z M10.854,20.855
		c-0.098,0.098-0.226,0.146-0.354,0.146s-0.256-0.049-0.354-0.146l-1-1c-0.195-0.195-0.195-0.512,0-0.707s0.512-0.195,0.707,0l1,1
		C11.049,20.343,11.049,20.659,10.854,20.855z M14.854,19.855l-1,1c-0.098,0.098-0.226,0.146-0.354,0.146s-0.256-0.049-0.354-0.146
		c-0.195-0.195-0.195-0.512,0-0.707l1-1c0.195-0.195,0.512-0.195,0.707,0S15.049,19.659,14.854,19.855z M16.609,15.5l1.312-2.427
		c0.006,0.013,0.012,0.026,0.017,0.039c0.1,0.231,0.192,0.456,0.277,0.673c0.015,0.039,0.029,0.076,0.044,0.114
		c0.077,0.199,0.147,0.391,0.208,0.568c0.007,0.02,0.015,0.042,0.022,0.061c0.063,0.186,0.112,0.352,0.154,0.503
		c0.009,0.034,0.017,0.065,0.025,0.097c0.036,0.144,0.065,0.275,0.075,0.372H16.609z"/>
</g>
</svg>
