<?xml version="1.0" encoding="iso-8859-1"?>
<!-- Generator: Adobe Illustrator 19.0.0, SVG Export Plug-In . SVG Version: 6.00 Build 0)  -->
<svg version="1.1" id="Layer_1" xmlns="http://www.w3.org/2000/svg" xmlns:xlink="http://www.w3.org/1999/xlink" x="0px" y="0px"
	 viewBox="0 0 24 24" style="enable-background:new 0 0 24 24;" xml:space="preserve">
<g>
	<circle cx="8.999" cy="16.501" r="1"/>
	<circle cx="14.999" cy="16.501" r="1"/>
	<path d="M18.676,13.793c0.67-2.562-0.172-4.868-0.208-4.967c-0.074-0.2-0.262-0.32-0.484-0.325
		c-0.081,0.003-1.89,0.072-3.253,1.143C12.96,8.801,11.04,8.8,9.266,9.647c-1.362-1.071-3.169-1.144-3.25-1.146
		c-0.197-0.016-0.41,0.124-0.485,0.325c-0.036,0.099-0.88,2.412-0.205,4.978l-0.099,0.293C4.87,15.153,4.499,16.245,4.499,17.5
		c0,4.009,2.874,6.5,7.5,6.5c4.626,0,7.5-2.491,7.5-6.5c0-1.217-0.351-2.276-0.689-3.3L18.676,13.793z M7.339,17.696
		c-0.223-0.498-0.34-1.084-0.34-1.695c0-1.587,1.118-3,2-3c0.9,0,2,1.384,2,3c0,0.617-0.119,1.207-0.344,1.706
		c-0.081,0.179-0.26,0.294-0.456,0.294H7.864c-0.015,0.001-0.029,0.002-0.045,0.002c-0.009,0-0.018,0-0.026,0
		c-0.183-0.002-0.356-0.105-0.441-0.278C7.347,17.715,7.343,17.706,7.339,17.696z M16.353,19.855l-0.707,0.707
		c-0.279,0.279-0.666,0.439-1.061,0.439h-1.468l-0.895,0.447c-0.07,0.035-0.147,0.053-0.224,0.053c-0.077,0-0.153-0.018-0.224-0.053
		l-0.893-0.447H9.413c-0.395,0-0.781-0.16-1.061-0.439l-0.707-0.707c-0.195-0.195-0.195-0.512,0-0.707s0.512-0.195,0.707,0
		l0.707,0.707c0.093,0.093,0.222,0.146,0.354,0.146h1.586c0.077,0,0.154,0.018,0.224,0.053l0.776,0.388l0.776-0.388
		c0.069-0.035,0.146-0.053,0.224-0.053h1.586c0.132,0,0.261-0.053,0.354-0.146l0.707-0.707c0.195-0.195,0.512-0.195,0.707,0
		S16.548,19.659,16.353,19.855z M16.655,17.707c-0.081,0.179-0.26,0.294-0.456,0.294h-2.335c-0.015,0.001-0.029,0.002-0.045,0.002
		c-0.009,0-0.018,0-0.026,0c-0.183-0.002-0.356-0.105-0.441-0.278c-0.005-0.009-0.009-0.019-0.013-0.028
		c-0.223-0.498-0.34-1.084-0.34-1.695c0-1.587,1.118-3,2-3c0.9,0,2,1.384,2,3C16.999,16.618,16.88,17.208,16.655,17.707z"/>
	<path d="M11.626,2.783c0.095,0.106,0.23,0.167,0.373,0.167s0.278-0.061,0.373-0.167c0.313-0.352,0.639-0.674,0.961-0.979
		c0.097-0.091,0.152-0.217,0.156-0.35c0.003-0.133-0.046-0.261-0.138-0.357c-0.509-0.534-1.008-0.959-1.028-0.977
		c-0.188-0.159-0.461-0.159-0.648,0c-0.021,0.018-0.52,0.443-1.028,0.977c-0.092,0.096-0.141,0.225-0.138,0.357
		c0.004,0.133,0.06,0.259,0.156,0.35C10.987,2.109,11.312,2.431,11.626,2.783z"/>
	<path d="M19.655,7.109c-1.623-1.728-3.156-3.36-3.156-5.608c0-0.19-0.107-0.363-0.277-0.448c-0.17-0.085-0.374-0.066-0.524,0.049
		C15.365,1.354,13.036,3.161,12,4.964c-1.037-1.803-3.365-3.61-3.698-3.862C8.153,0.988,7.948,0.969,7.778,1.053
		c-0.17,0.084-0.277,0.258-0.277,0.448c0,2.248-1.533,3.88-3.156,5.608C2.543,9.027,0.501,11.2,0.501,14.501
		c0,3.16,1.1,5.723,3.18,7.411c0.092,0.075,0.204,0.112,0.315,0.112c0.115,0,0.229-0.04,0.323-0.118
		c0.183-0.155,0.23-0.419,0.112-0.628C3.814,20.187,3.5,18.916,3.5,17.501c0-1.415,0.411-2.632,0.742-3.61
		c0.028-0.084,0.034-0.175,0.016-0.263c-0.553-2.645,0.244-4.903,0.337-5.151c0.218-0.583,0.781-0.976,1.453-0.976
		c0.001,0,0.001,0,0.002,0C6.219,7.507,7.744,7.58,9.183,8.393c0.126,0.07,0.276,0.083,0.414,0.036
		C10.394,8.145,11.202,8.001,12,8.001c0.798,0,1.605,0.143,2.402,0.426c0.135,0.048,0.286,0.035,0.413-0.036
		c1.442-0.814,2.969-0.884,3.185-0.89c0.623,0,1.187,0.392,1.405,0.976c0.093,0.248,0.89,2.501,0.338,5.146
		c-0.019,0.086-0.009,0.187,0.019,0.271c0.347,1.046,0.738,2.232,0.738,3.607c0,1.415-0.313,2.686-0.931,3.777
		c-0.118,0.209-0.07,0.473,0.112,0.628c0.094,0.079,0.208,0.118,0.323,0.118c0.111,0,0.224-0.037,0.315-0.112
		c2.08-1.688,3.18-4.251,3.18-7.411C23.499,11.2,21.457,9.027,19.655,7.109z"/>
</g>
</svg>
