<?xml version="1.0" encoding="iso-8859-1"?>
<!-- Generator: Adobe Illustrator 19.0.0, SVG Export Plug-In . SVG Version: 6.00 Build 0)  -->
<svg version="1.1" id="Layer_1" xmlns="http://www.w3.org/2000/svg" xmlns:xlink="http://www.w3.org/1999/xlink" x="0px" y="0px"
	 viewBox="0 0 24 24" style="enable-background:new 0 0 24 24;" xml:space="preserve">
<g>
	<circle cx="16.5" cy="9" r="1"/>
	<circle cx="7.5" cy="9" r="1"/>
	<path d="M22.901,13.218C22.694,12.962,22.5,12.72,22.5,12.5C22.5,5.724,17.691,0,12,0S1.5,5.724,1.5,12.5
		c0,0.235-0.187,0.462-0.401,0.725C0.832,13.55,0.5,13.954,0.5,14.5C0.5,20.447,6.347,24,12,24s11.5-3.553,11.5-9.5
		C23.5,13.962,23.182,13.567,22.901,13.218z M17,6c1.425,0,2.5,2.149,2.5,5c0,0.943-0.124,1.857-0.357,2.643
		C19.08,13.855,18.885,14,18.664,14h-3.326c-0.221,0-0.415-0.145-0.479-0.356C14.62,12.853,14.5,11.964,14.5,11
		C14.5,8.149,15.575,6,17,6z M16.087,17.593l-0.003,0.005l-0.001-0.001L16.087,17.593z M14,15c0.276,0,0.5,0.224,0.5,0.5
		S14.276,16,14,16s-0.5-0.224-0.5-0.5S13.724,15,14,15z M10,15c0.276,0,0.5,0.224,0.5,0.5S10.276,16,10,16s-0.5-0.224-0.5-0.5
		S9.724,15,10,15z M7,6c1.425,0,2.5,2.149,2.5,5c0,0.943-0.124,1.857-0.357,2.643C9.08,13.855,8.885,14,8.664,14H5.338
		c-0.221,0-0.415-0.145-0.479-0.356C4.62,12.853,4.5,11.964,4.5,11C4.5,8.149,5.575,6,7,6z M21.138,16.667
		C19.899,20.168,15.603,22,12,22c-3.603,0-7.898-1.832-9.138-5.333c-0.054-0.153-0.03-0.323,0.063-0.456
		C3.019,16.078,3.171,16,3.333,16c0.699,0,1.509,0.044,2.422,0.129l1.828,2.649c0.093,0.139,0.249,0.223,0.416,0.223
		s0.323-0.083,0.416-0.223l1.389-2.109c0.508,0.083,1.028,0.172,1.574,0.271c0.415,0.075,0.827,0.075,1.24,0
		c0.573-0.104,1.119-0.197,1.651-0.284l1.398,2.122c0.093,0.139,0.249,0.223,0.416,0.223s0.323-0.084,0.416-0.223l1.833-2.657
		c0.873-0.079,1.655-0.12,2.333-0.12c0.162,0,0.314,0.079,0.408,0.211C21.168,16.343,21.191,16.513,21.138,16.667z"/>
</g>
</svg>
