<?xml version="1.0" encoding="iso-8859-1"?>
<!-- Generator: Adobe Illustrator 19.0.0, SVG Export Plug-In . SVG Version: 6.00 Build 0)  -->
<svg version="1.1" id="Layer_1" xmlns="http://www.w3.org/2000/svg" xmlns:xlink="http://www.w3.org/1999/xlink" x="0px" y="0px"
	 viewBox="0 0 24 24" style="enable-background:new 0 0 24 24;" xml:space="preserve">
<g>
	<path d="M19.327,0.565c-0.286-0.357-0.713-0.562-1.265-0.562c-0.601,0-1.142,0.357-1.378,0.909l-2.611,6.091H9.926L7.315,0.912
		C7.078,0.36,6.538,0.003,5.842,0.003c-0.458,0-0.884,0.205-1.17,0.562C4.387,0.921,4.28,1.382,4.379,1.828l1.709,7.69l-0.819,5.074
		c-0.131,0.656,0.001,1.322,0.371,1.877l1.43,2.146c0.037,0.055,0.062,0.115,0.081,0.208l0.835,3.257
		c0.034,0.196,0.362,1.917,1.514,1.917c0.615,0,0.985-0.141,1.313-0.265c0.326-0.124,0.607-0.23,1.184-0.23
		c0.589,0,0.871,0.107,1.197,0.231c0.325,0.123,0.693,0.263,1.306,0.263c1.151,0,1.48-1.721,1.506-1.878l0.85-3.325
		c0.013-0.065,0.038-0.125,0.075-0.181l1.43-2.145c0.37-0.556,0.502-1.223,0.375-1.859l-0.822-5.093l1.708-7.689
		C19.72,1.382,19.613,0.921,19.327,0.565z M7.997,16.003c-0.154,0-0.299-0.071-0.394-0.192c-0.095-0.121-0.128-0.279-0.091-0.429
		l0.492-1.967l-0.423-0.634c-0.153-0.23-0.091-0.54,0.139-0.693c0.229-0.154,0.54-0.091,0.693,0.139l2,3
		c0.102,0.153,0.112,0.351,0.025,0.513c-0.087,0.162-0.257,0.263-0.441,0.263H7.997z M11.444,21.227
		c-0.088,0.175-0.264,0.276-0.448,0.276c-0.075,0-0.151-0.017-0.223-0.053l-1-0.5c-0.247-0.124-0.347-0.424-0.224-0.671
		c0.124-0.247,0.423-0.346,0.671-0.224l1,0.5C11.467,20.679,11.567,20.98,11.444,21.227z M14.22,20.95l-1,0.5
		c-0.072,0.036-0.148,0.053-0.223,0.053c-0.184,0-0.36-0.101-0.448-0.276c-0.124-0.247-0.023-0.547,0.224-0.671l1-0.5
		c0.248-0.123,0.547-0.023,0.671,0.224C14.567,20.526,14.467,20.827,14.22,20.95z M16.481,15.382
		c0.038,0.149,0.004,0.308-0.091,0.429c-0.095,0.122-0.24,0.192-0.394,0.192h-2c-0.185,0-0.354-0.102-0.441-0.264
		c-0.087-0.162-0.077-0.36,0.025-0.513l2-3c0.152-0.23,0.462-0.292,0.693-0.139c0.23,0.153,0.292,0.463,0.139,0.693l-0.423,0.634
		L16.481,15.382z"/>
</g>
</svg>
