<?xml version="1.0" encoding="iso-8859-1"?>
<!-- Generator: Adobe Illustrator 19.0.0, SVG Export Plug-In . SVG Version: 6.00 Build 0)  -->
<svg version="1.1" id="Layer_1" xmlns="http://www.w3.org/2000/svg" xmlns:xlink="http://www.w3.org/1999/xlink" x="0px" y="0px"
	 viewBox="0 0 24 24" style="enable-background:new 0 0 24 24;" xml:space="preserve">
<g>
	<path d="M22.137,11.327l-1.144,0.286c-0.01-0.285-0.03-0.569-0.062-0.851c0.683-0.865,1.269-1.926,1.741-3.153
		C23.985,4.199,24,0.65,24,0.501c0-0.138-0.057-0.27-0.157-0.364c-0.1-0.094-0.233-0.139-0.372-0.135
		c-0.083,0.005-2.058,0.134-4.545,1.365c-0.847,0.419-1.656,0.919-2.41,1.488C15.712,1.168,13.989,0.001,12,0.001
		c-0.306,0-0.603,0.037-0.893,0.09c-0.087,0.016-0.173,0.036-0.259,0.057c-0.215,0.051-0.423,0.117-0.626,0.195
		c-0.076,0.029-0.154,0.053-0.228,0.086C9.747,0.538,9.511,0.668,9.287,0.814C9.192,0.876,9.104,0.949,9.014,1.017
		C8.887,1.112,8.765,1.212,8.649,1.319C8.542,1.418,8.436,1.518,8.337,1.627c-0.071,0.077-0.134,0.161-0.2,0.243
		C7.892,2.176,7.672,2.505,7.501,2.869C7.5,2.869,7.5,2.868,7.499,2.868C7.187,3.516,7,4.233,7,5.001c0,1.93,1.57,3.5,3.5,3.5
		s3.5-1.57,3.5-3.5c0-1.103-0.897-2-2-2c-1.103,0-2,0.897-2,2c0,0.276-0.224,0.5-0.5,0.5S9,5.277,9,5.001c0-1.654,1.346-3,3-3
		s3,1.346,3,3c0,2.481-2.019,4.5-4.5,4.5S6,7.481,6,5.001c0-0.977,0.239-1.897,0.655-2.712C6.144,1.954,5.621,1.637,5.074,1.368
		c-2.487-1.231-4.462-1.36-4.545-1.365C0.394,0,0.258,0.043,0.157,0.138C0.056,0.232,0,0.363,0,0.501
		C0,0.65,0.015,4.199,1.327,7.608C1.8,8.835,2.386,9.895,3.068,10.761c-0.031,0.282-0.052,0.566-0.062,0.851l-1.144-0.286
		C0.929,11.092,0,11.832-0.001,12.78c0,1.25,0.75,2.358,1.911,2.822l1.637,0.655c0.181,0.736,1.034,4.07,2.293,6.73
		c0.304,0.643,0.818,1.012,1.413,1.012h0.628c0.572,0,1.087-0.318,1.342-0.829l0.717-1.434c1.342,0.35,2.777,0.35,4.119,0
		l0.717,1.433c0.255,0.512,0.77,0.83,1.342,0.83h0.628c0.595,0,1.109-0.369,1.413-1.011c1.259-2.661,2.112-5.995,2.293-6.731
		l1.637-0.655c1.161-0.464,1.911-1.572,1.911-2.822C24,11.832,23.069,11.092,22.137,11.327z M3.97,2.137
		C3.787,2.384,3.616,2.629,3.453,2.876C3.408,2.944,3.358,3.012,3.315,3.079C3.114,3.394,2.93,3.704,2.76,4.009
		C2.714,4.092,2.675,4.171,2.631,4.251C2.508,4.48,2.392,4.704,2.285,4.922C2.238,5.018,2.195,5.11,2.151,5.204
		c-0.099,0.21-0.189,0.412-0.273,0.607c-0.017,0.041-0.04,0.087-0.057,0.127C1.236,3.918,1.067,1.994,1.018,1.07
		c0.63,0.106,1.742,0.354,3.049,0.93C4.032,2.046,4.004,2.092,3.97,2.137z M10,11.501c0,0.276-0.224,0.5-0.5,0.5S9,11.777,9,11.501
		v-1c0-0.276,0.224-0.5,0.5-0.5s0.5,0.224,0.5,0.5V11.501z M13.799,13.902c-0.524,0.392-1.165,0.587-1.804,0.587
		c-0.641,0-1.279-0.196-1.797-0.59c-0.221-0.167-0.264-0.48-0.097-0.701s0.482-0.262,0.7-0.096c0.688,0.521,1.696,0.522,2.399-0.002
		c0.22-0.166,0.533-0.121,0.699,0.101C14.065,13.423,14.021,13.736,13.799,13.902z M15,11.501c0,0.276-0.224,0.5-0.5,0.5
		s-0.5-0.224-0.5-0.5v-1c0-0.276,0.224-0.5,0.5-0.5s0.5,0.224,0.5,0.5V11.501z M20.543,2.872c-0.162-0.246-0.333-0.491-0.515-0.736
		c-0.034-0.046-0.062-0.092-0.097-0.138c1.309-0.575,2.422-0.824,3.049-0.928c-0.048,0.923-0.217,2.846-0.802,4.868
		c-0.022-0.053-0.053-0.115-0.076-0.17c-0.076-0.176-0.157-0.357-0.245-0.545c-0.048-0.104-0.096-0.205-0.149-0.312
		c-0.103-0.212-0.216-0.428-0.335-0.649c-0.046-0.086-0.087-0.168-0.136-0.255c-0.17-0.305-0.354-0.615-0.554-0.928
		C20.639,3.01,20.589,2.941,20.543,2.872z"/>
</g>
</svg>
