<?xml version="1.0" encoding="iso-8859-1"?>
<!-- Generator: Adobe Illustrator 19.0.0, SVG Export Plug-In . SVG Version: 6.00 Build 0)  -->
<svg version="1.1" id="Layer_1" xmlns="http://www.w3.org/2000/svg" xmlns:xlink="http://www.w3.org/1999/xlink" x="0px" y="0px"
	 viewBox="0 0 24 24" style="enable-background:new 0 0 24 24;" xml:space="preserve">
<g>
	<path d="M21,20H3c-1.378,0-2.5,1.122-2.5,2.5v1C0.5,23.776,0.724,24,1,24h22c0.276,0,0.5-0.224,0.5-0.5v-1
		C23.5,21.122,22.378,20,21,20z"/>
	<path d="M9.807,5.462c1.665,0.697,2.918,2.086,3.438,3.813c0.042,0.14,0.143,0.254,0.276,0.313
		c0.064,0.029,0.134,0.043,0.203,0.043c0.073,0,0.147-0.016,0.215-0.048c1.546-0.736,3.319-0.77,4.869-0.121
		c0.154,0.064,0.331,0.048,0.47-0.045c0.14-0.092,0.223-0.249,0.223-0.416V5C19.5,2.243,17.257,0,14.5,0s-5,2.244-5,5.001
		C9.5,5.203,9.621,5.384,9.807,5.462z M16.5,3.5C16.5,3.224,16.724,3,17,3s0.5,0.224,0.5,0.5v1C17.5,4.776,17.276,5,17,5
		s-0.5-0.224-0.5-0.5V3.5z M15,6c0.869,0,1.5,0.42,1.5,1c0,0.58-0.631,1-1.5,1s-1.5-0.42-1.5-1C13.5,6.42,14.131,6,15,6z M12.5,3.5
		C12.5,3.224,12.724,3,13,3s0.5,0.224,0.5,0.5v1C13.5,4.776,13.276,5,13,5s-0.5-0.224-0.5-0.5V3.5z"/>
	<path d="M3,19h7c0.276,0,0.5-0.224,0.5-0.5V15c0-1.613,0.635-3.128,1.789-4.267c0.113-0.111,0.166-0.269,0.144-0.425
		C12.089,7.852,9.969,6,7.5,6c-2.757,0-5,2.243-5,5v7.5C2.5,18.776,2.724,19,3,19z M9.5,9.5C9.5,9.224,9.724,9,10,9
		s0.5,0.224,0.5,0.5v1c0,0.276-0.224,0.5-0.5,0.5s-0.5-0.224-0.5-0.5V9.5z M8,12c0.869,0,1.5,0.42,1.5,1S8.869,14,8,14
		s-1.5-0.42-1.5-1S7.131,12,8,12z M5.5,9.5C5.5,9.224,5.724,9,6,9s0.5,0.224,0.5,0.5v1C6.5,10.776,6.276,11,6,11s-0.5-0.224-0.5-0.5
		V9.5z"/>
	<path d="M11.5,15v3.5c0,0.276,0.224,0.5,0.5,0.5h9c0.276,0,0.5-0.224,0.5-0.5V15c0-2.757-2.243-5-5-5S11.5,12.243,11.5,15z M15,15
		c-0.276,0-0.5-0.224-0.5-0.5v-1c0-0.276,0.224-0.5,0.5-0.5s0.5,0.224,0.5,0.5v1C15.5,14.776,15.276,15,15,15z M18.5,13.5
		c0-0.276,0.224-0.5,0.5-0.5s0.5,0.224,0.5,0.5v1c0,0.276-0.224,0.5-0.5,0.5s-0.5-0.224-0.5-0.5V13.5z M18.5,17
		c0,0.58-0.631,1-1.5,1s-1.5-0.42-1.5-1s0.631-1,1.5-1S18.5,16.42,18.5,17z"/>
</g>
</svg>
