<?xml version="1.0" encoding="iso-8859-1"?>
<!-- Generator: Adobe Illustrator 19.0.0, SVG Export Plug-In . SVG Version: 6.00 Build 0)  -->
<svg version="1.1" id="Layer_1" xmlns="http://www.w3.org/2000/svg" xmlns:xlink="http://www.w3.org/1999/xlink" x="0px" y="0px"
	 viewBox="0 0 24 24" style="enable-background:new 0 0 24 24;" xml:space="preserve">
<g>
	<path d="M16,12.435v0.595c0,1.609-1.09,3.005-2.651,3.396l-1.757,0.439c-0.356,0.089-0.723,0.134-1.092,0.134
		c-0.368,0-0.735-0.045-1.091-0.133l-1.758-0.44C6.09,16.036,5,14.639,5,13.03v-0.595c-1.776,0.777-3,2.53-3,4.564
		c0,2.296,3.056,4.785,3.187,4.889c0.133,0.107,0.312,0.138,0.473,0.085c0.033-0.011,0.736-0.249,1.665-0.66
		c1.135,1.347,2.628,2.414,2.89,2.596c0.085,0.06,0.185,0.09,0.285,0.09c0.1,0,0.2-0.03,0.286-0.09
		c0.261-0.183,1.754-1.25,2.89-2.596c0.929,0.412,1.632,0.649,1.665,0.66c0.146,0.047,0.308,0.027,0.438-0.059
		C15.91,21.826,19,19.72,19,16.999C19,14.964,17.776,13.211,16,12.435z"/>
	<path d="M21.95,3.28c-0.076-0.156-0.228-0.262-0.401-0.279c-0.224-0.023-2.302-0.119-7.957,2.882l-0.738-0.738
		c-0.113-0.113-0.273-0.165-0.434-0.14c-0.159,0.026-0.295,0.126-0.367,0.27l-0.247,0.494l-1.029-0.686
		c-0.12-0.08-0.268-0.105-0.406-0.067c-0.139,0.037-0.255,0.131-0.319,0.26L9.805,5.77L8.776,5.084
		C8.658,5.006,8.515,4.98,8.377,5.015C8.24,5.049,8.125,5.14,8.058,5.265L7.981,5.41c-1.99-3.395-5.086-5.256-5.227-5.339
		c-0.173-0.103-0.39-0.092-0.552,0.028C2.04,0.218,1.966,0.423,2.013,0.618c0.041,0.171,1.016,4.124,4.085,7.184
		C6.033,8.025,6,8.259,6,8.499v4.531c0,1.149,0.779,2.146,1.894,2.425l1.757,0.44c0.278,0.069,0.563,0.104,0.849,0.104
		s0.571-0.035,0.849-0.104l1.757-0.439C14.221,15.177,15,14.18,15,13.031V8.807c5.435-2.775,6.862-4.946,6.921-5.038
		C22.015,3.622,22.026,3.436,21.95,3.28z M8,10.499v-1c0-0.276,0.224-0.5,0.5-0.5S9,9.223,9,9.499v1c0,0.276-0.224,0.5-0.5,0.5
		S8,10.775,8,10.499z M12.405,12.792c-0.436,0.604-0.888,0.715-1.197,0.706c-0.284-0.011-0.521-0.128-0.704-0.268
		c-0.18,0.14-0.414,0.258-0.696,0.272c-0.017,0-0.034,0.001-0.051,0.001c-0.306,0-0.739-0.13-1.162-0.71
		c-0.163-0.223-0.114-0.536,0.109-0.698c0.223-0.162,0.536-0.114,0.698,0.109c0.164,0.225,0.285,0.313,0.356,0.299
		c0.095-0.003,0.246-0.155,0.312-0.263c0.091-0.148,0.253-0.24,0.427-0.24h0.001c0.174,0,0.336,0.089,0.427,0.237
		c0.066,0.105,0.223,0.258,0.32,0.261c0.061,0.013,0.189-0.073,0.348-0.293c0.161-0.224,0.473-0.275,0.698-0.112
		C12.517,12.255,12.567,12.568,12.405,12.792z M13,10.499c0,0.276-0.224,0.5-0.5,0.5s-0.5-0.224-0.5-0.5v-1
		c0-0.276,0.224-0.5,0.5-0.5s0.5,0.224,0.5,0.5V10.499z"/>
</g>
</svg>
