<?xml version="1.0" encoding="iso-8859-1"?>
<!-- Generator: Adobe Illustrator 19.0.0, SVG Export Plug-In . SVG Version: 6.00 Build 0)  -->
<svg version="1.1" id="Layer_1" xmlns="http://www.w3.org/2000/svg" xmlns:xlink="http://www.w3.org/1999/xlink" x="0px" y="0px"
	 viewBox="0 0 24 24" style="enable-background:new 0 0 24 24;" xml:space="preserve">
<g>
	<path d="M22.974,9.799l-2.087-0.696c-0.112-0.293-0.33-0.802-0.615-1.256l2.968-1.632C23.709,5.957,24,5.465,24,4.93
		c0-0.81-0.658-1.468-1.467-1.468c-0.187,0-0.369,0.035-0.545,0.105l-3.984,1.594c-1.35-1.106-2.951-1.803-4.673-2.045l-0.34-2.209
		c-0.12-0.628-0.585-0.909-0.992-0.909c-0.492,0-0.9,0.378-0.993,0.927l-0.337,2.192c-1.692,0.238-3.27,0.925-4.656,2.051
		L2.012,3.567c-0.176-0.07-0.358-0.105-0.545-0.105C0.658,3.462,0,4.12,0,4.93c0,0.535,0.291,1.027,0.76,1.285l2.968,1.632
		C3.442,8.301,3.225,8.811,3.112,9.104L1.025,9.8C0.412,10.005,0,10.576,0,11.223v0.602c0,0.617,0.37,1.164,0.943,1.393l3.114,1.246
		c0.572,0.229,0.942,0.776,0.942,1.393c0,0.081-0.065,0.146-0.146,0.146H4.499c-0.827,0-1.5,0.673-1.5,1.5v0.323
		c0,0.617,0.37,1.164,0.943,1.393c0.032,0.013,0.065,0.022,0.1,0.028c0.027,0.005,2.542,0.455,4.09,1.614
		c-0.018,0.205-0.03,0.408-0.053,0.615c-0.049,0.435-0.08,0.809-0.08,1.032c0,0.824,0.673,1.494,1.5,1.494h5
		c0.827,0,1.5-0.67,1.5-1.494c0-0.224-0.031-0.597-0.08-1.031c-0.023-0.201-0.033-0.397-0.051-0.596
		c1.549-1.163,4.065-1.631,4.091-1.635c0.033-0.006,0.065-0.016,0.097-0.028c0.573-0.229,0.943-0.776,0.943-1.393v-0.323
		c0-0.827-0.673-1.5-1.5-1.5h-0.354c-0.08,0-0.146-0.065-0.146-0.146c0-0.617,0.37-1.164,0.942-1.393l3.114-1.246
		c0.573-0.229,0.943-0.776,0.943-1.393v-0.602C23.999,10.575,23.587,10.003,22.974,9.799z M6.509,12
		c-0.687,0.001-1.048-0.323-1.23-0.596C4.766,10.637,5.07,9.387,5.296,8.709l4.282,2.354C9.053,11.366,7.805,12,6.509,12z
		 M14.499,23.001h-0.5v-1.5c0-0.276-0.224-0.5-0.5-0.5s-0.5,0.224-0.5,0.5v1.5h-2v-1.5c0-0.276-0.224-0.5-0.5-0.5
		s-0.5,0.224-0.5,0.5v1.5h-0.5c-0.275,0-0.5-0.222-0.5-0.494c0-0.199,0.029-0.532,0.074-0.92c0.035-0.311,0.055-0.615,0.079-0.922
		c0.031-0.391,0.054-0.78,0.068-1.165c0.004-0.096,0.006-0.191,0.009-0.286c0.002-0.064,0.005-0.129,0.006-0.193
		c1.592,0.067,2.567,0.44,2.578,0.445c0.059,0.023,0.122,0.035,0.186,0.035c0.066,0,0.133-0.013,0.194-0.039
		c0.011-0.004,0.994-0.402,2.568-0.475c0.002,0.089,0.006,0.18,0.008,0.269c0.002,0.078,0.004,0.156,0.007,0.234
		c0.014,0.389,0.037,0.781,0.069,1.175c0,0.006,0,0.011,0.001,0.017c0,0.001,0.001,0.002,0.001,0.002
		c0.024,0.301,0.043,0.599,0.077,0.904c0.045,0.387,0.074,0.719,0.074,0.918C14.999,22.779,14.774,23.001,14.499,23.001z
		 M14.909,15.668c-0.049,0.436-0.084,0.874-0.11,1.313c-0.015,0.251-0.02,0.504-0.028,0.755c-0.002,0.083-0.008,0.165-0.009,0.248
		c-1.39,0.058-2.374,0.347-2.768,0.485c-0.391-0.13-1.365-0.398-2.756-0.451c-0.002-0.121-0.01-0.241-0.013-0.361
		c-0.008-0.22-0.012-0.441-0.025-0.661c-0.026-0.444-0.061-0.886-0.111-1.327c-0.06-0.532-0.09-0.927-0.09-1.174
		c0-0.085,0.023-0.157,0.056-0.221c0.012-0.023,0.03-0.041,0.046-0.061c0.028-0.036,0.057-0.071,0.093-0.098
		c0.019-0.014,0.041-0.025,0.062-0.037c0.043-0.023,0.089-0.041,0.137-0.051c0.019-0.004,0.038-0.008,0.058-0.01
		c0.067-0.007,0.136-0.007,0.201,0.011c0.118,0.033,0.23,0.046,0.347,0.073V15.5c0,0.276,0.224,0.5,0.5,0.5s0.5-0.224,0.5-0.5
		v-1.209c0.671,0.084,1.331,0.084,2,0.001v1.209c0,0.276,0.224,0.5,0.5,0.5s0.5-0.224,0.5-0.5v-1.398
		c0.116-0.028,0.228-0.041,0.346-0.073c0.297-0.083,0.654,0.1,0.654,0.466C14.999,14.742,14.969,15.137,14.909,15.668z
		 M18.729,11.404c-0.182,0.272-0.543,0.597-1.23,0.597c-1.299,0-2.551-0.637-3.073-0.939l4.284-2.356
		C18.937,9.383,19.244,10.636,18.729,11.404z M19.297,7.241c-0.001,0.001-0.003,0.001-0.004,0.001l-5.992,3.298
		c-1.158,0.504-1.529,0.491-2.559,0.021L1.243,5.336c-0.151-0.08-0.244-0.237-0.244-0.407c0-0.289,0.242-0.468,0.467-0.468
		c0.059,0,0.117,0.011,0.174,0.034l8.674,3.47c0.06,0.024,0.123,0.036,0.186,0.036c0.006,0,0.011-0.004,0.016-0.004
		c0.081-0.003,0.16-0.021,0.232-0.062c0.132-0.076,0.223-0.208,0.246-0.358l0.999-6.493C11.995,1.072,11.997,1.061,12,1.051
		c0.002,0.008,0.004,0.016,0.006,0.025l1,6.5c0.023,0.15,0.114,0.282,0.246,0.358c0.071,0.041,0.151,0.059,0.232,0.062
		C13.49,7.996,13.495,8,13.5,8c0.062,0,0.126-0.012,0.186-0.036l4.422-1.769l0.001-0.001l4.251-1.701
		c0.273-0.111,0.641,0.069,0.641,0.434c0,0.17-0.093,0.327-0.242,0.409L19.297,7.241z"/>
	<circle cx="7.499" cy="10.501" r="0.5"/>
	<circle cx="16.499" cy="10.501" r="0.5"/>
</g>
</svg>
