<?xml version="1.0" encoding="iso-8859-1"?>
<!-- Generator: Adobe Illustrator 19.0.0, SVG Export Plug-In . SVG Version: 6.00 Build 0)  -->
<svg version="1.1" id="Layer_1" xmlns="http://www.w3.org/2000/svg" xmlns:xlink="http://www.w3.org/1999/xlink" x="0px" y="0px"
	 viewBox="0 0 24 24" style="enable-background:new 0 0 24 24;" xml:space="preserve">
<g>
	<circle cx="6.5" cy="11.5" r="1"/>
	<circle cx="16.5" cy="11.5" r="1"/>
	<path d="M12,10c1.305,0,2.367-1.008,2.478-2.284c-0.076,0.01-0.153,0.034-0.228,0.034h-1c-0.275,0-0.5,0.224-0.5,0.5
		c0,0.276-0.224,0.5-0.5,0.5s-0.5-0.224-0.5-0.5c0-0.827,0.673-1.5,1.5-1.5h1c0.073,0,0.155-0.014,0.243-0.04
		c0.341-0.193,0.66-0.469,0.914-0.824c0.624-0.871,0.761-2.016,0.378-3.14c-0.493-1.444-1.758-2.507-3.223-2.708
		c-1.159-0.157-2.319,0.187-3.19,0.947C8.5,1.746,8,2.844,8,4C8,6.037,9.412,10,12,10z"/>
	<path d="M21.38,15.477C21.791,14.367,22,13.199,22,12c0-0.271-0.011-0.542-0.032-0.812c2.102-3.661,2.035-9.45,2.031-9.696
		c-0.004-0.27-0.222-0.487-0.49-0.492c-0.004,0-0.104,0-0.106,0c-0.721,0-3.967,0.075-6.734,1.276
		c0.019,0.05,0.045,0.097,0.062,0.148c0.488,1.433,0.303,2.907-0.511,4.044c-0.209,0.293-0.453,0.552-0.726,0.772
		C15.499,7.33,15.5,7.417,15.5,7.499c0,1.93-1.57,3.5-3.5,3.5c-3.329,0-5-4.488-5-7C7,3.4,7.113,2.815,7.317,2.266
		C4.555,1.074,1.321,0.999,0.602,0.999H0.491c-0.27,0.005-0.486,0.223-0.49,0.492c-0.004,0.246-0.07,6.037,2.032,9.697
		c-0.021,0.27-0.032,0.542-0.032,0.816c0,1.198,0.209,2.365,0.62,3.476c-1.728,1.229-2.527,2.724-2.563,2.791
		c-0.118,0.224-0.05,0.501,0.159,0.645c0.11,0.076,0.741,0.456,2.3,0.456c0.728,0,1.552-0.084,2.458-0.252
		c0.337,0.332,0.695,0.64,1.073,0.92c-0.773,0.197-1.472,0.491-2.004,0.849C3,21.59,2.955,22.28,3.021,22.629
		c0.161,0.857,1.209,1.37,2.802,1.37c0.483,0,0.987-0.049,1.499-0.146c1.453-0.273,3.001-0.969,3.451-1.929
		c0.813,0.1,1.634,0.101,2.464-0.001c0.448,0.961,1.997,1.657,3.451,1.931C17.2,23.951,17.704,24,18.187,24
		c1.594,0,2.642-0.512,2.803-1.37c0.065-0.349,0.021-1.039-1.023-1.74c-0.536-0.359-1.238-0.655-2.017-0.852
		c0.379-0.281,0.738-0.589,1.076-0.922c0.904,0.167,1.729,0.252,2.458,0.252c1.559,0,2.189-0.38,2.3-0.457
		c0.209-0.144,0.277-0.42,0.159-0.645C23.907,18.2,23.109,16.709,21.38,15.477z M3.068,7.296c-0.025,0-0.052-0.002-0.077-0.006
		c-0.203-0.032-0.365-0.184-0.41-0.384C2.36,5.93,2.192,4.813,2.094,3.677c-0.013-0.15,0.043-0.299,0.151-0.404
		c0.108-0.104,0.258-0.154,0.409-0.136c1.025,0.129,1.974,0.331,2.819,0.599c0.004,0.001,0.008,0.002,0.013,0.003
		C5.721,3.78,5.9,3.985,5.9,4.232c0,0.211-0.131,0.392-0.316,0.465C4.73,5.359,4.029,6.15,3.499,7.05
		C3.408,7.204,3.243,7.296,3.068,7.296z M7,15c-1.654,0-3-1.346-3-3s1.346-3,3-3s3,1.346,3,3S8.654,15,7,15z M12,20
		c-1.313,0-2-2.264-2-4.5c0-0.276,0.224-0.5,0.5-0.5h3c0.276,0,0.5,0.224,0.5,0.5C14,17.736,13.313,20,12,20z M17,15
		c-1.654,0-3-1.346-3-3s1.346-3,3-3s3,1.346,3,3S18.654,15,17,15z M20.954,7.29c-0.025,0.004-0.052,0.006-0.077,0.006
		c-0.175,0-0.34-0.092-0.431-0.246c-0.541-0.918-1.259-1.722-2.134-2.39c-0.013-0.008-0.025-0.016-0.038-0.025
		c-0.129-0.094-0.209-0.243-0.209-0.403V4.224c0-0.189,0.107-0.363,0.276-0.447c0.05-0.025,0.103-0.041,0.155-0.048
		c0.838-0.264,1.777-0.463,2.794-0.591c0.148-0.018,0.301,0.031,0.409,0.136c0.108,0.105,0.164,0.253,0.151,0.404
		c-0.099,1.136-0.267,2.252-0.487,3.229C21.319,7.106,21.157,7.258,20.954,7.29z"/>
</g>
</svg>
