<?xml version="1.0" encoding="iso-8859-1"?>
<!-- Generator: Adobe Illustrator 19.0.0, SVG Export Plug-In . SVG Version: 6.00 Build 0)  -->
<svg version="1.1" id="Layer_1" xmlns="http://www.w3.org/2000/svg" xmlns:xlink="http://www.w3.org/1999/xlink" x="0px" y="0px"
	 viewBox="0 0 24 24" style="enable-background:new 0 0 24 24;" xml:space="preserve">
<g>
	<path d="M20.397,11.697c0.053-0.365,0.103-0.71,0.103-1.197c0-1.093-0.179-2.205-0.493-3.071l0.492-6.39
		c0.019-0.243-0.141-0.464-0.377-0.523l-2-0.5c-0.131-0.033-0.269-0.011-0.384,0.06s-0.196,0.185-0.226,0.317l-0.694,3.123
		c-2.827-1.961-6.807-1.962-9.636,0L6.488,0.392C6.46,0.26,6.377,0.146,6.262,0.075c-0.114-0.071-0.253-0.093-0.384-0.06l-2,0.5
		c-0.237,0.059-0.396,0.28-0.377,0.523l0.492,6.389C3.676,8.3,3.501,9.384,3.501,10.5c0,0.487,0.05,0.832,0.103,1.197
		c0.114,0.786,0.244,1.677-0.091,4.523c-0.2,1.701,1.532,2.764,1.551,2.771l2.503,2.002l-1.04-3.346
		c-0.082-0.264,0.066-0.544,0.33-0.625c0.267-0.082,0.544,0.066,0.625,0.33l1.807,5.837C9.548,23.688,10.053,24,10.618,24h2.764
		c0.572,0,1.085-0.318,1.341-0.829l1.803-5.819c0.082-0.264,0.36-0.411,0.626-0.329c0.264,0.082,0.411,0.362,0.329,0.626
		l-1.037,3.335l2.438-1.954c0.074-0.044,1.806-1.107,1.606-2.808C20.153,13.375,20.283,12.483,20.397,11.697z M7.001,15.001
		L7.001,15.001C6.787,15,6.595,14.863,6.527,14.661c-0.027-0.081-0.651-1.964-0.03-3.739L5.61,9.813
		C5.437,9.597,5.473,9.283,5.687,9.11c0.216-0.172,0.53-0.137,0.703,0.078l3.813,4.767c0.174-0.078,0.296-0.252,0.296-0.454v-2
		c0-0.276,0.224-0.5,0.5-0.5s0.5,0.224,0.5,0.5v2c0,0.827-0.673,1.5-1.5,1.5H7.001z M11.001,22c-0.276,0-0.5-0.224-0.5-0.5
		s0.224-0.5,0.5-0.5s0.5,0.224,0.5,0.5S11.277,22,11.001,22z M13.001,22c-0.276,0-0.5-0.224-0.5-0.5s0.224-0.5,0.5-0.5
		s0.5,0.224,0.5,0.5S13.277,22,13.001,22z M18.392,9.812l-0.887,1.109c0.622,1.775-0.002,3.658-0.03,3.739
		c-0.069,0.203-0.26,0.34-0.474,0.34h-3c-0.827,0-1.5-0.673-1.5-1.5v-2c0-0.276,0.224-0.5,0.5-0.5s0.5,0.224,0.5,0.5v2
		c0,0.203,0.122,0.376,0.296,0.454l3.813-4.767c0.173-0.214,0.487-0.25,0.703-0.078C18.528,9.282,18.564,9.597,18.392,9.812z"/>
</g>
</svg>
