<?xml version="1.0" encoding="iso-8859-1"?>
<!-- Generator: Adobe Illustrator 19.0.0, SVG Export Plug-In . SVG Version: 6.00 Build 0)  -->
<svg version="1.1" id="Layer_1" xmlns="http://www.w3.org/2000/svg" xmlns:xlink="http://www.w3.org/1999/xlink" x="0px" y="0px"
	 viewBox="0 0 24 24" style="enable-background:new 0 0 24 24;" xml:space="preserve">
<g>
	<path d="M23.693,17.035L21.87,15.82c0.08-0.436,0.12-0.878,0.12-1.319c0-0.256-0.039-0.504-0.065-0.755
		c2.151-3.507,2.069-9.021,2.065-9.255c-0.006-0.272-0.228-0.49-0.5-0.49c-0.204,0-4.825,0.034-7.5,2.331V3.501
		c0-0.22-0.145-0.415-0.355-0.479c-0.214-0.065-0.438,0.018-0.561,0.201L13.99,4.849V2.5c0-0.827-0.673-1.5-1.5-1.5h-1
		c-0.827,0-1.5,0.673-1.5,1.5v2.349L8.906,3.223C8.784,3.04,8.559,2.958,8.345,3.022C8.134,3.086,7.99,3.28,7.99,3.501v2.831
		c-2.689-2.297-7.296-2.331-7.5-2.331c-0.272,0-0.494,0.218-0.5,0.49c-0.005,0.234-0.086,5.747,2.065,9.255
		c-0.026,0.251-0.065,0.499-0.065,0.755c0,0.441,0.04,0.884,0.12,1.319l-1.897,1.265c-0.184,0.122-0.265,0.35-0.201,0.561
		S0.269,18,0.49,18h2.383c0.19,0.357,0.41,0.705,0.657,1.038l-1.456,2.185c-0.118,0.178-0.111,0.411,0.019,0.581
		c0.13,0.17,0.354,0.237,0.555,0.171l2.908-0.966C7.355,22.295,9.628,23,11.991,23s4.636-0.706,6.435-1.991l2.908,0.966
		c0.056,0.018,0.11,0.024,0.168,0.025c0.261,0.01,0.509-0.221,0.509-0.5c0-0.149-0.064-0.283-0.168-0.375l-1.393-2.088
		c0.247-0.333,0.468-0.68,0.658-1.038h2.383c0.007,0.001,0.015,0,0.02,0c0.276,0,0.5-0.224,0.5-0.5
		C24.01,17.289,23.879,17.108,23.693,17.035z M10.99,2.5c0-0.276,0.225-0.5,0.5-0.5h1c0.275,0,0.5,0.224,0.5,0.5V3h-2V2.5z M10.99,4
		h2v1h-2V4z M10.99,6.5V6h2v0.5V7h-2V6.5z M10.99,8h2v0.5c0,0.276-0.225,0.5-0.5,0.5h-1c-0.275,0-0.5-0.224-0.5-0.5V8z M3.172,7.342
		c0.715,0.165,1.505,0.424,2.181,0.802c-0.65,0.488-1.226,1.039-1.702,1.649C3.42,8.94,3.267,8.078,3.172,7.342z M4.127,13.844
		c-0.183-0.193-0.183-0.495,0-0.688C4.469,12.796,6.234,11,7.49,11c1.256,0,3.021,1.796,3.363,2.156
		c0.183,0.193,0.183,0.495,0,0.688c-0.298,0.314-1.68,1.721-2.862,2.074V15.5H7.99v-2c0-0.276-0.224-0.5-0.5-0.5s-0.5,0.224-0.5,0.5
		v2c0,0.002,0.001,0.003,0.001,0.005v0.414C5.809,15.566,4.425,14.158,4.127,13.844z M17.978,17.608C17.671,19,17.158,19,16.99,19
		c-0.229,0-0.633-0.056-1.115-0.142l-0.937,1.866C14.851,20.894,14.678,21,14.49,21c-0.007,0-0.015,0-0.022,0
		c-0.196-0.009-0.37-0.132-0.442-0.315l-0.957-2.416c-0.479-0.11-0.872-0.204-1.078-0.254c-0.203,0.049-0.59,0.141-1.062,0.25
		l-0.974,2.422C9.882,20.87,9.708,20.992,9.512,21c-0.007,0-0.014,0-0.021,0c-0.189,0-0.362-0.107-0.447-0.277l-0.931-1.867
		C7.627,18.942,7.219,19,6.991,19c-0.168,0-0.681,0-0.988-1.392c-0.06-0.27,0.11-0.536,0.38-0.596
		c0.279-0.062,0.537,0.111,0.597,0.38c0.048,0.215,0.127,0.457,0.191,0.597c0.835-0.081,3.199-0.61,4.702-0.975
		c0.078-0.019,0.158-0.019,0.236,0c1.5,0.365,3.862,0.895,4.702,0.976c0.064-0.14,0.144-0.383,0.191-0.598
		c0.06-0.269,0.318-0.442,0.597-0.38C17.868,17.072,18.038,17.338,17.978,17.608z M19.853,13.844
		c-0.298,0.314-1.68,1.721-2.862,2.074V15.5H16.99v-2c0-0.276-0.224-0.5-0.5-0.5s-0.5,0.224-0.5,0.5v2
		c0,0.002,0.001,0.003,0.001,0.005v0.414c-1.182-0.353-2.566-1.761-2.864-2.075c-0.183-0.193-0.183-0.495,0-0.688
		C13.469,12.796,15.234,11,16.49,11c1.256,0,3.021,1.796,3.363,2.156C20.036,13.349,20.036,13.651,19.853,13.844z M20.335,9.8
		c-0.476-0.611-1.053-1.163-1.705-1.653c0.677-0.379,1.469-0.639,2.186-0.805C20.721,8.079,20.567,8.944,20.335,9.8z"/>
</g>
</svg>
