<?xml version="1.0" encoding="iso-8859-1"?>
<!-- Generator: Adobe Illustrator 19.0.0, SVG Export Plug-In . SVG Version: 6.00 Build 0)  -->
<svg version="1.1" id="Layer_1" xmlns="http://www.w3.org/2000/svg" xmlns:xlink="http://www.w3.org/1999/xlink" x="0px" y="0px"
	 viewBox="0 0 24 24" style="enable-background:new 0 0 24 24;" xml:space="preserve">
<g>
	<path d="M23.424,1.233c-0.11-0.175-0.317-0.266-0.521-0.224l-5,1c-0.172,0.034-0.313,0.155-0.372,0.319l-1.228,3.377
		c-0.077-0.085-0.153-0.169-0.23-0.254c-0.567-0.624-1.139-1.251-1.662-1.877c-1.115-1.333-1.708-2.319-1.925-3.194
		c-0.055-0.223-0.255-0.379-0.484-0.38c-0.001,0-0.001,0-0.001,0c-0.229,0-0.43,0.156-0.485,0.379
		c-0.28,1.121-1.212,2.334-1.889,3.149C9.092,4.173,8.504,4.819,7.921,5.46C7.846,5.541,7.773,5.624,7.698,5.705L6.47,2.329
		C6.41,2.165,6.27,2.044,6.098,2.01l-5-1c-0.201-0.042-0.41,0.049-0.521,0.224c-0.11,0.175-0.102,0.401,0.022,0.566l4.922,6.563
		c-1.281,1.791-1.93,3.425-2.021,5.11l-0.014,0.254c-0.093,1.686-0.165,3.016,0.338,6.177C3.996,20.98,4.22,22.189,4.509,23.6
		c0.048,0.232,0.253,0.399,0.49,0.399h14c0.237,0,0.442-0.167,0.49-0.4c0.311-1.521,0.544-2.788,0.714-3.875
		c0.472-3.027,0.4-4.331,0.31-5.981l-0.015-0.271c-0.091-1.684-0.74-3.317-2.022-5.109L23.4,1.798
		C23.525,1.634,23.534,1.41,23.424,1.233z M15.327,12.566l1.83-2.44c0.738,1.262,1.449,2.784,1.061,3.476
		c-0.143,0.253-0.405,0.398-0.717,0.398h-1.654c0.089-0.149,0.154-0.314,0.154-0.5C16.001,13.064,15.717,12.704,15.327,12.566z
		 M14.134,13.97c0.006,0.011,0.014,0.02,0.021,0.031h-0.154C14.047,14.001,14.09,13.983,14.134,13.97z M13.574,13.746
		c-0.005-0.009-0.016-0.013-0.021-0.023c-0.002-0.005,0-0.011-0.003-0.017C13.556,13.72,13.566,13.733,13.574,13.746z M12,1.866
		c0.318,0.612,0.772,1.277,1.387,2.039l-1.379,1.772l-1.361-1.816C11.244,3.118,11.687,2.465,12,1.866z M10.521,13.501
		c0,0.276-0.224,0.5-0.5,0.5c-0.002,0-0.006,0-0.009,0C10.279,13.996,10.521,13.78,10.521,13.501z M9.868,13.97
		c0.044,0.012,0.087,0.031,0.133,0.031H9.847C9.854,13.99,9.862,13.98,9.868,13.97z M11.648,14.561c0.189-0.188,0.518-0.188,0.707,0
		l2.612,2.612l-2.976,0.812L8.93,17.279L11.648,14.561z M8.155,14.001H6.501c-0.313,0-0.574-0.145-0.717-0.398
		c-0.389-0.691,0.322-2.214,1.061-3.476l1.83,2.44c-0.39,0.137-0.674,0.498-0.674,0.934C8.001,13.686,8.066,13.852,8.155,14.001z
		 M2.187,2.248l3.44,0.688l2.753,7.57l-1.838-2.45L2.187,2.248z M18.618,19.634c0.096,0.052,0.192,0.104,0.291,0.157
		c0.085,0.045,0.165,0.09,0.252,0.136c-0.145,0.889-0.333,1.902-0.568,3.073H5.409c-0.218-1.084-0.396-2.043-0.54-2.912
		c0.089-0.052,0.174-0.103,0.262-0.155c0.09-0.053,0.179-0.105,0.267-0.158c0.148-0.089,0.291-0.175,0.433-0.262
		c0.076-0.047,0.152-0.093,0.226-0.139c0.154-0.096,0.299-0.187,0.443-0.278c0.051-0.032,0.103-0.065,0.153-0.097
		c0.16-0.102,0.308-0.198,0.45-0.292c0.029-0.019,0.059-0.038,0.087-0.057c0.162-0.107,0.31-0.205,0.443-0.295
		c0.003-0.002,0.006-0.004,0.009-0.006c0.132-0.089,0.248-0.168,0.346-0.236l3.115,2.336c0.262,0.196,0.572,0.3,0.899,0.3
		c0.327,0,0.638-0.104,0.899-0.3l3.122-2.341c0.073,0.046,0.164,0.103,0.261,0.164c0.026,0.016,0.046,0.029,0.073,0.046
		c0.079,0.049,0.169,0.104,0.26,0.159c0.061,0.038,0.118,0.072,0.185,0.113c0.082,0.05,0.172,0.103,0.262,0.157
		c0.089,0.053,0.176,0.105,0.272,0.161c0.088,0.052,0.18,0.105,0.274,0.159c0.109,0.063,0.218,0.126,0.334,0.192
		c0.093,0.053,0.189,0.106,0.286,0.161C18.357,19.491,18.485,19.562,18.618,19.634z M17.46,8.055
		c-0.001,0.001-0.002,0.001-0.002,0.002l-1.56,2.081l0.258-0.344l-0.534,0.713l0.043-0.117l2.71-7.453l3.44-0.688L17.46,8.055z"/>
</g>
</svg>
