<?xml version="1.0" encoding="iso-8859-1"?>
<!-- Generator: Adobe Illustrator 19.0.0, SVG Export Plug-In . SVG Version: 6.00 Build 0)  -->
<svg version="1.1" id="Layer_1" xmlns="http://www.w3.org/2000/svg" xmlns:xlink="http://www.w3.org/1999/xlink" x="0px" y="0px"
	 viewBox="0 0 24 24" style="enable-background:new 0 0 24 24;" xml:space="preserve">
<g>
	<path d="M21.443,6.689c1.967-3.261,2.055-6.06,2.058-6.178c0.004-0.173-0.082-0.336-0.227-0.43
		c-0.145-0.095-0.328-0.108-0.485-0.035c-0.042,0.02-1.048,0.495-2.396,1.586c-1.398,1.131-3.345,3.087-4.853,6.074
		c-2.116-0.927-4.964-0.927-7.08,0c-1.5-2.97-3.434-4.92-4.823-6.049c-1.363-1.109-2.383-1.59-2.426-1.61
		c-0.157-0.072-0.34-0.06-0.485,0.035c-0.145,0.095-0.23,0.257-0.227,0.43c0.003,0.118,0.09,2.917,2.057,6.177
		c0.784,1.299,1.754,2.489,2.89,3.542c-0.623,0.973-0.947,2.085-0.947,3.27v0.5c0,0.709-0.261,1.527-0.514,2.317
		C3.737,17.1,3.501,17.839,3.501,18.5c0,0.183,0.016,0.361,0.038,0.539c0.226,1.75,1.516,3.201,3.635,4.086
		C8.545,23.697,10.214,24,12.001,24s3.457-0.302,4.827-0.875c2.119-0.885,3.409-2.336,3.635-4.086
		c0.022-0.178,0.038-0.356,0.038-0.539c0-0.657-0.234-1.384-0.481-2.153c-0.255-0.792-0.519-1.611-0.519-2.347v-0.5
		c0-1.165-0.332-2.294-0.949-3.268C19.688,9.179,20.66,7.989,21.443,6.689z M22.389,1.425c-0.124,0.721-0.383,1.802-0.923,3.046
		c-0.002-0.04-0.006-0.08-0.008-0.12c-0.01-0.184-0.025-0.362-0.038-0.545c-0.015-0.208-0.03-0.411-0.05-0.615
		c-0.018-0.183-0.042-0.353-0.065-0.529c-0.018-0.143-0.031-0.297-0.053-0.433C21.685,1.891,22.074,1.625,22.389,1.425z
		 M2.712,2.675c-0.024,0.166-0.05,0.326-0.07,0.5c-0.023,0.207-0.04,0.416-0.057,0.629c-0.014,0.179-0.03,0.351-0.041,0.531
		c-0.003,0.044-0.008,0.088-0.01,0.132C1.995,3.225,1.736,2.145,1.612,1.425C1.932,1.628,2.329,1.9,2.771,2.246
		C2.747,2.379,2.733,2.533,2.712,2.675z M7.434,21.485c-0.01,0.038-0.02,0.077-0.032,0.114c-0.048,0.154-0.109,0.304-0.193,0.442
		c-0.001,0.001-0.002,0.002-0.003,0.004c-1.427-0.679-2.337-1.657-2.612-2.8c0.065-0.034,0.127-0.073,0.195-0.1
		c0.052-0.02,0.102-0.042,0.155-0.058C5.124,19.035,5.309,19,5.501,19c1.103,0,2,0.897,2,2C7.501,21.166,7.473,21.327,7.434,21.485z
		 M6.501,15c0-1.103,0.897-2,2-2c0.204,0,0.398,0.04,0.583,0.097C8.742,13.256,8.501,13.598,8.501,14c0,0.552,0.448,1,1,1
		c0.402,0,0.744-0.241,0.903-0.584c0.057,0.186,0.097,0.38,0.097,0.584c0,1.103-0.897,2-2,2C7.398,17,6.501,16.103,6.501,15z
		 M13.001,20c-0.384,0-0.734-0.145-1-0.383c-0.266,0.238-0.616,0.383-1,0.383c-0.827,0-1.5-0.673-1.5-1.5c0-0.276,0.224-0.5,0.5-0.5
		s0.5,0.224,0.5,0.5s0.224,0.5,0.5,0.5s0.5-0.224,0.5-0.5s0.224-0.5,0.5-0.5s0.5,0.224,0.5,0.5s0.224,0.5,0.5,0.5s0.5-0.224,0.5-0.5
		s0.224-0.5,0.5-0.5s0.5,0.224,0.5,0.5C14.501,19.327,13.828,20,13.001,20z M13.501,15c0-0.204,0.04-0.398,0.097-0.584
		C13.757,14.759,14.099,15,14.501,15c0.552,0,1-0.448,1-1c0-0.402-0.241-0.744-0.583-0.903C15.103,13.04,15.297,13,15.501,13
		c1.103,0,2,0.897,2,2c0,1.103-0.897,2-2,2C14.398,17,13.501,16.103,13.501,15z M19.058,19.087c0.053,0.015,0.104,0.038,0.155,0.058
		c0.068,0.026,0.13,0.066,0.195,0.1c-0.275,1.143-1.185,2.121-2.612,2.8c-0.001-0.001-0.002-0.002-0.003-0.004
		c-0.084-0.138-0.145-0.288-0.193-0.442c-0.012-0.038-0.022-0.076-0.032-0.114c-0.039-0.158-0.067-0.319-0.067-0.485
		c0-1.103,0.897-2,2-2C18.693,19,18.878,19.035,19.058,19.087z"/>
</g>
</svg>
