<?xml version="1.0" encoding="iso-8859-1"?>
<!-- Generator: Adobe Illustrator 19.0.0, SVG Export Plug-In . SVG Version: 6.00 Build 0)  -->
<svg version="1.1" id="Layer_1" xmlns="http://www.w3.org/2000/svg" xmlns:xlink="http://www.w3.org/1999/xlink" x="0px" y="0px"
	 viewBox="0 0 24 24" style="enable-background:new 0 0 24 24;" xml:space="preserve">
<g>
	<path d="M18,6c-3.305,0-5.993,2.685-5.999,5.989c0-0.178-0.008-0.354-0.024-0.527C11.957,11.204,11.742,11,11.478,11H5.5
		C5.224,11,5,11.224,5,11.5v2C5,13.776,5.224,14,5.5,14h1.999C7.072,14.319,6.547,14.5,6,14.5c-1.378,0-2.5-1.122-2.5-2.5
		S4.622,9.5,6,9.5c0.667,0,1.294,0.26,1.721,0.679c0.087,0.116,0.219,0.189,0.364,0.199c0.15,0.011,0.286-0.042,0.389-0.145
		l1.768-1.768c0.195-0.195,0.195-0.512,0-0.707C9.109,6.625,7.603,6,6,6c-3.309,0-6,2.691-6,6c0,3.309,2.691,6,6,6
		c3.306,0,5.994-2.686,6-5.99c0.006,3.304,2.694,5.99,6,5.99c3.309,0,6-2.691,6-6C24,8.691,21.309,6,18,6z M18,9.5
		c1.207,0,2.217,0.861,2.449,2h-1.603C18.673,11.206,18.366,11,18,11c-0.366,0-0.673,0.206-0.847,0.5h-1.603
		C15.783,10.361,16.793,9.5,18,9.5z M17.153,12.5C17.328,12.793,17.634,13,18,13s0.672-0.207,0.847-0.5h1.603
		c-0.232,1.139-1.243,2-2.449,2s-2.217-0.861-2.449-2H17.153z"/>
</g>
</svg>
