<?xml version="1.0" encoding="iso-8859-1"?>
<!-- Generator: Adobe Illustrator 19.0.0, SVG Export Plug-In . SVG Version: 6.00 Build 0)  -->
<svg version="1.1" id="Layer_1" xmlns="http://www.w3.org/2000/svg" xmlns:xlink="http://www.w3.org/1999/xlink" x="0px" y="0px"
	 viewBox="0 0 24 24" style="enable-background:new 0 0 24 24;" xml:space="preserve">
<g>
	<path d="M20.51,17.459c-0.196-0.143-0.447-0.297-0.724-0.467c-0.965-0.593-2.286-1.405-2.286-2.493c0-0.276,0.224-0.5,0.5-0.5
		s0.5,0.224,0.5,0.5c0,0.529,1.176,1.252,1.809,1.641c0.303,0.186,0.575,0.355,0.789,0.511c0.006,0.005,0.011,0.011,0.017,0.016
		C22.64,15.196,23.5,13.38,23.5,11.5c0-4.021-3.801-7.391-8.883-8.27l0.857-2.572c0.087-0.262-0.054-0.545-0.316-0.632
		c-0.265-0.088-0.545,0.054-0.632,0.316l-0.917,2.751c-0.365-0.038-0.734-0.062-1.109-0.074V0.5C12.5,0.224,12.276,0,12,0
		s-0.5,0.224-0.5,0.5v2.519c-0.375,0.012-0.744,0.036-1.109,0.074L9.474,0.342C9.387,0.08,9.106-0.062,8.842,0.026
		C8.58,0.113,8.439,0.396,8.526,0.658L9.383,3.23C4.3,4.109,0.5,7.479,0.5,11.5c0,1.88,0.86,3.696,2.385,5.167
		c0.004-0.003,0.007-0.008,0.012-0.011c0.212-0.156,0.483-0.327,0.782-0.514C4.224,15.802,5.5,15.005,5.5,14.5
		C5.5,14.224,5.724,14,6,14s0.5,0.224,0.5,0.5c0,1.059-1.324,1.886-2.292,2.49c-0.204,0.127-0.384,0.243-0.548,0.355
		c-0.058,0.039-0.121,0.08-0.172,0.118C2.86,17.924,2.5,18.667,2.5,19.501c0,2.523,4.173,4.5,9.5,4.5c5.327,0,9.5-1.977,9.5-4.5
		C21.501,18.66,21.14,17.916,20.51,17.459z M3.501,9.999c0-1.654,1.57-3,3.5-3s3.5,1.346,3.5,3s-1.57,3-3.5,3
		S3.501,11.653,3.501,9.999z M11.486,14.619c-0.057,0.228-0.26,0.379-0.484,0.379c-0.04,0-0.081-0.005-0.122-0.015l-2-0.5
		c-0.268-0.067-0.431-0.338-0.364-0.606c0.066-0.269,0.335-0.432,0.606-0.364l2,0.5C11.39,14.08,11.553,14.353,11.486,14.619z
		 M15.122,14.484l-2,0.5c-0.041,0.01-0.082,0.015-0.122,0.015c-0.224,0-0.428-0.151-0.484-0.379
		c-0.067-0.268,0.096-0.539,0.364-0.606l2-0.5c0.267-0.067,0.539,0.095,0.606,0.364C15.553,14.145,15.39,14.416,15.122,14.484z
		 M13.501,9.999c0-1.654,1.57-3,3.5-3s3.5,1.346,3.5,3s-1.57,3-3.5,3S13.501,11.653,13.501,9.999z"/>
	<circle cx="7.001" cy="10.499" r="0.5"/>
	<circle cx="17.001" cy="10.499" r="0.5"/>
</g>
</svg>
