<?xml version="1.0" encoding="iso-8859-1"?>
<!-- Generator: Adobe Illustrator 19.0.0, SVG Export Plug-In . SVG Version: 6.00 Build 0)  -->
<svg version="1.1" id="Layer_1" xmlns="http://www.w3.org/2000/svg" xmlns:xlink="http://www.w3.org/1999/xlink" x="0px" y="0px"
	 viewBox="0 0 24 24" style="enable-background:new 0 0 24 24;" xml:space="preserve">
<g>
	<path d="M12,11c1.103,0,2-0.897,2-2V7.295C13.366,7.105,12.695,7,12,7s-1.366,0.105-2,0.295V9C10,10.103,10.897,11,12,11z"/>
	<path d="M15,7.685V9c0,1.654-1.346,3-3,3s-3-1.346-3-3V7.685C6.639,8.811,5,11.215,5,14c0,0.751,0.269,1.319,0.528,1.867
		C5.771,16.38,6,16.864,6,17.5c0,0.651,0.499,1.938,0.598,2.188c0.003,0.009,0.011,0.015,0.015,0.023
		c0.022,0.048,0.051,0.092,0.087,0.131c0.005,0.005,0.007,0.013,0.012,0.018c0.016,0.016,0.037,0.026,0.055,0.039
		c0.013,0.01,0.023,0.024,0.038,0.033c0.776,0.472,1.031,1.168,1.327,1.974c0.173,0.472,0.351,0.959,0.649,1.406
		C9.068,23.743,9.539,24,10.042,24h3.916c0.502,0,0.974-0.257,1.261-0.688c0.288-0.431,0.464-0.915,0.635-1.382
		c0.287-0.785,0.558-1.527,1.329-1.997c0.004-0.002,0.006-0.006,0.01-0.009c0.001-0.001,0.003,0,0.004-0.001
		c0.003-0.002,0.003-0.005,0.006-0.007c0.078-0.053,0.137-0.125,0.174-0.208c0.004-0.009,0.016-0.014,0.02-0.023
		c0.101-0.252,0.604-1.544,0.604-2.185c0-0.652,0.232-1.142,0.477-1.66c0.257-0.542,0.523-1.104,0.523-1.84
		C19,11.215,17.361,8.811,15,7.685z M8.053,13.724c-0.124-0.247-0.024-0.548,0.223-0.671c0.248-0.124,0.547-0.024,0.671,0.224
		l0.583,1.166c0.001,0.002,0.003,0.005,0.004,0.008l1.414,2.827c0.078,0.155,0.069,0.339-0.022,0.486S10.673,18,10.5,18H9.72
		c-0.451,0-0.874-0.2-1.16-0.549s-0.399-0.803-0.311-1.245l0.31-1.469L8.053,13.724z M14.915,21.587
		c-0.158,0.431-0.307,0.839-0.528,1.17c-0.103,0.154-0.259,0.242-0.429,0.242h-3.916c-0.167,0-0.328-0.09-0.429-0.242
		c-0.231-0.347-0.382-0.759-0.542-1.195c-0.161-0.441-0.335-0.91-0.61-1.352c0.08,0.021,0.163,0.037,0.241,0.06
		c0.09,0.026,0.179,0.053,0.266,0.082c0.18,0.061,0.353,0.128,0.519,0.198c0.062,0.026,0.128,0.05,0.188,0.078
		c0.22,0.1,0.429,0.204,0.619,0.309c0.032,0.018,0.058,0.035,0.089,0.053c0.157,0.089,0.305,0.178,0.436,0.263
		c0.054,0.035,0.102,0.068,0.152,0.101c0.096,0.064,0.187,0.127,0.264,0.183c0.04,0.029,0.08,0.059,0.115,0.085
		c0.069,0.052,0.13,0.099,0.176,0.136c0.018,0.014,0.043,0.034,0.057,0.046c0.041,0.034,0.078,0.066,0.08,0.068
		c0.19,0.172,0.479,0.173,0.67,0.001c0.002-0.002,0.039-0.033,0.082-0.07c0.012-0.01,0.034-0.027,0.049-0.039
		c0.047-0.038,0.112-0.088,0.184-0.143c0.032-0.025,0.07-0.052,0.107-0.079c0.079-0.057,0.172-0.122,0.271-0.188
		c0.048-0.032,0.093-0.063,0.145-0.097c0.134-0.087,0.285-0.177,0.446-0.269c0.028-0.016,0.05-0.031,0.079-0.046
		c0.19-0.105,0.399-0.209,0.62-0.309c0.06-0.027,0.125-0.051,0.186-0.077c0.167-0.07,0.34-0.137,0.52-0.198
		c0.086-0.029,0.176-0.055,0.265-0.082c0.079-0.023,0.162-0.04,0.243-0.06C15.255,20.661,15.078,21.14,14.915,21.587z
		 M15.948,13.723l-0.473,0.945l0.278,1.546c0.087,0.433-0.026,0.887-0.313,1.235c-0.286,0.349-0.709,0.549-1.16,0.549H13.5
		c-0.173,0-0.334-0.09-0.425-0.237c-0.091-0.147-0.1-0.33-0.022-0.485l1.451-2.901c0.001-0.003,0.003-0.007,0.005-0.01l0.544-1.089
		c0.124-0.248,0.423-0.347,0.671-0.224C15.971,13.176,16.071,13.476,15.948,13.723z"/>
	<path d="M17.781,8.486C17.873,8.583,18,8.638,18.133,8.641c0.003,0,0.006,0,0.009,0c0.13,0,0.255-0.051,0.349-0.142
		c1.209-1.175,2.165-1.524,2.171-1.526c0.124-0.042,0.226-0.132,0.285-0.249l3-6c0.078-0.155,0.069-0.339-0.022-0.486
		C23.834,0.091,23.673,0,23.5,0h-2c-0.157,0-0.306,0.074-0.4,0.2l-4.812,6.417c-0.083,0.11-0.116,0.249-0.093,0.385
		c0.023,0.136,0.102,0.256,0.216,0.332C16.897,7.655,17.358,8.043,17.781,8.486z"/>
	<path d="M3.053,6.724c0.058,0.116,0.16,0.205,0.282,0.248C3.344,6.975,4.299,7.324,5.509,8.5c0.093,0.091,0.219,0.142,0.349,0.142
		c0.003,0,0.006,0,0.009,0C6,8.639,6.127,8.584,6.22,8.487c0.422-0.443,0.883-0.831,1.369-1.153
		c0.115-0.076,0.193-0.196,0.216-0.332c0.023-0.136-0.01-0.275-0.093-0.385L2.9,0.199c-0.094-0.126-0.243-0.2-0.4-0.2h-2
		c-0.173,0-0.334,0.09-0.425,0.237c-0.091,0.147-0.1,0.332-0.022,0.486L3.053,6.724z"/>
	<path d="M23.895,21.194l-3.75-4.839c-0.107-0.138-0.279-0.213-0.451-0.19c-0.174,0.02-0.324,0.128-0.397,0.287
		c-0.168,0.362-0.296,0.67-0.296,1.049c0,0.326-0.084,0.947-0.488,2.057c-0.072,0.198-0.012,0.42,0.149,0.555l4.518,3.772
		c0.092,0.077,0.206,0.116,0.32,0.116c0.072,0,0.144-0.016,0.212-0.047C23.888,23.871,24,23.695,24,23.501v-2
		C24,21.389,23.963,21.281,23.895,21.194z"/>
	<path d="M5,17.5c0-0.367-0.131-0.678-0.302-1.046c-0.074-0.158-0.225-0.267-0.398-0.286c-0.172-0.016-0.344,0.053-0.451,0.191
		l-3.745,4.835C0.036,21.281,0,21.389,0,21.5v2c0,0.194,0.112,0.37,0.288,0.453C0.356,23.985,0.428,24,0.5,24
		c0.114,0,0.228-0.039,0.319-0.115l4.52-3.751c0.162-0.135,0.223-0.357,0.151-0.555C5.169,18.694,5,17.975,5,17.5z"/>
</g>
</svg>
