<?xml version="1.0" encoding="iso-8859-1"?>
<!-- Generator: Adobe Illustrator 19.0.0, SVG Export Plug-In . SVG Version: 6.00 Build 0)  -->
<svg version="1.1" id="Layer_1" xmlns="http://www.w3.org/2000/svg" xmlns:xlink="http://www.w3.org/1999/xlink" x="0px" y="0px"
	 viewBox="0 0 24 24" style="enable-background:new 0 0 24 24;" xml:space="preserve">
<g>
	<circle cx="16.5" cy="9" r="1"/>
	<circle cx="7.5" cy="9" r="1"/>
	<path d="M12,0C5.418,0,0.5,7.127,0.5,13.5C0.5,19.682,5.229,24,12,24s11.5-4.318,11.5-10.5C23.5,7.127,18.582,0,12,0z M17,6
		c1.425,0,2.5,2.149,2.5,5c0,0.943-0.124,1.857-0.357,2.643C19.08,13.855,18.885,14,18.664,14h-3.326
		c-0.221,0-0.415-0.145-0.479-0.356C14.62,12.853,14.5,11.964,14.5,11C14.5,8.149,15.575,6,17,6z M13.646,6.146l1.5-1.5
		c0.195-0.195,0.512-0.195,0.707,0s0.195,0.512,0,0.707l-1.5,1.5C14.256,6.951,14.128,7,14,7s-0.256-0.049-0.354-0.146
		C13.451,6.658,13.451,6.342,13.646,6.146z M13.646,16.146l0.5-0.5c0.195-0.195,0.512-0.195,0.707,0s0.195,0.512,0,0.707l-0.5,0.5
		C14.256,16.951,14.128,17,14,17s-0.256-0.049-0.354-0.146C13.451,16.658,13.451,16.342,13.646,16.146z M8.146,4.646
		c0.195-0.195,0.512-0.195,0.707,0l1.5,1.5c0.195,0.195,0.195,0.512,0,0.707C10.256,6.951,10.128,7,10,7S9.744,6.951,9.646,6.854
		l-1.5-1.5C7.951,5.158,7.951,4.842,8.146,4.646z M10.354,16.854C10.256,16.951,10.128,17,10,17s-0.256-0.049-0.354-0.146l-0.5-0.5
		c-0.195-0.195-0.195-0.512,0-0.707s0.512-0.195,0.707,0l0.5,0.5C10.549,16.342,10.549,16.658,10.354,16.854z M7,6
		c1.425,0,2.5,2.149,2.5,5c0,0.943-0.124,1.857-0.357,2.643C9.08,13.855,8.885,14,8.664,14H5.338c-0.221,0-0.415-0.145-0.479-0.356
		C4.62,12.853,4.5,11.964,4.5,11C4.5,8.149,5.575,6,7,6z M19.354,17.854l-0.414,0.414C18.467,18.74,17.84,19,17.172,19h-2.965
		l-1.146,1.146c-0.292,0.292-0.677,0.438-1.061,0.438s-0.769-0.146-1.061-0.438L9.793,19H6.828c-0.668,0-1.295-0.26-1.768-0.732
		l-0.414-0.414c-0.195-0.195-0.195-0.512,0-0.707s0.512-0.195,0.707,0l0.414,0.414C6.046,17.84,6.433,18,6.828,18H10
		c0.133,0,0.26,0.053,0.354,0.146l1.293,1.293c0.195,0.195,0.512,0.195,0.707,0l1.293-1.293C13.74,18.053,13.867,18,14,18h3.172
		c0.395,0,0.781-0.16,1.061-0.439l0.414-0.414c0.195-0.195,0.512-0.195,0.707,0S19.549,17.658,19.354,17.854z"/>
</g>
</svg>
