<?xml version="1.0" encoding="iso-8859-1"?>
<!-- Generator: Adobe Illustrator 19.0.0, SVG Export Plug-In . SVG Version: 6.00 Build 0)  -->
<svg version="1.1" id="Layer_1" xmlns="http://www.w3.org/2000/svg" xmlns:xlink="http://www.w3.org/1999/xlink" x="0px" y="0px"
	 viewBox="0 0 24 24" style="enable-background:new 0 0 24 24;" xml:space="preserve">
<g>
	<path d="M23.752,2.05c-0.195-0.114-0.445-0.081-0.604,0.079l-7.438,7.438l-3.237-9.249c-0.141-0.401-0.804-0.401-0.944,0
		L8.292,9.567L0.854,2.129C0.693,1.969,0.446,1.936,0.25,2.05C0.053,2.164-0.041,2.395,0.019,2.614l2.938,10.774
		c-0.521,0.769-2.28,3.623-2.808,7.764c-0.091,0.717,0.13,1.439,0.608,1.982c0.475,0.54,1.158,0.849,1.875,0.849h18.736
		c0.717,0,1.4-0.309,1.875-0.849c0.478-0.542,0.7-1.265,0.608-1.982c-0.527-4.141-2.287-6.995-2.808-7.764l2.938-10.774
		C24.042,2.396,23.948,2.164,23.752,2.05z M14.11,16.17l4-5c0.173-0.214,0.487-0.25,0.703-0.078c0.215,0.173,0.25,0.487,0.078,0.703
		l-0.892,1.114l0.982,3.436c0.043,0.151,0.013,0.313-0.082,0.438c-0.095,0.125-0.243,0.199-0.399,0.199h-4
		c-0.192,0-0.367-0.11-0.451-0.283C13.966,16.526,13.99,16.321,14.11,16.17z M13.5,17.983c0.276,0,0.5,0.224,0.5,0.5
		s-0.224,0.5-0.5,0.5s-0.5-0.224-0.5-0.5S13.224,17.983,13.5,17.983z M10.5,17.983c0.276,0,0.5,0.224,0.5,0.5s-0.224,0.5-0.5,0.5
		s-0.5-0.224-0.5-0.5S10.224,17.983,10.5,17.983z M5.188,11.092c0.217-0.173,0.53-0.136,0.703,0.078l4,5
		c0.12,0.15,0.143,0.356,0.06,0.529c-0.083,0.173-0.258,0.283-0.451,0.283h-4c-0.157,0-0.305-0.074-0.399-0.199
		c-0.094-0.125-0.125-0.288-0.082-0.438L6,12.909l-0.892-1.114C4.938,11.58,4.972,11.265,5.188,11.092z M20.854,20.837
		c-0.195,0.195-0.512,0.195-0.707,0l-0.636-0.636c-0.114-0.114-0.276-0.164-0.437-0.14l-0.082,0.014
		c-0.012,0.065-0.037,0.128-0.075,0.186l-1,1.5c-0.093,0.139-0.249,0.223-0.416,0.223c-0.167,0-0.323-0.083-0.416-0.223
		l-0.821-1.231l-2.681,0.447L10.5,20.983L7.74,20.526L6.917,21.76c-0.093,0.139-0.249,0.223-0.416,0.223S6.177,21.9,6.084,21.76
		l-1-1.5c-0.039-0.058-0.063-0.121-0.075-0.186L4.927,20.06c-0.164-0.026-0.323,0.026-0.436,0.14l-0.636,0.636
		c-0.195,0.195-0.512,0.195-0.707,0s-0.195-0.512,0-0.707l0.636-0.636c0.341-0.341,0.83-0.499,1.307-0.419l5.493,0.916l2.917-0.007
		l2.894-0.486c0.01-0.002,0.02-0.003,0.03-0.005l2.486-0.418c0.478-0.08,0.965,0.077,1.307,0.419l0.636,0.636
		C21.05,20.325,21.05,20.641,20.854,20.837z"/>
</g>
</svg>
