<?xml version="1.0" encoding="iso-8859-1"?>
<!-- Generator: Adobe Illustrator 19.0.0, SVG Export Plug-In . SVG Version: 6.00 Build 0)  -->
<svg version="1.1" id="Layer_1" xmlns="http://www.w3.org/2000/svg" xmlns:xlink="http://www.w3.org/1999/xlink" x="0px" y="0px"
	 viewBox="0 0 24 24" style="enable-background:new 0 0 24 24;" xml:space="preserve">
<g>
	<path d="M20.966,3.819c-0.087-0.225-0.321-0.355-0.558-0.31C20.172,3.553,20,3.759,20,4c0,0.029-0.032,1.825-1.213,4.264
		c0.003,0.006,0.009,0.009,0.012,0.015c0.053,0.109,1.31,2.708,1.351,6.715c0.003,0.276-0.219,0.502-0.495,0.505
		c-0.002,0-0.004,0-0.005,0c-0.274,0-0.497-0.221-0.5-0.495c-0.027-2.622-0.615-4.624-0.974-5.609
		c-0.337,0.567-0.729,1.154-1.203,1.754c-0.055,0.637-0.197,1.188-0.377,1.792c0.03,0.164,0.068,0.33,0.108,0.499
		C16.849,14.068,17,14.724,17,15.515c0,0.261-0.019,0.517-0.046,0.769c0.673,0.024,1.493,0.249,2.166,1.038
		c0.163,0.191,0.443,0.231,0.654,0.094c0.008-0.006,0.922-0.59,1.869-0.364c0.561,0.134,1.041,0.537,1.426,1.197
		c0.091,0.156,0.257,0.248,0.432,0.248c0.039,0,0.078-0.004,0.117-0.014c0.214-0.052,0.37-0.238,0.382-0.458
		C24.012,17.8,24.28,12.343,20.966,3.819z"/>
	<path d="M7.037,11.16C6.56,10.555,6.165,9.963,5.826,9.391c-0.359,0.983-0.949,2.987-0.976,5.614
		C4.847,15.279,4.624,15.5,4.35,15.5c-0.001,0-0.003,0-0.005,0c-0.276-0.003-0.498-0.229-0.495-0.505
		c0.041-4.008,1.298-6.606,1.351-6.715c0.004-0.008,0.011-0.012,0.015-0.019C4.041,5.827,4,4.029,4,4
		C3.999,3.76,3.827,3.554,3.591,3.51c-0.235-0.044-0.47,0.086-0.557,0.31c-3.314,8.524-3.046,13.981-3.033,14.209
		c0.012,0.22,0.168,0.406,0.382,0.458c0.039,0.009,0.078,0.014,0.117,0.014c0.175,0,0.341-0.092,0.432-0.248
		c0.385-0.661,0.865-1.063,1.426-1.197c0.946-0.228,1.86,0.358,1.867,0.363c0.212,0.14,0.491,0.098,0.655-0.093
		c0.673-0.788,1.493-1.013,2.166-1.038C7.019,16.035,7,15.78,7,15.518c0-0.874,0.225-1.989,0.379-2.649
		C7.262,12.429,7.107,11.77,7.037,11.16z"/>
	<path d="M15.925,9.793c2.197-2.099,2.079-4.708,2.072-4.821c-0.015-0.265-0.279-0.473-0.544-0.473
		c-0.448,0-2.682,0.107-4.367,2.152c-0.698-0.201-1.441-0.209-2.17,0.002C9.231,4.607,7.023,4.516,6.481,4.499
		c-0.258,0.01-0.465,0.214-0.479,0.472C5.996,5.084,5.877,7.695,8.076,9.794c-0.05,0.259-0.075,0.524-0.075,0.791
		c0,0.744,0.303,1.882,0.411,2.266c-0.105,0.428-0.411,1.749-0.411,2.665c0,2.748,1.794,4.983,4,4.983s4-2.235,4-4.983
		c0-0.678-0.138-1.275-0.259-1.802c-0.066-0.289-0.132-0.567-0.167-0.842c0.239-0.792,0.427-1.422,0.427-2.287
		C16,10.319,15.975,10.054,15.925,9.793z M10.5,9.5c0.276,0,0.5,0.224,0.5,0.5s-0.224,0.5-0.5,0.5S10,10.276,10,10
		S10.224,9.5,10.5,9.5z M13.889,13.313C13.794,13.431,13.651,13.5,13.5,13.5h-3c-0.155,0-0.302-0.072-0.396-0.195
		c-0.095-0.123-0.127-0.283-0.087-0.433C10.142,12.397,10.719,11.5,12,11.5c1.333,0,1.884,0.912,1.989,1.394
		C14.021,13.042,13.985,13.196,13.889,13.313z M13.5,10.5c-0.276,0-0.5-0.224-0.5-0.5s0.224-0.5,0.5-0.5S14,9.724,14,10
		S13.776,10.5,13.5,10.5z"/>
</g>
</svg>
