<?xml version="1.0" encoding="iso-8859-1"?>
<!-- Generator: Adobe Illustrator 19.0.0, SVG Export Plug-In . SVG Version: 6.00 Build 0)  -->
<svg version="1.1" id="Layer_1" xmlns="http://www.w3.org/2000/svg" xmlns:xlink="http://www.w3.org/1999/xlink" x="0px" y="0px"
	 viewBox="0 0 30 30" style="enable-background:new 0 0 30 30;" xml:space="preserve">
<g>
	<path d="M28.226,14.728l1.271-10.669c0.022-0.182-0.058-0.361-0.207-0.467c-0.148-0.105-0.345-0.121-0.511-0.04l-7.4,3.655
		C19.432,6.075,17.288,5.5,15,5.5c-2.293,0-4.44,0.573-6.387,1.702l-7.392-3.65C1.055,3.469,0.86,3.486,0.71,3.592
		C0.56,3.698,0.482,3.877,0.504,4.059l1.269,10.649c-0.624,1.308-1.036,2.638-1.195,3.856c-0.11,0.853,0.44,1.675,1.281,1.912
		l4.813,1.358c1.888,0.533,3.526,1.714,4.613,3.326c0.566,0.839,1.513,1.34,2.532,1.34h2.367c1.02,0,1.966-0.501,2.531-1.34
		c1.088-1.612,2.727-2.793,4.614-3.326l4.812-1.358c0.843-0.238,1.393-1.061,1.281-1.915C29.26,17.353,28.849,16.03,28.226,14.728z
		 M4.638,11.957c-0.045,0-0.09-0.006-0.133-0.019c-0.193-0.056-0.341-0.214-0.364-0.414L3.778,8.427
		C3.757,8.244,3.836,8.065,3.987,7.959c0.151-0.105,0.348-0.119,0.51-0.038l2.23,1.115c0.143,0.071,0.242,0.207,0.27,0.363
		c0.026,0.157-0.023,0.318-0.135,0.432l-0.13,0.134c-0.613,0.564-1.176,1.163-1.692,1.799C4.942,11.886,4.791,11.957,4.638,11.957z
		 M10.315,17.887C10.223,17.963,10.111,18,10,18c-0.145,0-0.288-0.063-0.388-0.184c-1.616-1.979-3.667-2.319-3.688-2.322
		c-0.272-0.042-0.46-0.297-0.418-0.569c0.041-0.272,0.303-0.457,0.566-0.419c0.1,0.015,2.442,0.387,4.314,2.678
		C10.562,17.397,10.53,17.712,10.315,17.887z M13,21.5c-0.276,0-0.5-0.224-0.5-0.5s0.224-0.5,0.5-0.5s0.5,0.224,0.5,0.5
		S13.276,21.5,13,21.5z M17,21.5c-0.276,0-0.5-0.224-0.5-0.5s0.224-0.5,0.5-0.5s0.5,0.224,0.5,0.5S17.276,21.5,17,21.5z
		 M24.07,15.495c-0.021,0.003-2.167,0.341-3.674,2.31c-0.099,0.128-0.247,0.196-0.397,0.196c-0.106,0-0.213-0.034-0.304-0.103
		c-0.22-0.168-0.261-0.482-0.094-0.701c1.765-2.304,4.224-2.676,4.327-2.691c0.267-0.039,0.525,0.151,0.564,0.423
		C24.533,15.201,24.344,15.455,24.07,15.495z M25.857,11.525c-0.022,0.194-0.157,0.358-0.344,0.417
		c-0.05,0.016-0.102,0.024-0.152,0.024c-0.139,0-0.273-0.058-0.37-0.164l-0.015-0.016c-0.534-0.657-1.097-1.255-1.689-1.8
		l-0.15-0.154c-0.111-0.114-0.161-0.275-0.135-0.432c0.027-0.157,0.127-0.292,0.27-0.363l2.23-1.115
		c0.162-0.082,0.36-0.068,0.511,0.038c0.15,0.105,0.23,0.285,0.209,0.468L25.857,11.525z"/>
</g>
</svg>
