<?xml version="1.0" encoding="iso-8859-1"?>
<!-- Generator: Adobe Illustrator 19.0.0, SVG Export Plug-In . SVG Version: 6.00 Build 0)  -->
<svg version="1.1" id="Layer_1" xmlns="http://www.w3.org/2000/svg" xmlns:xlink="http://www.w3.org/1999/xlink" x="0px" y="0px"
	 viewBox="0 0 30 30" style="enable-background:new 0 0 30 30;" xml:space="preserve">
<g>
	<path d="M10.112,10.81c0.034,0.036,0.062,0.077,0.083,0.121c0.37,0.752,1.039,2.161,1.2,2.672c0.252,0.797,0.88,1.311,1.612,1.359
		v0.518c0,0.276,0.224,0.5,0.5,0.5s0.5-0.224,0.5-0.5v-0.5h2v0.5c0,0.276,0.224,0.5,0.5,0.5s0.5-0.224,0.5-0.5v-0.518
		c0.732-0.048,1.36-0.562,1.612-1.36c0.161-0.509,0.819-1.918,1.183-2.67c0.022-0.045,0.051-0.087,0.085-0.124
		c1.426-1.524,5.144-4.867,6.899-4.867c0.695,0,1.269,0.068,1.735,0.198c-1.346-2.597-6.35-4.717-8.956-5.511
		c-3.027-0.923-6.966-0.688-9.137,0.001c-0.312,0.099-7.293,2.355-8.939,5.505C1.952,6.007,2.52,5.94,3.211,5.94
		C4.985,5.94,8.627,9.221,10.112,10.81z M16.154,10.128l2-2c0.195-0.195,0.512-0.195,0.707,0s0.196,0.511,0.001,0.707l-2,2
		c-0.098,0.097-0.226,0.146-0.354,0.146s-0.256-0.049-0.354-0.146C15.959,10.64,15.959,10.323,16.154,10.128z M11.154,8.128
		c0.195-0.195,0.512-0.195,0.707,0l2,2c0.196,0.195,0.196,0.511,0.001,0.707c-0.098,0.097-0.226,0.146-0.354,0.146
		s-0.256-0.049-0.354-0.146l-2-2C10.959,8.64,10.959,8.323,11.154,8.128z"/>
	<path d="M28.932,7.568c-0.22-0.51-1.266-0.627-2.144-0.627c-1.067,0-4.146,2.404-6.117,4.495c-0.463,0.961-0.98,2.099-1.097,2.468
		c-0.374,1.184-1.321,1.965-2.447,2.058c-0.113,0.972-0.121,1.814-0.119,2.99v0.529c0,0.313-0.187,0.5-0.5,0.5v-1.5
		c0-0.276-0.224-0.5-0.5-0.5c-0.276,0-0.5,0.224-0.5,0.5v1.5h-1v-1.5c0-0.276-0.224-0.5-0.5-0.5s-0.5,0.224-0.5,0.5v1.5
		c-0.313,0-0.5-0.187-0.5-0.5V19.05c0.001-1.216-0.008-2.085-0.126-3.089c-1.122-0.097-2.067-0.877-2.44-2.057
		c-0.115-0.365-0.651-1.527-1.111-2.465C7.321,9.304,4.297,6.94,3.211,6.94c-0.915,0-2.002,0.121-2.148,0.663
		c-0.41,3.292,1.891,7.72,4.133,12.019c1.874,3.593,3.812,7.309,3.812,9.858c0,0.276,0.224,0.5,0.5,0.5s10.724,0,11,0
		s0.5-0.224,0.5-0.5c0-2.548,1.934-6.264,3.804-9.856C27.058,15.309,29.364,10.864,28.932,7.568z"/>
</g>
</svg>
