<?xml version="1.0" encoding="iso-8859-1"?>
<!-- Generator: Adobe Illustrator 19.0.0, SVG Export Plug-In . SVG Version: 6.00 Build 0)  -->
<svg version="1.1" id="Layer_1" xmlns="http://www.w3.org/2000/svg" xmlns:xlink="http://www.w3.org/1999/xlink" x="0px" y="0px"
	 viewBox="0 0 30 30" style="enable-background:new 0 0 30 30;" xml:space="preserve">
<g>
	<path d="M29.691,5.037c-0.19-0.076-0.408-0.026-0.548,0.123c-0.857,0.914-2.544,2.364-3.42,2.364c-0.9,0-1.979-0.7-3.021-1.376
		c-0.385-0.25-0.756-0.48-1.122-0.69l-0.545,4.309c-0.035,0.274-0.289,0.461-0.559,0.433c-0.274-0.035-0.468-0.285-0.434-0.559
		l0.59-4.66l0.363-2.871c0.064-0.535-0.104-1.073-0.46-1.476C20.177,0.232,19.662,0,19.123,0c-0.78,0-1.49,0.495-1.768,1.232
		l-0.943,2.586l-2.374,6.514c-0.074,0.203-0.266,0.329-0.47,0.329c-0.057,0-0.114-0.01-0.171-0.03
		c-0.26-0.095-0.394-0.381-0.299-0.641l2.243-6.152c-1.971,0.101-5.579,0.658-8.567,3.03l1.143,3.12
		c0.095,0.259-0.038,0.546-0.298,0.642c-0.057,0.021-0.114,0.03-0.172,0.03c-0.204,0-0.396-0.125-0.47-0.328l-3.336-9.11V1.22
		C3.365,0.49,2.658,0,1.877,0C1.338,0,0.823,0.231,0.466,0.635s-0.525,0.941-0.461,1.479L1.753,15.77l-0.746,3.732
		C1.007,24.79,8.444,30,10.51,30c2.377,0,9.497-5.458,9.487-10.596l-0.73-3.634l0.267-2.109l0.202-0.164
		c1.071-0.887,2.144-0.872,3.38-0.851c0.899,0.015,1.825,0.028,2.781-0.327c0.518-0.191,1.202-0.744,2.094-1.689
		c1.281-1.359,2.017-3.228,2.017-5.127C30.007,5.297,29.882,5.112,29.691,5.037z M10.687,27.45
		c-0.056,0.021-0.115,0.031-0.174,0.031c-0.059,0-0.118-0.01-0.174-0.031c-1.625-0.603-6.443-4.501-6.632-7.836
		c-0.002-0.036,0-0.072,0.005-0.107L4.31,15.76c0.041-0.257,0.281-0.438,0.533-0.42c0.261,0.021,0.461,0.238,0.461,0.499
		c0,0.589,1.132,1.875,2.53,3.198c-0.466,0.085-0.827,0.475-0.827,0.965c0,0.551,0.448,1,1,1c0.521,0,0.937-0.405,0.983-0.914
		c0.514,0.451,1.032,0.886,1.518,1.276c0.514-0.408,1.026-0.835,1.519-1.263c0.052,0.502,0.463,0.901,0.98,0.901
		c0.552,0,1-0.449,1-1c0-0.483-0.351-0.868-0.807-0.961c1.451-1.367,2.517-2.609,2.517-3.157c0-0.261,0.2-0.478,0.461-0.499
		c0.255-0.016,0.492,0.163,0.533,0.42l0.598,3.746c0.005,0.035,0.007,0.071,0.005,0.107C17.127,22.966,12.312,26.846,10.687,27.45z"
		/>
</g>
</svg>
