<?xml version="1.0" encoding="iso-8859-1"?>
<!-- Generator: Adobe Illustrator 19.0.0, SVG Export Plug-In . SVG Version: 6.00 Build 0)  -->
<svg version="1.1" id="Layer_1" xmlns="http://www.w3.org/2000/svg" xmlns:xlink="http://www.w3.org/1999/xlink" x="0px" y="0px"
	 viewBox="0 0 30 30" style="enable-background:new 0 0 30 30;" xml:space="preserve">
<g>
	<path d="M17,3.996c-6.729,0-12,3.399-12,7.738v7.525c-4.99,4.063-5,4.294-5,4.576c0,0.303,0.123,0.566,0.354,0.761
		c0.794,0.668,2.75,0.388,5.878-0.153c1.292-0.224,2.512-0.435,3.276-0.447c1.583-0.026,3.267,0.516,4.902,1.04
		c1.553,0.497,3.03,0.969,4.385,0.969c0.169,0,0.337-0.007,0.502-0.023c2.012-0.189,5.699-4.177,6.474-5.038l3.851-0.963
		C29.844,19.924,30,19.725,30,19.496v-8C30,7.571,23.804,3.996,17,3.996z M25,19.983c-1.649-0.084-3.679-0.553-5.648-1.008
		c-2.179-0.503-4.238-0.979-5.852-0.979c-2.273,0-5.772,0.591-7.5,0.901v-7.163c0-3.778,4.832-6.738,11-6.738c2.702,0,8,2.265,8,7.5
		V19.983z"/>
	<path d="M17.536,14.996l-5.928-0.424l3.092-3.181c0.295-0.259,0.745-0.245,1.024,0.034l0.423,0.423
		c0.195,0.195,0.512,0.195,0.707,0s0.195-0.512,0-0.707l-0.423-0.423c-0.649-0.649-1.7-0.684-2.419-0.052l-3.87,3.98
		c-0.136,0.14-0.178,0.345-0.109,0.527c0.069,0.182,0.238,0.307,0.432,0.32l7,0.5c0.012,0.002,0.024,0.002,0.035,0.002
		c0.26,0,0.479-0.201,0.498-0.464C18.019,15.256,17.811,15.017,17.536,14.996z"/>
</g>
</svg>
