<?xml version="1.0" encoding="iso-8859-1"?>
<!-- Generator: Adobe Illustrator 19.0.0, SVG Export Plug-In . SVG Version: 6.00 Build 0)  -->
<svg version="1.1" id="Layer_1" xmlns="http://www.w3.org/2000/svg" xmlns:xlink="http://www.w3.org/1999/xlink" x="0px" y="0px"
	 viewBox="0 0 30 30" style="enable-background:new 0 0 30 30;" xml:space="preserve">
<g>
	<path d="M10,22.5v-2.586C10,18.858,9.142,18,8.086,18H7.914C6.858,18,6,18.858,6,19.914V22.5C6,22.776,6.224,23,6.5,23h3
		C9.776,23,10,22.776,10,22.5z M9,22H7v-1v-1.086C7,19.41,7.41,19,7.914,19h0.172C8.59,19,9,19.41,9,19.914V22z"/>
	<path d="M14.501,10c0.258,0,0.478-0.199,0.497-0.461c0.021-0.275-0.185-0.516-0.46-0.537l-5.2-0.4l2.752-2.116
		c0.205-0.178,0.52-0.168,0.711,0.024l0.346,0.345c0.195,0.194,0.513,0.195,0.708-0.001c0.194-0.195,0.194-0.512-0.001-0.707
		l-0.346-0.345c-0.563-0.563-1.477-0.593-2.052-0.089L7.695,8.604C7.531,8.73,7.462,8.945,7.52,9.143
		c0.06,0.199,0.234,0.34,0.441,0.356l6.5,0.5C14.475,10,14.487,10,14.501,10z"/>
	<path d="M29.805,20.104L24,15.639l1.686-0.674c0.168-0.067,0.286-0.22,0.311-0.399c0.023-0.179-0.052-0.357-0.196-0.465l-1.8-1.35
		V7c0-3.17-4.684-7-10.5-7c-0.049,0-0.095,0.005-0.144,0.006C13.319,0.005,13.277,0,13.24,0c-0.022,0-0.041,0.01-0.062,0.013
		C7.502,0.145,4,3.697,4,7v5.638c-3.988,1.787-4,1.975-4,2.327c0,0.314,0.124,0.58,0.36,0.768c0.263,0.21,0.637,0.298,1.129,0.298
		c0.677,0,1.589-0.173,2.724-0.423l0.005,0.067l-2.521,1.928C1.479,17.77,1.436,18.08,1.6,18.299l0.739,0.99l-2.162,1.829
		c-0.132,0.112-0.196,0.284-0.172,0.455c0.025,0.171,0.138,0.317,0.296,0.386l3.712,1.61C4.007,23.665,4,23.762,4,23.844
		c0,0.734,0.041,1.271,0.133,1.739c0.169,0.859,0.709,1.611,1.481,2.031l5.099,2.252C10.937,29.955,11.175,30,11.412,30
		c0.199,0,0.398-0.032,0.59-0.095l8.286-2.685c0.181-0.059,0.313-0.214,0.34-0.401l0.1-0.669c0.017-0.002,0.035-0.002,0.052-0.005
		l5.326-1.156c0.157-0.034,0.288-0.142,0.353-0.29c0.063-0.148,0.053-0.318-0.03-0.456l-1.169-1.949l4.384-1.315
		c0.18-0.054,0.314-0.204,0.349-0.389C30.025,20.406,29.953,20.218,29.805,20.104z M5,7c0-2.858,3.191-5.935,8.351-5.994
		C15.796,1.064,20,3.064,20,7v5.971c-1.339-0.072-2.993-0.402-4.615-0.737c-1.832-0.378-3.562-0.735-4.885-0.735
		c-1.862,0-4.114,0.312-5.5,0.742V7z M20.951,22.157c-0.274,0.274-0.83,0.451-1.021,0.496c-0.269,0.063-0.436,0.332-0.373,0.6
		c0.054,0.231,0.259,0.387,0.486,0.387c0.017,0,0.034-0.004,0.051-0.006l-0.409,2.73l-7.996,2.59
		c-0.198,0.066-0.412,0.06-0.589-0.011l-5.045-2.227c-0.477-0.26-0.829-0.757-0.942-1.327C5.035,24.987,5,24.51,5,23.843
		c0-0.794,0.386-2.569,0.396-2.622c0.137-0.952,0.137-1.917,0.004-2.832l-0.2-3.001c0.886-0.199,1.753-0.38,2.307-0.388
		c0.792-0.02,1.639,0.089,2.492,0.235V16.5c0,0.166,0.082,0.321,0.22,0.414C10.303,16.971,10.401,17,10.499,17
		c0.062,0,0.126-0.012,0.186-0.036l2.5-1c0.07-0.028,0.128-0.072,0.176-0.123c0.819,0.122,1.6,0.193,2.316,0.127
		c1.235-0.116,3.242-1.078,4.322-1.635v3.099c-0.164,0.083-0.278,0.154-0.315,0.178c-0.232,0.148-0.301,0.457-0.153,0.689
		s0.457,0.3,0.69,0.154c0.4-0.253,1.146-0.548,1.479-0.362c0.26,0.143,0.299,0.65,0.299,0.94C22,20,21.881,21.229,20.951,22.157z"/>
	<path d="M14.5,24h-5c-0.275,0-0.499,0.223-0.5,0.499c0,0.054,0.006,1.326,0.881,2.204C10.408,27.232,11.121,27.5,12,27.5
		c0.879,0,1.592-0.268,2.119-0.797C14.994,25.825,15,24.553,15,24.499C14.999,24.223,14.775,24,14.5,24z"/>
	<circle cx="7.5" cy="21" r="0.5"/>
	<path d="M16.086,18h-0.172C14.858,18,14,18.858,14,19.914V22.5c0,0.276,0.224,0.5,0.5,0.5h3c0.276,0,0.5-0.224,0.5-0.5v-2.586
		C18,18.858,17.142,18,16.086,18z M17,22h-2v-1v-1.086C15,19.41,15.41,19,15.914,19h0.172C16.59,19,17,19.41,17,19.914V22z"/>
	<circle cx="15.5" cy="21" r="0.5"/>
</g>
</svg>
