<?xml version="1.0" encoding="iso-8859-1"?>
<!-- Generator: Adobe Illustrator 19.0.0, SVG Export Plug-In . SVG Version: 6.00 Build 0)  -->
<svg version="1.1" id="Layer_1" xmlns="http://www.w3.org/2000/svg" xmlns:xlink="http://www.w3.org/1999/xlink" x="0px" y="0px"
	 viewBox="0 0 30 30" style="enable-background:new 0 0 30 30;" xml:space="preserve">
<g>
	<path d="M4.648,21.056c-0.595-0.383-1.441-0.834-1.933-0.341c-0.492,0.492-0.042,1.339,0.341,1.933
		c0.451,0.703,1.145,1.535,1.952,2.342c0.807,0.807,1.64,1.501,2.343,1.953c0.408,0.262,0.935,0.557,1.384,0.557
		c0.205,0,0.395-0.062,0.549-0.216c0.492-0.493,0.042-1.339-0.341-1.933c-0.451-0.703-1.145-1.535-1.952-2.342
		S5.351,21.507,4.648,21.056z"/>
	<path d="M26.261,19.098c-0.147-0.059-0.312-0.042-0.445,0.04c-0.78,0.482-1.626,0.864-2.513,1.135
		c-0.236,0.072-0.385,0.307-0.348,0.552c0.163,1.101-0.002,2.202-0.478,3.186c-0.008,0.014-0.015,0.027-0.021,0.041
		c-0.619,1.411-0.625,3.877-0.013,5.613c0.07,0.2,0.26,0.334,0.472,0.334l2.566-0.001c0.168,0,0.324-0.084,0.417-0.224
		s0.108-0.316,0.044-0.471c-0.669-1.585-0.463-3.704-0.064-4.606l0.222-0.452c0.704-1.438,0.881-3.283,0.461-4.814
		C26.519,19.28,26.409,19.157,26.261,19.098z"/>
	<path d="M20.117,0.001c-4.592,0-8.648,3.246-9.646,7.718c0,0.003-0.001,0.006-0.002,0.009c-0.127,0.472-2.271,8.191-6.687,10.32
		c-0.027,0.013-0.045,0.035-0.068,0.052c-1.249-0.245-2.287-0.026-2.964,0.65c-1.603,1.603-0.553,5.164,2.391,8.107
		c1.362,1.363,2.923,2.375,4.395,2.85c0.606,0.196,1.174,0.293,1.688,0.293c0.831,0,1.525-0.253,2.024-0.753
		c0.694-0.694,0.889-1.757,0.649-2.976c0.017-0.024,0.044-0.037,0.057-0.065c2.403-5.275,10.046-6.637,10.139-6.653
		c4.581-0.929,7.906-4.999,7.906-9.677C30,4.431,25.566,0.001,20.117,0.001z M10.542,28.54c-0.523,0.522-1.508,0.6-2.698,0.215
		c-1.324-0.427-2.742-1.353-3.995-2.605c-2.462-2.461-3.557-5.526-2.391-6.693c0.304-0.303,0.763-0.457,1.327-0.457
		c0.408,0,0.871,0.08,1.371,0.242c1.324,0.427,2.742,1.353,3.995,2.605C10.613,24.309,11.708,27.374,10.542,28.54z M14,9.999
		c-0.552,0-1-0.449-1-1c0-0.551,0.448-1,1-1s1,0.449,1,1C15,9.549,14.552,9.999,14,9.999z M20,10.999c-0.552,0-1-0.449-1-1
		c0-0.551,0.448-1,1-1s1,0.449,1,1C21,10.549,20.552,10.999,20,10.999z"/>
</g>
</svg>
