<?xml version="1.0" encoding="iso-8859-1"?>
<!-- Generator: Adobe Illustrator 19.0.0, SVG Export Plug-In . SVG Version: 6.00 Build 0)  -->
<svg version="1.1" id="Layer_1" xmlns="http://www.w3.org/2000/svg" xmlns:xlink="http://www.w3.org/1999/xlink" x="0px" y="0px"
	 viewBox="0 0 30 30" style="enable-background:new 0 0 30 30;" xml:space="preserve">
<g>
	<circle cx="10" cy="11" r="1"/>
	<path d="M30,0.497c-0.001-0.134-0.056-0.263-0.152-0.356C29.751,0.047,29.626-0.008,29.487,0c-0.139,0.004-3.324,0.104-6.336,1.262
		C22.262,0.424,21.43,0,20.674,0C18.487,0,15.887,1.749,15,2.396C14.113,1.749,11.513,0,9.326,0C8.57,0,7.738,0.424,6.849,1.262
		C3.837,0.104,0.652,0.004,0.513,0C0.381-0.008,0.249,0.047,0.152,0.141C0.055,0.234,0.001,0.363,0,0.497
		c-0.001,0.191-0.007,4.672,1.958,9.056C0.694,12.973,0,16.467,0,19.413c0,1.018,0.216,2,0.598,2.933
		c0.01,0.046,0.025,0.088,0.047,0.13C2.512,26.824,8.238,30,15,30c6.763,0,12.49-3.177,14.355-7.526
		c0.022-0.042,0.038-0.085,0.048-0.131C29.784,21.411,30,20.431,30,19.413c0-2.946-0.694-6.44-1.958-9.86
		C30.007,5.168,30.001,0.688,30,0.497z M24.086,3.959c0.037-0.167,0.188-0.267,0.35-0.324c0.662-0.236,1.384-0.43,2.147-0.578
		c0.161-0.031,0.323,0.018,0.441,0.13c0.117,0.113,0.172,0.275,0.147,0.436c-0.157,1.036-0.386,2.037-0.68,2.977
		c-0.028,0.146-0.121,0.277-0.265,0.35C26.154,6.987,26.077,7.004,26,7.004c-0.182,0-0.356-0.099-0.445-0.272
		c-0.437-0.852-0.896-1.642-1.367-2.346C24.068,4.265,24.048,4.127,24.086,3.959z M16.17,12.124c1.24-1.088,5.428-4.597,7.145-4.063
		c1.197,0.37,1.576,3.197,1.684,4.395c0.013,0.14-0.034,0.278-0.129,0.382C24.775,12.942,24.641,13,24.5,13h-8
		c-0.208,0-0.395-0.129-0.468-0.324S16.014,12.261,16.17,12.124z M22.551,16.283c0.259,0.097,0.39,0.386,0.292,0.644
		c-0.098,0.258-0.389,0.388-0.644,0.292C20.142,16.444,17.518,16,15,16c-2.407,0-4.637,0.4-6.815,1.222
		c-0.059,0.022-0.118,0.032-0.177,0.032c-0.202,0-0.393-0.123-0.468-0.323c-0.098-0.259,0.033-0.547,0.291-0.645
		c2.294-0.866,4.64-1.287,7.169-1.287C17.672,15,20.354,15.456,22.551,16.283z M19.686,18.964l-2.5,1C17.125,19.989,17.062,20,17,20
		c-0.198,0-0.386-0.119-0.464-0.314c-0.103-0.256,0.021-0.547,0.278-0.65l2.5-1c0.256-0.103,0.547,0.022,0.649,0.279
		C20.065,18.572,19.942,18.862,19.686,18.964z M13.464,19.686C13.386,19.881,13.198,20,13,20c-0.062,0-0.125-0.011-0.186-0.036
		l-2.5-1c-0.257-0.103-0.381-0.394-0.278-0.65c0.103-0.256,0.394-0.381,0.649-0.279l2.5,1
		C13.442,19.138,13.566,19.429,13.464,19.686z M6.686,8.061c1.722-0.534,5.903,2.975,7.145,4.063
		c0.156,0.137,0.211,0.357,0.138,0.552S13.708,13,13.5,13h-8c-0.141,0-0.274-0.059-0.369-0.163
		c-0.095-0.104-0.142-0.242-0.129-0.382C5.109,11.257,5.488,8.431,6.686,8.061z M3.004,3.141c0.118-0.112,0.284-0.16,0.442-0.126
		c0.738,0.15,1.437,0.349,2.076,0.588c0.149,0.056,0.264,0.181,0.307,0.335c0.042,0.154,0.008,0.32-0.092,0.445
		c-0.421,0.667-0.864,1.468-1.29,2.34C4.361,6.9,4.182,7.004,3.998,7.004c-0.071,0-0.143-0.015-0.211-0.047
		c-0.153-0.071-0.254-0.21-0.281-0.365C3.223,5.636,3.003,4.621,2.852,3.576C2.828,3.415,2.885,3.252,3.004,3.141z M28.367,22.265
		C26.59,26.163,21.27,29,15,29c-6.265,0-11.581-2.833-13.362-6.726c0.392-0.724,1.009-1.359,1.745-2.01
		c0.855,1.331,3.318,4.735,6.117,4.735c1.072,0,1.812-0.229,2.665-0.528c1.801-0.63,3.867-0.629,5.67,0
		c0.828,0.289,1.6,0.528,2.665,0.528c2.823,0,5.415-3.421,6.31-4.739C27.522,20.927,28.003,21.555,28.367,22.265z"/>
	<circle cx="20" cy="11" r="1"/>
</g>
</svg>
