<?xml version="1.0" encoding="iso-8859-1"?>
<!-- Generator: Adobe Illustrator 19.0.0, SVG Export Plug-In . SVG Version: 6.00 Build 0)  -->
<svg version="1.1" id="Layer_1" xmlns="http://www.w3.org/2000/svg" xmlns:xlink="http://www.w3.org/1999/xlink" x="0px" y="0px"
	 viewBox="0 0 30 30" style="enable-background:new 0 0 30 30;" xml:space="preserve">
<g>
	<path d="M29.999,18.057c0.017-0.151-0.036-0.302-0.144-0.41l-2.245-2.245l2.339-4.678c0.088-0.177,0.064-0.389-0.062-0.542
		c-0.125-0.153-0.329-0.217-0.52-0.164l-4.264,1.181l3.244-5.993C29.164,3.656,30,1.885,30,0.5c0-0.202-0.122-0.385-0.309-0.462
		c-0.185-0.079-0.402-0.035-0.545,0.108L17.692,11.605c-1.636,1.28-3.75,1.28-5.339,0.041L0.853,0.147
		C0.709,0.004,0.495-0.039,0.308,0.039c-0.187,0.077-0.309,0.26-0.309,0.462c0,1.428,0.674,2.764,1.455,4.31l3.453,6.391
		l-4.274-1.184c-0.192-0.051-0.395,0.011-0.52,0.164c-0.126,0.153-0.149,0.365-0.062,0.542l2.339,4.678l-2.245,2.245
		c-0.107,0.108-0.16,0.259-0.144,0.41c0.018,0.151,0.103,0.287,0.232,0.367l3.523,2.203l-3.649,4.561
		c-0.129,0.161-0.146,0.384-0.042,0.563c0.103,0.178,0.304,0.274,0.509,0.244l6.266-0.964c1.087,0.966,5.735,4.97,8.158,4.97
		c2.167,0,7.033-4.022,8.15-4.971l6.273,0.965c0.201,0.031,0.406-0.065,0.509-0.244c0.104-0.179,0.087-0.402-0.042-0.563
		l-3.644-4.561l3.523-2.203C29.897,18.343,29.982,18.208,29.999,18.057z M6.833,19.501c-0.843,0,0.088-2.527,0.564-3.697
		l1.998,3.697C8.662,19.501,7.411,19.501,6.833,19.501z M13.357,26.355c-0.098,0.098-0.226,0.146-0.354,0.146
		s-0.256-0.049-0.354-0.146l-1.5-1.5c-0.195-0.195-0.195-0.512,0-0.707s0.512-0.195,0.707,0l1.5,1.5
		C13.552,25.843,13.552,26.159,13.357,26.355z M18.857,24.855l-1.5,1.5c-0.098,0.098-0.226,0.146-0.354,0.146
		s-0.256-0.049-0.354-0.146c-0.195-0.195-0.195-0.512,0-0.707l1.5-1.5c0.195-0.195,0.512-0.195,0.707,0S19.052,24.659,18.857,24.855
		z M23.163,19.501c-0.575,0-1.817,0-2.551,0l1.993-3.682C23.083,16.996,24.002,19.501,23.163,19.501z"/>
</g>
</svg>
