<?xml version="1.0" encoding="iso-8859-1"?>
<!-- Generator: Adobe Illustrator 19.0.0, SVG Export Plug-In . SVG Version: 6.00 Build 0)  -->
<svg version="1.1" id="Layer_1" xmlns="http://www.w3.org/2000/svg" xmlns:xlink="http://www.w3.org/1999/xlink" x="0px" y="0px"
	 viewBox="0 0 30 30" style="enable-background:new 0 0 30 30;" xml:space="preserve">
<g>
	<path d="M14.603,3.827C14.698,3.943,14.84,4.01,14.99,4.01c0.15,0,0.292-0.067,0.387-0.184c0.411-0.502,0.878-1.008,1.426-1.544
		c0.191-0.188,0.2-0.494,0.019-0.693c-0.699-0.768-1.469-1.425-1.501-1.453c-0.188-0.159-0.461-0.159-0.648,0
		c-0.032,0.028-0.808,0.689-1.508,1.46c-0.181,0.198-0.172,0.504,0.02,0.692C13.732,2.827,14.196,3.33,14.603,3.827z"/>
	<path d="M24.593,8.713c-2.106-2.219-4.096-4.315-4.096-7.229c0-0.19-0.108-0.365-0.279-0.449c-0.171-0.083-0.373-0.063-0.526,0.053
		c-0.425,0.328-3.483,2.737-4.698,5.056c-1.221-2.303-4.266-4.725-4.688-5.055C10.155,0.971,9.952,0.951,9.78,1.034
		c-0.172,0.084-0.28,0.258-0.28,0.449c0,2.866-1.979,4.96-4.075,7.177c-2.421,2.561-4.925,5.209-4.925,9.369
		c0,5.734,2.765,8.657,5.085,10.098c0.204,0.128,0.475,0.09,0.636-0.091c0.162-0.181,0.171-0.451,0.021-0.642
		c-1.156-1.476-1.742-3.279-1.742-5.359c0-1.713,0.496-3.124,0.976-4.488c0.031-0.089,0.037-0.185,0.016-0.276
		c-0.754-3.33,0.384-6.296,0.396-6.328c0.223-0.579,0.781-0.959,1.398-0.959c0.016,0,0.031,0,0.048,0
		c0.223,0.007,2.233,0.101,4.044,1.18c0.131,0.077,0.292,0.092,0.432,0.039c2.115-0.794,4.267-0.793,6.38-0.003
		c0.142,0.054,0.301,0.039,0.431-0.039c1.813-1.08,3.825-1.17,4.049-1.176c0.635-0.026,1.216,0.366,1.444,0.961
		c0.012,0.03,1.148,2.984,0.398,6.316c-0.021,0.089-0.016,0.181,0.013,0.268l0.042,0.125c0.459,1.339,0.934,2.723,0.934,4.382
		c0,2.08-0.586,3.883-1.742,5.359c-0.149,0.191-0.141,0.461,0.021,0.642c0.098,0.109,0.234,0.166,0.372,0.166
		c0.091,0,0.183-0.024,0.264-0.075c2.32-1.441,5.085-4.364,5.085-10.098C29.497,13.881,27.004,11.254,24.593,8.713z"/>
	<circle cx="11.497" cy="20.984" r="1"/>
	<path d="M23.616,17.976l-0.183-0.539c0.867-3.161-0.209-6.012-0.256-6.133c-0.077-0.198-0.271-0.329-0.481-0.32
		c-0.104,0.003-2.444,0.09-4.166,1.446c-2.289-1.081-4.778-1.083-7.067,0.004c-1.721-1.356-4.06-1.446-4.164-1.449
		c-0.212-0.03-0.406,0.121-0.482,0.319c-0.047,0.122-1.127,2.981-0.252,6.148l-0.137,0.394c-0.458,1.303-0.931,2.65-0.931,4.19
		c0,4.903,3.641,7.948,9.5,7.948s9.5-3.045,9.5-7.948C24.497,20.543,24.051,19.238,23.616,17.976z M9.398,21.986
		c-0.187,0-0.364-0.104-0.45-0.283c-0.295-0.612-0.451-1.336-0.451-2.094c0-1.918,1.398-3.625,2.5-3.625
		c1.125,0,2.5,1.673,2.5,3.625c0,0.758-0.155,1.481-0.45,2.092c-0.083,0.173-0.258,0.283-0.45,0.283h-1.1H9.45
		C9.434,21.985,9.415,21.986,9.398,21.986z M20.344,24.844l-0.634,0.609c-0.309,0.33-0.764,0.53-1.23,0.53h-1.831l-1.374,0.916
		c-0.084,0.056-0.181,0.084-0.277,0.084s-0.193-0.028-0.277-0.084l-1.375-0.915h-1.831c-0.467,0-0.922-0.2-1.249-0.549l-0.615-0.591
		c-0.199-0.191-0.205-0.508-0.014-0.707c0.191-0.199,0.51-0.204,0.707-0.014l0.634,0.609c0.159,0.168,0.343,0.251,0.537,0.251h1.982
		c0.099,0,0.195,0.029,0.277,0.084l1.223,0.815l1.223-0.815c0.082-0.055,0.179-0.084,0.277-0.084h1.982
		c0.194,0,0.378-0.083,0.519-0.232l0.652-0.628c0.198-0.19,0.517-0.186,0.707,0.014C20.549,24.337,20.543,24.653,20.344,24.844z
		 M21.047,21.701c-0.083,0.173-0.258,0.283-0.45,0.283h-2.1H17.45c-0.017,0.001-0.034,0.002-0.051,0.002
		c-0.187,0-0.364-0.104-0.45-0.283c-0.295-0.612-0.451-1.336-0.451-2.094c0-1.918,1.398-3.625,2.5-3.625
		c1.125,0,2.5,1.673,2.5,3.625C21.497,20.367,21.342,21.09,21.047,21.701z"/>
	<circle cx="18.497" cy="20.984" r="1"/>
</g>
</svg>
