<?xml version="1.0" encoding="iso-8859-1"?>
<!-- Generator: Adobe Illustrator 19.0.0, SVG Export Plug-In . SVG Version: 6.00 Build 0)  -->
<svg version="1.1" id="Layer_1" xmlns="http://www.w3.org/2000/svg" xmlns:xlink="http://www.w3.org/1999/xlink" x="0px" y="0px"
	 viewBox="0 0 30 30" style="enable-background:new 0 0 30 30;" xml:space="preserve">
<g>
	<circle cx="9.5" cy="11" r="1"/>
	<path d="M28.767,16.616c-0.277-0.341-0.539-0.663-0.539-0.986C28.228,7.157,22.17,0,15,0S1.772,7.158,1.772,15.63
		c0,0.342-0.25,0.645-0.54,0.995C0.888,17.039,0.5,17.509,0.5,18.152C0.5,25.568,7.872,30,15,30c7.128,0,14.5-4.432,14.5-11.848
		C29.5,17.519,29.11,17.04,28.767,16.616z M21.5,8c1.71,0,3,2.702,3,6.285c0,1.196-0.152,2.356-0.44,3.354
		C23.998,17.853,23.802,18,23.58,18h-4.158c-0.223,0-0.418-0.146-0.479-0.36c-0.289-0.988-0.441-2.148-0.441-3.354
		C18.5,10.702,19.79,8,21.5,8z M8.5,8c1.71,0,3,2.702,3,6.285c0,1.196-0.152,2.356-0.44,3.354C10.998,17.853,10.802,18,10.58,18
		H6.422c-0.223,0-0.418-0.146-0.479-0.36c-0.289-0.988-0.441-2.148-0.441-3.354C5.5,10.702,6.79,8,8.5,8z M26.469,20.675
		C24.915,24.827,19.524,27,15,27s-9.915-2.172-11.469-6.325c-0.057-0.154-0.035-0.326,0.058-0.46C3.683,20.081,3.836,20,4,20
		c1.106,0,2.34,0.061,3.566,0.153l1.997,3.59C9.651,23.902,9.818,24,10,24c0.004,0,0.007,0,0.011,0
		c0.186-0.004,0.354-0.11,0.437-0.276l1.563-3.115c0.919,0.118,1.684,0.231,2.173,0.315c0.541,0.092,1.091,0.092,1.632-0.001
		c0.568-0.098,1.317-0.208,2.167-0.317l1.571,3.119c0.083,0.166,0.251,0.271,0.437,0.275c0.003,0,0.007,0,0.01,0
		c0.182,0,0.35-0.099,0.437-0.258l1.985-3.588C23.676,20.06,24.917,20,26.001,20c0.164,0,0.317,0.081,0.411,0.215
		C26.504,20.35,26.525,20.521,26.469,20.675z"/>
	<circle cx="20.5" cy="11" r="1"/>
</g>
</svg>
