<?xml version="1.0" encoding="iso-8859-1"?>
<!-- Generator: Adobe Illustrator 19.0.0, SVG Export Plug-In . SVG Version: 6.00 Build 0)  -->
<svg version="1.1" id="Layer_1" xmlns="http://www.w3.org/2000/svg" xmlns:xlink="http://www.w3.org/1999/xlink" x="0px" y="0px"
	 viewBox="0 0 30 30" style="enable-background:new 0 0 30 30;" xml:space="preserve">
<g>
	<path d="M24.109,0.664c-0.335-0.418-0.834-0.658-1.37-0.658h-0.117c-0.704,0-1.338,0.419-1.617,1.071L17.691,9h-5.377l-3.32-7.933
		C8.717,0.419,8.083,0,7.379,0H7.261c-0.535,0-1.035,0.24-1.37,0.658c-0.336,0.419-0.462,0.96-0.349,1.474l1.95,9.886l-0.828,6.45
		c-0.158,0.791,0.001,1.596,0.447,2.268l1.798,2.705c0.056,0.084,0.094,0.177,0.12,0.305l1.062,4.112
		c0.057,0.219,0.6,2.143,1.907,2.143c0.738,0,1.136-0.132,1.52-0.26c0.37-0.123,0.72-0.24,1.48-0.24
		c0.787,0,1.215,0.121,1.668,0.248C17.106,29.872,17.561,30,18.285,30c1.37,0,1.618-1.991,1.628-2.145l1.068-4.139
		c0.019-0.099,0.057-0.191,0.113-0.275l1.798-2.706c0.446-0.672,0.605-1.477,0.453-2.234l-0.841-6.484l1.951-9.868
		C24.572,1.623,24.446,1.083,24.109,0.664z M9.998,20c-0.157,0-0.304-0.073-0.398-0.198c-0.095-0.125-0.125-0.287-0.083-0.437
		l0.75-2.667c0-0.002,0.001-0.003,0.001-0.005l-0.67-0.894c-0.166-0.221-0.121-0.534,0.1-0.7s0.534-0.122,0.7,0.1l3,4
		c0.114,0.151,0.132,0.354,0.047,0.523C13.36,19.893,13.187,20,12.998,20H9.998z M13.914,26.776C13.818,26.922,13.659,27,13.498,27
		c-0.095,0-0.191-0.027-0.277-0.084l-1.5-1c-0.23-0.153-0.292-0.463-0.139-0.693c0.152-0.23,0.462-0.292,0.693-0.139l1.5,1
		C14.005,26.237,14.067,26.547,13.914,26.776z M18.275,25.916l-1.5,1C16.69,26.973,16.594,27,16.498,27
		c-0.162,0-0.32-0.078-0.417-0.223c-0.153-0.23-0.091-0.54,0.139-0.693l1.5-1c0.229-0.154,0.54-0.091,0.693,0.139
		C18.566,25.453,18.505,25.763,18.275,25.916z M19.729,16.698l0.75,2.667c0.042,0.15,0.012,0.313-0.083,0.437
		C20.302,19.927,20.155,20,19.998,20h-3c-0.189,0-0.362-0.107-0.447-0.276c-0.084-0.169-0.066-0.372,0.047-0.523l3-4
		c0.166-0.221,0.48-0.265,0.7-0.1c0.221,0.166,0.266,0.479,0.1,0.7l-0.67,0.894C19.728,16.695,19.729,16.695,19.729,16.698z"/>
</g>
</svg>
