<?xml version="1.0" encoding="iso-8859-1"?>
<!-- Generator: Adobe Illustrator 19.0.0, SVG Export Plug-In . SVG Version: 6.00 Build 0)  -->
<svg version="1.1" id="Layer_1" xmlns="http://www.w3.org/2000/svg" xmlns:xlink="http://www.w3.org/1999/xlink" x="0px" y="0px"
	 viewBox="0 0 30 30" style="enable-background:new 0 0 30 30;" xml:space="preserve">
<g>
	<path d="M29.323,14.596c-0.431-0.336-0.983-0.454-1.511-0.32l-1.614,0.403c-0.01-0.428-0.027-0.856-0.076-1.279
		c3.838-4.812,3.877-12.573,3.877-12.901c0-0.138-0.057-0.269-0.157-0.363c-0.1-0.094-0.231-0.138-0.372-0.135
		c-0.184,0.011-4.489,0.305-8.904,3.736C19.687,1.552,17.524,0,14.995,0c-0.282,0-0.557,0.026-0.829,0.063
		c-0.064,0.009-0.127,0.018-0.19,0.029c-0.268,0.045-0.531,0.103-0.785,0.182c-0.012,0.004-0.024,0.009-0.037,0.013
		c-0.248,0.079-0.488,0.177-0.721,0.286c-0.046,0.021-0.092,0.042-0.137,0.065c-0.242,0.121-0.478,0.255-0.7,0.406
		c-0.005,0.004-0.01,0.008-0.015,0.011c-0.223,0.153-0.433,0.323-0.633,0.503c-0.021,0.019-0.043,0.038-0.064,0.057
		C10.471,2,10.112,2.441,9.823,2.928c-0.005,0.008-0.01,0.016-0.015,0.024C9.662,3.201,9.533,3.46,9.424,3.73
		C9.153,4.402,8.999,5.133,8.999,5.899v0.1c0,2.481,2.019,4.5,4.5,4.5s4.5-2.019,4.5-4.5c0-1.378-1.121-2.5-2.5-2.5
		c-1.379,0-2.5,1.122-2.5,2.5c0,0.276-0.224,0.5-0.5,0.5s-0.5-0.224-0.5-0.5c0-1.93,1.57-3.5,3.5-3.5s3.5,1.57,3.5,3.5
		c0,3.033-2.468,5.5-5.5,5.5s-5.5-2.467-5.5-5.5v-0.1c0-0.988,0.216-1.927,0.597-2.778C4.489,0.269,0.701,0.01,0.529,0
		C0.394-0.002,0.258,0.041,0.157,0.135C0.056,0.229,0,0.361,0,0.499C0,0.828,0.039,8.589,3.877,13.4
		c-0.049,0.423-0.066,0.851-0.075,1.279l-1.614-0.403c-0.528-0.133-1.08-0.016-1.511,0.32C0.247,14.932,0,15.438,0,15.984
		c0,1.523,0.913,2.872,2.327,3.437l2.127,0.851c0.184,0.757,1.271,5.088,2.897,8.528C7.713,29.563,8.32,30,9.016,30h0.791
		c0.671,0,1.274-0.373,1.593-1.013l0.912-2.303c0.007-0.018,0.005-0.036,0.01-0.053c0.873,0.237,1.768,0.368,2.678,0.368
		c0.911,0,1.806-0.132,2.678-0.37c0.005,0.018,0.003,0.036,0.01,0.054l0.93,2.343c0.301,0.6,0.904,0.973,1.575,0.973h0.791
		c0.696,0,1.303-0.438,1.665-1.201c1.626-3.439,2.714-7.77,2.897-8.527l2.127-0.851C29.087,18.855,30,17.506,30,15.983
		C30,15.437,29.753,14.932,29.323,14.596z M2.25,8.06C1.302,5.136,1.072,2.251,1.017,1.064c0.817,0.124,2.473,0.474,4.425,1.39
		C3.687,4.443,2.712,6.72,2.25,8.06z M12,14.499v-1c0-0.276,0.224-0.5,0.5-0.5s0.5,0.224,0.5,0.5v1c0,0.276-0.224,0.5-0.5,0.5
		S12,14.775,12,14.499z M17.284,17.41c-0.579,0.401-1.425,0.602-2.273,0.602c-0.847,0-1.696-0.199-2.29-0.598
		c-0.229-0.154-0.29-0.465-0.136-0.694c0.155-0.229,0.467-0.289,0.694-0.136c0.848,0.57,2.614,0.573,3.437,0.004
		c0.225-0.156,0.538-0.101,0.695,0.126C17.568,16.941,17.512,17.253,17.284,17.41z M18,14.541c0,0.276-0.224,0.5-0.5,0.5
		s-0.5-0.224-0.5-0.5v-1c0-0.276,0.224-0.5,0.5-0.5s0.5,0.224,0.5,0.5V14.541z M24.558,2.454c1.952-0.916,3.608-1.265,4.425-1.39
		c-0.054,1.187-0.285,4.072-1.233,6.996C27.288,6.72,26.313,4.443,24.558,2.454z"/>
</g>
</svg>
