<?xml version="1.0" encoding="iso-8859-1"?>
<!-- Generator: Adobe Illustrator 19.0.0, SVG Export Plug-In . SVG Version: 6.00 Build 0)  -->
<svg version="1.1" id="Layer_1" xmlns="http://www.w3.org/2000/svg" xmlns:xlink="http://www.w3.org/1999/xlink" x="0px" y="0px"
	 viewBox="0 0 30 30" style="enable-background:new 0 0 30 30;" xml:space="preserve">
<g>
	<path d="M26.394,25H3.605C1.893,25,0.5,26.393,0.5,28.105V29.5C0.5,29.776,0.724,30,1,30h28c0.276,0,0.5-0.224,0.5-0.5v-1.395
		C29.499,26.393,28.106,25,26.394,25z"/>
	<path d="M3.999,24h9c0.276,0,0.5-0.224,0.5-0.5V18c0-1.747,0.658-3.425,1.852-4.725c0.091-0.1,0.139-0.232,0.131-0.367
		C15.293,9.595,12.666,7,9.5,7c-3.309,0-6,2.82-6,6.286V23.5C3.499,23.776,3.723,24,3.999,24z M12.499,12c0-0.276,0.224-0.5,0.5-0.5
		s0.5,0.224,0.5,0.5v1.5c0,0.276-0.224,0.5-0.5,0.5s-0.5-0.224-0.5-0.5V12z M10.499,15c0.967,0,2,0.263,2,1s-1.033,1-2,1
		s-2-0.263-2-1S9.532,15,10.499,15z M7.499,12c0-0.276,0.224-0.5,0.5-0.5s0.5,0.224,0.5,0.5v1.438c0,0.276-0.224,0.5-0.5,0.5
		s-0.5-0.224-0.5-0.5V12z"/>
	<path d="M14.499,18v5.5c0,0.276,0.224,0.5,0.5,0.5h11c0.276,0,0.5-0.224,0.5-0.5V18c0-3.309-2.691-6-6-6S14.499,14.691,14.499,18z
		 M18.999,18.938c-0.276,0-0.5-0.224-0.5-0.5V17c0-0.276,0.224-0.5,0.5-0.5s0.5,0.224,0.5,0.5v1.438
		C19.499,18.714,19.275,18.938,18.999,18.938z M23.499,17c0-0.276,0.224-0.5,0.5-0.5s0.5,0.224,0.5,0.5v1.5
		c0,0.276-0.224,0.5-0.5,0.5s-0.5-0.224-0.5-0.5V17z M23.499,21c0,0.737-1.033,1-2,1s-2-0.263-2-1s1.033-1,2-1
		S23.499,20.263,23.499,21z"/>
	<path d="M11.826,6.446c2.26,0.835,3.934,2.766,4.479,5.166c0.035,0.154,0.142,0.283,0.287,0.347
		c0.064,0.028,0.132,0.042,0.201,0.042c0.086,0,0.172-0.022,0.249-0.066c1.783-1.022,3.85-1.219,5.79-0.524
		c0.153,0.056,0.324,0.032,0.457-0.062s0.212-0.246,0.212-0.409V5.984c0-3.299-2.691-5.984-6-5.984c-3.304,0-5.996,2.681-6,5.977
		C11.499,6.186,11.63,6.374,11.826,6.446z M20.499,5c0-0.276,0.224-0.5,0.5-0.5s0.5,0.224,0.5,0.5v1.5c0,0.276-0.224,0.5-0.5,0.5
		s-0.5-0.224-0.5-0.5V5z M18.499,8c0.967,0,2,0.263,2,1s-1.033,1-2,1s-2-0.263-2-1S17.532,8,18.499,8z M15.499,5.063
		c0-0.276,0.224-0.5,0.5-0.5s0.5,0.224,0.5,0.5V6.5c0,0.276-0.224,0.5-0.5,0.5s-0.5-0.224-0.5-0.5V5.063z"/>
</g>
</svg>
