<?xml version="1.0" encoding="iso-8859-1"?>
<!-- Generator: Adobe Illustrator 19.0.0, SVG Export Plug-In . SVG Version: 6.00 Build 0)  -->
<svg version="1.1" id="Layer_1" xmlns="http://www.w3.org/2000/svg" xmlns:xlink="http://www.w3.org/1999/xlink" x="0px" y="0px"
	 viewBox="0 0 30 30" style="enable-background:new 0 0 30 30;" xml:space="preserve">
<g>
	<path d="M27.464,4.329c-0.062-0.164-0.206-0.284-0.378-0.315c-0.112-0.018-2.819-0.436-10.016,3.39l-1.111-0.982
		c-0.116-0.102-0.272-0.145-0.422-0.117c-0.151,0.028-0.281,0.124-0.353,0.26l-0.379,0.726L13.37,6.375
		c-0.119-0.076-0.266-0.099-0.402-0.061c-0.137,0.038-0.251,0.131-0.314,0.258l-0.358,0.716l-1.454-0.916
		c-0.121-0.076-0.269-0.099-0.405-0.058c-0.137,0.04-0.251,0.136-0.313,0.265l-0.15,0.313c-2.497-4.391-6.55-6.719-6.732-6.823
		C3.12,0,2.975-0.014,2.842,0.028C2.675,0.082,2.546,0.225,2.507,0.397C2.422,0.772,3.808,5.814,7.688,9.656
		c-0.109,0.281-0.191,0.573-0.191,0.91v5.785c0,1.403,0.934,2.621,2.27,2.962l2.197,0.561c0.338,0.089,0.685,0.132,1.033,0.132
		c0.348,0,0.695-0.043,1.033-0.129l2.197-0.561c1.336-0.341,2.27-1.559,2.27-2.962v-5.543c6.865-3.493,8.813-5.893,8.893-5.995
		C27.498,4.677,27.527,4.493,27.464,4.329z M10.497,12.506c0-0.276,0.224-0.5,0.5-0.5s0.5,0.224,0.5,0.5v1
		c0,0.276-0.224,0.5-0.5,0.5s-0.5-0.224-0.5-0.5V12.506z M15.36,15.85c-0.508,0.538-0.997,0.677-1.362,0.64
		c-0.415-0.006-0.76-0.17-1.002-0.333c-0.256,0.176-0.628,0.36-1.064,0.36c-0.017,0-0.033,0-0.05-0.001
		c-0.331-0.01-0.821-0.139-1.272-0.693c-0.174-0.214-0.142-0.529,0.072-0.704c0.215-0.174,0.53-0.141,0.704,0.072
		c0.172,0.212,0.345,0.318,0.526,0.325c0.31,0.035,0.625-0.25,0.722-0.352c0.096-0.101,0.208-0.141,0.372-0.156
		c0.14,0.002,0.273,0.062,0.366,0.166c0.079,0.085,0.354,0.315,0.647,0.317c0,0,0.002,0,0.003,0c0.204,0,0.405-0.107,0.613-0.328
		c0.19-0.2,0.506-0.209,0.707-0.02C15.541,15.333,15.55,15.649,15.36,15.85z M15.497,13.506c0,0.276-0.224,0.5-0.5,0.5
		s-0.5-0.224-0.5-0.5v-1c0-0.276,0.224-0.5,0.5-0.5s0.5,0.224,0.5,0.5V13.506z"/>
	<path d="M19.497,15.378v0.975c0,1.86-1.243,3.476-3.023,3.931l-2.196,0.561c-0.417,0.106-0.848,0.161-1.281,0.161
		c-0.433,0-0.864-0.054-1.281-0.161l-2.197-0.561c-1.78-0.454-3.023-2.071-3.023-3.931v-0.968c-2.344,0.889-3.989,3.157-3.989,5.816
		c0,2.861,3.772,5.996,3.933,6.128c0.091,0.075,0.203,0.114,0.317,0.114c0.055,0,0.109-0.009,0.162-0.027
		c0.042-0.015,0.962-0.333,2.162-0.881c1.485,1.82,3.503,3.272,3.636,3.367c0.087,0.062,0.188,0.093,0.29,0.093
		s0.203-0.031,0.29-0.093c0.134-0.095,2.152-1.547,3.636-3.367c1.199,0.548,2.119,0.867,2.161,0.881
		c0.053,0.018,0.107,0.027,0.162,0.027c0.1,0,0.198-0.03,0.283-0.087c0.162-0.111,3.967-2.759,3.967-6.154
		C23.508,18.533,21.853,16.262,19.497,15.378z"/>
</g>
</svg>
