<?xml version="1.0" encoding="iso-8859-1"?>
<!-- Generator: Adobe Illustrator 19.0.0, SVG Export Plug-In . SVG Version: 6.00 Build 0)  -->
<svg version="1.1" id="Layer_1" xmlns="http://www.w3.org/2000/svg" xmlns:xlink="http://www.w3.org/1999/xlink" x="0px" y="0px"
	 viewBox="0 0 30 30" style="enable-background:new 0 0 30 30;" xml:space="preserve">
<g>
	<path d="M29.96,20.304c-0.927-2.178-2.458-3.433-3.757-4.282c0.01-0.227,0.015-0.454,0.015-0.683c0-0.742-0.059-1.473-0.159-2.195
		l3.918-12.495c0.06-0.191-0.001-0.4-0.153-0.53c-0.154-0.13-0.368-0.156-0.548-0.066L21,4.191V2.5c0-0.202-0.122-0.385-0.309-0.462
		c-0.186-0.078-0.402-0.035-0.545,0.108L19,3.293V0.5c0-0.202-0.122-0.385-0.309-0.462c-0.186-0.079-0.401-0.035-0.545,0.108
		L15,3.293V0.5c0-0.223-0.147-0.419-0.362-0.48c-0.214-0.062-0.443,0.026-0.562,0.215L11.942,3.65L9.883,1.18
		C9.748,1.018,9.527,0.958,9.329,1.03c-0.198,0.072-0.33,0.26-0.33,0.47v2.619L0.72,0.051C0.54-0.038,0.325-0.01,0.173,0.121
		c-0.151,0.13-0.211,0.339-0.15,0.53l3.929,12.398c-0.109,0.752-0.17,1.516-0.17,2.291c0,0.228,0.005,0.454,0.015,0.679
		C2.5,16.865,0.97,18.12,0.04,20.305c-0.08,0.188-0.038,0.405,0.106,0.549l1.5,1.5C1.744,22.452,1.872,22.5,2,22.5
		s0.256-0.049,0.354-0.146c0.96-0.96,1.917-1.19,2.526-1.216c0.547,1.376,1.291,2.595,2.198,3.666
		c-0.513,0.761-1.141,2.209-1.077,4.709C6.008,29.784,6.23,30,6.501,30h4c0.146,0,0.284-0.063,0.379-0.174
		c0.414-0.481,0.776-1.068,1.051-1.568c0.061,0.027,0.129,0.054,0.188,0.08C12.885,28.679,13.608,29,15,29
		c1.347,0,2.106-0.329,2.91-0.678c0.051-0.022,0.107-0.044,0.158-0.066c0.275,0.5,0.638,1.088,1.053,1.57
		C19.216,29.936,19.354,30,19.5,30h4c0.271,0,0.493-0.216,0.5-0.487c0.064-2.5-0.564-3.948-1.078-4.709
		c0.906-1.07,1.648-2.29,2.196-3.665c0.618,0.028,1.567,0.254,2.528,1.215C27.744,22.452,27.872,22.5,28,22.5
		s0.256-0.049,0.354-0.146l1.5-1.5C29.998,20.709,30.04,20.492,29.96,20.304z M16.146,13.131l1.134-1.13h1.22
		c0.276,0,0.5-0.224,0.5-0.5s-0.224-0.5-0.5-0.5h-0.216l2.863-2.855c0.193-0.194,0.512-0.195,0.707,0.001
		c0.194,0.196,0.194,0.512-0.002,0.707l-0.584,0.583c0.026,0.034,0.048,0.071,0.065,0.112c0.04,0.092,0.956,2.269-0.06,3.613
		c-0.534,0.707-2.407,0.845-3.784,0.845c-0.393,0-0.744-0.011-1.013-0.023c-0.198-0.009-0.372-0.134-0.444-0.319
		C15.961,13.48,16.006,13.27,16.146,13.131z M8.146,8.147C8.341,7.951,8.66,7.952,8.853,8.146L11.716,11H11.5
		c-0.276,0-0.5,0.224-0.5,0.5s0.224,0.5,0.5,0.5h1.219l1.134,1.13c0.141,0.14,0.186,0.35,0.114,0.534
		c-0.072,0.185-0.246,0.31-0.444,0.319c-0.269,0.012-0.62,0.023-1.013,0.023c-1.377,0-3.25-0.138-3.784-0.845
		c-1.016-1.345-0.1-3.521-0.06-3.613C8.684,9.507,8.705,9.47,8.731,9.436L8.147,8.853C7.951,8.659,7.951,8.343,8.146,8.147z
		 M22.964,15.686C22.942,15.739,20.769,21,15,21s-7.942-5.261-7.964-5.314c-0.069-0.172-0.037-0.367,0.082-0.508
		c0.119-0.142,0.306-0.208,0.487-0.167c6.098,1.312,8.725,1.312,14.789,0c0.182-0.037,0.368,0.025,0.487,0.166
		C23.001,15.319,23.033,15.514,22.964,15.686z"/>
</g>
</svg>
