<?xml version="1.0" encoding="iso-8859-1"?>
<!-- Generator: Adobe Illustrator 19.0.0, SVG Export Plug-In . SVG Version: 6.00 Build 0)  -->
<svg version="1.1" id="Layer_1" xmlns="http://www.w3.org/2000/svg" xmlns:xlink="http://www.w3.org/1999/xlink" x="0px" y="0px"
	 viewBox="0 0 30 30" style="enable-background:new 0 0 30 30;" xml:space="preserve">
<g>
	<path d="M28.794,12.35l-2.689-0.896c-0.141-0.376-0.454-1.111-0.868-1.731l3.871-2.129c0.549-0.302,0.891-0.879,0.891-1.506
		c0-0.571-0.282-1.103-0.755-1.423s-1.073-0.385-1.603-0.173l-5.08,2.032c-1.725-1.434-3.786-2.334-6.001-2.625l-0.439-2.856
		c-0.138-0.72-0.661-1.041-1.124-1.041c-0.003,0-0.006,0-0.01,0c-0.559,0.006-1.006,0.428-1.113,1.058l-0.437,2.839
		c-2.216,0.291-4.277,1.192-6,2.625l-5.08-2.032C1.828,4.28,1.228,4.345,0.754,4.665c-0.473,0.32-0.755,0.852-0.755,1.423
		c0,0.627,0.342,1.204,0.891,1.506l3.871,2.128c-0.414,0.62-0.727,1.356-0.868,1.732L1.204,12.35
		c-0.721,0.24-1.204,0.912-1.204,1.67v0.759c0,0.725,0.435,1.366,1.107,1.635l3.926,1.57c0.772,0.309,1.271,1.045,1.271,1.877
		c0,0.173-0.141,0.314-0.314,0.314H5.544c-0.972,0-1.762,0.79-1.762,1.76v0.407c0,0.724,0.435,1.365,1.106,1.635
		c0.033,0.013,0.066,0.023,0.102,0.029c0.033,0.006,3.292,0.587,5.27,2.103c-0.025,0.284-0.041,0.564-0.073,0.852
		c-0.067,0.604-0.1,1.024-0.1,1.285c0,0.967,0.79,1.753,1.761,1.753h6.305c0.971,0,1.761-0.787,1.761-1.753
		c0-0.261-0.032-0.681-0.1-1.285c-0.031-0.278-0.047-0.55-0.071-0.825c1.974-1.518,5.237-2.124,5.271-2.13
		c0.033-0.006,0.065-0.016,0.098-0.028c0.672-0.27,1.106-0.911,1.106-1.635v-0.407c0-0.971-0.79-1.76-1.762-1.76h-0.446
		c-0.174,0-0.314-0.141-0.314-0.314c0-0.832,0.499-1.568,1.271-1.877l3.926-1.57c0.673-0.269,1.107-0.91,1.107-1.635v-0.759
		C29.998,13.262,29.515,12.59,28.794,12.35z M7.998,15.001c-0.795,0-1.21-0.374-1.419-0.687c-0.655-0.985-0.158-2.724,0.125-3.523
		l2.652,1.458c-0.214,0.184-0.358,0.447-0.358,0.752c0,0.552,0.448,1,1,1c0.504,0,0.904-0.379,0.973-0.864l0.981,0.539
		C11.332,14.066,9.674,15.001,7.998,15.001z M18.15,29.001h-1.152v-2.5c0-0.276-0.224-0.5-0.5-0.5s-0.5,0.224-0.5,0.5v2.5h-2v-2.5
		c0-0.276-0.224-0.5-0.5-0.5s-0.5,0.224-0.5,0.5v2.5h-1.152c-0.42,0-0.761-0.338-0.761-0.753c0-0.22,0.031-0.616,0.094-1.174
		c0.128-1.141,0.192-2.253,0.209-3.354c2.111,0.069,3.411,0.567,3.424,0.573c0.06,0.024,0.123,0.036,0.187,0.036
		c0.066,0,0.133-0.013,0.194-0.039c0.014-0.005,1.33-0.537,3.422-0.613c0.01,0.651,0.032,1.305,0.08,1.966
		c0.034,0.475,0.069,0.949,0.123,1.432c0.063,0.559,0.094,0.954,0.094,1.174C18.911,28.663,18.57,29.001,18.15,29.001z
		 M18.797,19.641c-0.113,1.009-0.174,2.017-0.189,3.032c-1.855,0.062-3.149,0.455-3.615,0.622c-0.464-0.157-1.746-0.523-3.609-0.578
		c-0.016-1.03-0.07-2.053-0.185-3.075c-0.076-0.673-0.114-1.176-0.114-1.495c0-0.235,0.103-0.443,0.288-0.584
		c0.138-0.105,0.304-0.16,0.477-0.16c0.074,0,0.149,0.01,0.224,0.031c0.313,0.086,0.618,0.135,0.925,0.194v1.874
		c0,0.276,0.224,0.5,0.5,0.5s0.5-0.224,0.5-0.5v-1.726c0.668,0.066,1.333,0.066,2,0.001v1.725c0,0.276,0.224,0.5,0.5,0.5
		s0.5-0.224,0.5-0.5V17.63c0.307-0.059,0.612-0.108,0.924-0.193c0.25-0.067,0.504-0.021,0.701,0.129
		c0.186,0.141,0.288,0.349,0.288,0.584C18.911,18.465,18.873,18.967,18.797,19.641z M23.418,14.313
		c-0.209,0.313-0.625,0.688-1.42,0.688c-1.678,0-3.332-0.939-3.946-1.327l0.974-0.536c0.069,0.484,0.469,0.863,0.972,0.863
		c0.552,0,1-0.448,1-1c0-0.304-0.143-0.567-0.358-0.751l2.661-1.463C23.583,11.587,24.074,13.329,23.418,14.313z M16.689,13.284
		c-1.411,0.616-2.043,0.617-3.342,0.021L1.37,6.719C1.14,6.592,0.997,6.35,0.997,6.089c0-0.242,0.115-0.459,0.316-0.595
		c0.122-0.083,0.26-0.125,0.4-0.125c0.09,0,0.182,0.018,0.27,0.053L12.92,9.796c0.142,0.057,0.303,0.046,0.434-0.03
		c0.132-0.076,0.223-0.208,0.246-0.358l1.26-8.187c0.027-0.162,0.131-0.218,0.137-0.218c0.047,0,0.112,0.08,0.138,0.21l1.261,8.194
		c0.023,0.15,0.114,0.282,0.246,0.358s0.292,0.087,0.434,0.03l10.937-4.374c0.226-0.091,0.47-0.064,0.67,0.072
		c0.201,0.136,0.316,0.353,0.316,0.595c0,0.262-0.143,0.504-0.373,0.63L16.689,13.284z"/>
</g>
</svg>
