<?xml version="1.0" encoding="iso-8859-1"?>
<!-- Generator: Adobe Illustrator 19.0.0, SVG Export Plug-In . SVG Version: 6.00 Build 0)  -->
<svg version="1.1" id="Layer_1" xmlns="http://www.w3.org/2000/svg" xmlns:xlink="http://www.w3.org/1999/xlink" x="0px" y="0px"
	 viewBox="0 0 30 30" style="enable-background:new 0 0 30 30;" xml:space="preserve">
<g>
	<path d="M26.652,19.431c0.539-1.416,0.825-2.903,0.825-4.434c0-0.343-0.04-0.677-0.066-1.014c2.676-4.58,2.593-12.173,2.588-12.494
		c-0.002-0.133-0.058-0.26-0.153-0.353c-0.097-0.092-0.187-0.127-0.359-0.14c-0.224,0.006-4.948,0.153-8.802,2.027
		c0.564,1.674,0.351,3.384-0.589,4.696c-0.305,0.426-0.679,0.796-1.094,1.085c0.017,0.204,0.02,0.384,0.02,0.518
		c0,2.138-1.691,3.689-4.022,3.689c-3.718,0-6-4.668-6-8.016c0-0.667,0.118-1.322,0.336-1.942c-3.856-1.871-8.594-2.05-8.82-2.057
		c-0.141-0.018-0.265,0.045-0.36,0.138c-0.098,0.093-0.153,0.22-0.155,0.354C-0.004,1.809-0.088,9.404,2.59,13.984
		c-0.027,0.338-0.067,0.673-0.067,1.018c0,1.531,0.286,3.018,0.825,4.434c-2.21,1.541-3.243,3.441-3.289,3.529
		c-0.118,0.224-0.05,0.501,0.159,0.645c0.115,0.08,0.886,0.555,2.814,0.555c0.823,0,1.875-0.096,3.16-0.338
		c0.501,0.5,1.034,0.963,1.61,1.37c-1.07,0.242-2.039,0.633-2.76,1.117c-0.93,0.624-1.368,1.356-1.235,2.061
		c0.133,0.706,0.808,1.228,1.9,1.471c0.453,0.101,0.962,0.15,1.503,0.15c0.594,0,1.227-0.06,1.867-0.181
		c1.893-0.356,3.803-1.279,4.286-2.449c0.541,0.071,1.088,0.108,1.636,0.108c0.553,0,1.104-0.036,1.649-0.108
		c0.483,1.17,2.393,2.092,4.286,2.449c0.641,0.121,1.273,0.181,1.868,0.181c0.541,0,1.05-0.05,1.503-0.15
		c1.093-0.243,1.768-0.765,1.9-1.471c0.241-1.278-1.464-2.612-4.011-3.183c0.576-0.407,1.111-0.871,1.613-1.372
		c1.286,0.242,2.336,0.338,3.16,0.338c1.928,0,2.699-0.475,2.814-0.555c0.209-0.144,0.277-0.42,0.159-0.645
		C29.895,22.872,28.862,20.972,26.652,19.431z M3.738,8.935c-0.025,0-0.052-0.002-0.077-0.006C3.458,8.897,3.295,8.744,3.25,8.544
		C2.975,7.315,2.763,5.913,2.64,4.491C2.627,4.34,2.683,4.192,2.791,4.087C2.899,3.982,3.051,3.933,3.2,3.951
		c1.28,0.162,2.462,0.412,3.514,0.744c0.056,0.007,0.11,0.023,0.163,0.049c0.169,0.084,0.276,0.258,0.276,0.447
		c0,0.16-0.076,0.315-0.206,0.409C6.933,5.611,6.919,5.62,6.903,5.629C5.781,6.483,4.861,7.512,4.169,8.688
		C4.078,8.843,3.913,8.935,3.738,8.935z M8.999,18.997c-2.206,0-4-1.794-4-4s1.794-4,4-4s4,1.794,4,4S11.205,18.997,8.999,18.997z
		 M14.999,24.997c-1.624,0-2.5-2.833-2.5-5.5c0-0.276,0.224-0.5,0.5-0.5h4c0.276,0,0.5,0.224,0.5,0.5
		C17.499,22.164,16.623,24.997,14.999,24.997z M20.999,18.997c-2.206,0-4-1.794-4-4s1.794-4,4-4s4,1.794,4,4
		S23.205,18.997,20.999,18.997z M26.27,8.93c-0.025,0.004-0.052,0.006-0.077,0.006c-0.175,0-0.34-0.092-0.431-0.246
		c-0.688-1.167-1.601-2.191-2.714-3.043c-0.022-0.012-0.044-0.025-0.064-0.04c-0.13-0.094-0.206-0.245-0.206-0.404V5.194
		c0-0.189,0.107-0.363,0.276-0.447c0.053-0.026,0.107-0.042,0.163-0.049c1.052-0.332,2.233-0.583,3.514-0.744
		c0.148-0.019,0.301,0.031,0.409,0.136c0.108,0.105,0.164,0.253,0.151,0.404c-0.123,1.422-0.335,2.824-0.61,4.053
		C26.636,8.745,26.473,8.897,26.27,8.93z"/>
	<circle cx="7.999" cy="13.997" r="1"/>
	<circle cx="19.999" cy="13.997" r="1"/>
	<path d="M14.999,12.012c1.751,0,3.022-1.131,3.022-2.689c0-0.121-0.018-0.266-0.028-0.403c-0.437,0.051-0.924,0.077-1.494,0.077
		c-0.275,0-0.5,0.224-0.5,0.5s-0.224,0.5-0.5,0.5s-0.5-0.224-0.5-0.5c0-0.827,0.673-1.5,1.5-1.5c1.84,0,2.169-0.232,2.241-0.288
		c0.303-0.233,0.415-0.393,0.543-0.571c0.72-1.006,0.894-2.322,0.498-3.636c0,0-0.001,0-0.001,0.001
		c-0.011-0.035-0.02-0.07-0.028-0.104c-0.008-0.026-0.013-0.051-0.022-0.077c-0.358-1.051-1.112-1.951-2.063-2.549
		c-0.403-0.253-0.84-0.454-1.3-0.586c-0.221-0.063-0.447-0.111-0.676-0.142c-0.199-0.027-0.398-0.038-0.596-0.041
		c-0.056-0.001-0.111,0.004-0.166,0.005c-0.238,0.005-0.475,0.026-0.709,0.065c-0.035,0.006-0.07,0.008-0.105,0.014
		c-0.249,0.047-0.492,0.119-0.731,0.203c-0.059,0.021-0.118,0.041-0.176,0.063c-0.234,0.092-0.461,0.201-0.68,0.328
		c-0.046,0.027-0.09,0.056-0.135,0.084c-0.229,0.143-0.452,0.298-0.659,0.478c-0.163,0.142-0.313,0.296-0.455,0.455
		c-0.037,0.042-0.072,0.086-0.108,0.129c-0.107,0.129-0.209,0.261-0.302,0.399c-0.027,0.04-0.054,0.079-0.08,0.119
		c-0.236,0.37-0.425,0.766-0.557,1.181C10.082,4,9.999,4.494,9.999,4.996C9.999,7.789,11.993,12.012,14.999,12.012z"/>
</g>
</svg>
