<?xml version="1.0" encoding="iso-8859-1"?>
<!-- Generator: Adobe Illustrator 19.0.0, SVG Export Plug-In . SVG Version: 6.00 Build 0)  -->
<svg version="1.1" id="Layer_1" xmlns="http://www.w3.org/2000/svg" xmlns:xlink="http://www.w3.org/1999/xlink" x="0px" y="0px"
	 viewBox="0 0 30 30" style="enable-background:new 0 0 30 30;" xml:space="preserve">
<g>
	<path d="M29.748,21.317l-2.425-1.389c0.096-0.51,0.155-1.013,0.155-1.582c0-0.398-0.035-0.79-0.086-1.178
		c0.003-0.004,0.007-0.005,0.009-0.009c2.707-4.313,2.604-11.13,2.598-11.418c-0.006-0.272-0.228-0.49-0.5-0.49
		c-0.258,0-6.184,0.043-9.499,2.969V4.751c0-0.22-0.145-0.415-0.355-0.479c-0.213-0.067-0.438,0.018-0.561,0.201L18,6.1V3.042
		c0-0.988-0.804-1.791-1.791-1.791h-2.418C12.804,1.251,12,2.054,12,3.042V6.1l-1.084-1.626c-0.122-0.183-0.349-0.266-0.561-0.201
		C10.144,4.337,10,4.531,10,4.752v3.469C6.67,5.295,0.759,5.252,0.501,5.252c-0.272,0-0.494,0.218-0.5,0.49
		C-0.005,6.03-0.108,12.847,2.599,17.16c0.003,0.005,0.009,0.006,0.012,0.011c-0.052,0.387-0.088,0.778-0.088,1.176
		c0,0.569,0.059,1.072,0.155,1.582l-2.425,1.389c-0.197,0.113-0.293,0.343-0.235,0.562c0.058,0.219,0.254,0.371,0.481,0.371
		L3.4,22.259c0.309,0.576,0.742,1.239,1.139,1.754l-1.47,2.482c-0.104,0.177-0.09,0.4,0.036,0.562
		c0.126,0.162,0.338,0.229,0.536,0.172l3.262-0.965c2.256,1.604,5.12,2.485,8.097,2.485s5.841-0.881,8.097-2.485l3.262,0.965
		c0.198,0.059,0.409-0.01,0.536-0.172c0.126-0.162,0.141-0.385,0.036-0.562l-1.472-2.486c0.402-0.534,0.8-1.207,1.083-1.751
		l2.959-0.008c0.227,0,0.425-0.153,0.482-0.372S29.945,21.43,29.748,21.317z M13,3.042c0-0.436,0.354-0.791,0.791-0.791h2.418
		C16.646,2.251,17,2.606,17,3.042v0.709h-4V3.042z M13,4.751h4v1.5h-4V4.751z M13,7.251h4v1.5h-4V7.251z M13,9.751h4v0.709
		c0,0.436-0.354,0.791-0.791,0.791h-2.418c-0.437,0-0.791-0.355-0.791-0.791V9.751z M4.787,12.396
		c-0.236,0.278-0.459,0.565-0.661,0.862c-0.52-1.576-0.82-3.307-0.968-4.765c1.466,0.258,3.143,0.751,4.357,1.592
		c-0.694,0.426-1.327,0.906-1.892,1.435c-0.01,0.009-0.019,0.019-0.029,0.028c-0.258,0.243-0.5,0.496-0.728,0.759
		C4.84,12.337,4.813,12.366,4.787,12.396z M5.148,17.606C5.054,17.513,5,17.385,5,17.251c0-0.134,0.054-0.262,0.148-0.355
		c0.273-0.271,2.721-2.645,4.352-2.645s4.078,2.374,4.352,2.645C13.947,16.99,14,17.118,14,17.251c0,0.133-0.054,0.262-0.148,0.355
		c-0.246,0.244-2.25,2.177-3.839,2.563L10,17.749c-0.002-0.275-0.225-0.498-0.5-0.498c-0.001,0-0.002,0-0.003,0
		C9.222,17.252,8.998,17.478,9,17.753l0.013,2.42C7.421,19.803,5.396,17.851,5.148,17.606z M22.482,21.886
		c-0.175,0.623-0.51,1.365-1.118,1.365c-0.267,0-0.74-0.051-1.309-0.129l-1.088,2.81c-0.07,0.184-0.243,0.309-0.439,0.319
		c-0.009,0-0.018,0-0.026,0c-0.187,0-0.359-0.104-0.445-0.272l-1.787-3.484c-0.6-0.109-1.072-0.198-1.268-0.235
		c-0.186,0.035-0.617,0.117-1.174,0.218l-1.886,3.51c-0.088,0.163-0.257,0.263-0.44,0.263c-0.013,0-0.025,0-0.038-0.001
		c-0.197-0.015-0.367-0.145-0.434-0.332l-0.996-2.809c-0.61,0.086-1.117,0.142-1.396,0.142c-0.608,0-0.943-0.742-1.118-1.365
		c-0.076-0.266,0.079-0.541,0.344-0.616c0.271-0.074,0.542,0.08,0.617,0.346c0.066,0.237,0.186,0.511,0.269,0.632
		c1.064-0.051,4.767-0.723,6.156-0.988c0.063-0.012,0.125-0.012,0.188,0c1.387,0.266,5.083,0.938,6.156,0.988
		c0.083-0.121,0.202-0.396,0.269-0.632c0.075-0.266,0.348-0.422,0.617-0.346C22.402,21.345,22.556,21.62,22.482,21.886z
		 M24.852,17.606c-0.246,0.244-2.25,2.177-3.839,2.563L21,17.749c-0.002-0.275-0.225-0.498-0.5-0.498c-0.001,0-0.002,0-0.003,0
		c-0.275,0.001-0.499,0.227-0.497,0.502l0.013,2.42c-1.592-0.37-3.617-2.322-3.865-2.567C16.054,17.513,16,17.385,16,17.251
		c0-0.134,0.054-0.262,0.148-0.355c0.273-0.271,2.721-2.645,4.352-2.645s4.078,2.374,4.352,2.645C24.947,16.99,25,17.118,25,17.251
		C25,17.384,24.946,17.513,24.852,17.606z M25.897,13.22c-0.204-0.306-0.427-0.602-0.667-0.889
		c-0.009-0.011-0.019-0.021-0.028-0.031c-0.23-0.273-0.478-0.536-0.739-0.789c-0.014-0.013-0.027-0.027-0.041-0.04
		c-0.55-0.529-1.167-1.01-1.844-1.437c1.208-0.809,2.841-1.289,4.275-1.542C26.706,9.939,26.41,11.654,25.897,13.22z"/>
</g>
</svg>
