<?xml version="1.0" encoding="iso-8859-1"?>
<!-- Generator: Adobe Illustrator 19.0.0, SVG Export Plug-In . SVG Version: 6.00 Build 0)  -->
<svg version="1.1" id="Layer_1" xmlns="http://www.w3.org/2000/svg" xmlns:xlink="http://www.w3.org/1999/xlink" x="0px" y="0px"
	 viewBox="0 0 30 30" style="enable-background:new 0 0 30 30;" xml:space="preserve">
<g>
	<path d="M25.373,14.598c0.065-0.456,0.128-0.886,0.128-1.49c0-1.374-0.225-2.771-0.618-3.854L25.5,1.168
		c0.018-0.243-0.141-0.463-0.377-0.523l-2.5-0.63c-0.134-0.034-0.278-0.009-0.396,0.066c-0.117,0.076-0.196,0.198-0.22,0.336
		l-0.728,4.347c-1.82-1.137-4.025-1.765-6.283-1.765s-4.462,0.627-6.282,1.764L7.993,0.417c-0.022-0.138-0.103-0.26-0.22-0.336
		C7.657,0.005,7.513-0.02,7.377,0.015l-2.5,0.63C4.641,0.705,4.482,0.925,4.5,1.168l0.617,8.086
		c-0.394,1.076-0.618,2.473-0.618,3.854c0,0.604,0.062,1.034,0.128,1.49c0.144,1,0.307,2.132-0.114,5.739
		c-0.24,2.061,1.857,3.358,1.892,3.374l4.42,3.566l0.098,0.196c0.007,0.015,0.023,0.021,0.031,0.034l0.752,1.518
		C12.005,29.626,12.604,30,13.272,30h3.455c0.668,0,1.268-0.374,1.566-0.975l0.763-1.54c0.003-0.005,0.008-0.007,0.011-0.012
		l0.092-0.184l4.381-3.54c0.089-0.055,2.187-1.352,1.946-3.413C25.066,16.73,25.229,15.597,25.373,14.598z M13.496,26.999
		c-0.276,0-0.5-0.224-0.5-0.5s0.224-0.5,0.5-0.5s0.5,0.224,0.5,0.5S13.772,26.999,13.496,26.999z M12.496,17.999h-3.75
		c-0.212,0-0.401-0.134-0.472-0.333c-0.034-0.096-0.815-2.361-0.021-4.477L7.112,11.82c-0.177-0.212-0.148-0.528,0.063-0.705
		c0.212-0.176,0.526-0.15,0.704,0.064l4.796,5.755c0.173-0.123,0.32-0.412,0.32-0.768v-2.667c0-0.276,0.224-0.5,0.5-0.5
		s0.5,0.224,0.5,0.5v2.667h0.001C13.996,17.194,13.337,17.999,12.496,17.999z M16.496,26.999c-0.276,0-0.5-0.224-0.5-0.5
		s0.224-0.5,0.5-0.5s0.5,0.224,0.5,0.5S16.772,26.999,16.496,26.999z M22.88,11.819l-1.141,1.369
		c0.794,2.116,0.013,4.381-0.021,4.477c-0.07,0.2-0.26,0.333-0.472,0.333h-3.75c-0.841,0-1.5-0.805-1.5-1.833v-2.667
		c0-0.276,0.224-0.5,0.5-0.5s0.5,0.224,0.5,0.5v2.667c0,0.356,0.147,0.645,0.32,0.768l4.796-5.755
		c0.178-0.213,0.493-0.239,0.704-0.064C23.028,11.291,23.057,11.607,22.88,11.819z"/>
</g>
</svg>
