<?xml version="1.0" encoding="iso-8859-1"?>
<!-- Generator: Adobe Illustrator 19.0.0, SVG Export Plug-In . SVG Version: 6.00 Build 0)  -->
<svg version="1.1" id="Layer_1" xmlns="http://www.w3.org/2000/svg" xmlns:xlink="http://www.w3.org/1999/xlink" x="0px" y="0px"
	 viewBox="0 0 30 30" style="enable-background:new 0 0 30 30;" xml:space="preserve">
<g>
	<path d="M15.753,15.61c-0.118-0.02-0.911-0.153-2.039-0.289c0.657-0.125,1.341-0.265,2.064-0.426
		c5.765-1.284,11.319-3.888,10.779-6.381c-0.008-0.036-0.019-0.072-0.03-0.109c0-0.001,0-0.001,0-0.002
		c-0.001-0.002-0.001-0.004-0.002-0.006c-0.01-0.033-0.02-0.066-0.032-0.099c-1.62-5.742-7.593-9.271-13.655-8.044
		C6.18,1.603,2.547,6.952,3.581,13.881c0.001,0.005,0.003,0.008,0.004,0.012c0.001,0.006,0,0.013,0.002,0.02
		c0.123,0.567,0.454,1.026,0.984,1.366c0.131,0.084,0.29,0.151,0.447,0.22c-0.769,0.281-1.301,0.7-1.434,1.311
		c-0.003,0.013-0.001,0.027-0.003,0.04c-0.012,0.039-0.028,0.076-0.03,0.118c-0.345,6.357,4.293,12.158,10.34,12.93
		c0.48,0.061,0.958,0.091,1.432,0.091c4.803,0,9.247-3.065,11.121-7.832c0.012-0.029,0.01-0.06,0.016-0.09
		c0.018-0.056,0.049-0.109,0.062-0.167c0.095-0.441-0.023-0.912-0.353-1.399C24.88,18.592,20.109,16.352,15.753,15.61z
		 M18.906,5.039c0.116-0.029,0.233-0.043,0.351-0.043c0.315,0,0.633,0.103,0.921,0.302c0.417,0.289,0.719,0.739,0.853,1.27
		c0.272,1.085-0.235,2.151-1.132,2.376c-0.423,0.105-0.877,0.01-1.279-0.271c-0.423-0.295-0.729-0.751-0.863-1.284
		C17.489,6.321,18.003,5.266,18.906,5.039z M4.568,13.707c-0.002-0.013-0.002-0.026-0.004-0.04
		c-0.082-0.516,0.479-1.512,2.355-2.686c1.897-1.187,4.525-2.184,7.4-2.806c0.882-0.191,1.712-0.338,2.498-0.455
		c0.204,0.727,0.634,1.356,1.229,1.772c0.466,0.326,0.985,0.494,1.506,0.494c0.197,0,0.395-0.024,0.59-0.073
		c1.102-0.277,1.843-1.298,1.942-2.492c2.04,0.117,3.34,0.591,3.494,1.303c0.29,1.336-3.754,3.798-10.019,5.192
		c-6.904,1.538-9.493,1.13-10.449,0.519C4.812,14.245,4.635,14.005,4.568,13.707z M14.02,28.905
		c-4.847-0.619-8.706-4.78-9.381-9.727c0.453,0.439,1.036,0.879,1.758,1.309c1.96,1.168,4.699,2.171,7.711,2.824
		c0.855,0.186,1.735,0.344,2.62,0.471c0.159,1.13,0.912,2.047,1.935,2.305c0.197,0.049,0.395,0.073,0.591,0.073
		c1.155,0,2.247-0.824,2.669-2.062c1.059-0.053,1.952-0.215,2.671-0.466C22.338,27.324,18.237,29.442,14.02,28.905z"/>
</g>
</svg>
