<?xml version="1.0" encoding="iso-8859-1"?>
<!-- Generator: Adobe Illustrator 19.0.0, SVG Export Plug-In . SVG Version: 6.00 Build 0)  -->
<svg version="1.1" id="Layer_1" xmlns="http://www.w3.org/2000/svg" xmlns:xlink="http://www.w3.org/1999/xlink" x="0px" y="0px"
	 viewBox="0 0 30 30" style="enable-background:new 0 0 30 30;" xml:space="preserve">
<g>
	<path d="M29.421,1.225c-0.116-0.18-0.334-0.267-0.542-0.215l-6,1.5c-0.149,0.037-0.273,0.141-0.336,0.282l-2.142,4.819
		c-0.178-0.207-0.353-0.414-0.532-0.622c-1.915-2.223-3.896-4.522-4.382-6.607c-0.006-0.027-0.023-0.049-0.033-0.074
		c-0.012-0.03-0.022-0.061-0.04-0.088c-0.02-0.03-0.046-0.052-0.071-0.077c-0.021-0.02-0.038-0.042-0.062-0.058
		c-0.03-0.021-0.065-0.032-0.099-0.046c-0.023-0.009-0.042-0.025-0.066-0.031c-0.005-0.001-0.01,0.001-0.015,0
		c-0.032-0.007-0.066-0.003-0.1-0.003S14.932,0.001,14.9,0.008c-0.004,0.001-0.008-0.001-0.013,0
		c-0.022,0.005-0.039,0.019-0.06,0.027c-0.037,0.014-0.075,0.027-0.107,0.049C14.697,0.1,14.68,0.121,14.66,0.14
		c-0.026,0.025-0.052,0.048-0.072,0.078c-0.02,0.03-0.031,0.064-0.044,0.098c-0.009,0.022-0.023,0.04-0.029,0.064
		c-0.493,2.088-2.478,4.393-4.396,6.623C9.944,7.206,9.774,7.408,9.6,7.61L7.458,2.792C7.395,2.651,7.271,2.547,7.122,2.51l-6-1.5
		C0.915,0.958,0.696,1.045,0.58,1.225C0.464,1.406,0.476,1.64,0.61,1.808l6.773,8.467c-1.76,2.458-2.677,4.639-2.783,6.65
		l-0.019,0.339c-0.15,2.779-0.26,4.786,1.265,12.331c0.047,0.233,0.252,0.401,0.49,0.401H15h8.664c0.238,0,0.443-0.168,0.49-0.401
		c1.524-7.545,1.415-9.552,1.265-12.331L25.4,16.925c-0.107-2.014-1.024-4.194-2.783-6.65l6.773-8.466
		C29.524,1.64,29.537,1.406,29.421,1.225z M17.379,16.817c0.003-0.004,0.009-0.005,0.012-0.009l0.257-0.321
		c0.173,0.298,0.483,0.508,0.852,0.508c0.552,0,1-0.449,1-1c0-0.447-0.301-0.813-0.707-0.941l2.087-2.609
		c0.84,1.278,1.952,3.238,1.497,4.096c-0.089,0.169-0.314,0.454-0.813,0.454H18.5h-1.266L17.379,16.817z M19.101,21.723L15,22.73
		l-4.101-1.007l3.551-3.487c0.303-0.299,0.797-0.299,1.1,0L19.101,21.723z M14.999,1.96c0.497,1.09,1.245,2.187,2.106,3.279
		l-2.1,2.477l-2.079-2.519C13.773,4.118,14.507,3.035,14.999,1.96z M11.5,16.995c0.369,0,0.679-0.21,0.852-0.509l0.001,0.001
		l0.401,0.508H11.5H8.437c-0.499,0-0.724-0.284-0.813-0.453c-0.455-0.858,0.655-2.82,1.495-4.099l2.089,2.612
		c-0.407,0.127-0.708,0.493-0.708,0.94C10.5,16.546,10.948,16.995,11.5,16.995z M2.315,2.339l4.327,1.082l4.326,9.734L2.315,2.339z
		 M23.959,25.142c-0.177,1.094-0.405,2.353-0.704,3.853H15H6.745c-0.3-1.504-0.526-2.759-0.703-3.854
		c2.253-0.999,3.419-1.958,3.933-2.472l3.964,2.975c0.312,0.23,0.686,0.345,1.06,0.345c0.375,0,0.751-0.116,1.064-0.348l3.961-2.973
		C20.539,23.183,21.704,24.142,23.959,25.142z M19.031,13.155l4.326-9.734l4.327-1.082L19.031,13.155z"/>
</g>
</svg>
