<?xml version="1.0" encoding="iso-8859-1"?>
<!-- Generator: Adobe Illustrator 19.0.0, SVG Export Plug-In . SVG Version: 6.00 Build 0)  -->
<svg version="1.1" id="Layer_1" xmlns="http://www.w3.org/2000/svg" xmlns:xlink="http://www.w3.org/1999/xlink" x="0px" y="0px"
	 viewBox="0 0 30 30" style="enable-background:new 0 0 30 30;" xml:space="preserve">
<g>
	<path d="M24.5,17.5v-0.625c0-1.522-0.484-3.039-1.343-4.313C29.16,7.052,29.49,0.788,29.5,0.519
		c0.007-0.176-0.08-0.343-0.228-0.439c-0.147-0.096-0.338-0.107-0.493-0.029c-0.229,0.113-5.534,2.787-9.014,9.786
		C18.509,9.302,16.807,9,15,9c-1.808,0-3.509,0.302-4.766,0.837c-3.479-7-8.785-9.673-9.014-9.786
		C1.065-0.026,0.879-0.015,0.731,0.078C0.584,0.172,0.497,0.335,0.5,0.51c0.006,0.272,0.214,6.609,6.231,12.128
		C5.926,13.855,5.5,15.255,5.5,16.75v0.625c0,0.907-0.329,1.938-0.648,2.935C4.542,21.279,4.25,22.193,4.25,23
		c0,2.621,1.806,4.771,4.682,5.969c0.05,0.031,0.103,0.052,0.159,0.064C10.634,29.649,12.468,30,14.5,30H15
		c2.166,0,4.135-0.398,5.771-1.091c0.087-0.013,0.173-0.043,0.245-0.103c2.243-1.01,3.807-2.595,4.306-4.49
		c0.014-0.038,0.02-0.075,0.025-0.114C25.441,23.812,25.5,23.413,25.5,23c0-0.789-0.23-1.654-0.475-2.571
		C24.768,19.458,24.5,18.453,24.5,17.5z M28.377,1.447c-0.191,1.104-0.673,3.044-1.864,5.249c-0.022-1.087-0.134-2.477-0.515-3.424
		C26.952,2.425,27.794,1.822,28.377,1.447z M3.503,6.94C2.248,4.625,1.775,2.572,1.601,1.433c0.601,0.386,1.484,1.014,2.486,1.914
		C3.648,4.311,3.524,5.796,3.503,6.94z M9.039,27.933c-1.76-0.794-3.008-1.988-3.521-3.433C5.947,24.182,6.459,24,7.001,24
		c1.379,0,2.5,1.122,2.5,2.5C9.5,27.02,9.333,27.514,9.039,27.933z M7.5,18.5c0-1.378,1.121-2.5,2.5-2.5
		c0.21,0,0.41,0.034,0.605,0.083C10.25,16.236,10,16.588,10,17c0,0.552,0.448,1,1,1c0.548,0,0.99-0.441,0.997-0.988
		c0.312,0.417,0.503,0.929,0.503,1.488c0,1.378-1.121,2.5-2.5,2.5S7.5,19.878,7.5,18.5z M16.5,24c-0.594,0-1.137-0.206-1.507-0.525
		C14.621,23.792,14.08,24,13.5,24c-1.047,0-2-0.715-2-1.5c0-0.276,0.224-0.5,0.5-0.5s0.5,0.224,0.5,0.5c0.008,0.128,0.411,0.5,1,0.5
		c0.596,0,1-0.375,1-0.5c0-0.276,0.224-0.5,0.5-0.5s0.5,0.224,0.5,0.5c0,0.144,0.398,0.5,1,0.5c0.578,0,1-0.351,1-0.5
		c0-0.276,0.224-0.5,0.5-0.5s0.5,0.224,0.5,0.5C18.5,23.384,17.446,24,16.5,24z M17.5,18.5c0-0.559,0.191-1.071,0.503-1.488
		C18.01,17.559,18.452,18,19,18c0.552,0,1-0.448,1-1c0-0.412-0.25-0.764-0.605-0.917C19.59,16.034,19.79,16,20,16
		c1.379,0,2.5,1.122,2.5,2.5S21.379,21,20,21S17.5,19.878,17.5,18.5z M20.858,27.783c-0.23-0.386-0.358-0.829-0.358-1.283
		c0-1.378,1.121-2.5,2.5-2.5c0.455,0,0.887,0.124,1.27,0.352C23.793,25.765,22.573,26.958,20.858,27.783z"/>
</g>
</svg>
