<?xml version="1.0" encoding="iso-8859-1"?>
<!-- Generator: Adobe Illustrator 19.0.0, SVG Export Plug-In . SVG Version: 6.00 Build 0)  -->
<svg version="1.1" id="Layer_1" xmlns="http://www.w3.org/2000/svg" xmlns:xlink="http://www.w3.org/1999/xlink" x="0px" y="0px"
	 viewBox="0 0 30 30" style="enable-background:new 0 0 30 30;" xml:space="preserve">
<g>
	<path d="M15,0.5C7.005,0.5,0.5,7.005,0.5,15S7.005,29.5,15,29.5S29.5,22.995,29.5,15S22.995,0.5,15,0.5z M16,7.5
		c2.481,0,4.5,2.019,4.5,4.5c0,2.481-2.019,4.5-4.5,4.5s-4.5-2.019-4.5-4.5C11.5,9.519,13.519,7.5,16,7.5z M15,28.5
		c-6.37,0-11.711-4.44-13.123-10.385c0.02-0.012,0.043-0.019,0.062-0.034c2.893-2.333,5.743-3.935,8.691-4.905
		C11.171,15.645,13.372,17.5,16,17.5c2.996,0,5.436-2.409,5.495-5.391c2.779,0.288,4.984,1.037,6.711,2.296
		c0.081,0.059,0.175,0.083,0.269,0.087c0.006,0.17,0.026,0.337,0.026,0.508C28.5,22.444,22.444,28.5,15,28.5z"/>
	<circle cx="16" cy="12" r="1.5"/>
</g>
</svg>
