<?xml version="1.0" encoding="iso-8859-1"?>
<!-- Generator: Adobe Illustrator 19.0.0, SVG Export Plug-In . SVG Version: 6.00 Build 0)  -->
<svg version="1.1" id="Layer_1" xmlns="http://www.w3.org/2000/svg" xmlns:xlink="http://www.w3.org/1999/xlink" x="0px" y="0px"
	 viewBox="0 0 30 30" style="enable-background:new 0 0 30 30;" xml:space="preserve">
<g>
	<path d="M22.5,7.5c-4.136,0-7.5,3.364-7.5,7.5s3.364,7.5,7.5,7.5S30,19.136,30,15S26.636,7.5,22.5,7.5z M22.499,11.5
		c1.758,0,3.204,1.308,3.449,3h-2.04c-0.207-0.581-0.757-1-1.408-1s-1.201,0.419-1.408,1H19.05
		C19.295,12.808,20.741,11.5,22.499,11.5z M22.5,18.5c-1.758,0-3.204-1.308-3.449-3h2.042c0.207,0.581,0.757,1,1.408,1
		s1.201-0.419,1.408-1h2.042C25.704,17.192,24.258,18.5,22.5,18.5z"/>
	<path d="M14.429,13.499L6.5,13.5C6.224,13.5,6,13.724,6,14v3c0,0.276,0.224,0.5,0.5,0.5h3.448c-0.647,0.631-1.525,1-2.448,1
		C5.57,18.5,4,16.93,4,15s1.57-3.5,3.5-3.5c0.934,0,1.812,0.363,2.516,1.062c0.199,0.158,0.485,0.144,0.666-0.037l2.121-2.121
		c0.094-0.094,0.146-0.222,0.146-0.355c0-0.132-0.054-0.261-0.148-0.355C11.384,8.279,9.501,7.5,7.5,7.5C3.364,7.5,0,10.864,0,15
		s3.364,7.5,7.5,7.5S15,19.136,15,15c0-0.356-0.025-0.717-0.076-1.071C14.889,13.682,14.678,13.499,14.429,13.499z"/>
</g>
</svg>
