<?xml version="1.0" encoding="iso-8859-1"?>
<!-- Generator: Adobe Illustrator 19.0.0, SVG Export Plug-In . SVG Version: 6.00 Build 0)  -->
<svg version="1.1" id="Layer_1" xmlns="http://www.w3.org/2000/svg" xmlns:xlink="http://www.w3.org/1999/xlink" x="0px" y="0px"
	 viewBox="0 0 30 30" style="enable-background:new 0 0 30 30;" xml:space="preserve">
<g>
	<path d="M25.784,22.199c-0.102-0.07-0.227-0.143-0.348-0.216c-0.229-0.137-0.478-0.278-0.766-0.436
		c-1.342-0.732-3.169-1.727-3.169-3.046c0-0.276,0.224-0.5,0.5-0.5s0.5,0.224,0.5,0.5c0,0.725,1.782,1.696,2.639,2.163
		c0.422,0.23,0.777,0.43,1.089,0.635c2.087-1.932,3.272-4.363,3.272-6.882c0-5.206-4.869-9.565-11.356-10.651l1.315-3.069
		c0.109-0.253-0.009-0.547-0.263-0.656c-0.252-0.11-0.548,0.008-0.656,0.263L17.115,3.63c-0.53-0.059-1.068-0.096-1.615-0.111V0.5
		c0-0.276-0.224-0.5-0.5-0.5s-0.5,0.224-0.5,0.5v3.019c-0.704,0.018-1.395,0.072-2.071,0.163L11.48,0.363
		c-0.076-0.266-0.355-0.416-0.618-0.344c-0.266,0.076-0.419,0.353-0.344,0.618l0.917,3.21C5.161,5.048,0.5,9.324,0.5,14.416
		c0,2.518,1.185,4.949,3.271,6.881c0.311-0.207,0.666-0.409,1.079-0.638C5.714,20.18,7.498,19.19,7.498,18.5
		c0-0.276,0.224-0.5,0.5-0.5s0.5,0.224,0.5,0.5c0,1.279-1.826,2.292-3.159,3.031C5.045,21.694,4.792,21.84,4.56,21.98
		c-0.122,0.074-0.247,0.148-0.348,0.219c-0.771,0.542-1.214,1.42-1.214,2.408c0,3.024,5.271,5.393,12,5.393s12-2.369,12-5.393
		C27,23.614,26.557,22.736,25.784,22.199z M4.5,12.501c0-1.93,1.794-3.5,4-3.5s4,1.57,4,3.5s-1.794,3.5-4,3.5S4.5,14.431,4.5,12.501
		z M13.5,18.501c-0.032,0-0.065-0.003-0.099-0.01l-2.5-0.5c-0.271-0.054-0.446-0.317-0.392-0.588
		c0.054-0.271,0.313-0.448,0.588-0.392l2.5,0.5c0.271,0.054,0.446,0.317,0.392,0.588C13.943,18.337,13.734,18.501,13.5,18.501z
		 M21.5,9.001c2.206,0,4,1.57,4,3.5s-1.794,3.5-4,3.5s-4-1.57-4-3.5S19.294,9.001,21.5,9.001z M19.099,17.991l-2.5,0.5
		c-0.033,0.007-0.066,0.01-0.099,0.01c-0.233,0-0.442-0.164-0.49-0.402c-0.054-0.271,0.122-0.534,0.392-0.588l2.5-0.5
		c0.273-0.055,0.535,0.122,0.588,0.392C19.544,17.674,19.37,17.937,19.099,17.991z"/>
	<circle cx="8.5" cy="13.001" r="0.5"/>
	<circle cx="21.5" cy="13.001" r="0.5"/>
</g>
</svg>
