<?xml version="1.0" encoding="iso-8859-1"?>
<!-- Generator: Adobe Illustrator 19.0.0, SVG Export Plug-In . SVG Version: 6.00 Build 0)  -->
<svg version="1.1" id="Layer_1" xmlns="http://www.w3.org/2000/svg" xmlns:xlink="http://www.w3.org/1999/xlink" x="0px" y="0px"
	 viewBox="0 0 30 30" style="enable-background:new 0 0 30 30;" xml:space="preserve">
<g>
	<path d="M3.836,8.287c0.058,0.116,0.161,0.206,0.283,0.249c0.015,0.005,1.503,0.544,3.279,2.458c0.094,0.102,0.227,0.16,0.365,0.16
		c0.001,0,0.001,0,0.001,0c0.138,0,0.27-0.057,0.365-0.157C8.638,10.456,9.2,9.979,9.798,9.581c0.114-0.076,0.192-0.196,0.215-0.332
		s-0.01-0.274-0.093-0.384L3.421,0.2C3.327,0.073,3.178,0,3.021,0H0.5c-0.173,0-0.334,0.09-0.425,0.237
		c-0.091,0.147-0.1,0.332-0.022,0.486L3.836,8.287z"/>
	<path d="M21.871,10.997c0.094,0.101,0.226,0.158,0.364,0.158h0.001c0.139,0,0.271-0.058,0.365-0.16
		c1.777-1.914,3.266-2.453,3.28-2.458c0.123-0.043,0.225-0.132,0.283-0.249l3.783-7.565c0.078-0.155,0.069-0.339-0.022-0.486
		C29.834,0.091,29.673,0,29.5,0h-2.521c-0.157,0-0.306,0.074-0.4,0.2L20.08,8.865c-0.083,0.11-0.116,0.249-0.093,0.384
		s0.101,0.255,0.215,0.332C20.802,9.98,21.363,10.456,21.871,10.997z"/>
	<path d="M6.731,22c0-0.574-0.19-1.01-0.5-1.674l-0.105-0.233c-0.073-0.159-0.224-0.268-0.397-0.288
		c-0.172-0.021-0.345,0.052-0.453,0.19l-5.172,6.678C0.036,26.76,0,26.867,0,26.979V29.5c0,0.194,0.112,0.37,0.288,0.453
		C0.356,29.984,0.428,30,0.5,30c0.114,0,0.228-0.039,0.319-0.115l6.232-5.173c0.159-0.132,0.22-0.348,0.155-0.544
		C6.896,23.242,6.731,22.492,6.731,22z"/>
	<path d="M29.895,26.672l-5.178-6.682c-0.106-0.138-0.277-0.208-0.451-0.191c-0.173,0.02-0.324,0.128-0.397,0.287l-0.093,0.205
		c-0.314,0.673-0.506,1.115-0.506,1.708c0,0.482-0.164,1.222-0.472,2.139c-0.066,0.195-0.005,0.411,0.153,0.543l6.229,5.201
		c0.091,0.077,0.206,0.116,0.32,0.116c0.072,0,0.144-0.016,0.212-0.047C29.888,29.867,30,29.692,30,29.497v-2.521
		C30,26.867,29.963,26.76,29.895,26.672z"/>
	<path d="M15,14c1.378,0,2.5-1.057,2.5-2.357V9.382C16.709,9.133,15.87,9,15,9s-1.709,0.134-2.5,0.382v2.261
		C12.5,12.943,13.622,14,15,14z"/>
	<path d="M23.502,17.626c-0.002-3.49-2.058-6.495-5.002-7.852v1.869C18.5,13.494,16.93,15,15,15s-3.5-1.506-3.5-3.357V9.773
		c-2.944,1.357-5,4.362-5,7.851c0,0.91,0.324,1.605,0.638,2.278C7.443,20.557,7.731,21.174,7.731,22
		c0,0.807,0.653,2.498,0.727,2.688c0.04,0.101,0.111,0.187,0.204,0.244c0.993,0.611,1.329,1.544,1.686,2.532
		c0.21,0.583,0.427,1.185,0.785,1.731C11.465,29.698,12.01,30,12.591,30h4.82c0.581,0,1.125-0.301,1.458-0.806
		c0.346-0.527,0.561-1.125,0.768-1.702c0.361-1.006,0.703-1.957,1.696-2.566c0.092-0.057,0.164-0.142,0.204-0.243
		c0.075-0.191,0.734-1.89,0.734-2.683c0-0.845,0.292-1.47,0.6-2.131C23.181,19.204,23.502,18.517,23.502,17.626z M10.071,16.757
		c-0.142-0.237-0.065-0.544,0.171-0.686c0.237-0.142,0.544-0.065,0.686,0.171l3,5c0.093,0.155,0.095,0.347,0.006,0.504
		C13.845,21.903,13.68,22,13.5,22h-1.17c-0.659,0-1.274-0.282-1.647-0.755c-0.314-0.398-0.424-0.88-0.31-1.357l0.468-1.849
		L10.071,16.757z M18.694,27.154c-0.196,0.547-0.382,1.063-0.663,1.491C17.885,28.867,17.653,29,17.409,29h-4.82
		c-0.243,0-0.476-0.133-0.622-0.355c-0.293-0.447-0.481-0.969-0.681-1.521c-0.232-0.645-0.486-1.342-0.941-1.968
		c2.374,0.517,4.3,2.177,4.323,2.198c0.094,0.083,0.212,0.124,0.33,0.124c0.118,0,0.235-0.042,0.329-0.124
		c0.023-0.02,1.946-1.675,4.313-2.195C19.186,25.792,18.929,26.498,18.694,27.154z M19.929,16.757l-0.77,1.282l0.467,1.843
		c0.116,0.482,0.005,0.964-0.309,1.363C18.944,21.718,18.329,22,17.67,22H16.5c-0.18,0-0.346-0.097-0.435-0.253
		s-0.086-0.349,0.006-0.504l3-5c0.142-0.237,0.448-0.313,0.686-0.171C19.994,16.213,20.071,16.521,19.929,16.757z"/>
</g>
</svg>
