<?xml version="1.0" encoding="iso-8859-1"?>
<!-- Generator: Adobe Illustrator 19.0.0, SVG Export Plug-In . SVG Version: 6.00 Build 0)  -->
<svg version="1.1" id="Layer_1" xmlns="http://www.w3.org/2000/svg" xmlns:xlink="http://www.w3.org/1999/xlink" x="0px" y="0px"
	 viewBox="0 0 30 30" style="enable-background:new 0 0 30 30;" xml:space="preserve">
<g>
	<path d="M12.501,20c0.173,0,0.341-0.09,0.434-0.251c0.138-0.239,0.055-0.545-0.185-0.683c-3.359-1.931-6.732-1.087-6.875-1.05
		c-0.267,0.069-0.428,0.342-0.358,0.61c0.069,0.267,0.342,0.431,0.61,0.358c0.031-0.008,3.114-0.782,6.125,0.95
		C12.329,19.979,12.415,20,12.501,20z"/>
	<path d="M17.297,19.07c-0.239,0.138-0.322,0.443-0.185,0.683c0.093,0.161,0.261,0.251,0.434,0.251c0.085,0,0.171-0.021,0.249-0.066
		c2.993-1.721,6.049-0.961,6.08-0.953c0.271,0.07,0.54-0.091,0.609-0.358c0.07-0.268-0.089-0.541-0.356-0.61
		C23.985,17.98,20.66,17.137,17.297,19.07z"/>
	<path d="M20.82,24.034c-0.139,0.054-0.301,0.092-0.447,0.141c-0.008-0.009-0.01-0.02-0.019-0.028l-1-1
		c-0.113-0.113-0.272-0.166-0.431-0.141c-0.157,0.025-0.294,0.123-0.367,0.265l-0.777,1.506c-1.809,0.258-3.777,0.262-5.548,0.019
		l-0.787-1.525c-0.073-0.142-0.21-0.24-0.367-0.265c-0.157-0.025-0.317,0.027-0.431,0.141l-1,1
		c-0.011,0.011-0.015,0.025-0.024,0.036c-0.14-0.05-0.298-0.089-0.43-0.144c-0.252-0.107-0.547,0.014-0.653,0.269
		c-0.106,0.254,0.014,0.547,0.269,0.654c1.645,0.687,3.856,1.03,6.1,1.03c2.238,0,4.507-0.342,6.273-1.025
		c0.257-0.1,0.386-0.389,0.286-0.646C21.367,24.062,21.077,23.937,20.82,24.034z"/>
	<path d="M28.211,11.346c1.328-4.973,1.292-10.613,1.29-10.851c-0.001-0.139-0.06-0.27-0.162-0.364
		c-0.101-0.093-0.237-0.139-0.376-0.13c-0.208,0.016-4.949,0.429-9.769,4.546c-0.017-0.007-0.03-0.021-0.049-0.026
		C17.686,4.08,16.605,4,15,4c-1.648,0-2.689,0.078-4.146,0.521c-0.018,0.006-0.031,0.019-0.048,0.026
		c-4.819-4.117-9.56-4.53-9.768-4.546c-0.133-0.009-0.274,0.037-0.376,0.13C0.558,0.225,0.501,0.356,0.499,0.495
		C0.498,0.732,0.462,6.373,1.79,11.346c0.007,0.027,0.032,0.04,0.043,0.065c-0.871,1.707-1.333,3.565-1.333,5.48
		C0.499,24.119,7.004,30,14.999,30s14.5-5.881,14.5-13.109c0-1.916-0.462-3.773-1.333-5.48
		C28.178,11.386,28.204,11.373,28.211,11.346z M15.001,29c-5.219,0-9.746-2.675-11.992-6.572c0.44-6.399,2.775-10.02,7.339-11.354
		l4.252,5.725c0.095,0.127,0.243,0.202,0.401,0.202s0.307-0.075,0.401-0.202l4.26-5.725c4.558,1.331,6.891,4.953,7.331,11.355
		C24.747,26.325,20.22,29,15.001,29z"/>
</g>
</svg>
