<?xml version="1.0" encoding="iso-8859-1"?>
<!-- Generator: Adobe Illustrator 19.0.0, SVG Export Plug-In . SVG Version: 6.00 Build 0)  -->
<svg version="1.1" id="Layer_1" xmlns="http://www.w3.org/2000/svg" xmlns:xlink="http://www.w3.org/1999/xlink" x="0px" y="0px"
	 viewBox="0 0 30 30" style="enable-background:new 0 0 30 30;" xml:space="preserve">
<g>
	<circle cx="9.5" cy="11" r="1"/>
	<circle cx="20.5" cy="11" r="1"/>
	<path d="M15,0C6.701,0,0.5,8.917,0.5,16.891C0.5,24.609,6.463,30,15,30s14.5-5.391,14.5-13.109C29.5,8.917,23.299,0,15,0z
		 M17.646,8.146l2-2c0.195-0.195,0.512-0.195,0.707,0s0.195,0.512,0,0.707l-2,2c-0.098,0.098-0.226,0.146-0.354,0.146
		c-0.128,0-0.256-0.049-0.354-0.146C17.451,8.658,17.451,8.342,17.646,8.146z M16.645,20.146l1.001-1
		c0.195-0.195,0.512-0.195,0.707,0s0.195,0.512,0,0.707l-1,1c-0.098,0.098-0.226,0.146-0.354,0.146
		c-0.128,0-0.256-0.049-0.354-0.146C16.45,20.658,16.45,20.341,16.645,20.146z M13.354,20.853c-0.098,0.098-0.226,0.146-0.354,0.146
		s-0.256-0.049-0.354-0.146l-1-1c-0.195-0.195-0.195-0.512,0-0.707s0.512-0.195,0.708,0l1,1
		C13.549,20.341,13.549,20.658,13.354,20.853z M9.646,6.147c0.195-0.195,0.512-0.195,0.707,0l2,2c0.195,0.195,0.195,0.512,0,0.707
		C12.255,8.952,12.127,9,11.999,9c-0.128,0-0.256-0.049-0.354-0.146l-1.999-2C9.451,6.659,9.451,6.342,9.646,6.147z M8.5,8
		c1.71,0,3,2.702,3,6.285c0,1.196-0.152,2.356-0.44,3.354C10.998,17.853,10.802,18,10.58,18l-4.158-0.001
		c-0.223,0-0.418-0.146-0.479-0.36c-0.289-0.988-0.441-2.147-0.441-3.354C5.5,10.702,6.79,8,8.5,8z M24.347,22.86l-0.532,0.515
		c-0.624,0.604-1.454,0.655-2.183,0.655h-3.871l-1.515,1.466c-0.347,0.335-0.802,0.502-1.257,0.502
		c-0.454,0-0.909-0.167-1.255-0.502l-1.516-1.466H8.347c-0.793,0-1.556-0.049-2.164-0.638l-0.532-0.515
		c-0.197-0.192-0.203-0.508-0.01-0.707c0.192-0.198,0.509-0.203,0.707-0.012l0.532,0.515c0.341,0.33,0.845,0.356,1.469,0.356h4.073
		c0.13,0,0.255,0.05,0.348,0.141l1.661,1.607c0.309,0.299,0.813,0.299,1.121,0l1.66-1.606c0.093-0.09,0.218-0.141,0.348-0.141h4.073
		c0.68,0,1.166-0.063,1.487-0.374l0.532-0.515c0.198-0.192,0.517-0.187,0.707,0.012C24.551,22.352,24.546,22.668,24.347,22.86z
		 M24.06,17.639C23.998,17.853,23.802,18,23.58,18l-4.158-0.001c-0.223,0-0.418-0.146-0.479-0.36
		c-0.289-0.988-0.441-2.147-0.441-3.354c0-3.583,1.29-6.285,3-6.285s3,2.702,3,6.285C24.5,15.481,24.348,16.641,24.06,17.639z"/>
</g>
</svg>
