<?xml version="1.0" encoding="iso-8859-1"?>
<!-- Generator: Adobe Illustrator 19.0.0, SVG Export Plug-In . SVG Version: 6.00 Build 0)  -->
<svg version="1.1" id="Layer_1" xmlns="http://www.w3.org/2000/svg" xmlns:xlink="http://www.w3.org/1999/xlink" x="0px" y="0px"
	 viewBox="0 0 30 30" style="enable-background:new 0 0 30 30;" xml:space="preserve">
<g>
	<path d="M26.263,16.778l3.721-13.642c0.056-0.218-0.039-0.45-0.235-0.564c-0.196-0.113-0.444-0.081-0.604,0.079l-9.524,9.524
		l-4.15-11.858c-0.141-0.401-0.804-0.401-0.944,0l-4.15,11.858L0.853,2.651c-0.16-0.16-0.409-0.192-0.604-0.079
		C0.053,2.686-0.042,2.917,0.018,3.136l3.721,13.642c-0.602,0.879-2.878,4.491-3.552,9.782c-0.11,0.868,0.158,1.741,0.735,2.397
		c0.574,0.652,1.4,1.026,2.267,1.026h23.624c0.866,0,1.692-0.374,2.267-1.026c0.578-0.656,0.846-1.53,0.735-2.397
		C29.141,21.269,26.865,17.657,26.263,16.778z M18.114,20.163l5-6c0.177-0.211,0.491-0.24,0.705-0.064
		c0.212,0.177,0.241,0.492,0.064,0.705l-1.145,1.373l1.239,4.165c0.045,0.151,0.016,0.315-0.078,0.441s-0.243,0.2-0.401,0.2h-5
		c-0.194,0-0.371-0.112-0.453-0.288C17.963,20.52,17.99,20.312,18.114,20.163z M17.498,22.483c0.276,0,0.5,0.224,0.5,0.5
		s-0.224,0.5-0.5,0.5s-0.5-0.224-0.5-0.5S17.222,22.483,17.498,22.483z M12.498,22.483c0.276,0,0.5,0.224,0.5,0.5
		s-0.224,0.5-0.5,0.5s-0.5-0.224-0.5-0.5S12.222,22.483,12.498,22.483z M6.178,14.099c0.213-0.176,0.528-0.147,0.705,0.064l5,6
		c0.124,0.149,0.151,0.357,0.068,0.532c-0.082,0.176-0.259,0.288-0.453,0.288h-5c-0.158,0-0.307-0.075-0.401-0.201
		c-0.094-0.126-0.124-0.29-0.078-0.441l1.239-4.165l-1.145-1.373C5.937,14.591,5.966,14.275,6.178,14.099z M25.875,25.812
		c-0.099,0.113-0.238,0.171-0.377,0.171c-0.117,0-0.234-0.041-0.329-0.123l-0.786-0.685c-0.172-0.151-0.424-0.218-0.676-0.183
		l-0.103,0.015l-1.68,2.737c-0.091,0.148-0.252,0.238-0.426,0.238s-0.335-0.091-0.426-0.239l-1.328-2.176l-2.82,0.41l-3.778,0.005
		l-2.89-0.418l-1.33,2.178C8.835,27.89,8.674,27.981,8.5,27.981c-0.174,0-0.335-0.09-0.426-0.238l-1.68-2.738L6.291,24.99
		c-0.25-0.034-0.503,0.032-0.676,0.183l-0.786,0.685c-0.208,0.181-0.524,0.16-0.706-0.048c-0.182-0.208-0.16-0.524,0.048-0.706
		l0.786-0.685c0.39-0.34,0.945-0.496,1.477-0.418l3.637,0.528c0.002,0,0.003,0,0.004,0.001l3.143,0.456l3.634-0.005l3.058-0.446
		c0.011-0.002,0.021-0.003,0.032-0.005l3.623-0.529c0.536-0.079,1.087,0.079,1.477,0.418l0.786,0.685
		C26.035,25.287,26.057,25.603,25.875,25.812z"/>
</g>
</svg>
