<?xml version="1.0" encoding="iso-8859-1"?>
<!-- Generator: Adobe Illustrator 19.0.0, SVG Export Plug-In . SVG Version: 6.00 Build 0)  -->
<svg version="1.1" id="Layer_1" xmlns="http://www.w3.org/2000/svg" xmlns:xlink="http://www.w3.org/1999/xlink" x="0px" y="0px"
	 viewBox="0 0 30 30" style="enable-background:new 0 0 30 30;" xml:space="preserve">
<g>
	<path d="M19.468,16.294c-0.011-0.066-0.002-0.132,0.014-0.197c-0.004,0.004-0.008,0.008-0.012,0.012
		c0.035-0.111,0.065-0.214,0.098-0.321c0.038-0.129,0.08-0.264,0.116-0.389c0.029-0.103,0.052-0.205,0.079-0.308
		c0.03-0.118,0.063-0.237,0.088-0.352c0.032-0.149,0.054-0.302,0.076-0.456c0.01-0.07,0.025-0.137,0.033-0.208
		c0.026-0.23,0.041-0.468,0.041-0.724c0-0.405-0.064-0.803-0.162-1.192c2.74-2.601,2.179-5.625,2.152-5.756
		c-0.041-0.2-0.197-0.354-0.397-0.393c-0.117-0.023-2.791-0.481-5.063,2.31c-0.993-0.392-2.065-0.389-3.057,0.009
		c-2.271-2.788-4.95-2.34-5.065-2.319C8.208,6.047,8.05,6.202,8.01,6.403c-0.027,0.131-0.594,3.174,2.177,5.781
		c-0.1,0.333-0.186,0.667-0.186,1.093c0,0.113,0.007,0.235,0.018,0.36c0.004,0.041,0.01,0.084,0.015,0.125
		c0.01,0.088,0.019,0.175,0.033,0.265c0.007,0.045,0.015,0.09,0.023,0.135c0.015,0.09,0.03,0.18,0.048,0.27
		c0.008,0.042,0.017,0.083,0.026,0.124c0.02,0.095,0.04,0.19,0.061,0.283c0.007,0.032,0.015,0.063,0.022,0.095
		c0.024,0.102,0.048,0.202,0.073,0.297c0.005,0.019,0.01,0.038,0.015,0.057c0.028,0.109,0.057,0.215,0.084,0.311V15.6
		c0.059,0.213,0.112,0.387,0.147,0.499c-0.002,0.009-0.006,0.025-0.009,0.035c-0.005-0.005-0.01-0.01-0.015-0.016
		c-0.001,0.041-0.005,0.091-0.014,0.127c-0.158,0.613-0.525,2.153-0.525,3.209c0,0.299,0.019,0.601,0.047,0.901
		c0.017,0.179,0.039,0.357,0.066,0.534c0,0.001,0,0.003,0.001,0.004c0.159,1.039,0.495,2.042,1.017,2.881
		c0.016,0.025,0.029,0.051,0.045,0.076c0.061,0.095,0.128,0.185,0.194,0.275c0.039,0.054,0.077,0.108,0.118,0.16
		c0.06,0.076,0.124,0.148,0.188,0.22c0.053,0.06,0.106,0.12,0.162,0.177c0.062,0.063,0.126,0.123,0.191,0.183
		c0.064,0.059,0.129,0.117,0.197,0.171c0.064,0.053,0.131,0.103,0.198,0.152c0.075,0.054,0.152,0.106,0.231,0.155
		c0.067,0.042,0.135,0.084,0.205,0.122c0.086,0.047,0.174,0.09,0.264,0.131c0.07,0.032,0.14,0.065,0.212,0.094
		c0.098,0.039,0.201,0.071,0.303,0.103c0.07,0.022,0.139,0.046,0.212,0.064c0.119,0.03,0.243,0.051,0.367,0.072
		c0.063,0.01,0.123,0.025,0.188,0.033c0.192,0.023,0.39,0.037,0.595,0.037c0.205,0,0.403-0.014,0.595-0.037
		c0.065-0.008,0.125-0.023,0.188-0.033c0.124-0.021,0.248-0.042,0.367-0.072c0.072-0.018,0.141-0.042,0.211-0.064
		c0.103-0.032,0.206-0.064,0.305-0.104c0.072-0.029,0.141-0.061,0.211-0.094c0.09-0.042,0.179-0.084,0.264-0.132
		c0.07-0.039,0.138-0.08,0.205-0.122c0.079-0.049,0.156-0.101,0.23-0.155c0.067-0.049,0.134-0.099,0.198-0.151
		c0.068-0.055,0.133-0.113,0.197-0.172c0.065-0.06,0.13-0.119,0.191-0.183c0.056-0.057,0.109-0.118,0.162-0.178
		c0.063-0.072,0.128-0.143,0.187-0.219c0.042-0.053,0.08-0.109,0.12-0.163c0.065-0.09,0.131-0.178,0.192-0.272
		c0.017-0.026,0.031-0.054,0.048-0.08c0.52-0.838,0.855-1.839,1.014-2.875c0-0.003,0.001-0.005,0.001-0.008
		c0.027-0.177,0.049-0.354,0.066-0.532c0.029-0.301,0.047-0.602,0.047-0.902c0-0.832-0.177-1.566-0.333-2.213
		C19.588,16.894,19.514,16.584,19.468,16.294z M13.5,12.002c0.276,0,0.5,0.224,0.5,0.5s-0.224,0.5-0.5,0.5s-0.5-0.224-0.5-0.5
		S13.224,12.002,13.5,12.002z M16.889,15.815c-0.095,0.118-0.238,0.187-0.389,0.187h-3c-0.155,0-0.302-0.072-0.396-0.195
		c-0.095-0.123-0.127-0.283-0.087-0.433c0.125-0.475,0.702-1.372,1.983-1.372c1.333,0,1.884,0.912,1.989,1.394
		C17.021,15.544,16.984,15.698,16.889,15.815z M16.5,13.002c-0.276,0-0.5-0.224-0.5-0.5s0.224-0.5,0.5-0.5s0.5,0.224,0.5,0.5
		S16.776,13.002,16.5,13.002z"/>
	<path d="M25.965,4.319c-0.089-0.226-0.327-0.361-0.565-0.307C25.162,4.06,24.993,4.274,25,4.516
		c0.001,0.043,0.029,2.943-1.826,6.563C23.732,12.237,25,15.229,25,18.501c0,0.276-0.224,0.5-0.5,0.5s-0.5-0.224-0.5-0.5
		c0-2.555-0.854-4.979-1.434-6.333c-0.465,0.774-1.008,1.568-1.668,2.367c-0.092,0.57-0.238,1.111-0.426,1.717
		c0.042,0.233,0.102,0.479,0.163,0.736C20.808,17.708,21,18.503,21,19.453c0,0.254-0.012,0.51-0.03,0.766
		c0.901-0.026,2.107,0.202,3.101,1.358c0.163,0.19,0.441,0.229,0.651,0.094c0.012-0.007,1.214-0.769,2.46-0.472
		c0.742,0.176,1.373,0.7,1.876,1.556c0.091,0.155,0.257,0.247,0.431,0.247c0.042,0,0.083-0.005,0.125-0.016
		c0.216-0.056,0.369-0.248,0.375-0.471C29.998,22.21,30.128,14.942,25.965,4.319z"/>
	<path d="M9.154,14.599c-0.656-0.788-1.198-1.571-1.663-2.336C6.871,13.612,6,15.956,6,18.502c0,0.276-0.224,0.5-0.5,0.5
		S5,18.778,5,18.502c0-3.223,1.256-6.069,1.89-7.301C4.972,7.525,4.999,4.56,5,4.517c0.007-0.243-0.162-0.456-0.4-0.504
		C4.361,3.96,4.123,4.094,4.035,4.32C-0.128,14.943,0.003,22.211,0.01,22.515c0.006,0.223,0.159,0.416,0.375,0.471
		c0.042,0.011,0.084,0.016,0.125,0.016c0.174,0,0.34-0.091,0.431-0.247c0.503-0.856,1.135-1.38,1.876-1.556
		c1.247-0.294,2.449,0.465,2.46,0.472c0.21,0.136,0.489,0.096,0.651-0.094c0.994-1.156,2.2-1.385,3.101-1.358
		c-0.018-0.255-0.03-0.511-0.03-0.765C9,18.353,9.345,16.838,9.525,16.122C9.407,15.723,9.263,15.169,9.154,14.599z"/>
</g>
</svg>
