<?xml version="1.0" encoding="iso-8859-1"?>
<!-- Generator: Adobe Illustrator 19.0.0, SVG Export Plug-In . SVG Version: 6.00 Build 0)  -->
<svg version="1.1" id="Layer_1" xmlns="http://www.w3.org/2000/svg" xmlns:xlink="http://www.w3.org/1999/xlink" x="0px" y="0px"
	 viewBox="0 0 30 30" style="enable-background:new 0 0 30 30;" xml:space="preserve">
<g id="Abra_2_">
	<g>
		<path d="M4.638,11.957c-0.045,0-0.09-0.006-0.133-0.019c-0.193-0.056-0.341-0.214-0.364-0.414L3.777,8.427
			C3.757,8.244,3.836,8.065,3.987,7.959C4.137,7.854,4.334,7.84,4.497,7.921l2.23,1.115c0.143,0.071,0.242,0.207,0.27,0.363
			c0.026,0.157-0.023,0.318-0.135,0.432l-0.13,0.134c-0.613,0.564-1.176,1.163-1.692,1.799C4.941,11.886,4.79,11.957,4.638,11.957z
			 M4.877,9.231l0.124,1.052c0.21-0.228,0.426-0.45,0.647-0.666L4.877,9.231z"/>
	</g>
	<g>
		<path d="M16.184,26.5h-2.367c-1.02,0-1.966-0.501-2.532-1.34c-1.087-1.611-2.726-2.792-4.613-3.326l-4.813-1.358
			c-0.841-0.236-1.392-1.059-1.281-1.912c0.159-1.218,0.571-2.548,1.195-3.856L0.503,4.059C0.481,3.877,0.561,3.698,0.71,3.592
			s0.345-0.123,0.511-0.04l7.392,3.65C10.559,6.073,12.708,5.5,15,5.5c2.287,0,4.431,0.574,6.378,1.707l7.4-3.655
			c0.166-0.081,0.362-0.065,0.511,0.04c0.149,0.106,0.229,0.285,0.207,0.467l-1.271,10.669c0.623,1.302,1.035,2.625,1.196,3.834
			c0.111,0.854-0.438,1.677-1.281,1.915l-4.812,1.358c-1.888,0.533-3.526,1.714-4.614,3.326C18.149,25.999,17.202,26.5,16.184,26.5z
			 M1.604,4.857L2.781,14.7c0.019,0.104,0.003,0.211-0.043,0.306c-0.615,1.257-1.02,2.532-1.17,3.687
			c-0.048,0.364,0.193,0.717,0.561,0.82l4.813,1.359c2.115,0.597,3.951,1.921,5.171,3.729c0.38,0.563,1.017,0.899,1.703,0.899h2.367
			c0.687,0,1.323-0.336,1.702-0.899c1.221-1.808,3.057-3.132,5.172-3.729l4.812-1.358c0.367-0.104,0.608-0.457,0.561-0.821
			c-0.15-1.135-0.549-2.391-1.152-3.63c-0.034-0.069-0.051-0.145-0.051-0.222l0.001-0.158l1.167-9.826l-6.741,3.33
			c-0.162,0.114-0.376,0.128-0.547,0.023c-1.854-1.134-3.908-1.709-6.106-1.709c-2.189,0-4.234,0.565-6.076,1.681
			C8.78,8.285,8.584,8.305,8.417,8.221L1.604,4.857z"/>
	</g>
	<g>
		<path d="M9.999,18c-0.145,0-0.288-0.063-0.388-0.184c-1.616-1.979-3.667-2.319-3.688-2.322c-0.272-0.042-0.46-0.297-0.418-0.569
			c0.041-0.272,0.303-0.457,0.566-0.419c0.1,0.015,2.442,0.387,4.314,2.678c0.174,0.214,0.143,0.529-0.071,0.704
			C10.223,17.963,10.11,18,9.999,18z"/>
	</g>
	<g>
		<path d="M20,18c-0.106,0-0.213-0.034-0.304-0.103c-0.22-0.168-0.261-0.482-0.094-0.701c1.765-2.304,4.224-2.676,4.327-2.691
			c0.267-0.039,0.525,0.151,0.564,0.423c0.039,0.273-0.149,0.526-0.423,0.566c-0.021,0.003-2.167,0.341-3.674,2.31
			C20.299,17.933,20.149,18,20,18z"/>
	</g>
	<g>
		<path d="M25.361,11.966c-0.139,0-0.273-0.058-0.37-0.164l-0.015-0.016c-0.534-0.657-1.097-1.255-1.689-1.8l-0.15-0.154
			c-0.111-0.114-0.161-0.275-0.135-0.432c0.027-0.157,0.127-0.292,0.27-0.363l2.23-1.115c0.162-0.082,0.36-0.068,0.511,0.038
			c0.15,0.105,0.23,0.285,0.209,0.468l-0.364,3.097c-0.022,0.194-0.157,0.358-0.344,0.417
			C25.465,11.958,25.413,11.966,25.361,11.966z M24.351,9.617c0.219,0.213,0.436,0.436,0.647,0.666l0.124-1.052L24.351,9.617z"/>
	</g>
	<g>
		<circle cx="12.999" cy="21" r="0.5"/>
	</g>
	<g>
		<circle cx="17" cy="21" r="0.5"/>
	</g>
</g>
</svg>
