<?xml version="1.0" encoding="iso-8859-1"?>
<!-- Generator: Adobe Illustrator 19.0.0, SVG Export Plug-In . SVG Version: 6.00 Build 0)  -->
<svg version="1.1" id="Layer_1" xmlns="http://www.w3.org/2000/svg" xmlns:xlink="http://www.w3.org/1999/xlink" x="0px" y="0px"
	 viewBox="0 0 30 30" style="enable-background:new 0 0 30 30;" xml:space="preserve">
<g id="Arbok_1_">
	<g>
		<path d="M20.508,29.98c-0.276,0-0.5-0.224-0.5-0.5c0-2.793,1.902-6.448,3.917-10.318c2.37-4.553,4.82-9.261,3.858-12.219
			c-0.727-2.237-5.605-4.475-8.509-5.359c-2.731-0.833-6.488-0.655-8.542-0.002C7.696,2.546,2.924,4.77,2.217,6.943
			C1.256,9.9,3.71,14.607,6.084,19.159c2.018,3.871,3.924,7.527,3.924,10.321c0,0.276-0.224,0.5-0.5,0.5s-0.5-0.224-0.5-0.5
			c0-2.549-1.938-6.265-3.812-9.858C2.727,14.887,0.174,9.99,1.265,6.634c1.109-3.411,8.834-5.9,9.163-6.005
			c2.17-0.689,6.109-0.924,9.137-0.001c2.77,0.844,8.251,3.186,9.169,6.006c1.091,3.357-1.458,8.254-3.922,12.99
			c-1.87,3.592-3.804,7.308-3.804,9.856C21.008,29.756,20.784,29.98,20.508,29.98z"/>
	</g>
	<g>
		<path d="M15.008,14.98h-1.894c-0.779,0-1.453-0.541-1.718-1.378c-0.173-0.546-0.919-2.102-1.232-2.738
			C8.797,9.395,5.005,5.822,3.173,5.941C2.889,5.963,2.685,6.083,2.529,6.316C2.376,6.545,2.065,6.607,1.836,6.455
			C1.607,6.302,1.544,5.992,1.697,5.762c0.325-0.488,0.809-0.771,1.397-0.817c2.718-0.205,7.333,4.729,7.854,5.294
			c0.032,0.035,0.059,0.074,0.081,0.117c0.044,0.089,1.083,2.19,1.321,2.944c0.104,0.329,0.359,0.68,0.765,0.68h1.893
			c0.276,0,0.5,0.224,0.5,0.5S15.284,14.98,15.008,14.98z"/>
	</g>
	<g>
		<path d="M16.902,14.98h-1.894c-0.276,0-0.5-0.224-0.5-0.5s0.224-0.5,0.5-0.5h1.894c0.405,0,0.661-0.351,0.765-0.68
			c0.238-0.752,1.26-2.853,1.303-2.942c0.021-0.043,0.049-0.084,0.082-0.12c0.521-0.564,5.177-5.497,7.854-5.294
			c0.589,0.046,1.072,0.329,1.397,0.817c0.153,0.23,0.091,0.541-0.139,0.693c-0.231,0.152-0.542,0.091-0.693-0.139
			c-0.155-0.233-0.36-0.353-0.643-0.375c-1.833-0.11-5.623,3.452-6.99,4.921c-0.309,0.638-1.044,2.192-1.217,2.739
			C18.355,14.439,17.681,14.98,16.902,14.98z"/>
	</g>
	<g>
		<path d="M16.508,20.98h-3c-0.869,0-1.5-0.631-1.5-1.5v-0.432c0.002-2.025,0.003-2.95-0.529-5.246
			c-0.062-0.269,0.105-0.538,0.375-0.6c0.271-0.062,0.538,0.105,0.6,0.375c0.558,2.408,0.556,3.432,0.554,5.473v0.431
			c0,0.313,0.187,0.5,0.5,0.5h3c0.313,0,0.5-0.187,0.5-0.5v-0.529c-0.004-1.987-0.006-2.984,0.542-5.35
			c0.063-0.269,0.332-0.435,0.6-0.375c0.269,0.063,0.437,0.331,0.375,0.6c-0.522,2.254-0.52,3.212-0.516,5.123v0.531
			C18.008,20.349,17.377,20.98,16.508,20.98z"/>
	</g>
	<g>
		<path d="M13.508,10.98c-0.128,0-0.256-0.049-0.354-0.146l-2-2c-0.195-0.195-0.195-0.512,0-0.707c0.195-0.195,0.512-0.195,0.707,0
			l2,2c0.195,0.195,0.195,0.512,0,0.707C13.764,10.931,13.636,10.98,13.508,10.98z"/>
	</g>
	<g>
		<path d="M16.508,10.98c-0.128,0-0.256-0.049-0.354-0.146c-0.195-0.195-0.195-0.512,0-0.707l2-2c0.195-0.195,0.512-0.195,0.707,0
			c0.195,0.195,0.195,0.512,0,0.707l-2,2C16.764,10.931,16.636,10.98,16.508,10.98z"/>
	</g>
	<g>
		<path d="M13.508,15.98c-0.276,0-0.5-0.224-0.5-0.5v-1c0-0.276,0.224-0.5,0.5-0.5s0.5,0.224,0.5,0.5v1
			C14.008,15.756,13.784,15.98,13.508,15.98z"/>
	</g>
	<g>
		<path d="M14.008,20.98c-0.276,0-0.5-0.224-0.5-0.5v-2c0-0.276,0.224-0.5,0.5-0.5s0.5,0.224,0.5,0.5v2
			C14.508,20.756,14.284,20.98,14.008,20.98z"/>
	</g>
	<g>
		<path d="M16.008,20.98c-0.276,0-0.5-0.224-0.5-0.5v-2c0-0.276,0.224-0.5,0.5-0.5s0.5,0.224,0.5,0.5v2
			C16.508,20.756,16.284,20.98,16.008,20.98z"/>
	</g>
	<g>
		<path d="M16.508,15.98c-0.276,0-0.5-0.224-0.5-0.5v-1c0-0.276,0.224-0.5,0.5-0.5s0.5,0.224,0.5,0.5v1
			C17.008,15.756,16.784,15.98,16.508,15.98z"/>
	</g>
</g>
</svg>
