<?xml version="1.0" encoding="iso-8859-1"?>
<!-- Generator: Adobe Illustrator 19.0.0, SVG Export Plug-In . SVG Version: 6.00 Build 0)  -->
<svg version="1.1" id="Layer_1" xmlns="http://www.w3.org/2000/svg" xmlns:xlink="http://www.w3.org/1999/xlink" x="0px" y="0px"
	 viewBox="0 0 30 30" style="enable-background:new 0 0 30 30;" xml:space="preserve">
<g id="Arceus_1_">
	<g>
		<path d="M10.515,27.481c-0.059,0-0.118-0.01-0.174-0.031c-1.625-0.603-6.443-4.501-6.632-7.836c-0.002-0.036,0-0.072,0.005-0.107
			l0.598-3.746c0.041-0.257,0.281-0.438,0.533-0.42c0.261,0.021,0.461,0.238,0.461,0.499c0,0.951,2.945,3.714,5.204,5.526
			c2.612-2.076,5.209-4.625,5.209-5.481c0-0.261,0.2-0.478,0.461-0.499c0.255-0.016,0.492,0.163,0.533,0.42l0.598,3.746
			c0.005,0.035,0.007,0.071,0.005,0.107c-0.187,3.308-5.002,7.188-6.627,7.791C10.633,27.471,10.573,27.481,10.515,27.481z
			 M4.711,19.609c0.193,2.545,4.133,6.07,5.805,6.831c1.707-0.768,5.604-4.215,5.798-6.786l-0.342-2.142
			c-1.414,1.916-4.41,4.304-5.155,4.886c-0.183,0.141-0.436,0.141-0.616-0.001c-0.745-0.584-3.737-2.987-5.149-4.917L4.711,19.609z"
			/>
	</g>
	<g>
		<path d="M10.512,30.001c-2.066,0-9.503-5.21-9.503-10.498l0.746-3.732L0.007,2.115c-0.064-0.538,0.104-1.076,0.461-1.479
			S1.34,0.001,1.879,0.001c0.782,0,1.491,0.492,1.766,1.224l3.334,9.107c0.095,0.259-0.038,0.546-0.298,0.642
			s-0.547-0.039-0.642-0.298L2.706,1.572C2.491,0.994,1.63,0.832,1.216,1.3C1.045,1.492,0.969,1.738,0.999,1.992l1.759,13.734
			c0.007,0.054,0.005,0.109-0.006,0.163l-0.753,3.714c0.01,4.453,6.765,9.398,8.513,9.398c1.747,0,8.497-4.946,8.497-9.498
			l-0.736-3.616c-0.011-0.053-0.013-0.108-0.006-0.161l1.737-13.737c0.03-0.252-0.046-0.498-0.217-0.69
			c-0.411-0.466-1.271-0.308-1.492,0.276l-3.316,9.099c-0.095,0.259-0.38,0.394-0.641,0.298c-0.26-0.095-0.394-0.381-0.299-0.641
			l3.318-9.104c0.276-0.736,0.986-1.228,1.767-1.228c0.539,0,1.054,0.231,1.412,0.635c0.356,0.403,0.524,0.941,0.46,1.476
			l-1.728,13.659l0.73,3.634C20.009,24.543,12.889,30.001,10.512,30.001z"/>
	</g>
	<g>
		<path d="M5.758,8.952c-0.12,0-0.241-0.043-0.337-0.13C5.217,8.636,5.202,8.32,5.388,8.116c4.31-4.734,11.119-4.304,11.406-4.281
			c0.275,0.02,0.482,0.259,0.462,0.534c-0.02,0.275-0.265,0.483-0.533,0.463c-0.067-0.004-6.617-0.414-10.595,3.957
			C6.03,8.897,5.894,8.952,5.758,8.952z"/>
	</g>
	<g>
		<path d="M19.169,13.815c-0.146,0-0.29-0.063-0.389-0.185c-0.174-0.215-0.141-0.529,0.074-0.704l0.25-0.202
			c1.352-1.117,2.716-1.096,4.027-1.077c0.845,0.013,1.64,0.025,2.419-0.265c0.206-0.076,0.701-0.364,1.713-1.437
			c0.813-0.862,1.372-1.963,1.612-3.138c-0.899,0.796-2.156,1.718-3.151,1.718c-1.197,0-2.401-0.782-3.565-1.538
			c-0.6-0.389-1.166-0.756-1.681-0.983l-0.47-0.202c-0.253-0.109-0.37-0.403-0.261-0.657c0.108-0.254,0.404-0.372,0.657-0.261
			l0.473,0.204c0.593,0.261,1.191,0.65,1.825,1.062c1.043,0.676,2.121,1.376,3.021,1.376c0.876,0,2.563-1.45,3.42-2.364
			c0.14-0.149,0.357-0.199,0.548-0.123c0.191,0.075,0.316,0.26,0.316,0.465c0,1.899-0.735,3.768-2.017,5.127
			c-0.892,0.945-1.576,1.498-2.094,1.689c-0.956,0.354-1.882,0.342-2.781,0.327c-1.236-0.021-2.309-0.036-3.38,0.851l-0.254,0.206
			C19.392,13.778,19.28,13.815,19.169,13.815z"/>
	</g>
	<g>
		<circle cx="7.509" cy="20.503" r="1"/>
	</g>
	<g>
		<path d="M13.509,21.503c-0.552,0-1-0.449-1-1s0.448-1,1-1s1,0.449,1,1S14.061,21.503,13.509,21.503z M13.509,20.503h-0.5H13.509
			L13.509,20.503z"/>
	</g>
</g>
</svg>
