<?xml version="1.0" encoding="iso-8859-1"?>
<!-- Generator: Adobe Illustrator 19.0.0, SVG Export Plug-In . SVG Version: 6.00 Build 0)  -->
<svg version="1.1" id="Layer_1" xmlns="http://www.w3.org/2000/svg" xmlns:xlink="http://www.w3.org/1999/xlink" x="0px" y="0px"
	 viewBox="0 0 30 30" style="enable-background:new 0 0 30 30;" xml:space="preserve">
<g id="Ash_Hat_4_">
	<g>
		<path d="M5.5,19.995c-0.276,0-0.5-0.224-0.5-0.5v-7.762c0-0.276,0.224-0.5,0.5-0.5s0.5,0.224,0.5,0.5v7.762
			C6,19.771,5.776,19.995,5.5,19.995z"/>
	</g>
	<g>
		<path d="M18.795,26.004c-1.355,0-2.832-0.473-4.385-0.969c-1.635-0.523-3.319-1.065-4.902-1.04
			c-0.764,0.012-1.984,0.223-3.276,0.447c-3.127,0.541-5.083,0.821-5.878,0.153C0.122,24.4,0,24.137,0,23.835
			c0-0.286,0-0.511,5.185-4.727c0.065-0.053,0.143-0.088,0.226-0.104c1.364-0.25,5.515-1.008,8.09-1.008
			c1.614,0,3.673,0.476,5.852,0.979c1.969,0.455,4,0.924,5.648,1.008v-7.487c0-5.235-5.298-7.5-8-7.5c-6.168,0-11,2.959-11,6.738
			c0,0.276-0.224,0.5-0.5,0.5S5,12.01,5,11.734c0-4.339,5.271-7.738,12-7.738c6.804,0,13,3.575,13,7.5v8
			c0,0.229-0.156,0.429-0.379,0.485l-3.851,0.963c-0.774,0.861-4.462,4.849-6.474,5.038C19.132,25.996,18.965,26.004,18.795,26.004z
			 M9.615,22.994c1.7,0,3.428,0.553,5.101,1.088c1.647,0.527,3.205,1.02,4.489,0.903c1.132-0.107,3.544-2.292,5.207-4.043
			c-1.62-0.147-3.477-0.576-5.284-0.994c-2.122-0.49-4.127-0.953-5.627-0.953c-2.411,0-6.328,0.703-7.784,0.969
			c-1.942,1.582-4.024,3.338-4.627,3.935c0.628,0.311,3.427-0.175,4.972-0.442c1.332-0.23,2.589-0.448,3.431-0.461
			C9.533,22.995,9.573,22.994,9.615,22.994z M22.26,5.752C24.305,7.122,26,9.329,26,12.495v7.359l3-0.75v-7.609
			C29,9.145,26.117,6.886,22.26,5.752z"/>
	</g>
	<g>
		<path d="M17.5,15.995c-0.012,0-0.024,0-0.036-0.001l-7-0.5c-0.194-0.014-0.362-0.139-0.432-0.32
			c-0.069-0.182-0.027-0.387,0.109-0.527l3.87-3.98c0.719-0.632,1.77-0.597,2.419,0.052l0.423,0.423
			c0.195,0.195,0.195,0.512,0,0.707s-0.512,0.195-0.707,0l-0.423-0.423c-0.28-0.279-0.729-0.293-1.024-0.034l-3.092,3.181
			l5.928,0.424c0.275,0.02,0.483,0.259,0.463,0.534C17.98,15.794,17.76,15.995,17.5,15.995z"/>
	</g>
</g>
</svg>
