<?xml version="1.0" encoding="iso-8859-1"?>
<!-- Generator: Adobe Illustrator 19.0.0, SVG Export Plug-In . SVG Version: 6.00 Build 0)  -->
<svg version="1.1" id="Layer_1" xmlns="http://www.w3.org/2000/svg" xmlns:xlink="http://www.w3.org/1999/xlink" x="0px" y="0px"
	 viewBox="0 0 30 30" style="enable-background:new 0 0 30 30;" xml:space="preserve">
<g id="Ash_2_">
	<g id="Ash_Hat_3_">
		<g>
			<path d="M4.5,13.462c-0.276,0-0.5-0.224-0.5-0.5V7c0-0.276,0.224-0.5,0.5-0.5S5,6.724,5,7v5.962
				C5,13.238,4.776,13.462,4.5,13.462z"/>
		</g>
		<g>
			<path d="M23.5,7.5C23.224,7.5,23,7.276,23,7c0-2.645-4.473-6-9.5-6C8.25,1,5,4.114,5,7c0,0.276-0.224,0.5-0.5,0.5S4,7.276,4,7
				c0-3.367,3.632-7,9.5-7C19.316,0,24,3.83,24,7C24,7.276,23.776,7.5,23.5,7.5z"/>
		</g>
		<g>
			<path d="M1.489,16.031c-0.492,0-0.866-0.088-1.129-0.298C0.124,15.545,0,15.279,0,14.965c0-0.365,0-0.548,4.439-2.523
				c1.264-0.53,3.921-0.941,6.061-0.941c1.323,0,3.053,0.357,4.885,0.735c1.806,0.373,3.673,0.758,5.074,0.765L23,12.578V7
				c0-0.276,0.224-0.5,0.5-0.5S24,6.724,24,7v6c0,0.245-0.177,0.453-0.418,0.493l-2.915,0.486c-0.521,0.287-3.402,1.84-4.989,1.989
				c-1.239,0.114-2.661-0.161-4.169-0.455C10.163,15.251,8.768,14.968,7.508,15c-0.643,0.01-1.703,0.25-2.729,0.483
				C3.366,15.803,2.277,16.031,1.489,16.031z M1.277,15.043c0.68,0.052,2.328-0.32,3.28-0.536c1.125-0.255,2.188-0.496,2.935-0.508
				c1.349-0.025,2.812,0.26,4.208,0.532c1.435,0.279,2.787,0.543,3.884,0.441c0.775-0.073,2.054-0.603,3.12-1.112
				c-1.115-0.15-2.331-0.401-3.521-0.646c-1.78-0.368-3.462-0.714-4.683-0.714c-1.993,0-4.533,0.386-5.664,0.859
				C3.482,13.962,1.995,14.66,1.277,15.043z"/>
		</g>
		<g>
			<path d="M20.5,14c-0.276,0-0.5-0.224-0.5-0.5V7c0-3.995-4.334-6-6.761-6c-0.276,0-0.5-0.224-0.5-0.5s0.224-0.5,0.5-0.5
				C15.86,0,21,2.114,21,7v6.5C21,13.776,20.776,14,20.5,14z"/>
		</g>
		<g>
			<path d="M14.501,10c-0.014,0-0.026,0-0.039-0.001l-6.5-0.5C7.755,9.483,7.58,9.342,7.521,9.143
				C7.462,8.945,7.532,8.73,7.696,8.604l3.761-2.891c0.575-0.504,1.488-0.474,2.052,0.089l0.346,0.345
				c0.195,0.195,0.195,0.512,0.001,0.707c-0.195,0.196-0.513,0.195-0.708,0.001L12.802,6.51c-0.191-0.192-0.506-0.202-0.711-0.024
				L9.339,8.602l5.2,0.4c0.275,0.021,0.481,0.262,0.46,0.537C14.979,9.801,14.759,10,14.501,10z"/>
		</g>
	</g>
	<g>
		<path d="M20.673,26.156c-0.229,0-0.437-0.16-0.487-0.394c-0.059-0.27,0.112-0.536,0.382-0.595l4.646-1.008l-1.142-1.902
			c-0.079-0.132-0.094-0.294-0.037-0.438c0.056-0.144,0.175-0.254,0.322-0.298l4.065-1.22l-5.727-4.405
			c-0.143-0.11-0.215-0.287-0.19-0.465c0.024-0.178,0.143-0.329,0.31-0.396l1.674-0.669L23.2,13.4
			c-0.221-0.166-0.266-0.479-0.101-0.7c0.167-0.221,0.48-0.265,0.7-0.1l2,1.5c0.145,0.108,0.22,0.286,0.196,0.465
			s-0.143,0.332-0.311,0.399L24,15.639l5.805,4.465c0.148,0.115,0.221,0.303,0.188,0.487c-0.034,0.185-0.169,0.334-0.349,0.389
			l-4.384,1.315l1.169,1.949c0.083,0.138,0.094,0.308,0.03,0.456s-0.195,0.256-0.353,0.29l-5.326,1.156
			C20.744,26.152,20.708,26.156,20.673,26.156z"/>
	</g>
	<g>
		<path d="M20.5,18c-0.276,0-0.5-0.224-0.5-0.5v-4c0-0.276,0.224-0.5,0.5-0.5s0.5,0.224,0.5,0.5v4C21,17.776,20.776,18,20.5,18z"/>
	</g>
	<g>
		<path d="M11.412,30c-0.237,0-0.476-0.045-0.699-0.134l-5.099-2.252c-0.772-0.419-1.313-1.171-1.481-2.031
			C4.041,25.114,4,24.578,4,23.844c0-0.902,0.396-2.723,0.413-2.8c0.116-0.822,0.116-1.691-0.007-2.549L4.177,15.07
			c-0.019-0.275,0.19-0.514,0.466-0.532c0.279-0.006,0.515,0.19,0.532,0.466l0.226,3.387c0.133,0.915,0.133,1.88-0.004,2.832
			c-0.011,0.053-0.396,1.828-0.396,2.622c0,0.667,0.035,1.145,0.113,1.546c0.113,0.57,0.466,1.067,0.942,1.327l5.045,2.227
			c0.177,0.071,0.391,0.077,0.589,0.011l7.996-2.59l0.494-3.298c0.041-0.274,0.299-0.461,0.568-0.42
			c0.273,0.041,0.461,0.295,0.42,0.569l-0.54,3.604c-0.027,0.188-0.159,0.343-0.34,0.401l-8.286,2.685
			C11.811,29.968,11.611,30,11.412,30z"/>
	</g>
	<g>
		<path d="M20.044,23.64c-0.228,0-0.433-0.156-0.486-0.387c-0.063-0.269,0.104-0.537,0.373-0.6c0.19-0.045,0.746-0.222,1.021-0.496
			c0.93-0.928,1.049-2.158,1.049-3.126c0-0.29-0.039-0.797-0.299-0.94c-0.334-0.186-1.079,0.108-1.479,0.362
			c-0.233,0.146-0.542,0.079-0.69-0.154c-0.147-0.233-0.079-0.541,0.153-0.689c0.151-0.097,1.517-0.934,2.496-0.396
			c0.544,0.298,0.819,0.91,0.819,1.817c0,1.071-0.139,2.633-1.342,3.834c-0.526,0.525-1.403,0.739-1.502,0.762
			C20.118,23.636,20.081,23.64,20.044,23.64z"/>
	</g>
	<g>
		<path d="M4.282,23.64c-0.066,0-0.134-0.013-0.199-0.042l-3.782-1.64c-0.158-0.068-0.271-0.214-0.296-0.386
			c-0.024-0.171,0.04-0.343,0.172-0.455l2.162-1.829L1.6,18.298c-0.164-0.219-0.121-0.53,0.097-0.696l2.6-1.988
			c0.22-0.167,0.532-0.127,0.701,0.093c0.167,0.219,0.126,0.533-0.094,0.701l-2.207,1.688l0.726,0.971
			c0.158,0.212,0.124,0.51-0.077,0.681l-1.907,1.613l3.044,1.32c0.253,0.11,0.369,0.404,0.26,0.657
			C4.659,23.528,4.476,23.64,4.282,23.64z"/>
	</g>
	<g>
		<path d="M10.5,17c-0.099,0-0.196-0.029-0.28-0.086C10.082,16.821,10,16.666,10,16.5V15c0-0.276,0.224-0.5,0.5-0.5S11,14.724,11,15
			v0.762l1.814-0.726c0.256-0.104,0.547,0.021,0.649,0.279c0.103,0.256-0.021,0.547-0.278,0.65l-2.5,1
			C10.626,16.988,10.562,17,10.5,17z"/>
	</g>
	<g>
		<path d="M9.5,23h-3C6.224,23,6,22.776,6,22.5v-2.586C6,18.858,6.858,18,7.914,18h0.172C9.142,18,10,18.858,10,19.914V22.5
			C10,22.776,9.776,23,9.5,23z M7,22h2v-2.086C9,19.41,8.59,19,8.086,19H7.914C7.41,19,7,19.41,7,19.914V22z"/>
	</g>
	<g>
		<path d="M12,27.5c-0.879,0-1.592-0.268-2.119-0.797C9.006,25.825,9,24.553,9,24.499C9.001,24.224,9.225,24,9.5,24h5
			c0.275,0,0.499,0.223,0.5,0.499c0,0.054-0.006,1.326-0.881,2.204C13.592,27.232,12.879,27.5,12,27.5z M10.062,25
			c0.136,0.598,0.568,1.5,1.938,1.5c0.604,0,1.078-0.169,1.411-0.503c0.299-0.3,0.446-0.69,0.519-0.997H10.062z"/>
	</g>
	<g>
		<circle cx="7.5" cy="21" r="0.5"/>
	</g>
	<g>
		<path d="M17.5,23h-3c-0.276,0-0.5-0.224-0.5-0.5v-2.586C14,18.858,14.858,18,15.914,18h0.172C17.142,18,18,18.858,18,19.914V22.5
			C18,22.776,17.776,23,17.5,23z M15,22h2v-2.086C17,19.41,16.59,19,16.086,19h-0.172C15.41,19,15,19.41,15,19.914V22z"/>
	</g>
	<g>
		<circle cx="15.5" cy="21" r="0.5"/>
	</g>
</g>
</svg>
