<?xml version="1.0" encoding="iso-8859-1"?>
<!-- Generator: Adobe Illustrator 19.0.0, SVG Export Plug-In . SVG Version: 6.00 Build 0)  -->
<svg version="1.1" id="Layer_1" xmlns="http://www.w3.org/2000/svg" xmlns:xlink="http://www.w3.org/1999/xlink" x="0px" y="0px"
	 viewBox="0 0 30 30" style="enable-background:new 0 0 30 30;" xml:space="preserve">
<g id="Bellsprout_2_">
	<g>
		<path d="M9.224,29.999c-0.515,0-1.082-0.097-1.688-0.293c-1.472-0.475-3.032-1.487-4.395-2.85l0,0l0,0
			c-2.943-2.943-3.993-6.504-2.391-8.107c0.809-0.808,2.128-0.973,3.713-0.46c1.472,0.475,3.032,1.487,4.395,2.85
			c2.943,2.943,3.993,6.504,2.391,8.107C10.749,29.746,10.055,29.999,9.224,29.999z M2.784,18.999c-0.564,0-1.023,0.154-1.327,0.457
			c-1.166,1.167-0.071,4.231,2.391,6.693l0,0c1.253,1.252,2.671,2.178,3.995,2.605c1.19,0.385,2.175,0.307,2.698-0.215
			c1.166-1.167,0.071-4.231-2.391-6.693c-1.253-1.252-2.671-2.178-3.995-2.605C3.655,19.08,3.192,18.999,2.784,18.999z"/>
	</g>
	<g>
		<path d="M8.734,27.498c-0.449,0-0.976-0.295-1.384-0.557c-0.703-0.452-1.535-1.145-2.343-1.953l0,0
			c-0.808-0.808-1.501-1.639-1.952-2.342c-0.383-0.594-0.833-1.441-0.341-1.933c0.491-0.493,1.338-0.042,1.933,0.341
			c0.703,0.452,1.535,1.145,2.343,1.953s1.501,1.639,1.952,2.342c0.383,0.594,0.833,1.441,0.341,1.933
			C9.129,27.437,8.939,27.498,8.734,27.498z M5.715,24.282c1.199,1.199,2.162,1.86,2.673,2.104
			c-0.245-0.511-0.906-1.473-2.104-2.672c-1.199-1.199-2.162-1.86-2.673-2.104C3.855,22.121,4.517,23.082,5.715,24.282L5.715,24.282
			z"/>
	</g>
	<g>
		<path d="M11.499,26.498c-0.069,0-0.14-0.014-0.207-0.045c-0.252-0.115-0.362-0.411-0.248-0.663
			c2.625-5.761,10.53-7.164,10.865-7.221c4.102-0.832,7.09-4.489,7.09-8.694C28.999,4.981,25.015,1,20.116,1
			c-4.12,0-7.761,2.907-8.665,6.915c-0.002,0.014-0.005,0.027-0.008,0.04c-0.091,0.351-2.275,8.605-7.228,10.993
			c-0.244,0.12-0.546,0.016-0.667-0.233c-0.12-0.249-0.016-0.548,0.233-0.667c4.416-2.129,6.56-9.848,6.687-10.32
			c0.001-0.003,0.002-0.006,0.002-0.009c0.997-4.472,5.054-7.718,9.646-7.718c5.449,0,9.883,4.43,9.883,9.875
			c0,4.678-3.325,8.748-7.906,9.677c-0.093,0.016-7.735,1.378-10.139,6.653C11.87,26.39,11.688,26.498,11.499,26.498z"/>
	</g>
	<g>
		<path d="M25.481,29.997c-0.185,0-0.362-0.103-0.449-0.28c-0.894-1.826-0.573-4.281-0.061-5.441l0.229-0.469
			c0.638-1.304,0.771-3.002,0.339-4.328l-0.532-1.63c-0.085-0.263,0.058-0.545,0.32-0.63c0.261-0.087,0.545,0.057,0.631,0.32
			l0.532,1.631c0.508,1.56,0.354,3.553-0.392,5.077l-0.221,0.452c-0.414,0.938-0.691,3.06,0.053,4.581
			c0.121,0.248,0.019,0.547-0.229,0.669C25.631,29.98,25.556,29.997,25.481,29.997z"/>
	</g>
	<g>
		<path d="M22.914,29.997c-0.185,0-0.362-0.103-0.449-0.28c-0.854-1.746-0.643-4.222-0.009-5.665
			c0.747-1.526,0.747-3.322,0.011-4.826c-0.121-0.248-0.02-0.548,0.229-0.669c0.249-0.121,0.548-0.021,0.669,0.229
			c0.871,1.78,0.872,3.905,0.001,5.685c-0.445,1.013-0.761,3.258-0.002,4.808c0.121,0.248,0.019,0.547-0.229,0.669
			C23.063,29.98,22.988,29.997,22.914,29.997z"/>
	</g>
	<g>
		<circle cx="14.499" cy="9.498" r="1"/>
	</g>
	<g>
		<circle cx="20.499" cy="10.498" r="1"/>
	</g>
</g>
</svg>
