<?xml version="1.0" encoding="iso-8859-1"?>
<!-- Generator: Adobe Illustrator 19.0.0, SVG Export Plug-In . SVG Version: 6.00 Build 0)  -->
<svg version="1.1" id="Layer_1" xmlns="http://www.w3.org/2000/svg" xmlns:xlink="http://www.w3.org/1999/xlink" x="0px" y="0px"
	 viewBox="0 0 30 30" style="enable-background:new 0 0 30 30;" xml:space="preserve">
<g id="Blastoise_2_">
	<g>
		<path d="M26.002,7.004c-0.182,0-0.356-0.099-0.445-0.272C25.12,5.88,24.661,5.09,24.19,4.386
			c-0.121-0.122-0.142-0.259-0.104-0.427c0.037-0.167,0.188-0.267,0.35-0.324c0.662-0.236,1.384-0.43,2.147-0.578
			c0.161-0.031,0.323,0.018,0.441,0.13c0.117,0.113,0.172,0.275,0.147,0.436c-0.157,1.036-0.386,2.037-0.68,2.977
			c-0.028,0.146-0.121,0.277-0.265,0.35C26.155,6.987,26.078,7.004,26.002,7.004z M25.376,4.38c0.159,0.256,0.317,0.521,0.474,0.793
			c0.078-0.321,0.148-0.647,0.211-0.979C25.826,4.251,25.598,4.313,25.376,4.38z"/>
	</g>
	<g>
		<path d="M3.998,7.004c-0.071,0-0.143-0.015-0.211-0.047c-0.153-0.071-0.254-0.21-0.281-0.365C3.223,5.636,3.003,4.621,2.852,3.576
			C2.829,3.415,2.885,3.252,3.004,3.14c0.118-0.112,0.284-0.16,0.442-0.126c0.738,0.15,1.437,0.349,2.076,0.588
			c0.149,0.056,0.264,0.181,0.307,0.335c0.042,0.154,0.008,0.32-0.092,0.445c-0.421,0.667-0.864,1.468-1.29,2.34
			C4.361,6.901,4.183,7.004,3.998,7.004z M3.959,4.159c0.058,0.323,0.122,0.642,0.194,0.955c0.146-0.266,0.292-0.524,0.44-0.773
			C4.388,4.275,4.176,4.215,3.959,4.159z"/>
	</g>
	<g>
		<path d="M15,30C6.729,30,0,25.25,0,19.413c0-2.946,0.694-6.44,1.958-9.86C-0.007,5.169-0.001,0.688,0,0.497
			c0.001-0.134,0.056-0.263,0.152-0.356C0.25,0.047,0.381-0.008,0.513,0c0.139,0.004,3.324,0.104,6.336,1.262
			C7.738,0.424,8.57,0,9.326,0C11.513,0,14.113,1.749,15,2.396C15.887,1.749,18.487,0,20.674,0c0.756,0,1.588,0.424,2.477,1.262
			C26.163,0.104,29.348,0.004,29.487,0c0.14-0.008,0.265,0.047,0.361,0.141C29.945,0.234,29.999,0.363,30,0.497
			c0.001,0.191,0.007,4.672-1.958,9.056c1.264,3.42,1.958,6.914,1.958,9.86C30,25.25,23.271,30,15,30z M1.016,1.031
			c0.062,1.321,0.373,4.905,1.938,8.293C3.01,9.445,3.015,9.584,2.968,9.71c-1.269,3.372-1.967,6.818-1.967,9.703
			c0,5.286,6.28,9.587,14,9.587s14-4.301,14-9.587c0-2.885-0.698-6.332-1.967-9.703c-0.047-0.125-0.042-0.265,0.014-0.386
			c1.567-3.394,1.877-6.973,1.938-8.293c-1.06,0.082-3.53,0.361-5.762,1.278c-0.187,0.076-0.403,0.034-0.547-0.111
			C21.915,1.425,21.204,1,20.674,1c-2.277,0-5.333,2.39-5.364,2.415c-0.182,0.143-0.438,0.143-0.619,0C14.66,3.391,11.604,1,9.327,1
			c-0.53,0-1.241,0.425-2.003,1.198C7.18,2.343,6.964,2.386,6.777,2.309C4.545,1.392,2.074,1.113,1.016,1.031z"/>
	</g>
	<g>
		<path d="M20.5,25c-1.065,0-1.837-0.239-2.665-0.528c-1.803-0.63-3.869-0.63-5.67,0C11.311,24.771,10.572,25,9.5,25
			c-2.799,0-5.262-3.404-6.117-4.735c-0.799,0.707-1.472,1.39-1.852,2.193c-0.118,0.25-0.418,0.356-0.666,0.239
			c-0.249-0.118-0.356-0.416-0.238-0.666c0.532-1.127,1.469-1.985,2.548-2.911c0.112-0.097,0.261-0.138,0.411-0.113
			c0.146,0.025,0.274,0.116,0.349,0.245C3.962,19.299,6.675,24,9.5,24c0.917,0,1.546-0.196,2.335-0.472
			c2.009-0.705,4.315-0.703,6.33,0C18.932,23.796,19.59,24,20.5,24c2.859,0,5.751-4.711,5.779-4.759
			c0.076-0.125,0.204-0.211,0.349-0.234c0.146-0.024,0.293,0.018,0.404,0.114c1.139,0.975,1.839,1.845,2.342,2.909
			c0.118,0.25,0.011,0.547-0.238,0.666s-0.549,0.012-0.666-0.239c-0.374-0.792-0.883-1.468-1.66-2.194
			C25.915,21.579,23.323,25,20.5,25z"/>
	</g>
	<g>
		<path d="M8.008,17.254c-0.202,0-0.393-0.123-0.468-0.323c-0.098-0.259,0.033-0.547,0.291-0.645
			c2.294-0.866,4.64-1.287,7.169-1.287c2.672,0,5.354,0.456,7.551,1.283c0.259,0.097,0.39,0.386,0.292,0.644
			s-0.389,0.388-0.644,0.292C20.142,16.444,17.518,16,15,16c-2.407,0-4.637,0.4-6.815,1.222C8.126,17.244,8.066,17.254,8.008,17.254
			z"/>
	</g>
	<g>
		<path d="M13,20c-0.062,0-0.125-0.011-0.186-0.036l-2.5-1c-0.257-0.103-0.381-0.394-0.278-0.65s0.394-0.381,0.649-0.279l2.5,1
			c0.257,0.103,0.381,0.394,0.278,0.65C13.386,19.881,13.198,20,13,20z"/>
	</g>
	<g>
		<path d="M17,20c-0.198,0-0.386-0.119-0.464-0.314c-0.103-0.256,0.021-0.547,0.278-0.65l2.5-1c0.256-0.103,0.547,0.022,0.649,0.279
			s-0.021,0.547-0.278,0.65l-2.5,1C17.125,19.989,17.062,20,17,20z"/>
	</g>
	<g>
		<path d="M13.5,13h-8c-0.141,0-0.274-0.059-0.369-0.163s-0.142-0.242-0.129-0.382C5.109,11.257,5.488,8.43,6.686,8.06
			c1.722-0.534,5.903,2.975,7.145,4.063c0.156,0.137,0.211,0.357,0.138,0.552S13.708,13,13.5,13z M6.058,12h6.073
			c-2.122-1.718-4.442-3.202-5.15-2.984C6.665,9.124,6.251,10.501,6.058,12z"/>
	</g>
	<g>
		<circle cx="9.5" cy="11" r="1"/>
	</g>
	<g>
		<path d="M24.5,13h-8c-0.208,0-0.395-0.129-0.468-0.324s-0.019-0.415,0.138-0.552c1.24-1.088,5.428-4.597,7.145-4.063
			c1.197,0.37,1.576,3.197,1.684,4.395c0.013,0.14-0.034,0.278-0.129,0.382S24.641,13,24.5,13z M17.869,12h6.073
			c-0.194-1.499-0.608-2.876-0.923-2.984C22.322,8.796,19.993,10.28,17.869,12z"/>
	</g>
	<g>
		<path d="M20.5,12c-0.552,0-1-0.449-1-1s0.448-1,1-1s1,0.449,1,1S21.052,12,20.5,12z M20.5,11H20H20.5L20.5,11z"/>
	</g>
</g>
</svg>
