<?xml version="1.0" encoding="iso-8859-1"?>
<!-- Generator: Adobe Illustrator 19.0.0, SVG Export Plug-In . SVG Version: 6.00 Build 0)  -->
<svg version="1.1" id="Layer_1" xmlns="http://www.w3.org/2000/svg" xmlns:xlink="http://www.w3.org/1999/xlink" x="0px" y="0px"
	 viewBox="0 0 30 30" style="enable-background:new 0 0 30 30;" xml:space="preserve">
<g id="Blaziken_1_">
	<g>
		<path d="M14.999,30c-2.423,0-7.071-4.003-8.158-4.97l-6.266,0.964c-0.205,0.03-0.406-0.065-0.509-0.244
			c-0.104-0.179-0.087-0.402,0.042-0.563l3.649-4.561l-3.523-2.203c-0.13-0.081-0.215-0.216-0.232-0.367s0.036-0.302,0.144-0.41
			l2.245-2.245l-2.339-4.678c-0.088-0.177-0.064-0.389,0.062-0.542c0.125-0.153,0.327-0.215,0.52-0.164l5.379,1.49
			c0.266,0.074,0.422,0.349,0.348,0.615c-0.073,0.266-0.345,0.422-0.615,0.349l-4.295-1.19l1.997,3.994
			c0.097,0.192,0.059,0.425-0.094,0.577l-2.056,2.056l3.467,2.167c0.121,0.076,0.204,0.199,0.229,0.34
			c0.023,0.141-0.014,0.285-0.103,0.396l-3.199,3.998l5.232-0.805c0.149-0.022,0.3,0.022,0.412,0.124
			c1.496,1.354,5.789,4.871,7.664,4.871c1.651,0,6.099-3.522,7.674-4.879c0.11-0.095,0.26-0.136,0.402-0.115l5.232,0.805
			l-3.199-3.998c-0.089-0.112-0.126-0.256-0.103-0.396c0.024-0.141,0.107-0.264,0.229-0.34l3.467-2.167l-2.056-2.056
			c-0.152-0.152-0.19-0.385-0.094-0.577l1.997-3.994l-4.287,1.188c-0.27,0.074-0.542-0.083-0.615-0.349
			c-0.074-0.266,0.082-0.542,0.348-0.615l5.371-1.488c0.19-0.053,0.395,0.011,0.52,0.164c0.126,0.153,0.149,0.365,0.062,0.542
			l-2.339,4.678l2.245,2.245c0.107,0.108,0.16,0.259,0.144,0.41c-0.018,0.151-0.103,0.287-0.232,0.367l-3.523,2.203l3.649,4.561
			c0.129,0.161,0.146,0.384,0.042,0.563c-0.103,0.178-0.308,0.275-0.509,0.244l-6.273-0.965C22.032,25.978,17.166,30,14.999,30z"/>
	</g>
	<g>
		<path d="M19.499,21c-0.081,0-0.162-0.02-0.238-0.06c-0.242-0.132-0.333-0.435-0.201-0.678l8.404-15.527
			c0.444-0.842,0.931-1.823,1.234-2.726L18.352,12.353c-2.055,1.612-4.651,1.613-6.661,0.041L1.266,1.974
			c0.244,0.731,0.635,1.504,1.08,2.387l0.195,0.387l8.396,15.514c0.132,0.243,0.041,0.546-0.201,0.678
			c-0.243,0.128-0.547,0.042-0.678-0.202L1.453,4.812C0.672,3.266-0.002,1.93-0.002,0.502c0-0.202,0.122-0.385,0.309-0.462
			c0.187-0.078,0.401-0.035,0.545,0.108l11.5,11.499c1.589,1.239,3.703,1.239,5.339-0.041L29.145,0.147
			c0.143-0.143,0.36-0.187,0.545-0.108c0.187,0.077,0.309,0.26,0.309,0.462c0,1.385-0.836,3.156-1.653,4.706l-8.407,15.532
			C19.849,20.905,19.676,21,19.499,21z"/>
	</g>
	<g>
		<path d="M9.958,20H6.829c-0.278,0-0.522-0.131-0.67-0.358c-0.535-0.823,0.412-3.253,1.023-4.628
			c0.112-0.253,0.408-0.365,0.66-0.254c0.252,0.112,0.366,0.408,0.254,0.66C7.435,16.905,6.951,18.483,6.984,19h2.974
			c0.276,0,0.5,0.224,0.5,0.5S10.234,20,9.958,20z"/>
	</g>
	<g>
		<path d="M23.159,20h-3.128c-0.276,0-0.5-0.224-0.5-0.5s0.224-0.5,0.5-0.5h2.973c0.033-0.518-0.451-2.095-1.112-3.58
			c-0.112-0.252,0.001-0.548,0.254-0.66c0.249-0.111,0.547,0,0.66,0.254c0.611,1.375,1.559,3.805,1.023,4.628
			C23.682,19.869,23.437,20,23.159,20z"/>
	</g>
	<g>
		<path d="M12.999,26.5c-0.128,0-0.256-0.049-0.354-0.146l-1.5-1.5c-0.195-0.195-0.195-0.512,0-0.707s0.512-0.195,0.707,0l1.5,1.5
			c0.195,0.195,0.195,0.512,0,0.707C13.255,26.451,13.127,26.5,12.999,26.5z"/>
	</g>
	<g>
		<path d="M16.999,26.5c-0.128,0-0.256-0.049-0.354-0.146c-0.195-0.195-0.195-0.512,0-0.707l1.5-1.5
			c0.195-0.195,0.512-0.195,0.707,0s0.195,0.512,0,0.707l-1.5,1.5C17.255,26.451,17.127,26.5,16.999,26.5z"/>
	</g>
</g>
</svg>
