<?xml version="1.0" encoding="iso-8859-1"?>
<!-- Generator: Adobe Illustrator 19.0.0, SVG Export Plug-In . SVG Version: 6.00 Build 0)  -->
<svg version="1.1" id="Layer_1" xmlns="http://www.w3.org/2000/svg" xmlns:xlink="http://www.w3.org/1999/xlink" x="0px" y="0px"
	 viewBox="0 0 30 30" style="enable-background:new 0 0 30 30;" xml:space="preserve">
<g id="Bulbasaur_1_">
	<g>
		<path d="M17.547,29.984h-5.092c-5.515,0-11.954-3.131-11.954-11.955c0-4.16,2.504-6.808,4.925-9.369
			c2.096-2.217,4.075-4.311,4.075-7.177c0-0.191,0.109-0.365,0.28-0.449c0.173-0.083,0.376-0.063,0.527,0.055
			c0.423,0.33,3.468,2.752,4.688,5.055c1.215-2.319,4.273-4.729,4.698-5.057c0.153-0.116,0.355-0.135,0.526-0.053
			c0.171,0.084,0.279,0.258,0.279,0.449c0,2.914,1.989,5.01,4.096,7.229c2.411,2.541,4.904,5.168,4.904,9.316
			C29.501,26.853,23.062,29.984,17.547,29.984z M10.431,2.484c-0.394,2.755-2.365,4.84-4.278,6.864
			c-2.287,2.419-4.651,4.92-4.651,8.682c0,8.085,5.901,10.955,10.954,10.955h5.092c5.053,0,10.954-2.869,10.954-10.955
			c0-3.75-2.354-6.229-4.63-8.628c-1.927-2.03-3.912-4.122-4.302-6.921c-1.573,1.339-4.068,3.796-4.068,5.367
			c0,0.276-0.224,0.5-0.5,0.5s-0.5-0.224-0.5-0.5C14.501,6.302,12.004,3.834,10.431,2.484z"/>
	</g>
	<g>
		<path d="M15.001,12.484c-0.276,0-0.5-0.224-0.5-0.5v-4.25c0-0.276,0.224-0.5,0.5-0.5s0.5,0.224,0.5,0.5v4.25
			C15.501,12.26,15.277,12.484,15.001,12.484z"/>
	</g>
	<g>
		<path d="M17.501,4.142c-0.276,0-0.5-0.224-0.5-0.5c0-0.415-0.982-1.542-2-2.46c-1.018,0.918-2,2.045-2,2.46
			c0,0.276-0.224,0.5-0.5,0.5s-0.5-0.224-0.5-0.5c0-1.143,2.049-2.973,2.676-3.506c0.188-0.159,0.461-0.159,0.648,0
			c0.627,0.533,2.676,2.363,2.676,3.506C18.001,3.919,17.777,4.142,17.501,4.142z"/>
	</g>
	<g>
		<path d="M15.001,29.984c-5.859,0-9.5-3.045-9.5-7.948c0-1.54,0.473-2.887,0.931-4.19l0.137-0.394
			c-0.875-3.167,0.205-6.027,0.252-6.148c0.076-0.198,0.271-0.35,0.482-0.319c0.104,0.003,2.443,0.093,4.164,1.449
			c2.289-1.087,4.778-1.085,7.067-0.004c1.722-1.356,4.062-1.442,4.166-1.446c0.21-0.009,0.404,0.122,0.481,0.32
			c0.047,0.121,1.123,2.973,0.256,6.133l0.183,0.539c0.434,1.262,0.881,2.567,0.881,4.06C24.501,26.939,20.86,29.984,15.001,29.984z
			 M7.533,17.19c0.067,0.122,0.091,0.268,0.046,0.399l-0.204,0.588c-0.449,1.28-0.874,2.489-0.874,3.859
			c0,4.351,3.178,6.948,8.5,6.948s8.5-2.598,8.5-6.948c0-1.326-0.401-2.497-0.826-3.735l-0.233-0.688
			c-0.028-0.087-0.033-0.18-0.013-0.269c0.666-2.323,0.175-4.499-0.066-5.327c-0.715,0.083-2.313,0.376-3.42,1.378
			c-0.156,0.139-0.38,0.17-0.565,0.073c-2.182-1.128-4.571-1.129-6.751,0.004c-0.183,0.096-0.41,0.068-0.566-0.073
			c-1.112-1.007-2.707-1.3-3.42-1.383C7.4,12.832,6.915,14.954,7.533,17.19z"/>
	</g>
	<g>
		<path d="M9.402,21.986c-0.187,0-0.364-0.104-0.45-0.283c-0.295-0.612-0.451-1.336-0.451-2.094c0-1.918,1.398-3.625,2.5-3.625
			c1.125,0,2.5,1.673,2.5,3.625c0,0.758-0.155,1.481-0.45,2.092c-0.083,0.173-0.258,0.283-0.45,0.283H9.454
			C9.437,21.985,9.419,21.986,9.402,21.986z M9.732,20.984h2.537c0.152-0.414,0.231-0.883,0.231-1.375
			c0-1.489-1.065-2.625-1.5-2.625c-0.362,0-1.5,1.089-1.5,2.625C9.501,20.101,9.58,20.57,9.732,20.984z"/>
	</g>
	<g>
		<path d="M15.001,26.984c-0.097,0-0.193-0.028-0.277-0.084l-1.374-0.916h-1.831c-0.467,0-0.922-0.2-1.249-0.549l-0.615-0.591
			c-0.199-0.191-0.205-0.508-0.014-0.707s0.51-0.204,0.707-0.014l0.634,0.609c0.159,0.168,0.343,0.251,0.537,0.251h1.982
			c0.099,0,0.195,0.029,0.277,0.084l1.223,0.815l1.223-0.815c0.082-0.055,0.179-0.084,0.277-0.084h1.982
			c0.194,0,0.378-0.083,0.519-0.232l0.652-0.628c0.198-0.19,0.517-0.186,0.707,0.014c0.191,0.199,0.186,0.516-0.014,0.707
			l-0.634,0.609c-0.309,0.33-0.764,0.53-1.23,0.53h-1.831l-1.374,0.916C15.194,26.956,15.098,26.984,15.001,26.984z"/>
	</g>
	<g>
		<circle cx="11.001" cy="20.484" r="1"/>
	</g>
	<g>
		<path d="M17.402,21.986c-0.187,0-0.364-0.104-0.45-0.283c-0.295-0.612-0.451-1.336-0.451-2.094c0-1.918,1.398-3.625,2.5-3.625
			c1.125,0,2.5,1.673,2.5,3.625c0,0.758-0.155,1.481-0.45,2.092c-0.083,0.173-0.258,0.283-0.45,0.283h-3.147
			C17.437,21.985,17.419,21.986,17.402,21.986z M17.732,20.984h2.537c0.152-0.414,0.231-0.883,0.231-1.375
			c0-1.489-1.065-2.625-1.5-2.625c-0.362,0-1.5,1.089-1.5,2.625C17.501,20.101,17.58,20.57,17.732,20.984z"/>
	</g>
	<g>
		<circle cx="19.001" cy="20.484" r="1"/>
	</g>
</g>
</svg>
