<?xml version="1.0" encoding="iso-8859-1"?>
<!-- Generator: Adobe Illustrator 19.0.0, SVG Export Plug-In . SVG Version: 6.00 Build 0)  -->
<svg version="1.1" id="Layer_1" xmlns="http://www.w3.org/2000/svg" xmlns:xlink="http://www.w3.org/1999/xlink" x="0px" y="0px"
	 viewBox="0 0 30 30" style="enable-background:new 0 0 30 30;" xml:space="preserve">
<g id="Charmander_2_">
	<g>
		<path d="M15,30C7.872,30,0.5,25.568,0.5,18.152c0-0.644,0.389-1.113,0.732-1.527c0.29-0.35,0.54-0.652,0.54-0.995
			C1.772,7.157,7.83,0,15,0s13.228,7.158,13.228,15.63c0,0.323,0.262,0.645,0.539,0.986c0.344,0.423,0.733,0.903,0.733,1.536
			C29.5,25.568,22.128,30,15,30z M15,1C8.372,1,2.772,7.7,2.772,15.63c0,0.703-0.427,1.218-0.771,1.632
			c-0.27,0.325-0.502,0.606-0.502,0.89c0,6.79,6.864,10.848,13.5,10.848s13.5-4.058,13.5-10.848c0-0.278-0.247-0.583-0.51-0.905
			c-0.357-0.44-0.763-0.939-0.763-1.617C27.228,7.7,21.628,1,15,1z"/>
	</g>
	<g>
		<path d="M10.579,18L10.579,18H6.421c-0.223,0-0.418-0.146-0.479-0.36c-0.289-0.988-0.441-2.148-0.441-3.354
			c0-3.583,1.29-6.285,3-6.285s3,2.702,3,6.285c0,1.196-0.152,2.356-0.44,3.354C10.998,17.853,10.802,18,10.579,18z M6.805,17h3.39
			c0.2-0.824,0.306-1.754,0.306-2.714c0-3.025-1.056-5.285-2-5.285s-2,2.26-2,5.285C6.5,15.253,6.604,16.183,6.805,17z"/>
	</g>
	<g>
		<path d="M15,27c-4.523,0-9.915-2.172-11.469-6.325c-0.057-0.154-0.035-0.326,0.058-0.46C3.683,20.081,3.836,20,4,20
			c3.58,0,8.493,0.634,10.184,0.924c0.541,0.092,1.091,0.092,1.632-0.001C17.979,20.551,22.712,20,26.001,20
			c0.164,0,0.317,0.081,0.411,0.215c0.093,0.135,0.114,0.307,0.058,0.46C24.915,24.828,19.523,27,15,27z M4.773,21.009
			C6.485,24.289,11.085,26,15,26s8.515-1.711,10.227-4.991c-3.439,0.078-7.705,0.635-9.241,0.899
			c-0.654,0.113-1.316,0.114-1.971,0.001C12.47,21.645,8.192,21.088,4.773,21.009z"/>
	</g>
	<g>
		<path d="M10,24c-0.182,0-0.35-0.099-0.438-0.258l-1.5-2.711c-0.134-0.242-0.046-0.546,0.195-0.68
			c0.242-0.134,0.546-0.046,0.68,0.195l1.045,1.889l0.766-1.497c0.126-0.246,0.427-0.342,0.673-0.218
			c0.246,0.126,0.344,0.427,0.218,0.673l-1.193,2.334c-0.084,0.165-0.252,0.27-0.438,0.272C10.006,24,10.003,24,10,24z"/>
	</g>
	<g>
		<path d="M20,24c-0.003,0-0.006,0-0.008,0c-0.186-0.003-0.354-0.108-0.438-0.272l-1.193-2.334
			c-0.126-0.246-0.028-0.547,0.218-0.673c0.247-0.124,0.547-0.028,0.673,0.218l0.766,1.497l1.045-1.889
			c0.134-0.242,0.437-0.329,0.68-0.195c0.241,0.134,0.329,0.438,0.195,0.68l-1.5,2.711C20.35,23.901,20.182,24,20,24z"/>
	</g>
	<g>
		<circle cx="12" cy="19.5" r="0.5"/>
	</g>
	<g>
		<circle cx="18" cy="19.5" r="0.5"/>
	</g>
	<g>
		<circle cx="9.5" cy="11.5" r="1"/>
	</g>
	<g>
		<path d="M23.579,18L23.579,18h-4.158c-0.223,0-0.418-0.146-0.479-0.36c-0.289-0.988-0.441-2.148-0.441-3.354
			c0-3.583,1.29-6.285,3-6.285s3,2.702,3,6.285c0,1.196-0.152,2.356-0.44,3.354C23.998,17.853,23.802,18,23.579,18z M19.805,17h3.39
			c0.2-0.824,0.306-1.754,0.306-2.714c0-3.025-1.056-5.285-2-5.285s-2,2.26-2,5.285C19.5,15.253,19.604,16.183,19.805,17z"/>
	</g>
	<g>
		<circle cx="20.5" cy="11.5" r="1"/>
	</g>
</g>
</svg>
