<?xml version="1.0" encoding="iso-8859-1"?>
<!-- Generator: Adobe Illustrator 19.0.0, SVG Export Plug-In . SVG Version: 6.00 Build 0)  -->
<svg version="1.1" id="Layer_1" xmlns="http://www.w3.org/2000/svg" xmlns:xlink="http://www.w3.org/1999/xlink" x="0px" y="0px"
	 viewBox="0 0 30 30" style="enable-background:new 0 0 30 30;" xml:space="preserve">
<g id="Charizard_2_">
	<g>
		<path d="M18.286,30.001c-0.724,0-1.179-0.128-1.619-0.252c-0.453-0.127-0.881-0.248-1.668-0.248c-0.76,0-1.11,0.117-1.48,0.24
			c-0.384,0.128-0.782,0.26-1.52,0.26c-1.308,0-1.85-1.924-1.907-2.143L9.03,23.745c-0.026-0.128-0.064-0.221-0.12-0.305
			l-1.798-2.705c-0.446-0.672-0.605-1.478-0.447-2.268l0.828-6.45l-1.95-9.886C5.429,1.618,5.555,1.077,5.892,0.658
			c0.335-0.418,0.834-0.658,1.37-0.658H7.38c0.704,0,1.338,0.419,1.615,1.067l3.32,7.933h5.377l3.313-7.923
			c0.279-0.652,0.913-1.071,1.617-1.071h0.118c0.535,0,1.035,0.24,1.37,0.658c0.336,0.419,0.462,0.96,0.346,1.485l-1.951,9.868
			l0.841,6.484c0.152,0.757-0.006,1.563-0.453,2.234l-1.798,2.706c-0.056,0.084-0.094,0.177-0.113,0.275l-1.068,4.139
			C19.904,28.01,19.656,30.001,18.286,30.001z M14.999,28.501c0.925,0,1.463,0.152,1.939,0.285c0.409,0.115,0.762,0.215,1.348,0.215
			c0.352,0,0.599-0.876,0.647-1.323l1.075-4.182c0.038-0.199,0.125-0.414,0.255-0.608l1.798-2.705c0.299-0.45,0.405-0.989,0.3-1.519
			l-0.857-6.598c-0.007-0.054-0.005-0.108,0.005-0.162l1.969-9.959c0.053-0.238-0.001-0.473-0.147-0.654
			c-0.145-0.18-0.359-0.283-0.59-0.283h-0.118c-0.303,0-0.576,0.181-0.696,0.461l-3.44,8.226c-0.079,0.185-0.26,0.306-0.462,0.306
			h-6.043c-0.202,0-0.383-0.121-0.461-0.307L8.075,1.458C7.957,1.182,7.684,1.001,7.381,1.001H7.263c-0.23,0-0.445,0.104-0.59,0.283
			C6.527,1.466,6.473,1.7,6.524,1.927l1.968,9.977c0.01,0.053,0.012,0.107,0.005,0.161L7.653,18.63
			c-0.111,0.563-0.005,1.103,0.294,1.553l1.798,2.705c0.129,0.195,0.217,0.409,0.262,0.638l1.055,4.081
			c0.152,0.582,0.565,1.394,0.937,1.394c0.576,0,0.867-0.097,1.204-0.209C13.613,28.656,14.077,28.501,14.999,28.501z"/>
	</g>
	<g>
		<path d="M12.999,20.001h-3c-0.157,0-0.304-0.073-0.398-0.198c-0.095-0.125-0.125-0.287-0.083-0.437l0.75-2.667
			c0-0.002,0.001-0.003,0.001-0.005l-0.67-0.894c-0.166-0.221-0.121-0.534,0.1-0.7c0.221-0.166,0.534-0.122,0.7,0.1l3,4
			c0.114,0.151,0.132,0.354,0.047,0.523C13.361,19.894,13.188,20.001,12.999,20.001z M10.659,19.001h1.34l-0.975-1.299
			L10.659,19.001z"/>
	</g>
	<g>
		<path d="M19.999,20.001h-3c-0.189,0-0.362-0.107-0.447-0.276c-0.084-0.169-0.066-0.372,0.047-0.523l3-4
			c0.166-0.221,0.48-0.265,0.7-0.1c0.221,0.166,0.266,0.479,0.1,0.7l-0.67,0.894c0,0.001,0.001,0.003,0.001,0.005l0.75,2.667
			c0.042,0.15,0.012,0.313-0.083,0.437C20.303,19.928,20.156,20.001,19.999,20.001z M17.999,19.001h1.34l-0.365-1.299L17.999,19.001
			z"/>
	</g>
	<g>
		<path d="M13.499,27.001c-0.095,0-0.191-0.027-0.277-0.084l-1.5-1c-0.23-0.153-0.292-0.463-0.139-0.693
			c0.152-0.23,0.462-0.292,0.693-0.139l1.5,1c0.23,0.153,0.292,0.463,0.139,0.693C13.819,26.923,13.66,27.001,13.499,27.001z"/>
	</g>
	<g>
		<path d="M16.499,27.001c-0.162,0-0.32-0.078-0.417-0.223c-0.153-0.23-0.091-0.54,0.139-0.693l1.5-1
			c0.229-0.154,0.54-0.091,0.693,0.139c0.153,0.23,0.091,0.54-0.139,0.693l-1.5,1C16.691,26.974,16.595,27.001,16.499,27.001z"/>
	</g>
</g>
</svg>
