<?xml version="1.0" encoding="iso-8859-1"?>
<!-- Generator: Adobe Illustrator 19.0.0, SVG Export Plug-In . SVG Version: 6.00 Build 0)  -->
<svg version="1.1" id="Layer_1" xmlns="http://www.w3.org/2000/svg" xmlns:xlink="http://www.w3.org/1999/xlink" x="0px" y="0px"
	 viewBox="0 0 30 30" style="enable-background:new 0 0 30 30;" xml:space="preserve">
<g id="Clefairy_1_">
	<g>
		<path d="M8.428,6.039c-0.14,0-0.278-0.058-0.377-0.172C7.869,5.659,7.892,5.343,8.1,5.162c0.36-0.314,0.744-0.607,1.142-0.873
			C9.47,4.136,9.781,4.198,9.935,4.427c0.153,0.23,0.091,0.541-0.139,0.694C9.435,5.362,9.084,5.63,8.756,5.915
			C8.661,5.998,8.544,6.039,8.428,6.039z"/>
	</g>
	<g>
		<path d="M4.287,15.816c-0.272,0-0.495-0.218-0.5-0.491L3.783,15c0-1.102,0.13-2.197,0.386-3.256
			c0.065-0.268,0.335-0.435,0.604-0.368c0.269,0.065,0.434,0.335,0.369,0.604c-0.238,0.981-0.358,1.998-0.358,3.021l0.004,0.307
			c0.005,0.276-0.215,0.504-0.49,0.509C4.293,15.816,4.29,15.816,4.287,15.816z"/>
	</g>
	<g>
		<path d="M15.001,27c-1.367,0-2.704-0.271-3.974-0.805c-0.254-0.107-0.374-0.4-0.267-0.655s0.398-0.375,0.655-0.267
			c2.302,0.969,4.905,0.964,7.202-0.014c0.256-0.108,0.549,0.01,0.656,0.264c0.108,0.254-0.01,0.548-0.264,0.656
			C17.731,26.724,16.383,27,15.001,27z"/>
	</g>
	<g>
		<path d="M25.715,15.816c-0.003,0-0.006,0-0.01,0c-0.275-0.005-0.495-0.233-0.49-0.509L25.219,15c0-1.031-0.122-2.052-0.361-3.037
			c-0.065-0.269,0.099-0.539,0.367-0.604c0.266-0.065,0.538,0.1,0.604,0.367c0.26,1.062,0.391,2.164,0.391,3.274l-0.004,0.326
			C26.21,15.599,25.987,15.816,25.715,15.816z"/>
	</g>
	<g>
		<path d="M21.578,6.042c-0.117,0-0.233-0.041-0.328-0.123c-0.331-0.288-0.683-0.557-1.045-0.798
			c-0.229-0.153-0.292-0.463-0.139-0.693c0.154-0.23,0.466-0.291,0.693-0.139c0.397,0.265,0.783,0.56,1.146,0.876
			c0.209,0.181,0.23,0.497,0.049,0.706C21.856,5.984,21.718,6.042,21.578,6.042z"/>
	</g>
	<g>
		<path d="M20.491,7c-0.02,0-0.039-0.001-0.059-0.003c-0.274-0.032-0.471-0.28-0.439-0.554C20.006,6.336,20,6.232,19.996,6.125
			L19.99,5.9c0-2.702-2.24-4.9-4.994-4.9s-4.995,2.198-4.995,4.9c0,0.276-0.224,0.5-0.5,0.5s-0.5-0.224-0.5-0.5
			c0-3.253,2.689-5.9,5.995-5.9s5.994,2.646,5.994,5.9l0.005,0.186c0.006,0.158,0.011,0.313-0.008,0.472
			C20.957,6.812,20.741,7,20.491,7z"/>
	</g>
	<g>
		<path d="M13.501,10.5c-2.481,0-4.5-2.019-4.5-4.5c0-0.276,0.224-0.5,0.5-0.5s0.5,0.224,0.5,0.5c0,1.93,1.57,3.5,3.5,3.5
			s3.5-1.57,3.5-3.5c0-0.276,0.224-0.5,0.5-0.5s0.5,0.224,0.5,0.5C18.001,8.481,15.982,10.5,13.501,10.5z"/>
	</g>
	<g>
		<path d="M17.501,6.5c-0.276,0-0.5-0.224-0.5-0.5c0-0.827-0.673-1.5-1.5-1.5s-1.5,0.673-1.5,1.5c0,0.276-0.224,0.5-0.5,0.5
			s-0.5-0.224-0.5-0.5c0-1.378,1.121-2.5,2.5-2.5s2.5,1.122,2.5,2.5C18.001,6.276,17.777,6.5,17.501,6.5z"/>
	</g>
	<g>
		<path d="M4.283,13.609c-0.146,0-0.291-0.064-0.391-0.188C0.037,8.611,0,0.828,0,0.499C0,0.361,0.057,0.23,0.157,0.136
			s0.237-0.138,0.372-0.135c0.187,0.011,4.623,0.307,9.109,3.891c0.216,0.172,0.251,0.487,0.078,0.703
			C9.543,4.812,9.23,4.847,9.012,4.674C5.674,2.007,2.304,1.262,1.016,1.066C1.101,2.93,1.614,8.981,4.671,12.797
			c0.172,0.215,0.138,0.53-0.078,0.703C4.504,13.573,4.394,13.609,4.283,13.609z"/>
	</g>
	<g>
		<path d="M25.719,13.609c-0.11,0-0.221-0.036-0.313-0.11c-0.216-0.172-0.25-0.487-0.078-0.703c3.058-3.816,3.57-9.867,3.655-11.731
			c-1.288,0.196-4.658,0.94-7.996,3.608c-0.217,0.173-0.53,0.138-0.703-0.079c-0.173-0.216-0.138-0.53,0.078-0.703
			C24.847,0.307,29.285,0.011,29.47,0c0.141-0.002,0.272,0.041,0.372,0.135c0.101,0.094,0.157,0.226,0.157,0.363
			c0,0.329-0.038,8.112-3.892,12.922C26.01,13.545,25.865,13.609,25.719,13.609z"/>
	</g>
	<g>
		<path d="M12.501,15c-0.276,0-0.5-0.224-0.5-0.5v-1c0-0.276,0.224-0.5,0.5-0.5s0.5,0.224,0.5,0.5v1
			C13.001,14.776,12.777,15,12.501,15z"/>
	</g>
	<g>
		<path d="M17.501,15.042c-0.276,0-0.5-0.224-0.5-0.5v-1c0-0.276,0.224-0.5,0.5-0.5s0.5,0.224,0.5,0.5v1
			C18.001,14.818,17.777,15.042,17.501,15.042z"/>
	</g>
	<g>
		<path d="M15.012,18.013c-0.847,0-1.696-0.199-2.29-0.598c-0.229-0.154-0.29-0.465-0.136-0.694
			c0.155-0.229,0.467-0.289,0.694-0.136c0.848,0.57,2.614,0.573,3.437,0.004c0.225-0.156,0.538-0.101,0.695,0.126
			s0.101,0.539-0.127,0.696C16.706,17.812,15.86,18.013,15.012,18.013z"/>
	</g>
	<g>
		<path d="M27.609,9.826c-0.228,0-0.433-0.156-0.486-0.386c-0.01-0.039-0.934-3.867-3.656-6.703
			c-0.191-0.199-0.186-0.516,0.014-0.707c0.2-0.189,0.517-0.186,0.707,0.015c2.918,3.039,3.87,7,3.909,7.167
			c0.063,0.269-0.104,0.538-0.373,0.601C27.686,9.822,27.647,9.826,27.609,9.826z"/>
	</g>
	<g>
		<path d="M2.393,9.826c-0.037,0-0.075-0.004-0.114-0.013C2.01,9.75,1.843,9.481,1.906,9.212c0.039-0.167,0.991-4.128,3.909-7.167
			c0.191-0.2,0.508-0.204,0.707-0.015c0.199,0.191,0.205,0.508,0.014,0.707C3.807,5.58,2.89,9.402,2.881,9.44
			C2.825,9.67,2.62,9.826,2.393,9.826z"/>
	</g>
	<g>
		<path d="M23.196,21.174c-0.198,0-0.386-0.119-0.464-0.314c-0.103-0.256,0.021-0.547,0.278-0.65l4.292-1.717
			C28.333,18.081,29,17.096,29,15.985c0-0.236-0.106-0.455-0.292-0.6c-0.187-0.146-0.429-0.195-0.653-0.139l-3.478,0.869
			c-0.272,0.065-0.54-0.096-0.606-0.364c-0.066-0.268,0.097-0.539,0.364-0.606l3.478-0.869c0.527-0.134,1.08-0.016,1.511,0.32
			C29.753,14.932,30,15.438,30,15.984c0,1.523-0.913,2.872-2.327,3.437l-4.292,1.717C23.321,21.163,23.258,21.174,23.196,21.174z"/>
	</g>
	<g>
		<path d="M6.806,21.174c-0.062,0-0.125-0.011-0.186-0.036l-4.292-1.717c-1.414-0.565-2.327-1.914-2.327-3.437
			c0-0.546,0.247-1.052,0.677-1.388c0.431-0.336,0.982-0.453,1.511-0.32l3.478,0.869c0.268,0.067,0.431,0.338,0.364,0.606
			c-0.066,0.268-0.336,0.429-0.606,0.364l-3.478-0.869c-0.226-0.056-0.467-0.007-0.653,0.139c-0.186,0.145-0.292,0.364-0.292,0.6
			c0,1.111,0.667,2.096,1.698,2.508l4.292,1.717c0.257,0.103,0.381,0.394,0.278,0.65C7.191,21.055,7.004,21.174,6.806,21.174z"/>
	</g>
	<g>
		<path d="M9.809,30H9.018c-0.696,0-1.303-0.438-1.665-1.2c-1.75-3.701-2.878-8.441-2.925-8.642
			c-0.063-0.269,0.103-0.538,0.371-0.602c0.281-0.063,0.539,0.104,0.602,0.372c0.012,0.048,1.151,4.84,2.856,8.443
			c0.111,0.234,0.357,0.628,0.761,0.628h0.791c0.29,0,0.551-0.161,0.681-0.421l0.895-2.263c0.103-0.257,0.393-0.383,0.649-0.281
			c0.256,0.102,0.382,0.392,0.28,0.649l-0.912,2.303C11.083,29.627,10.48,30,9.809,30z"/>
	</g>
	<g>
		<path d="M20.984,30h-0.791c-0.671,0-1.274-0.373-1.575-0.973l-0.93-2.343c-0.102-0.257,0.024-0.547,0.28-0.649
			s0.547,0.024,0.649,0.281l0.912,2.303C19.641,28.839,19.902,29,20.192,29h0.791c0.403,0,0.649-0.394,0.761-0.629
			c1.706-3.605,2.845-8.395,2.856-8.442c0.063-0.268,0.33-0.435,0.601-0.372c0.27,0.063,0.436,0.333,0.372,0.602
			c-0.047,0.2-1.175,4.94-2.925,8.641C22.287,29.562,21.681,30,20.984,30z"/>
	</g>
</g>
</svg>
