<?xml version="1.0" encoding="iso-8859-1"?>
<!-- Generator: Adobe Illustrator 19.0.0, SVG Export Plug-In . SVG Version: 6.00 Build 0)  -->
<svg version="1.1" id="Layer_1" xmlns="http://www.w3.org/2000/svg" xmlns:xlink="http://www.w3.org/1999/xlink" x="0px" y="0px"
	 viewBox="0 0 30 30" style="enable-background:new 0 0 30 30;" xml:space="preserve">
<g id="Dugtrio_1_">
	<g>
		<path d="M29.001,30h-28c-0.276,0-0.5-0.224-0.5-0.5v-1.395C0.501,26.393,1.894,25,3.605,25h22.789
			c1.712,0,3.105,1.393,3.105,3.105V29.5C29.501,29.776,29.277,30,29.001,30z M1.501,29h27v-0.895c0-1.161-0.944-2.105-2.105-2.105
			H3.607c-1.161,0-2.105,0.944-2.105,2.105V29H1.501z"/>
	</g>
	<g>
		<path d="M26.001,26h-11c-0.276,0-0.5-0.224-0.5-0.5V18c0-3.309,2.691-6,6-6s6,2.691,6,6v7.5C26.501,25.776,26.277,26,26.001,26z
			 M15.501,25h10v-7c0-2.757-2.243-5-5-5s-5,2.243-5,5V25z"/>
	</g>
	<g>
		<path d="M15.001,26h-11c-0.276,0-0.5-0.224-0.5-0.5V13.286C3.501,9.82,6.191,7,9.501,7s6,2.82,6,6.286V25.5
			C15.501,25.776,15.277,26,15.001,26z M4.501,25h10V13.286c0-2.915-2.243-5.286-5-5.286s-5,2.371-5,5.286V25z"/>
	</g>
	<g>
		<path d="M23.001,13.601c-0.276,0-0.5-0.224-0.5-0.5V5.984c0-2.748-2.243-4.984-5-4.984s-5,2.236-5,4.984v2.147
			c0,0.276-0.224,0.5-0.5,0.5s-0.5-0.224-0.5-0.5V5.984c0-3.299,2.691-5.984,6-5.984s6,2.685,6,5.984v7.117
			C23.501,13.377,23.277,13.601,23.001,13.601z"/>
	</g>
	<g>
		<path d="M10.501,18c-0.967,0-2-0.263-2-1s1.033-1,2-1s2,0.263,2,1S11.467,18,10.501,18z"/>
	</g>
	<g>
		<path d="M8.001,14.937c-0.276,0-0.5-0.224-0.5-0.5V13c0-0.276,0.224-0.5,0.5-0.5s0.5,0.224,0.5,0.5v1.438
			C8.501,14.714,8.277,14.937,8.001,14.937z"/>
	</g>
	<g>
		<path d="M13.001,15c-0.276,0-0.5-0.224-0.5-0.5V13c0-0.276,0.224-0.5,0.5-0.5s0.5,0.224,0.5,0.5v1.5
			C13.501,14.776,13.277,15,13.001,15z"/>
	</g>
	<g>
		<path d="M21.501,23c-0.967,0-2-0.263-2-1s1.033-1,2-1s2,0.263,2,1S22.467,23,21.501,23z"/>
	</g>
	<g>
		<path d="M19.001,19.937c-0.276,0-0.5-0.224-0.5-0.5V18c0-0.276,0.224-0.5,0.5-0.5s0.5,0.224,0.5,0.5v1.438
			C19.501,19.714,19.277,19.937,19.001,19.937z"/>
	</g>
	<g>
		<path d="M24.001,20c-0.276,0-0.5-0.224-0.5-0.5V18c0-0.276,0.224-0.5,0.5-0.5s0.5,0.224,0.5,0.5v1.5
			C24.501,19.776,24.277,20,24.001,20z"/>
	</g>
	<g>
		<path d="M18.501,11c-0.967,0-2-0.263-2-1s1.033-1,2-1s2,0.263,2,1S19.467,11,18.501,11z"/>
	</g>
	<g>
		<path d="M16.001,7.937c-0.276,0-0.5-0.224-0.5-0.5V6c0-0.276,0.224-0.5,0.5-0.5s0.5,0.224,0.5,0.5v1.438
			C16.501,7.714,16.277,7.937,16.001,7.937z"/>
	</g>
	<g>
		<path d="M21.001,8c-0.276,0-0.5-0.224-0.5-0.5V6c0-0.276,0.224-0.5,0.5-0.5s0.5,0.224,0.5,0.5v1.5C21.501,7.776,21.277,8,21.001,8
			z"/>
	</g>
</g>
</svg>
