<?xml version="1.0" encoding="iso-8859-1"?>
<!-- Generator: Adobe Illustrator 19.0.0, SVG Export Plug-In . SVG Version: 6.00 Build 0)  -->
<svg version="1.1" id="Layer_1" xmlns="http://www.w3.org/2000/svg" xmlns:xlink="http://www.w3.org/1999/xlink" x="0px" y="0px"
	 viewBox="0 0 30 30" style="enable-background:new 0 0 30 30;" xml:space="preserve">
<g id="Eevee_2_">
	<g>
		<path d="M13.008,29.994c-0.102,0-0.203-0.031-0.29-0.093c-0.213-0.151-5.21-3.746-5.21-6.787c0-0.276,0.224-0.5,0.5-0.5
			s0.5,0.224,0.5,0.5c0,1.962,3.016,4.641,4.5,5.76c1.484-1.12,4.5-3.8,4.5-5.76c0-0.276,0.224-0.5,0.5-0.5
			c0.276,0,0.5,0.224,0.5,0.5c0,3.042-4.997,6.636-5.21,6.787C13.211,29.963,13.11,29.994,13.008,29.994z"/>
	</g>
	<g>
		<path d="M6.758,27.442c-0.114,0-0.227-0.039-0.317-0.114C6.28,27.196,2.508,24.061,2.508,21.2c0-3.187,2.34-5.853,5.444-6.204
			c0.278-0.033,0.522,0.167,0.553,0.441c0.031,0.274-0.167,0.522-0.441,0.553c-2.598,0.293-4.556,2.533-4.556,5.209
			c0,1.856,2.248,4.207,3.353,5.173c0.402-0.149,1.218-0.466,2.149-0.908c0.25-0.119,0.548-0.012,0.666,0.237
			c0.119,0.25,0.012,0.548-0.237,0.666c-1.371,0.651-2.472,1.03-2.519,1.046C6.868,27.433,6.813,27.442,6.758,27.442z"/>
	</g>
	<g>
		<path d="M19.258,27.442c-0.055,0-0.109-0.009-0.162-0.027c-0.046-0.016-1.147-0.396-2.518-1.046
			c-0.25-0.118-0.356-0.417-0.237-0.666s0.416-0.356,0.666-0.237c0.948,0.45,1.776,0.77,2.17,0.916
			c0.75-0.572,3.331-2.719,3.331-5.181c0-2.677-1.958-4.917-4.556-5.209c-0.274-0.031-0.472-0.279-0.441-0.553
			s0.272-0.475,0.553-0.441c3.104,0.351,5.444,3.017,5.444,6.204c0,3.396-3.805,6.043-3.967,6.154
			C19.456,27.412,19.358,27.442,19.258,27.442z"/>
	</g>
	<g>
		<path d="M12.997,20.005c-0.348,0-0.695-0.043-1.033-0.129l-2.197-0.561c-1.336-0.341-2.27-1.559-2.27-2.962v-5.785
			c0-0.466,0.154-0.848,0.325-1.229c0.113-0.251,0.409-0.363,0.661-0.251c0.252,0.113,0.365,0.409,0.251,0.661
			c-0.134,0.3-0.237,0.551-0.237,0.82v5.785c0,0.945,0.624,1.765,1.517,1.993l2.197,0.561c0.515,0.131,1.058,0.131,1.572,0
			l2.197-0.561c0.893-0.23,1.517-1.05,1.517-1.995v-5.785c0-0.276,0.224-0.5,0.5-0.5c0.276,0,0.5,0.224,0.5,0.5v5.785
			c0,1.403-0.934,2.621-2.27,2.962l-2.197,0.561C13.692,19.962,13.345,20.005,12.997,20.005z"/>
	</g>
	<g>
		<path d="M10.997,14.005c-0.276,0-0.5-0.224-0.5-0.5v-1c0-0.276,0.224-0.5,0.5-0.5s0.5,0.224,0.5,0.5v1
			C11.497,13.781,11.273,14.005,10.997,14.005z"/>
	</g>
	<g>
		<path d="M14.997,14.005c-0.276,0-0.5-0.224-0.5-0.5v-1c0-0.276,0.224-0.5,0.5-0.5s0.5,0.224,0.5,0.5v1
			C15.497,13.781,15.273,14.005,14.997,14.005z"/>
	</g>
	<g>
		<path d="M8.278,10.042c-0.124,0-0.248-0.045-0.344-0.137C3.861,6.037,2.42,0.781,2.507,0.398c0.039-0.172,0.168-0.314,0.335-0.369
			c0.134-0.042,0.279-0.028,0.4,0.041c0.194,0.11,4.785,2.747,7.204,7.716c0.121,0.248,0.018,0.547-0.231,0.668
			C9.967,8.575,9.668,8.472,9.547,8.223C7.964,4.97,5.32,2.733,3.84,1.662c0.616,1.733,2.09,4.959,4.782,7.516
			c0.2,0.19,0.208,0.507,0.019,0.707C8.542,9.99,8.411,10.042,8.278,10.042z"/>
	</g>
	<g>
		<path d="M17.997,11.005c-0.183,0-0.359-0.101-0.447-0.275c-0.124-0.247-0.024-0.547,0.222-0.671
			C22.141,7.86,24.523,6.09,25.68,5.09c-1.396,0.236-4.066,0.994-8.446,3.355c-0.245,0.131-0.546,0.041-0.677-0.203
			s-0.041-0.546,0.203-0.677c7.438-4.01,10.212-3.571,10.326-3.552c0.173,0.031,0.316,0.151,0.378,0.315
			c0.063,0.164,0.034,0.349-0.075,0.487c-0.081,0.103-2.071,2.566-9.168,6.137C18.15,10.988,18.073,11.005,17.997,11.005z"/>
	</g>
	<g>
		<path d="M9.997,8.505c-0.072,0-0.146-0.016-0.215-0.049C9.533,8.337,9.428,8.038,9.547,7.789l0.579-1.21
			c0.062-0.129,0.175-0.225,0.313-0.265c0.136-0.041,0.284-0.019,0.405,0.058l1.454,0.916l0.358-0.716
			c0.063-0.127,0.178-0.221,0.314-0.258c0.136-0.038,0.283-0.016,0.402,0.061l1.435,0.916l0.379-0.726
			c0.071-0.136,0.201-0.232,0.353-0.26c0.15-0.027,0.306,0.015,0.422,0.117l1.369,1.21c0.207,0.183,0.227,0.499,0.043,0.706
			c-0.182,0.207-0.498,0.227-0.706,0.043l-0.89-0.787l-0.335,0.644c-0.065,0.124-0.179,0.215-0.314,0.251
			c-0.137,0.038-0.28,0.013-0.398-0.062l-1.427-0.911l-0.357,0.713c-0.063,0.126-0.177,0.22-0.313,0.258
			c-0.135,0.039-0.282,0.017-0.401-0.059l-1.446-0.911L10.45,8.221C10.362,8.401,10.183,8.505,9.997,8.505z"/>
	</g>
	<g>
		<path d="M11.932,16.515c-0.017,0-0.033,0-0.05-0.001c-0.331-0.01-0.821-0.139-1.272-0.693c-0.174-0.214-0.142-0.529,0.072-0.704
			c0.215-0.174,0.53-0.141,0.704,0.072c0.172,0.212,0.345,0.318,0.526,0.325c0.31,0.035,0.625-0.25,0.722-0.352
			c0.096-0.101,0.208-0.141,0.372-0.156c0.14,0.002,0.273,0.062,0.366,0.166c0.079,0.085,0.354,0.315,0.647,0.317
			c0,0,0.002,0,0.003,0c0.204,0,0.405-0.107,0.613-0.328c0.19-0.2,0.506-0.209,0.707-0.02c0.201,0.19,0.209,0.506,0.02,0.707
			c-0.508,0.538-0.997,0.677-1.362,0.64c-0.415-0.006-0.76-0.17-1.002-0.333C12.74,16.331,12.368,16.515,11.932,16.515z"/>
	</g>
</g>
</svg>
