<?xml version="1.0" encoding="iso-8859-1"?>
<!-- Generator: Adobe Illustrator 19.0.0, SVG Export Plug-In . SVG Version: 6.00 Build 0)  -->
<svg version="1.1" id="Layer_1" xmlns="http://www.w3.org/2000/svg" xmlns:xlink="http://www.w3.org/1999/xlink" x="0px" y="0px"
	 viewBox="0 0 30 30" style="enable-background:new 0 0 30 30;" xml:space="preserve">
<g id="Gengar_1_">
	<g>
		<path d="M7.706,25.292c-0.136,0-0.271-0.055-0.371-0.165c-1.384-1.529-2.391-3.408-2.991-5.587
			c-0.073-0.266,0.083-0.542,0.35-0.615c0.266-0.073,0.541,0.083,0.615,0.349c0.559,2.026,1.489,3.77,2.769,5.182
			c0.185,0.205,0.169,0.521-0.035,0.706C7.946,25.25,7.826,25.292,7.706,25.292z"/>
	</g>
	<g>
		<path d="M15,29.001c-1.392,0-2.115-0.321-2.882-0.661c-0.188-0.084-0.384-0.171-0.598-0.255c-0.257-0.102-0.382-0.393-0.28-0.649
			c0.103-0.257,0.393-0.382,0.649-0.281c0.227,0.09,0.434,0.182,0.635,0.271c0.724,0.321,1.296,0.575,2.476,0.575
			c1.139,0,1.745-0.263,2.513-0.595c0.191-0.083,0.388-0.167,0.598-0.251c0.257-0.102,0.547,0.024,0.649,0.281
			c0.102,0.256-0.023,0.547-0.28,0.649c-0.2,0.079-0.387,0.16-0.569,0.239C17.106,28.672,16.347,29.001,15,29.001z"/>
	</g>
	<g>
		<path d="M22.294,25.292c-0.12,0-0.24-0.042-0.336-0.129c-0.204-0.185-0.22-0.501-0.035-0.706c1.284-1.418,2.219-3.171,2.776-5.209
			c0.073-0.265,0.346-0.421,0.614-0.35c0.267,0.073,0.424,0.348,0.351,0.615c-0.601,2.19-1.609,4.08-2.999,5.615
			C22.566,25.236,22.43,25.292,22.294,25.292z"/>
	</g>
	<g>
		<path d="M4.441,13.438c-0.212,0-0.409-0.136-0.477-0.349L0.023,0.651c-0.061-0.191-0.001-0.399,0.15-0.53
			C0.325-0.01,0.54-0.038,0.72,0.051l8.826,4.336c0.248,0.122,0.35,0.421,0.229,0.669s-0.421,0.351-0.67,0.228L1.33,1.464
			l3.588,11.322c0.084,0.263-0.063,0.544-0.325,0.627C4.542,13.431,4.491,13.438,4.441,13.438z"/>
	</g>
	<g>
		<path d="M25.572,13.526c-0.05,0-0.1-0.007-0.149-0.023c-0.264-0.083-0.41-0.363-0.328-0.626l3.576-11.402l-7.773,3.887
			c-0.248,0.123-0.547,0.024-0.671-0.224c-0.123-0.247-0.023-0.547,0.224-0.671l8.826-4.413c0.18-0.09,0.394-0.063,0.548,0.066
			c0.152,0.13,0.213,0.339,0.153,0.53L26.05,13.175C25.982,13.389,25.785,13.526,25.572,13.526z"/>
	</g>
	<g>
		<path d="M20.5,6.001c-0.276,0-0.5-0.224-0.5-0.5V3.708l-1.146,1.146c-0.144,0.143-0.359,0.187-0.545,0.108
			C18.122,4.886,18,4.703,18,4.501V1.708l-3.146,3.146c-0.143,0.143-0.36,0.187-0.545,0.108C14.122,4.886,14,4.703,14,4.501V2.244
			l-1.576,2.522C12.339,4.902,12.195,4.989,12.034,5c-0.164,0.006-0.316-0.056-0.418-0.179L10,2.882v2.619
			c0,0.276-0.224,0.5-0.5,0.5S9,5.777,9,5.501v-4c0-0.21,0.132-0.398,0.33-0.47c0.197-0.072,0.419-0.012,0.554,0.15l2.059,2.47
			l2.134-3.415c0.118-0.189,0.348-0.277,0.562-0.215c0.215,0.062,0.362,0.257,0.362,0.48v2.793l3.146-3.146
			c0.144-0.143,0.359-0.187,0.545-0.108c0.187,0.077,0.309,0.26,0.309,0.462v2.793l1.146-1.146c0.143-0.143,0.359-0.186,0.545-0.108
			c0.187,0.077,0.309,0.26,0.309,0.462v3C21,5.777,20.776,6.001,20.5,6.001z"/>
	</g>
	<g>
		<path d="M12.51,14.008c-1.377,0-3.25-0.138-3.784-0.845c-1.016-1.345-0.1-3.521-0.06-3.613c0.018-0.041,0.039-0.078,0.065-0.112
			L8.147,8.855C7.951,8.66,7.951,8.344,8.145,8.148C8.34,7.952,8.659,7.953,8.852,8.147l5,4.984c0.141,0.14,0.186,0.35,0.114,0.534
			c-0.072,0.185-0.246,0.31-0.444,0.319C13.254,13.997,12.902,14.008,12.51,14.008z M9.49,10.194
			c-0.205,0.608-0.441,1.737,0.034,2.366c0.191,0.24,1.393,0.417,2.782,0.441L9.49,10.194z"/>
	</g>
	<g>
		<path d="M17.49,14.008c-0.393,0-0.744-0.011-1.013-0.023c-0.198-0.009-0.372-0.134-0.444-0.319
			c-0.071-0.185-0.026-0.395,0.114-0.534l5-4.984c0.193-0.194,0.512-0.195,0.707,0.001c0.194,0.196,0.194,0.512-0.002,0.707
			l-0.584,0.583c0.026,0.034,0.048,0.071,0.065,0.112c0.04,0.092,0.956,2.269-0.06,3.613C20.74,13.87,18.867,14.008,17.49,14.008z
			 M20.507,10.196l-2.814,2.806c1.401-0.022,2.588-0.197,2.784-0.442C20.983,11.889,20.678,10.711,20.507,10.196z"/>
	</g>
	<g>
		<path d="M15,21.001c-5.769,0-7.942-5.261-7.964-5.314c-0.069-0.172-0.037-0.367,0.082-0.508c0.119-0.142,0.306-0.208,0.487-0.167
			c6.098,1.312,8.725,1.312,14.789,0c0.182-0.037,0.368,0.025,0.487,0.166c0.119,0.142,0.151,0.337,0.082,0.509
			C22.942,15.74,20.769,21.001,15,21.001z M8.429,16.206c0.829,1.362,2.834,3.795,6.571,3.795c3.736,0,5.741-2.431,6.57-3.794
			C16.434,17.251,13.595,17.251,8.429,16.206z"/>
	</g>
	<g>
		<path d="M23.5,30.001h-4c-0.146,0-0.284-0.063-0.379-0.174c-0.887-1.031-1.553-2.563-1.58-2.628
			c-0.109-0.253,0.008-0.547,0.261-0.657c0.253-0.108,0.548,0.007,0.657,0.261c0.006,0.014,0.56,1.287,1.277,2.198h3.267
			c-0.042-3.106-1.286-4.087-1.299-4.097c-0.218-0.165-0.266-0.477-0.104-0.697c0.16-0.219,0.466-0.272,0.689-0.113
			c0.074,0.053,1.814,1.34,1.71,5.42C23.993,29.785,23.771,30.001,23.5,30.001z"/>
	</g>
	<g>
		<path d="M10.5,30.001h-4c-0.271,0-0.493-0.216-0.5-0.487c-0.104-4.08,1.636-5.367,1.71-5.42c0.224-0.159,0.536-0.108,0.697,0.117
			c0.16,0.225,0.107,0.537-0.117,0.697c-0.008,0.006-1.251,0.986-1.293,4.093h3.267c0.72-0.914,1.271-2.185,1.277-2.198
			c0.108-0.255,0.404-0.37,0.657-0.261c0.253,0.109,0.37,0.403,0.261,0.657c-0.027,0.065-0.693,1.597-1.58,2.628
			C10.784,29.938,10.646,30.001,10.5,30.001z"/>
	</g>
	<g>
		<path d="M19.5,12.001h-1c-0.276,0-0.5-0.224-0.5-0.5s0.224-0.5,0.5-0.5h1c0.276,0,0.5,0.224,0.5,0.5S19.776,12.001,19.5,12.001z"
			/>
	</g>
	<g>
		<path d="M11.5,12.001h-1c-0.276,0-0.5-0.224-0.5-0.5s0.224-0.5,0.5-0.5h1c0.276,0,0.5,0.224,0.5,0.5S11.776,12.001,11.5,12.001z"
			/>
	</g>
	<g>
		<path d="M2,22.501c-0.128,0-0.256-0.049-0.354-0.146l-1.5-1.5c-0.145-0.144-0.187-0.362-0.106-0.549
			c0.93-2.185,2.46-3.439,3.757-4.286c-0.01-0.225-0.015-0.451-0.015-0.679c0-1.695,0.262-3.348,0.777-4.912
			c0.087-0.262,0.37-0.407,0.631-0.318c0.263,0.086,0.405,0.369,0.318,0.631c-0.482,1.462-0.727,3.009-0.727,4.598
			c0,0.307,0.01,0.611,0.027,0.913c0.011,0.182-0.078,0.355-0.232,0.453c-1.159,0.731-2.584,1.805-3.479,3.685l0.917,0.917
			c1.275-1.083,2.539-1.203,3.195-1.168c0.276,0.014,0.488,0.248,0.475,0.524c-0.013,0.275-0.244,0.501-0.523,0.475
			c-0.562-0.034-1.685,0.092-2.808,1.216C2.256,22.452,2.128,22.501,2,22.501z"/>
	</g>
	<g>
		<path d="M28,22.501c-0.128,0-0.256-0.049-0.354-0.146c-1.123-1.122-2.233-1.245-2.813-1.216c-0.272,0.023-0.51-0.2-0.523-0.475
			c-0.014-0.276,0.198-0.51,0.475-0.524c0.668-0.033,1.926,0.086,3.201,1.168l0.917-0.917c-0.895-1.876-2.323-2.952-3.486-3.686
			c-0.18-0.113-0.268-0.328-0.221-0.533c0.015-0.275,0.022-0.552,0.022-0.832c0-1.59-0.245-3.139-0.729-4.604
			c-0.087-0.262,0.056-0.545,0.317-0.631c0.265-0.088,0.546,0.055,0.632,0.318c0.518,1.566,0.779,3.221,0.779,4.917
			c0,0.229-0.005,0.456-0.015,0.683c1.299,0.849,2.83,2.104,3.757,4.282c0.08,0.188,0.038,0.405-0.106,0.549l-1.5,1.5
			C28.256,22.452,28.128,22.501,28,22.501z"/>
	</g>
</g>
</svg>
