<?xml version="1.0" encoding="iso-8859-1"?>
<!-- Generator: Adobe Illustrator 19.0.0, SVG Export Plug-In . SVG Version: 6.00 Build 0)  -->
<svg version="1.1" id="Layer_1" xmlns="http://www.w3.org/2000/svg" xmlns:xlink="http://www.w3.org/1999/xlink" x="0px" y="0px"
	 viewBox="0 0 30 30" style="enable-background:new 0 0 30 30;" xml:space="preserve">
<g id="Gyarados_2_">
	<g>
		<path d="M18.152,29.999h-6.305c-0.971,0-1.761-0.787-1.761-1.753c0-0.261,0.032-0.681,0.1-1.285
			c0.28-2.487,0.286-4.845,0.021-7.21c-0.08-0.71-0.12-1.25-0.12-1.606c0-0.547,0.249-1.05,0.682-1.38
			c0.448-0.34,1.022-0.449,1.572-0.297c1.843,0.507,3.482,0.508,5.317,0.002c0.548-0.153,1.124-0.044,1.572,0.297
			c0.434,0.33,0.683,0.833,0.683,1.38c0,0.355-0.04,0.895-0.12,1.604c-0.266,2.368-0.259,4.727,0.021,7.21
			c0.067,0.604,0.1,1.024,0.1,1.285C19.913,29.212,19.123,29.999,18.152,29.999z M11.852,17.4c-0.173,0-0.339,0.055-0.477,0.16
			c-0.186,0.142-0.288,0.349-0.288,0.584c0,0.318,0.038,0.821,0.114,1.495c0.274,2.439,0.268,4.871-0.021,7.432
			c-0.063,0.559-0.094,0.954-0.094,1.174c0,0.416,0.341,0.753,0.761,0.753h6.305c0.42,0,0.761-0.338,0.761-0.753
			c0-0.221-0.031-0.616-0.094-1.174c-0.287-2.558-0.294-4.989-0.021-7.433c0.076-0.672,0.114-1.174,0.114-1.492
			c0-0.235-0.103-0.443-0.288-0.584c-0.197-0.15-0.451-0.196-0.701-0.129l0,0c-1.992,0.548-3.851,0.549-5.849-0.002
			C12.001,17.411,11.926,17.4,11.852,17.4z"/>
	</g>
	<g>
		<path d="M14.961,14.74c-0.644,0-1.272-0.183-2.062-0.545L0.89,7.592C0.341,7.29-0.001,6.714-0.001,6.087
			c0-0.571,0.282-1.103,0.755-1.423c0.474-0.32,1.073-0.385,1.603-0.173L12.71,8.632l1.165-7.573
			c0.107-0.63,0.555-1.052,1.113-1.058c0.004,0,0.007,0,0.01,0c0.463,0,0.986,0.321,1.124,1.041l1.168,7.59L27.643,4.49
			c0.529-0.212,1.13-0.147,1.603,0.173c0.473,0.32,0.755,0.852,0.755,1.423c0,0.627-0.342,1.204-0.891,1.506l-11.977,6.586
			C16.275,14.553,15.61,14.74,14.961,14.74z M1.717,5.365c-0.141,0-0.278,0.042-0.4,0.125C1.116,5.626,1.001,5.843,1.001,6.085
			c0,0.262,0.143,0.504,0.373,0.63l11.977,6.586c1.299,0.597,1.931,0.596,3.342-0.021l11.936-6.566
			c0.23-0.126,0.373-0.368,0.373-0.63c0-0.242-0.115-0.459-0.316-0.595c-0.2-0.136-0.444-0.163-0.67-0.072L17.079,9.791
			c-0.142,0.057-0.302,0.046-0.434-0.03s-0.223-0.208-0.246-0.358l-1.261-8.194c-0.025-0.131-0.091-0.21-0.138-0.21
			c-0.006,0-0.109,0.056-0.137,0.218l-1.26,8.187c-0.023,0.15-0.114,0.282-0.246,0.358c-0.131,0.076-0.292,0.087-0.434,0.03
			L1.986,5.418C1.898,5.383,1.807,5.365,1.717,5.365z"/>
	</g>
	<g>
		<path d="M22,14.999c-2.065,0-4.122-1.437-4.209-1.498c-0.225-0.159-0.278-0.471-0.119-0.696c0.16-0.226,0.473-0.279,0.696-0.121
			c0.019,0.013,1.888,1.315,3.632,1.315c0.383,0,0.52-0.138,0.589-0.242c0.412-0.618-0.066-2.287-0.362-2.999
			c-0.105-0.255,0.015-0.547,0.27-0.653c0.257-0.106,0.548,0.014,0.654,0.27c0.113,0.273,1.089,2.709,0.27,3.937
			C23.211,14.626,22.795,14.999,22,14.999z"/>
	</g>
	<g>
		<path d="M8,14.999c-0.795,0-1.21-0.374-1.419-0.687c-0.816-1.228,0.167-3.665,0.282-3.939C6.969,10.118,7.261,10,7.517,10.105
			c0.254,0.106,0.374,0.399,0.268,0.654c-0.379,0.908-0.745,2.438-0.371,2.999C7.483,13.863,7.618,13.999,8,13.999
			c1.752,0,3.627-1.302,3.646-1.315c0.225-0.158,0.537-0.104,0.696,0.122s0.104,0.538-0.122,0.697
			C12.133,13.563,10.065,14.999,8,14.999z"/>
	</g>
	<g>
		<path d="M13.5,19.999c-0.276,0-0.5-0.224-0.5-0.5v-2c0-0.276,0.224-0.5,0.5-0.5s0.5,0.224,0.5,0.5v2
			C14,19.775,13.776,19.999,13.5,19.999z"/>
	</g>
	<g>
		<path d="M16.5,19.999c-0.276,0-0.5-0.224-0.5-0.5v-2c0-0.276,0.224-0.5,0.5-0.5s0.5,0.224,0.5,0.5v2
			C17,19.775,16.776,19.999,16.5,19.999z"/>
	</g>
	<g>
		<path d="M13.5,29.999c-0.276,0-0.5-0.224-0.5-0.5v-3c0-0.276,0.224-0.5,0.5-0.5s0.5,0.224,0.5,0.5v3
			C14,29.775,13.776,29.999,13.5,29.999z"/>
	</g>
	<g>
		<path d="M16.5,29.999c-0.276,0-0.5-0.224-0.5-0.5v-3c0-0.276,0.224-0.5,0.5-0.5s0.5,0.224,0.5,0.5v3
			C17,29.775,16.776,29.999,16.5,29.999z"/>
	</g>
	<g>
		<path d="M22.433,7.557c-0.116,0-0.233-0.04-0.327-0.122c-1.705-1.479-3.791-2.377-6.03-2.598
			c-0.275-0.027-0.476-0.271-0.449-0.546c0.027-0.275,0.28-0.47,0.547-0.449c2.447,0.241,4.725,1.222,6.587,2.837
			c0.209,0.181,0.231,0.497,0.051,0.706C22.712,7.499,22.572,7.557,22.433,7.557z"/>
	</g>
	<g>
		<path d="M7.534,7.587c-0.139,0-0.277-0.058-0.376-0.171C6.975,7.208,6.997,6.891,7.205,6.71c1.867-1.632,4.156-2.624,6.619-2.867
			c0.277-0.021,0.519,0.174,0.547,0.449c0.026,0.274-0.174,0.52-0.449,0.546c-2.254,0.222-4.35,1.13-6.059,2.625
			C7.769,7.546,7.651,7.587,7.534,7.587z"/>
	</g>
	<g>
		<path d="M19.235,26.395c-0.143,0-0.285-0.061-0.384-0.18c-0.177-0.212-0.148-0.527,0.063-0.704c2.03-1.696,5.365-2.385,5.863-2.48
			c0.269-0.125,0.439-0.391,0.439-0.689v-0.407c0-0.419-0.342-0.76-0.762-0.76h-0.446c-0.725,0-1.314-0.59-1.314-1.314
			c0-1.243,0.746-2.344,1.9-2.806l3.926-1.57c0.291-0.116,0.479-0.393,0.479-0.706v-0.759c0-0.328-0.209-0.618-0.521-0.722
			l-2.92-0.973c-0.149-0.049-0.267-0.167-0.316-0.316c-0.005-0.014-0.482-1.429-1.111-2.111c-0.188-0.203-0.175-0.519,0.028-0.707
			c0.202-0.187,0.52-0.174,0.706,0.029c0.604,0.655,1.059,1.75,1.24,2.233l2.689,0.896c0.721,0.24,1.204,0.912,1.204,1.67v0.759
			c0,0.725-0.435,1.366-1.107,1.635l-3.926,1.57c-0.772,0.309-1.271,1.045-1.271,1.877c0,0.173,0.141,0.314,0.314,0.314h0.446
			c0.972,0,1.762,0.79,1.762,1.76v0.407c0,0.724-0.435,1.365-1.106,1.635c-0.032,0.013-0.064,0.022-0.098,0.028
			c-0.035,0.006-3.511,0.648-5.458,2.274C19.462,26.357,19.349,26.395,19.235,26.395z"/>
	</g>
	<g>
		<path d="M10.772,26.373c-0.113,0-0.227-0.038-0.32-0.116c-1.95-1.628-5.428-2.245-5.462-2.251C4.955,24,4.922,23.99,4.888,23.977
			c-0.672-0.27-1.106-0.911-1.106-1.635v-0.407c0-0.971,0.79-1.76,1.762-1.76H5.99c0.174,0,0.314-0.141,0.314-0.314
			c0-0.832-0.499-1.568-1.271-1.877l-3.926-1.57C0.434,16.145,0,15.504,0,14.779V14.02c0-0.759,0.483-1.43,1.204-1.67l2.689-0.896
			c0.182-0.483,0.636-1.578,1.24-2.233c0.188-0.203,0.505-0.215,0.706-0.029C6.042,9.38,6.055,9.696,5.867,9.899
			c-0.629,0.682-1.107,2.097-1.111,2.111c-0.05,0.149-0.167,0.267-0.316,0.316l-2.92,0.973c-0.312,0.104-0.521,0.395-0.521,0.722
			v0.759c0,0.313,0.187,0.59,0.479,0.706l3.926,1.57c1.154,0.461,1.9,1.563,1.9,2.806c0,0.725-0.59,1.314-1.314,1.314H5.544
			c-0.42,0-0.762,0.341-0.762,0.76v0.407c0,0.298,0.171,0.563,0.438,0.689c0.505,0.093,3.843,0.763,5.872,2.458
			c0.212,0.177,0.24,0.492,0.063,0.704C11.058,26.311,10.915,26.373,10.772,26.373z"/>
	</g>
	<g>
		<path d="M15,24.326c-0.063,0-0.127-0.012-0.187-0.036c-0.015-0.006-1.499-0.586-3.893-0.586c-0.276,0-0.5-0.224-0.5-0.5
			s0.224-0.5,0.5-0.5c2.12,0,3.572,0.419,4.074,0.589c0.506-0.182,1.98-0.634,4.099-0.634c0.276,0,0.5,0.224,0.5,0.5
			s-0.224,0.5-0.5,0.5c-2.375,0-3.885,0.622-3.899,0.628C15.133,24.313,15.066,24.326,15,24.326z"/>
	</g>
	<g>
		<circle cx="9.5" cy="12.999" r="0.5"/>
	</g>
	<g>
		<circle cx="20.5" cy="12.999" r="0.5"/>
	</g>
</g>
</svg>
