<?xml version="1.0" encoding="iso-8859-1"?>
<!-- Generator: Adobe Illustrator 19.0.0, SVG Export Plug-In . SVG Version: 6.00 Build 0)  -->
<svg version="1.1" id="Layer_1" xmlns="http://www.w3.org/2000/svg" xmlns:xlink="http://www.w3.org/1999/xlink" x="0px" y="0px"
	 viewBox="0 0 30 30" style="enable-background:new 0 0 30 30;" xml:space="preserve">
<g id="Jigglypuff_1_">
	<g>
		<path d="M15,27.476c-1.112,0-2.216-0.146-3.28-0.436c-0.267-0.072-0.424-0.347-0.352-0.613c0.073-0.266,0.347-0.425,0.613-0.352
			c1.955,0.53,4.069,0.532,6.024,0.003c0.264-0.072,0.541,0.086,0.612,0.353c0.072,0.267-0.086,0.541-0.353,0.613
			C17.206,27.331,16.107,27.476,15,27.476z"/>
	</g>
	<g>
		<path d="M26.055,20.12c-0.064,0-0.13-0.012-0.193-0.039c-0.254-0.106-0.374-0.399-0.268-0.654
			c0.587-1.405,0.885-2.895,0.885-4.429c0-1.047-0.135-2.065-0.401-3.025c-0.074-0.266,0.082-0.542,0.348-0.616
			c0.27-0.072,0.542,0.083,0.615,0.348c0.291,1.047,0.438,2.155,0.438,3.292c0,1.667-0.324,3.287-0.963,4.814
			C26.436,20.004,26.25,20.12,26.055,20.12z"/>
	</g>
	<g>
		<path d="M15,12.014c-3.006,0-5-4.223-5-7.016c0-1.423,0.632-2.791,1.734-3.752c1.097-0.956,2.543-1.39,3.957-1.201
			c1.834,0.251,3.458,1.568,4.041,3.277c0.641,1.88-0.006,3.198-0.448,3.816c-0.376,0.525-0.868,0.925-1.389,1.146
			c0.108,0.366,0.127,0.733,0.127,1.039C18.022,10.908,16.779,12.014,15,12.014z M15.028,1c-0.956,0-1.895,0.351-2.637,0.999
			C11.507,2.771,11,3.864,11,4.998c0,2.366,1.718,6.016,4,6.016c0.933,0,2.022-0.442,2.022-1.689c0-0.363-0.035-0.629-0.114-0.842
			h-1.127c-0.42,0-0.761,0.341-0.761,0.761c0,0.276-0.224,0.5-0.5,0.5s-0.5-0.224-0.5-0.5c0-0.971,0.79-1.761,1.761-1.761h1.203
			c0.41,0,1.029-0.286,1.486-0.925c0.331-0.462,0.812-1.456,0.314-2.912c-0.464-1.36-1.761-2.409-3.229-2.609
			C15.381,1.012,15.204,1,15.028,1z"/>
	</g>
	<g>
		<path d="M3.739,8.936c-0.025,0-0.052-0.002-0.077-0.006C3.459,8.898,3.296,8.745,3.251,8.545c-0.275-1.229-0.487-2.631-0.61-4.053
			C2.628,4.341,2.684,4.193,2.792,4.088s0.26-0.154,0.409-0.136c1.28,0.162,2.462,0.412,3.514,0.744
			c0.056,0.007,0.11,0.023,0.163,0.049c0.169,0.084,0.276,0.258,0.276,0.447c0,0.16-0.076,0.315-0.206,0.409
			C6.934,5.612,6.92,5.621,6.904,5.63C5.782,6.484,4.862,7.513,4.17,8.689C4.079,8.844,3.914,8.936,3.739,8.936z M3.697,5.033
			c0.077,0.727,0.177,1.441,0.296,2.12c0.469-0.627,1.002-1.207,1.599-1.736C4.996,5.265,4.357,5.135,3.697,5.033z"/>
	</g>
	<g>
		<path d="M26.193,8.936c-0.175,0-0.34-0.092-0.431-0.246c-0.688-1.167-1.601-2.191-2.714-3.043
			c-0.022-0.012-0.044-0.025-0.064-0.04c-0.13-0.094-0.206-0.245-0.206-0.404V5.194c0-0.189,0.107-0.363,0.276-0.447
			c0.053-0.026,0.107-0.042,0.163-0.049c1.052-0.332,2.233-0.583,3.514-0.744c0.148-0.019,0.301,0.031,0.409,0.136
			s0.164,0.253,0.151,0.404c-0.123,1.422-0.335,2.824-0.61,4.053c-0.045,0.2-0.208,0.353-0.411,0.385
			C26.245,8.935,26.219,8.936,26.193,8.936z M24.341,5.417c0.597,0.529,1.131,1.109,1.599,1.736c0.119-0.679,0.219-1.394,0.296-2.12
			C25.574,5.135,24.937,5.265,24.341,5.417z"/>
	</g>
	<g>
		<path d="M3.022,14.237c-0.171,0-0.339-0.088-0.432-0.248c-2.68-4.58-2.596-12.178-2.591-12.5c0.002-0.134,0.058-0.261,0.155-0.354
			c0.096-0.093,0.22-0.156,0.36-0.138c0.257,0.008,6.324,0.229,10.317,2.898c0.155,0.104,0.239,0.286,0.219,0.472
			c-0.021,0.186-0.144,0.344-0.318,0.411C10.249,4.962,9.84,5.131,9.418,5.351C9.173,5.479,8.871,5.384,8.743,5.139
			S8.71,4.592,8.955,4.464C9.12,4.378,9.284,4.299,9.446,4.225C6.4,2.566,2.411,2.132,1.003,2.027
			c0.031,1.794,0.302,7.783,2.45,11.456c0.14,0.238,0.06,0.544-0.179,0.684C3.195,14.215,3.108,14.237,3.022,14.237z"/>
	</g>
	<g>
		<path d="M26.978,14.237c-0.086,0-0.173-0.022-0.253-0.068c-0.238-0.14-0.318-0.446-0.179-0.684
			c2.15-3.675,2.419-9.669,2.451-11.459c-1.405,0.096-5.396,0.509-8.441,2.182c0.1,0.052,0.2,0.105,0.301,0.159l0.226,0.119
			c0.244,0.128,0.339,0.431,0.21,0.675c-0.128,0.245-0.433,0.336-0.675,0.21l-0.229-0.122c-0.355-0.188-0.691-0.367-1.076-0.514
			c-0.175-0.067-0.297-0.226-0.318-0.411c-0.021-0.186,0.063-0.368,0.219-0.472c3.996-2.671,10.021-2.849,10.275-2.855
			c0.173,0.013,0.263,0.047,0.359,0.14c0.096,0.092,0.151,0.219,0.153,0.353c0.005,0.321,0.089,7.92-2.591,12.5
			C27.316,14.149,27.148,14.237,26.978,14.237z"/>
	</g>
	<g>
		<path d="M15,24.998c-1.624,0-2.5-2.833-2.5-5.5c0-0.276,0.224-0.5,0.5-0.5h4c0.276,0,0.5,0.224,0.5,0.5
			C17.5,22.165,16.624,24.998,15,24.998z M13.51,19.998c0.1,2.458,0.917,4,1.49,4s1.391-1.542,1.49-4H13.51z"/>
	</g>
	<g>
		<path d="M22.803,29.998c-0.595,0-1.228-0.06-1.868-0.181c-2.186-0.412-4.401-1.577-4.407-3.007
			c-0.001-0.276,0.222-0.501,0.498-0.502c0.287,0.007,0.501,0.221,0.502,0.498c0.002,0.553,1.283,1.594,3.593,2.029
			c1.093,0.205,2.146,0.22,2.969,0.037c0.647-0.144,1.083-0.404,1.135-0.679c0.104-0.558-1.24-1.649-3.588-2.092
			c-0.295-0.056-0.586-0.097-0.868-0.124c-0.149-0.014-0.285-0.095-0.368-0.22c-0.077-0.116-0.104-0.262-0.071-0.397
			s0.119-0.253,0.241-0.321c1.003-0.557,1.917-1.262,2.717-2.096c0.189-0.199,0.507-0.206,0.706-0.015s0.206,0.508,0.015,0.707
			c-0.555,0.579-1.161,1.101-1.812,1.561c2.547,0.57,4.252,1.904,4.011,3.183c-0.133,0.706-0.808,1.228-1.9,1.471
			C23.853,29.948,23.344,29.998,22.803,29.998z"/>
	</g>
	<g>
		<path d="M26.969,24.16c-0.976,0-2.246-0.122-3.879-0.478c-0.27-0.059-0.44-0.325-0.382-0.595c0.059-0.269,0.323-0.444,0.595-0.382
			c3.078,0.671,4.73,0.447,5.459,0.246c-0.483-0.713-1.563-2.084-3.298-3.109c-0.238-0.141-0.317-0.447-0.177-0.685
			c0.141-0.238,0.45-0.315,0.685-0.176c2.692,1.591,3.92,3.884,3.971,3.98c0.118,0.224,0.05,0.501-0.159,0.645
			C29.668,23.685,28.896,24.16,26.969,24.16z"/>
	</g>
	<g>
		<path d="M7.21,29.998c-0.541,0-1.05-0.05-1.503-0.15c-1.093-0.243-1.768-0.765-1.9-1.471c-0.133-0.705,0.306-1.437,1.235-2.061
			c0.721-0.484,1.689-0.875,2.76-1.117c-0.649-0.459-1.254-0.98-1.808-1.558c-0.191-0.199-0.185-0.516,0.015-0.707
			c0.198-0.19,0.516-0.184,0.706,0.015c0.782,0.815,1.674,1.508,2.653,2.06c0.167,0.061,0.296,0.21,0.324,0.397
			c0.038,0.263-0.136,0.511-0.397,0.563c-0.02,0.004-0.039,0.007-0.06,0.008c-0.279,0.027-0.566,0.068-0.858,0.123
			c-1.094,0.206-2.08,0.578-2.778,1.046c-0.551,0.37-0.861,0.771-0.81,1.045c0.052,0.275,0.487,0.536,1.135,0.68
			c0.82,0.182,1.874,0.169,2.968-0.037c2.311-0.436,3.592-1.476,3.594-2.029c0.001-0.275,0.225-0.498,0.5-0.498
			c0.001,0,0.001,0,0.002,0c0.276,0.001,0.499,0.226,0.498,0.502c-0.006,1.43-2.222,2.596-4.408,3.007
			C8.437,29.938,7.804,29.998,7.21,29.998z"/>
	</g>
	<g>
		<path d="M3.946,20.126c-0.195,0-0.381-0.115-0.461-0.307c-0.639-1.527-0.963-3.147-0.963-4.814c0-1.138,0.147-2.246,0.438-3.292
			c0.074-0.266,0.345-0.422,0.615-0.348c0.266,0.074,0.422,0.35,0.348,0.616c-0.267,0.96-0.401,1.978-0.401,3.025
			c0,1.535,0.298,3.024,0.885,4.429c0.106,0.255-0.014,0.547-0.268,0.654C4.076,20.114,4.011,20.126,3.946,20.126z"/>
	</g>
	<g>
		<path d="M3.032,24.166c-1.929,0-2.699-0.475-2.814-0.555c-0.209-0.144-0.277-0.42-0.159-0.645c0.051-0.097,1.278-2.39,3.971-3.98
			c0.233-0.14,0.543-0.062,0.685,0.176c0.141,0.238,0.062,0.544-0.177,0.685c-1.743,1.03-2.819,2.399-3.3,3.11
			c0.721,0.2,2.376,0.426,5.461-0.247c0.273-0.062,0.536,0.112,0.595,0.382c0.06,0.27-0.112,0.536-0.382,0.595
			C5.279,24.045,4.007,24.166,3.032,24.166z"/>
	</g>
	<g>
		<path d="M9,18.998c-2.206,0-4-1.794-4-4s1.794-4,4-4s4,1.794,4,4S11.206,18.998,9,18.998z M9,11.998c-1.654,0-3,1.346-3,3
			s1.346,3,3,3s3-1.346,3-3S10.654,11.998,9,11.998z"/>
	</g>
	<g>
		<path d="M21,18.998c-2.206,0-4-1.794-4-4s1.794-4,4-4s4,1.794,4,4S23.206,18.998,21,18.998z M21,11.998c-1.654,0-3,1.346-3,3
			s1.346,3,3,3s3-1.346,3-3S22.654,11.998,21,11.998z"/>
	</g>
	<g>
		<circle cx="8" cy="13.998" r="1"/>
	</g>
	<g>
		<circle cx="20" cy="13.998" r="1"/>
	</g>
</g>
</svg>
