<?xml version="1.0" encoding="iso-8859-1"?>
<!-- Generator: Adobe Illustrator 19.0.0, SVG Export Plug-In . SVG Version: 6.00 Build 0)  -->
<svg version="1.1" id="Layer_1" xmlns="http://www.w3.org/2000/svg" xmlns:xlink="http://www.w3.org/1999/xlink" x="0px" y="0px"
	 viewBox="0 0 30 30" style="enable-background:new 0 0 30 30;" xml:space="preserve">
<g id="Mewtwo">
	<g>
		<path d="M8.493,6C8.337,6,8.182,5.926,8.085,5.789C7.926,5.563,7.98,5.251,8.204,5.092C10.112,3.743,12.523,3,14.994,3
			c2.469,0,4.88,0.743,6.787,2.091c0.226,0.159,0.279,0.471,0.12,0.697c-0.16,0.227-0.474,0.279-0.696,0.12
			c-1.741-1.23-3.947-1.907-6.211-1.907c-2.266,0-4.472,0.678-6.212,1.908C8.694,5.97,8.594,6,8.493,6z"/>
	</g>
	<g>
		<path d="M11.368,27.75c-0.183,0-0.359-0.101-0.447-0.276l-1.875-3.75c-0.123-0.247-0.023-0.547,0.224-0.671
			c0.247-0.122,0.547-0.023,0.671,0.224l1.875,3.75c0.123,0.247,0.023,0.547-0.224,0.671C11.519,27.733,11.443,27.75,11.368,27.75z"
			/>
	</g>
	<g>
		<path d="M18.618,27.75c-0.075,0-0.151-0.017-0.224-0.053c-0.247-0.124-0.347-0.424-0.224-0.671l1.875-3.75
			c0.124-0.247,0.424-0.345,0.671-0.224c0.247,0.124,0.347,0.424,0.224,0.671l-1.875,3.75C18.977,27.649,18.801,27.75,18.618,27.75z
			"/>
	</g>
	<g>
		<path d="M12.493,18h-3.75c-0.212,0-0.401-0.134-0.472-0.333c-0.034-0.096-0.815-2.361-0.021-4.477l-1.141-1.369
			c-0.177-0.212-0.148-0.528,0.063-0.705c0.212-0.176,0.526-0.15,0.704,0.064l5,6c0.125,0.149,0.151,0.357,0.069,0.532
			C12.863,17.888,12.687,18,12.493,18z M9.119,17h2.307l-2.408-2.889C8.758,15.278,8.977,16.445,9.119,17z"/>
	</g>
	<g>
		<path d="M12.493,18c-0.276,0-0.5-0.224-0.5-0.5s0.224-0.5,0.5-0.5c0.236,0,0.5-0.356,0.5-0.833V13.5c0-0.276,0.224-0.5,0.5-0.5
			s0.5,0.224,0.5,0.5v2.667C13.993,17.195,13.334,18,12.493,18z"/>
	</g>
	<g>
		<path d="M21.243,18h-3.75c-0.194,0-0.37-0.112-0.453-0.288c-0.082-0.175-0.056-0.383,0.069-0.532l5-6
			c0.178-0.213,0.493-0.239,0.704-0.064c0.212,0.177,0.24,0.492,0.063,0.705l-1.141,1.369c0.794,2.116,0.013,4.381-0.021,4.477
			C21.644,17.866,21.455,18,21.243,18z M18.56,17h2.307c0.142-0.555,0.361-1.722,0.102-2.889L18.56,17z"/>
	</g>
	<g>
		<path d="M17.493,18c-0.841,0-1.5-0.805-1.5-1.833V13.5c0-0.276,0.224-0.5,0.5-0.5s0.5,0.224,0.5,0.5v2.667
			c0,0.477,0.264,0.833,0.5,0.833c0.276,0,0.5,0.224,0.5,0.5S17.769,18,17.493,18z"/>
	</g>
	<g>
		<path d="M16.725,30H13.27c-0.668,0-1.268-0.374-1.566-0.975l-0.855-1.727l-4.445-3.587c-0.034-0.016-2.132-1.313-1.892-3.374
			c0.421-3.606,0.258-4.739,0.114-5.739c-0.066-0.456-0.128-0.886-0.128-1.49c0-1.382,0.225-2.778,0.618-3.854L4.499,1.168
			C4.481,0.925,4.64,0.705,4.876,0.645l2.5-0.63c0.136-0.034,0.279-0.009,0.396,0.066c0.117,0.077,0.197,0.199,0.22,0.336l0.995,6
			c0.045,0.272-0.139,0.53-0.411,0.575c-0.278,0.05-0.53-0.139-0.575-0.411L7.095,1.117L5.53,1.512l0.594,7.776
			c0.005,0.074-0.006,0.148-0.032,0.217C5.716,10.485,5.5,11.798,5.5,13.109c0,0.532,0.055,0.91,0.117,1.348
			c0.146,1.007,0.325,2.261-0.109,5.997c-0.167,1.43,1.455,2.431,1.472,2.441l4.585,3.694c0.056,0.045,0.102,0.103,0.134,0.167
			l0.904,1.825C12.731,28.839,12.988,29,13.273,29h3.455c0.285,0,0.542-0.161,0.67-0.419l0.904-1.825
			c0.032-0.064,0.078-0.122,0.134-0.167l4.53-3.656c0.07-0.048,1.692-1.061,1.526-2.479c-0.436-3.736-0.255-4.99-0.109-5.998
			c0.063-0.437,0.117-0.815,0.117-1.347c0-1.302-0.216-2.616-0.592-3.605c-0.026-0.069-0.037-0.143-0.032-0.216l0.594-7.776
			l-1.566-0.395l-0.915,5.465c-0.046,0.272-0.3,0.458-0.576,0.411c-0.271-0.045-0.456-0.303-0.41-0.576l1.005-6
			c0.023-0.138,0.103-0.26,0.22-0.336s0.262-0.101,0.396-0.066l2.5,0.63c0.236,0.06,0.395,0.28,0.377,0.523l-0.617,8.086
			c0.394,1.083,0.618,2.48,0.618,3.854c0,0.604-0.063,1.034-0.128,1.49c-0.144,0.999-0.307,2.132,0.114,5.738
			c0.24,2.061-1.857,3.358-1.946,3.413l-4.391,3.548l-0.855,1.728C17.993,29.626,17.393,30,16.725,30z"/>
	</g>
	<g>
		<circle cx="13.493" cy="26.5" r="0.5"/>
	</g>
	<g>
		<circle cx="16.493" cy="26.5" r="0.5"/>
	</g>
</g>
</svg>
