<?xml version="1.0" encoding="iso-8859-1"?>
<!-- Generator: Adobe Illustrator 19.0.0, SVG Export Plug-In . SVG Version: 6.00 Build 0)  -->
<svg version="1.1" id="Layer_1" xmlns="http://www.w3.org/2000/svg" xmlns:xlink="http://www.w3.org/1999/xlink" x="0px" y="0px"
	 viewBox="0 0 30 30" style="enable-background:new 0 0 30 30;" xml:space="preserve">
<g id="Meowth_2_">
	<g>
		<path d="M26.772,20.687c-0.038,0-0.076-0.004-0.115-0.013c-0.269-0.063-0.435-0.333-0.371-0.602
			c0.134-0.567,0.193-1.1,0.193-1.727c0-3.885-2.8-7.313-7.134-8.735c-0.262-0.086-0.405-0.369-0.318-0.631
			c0.085-0.263,0.368-0.407,0.631-0.319c4.751,1.559,7.821,5.361,7.821,9.686c0,0.708-0.068,1.312-0.221,1.957
			C27.204,20.532,26.998,20.687,26.772,20.687z"/>
	</g>
	<g>
		<path d="M9.501,20.25c-1.631,0-4.078-2.374-4.352-2.645c-0.094-0.093-0.148-0.221-0.148-0.355s0.054-0.262,0.148-0.355
			c0.273-0.271,2.721-2.645,4.352-2.645s4.078,2.374,4.352,2.645c0.095,0.094,0.148,0.222,0.148,0.355s-0.054,0.262-0.148,0.355
			C13.579,17.876,11.132,20.25,9.501,20.25z M6.229,17.25c0.975,0.888,2.464,2,3.272,2c0.81,0,2.298-1.112,3.272-2
			c-0.975-0.888-2.464-2-3.272-2C8.691,15.25,7.203,16.362,6.229,17.25z"/>
	</g>
	<g>
		<path d="M21.364,23.25c-1.099,0-5.629-0.852-6.363-0.991c-0.736,0.14-5.277,0.991-6.363,0.991c-0.608,0-0.943-0.742-1.118-1.365
			c-0.074-0.266,0.08-0.541,0.346-0.616c0.271-0.074,0.542,0.08,0.617,0.346c0.066,0.237,0.186,0.511,0.269,0.632
			c1.064-0.051,4.767-0.723,6.156-0.988c0.063-0.012,0.125-0.012,0.188,0c1.387,0.266,5.083,0.938,6.156,0.988
			c0.083-0.121,0.202-0.396,0.269-0.632c0.075-0.266,0.348-0.422,0.617-0.346c0.266,0.075,0.42,0.35,0.346,0.616
			C22.308,22.508,21.973,23.25,21.364,23.25z"/>
	</g>
	<g>
		<path d="M9.517,20.25c-0.274,0-0.498-0.221-0.5-0.496l-0.016-2c-0.002-0.276,0.22-0.502,0.496-0.504c0.001,0,0.003,0,0.004,0
			c0.274,0,0.498,0.221,0.5,0.496l0.016,2c0.002,0.276-0.22,0.502-0.496,0.504C9.52,20.25,9.518,20.25,9.517,20.25z"/>
	</g>
	<g>
		<path d="M20.501,20.25c-1.631,0-4.078-2.374-4.352-2.645c-0.094-0.093-0.148-0.221-0.148-0.355s0.054-0.262,0.148-0.355
			c0.273-0.271,2.721-2.645,4.352-2.645s4.078,2.374,4.352,2.645c0.095,0.094,0.148,0.222,0.148,0.355s-0.054,0.262-0.148,0.355
			C24.579,17.876,22.132,20.25,20.501,20.25z M17.229,17.25c0.975,0.888,2.464,2,3.272,2c0.81,0,2.298-1.112,3.272-2
			c-0.975-0.888-2.464-2-3.272-2C19.691,15.25,18.203,16.362,17.229,17.25z"/>
	</g>
	<g>
		<path d="M20.517,20.25c-0.274,0-0.498-0.221-0.5-0.496l-0.016-2c-0.002-0.276,0.22-0.502,0.496-0.504c0.001,0,0.003,0,0.004,0
			c0.274,0,0.498,0.221,0.5,0.496l0.016,2c0.002,0.276-0.22,0.502-0.496,0.504C20.52,20.25,20.518,20.25,20.517,20.25z"/>
	</g>
	<g>
		<path d="M11.501,26.25c-0.013,0-0.025,0-0.038-0.001c-0.197-0.015-0.367-0.145-0.434-0.332l-1.133-3.195
			c-0.092-0.26,0.044-0.546,0.305-0.638c0.255-0.094,0.545,0.043,0.639,0.304l0.755,2.13l1.466-2.728
			c0.131-0.243,0.435-0.334,0.677-0.204c0.243,0.131,0.335,0.434,0.204,0.677l-2,3.723C11.854,26.149,11.685,26.25,11.501,26.25z"/>
	</g>
	<g>
		<path d="M18.501,26.25c-0.187,0-0.359-0.104-0.445-0.272l-1.899-3.704c-0.126-0.246-0.028-0.547,0.217-0.673
			c0.246-0.125,0.548-0.029,0.674,0.217l1.391,2.712l0.829-2.14c0.1-0.258,0.389-0.385,0.646-0.286s0.386,0.39,0.285,0.647
			l-1.231,3.179c-0.07,0.184-0.243,0.309-0.439,0.319C18.519,26.25,18.51,26.25,18.501,26.25z"/>
	</g>
	<g>
		<path d="M16.21,12.25h-2.418c-0.987,0-1.791-0.803-1.791-1.791V3.041c0-0.988,0.804-1.791,1.791-1.791h2.418
			c0.987,0,1.791,0.803,1.791,1.791v7.418C18.001,11.447,17.197,12.25,16.21,12.25z M13.792,2.25c-0.437,0-0.791,0.355-0.791,0.791
			v7.418c0,0.436,0.354,0.791,0.791,0.791h2.418c0.437,0,0.791-0.355,0.791-0.791V3.041c0-0.436-0.354-0.791-0.791-0.791H13.792z"/>
	</g>
	<g>
		<path d="M10.501,10.25c-0.276,0-0.5-0.224-0.5-0.5v-5c0-0.22,0.145-0.415,0.355-0.479c0.212-0.065,0.438,0.019,0.561,0.201l2,3
			c0.153,0.23,0.091,0.54-0.139,0.693c-0.229,0.151-0.539,0.091-0.693-0.139l-1.084-1.625V9.75
			C11.001,10.026,10.777,10.25,10.501,10.25z"/>
	</g>
	<g>
		<path d="M19.501,10.25c-0.276,0-0.5-0.224-0.5-0.5V6.401l-1.084,1.626c-0.154,0.231-0.466,0.29-0.693,0.139
			c-0.229-0.153-0.292-0.463-0.139-0.693l2-3c0.122-0.183,0.348-0.268,0.561-0.201c0.211,0.064,0.355,0.258,0.355,0.479v5
			C20.001,10.026,19.777,10.25,19.501,10.25z"/>
	</g>
	<g>
		<path d="M17.501,9.75h-5c-0.276,0-0.5-0.224-0.5-0.5s0.224-0.5,0.5-0.5h5c0.276,0,0.5,0.224,0.5,0.5S17.777,9.75,17.501,9.75z"/>
	</g>
	<g>
		<path d="M17.501,7.25h-5c-0.276,0-0.5-0.224-0.5-0.5s0.224-0.5,0.5-0.5h5c0.276,0,0.5,0.224,0.5,0.5S17.777,7.25,17.501,7.25z"/>
	</g>
	<g>
		<path d="M17.501,4.75h-5c-0.276,0-0.5-0.224-0.5-0.5s0.224-0.5,0.5-0.5h5c0.276,0,0.5,0.224,0.5,0.5S17.777,4.75,17.501,4.75z"/>
	</g>
	<g>
		<path d="M4.272,14.214c-0.204,0-0.395-0.125-0.47-0.328c-0.683-1.859-0.997-3.933-1.14-5.344c-0.017-0.156,0.042-0.31,0.156-0.417
			c0.115-0.107,0.269-0.153,0.428-0.126c1.439,0.253,3.444,0.778,4.82,1.842c0.219,0.169,0.259,0.483,0.09,0.701
			c-0.169,0.22-0.483,0.259-0.701,0.09C6.431,9.84,4.964,9.379,3.732,9.113c0.163,1.292,0.462,2.939,1.009,4.428
			c0.095,0.259-0.038,0.546-0.297,0.642C4.387,14.204,4.329,14.214,4.272,14.214z"/>
	</g>
	<g>
		<path d="M25.742,14.214c-0.058,0-0.115-0.01-0.173-0.031c-0.259-0.095-0.392-0.382-0.297-0.642
			c0.547-1.489,0.846-3.136,1.009-4.428c-1.231,0.265-2.698,0.727-3.723,1.519c-0.218,0.167-0.532,0.129-0.701-0.09
			c-0.169-0.218-0.129-0.532,0.09-0.701c1.376-1.064,3.381-1.589,4.82-1.842c0.158-0.026,0.313,0.02,0.428,0.126
			c0.114,0.106,0.173,0.261,0.156,0.417c-0.143,1.412-0.457,3.485-1.14,5.344C26.137,14.088,25.945,14.214,25.742,14.214z"/>
	</g>
	<g>
		<path d="M3.023,17.393c-0.166,0-0.328-0.083-0.424-0.234c-2.707-4.313-2.604-11.13-2.598-11.418c0.006-0.272,0.228-0.49,0.5-0.49
			c0.266,0,6.546,0.037,9.807,3.238l0.22,0.204c0.202,0.188,0.214,0.504,0.025,0.707c-0.188,0.203-0.504,0.214-0.707,0.026
			L9.617,9.213C7.144,6.784,2.53,6.347,1.005,6.269c0.031,1.65,0.303,6.952,2.442,10.36c0.146,0.234,0.076,0.542-0.158,0.689
			C3.207,17.368,3.114,17.393,3.023,17.393z"/>
	</g>
	<g>
		<path d="M26.979,17.393c-0.091,0-0.184-0.025-0.266-0.077c-0.234-0.146-0.305-0.455-0.158-0.689
			c2.143-3.413,2.412-8.711,2.442-10.36c-1.524,0.078-6.138,0.514-8.603,2.935l-0.248,0.225c-0.203,0.186-0.52,0.172-0.706-0.034
			c-0.186-0.204-0.171-0.521,0.034-0.706l0.233-0.212c3.246-3.188,9.526-3.225,9.792-3.225c0.272,0,0.494,0.218,0.5,0.49
			c0.006,0.288,0.109,7.105-2.598,11.418C27.307,17.31,27.145,17.393,26.979,17.393z"/>
	</g>
	<g>
		<path d="M24.89,24.436c-0.112,0-0.226-0.038-0.319-0.115c-0.212-0.176-0.242-0.492-0.065-0.704
			c0.446-0.54,0.966-1.432,1.281-2.077c0.084-0.171,0.258-0.28,0.448-0.28l1.396-0.004l-2.161-1.238
			c-0.24-0.137-0.323-0.443-0.186-0.683c0.137-0.241,0.443-0.322,0.682-0.186l3.783,2.167c0.197,0.113,0.293,0.343,0.235,0.562
			s-0.255,0.372-0.482,0.372l-2.959,0.008c-0.326,0.628-0.807,1.439-1.269,1.996C25.176,24.374,25.033,24.436,24.89,24.436z"/>
	</g>
	<g>
		<path d="M3.23,20.687c-0.227,0-0.433-0.155-0.486-0.385c-0.152-0.645-0.221-1.249-0.221-1.957c0-4.255,3.07-8.012,7.821-9.57
			c0.262-0.087,0.546,0.056,0.631,0.319c0.087,0.262-0.057,0.545-0.318,0.631c-4.334,1.421-7.134,4.805-7.134,8.62
			c0,0.627,0.06,1.16,0.193,1.727c0.063,0.269-0.103,0.538-0.371,0.602C3.307,20.683,3.269,20.687,3.23,20.687z"/>
	</g>
	<g>
		<path d="M5.112,24.436c-0.144,0-0.286-0.062-0.385-0.181c-0.44-0.531-0.968-1.329-1.326-1.996L0.5,22.25
			c-0.227,0-0.425-0.153-0.482-0.372s0.038-0.449,0.235-0.562l3.783-2.167c0.236-0.137,0.545-0.056,0.682,0.186
			c0.138,0.24,0.055,0.545-0.186,0.683l-2.161,1.238l1.337,0.004c0.19,0,0.364,0.109,0.448,0.28c0.313,0.639,0.89,1.532,1.341,2.077
			c0.177,0.212,0.146,0.528-0.065,0.704C5.338,24.398,5.225,24.436,5.112,24.436z"/>
	</g>
	<g>
		<path d="M15.001,28.75c-2.977,0-5.841-0.881-8.097-2.485L3.642,27.23c-0.198,0.057-0.41-0.01-0.536-0.172
			s-0.141-0.385-0.036-0.562l2.044-3.452c0.142-0.238,0.449-0.315,0.686-0.175c0.237,0.141,0.316,0.447,0.176,0.685L4.58,25.911
			l2.277-0.674c0.148-0.043,0.313-0.016,0.439,0.078c2.115,1.571,4.851,2.436,7.704,2.436s5.589-0.865,7.704-2.436
			c0.126-0.094,0.292-0.121,0.439-0.078l2.277,0.674l-1.396-2.357c-0.141-0.238-0.062-0.544,0.176-0.685
			c0.236-0.141,0.544-0.063,0.686,0.175l2.044,3.452c0.104,0.177,0.09,0.4-0.036,0.562c-0.127,0.163-0.338,0.231-0.536,0.172
			l-3.262-0.965C20.842,27.869,17.978,28.75,15.001,28.75z"/>
	</g>
</g>
</svg>
