<?xml version="1.0" encoding="iso-8859-1"?>
<!-- Generator: Adobe Illustrator 19.0.0, SVG Export Plug-In . SVG Version: 6.00 Build 0)  -->
<svg version="1.1" id="Layer_1" xmlns="http://www.w3.org/2000/svg" xmlns:xlink="http://www.w3.org/1999/xlink" x="0px" y="0px"
	 viewBox="0 0 30 30" style="enable-background:new 0 0 30 30;" xml:space="preserve">
<g id="Open_Pokeball_2_">
	<g>
		<path d="M7.999,15.984c-1.557,0-2.692-0.235-3.427-0.705c-0.53-0.339-0.861-0.799-0.984-1.366
			c-0.249-1.151,0.746-2.493,2.801-3.779c1.992-1.247,4.733-2.29,7.719-2.936c1.076-0.233,2.097-0.415,3.032-0.54
			c0.275-0.038,0.525,0.156,0.562,0.429c0.037,0.274-0.156,0.525-0.429,0.562c-0.91,0.122-1.903,0.298-2.953,0.526
			c-2.875,0.623-5.503,1.619-7.4,2.806c-1.913,1.197-2.463,2.213-2.354,2.719c0.065,0.302,0.244,0.542,0.545,0.735
			c0.957,0.612,3.545,1.019,10.449-0.519c6.265-1.395,10.309-3.856,10.019-5.192c-0.166-0.767-1.651-1.263-3.973-1.328
			c-0.276-0.008-0.494-0.238-0.486-0.514s0.234-0.49,0.514-0.486c3.711,0.104,4.725,1.208,4.922,2.116
			c0.54,2.493-5.014,5.097-10.779,6.381C12.513,15.621,9.932,15.984,7.999,15.984z"/>
	</g>
	<g>
		<path d="M4.077,14.307c-0.244,0-0.457-0.178-0.494-0.426C2.548,6.952,6.181,1.603,12.839,0.254
			c6.1-1.234,12.114,2.344,13.689,8.15c0.072,0.267-0.085,0.541-0.352,0.613c-0.265,0.075-0.541-0.085-0.613-0.352
			C24.125,3.367,18.624,0.1,13.037,1.234c-6.186,1.253-9.43,6.042-8.465,12.5c0.041,0.273-0.147,0.527-0.421,0.568
			C4.126,14.306,4.101,14.307,4.077,14.307z"/>
	</g>
	<g>
		<path d="M15.325,29.989c-0.475,0-0.952-0.03-1.432-0.091c-6.047-0.772-10.686-6.573-10.34-12.93
			c0.015-0.276,0.249-0.498,0.526-0.472c0.275,0.015,0.487,0.25,0.472,0.526c-0.317,5.845,3.931,11.176,9.469,11.883
			c4.877,0.621,9.604-2.304,11.495-7.115c0.102-0.257,0.392-0.382,0.648-0.282c0.257,0.101,0.383,0.391,0.282,0.648
			C24.572,26.923,20.128,29.989,15.325,29.989z"/>
	</g>
	<g>
		<path d="M19.553,9.988c-0.521,0-1.04-0.168-1.506-0.494c-0.62-0.433-1.067-1.094-1.259-1.859
			c-0.403-1.604,0.438-3.203,1.875-3.564c0.71-0.179,1.45-0.035,2.085,0.406c0.616,0.426,1.061,1.083,1.253,1.848l0,0
			c0.407,1.62-0.426,3.23-1.857,3.59C19.948,9.964,19.751,9.988,19.553,9.988z M19.258,4.997c-0.118,0-0.235,0.014-0.351,0.043
			c-0.902,0.227-1.417,1.281-1.149,2.351c0.134,0.532,0.44,0.988,0.863,1.284c0.401,0.28,0.856,0.376,1.279,0.271
			c0.897-0.226,1.404-1.292,1.132-2.376l0,0c-0.133-0.53-0.436-0.981-0.853-1.27C19.891,5.1,19.573,4.997,19.258,4.997z"/>
	</g>
	<g>
		<path d="M19.253,26.161c-0.196,0-0.394-0.024-0.591-0.073c-1.023-0.257-1.775-1.175-1.935-2.305
			c-0.885-0.127-1.765-0.286-2.62-0.471c-3.012-0.652-5.75-1.655-7.711-2.824c-2.061-1.228-3.059-2.534-2.812-3.678
			c0.677-3.121,11.699-1.279,12.167-1.199l0,0c4.357,0.743,9.128,2.982,10.417,4.89c0.329,0.487,0.448,0.958,0.353,1.399
			c-0.276,1.273-1.944,2.066-4.601,2.199C21.501,25.337,20.409,26.161,19.253,26.161z M9.058,15.986
			c-2.667,0-4.359,0.407-4.495,1.036c-0.112,0.518,0.445,1.474,2.346,2.607c1.87,1.114,4.502,2.075,7.411,2.705
			c0.959,0.208,1.949,0.381,2.943,0.514c0.248,0.033,0.433,0.244,0.434,0.494c0.003,0.868,0.5,1.598,1.21,1.776
			c0.905,0.227,1.856-0.459,2.125-1.528c0.05-0.224,0.258-0.471,0.488-0.477c2.759-0.07,3.894-0.812,4.026-1.425
			c0.044-0.204-0.086-0.454-0.204-0.627c-1.14-1.687-5.699-3.773-9.757-4.465l0,0C13.087,16.171,10.852,15.986,9.058,15.986z"/>
	</g>
</g>
</svg>
