<?xml version="1.0" encoding="iso-8859-1"?>
<!-- Generator: Adobe Illustrator 19.0.0, SVG Export Plug-In . SVG Version: 6.00 Build 0)  -->
<svg version="1.1" id="Layer_1" xmlns="http://www.w3.org/2000/svg" xmlns:xlink="http://www.w3.org/1999/xlink" x="0px" y="0px"
	 viewBox="0 0 30 30" style="enable-background:new 0 0 30 30;" xml:space="preserve">
<g id="Pidgey_2_">
	<g>
		<path d="M15,30H6.336c-0.238,0-0.443-0.168-0.49-0.401c-1.524-7.545-1.415-9.552-1.265-12.331L4.6,16.929
			c0.11-2.098,1.094-4.376,3.006-6.966C7.77,9.74,8.085,9.695,8.305,9.858c0.223,0.164,0.27,0.477,0.105,0.699
			c-1.792,2.427-2.712,4.529-2.813,6.425l-0.018,0.341C5.434,19.978,5.33,21.91,6.744,29.001h8.255c0.276,0,0.5,0.224,0.5,0.5
			S15.276,30,15,30z"/>
	</g>
	<g>
		<path d="M9.5,9C9.386,9,9.271,8.961,9.178,8.882C8.967,8.704,8.94,8.388,9.118,8.177c0.326-0.388,0.662-0.778,0.999-1.169
			c1.919-2.23,3.903-4.535,4.396-6.623c0.063-0.267,0.323-0.434,0.602-0.372c0.269,0.063,0.435,0.333,0.371,0.602
			c-0.548,2.326-2.613,4.725-4.611,7.046c-0.334,0.389-0.668,0.776-0.993,1.162C9.783,8.939,9.642,9,9.5,9z"/>
	</g>
	<g>
		<path d="M23.664,30H15c-0.276,0-0.5-0.224-0.5-0.5S14.724,29,15,29h8.255c1.414-7.091,1.31-9.022,1.165-11.678l-0.018-0.341
			c-0.101-1.898-1.021-4-2.813-6.424c-0.164-0.222-0.117-0.535,0.105-0.7c0.22-0.162,0.533-0.117,0.699,0.105
			c1.911,2.587,2.895,4.866,3.006,6.966l0.019,0.339c0.15,2.779,0.26,4.786-1.265,12.331C24.107,29.832,23.902,30,23.664,30z"/>
	</g>
	<g>
		<path d="M20.5,9c-0.142,0-0.283-0.061-0.382-0.178c-0.329-0.39-0.667-0.782-1.007-1.176c-1.994-2.315-4.057-4.708-4.599-7.033
			c-0.063-0.269,0.104-0.538,0.374-0.6c0.274-0.062,0.538,0.105,0.601,0.374c0.485,2.085,2.467,4.384,4.382,6.607
			c0.342,0.396,0.682,0.792,1.013,1.184c0.179,0.211,0.151,0.526-0.06,0.705C20.729,8.961,20.614,9,20.5,9z"/>
	</g>
	<g>
		<path d="M15,23.75c-0.04,0-0.08-0.005-0.119-0.015l-5.091-1.25c-0.176-0.043-0.315-0.178-0.363-0.353s0.003-0.362,0.132-0.489
			l4.19-4.116c0.689-0.677,1.813-0.677,2.502,0l4.19,4.116c0.129,0.127,0.18,0.314,0.132,0.489s-0.188,0.31-0.363,0.353l-5.091,1.25
			C15.08,23.745,15.04,23.75,15,23.75z M10.899,21.728L15,22.735l4.101-1.007l-3.551-3.487c-0.303-0.299-0.797-0.299-1.1,0
			L10.899,21.728z"/>
	</g>
	<g>
		<path d="M14.999,25.995c-0.374,0-0.748-0.115-1.06-0.345l-4.33-3.25c-0.221-0.166-0.266-0.479-0.101-0.7
			c0.168-0.221,0.481-0.264,0.7-0.1l4.327,3.247c0.272,0.2,0.656,0.2,0.931-0.002L19.79,21.6c0.22-0.165,0.533-0.122,0.7,0.1
			c0.165,0.221,0.12,0.535-0.101,0.7l-4.327,3.247C15.75,25.879,15.374,25.995,14.999,25.995z"/>
	</g>
	<g>
		<path d="M5.485,25.345c-0.194,0-0.38-0.114-0.461-0.305c-0.107-0.254,0.012-0.548,0.267-0.655
			c3.233-1.368,4.202-2.663,4.212-2.676c0.161-0.222,0.473-0.274,0.696-0.114c0.223,0.16,0.277,0.468,0.119,0.692
			c-0.043,0.061-1.097,1.521-4.639,3.018C5.616,25.333,5.551,25.345,5.485,25.345z"/>
	</g>
	<g>
		<path d="M24.515,25.345c-0.065,0-0.131-0.013-0.194-0.04c-3.544-1.498-4.596-2.957-4.639-3.019
			c-0.159-0.226-0.104-0.538,0.122-0.696c0.223-0.159,0.534-0.105,0.694,0.119c0.021,0.027,0.994,1.315,4.211,2.675
			c0.255,0.107,0.374,0.401,0.267,0.655C24.895,25.23,24.709,25.345,24.515,25.345z"/>
	</g>
	<g>
		<path d="M13,17H8.437c-0.499,0-0.724-0.284-0.813-0.453c-0.492-0.928,0.853-3.16,1.698-4.408c0.089-0.131,0.235-0.212,0.395-0.219
			c0.152-0.015,0.31,0.063,0.41,0.187l3.265,4.081c0.12,0.15,0.144,0.356,0.06,0.529C13.367,16.89,13.192,17,13,17z M8.503,15.999
			L11.959,16l-2.182-2.728C9.05,14.436,8.513,15.577,8.503,15.999z"/>
	</g>
	<g>
		<path d="M21.563,17H17c-0.192,0-0.367-0.11-0.45-0.283c-0.084-0.173-0.061-0.379,0.06-0.529l3.262-4.078
			c0.1-0.124,0.248-0.204,0.41-0.187c0.158,0.006,0.305,0.087,0.395,0.219c0.847,1.247,2.193,3.477,1.701,4.405
			C22.288,16.716,22.062,17,21.563,17z M18.04,16h3.457c-0.01-0.421-0.548-1.562-1.276-2.726L18.04,16z"/>
	</g>
	<g>
		<path d="M13,17c-0.147,0-0.292-0.065-0.391-0.188l-12-15C0.475,1.645,0.463,1.41,0.579,1.229c0.116-0.18,0.335-0.267,0.542-0.215
			l6,1.5C7.27,2.551,7.394,2.655,7.457,2.796l6,13.5c0.102,0.23,0.018,0.5-0.197,0.63C13.179,16.977,13.089,17,13,17z M2.315,2.344
			l8.653,10.816L6.642,3.426L2.315,2.344z"/>
	</g>
	<g>
		<path d="M17,17c-0.089,0-0.179-0.023-0.26-0.073c-0.215-0.131-0.299-0.4-0.197-0.63l6-13.5c0.063-0.141,0.187-0.245,0.336-0.282
			l6-1.5c0.208-0.052,0.426,0.035,0.542,0.215c0.116,0.181,0.104,0.415-0.03,0.583l-12,15C17.292,16.935,17.147,17,17,17z
			 M23.357,3.426l-4.326,9.734l8.653-10.816L23.357,3.426z"/>
	</g>
	<g>
		<path d="M15,9c-0.165,0.027-0.291-0.066-0.386-0.182l-2.716-3.29C11.722,5.315,11.752,5,11.965,4.824
			c0.211-0.176,0.528-0.146,0.704,0.067l2.335,2.829l2.363-2.787c0.181-0.211,0.495-0.236,0.705-0.058
			c0.211,0.179,0.236,0.494,0.059,0.705l-2.75,3.243C15.286,8.936,15.146,9,15,9z"/>
	</g>
	<g>
		<circle cx="11.5" cy="15.5" r="1"/>
	</g>
	<g>
		<path d="M18.5,16.5c-0.552,0-1-0.449-1-1c0-0.551,0.448-1,1-1s1,0.449,1,1C19.5,16.051,19.052,16.5,18.5,16.5z M18.5,15.5H18H18.5
			L18.5,15.5z"/>
	</g>
</g>
</svg>
