<?xml version="1.0" encoding="iso-8859-1"?>
<!-- Generator: Adobe Illustrator 19.0.0, SVG Export Plug-In . SVG Version: 6.00 Build 0)  -->
<svg version="1.1" id="Layer_1" xmlns="http://www.w3.org/2000/svg" xmlns:xlink="http://www.w3.org/1999/xlink" x="0px" y="0px"
	 viewBox="0 0 30 30" style="enable-background:new 0 0 30 30;" xml:space="preserve">
<g id="Pikachu_1_">
	<g>
		<path d="M15,30.001h-0.5c-5.939,0-10.25-2.944-10.25-7c0-0.807,0.292-1.721,0.602-2.69C5.171,19.314,5.5,18.283,5.5,17.376v-0.625
			c0-1.916,0.69-3.679,1.996-5.098c0.188-0.203,0.503-0.216,0.707-0.029c0.203,0.187,0.216,0.503,0.029,0.706
			C7.098,13.561,6.5,15.09,6.5,16.751v0.625c0,1.063-0.354,2.169-0.695,3.24C5.52,21.508,5.25,22.35,5.25,23.001
			c0,3.477,3.891,6,9.25,6H15c5.416,0,9.5-2.58,9.5-6c0-0.658-0.214-1.462-0.44-2.313c-0.275-1.034-0.56-2.103-0.56-3.187v-0.625
			c0-1.657-0.653-3.315-1.791-4.55c-0.188-0.203-0.175-0.52,0.028-0.707c0.202-0.186,0.52-0.174,0.706,0.029
			c1.308,1.417,2.057,3.323,2.057,5.228v0.625c0,0.953,0.268,1.958,0.525,2.929c0.245,0.917,0.475,1.782,0.475,2.571
			C25.5,26.992,20.986,30.001,15,30.001z"/>
	</g>
	<g>
		<path d="M16.5,24.001c-0.594,0-1.137-0.206-1.507-0.525c-0.372,0.317-0.913,0.525-1.493,0.525c-1.047,0-2-0.715-2-1.5
			c0-0.276,0.224-0.5,0.5-0.5s0.5,0.224,0.5,0.5c0.008,0.128,0.411,0.5,1,0.5c0.596,0,1-0.375,1-0.5c0-0.276,0.224-0.5,0.5-0.5
			s0.5,0.224,0.5,0.5c0,0.144,0.398,0.5,1,0.5c0.578,0,1-0.351,1-0.5c0-0.276,0.224-0.5,0.5-0.5s0.5,0.224,0.5,0.5
			C18.5,23.385,17.446,24.001,16.5,24.001z"/>
	</g>
	<g>
		<path d="M7.386,13.069c-0.117,0-0.235-0.041-0.33-0.125C0.707,7.357,0.506,0.787,0.5,0.51C0.497,0.336,0.584,0.172,0.731,0.078
			C0.879-0.015,1.065-0.026,1.22,0.051c0.229,0.113,5.534,2.786,9.014,9.786C11.491,9.303,13.192,9.001,15,9.001
			c0.276,0,0.5,0.224,0.5,0.5s-0.224,0.5-0.5,0.5c-1.886,0-3.623,0.344-4.769,0.942c-0.121,0.063-0.263,0.073-0.391,0.031
			c-0.129-0.043-0.234-0.137-0.293-0.26C7.009,5.35,3.246,2.49,1.6,1.433c0.301,1.972,1.485,6.686,6.115,10.76
			c0.208,0.183,0.228,0.499,0.045,0.706C7.662,13.012,7.524,13.069,7.386,13.069z"/>
	</g>
	<g>
		<path d="M4.03,9.006c-0.263,0-0.482-0.204-0.499-0.469C3.506,8.123,3.309,4.452,4.286,2.974c0.15-0.23,0.462-0.293,0.692-0.141
			S5.272,3.295,5.12,3.526c-0.672,1.016-0.654,3.917-0.591,4.95c0.017,0.275-0.192,0.513-0.469,0.53
			C4.051,9.005,4.04,9.006,4.03,9.006z"/>
	</g>
	<g>
		<path d="M22.488,13.007c-0.139,0-0.276-0.057-0.375-0.169c-0.183-0.208-0.163-0.523,0.045-0.706
			c4.608-4.056,5.877-8.708,6.219-10.684c-1.658,1.069-5.397,3.928-7.925,9.268c-0.059,0.123-0.164,0.217-0.293,0.26
			c-0.129,0.043-0.27,0.032-0.392-0.031c-1.145-0.6-2.883-0.943-4.768-0.943c-0.276,0-0.5-0.224-0.5-0.5s0.224-0.5,0.5-0.5
			c1.807,0,3.509,0.302,4.766,0.837c3.479-6.999,8.785-9.673,9.014-9.786c0.155-0.078,0.346-0.066,0.493,0.029
			c0.147,0.096,0.234,0.263,0.228,0.439c-0.011,0.274-0.338,6.778-6.682,12.362C22.724,12.966,22.605,13.007,22.488,13.007z"/>
	</g>
	<g>
		<path d="M25.988,8.772c-0.01,0-0.02,0-0.029-0.001c-0.275-0.016-0.486-0.253-0.47-0.528c0.058-0.981,0.075-3.762-0.53-4.839
			c-0.136-0.241-0.051-0.545,0.19-0.681c0.238-0.137,0.545-0.05,0.681,0.19c0.859,1.526,0.681,4.997,0.657,5.388
			C26.472,8.567,26.251,8.772,25.988,8.772z"/>
	</g>
	<g>
		<path d="M10,21.001c-1.379,0-2.5-1.122-2.5-2.5s1.121-2.5,2.5-2.5s2.5,1.122,2.5,2.5S11.379,21.001,10,21.001z M10,17.001
			c-0.827,0-1.5,0.673-1.5,1.5s0.673,1.5,1.5,1.5s1.5-0.673,1.5-1.5S10.827,17.001,10,17.001z"/>
	</g>
	<g>
		<circle cx="10.5" cy="18.001" r="0.5"/>
	</g>
	<g>
		<path d="M20,21.001c-1.379,0-2.5-1.122-2.5-2.5s1.121-2.5,2.5-2.5s2.5,1.122,2.5,2.5S21.379,21.001,20,21.001z M20,17.001
			c-0.827,0-1.5,0.673-1.5,1.5s0.673,1.5,1.5,1.5s1.5-0.673,1.5-1.5S20.827,17.001,20,17.001z"/>
	</g>
	<g>
		<circle cx="19.5" cy="18.001" r="0.5"/>
	</g>
	<g>
		<circle cx="15" cy="20.501" r="0.5"/>
	</g>
	<g>
		<path d="M9.189,29.052c-0.123,0-0.245-0.045-0.342-0.135c-0.201-0.189-0.212-0.505-0.023-0.707C9.26,27.746,9.5,27.139,9.5,26.501
			c0-1.378-1.121-2.5-2.5-2.5c-0.646,0-1.258,0.245-1.725,0.69c-0.199,0.19-0.515,0.184-0.707-0.017
			c-0.19-0.2-0.183-0.517,0.018-0.707C5.239,23.344,6.097,23.001,7,23.001c1.93,0,3.5,1.57,3.5,3.5c0,0.893-0.336,1.743-0.945,2.393
			C9.456,28.999,9.322,29.052,9.189,29.052z"/>
	</g>
	<g>
		<path d="M20.696,28.923c-0.143,0-0.285-0.061-0.384-0.18c-0.524-0.627-0.812-1.424-0.812-2.242c0-1.93,1.57-3.5,3.5-3.5
			c0.796,0,1.546,0.26,2.169,0.753c0.217,0.171,0.254,0.485,0.083,0.702s-0.485,0.255-0.702,0.082
			c-0.446-0.351-0.982-0.537-1.55-0.537c-1.379,0-2.5,1.122-2.5,2.5c0,0.584,0.206,1.153,0.58,1.602
			c0.177,0.212,0.148,0.527-0.063,0.704C20.923,28.885,20.81,28.923,20.696,28.923z"/>
	</g>
</g>
</svg>
