<?xml version="1.0" encoding="iso-8859-1"?>
<!-- Generator: Adobe Illustrator 19.0.0, SVG Export Plug-In . SVG Version: 6.00 Build 0)  -->
<svg version="1.1" id="Layer_1" xmlns="http://www.w3.org/2000/svg" xmlns:xlink="http://www.w3.org/1999/xlink" x="0px" y="0px"
	 viewBox="0 0 30 30" style="enable-background:new 0 0 30 30;" xml:space="preserve">
<g id="Pokemon_GO_1_">
	<g>
		<path d="M22.5,22.5c-4.136,0-7.5-3.364-7.5-7.5s3.364-7.5,7.5-7.5S30,10.864,30,15S26.636,22.5,22.5,22.5z M22.5,8.5
			c-3.584,0-6.5,2.916-6.5,6.5s2.916,6.5,6.5,6.5S29,18.584,29,15S26.084,8.5,22.5,8.5z"/>
	</g>
	<g>
		<g>
			<path d="M7.5,22.5C3.364,22.5,0,19.136,0,15s3.364-7.5,7.5-7.5c2.001,0,3.884,0.779,5.301,2.194c0.195,0.195,0.195,0.512,0,0.708
				c-0.194,0.195-0.512,0.195-0.707,0C10.866,9.175,9.235,8.5,7.5,8.5C3.916,8.5,1,11.416,1,15s2.916,6.5,6.5,6.5S14,18.584,14,15
				c0-0.31-0.022-0.623-0.066-0.931c-0.039-0.273,0.151-0.526,0.425-0.565c0.271-0.043,0.526,0.151,0.565,0.425
				C14.974,14.283,15,14.644,15,15C15,19.136,11.636,22.5,7.5,22.5z"/>
		</g>
		<g>
			<path d="M7.5,19.5C5.019,19.5,3,17.481,3,15s2.019-4.5,4.5-4.5c1.201,0,2.33,0.467,3.18,1.315c0.195,0.195,0.195,0.512,0,0.708
				c-0.195,0.195-0.512,0.195-0.708,0C9.311,11.863,8.433,11.5,7.499,11.5c-1.93,0-3.5,1.57-3.5,3.5s1.57,3.5,3.5,3.5
				c1.237,0,2.395-0.664,3.022-1.732c0.14-0.238,0.445-0.319,0.684-0.178c0.238,0.14,0.318,0.446,0.178,0.684
				C10.579,18.647,9.09,19.5,7.5,19.5z"/>
		</g>
		<g>
			<path d="M10.965,17.5H6.5C6.224,17.5,6,17.276,6,17v-3c0-0.276,0.224-0.5,0.5-0.5l7.929-0.001c0.276,0,0.5,0.224,0.5,0.5
				s-0.224,0.5-0.5,0.5L7,14.5v2h3.965c0.276,0,0.5,0.224,0.5,0.5S11.241,17.5,10.965,17.5z"/>
		</g>
		<g>
			<path d="M10.329,12.671c-0.128,0-0.256-0.049-0.354-0.146c-0.195-0.195-0.195-0.512,0-0.707l2.121-2.121
				c0.195-0.195,0.512-0.195,0.707,0s0.195,0.512,0,0.707l-2.121,2.121C10.584,12.623,10.457,12.671,10.329,12.671z"/>
		</g>
	</g>
	<g>
		<path d="M22.5,19.5c-2.481,0-4.5-2.019-4.5-4.5s2.019-4.5,4.5-4.5S27,12.519,27,15S24.981,19.5,22.5,19.5z M22.5,11.5
			c-1.93,0-3.5,1.57-3.5,3.5s1.57,3.5,3.5,3.5S26,16.93,26,15S24.43,11.5,22.5,11.5z"/>
	</g>
	<g>
		<path d="M22.5,16.5c-0.827,0-1.5-0.673-1.5-1.5s0.673-1.5,1.5-1.5S24,14.173,24,15S23.327,16.5,22.5,16.5z M22.5,14.5
			c-0.276,0-0.5,0.224-0.5,0.5s0.224,0.5,0.5,0.5S23,15.276,23,15S22.776,14.5,22.5,14.5z"/>
	</g>
	<g>
		<path d="M26.5,15.5h-8c-0.276,0-0.5-0.224-0.5-0.5s0.224-0.5,0.5-0.5h8c0.276,0,0.5,0.224,0.5,0.5S26.776,15.5,26.5,15.5z"/>
	</g>
</g>
</svg>
