<?xml version="1.0" encoding="iso-8859-1"?>
<!-- Generator: Adobe Illustrator 19.0.0, SVG Export Plug-In . SVG Version: 6.00 Build 0)  -->
<svg version="1.1" id="Layer_1" xmlns="http://www.w3.org/2000/svg" xmlns:xlink="http://www.w3.org/1999/xlink" x="0px" y="0px"
	 viewBox="0 0 30 30" style="enable-background:new 0 0 30 30;" xml:space="preserve">
<g>
	<g id="Pokeball_1_">
		<g>
			<path d="M15,29.5C7.005,29.5,0.5,22.995,0.5,15S7.005,0.5,15,0.5S29.5,7.005,29.5,15S22.995,29.5,15,29.5z M15,1.5
				C7.556,1.5,1.5,7.556,1.5,15S7.556,28.5,15,28.5S28.5,22.444,28.5,15S22.444,1.5,15,1.5z"/>
		</g>
		<g>
			<path d="M16,17.5c-3.033,0-5.5-2.467-5.5-5.5s2.467-5.5,5.5-5.5s5.5,2.467,5.5,5.5S19.033,17.5,16,17.5z M16,7.5
				c-2.481,0-4.5,2.019-4.5,4.5s2.019,4.5,4.5,4.5s4.5-2.019,4.5-4.5S18.481,7.5,16,7.5z"/>
		</g>
		<g>
			<path d="M28.5,14.5c-0.102,0-0.205-0.031-0.294-0.096c-1.838-1.339-4.208-2.109-7.246-2.352c-0.275-0.022-0.48-0.263-0.458-0.539
				c0.022-0.275,0.254-0.477,0.539-0.458c3.226,0.258,5.763,1.089,7.754,2.54c0.223,0.163,0.272,0.476,0.11,0.699
				C28.806,14.429,28.654,14.5,28.5,14.5z"/>
		</g>
		<g>
			<path d="M1.625,18.192c-0.146,0-0.291-0.063-0.39-0.186c-0.173-0.215-0.14-0.53,0.075-0.703c3.164-2.55,6.285-4.269,9.542-5.254
				c0.262-0.08,0.543,0.07,0.623,0.334s-0.069,0.543-0.334,0.623c-3.131,0.947-6.142,2.607-9.203,5.075
				C1.846,18.156,1.735,18.192,1.625,18.192z"/>
		</g>
	</g>
	<g>
		<path d="M16,13.5c-0.827,0-1.5-0.673-1.5-1.5s0.673-1.5,1.5-1.5s1.5,0.673,1.5,1.5S16.827,13.5,16,13.5z M16,11.5
			c-0.276,0-0.5,0.224-0.5,0.5s0.224,0.5,0.5,0.5s0.5-0.224,0.5-0.5S16.276,11.5,16,11.5z"/>
	</g>
</g>
</svg>
