<?xml version="1.0" encoding="iso-8859-1"?>
<!-- Generator: Adobe Illustrator 19.0.0, SVG Export Plug-In . SVG Version: 6.00 Build 0)  -->
<svg version="1.1" id="Layer_1" xmlns="http://www.w3.org/2000/svg" xmlns:xlink="http://www.w3.org/1999/xlink" x="0px" y="0px"
	 viewBox="0 0 30 30" style="enable-background:new 0 0 30 30;" xml:space="preserve">
<g id="Psyduck_1_">
	<g>
		<path d="M24.598,22.501c-0.158,0-0.313-0.074-0.41-0.213c-0.158-0.226-0.104-0.538,0.123-0.697
			c2.701-1.893,4.189-4.441,4.189-7.174C28.5,8.949,22.444,4.5,15,4.5S1.5,8.949,1.5,14.417c0,2.733,1.488,5.281,4.189,7.174
			c0.226,0.159,0.281,0.471,0.123,0.697c-0.159,0.226-0.471,0.28-0.697,0.123C2.182,20.355,0.5,17.442,0.5,14.418
			C0.5,8.398,7.005,3.501,15,3.501s14.5,4.897,14.5,10.917c0,3.024-1.682,5.938-4.615,7.993
			C24.797,22.472,24.697,22.501,24.598,22.501z"/>
	</g>
	<g>
		<path d="M14.999,30.001c-6.729,0-12-2.369-12-5.393c0-0.988,0.443-1.866,1.214-2.408c0.295-0.207,0.681-0.421,1.127-0.668
			c1.333-0.739,3.159-1.752,3.159-3.031c0-0.276,0.224-0.5,0.5-0.5s0.5,0.224,0.5,0.5c0,1.868-2.123,3.045-3.674,3.905
			c-0.409,0.227-0.775,0.429-1.037,0.612c-0.687,0.482-0.79,1.203-0.79,1.59c0,2.121,4.42,4.393,11,4.393s11-2.271,11-4.393
			c0-0.389-0.102-1.112-0.787-1.588c-0.25-0.174-0.613-0.372-1.032-0.6c-1.554-0.847-3.681-2.007-3.681-3.919
			c0-0.276,0.224-0.5,0.5-0.5s0.5,0.224,0.5,0.5c0,1.318,1.826,2.314,3.16,3.041c0.445,0.243,0.829,0.452,1.124,0.657
			c0.773,0.538,1.217,1.416,1.217,2.41C26.999,27.632,21.728,30.001,14.999,30.001z"/>
	</g>
	<g>
		<path d="M13.499,18.501c-0.032,0-0.065-0.003-0.099-0.01l-2.5-0.5c-0.271-0.054-0.446-0.317-0.392-0.588s0.313-0.448,0.588-0.392
			l2.5,0.5c0.271,0.054,0.446,0.317,0.392,0.588C13.942,18.337,13.733,18.501,13.499,18.501z"/>
	</g>
	<g>
		<path d="M16.499,18.501c-0.233,0-0.442-0.164-0.49-0.402c-0.054-0.271,0.122-0.534,0.392-0.588l2.5-0.5
			c0.273-0.055,0.535,0.122,0.588,0.392c0.054,0.271-0.122,0.534-0.392,0.588l-2.5,0.5C16.564,18.498,16.531,18.501,16.499,18.501z"
			/>
	</g>
	<g>
		<path d="M14.999,4.501c-0.276,0-0.5-0.224-0.5-0.5v-3.5c0-0.276,0.224-0.5,0.5-0.5s0.5,0.224,0.5,0.5v3.5
			C15.499,4.277,15.275,4.501,14.999,4.501z"/>
	</g>
	<g>
		<path d="M17.499,4.501c-0.066,0-0.133-0.013-0.197-0.041c-0.254-0.109-0.372-0.403-0.263-0.656l1.5-3.5
			c0.108-0.255,0.404-0.373,0.656-0.263c0.254,0.109,0.372,0.403,0.263,0.656l-1.5,3.5C17.877,4.388,17.693,4.501,17.499,4.501z"/>
	</g>
	<g>
		<path d="M11.999,4.501c-0.217,0-0.417-0.143-0.48-0.363l-1-3.5c-0.076-0.265,0.078-0.542,0.344-0.618
			c0.263-0.072,0.542,0.078,0.618,0.344l1,3.5c0.076,0.265-0.078,0.542-0.344,0.618C12.09,4.495,12.044,4.501,11.999,4.501z"/>
	</g>
	<g>
		<path d="M8.499,16.001c-2.206,0-4-1.57-4-3.5s1.794-3.5,4-3.5s4,1.57,4,3.5S10.705,16.001,8.499,16.001z M8.499,10.001
			c-1.654,0-3,1.122-3,2.5s1.346,2.5,3,2.5s3-1.122,3-2.5S10.153,10.001,8.499,10.001z"/>
	</g>
	<g>
		<path d="M21.499,16.001c-2.206,0-4-1.57-4-3.5s1.794-3.5,4-3.5s4,1.57,4,3.5S23.705,16.001,21.499,16.001z M21.499,10.001
			c-1.654,0-3,1.122-3,2.5s1.346,2.5,3,2.5s3-1.122,3-2.5S23.153,10.001,21.499,10.001z"/>
	</g>
	<g>
		<circle cx="8.499" cy="13.001" r="0.5"/>
	</g>
	<g>
		<circle cx="21.499" cy="13.001" r="0.5"/>
	</g>
</g>
</svg>
