<?xml version="1.0" encoding="iso-8859-1"?>
<!-- Generator: Adobe Illustrator 19.0.0, SVG Export Plug-In . SVG Version: 6.00 Build 0)  -->
<svg version="1.1" id="Layer_1" xmlns="http://www.w3.org/2000/svg" xmlns:xlink="http://www.w3.org/1999/xlink" x="0px" y="0px"
	 viewBox="0 0 30 30" style="enable-background:new 0 0 30 30;" xml:space="preserve">
<g id="Rayquaza_1_">
	<g>
		<path d="M17.41,30h-4.82c-0.581,0-1.125-0.301-1.458-0.806c-0.358-0.546-0.575-1.149-0.785-1.731
			c-0.356-0.988-0.692-1.921-1.686-2.532c-0.092-0.057-0.164-0.143-0.204-0.244c-0.074-0.19-0.727-1.881-0.727-2.688
			c0-0.825-0.288-1.442-0.593-2.097c-0.314-0.673-0.638-1.369-0.638-2.278c0-4.756,3.813-8.625,8.5-8.625s8.5,3.869,8.5,8.625
			c0,0.891-0.321,1.579-0.631,2.244c-0.309,0.661-0.6,1.286-0.6,2.131c0,0.793-0.659,2.492-0.734,2.683
			c-0.04,0.101-0.111,0.186-0.204,0.243c-0.993,0.609-1.334,1.56-1.696,2.566c-0.207,0.578-0.422,1.175-0.768,1.702
			C18.536,29.699,17.991,30,17.41,30z M9.332,24.174c1.178,0.792,1.59,1.936,1.956,2.95c0.199,0.552,0.387,1.074,0.681,1.521
			C12.115,28.867,12.347,29,12.591,29h4.82c0.243,0,0.476-0.133,0.622-0.355c0.281-0.427,0.466-0.944,0.663-1.491
			c0.37-1.031,0.788-2.193,1.967-2.986c0.256-0.675,0.607-1.745,0.607-2.167c0-1.067,0.369-1.857,0.694-2.554
			c0.288-0.618,0.537-1.152,0.537-1.821c0-4.205-3.364-7.625-7.5-7.625s-7.5,3.42-7.5,7.625c0,0.688,0.252,1.229,0.544,1.856
			c0.322,0.69,0.687,1.473,0.687,2.519C8.731,22.433,9.079,23.502,9.332,24.174z"/>
	</g>
	<g>
		<path d="M13.5,22h-1.17c-0.659,0-1.274-0.282-1.647-0.755c-0.314-0.398-0.424-0.88-0.31-1.357l0.468-1.849l-0.77-1.282
			c-0.142-0.237-0.065-0.544,0.171-0.686c0.237-0.142,0.544-0.065,0.686,0.171l3,5c0.093,0.155,0.095,0.347,0.006,0.504
			S13.68,22,13.5,22z M11.566,19.249l-0.222,0.879c-0.052,0.215,0.039,0.39,0.124,0.499c0.185,0.234,0.507,0.374,0.862,0.374h0.287
			L11.566,19.249z"/>
	</g>
	<g>
		<path d="M17.67,22H16.5c-0.18,0-0.346-0.097-0.435-0.253c-0.089-0.156-0.086-0.349,0.006-0.504l3-5
			c0.142-0.237,0.448-0.313,0.686-0.171c0.237,0.142,0.313,0.449,0.171,0.686l-0.77,1.282l0.467,1.843
			c0.116,0.482,0.005,0.964-0.309,1.363C18.944,21.718,18.329,22,17.67,22z M17.383,21h0.287c0.355,0,0.677-0.14,0.862-0.374
			c0.085-0.108,0.176-0.284,0.123-0.504l-0.221-0.873L17.383,21z"/>
	</g>
	<g>
		<path d="M15,15c-1.93,0-3.5-1.506-3.5-3.357v-1.552c0-0.276,0.224-0.5,0.5-0.5s0.5,0.224,0.5,0.5v1.552
			c0,1.3,1.122,2.357,2.5,2.357s2.5-1.057,2.5-2.357v-1.552c0-0.276,0.224-0.5,0.5-0.5s0.5,0.224,0.5,0.5v1.552
			C18.5,13.494,16.93,15,15,15z"/>
	</g>
	<g>
		<path d="M15,27.478c-0.118,0-0.235-0.042-0.33-0.124C14.643,27.33,11.949,25,9,25c-0.276,0-0.5-0.224-0.5-0.5S8.724,24,9,24
			c2.722,0,5.14,1.666,6,2.334C15.863,25.667,18.289,24,21,24c0.276,0,0.5,0.224,0.5,0.5S21.276,25,21,25
			c-2.945,0-5.644,2.331-5.671,2.354C15.235,27.437,15.118,27.478,15,27.478z"/>
	</g>
	<g>
		<path d="M8.91,12.538c-0.153,0-0.305-0.07-0.403-0.203C6.28,9.317,4.142,8.546,4.12,8.538C3.997,8.496,3.893,8.406,3.835,8.289
			L0.052,0.724c-0.078-0.155-0.069-0.339,0.022-0.486S0.327,0,0.5,0h2.522c0.157,0,0.306,0.074,0.4,0.2l7.565,10.087
			c0.166,0.221,0.121,0.534-0.1,0.7s-0.535,0.121-0.7-0.1L2.772,1H1.309l3.336,6.671c0.628,0.271,2.616,1.29,4.667,4.07
			c0.164,0.222,0.117,0.535-0.105,0.699C9.117,12.506,9.013,12.538,8.91,12.538z"/>
	</g>
	<g>
		<path d="M21.09,12.538c-0.103,0-0.207-0.032-0.296-0.098c-0.222-0.164-0.27-0.477-0.105-0.699c2.051-2.78,4.038-3.799,4.667-4.07
			L28.691,1h-1.463l-7.415,9.887c-0.165,0.222-0.479,0.267-0.7,0.1c-0.221-0.166-0.266-0.479-0.1-0.7L26.578,0.2
			c0.094-0.126,0.243-0.2,0.4-0.2H29.5c0.173,0,0.334,0.09,0.425,0.237s0.1,0.332,0.022,0.486l-3.783,7.565
			c-0.059,0.118-0.162,0.208-0.287,0.25c-0.02,0.007-2.159,0.778-4.385,3.796C21.395,12.468,21.243,12.538,21.09,12.538z"/>
	</g>
	<g>
		<path d="M0.5,30c-0.072,0-0.145-0.016-0.212-0.047C0.112,29.87,0,29.694,0,29.5v-2.522c0-0.111,0.037-0.219,0.104-0.306
			l6.486-8.375c0.17-0.219,0.483-0.257,0.702-0.089c0.218,0.169,0.258,0.483,0.089,0.702l-6.382,8.24v1.287l6.965-5.78
			c0.212-0.178,0.527-0.147,0.704,0.065c0.176,0.212,0.147,0.528-0.065,0.704l-7.784,6.46C0.728,29.961,0.614,30,0.5,30z"/>
	</g>
	<g>
		<path d="M29.5,30c-0.115,0-0.229-0.04-0.32-0.116l-7.778-6.495c-0.212-0.177-0.24-0.492-0.063-0.704
			c0.176-0.212,0.492-0.242,0.704-0.063l6.958,5.81V27.15l-6.386-8.24c-0.169-0.218-0.129-0.532,0.089-0.701
			c0.218-0.17,0.532-0.13,0.701,0.089l6.491,8.375c0.068,0.087,0.105,0.195,0.105,0.306v2.522c0,0.194-0.112,0.371-0.288,0.453
			C29.644,29.984,29.572,30,29.5,30z"/>
	</g>
</g>
</svg>
