<?xml version="1.0" encoding="iso-8859-1"?>
<!-- Generator: Adobe Illustrator 19.0.0, SVG Export Plug-In . SVG Version: 6.00 Build 0)  -->
<svg version="1.1" id="Layer_1" xmlns="http://www.w3.org/2000/svg" xmlns:xlink="http://www.w3.org/1999/xlink" x="0px" y="0px"
	 viewBox="0 0 30 30" style="enable-background:new 0 0 30 30;" xml:space="preserve">
<g id="Snorlax_2_">
	<g>
		<path d="M15,30.001c-7.995,0-14.5-5.881-14.5-13.109c0-2.71,0.907-5.312,2.623-7.522c0.168-0.219,0.483-0.257,0.701-0.088
			s0.258,0.483,0.088,0.702C2.334,12.017,1.5,14.406,1.5,16.893c0,6.677,6.056,12.109,13.5,12.109s13.5-5.432,13.5-12.109
			c0-2.496-0.841-4.892-2.431-6.931c-0.17-0.218-0.131-0.532,0.087-0.702s0.532-0.132,0.702,0.086
			c1.729,2.216,2.642,4.825,2.642,7.546C29.5,24.12,22.995,30.001,15,30.001z"/>
	</g>
	<g>
		<path d="M19,5.501c-0.048,0-0.097-0.007-0.145-0.021C17.516,5.076,16.506,5.001,15,5.001c-1.548,0-2.519,0.072-3.854,0.479
			c-0.268,0.081-0.544-0.069-0.624-0.333c-0.08-0.264,0.068-0.543,0.333-0.624c1.456-0.443,2.497-0.521,4.146-0.521
			c1.604,0,2.686,0.081,4.145,0.521c0.265,0.08,0.414,0.359,0.334,0.623C19.413,5.362,19.215,5.501,19,5.501z"/>
	</g>
	<g>
		<path d="M12.5,20.001c-0.085,0-0.171-0.021-0.249-0.066c-3.011-1.731-6.094-0.958-6.125-0.95c-0.269,0.073-0.541-0.091-0.61-0.358
			c-0.069-0.268,0.092-0.541,0.358-0.61c0.143-0.037,3.516-0.88,6.875,1.05c0.239,0.138,0.322,0.443,0.185,0.683
			C12.841,19.911,12.673,20.001,12.5,20.001z"/>
	</g>
	<g>
		<path d="M17.545,20.004c-0.173,0-0.341-0.09-0.434-0.251c-0.138-0.239-0.055-0.545,0.185-0.683
			c3.363-1.933,6.689-1.089,6.831-1.053c0.267,0.07,0.426,0.342,0.356,0.609c-0.069,0.267-0.339,0.428-0.609,0.358
			c-0.031-0.008-3.087-0.769-6.08,0.953C17.716,19.982,17.63,20.004,17.545,20.004z"/>
	</g>
	<g>
		<path d="M2.501,23.001c-0.012,0-0.022,0-0.033-0.001c-0.275-0.018-0.484-0.256-0.467-0.532c0.463-7.106,3.137-11.063,8.416-12.45
			c0.197-0.052,0.407,0.022,0.528,0.185L15,15.663l4.064-5.46c0.121-0.164,0.331-0.239,0.528-0.185
			c6.927,1.819,8.115,7.977,8.406,12.45c0.018,0.276-0.191,0.514-0.467,0.532c-0.242,0.014-0.513-0.19-0.531-0.466
			c-0.421-6.469-2.757-10.121-7.34-11.459L15.4,16.8c-0.095,0.127-0.243,0.202-0.401,0.202l0,0c-0.158,0-0.307-0.075-0.401-0.202
			l-4.252-5.725c-4.589,1.342-6.927,4.994-7.348,11.459C2.981,22.798,2.762,23.001,2.501,23.001z"/>
	</g>
	<g>
		<path d="M14.907,25.992c-2.243,0-4.455-0.343-6.1-1.03c-0.255-0.106-0.375-0.399-0.269-0.654s0.401-0.376,0.653-0.269
			c3.028,1.264,8.353,1.262,11.627-0.005c0.257-0.097,0.547,0.028,0.647,0.286c0.1,0.257-0.029,0.547-0.286,0.646
			C19.414,25.65,17.146,25.992,14.907,25.992z"/>
	</g>
	<g>
		<path d="M11.818,25.588c-0.181,0-0.355-0.099-0.444-0.271l-0.505-0.978l-0.516,0.516c-0.195,0.195-0.512,0.195-0.707,0
			s-0.195-0.512,0-0.707l1-1c0.113-0.113,0.273-0.166,0.431-0.141c0.157,0.025,0.294,0.123,0.367,0.265l0.818,1.587
			c0.127,0.245,0.03,0.547-0.215,0.673C11.975,25.57,11.896,25.588,11.818,25.588z"/>
	</g>
	<g>
		<path d="M18.182,25.588c-0.077,0-0.156-0.018-0.229-0.056c-0.245-0.126-0.342-0.428-0.215-0.673l0.818-1.587
			c0.073-0.142,0.21-0.24,0.367-0.265c0.158-0.025,0.317,0.027,0.431,0.141l1,1c0.195,0.195,0.195,0.512,0,0.707
			s-0.512,0.195-0.707,0l-0.516-0.516l-0.505,0.978C18.537,25.489,18.362,25.588,18.182,25.588z"/>
	</g>
	<g>
		<path d="M2.273,11.718c-0.222,0-0.423-0.147-0.483-0.371C0.462,6.374,0.498,0.734,0.5,0.496c0.001-0.139,0.06-0.27,0.162-0.364
			c0.102-0.093,0.243-0.139,0.376-0.13c0.219,0.017,5.43,0.461,10.484,5.176c0.202,0.188,0.213,0.505,0.024,0.707
			c-0.187,0.203-0.505,0.214-0.706,0.025C6.973,2.303,2.937,1.321,1.504,1.076C1.531,2.641,1.702,7.147,2.756,11.09
			c0.071,0.267-0.088,0.541-0.354,0.612C2.359,11.713,2.315,11.718,2.273,11.718z"/>
	</g>
	<g>
		<path d="M27.727,11.718c-0.042,0-0.086-0.005-0.129-0.017c-0.267-0.071-0.426-0.345-0.354-0.612
			c1.054-3.942,1.225-8.449,1.252-10.014c-1.433,0.246-5.469,1.228-9.336,4.834c-0.2,0.188-0.52,0.178-0.706-0.025
			c-0.188-0.202-0.178-0.518,0.024-0.707c5.055-4.715,10.266-5.16,10.484-5.176c0.139-0.009,0.275,0.037,0.376,0.13
			c0.103,0.094,0.161,0.225,0.162,0.364c0.002,0.237,0.038,5.878-1.29,10.851C28.15,11.571,27.948,11.718,27.727,11.718z"/>
	</g>
</g>
</svg>
