<?xml version="1.0" encoding="iso-8859-1"?>
<!-- Generator: Adobe Illustrator 19.0.0, SVG Export Plug-In . SVG Version: 6.00 Build 0)  -->
<svg version="1.1" id="Layer_1" xmlns="http://www.w3.org/2000/svg" xmlns:xlink="http://www.w3.org/1999/xlink" x="0px" y="0px"
	 viewBox="0 0 30 30" style="enable-background:new 0 0 30 30;" xml:space="preserve">
<g id="Squirtle">
	<g>
		<path d="M15,30C6.463,30,0.5,24.609,0.5,16.891C0.5,8.917,6.701,0,15,0s14.5,8.917,14.5,16.891C29.5,24.609,23.537,30,15,30z
			 M15,1C7.273,1,1.5,9.39,1.5,16.891C1.5,25.256,8.28,29,15,29s13.5-3.744,13.5-12.109C28.5,9.39,22.727,1,15,1z"/>
	</g>
	<g>
		<path d="M10.579,18L10.579,18H6.421c-0.223,0-0.418-0.146-0.479-0.36c-0.289-0.988-0.441-2.148-0.441-3.354
			c0-3.583,1.29-6.285,3-6.285s3,2.702,3,6.285c0,1.196-0.152,2.356-0.44,3.354C10.998,17.853,10.802,18,10.579,18z M6.805,17h3.39
			c0.2-0.824,0.306-1.754,0.306-2.714c0-3.025-1.056-5.285-2-5.285s-2,2.26-2,5.285C6.5,15.253,6.604,16.183,6.805,17z"/>
	</g>
	<g>
		<path d="M23.579,18L23.579,18h-4.158c-0.223,0-0.418-0.146-0.479-0.36c-0.289-0.988-0.441-2.148-0.441-3.354
			c0-3.583,1.29-6.285,3-6.285s3,2.702,3,6.285c0,1.196-0.152,2.356-0.44,3.354C23.998,17.853,23.802,18,23.579,18z M19.805,17h3.39
			c0.2-0.824,0.306-1.754,0.306-2.714c0-3.025-1.056-5.285-2-5.285s-2,2.26-2,5.285C19.5,15.253,19.604,16.183,19.805,17z"/>
	</g>
	<g>
		<path d="M14.99,25.998c-0.454,0-0.909-0.167-1.255-0.502l-1.516-1.466H8.348c-0.793,0-1.556-0.049-2.164-0.638l-0.532-0.515
			c-0.198-0.192-0.204-0.508-0.012-0.707c0.192-0.198,0.509-0.203,0.707-0.012l0.532,0.515c0.341,0.33,0.845,0.356,1.469,0.356
			h4.073c0.13,0,0.255,0.05,0.348,0.141l1.661,1.607c0.309,0.299,0.813,0.299,1.121,0l1.66-1.606
			c0.093-0.09,0.218-0.141,0.348-0.141h4.073c0.68,0,1.166-0.063,1.487-0.374l0.532-0.515c0.198-0.192,0.517-0.187,0.707,0.012
			c0.192,0.199,0.187,0.515-0.012,0.707l-0.532,0.515c-0.624,0.604-1.454,0.655-2.183,0.655H17.76l-1.515,1.466
			C15.9,25.831,15.445,25.998,14.99,25.998z"/>
	</g>
	<g>
		<path d="M13,21c-0.128,0-0.256-0.049-0.354-0.146l-1-1c-0.195-0.195-0.195-0.512,0-0.707s0.512-0.195,0.707,0l1,1
			c0.195,0.195,0.195,0.512,0,0.707C13.256,20.951,13.128,21,13,21z"/>
	</g>
	<g>
		<path d="M17,21c-0.128,0-0.256-0.049-0.354-0.146c-0.195-0.195-0.195-0.512,0-0.707l1-1c0.195-0.195,0.512-0.195,0.707,0
			s0.195,0.512,0,0.707l-1,1C17.256,20.951,17.128,21,17,21z"/>
	</g>
	<g>
		<path d="M12,9c-0.128,0-0.256-0.049-0.354-0.146l-2-2c-0.195-0.195-0.195-0.512,0-0.707s0.512-0.195,0.707,0l2,2
			c0.195,0.195,0.195,0.512,0,0.707C12.256,8.951,12.128,9,12,9z"/>
	</g>
	<g>
		<path d="M18,9c-0.128,0-0.256-0.049-0.354-0.146c-0.195-0.195-0.195-0.512,0-0.707l2-2c0.195-0.195,0.512-0.195,0.707,0
			s0.195,0.512,0,0.707l-2,2C18.256,8.951,18.128,9,18,9z"/>
	</g>
	<g>
		<circle cx="9.5" cy="11.5" r="1"/>
	</g>
	<g>
		<circle cx="20.5" cy="11.5" r="1"/>
	</g>
</g>
</svg>
