<?xml version="1.0" encoding="iso-8859-1"?>
<!-- Generator: Adobe Illustrator 19.0.0, SVG Export Plug-In . SVG Version: 6.00 Build 0)  -->
<svg version="1.1" id="Layer_1" xmlns="http://www.w3.org/2000/svg" xmlns:xlink="http://www.w3.org/1999/xlink" x="0px" y="0px"
	 viewBox="0 0 30 30" style="enable-background:new 0 0 30 30;" xml:space="preserve">
<g id="Tyranitar_2_">
	<g>
		<path d="M26.814,29.983H3.19c-0.866,0-1.692-0.374-2.267-1.026c-0.578-0.656-0.846-1.53-0.735-2.397
			c0.674-5.291,2.95-8.903,3.552-9.782L0.019,3.136c-0.06-0.219,0.035-0.45,0.231-0.564c0.196-0.113,0.444-0.081,0.604,0.079
			l9.524,9.524l4.15-11.858c0.141-0.401,0.804-0.401,0.944,0l4.15,11.858l9.524-9.524c0.16-0.16,0.409-0.192,0.604-0.079
			c0.196,0.114,0.291,0.345,0.231,0.564L26.26,16.778c0.602,0.879,2.878,4.491,3.552,9.782c0.11,0.867-0.158,1.741-0.735,2.397
			C28.506,29.609,27.68,29.983,26.814,29.983z M1.48,4.69l3.287,12.053c0.041,0.148,0.01,0.306-0.081,0.43
			c-0.028,0.037-2.778,3.8-3.506,9.514c-0.074,0.583,0.105,1.169,0.494,1.61c0.384,0.436,0.937,0.687,1.516,0.687h23.624
			c0.579,0,1.132-0.25,1.516-0.687c0.388-0.441,0.568-1.028,0.494-1.61l0,0c-0.73-5.729-3.478-9.476-3.505-9.514
			c-0.092-0.123-0.122-0.282-0.082-0.43L28.524,4.69l-8.755,8.755c-0.122,0.121-0.296,0.174-0.465,0.134
			c-0.167-0.038-0.304-0.16-0.361-0.322l-3.941-11.26l-3.941,11.26c-0.057,0.163-0.193,0.284-0.361,0.322
			c-0.17,0.039-0.344-0.012-0.465-0.134L1.48,4.69z"/>
	</g>
	<g>
		<path d="M11.502,20.983h-5c-0.158,0-0.307-0.075-0.401-0.201s-0.124-0.29-0.078-0.441l1.239-4.165l-1.145-1.373
			c-0.177-0.212-0.148-0.528,0.064-0.705c0.213-0.176,0.528-0.147,0.705,0.064l5,6c0.124,0.149,0.151,0.357,0.068,0.532
			C11.873,20.871,11.696,20.983,11.502,20.983z M7.172,19.983h3.262L8.03,17.099L7.172,19.983z"/>
	</g>
	<g>
		<path d="M23.502,20.983h-5c-0.194,0-0.371-0.112-0.453-0.288c-0.083-0.175-0.056-0.383,0.068-0.532l5-6
			c0.177-0.211,0.491-0.24,0.705-0.064c0.212,0.177,0.241,0.492,0.064,0.705l-1.145,1.373l1.239,4.165
			c0.045,0.151,0.016,0.315-0.078,0.441S23.66,20.983,23.502,20.983z M19.569,19.983h3.262l-0.858-2.884L19.569,19.983z"/>
	</g>
	<g>
		<path d="M25.502,25.983c-0.117,0-0.234-0.041-0.329-0.123l-0.786-0.685c-0.172-0.151-0.424-0.218-0.676-0.183l-6.785,0.985
			l-3.778,0.005l-6.856-0.991c-0.25-0.034-0.503,0.032-0.676,0.183L4.83,25.859c-0.208,0.181-0.524,0.16-0.706-0.048
			c-0.182-0.208-0.16-0.524,0.048-0.706l0.786-0.685c0.39-0.34,0.945-0.496,1.477-0.418l6.785,0.985l3.634-0.005l6.713-0.98
			c0.536-0.079,1.087,0.079,1.477,0.418l0.786,0.685c0.208,0.181,0.23,0.497,0.048,0.706C25.78,25.925,25.641,25.983,25.502,25.983z
			"/>
	</g>
	<g>
		<path d="M8.502,27.983c-0.174,0-0.335-0.09-0.426-0.238l-1.802-2.937c-0.145-0.235-0.071-0.543,0.165-0.688
			c0.234-0.144,0.542-0.072,0.688,0.165l1.375,2.241l1.074-1.76c0.144-0.236,0.451-0.31,0.688-0.166
			c0.235,0.144,0.31,0.452,0.166,0.688l-1.5,2.457C8.838,27.892,8.677,27.983,8.502,27.983L8.502,27.983z"/>
	</g>
	<g>
		<path d="M21.502,27.983L21.502,27.983c-0.175,0-0.336-0.091-0.427-0.239l-1.5-2.457c-0.144-0.236-0.069-0.543,0.166-0.688
			s0.544-0.07,0.688,0.166l1.074,1.76l1.375-2.241c0.145-0.236,0.453-0.309,0.688-0.165c0.235,0.145,0.309,0.453,0.165,0.688
			l-1.802,2.937C21.837,27.893,21.676,27.983,21.502,27.983z"/>
	</g>
	<g>
		<circle cx="12.502" cy="22.983" r="0.5"/>
	</g>
	<g>
		<circle cx="17.502" cy="22.983" r="0.5"/>
	</g>
</g>
</svg>
