<?xml version="1.0" encoding="iso-8859-1"?>
<!-- Generator: Adobe Illustrator 19.0.0, SVG Export Plug-In . SVG Version: 6.00 Build 0)  -->
<svg version="1.1" id="Layer_1" xmlns="http://www.w3.org/2000/svg" xmlns:xlink="http://www.w3.org/1999/xlink" x="0px" y="0px"
	 viewBox="0 0 30 30" style="enable-background:new 0 0 30 30;" xml:space="preserve">
<g id="Zubat_2_">
	<g>
		<path d="M15,26.001c-3.436,0-5-3.394-5-6.548c0-1.33,0.578-3.413,0.603-3.501c0.074-0.266,0.355-0.418,0.616-0.347
			c0.266,0.074,0.421,0.35,0.347,0.616c-0.005,0.021-0.565,2.04-0.565,3.232c0,2.672,1.252,5.548,4,5.548s4-2.876,4-5.548
			c0-0.712-0.155-1.356-0.305-1.98c-0.106-0.442-0.207-0.859-0.254-1.294c-0.009-0.086,0.004-0.172,0.037-0.25
			c0.315-1.005,0.523-1.679,0.523-2.579c0-0.408-0.063-0.811-0.188-1.196c-0.085-0.263,0.059-0.544,0.322-0.629
			c0.265-0.086,0.544,0.06,0.629,0.322c0.157,0.484,0.236,0.99,0.236,1.503c0,1.063-0.244,1.843-0.552,2.826
			c0.045,0.339,0.13,0.691,0.22,1.063c0.156,0.648,0.333,1.383,0.333,2.214C20,22.607,18.436,26.001,15,26.001z"/>
	</g>
	<g>
		<path d="M12.5,10.001c-0.14,0-0.279-0.059-0.378-0.173c-0.181-0.209-0.157-0.524,0.052-0.705c1.688-1.458,3.957-1.467,5.651-0.026
			c0.21,0.179,0.235,0.495,0.057,0.705c-0.18,0.21-0.495,0.235-0.705,0.057c-1.325-1.128-3.026-1.121-4.349,0.021
			C12.732,9.961,12.616,10.001,12.5,10.001z"/>
	</g>
	<g>
		<path d="M11.133,16.624c-0.192,0-0.387-0.115-0.484-0.29c-0.016-0.028-0.031-0.061-0.041-0.091
			c-0.025-0.076-0.609-1.87-0.609-2.967c0-0.522,0.122-0.91,0.25-1.321c0.083-0.264,0.374-0.45,0.638-0.364
			c0.264,0.082,0.422,0.326,0.339,0.589c-0.142,0.454-0.228,0.728-0.228,1.097c0,0.767,0.39,2.134,0.551,2.631
			c0.004,0.01,0.008,0.02,0.011,0.03c0.13,0.24,0.025,0.5-0.215,0.634C11.28,16.607,11.207,16.624,11.133,16.624z"/>
	</g>
	<g>
		<path d="M29.49,23.001c-0.174,0-0.34-0.091-0.431-0.247c-0.503-0.856-1.135-1.38-1.876-1.556c-1.247-0.296-2.448,0.465-2.46,0.472
			c-0.21,0.135-0.489,0.096-0.651-0.094c-1.787-2.078-4.29-1.178-4.395-1.138c-0.258,0.096-0.546-0.034-0.644-0.292
			c-0.097-0.258,0.032-0.545,0.29-0.643c0.031-0.012,3-1.104,5.229,1.122c0.556-0.272,1.661-0.684,2.852-0.402
			c0.567,0.133,1.081,0.402,1.537,0.804c-0.154-2.403-0.764-7.603-3.155-14.334c-0.451,2.467-1.833,6.624-6.034,10.548
			c-0.201,0.189-0.519,0.178-0.707-0.024s-0.178-0.518,0.024-0.707C25.113,10.864,25.002,4.578,25,4.515
			c-0.007-0.243,0.162-0.456,0.4-0.504c0.238-0.054,0.476,0.081,0.565,0.307c4.163,10.623,4.032,17.891,4.025,18.195
			c-0.006,0.223-0.159,0.416-0.375,0.471C29.574,22.996,29.532,23.001,29.49,23.001z"/>
	</g>
	<g>
		<path d="M24.5,19.001c-0.274,0-0.497-0.22-0.5-0.495c-0.038-3.595-1.232-5.736-1.244-5.757c-0.136-0.24-0.053-0.545,0.186-0.682
			c0.241-0.137,0.544-0.054,0.682,0.185c0.055,0.095,1.336,2.369,1.376,6.244c0.003,0.276-0.219,0.502-0.495,0.505
			C24.503,19.001,24.501,19.001,24.5,19.001z"/>
	</g>
	<g>
		<path d="M0.51,23.001c-0.042,0-0.083-0.005-0.125-0.016c-0.216-0.056-0.369-0.248-0.375-0.471
			C0.003,22.21-0.128,14.942,4.035,4.319C4.123,4.093,4.361,3.959,4.6,4.012C4.838,4.06,5.007,4.274,5,4.516
			c-0.002,0.063-0.113,6.348,5.931,11.995c0.202,0.188,0.212,0.505,0.024,0.707s-0.505,0.213-0.707,0.024
			C6.047,13.318,4.665,9.161,4.214,6.694c-2.395,6.74-3.003,11.934-3.156,14.335c0.456-0.403,0.97-0.672,1.538-0.805
			c1.19-0.282,2.296,0.13,2.852,0.402c2.229-2.226,5.198-1.135,5.229-1.123c0.258,0.098,0.387,0.385,0.29,0.643
			c-0.097,0.258-0.386,0.389-0.643,0.292c-0.106-0.04-2.608-0.94-4.395,1.139c-0.163,0.19-0.441,0.23-0.651,0.094
			c-0.012-0.007-1.214-0.766-2.46-0.472c-0.742,0.176-1.373,0.7-1.876,1.556C0.85,22.91,0.684,23.001,0.51,23.001z"/>
	</g>
	<g>
		<path d="M5.5,19.001c-0.001,0-0.003,0-0.005,0C5.219,18.998,4.997,18.772,5,18.496c0.041-3.875,1.322-6.149,1.376-6.244
			c0.137-0.239,0.442-0.322,0.682-0.185c0.239,0.137,0.322,0.442,0.186,0.682C7.232,12.77,6.037,14.911,6,18.506
			C5.997,18.781,5.774,19.001,5.5,19.001z"/>
	</g>
	<g>
		<path d="M16.5,16.001h-3c-0.155,0-0.302-0.072-0.396-0.195c-0.095-0.123-0.127-0.283-0.087-0.433
			c0.125-0.475,0.702-1.372,1.983-1.372c1.333,0,1.884,0.912,1.989,1.394c0.032,0.148-0.004,0.302-0.1,0.42
			C16.794,15.933,16.651,16.001,16.5,16.001z"/>
	</g>
	<g>
		<path d="M10.751,12.53c-0.117,0-0.233-0.041-0.328-0.123c-3.051-2.653-2.44-5.87-2.413-6.005c0.041-0.2,0.199-0.355,0.399-0.393
			c0.12-0.022,2.995-0.514,5.314,2.628c0.164,0.222,0.117,0.535-0.105,0.699s-0.536,0.117-0.699-0.105
			c-1.504-2.038-3.2-2.235-3.97-2.264c-0.05,0.827,0.066,2.89,2.13,4.685c0.208,0.181,0.23,0.497,0.049,0.706
			C11.029,12.472,10.891,12.53,10.751,12.53z"/>
	</g>
	<g>
		<path d="M19.247,12.531c-0.14,0-0.278-0.058-0.377-0.172c-0.181-0.208-0.159-0.524,0.049-0.706
			c2.065-1.796,2.182-3.861,2.132-4.688c-0.763-0.03-2.458,0.216-3.962,2.255c-0.165,0.222-0.477,0.27-0.699,0.105
			c-0.222-0.164-0.27-0.477-0.105-0.699c2.319-3.143,5.188-2.64,5.31-2.617c0.2,0.038,0.356,0.193,0.397,0.393
			c0.027,0.135,0.635,3.353-2.416,6.006C19.48,12.49,19.363,12.531,19.247,12.531z"/>
	</g>
	<g>
		<circle cx="13.5" cy="12.501" r="0.5"/>
	</g>
	<g>
		<circle cx="16.5" cy="12.501" r="0.5"/>
	</g>
</g>
</svg>
